<?xml version="1.0" encoding="utf-8"?>
<!-- Generator: Adobe Illustrator 21.0.0, SVG Export Plug-In . SVG Version: 6.00 Build 0)  -->
<svg version="1.1" id="Layer_1" xmlns="http://www.w3.org/2000/svg" xmlns:xlink="http://www.w3.org/1999/xlink" x="0px" y="0px"
	 viewBox="0 0 192.5 225.5" style="enable-background:new 0 0 192.5 225.5;" xml:space="preserve">
<style type="text/css">
	.st0{fill:#4A9FEB;}
	.st1{fill:#303030;}
	.st2{fill:#FEFEFE;}
	.st3{fill:#FFFFFF;}
	.st4{fill:#F33735;}
</style>
<g>
	<path class="st0" d="M63.2,70.3c0,11.3,0.4,22.5,0,33.7c-0.5,13.6,10.4,26,26,25.8c10.6-0.2,21.2,0,31.7,0c3.6,5.5,7,11.3,12,15.8
		c2.9,2.7,5.9,5.2,9.4,7.2c4.2,2.4,6.4,5.9,6,10.9c-0.4,4.7-3.3,7.5-7.5,9.2c-36.1,13.9-72.2,27.8-108.3,41.6
		c-7.2,2.8-13.9-0.8-15.4-8c-0.3-1.6-0.3-3.2,0.3-4.7c5.1-13.9,3.1-27.2-2.7-40.4c-2.9-6.5-5.3-13.2-7.5-19.9
		c-7.1-22.1,0.3-46.1,18.7-60.3c2.2-1.7,2.7-3.3,2-6.1c-2-7.5,1-13.3,7.9-15.7c5.7-2,11.6,0.1,14,5.6c1.7,3.8,4.1,4.9,7.9,4.6
		C59.5,69.4,61.5,69,63.2,70.3z"/>
	<path class="st1" d="M63.2,70.3c-3.3,0.1-6.5,0.1-9.8,0.3c-2.5,0.1-2.7-1.9-3.4-3.5c-3.1-7.4-10.7-9.8-17.2-5.4
		c-4.4,3-6,8.6-3.7,14.2c0.8,2.1,0.7,3.5-1.2,4.9C6.7,97.3,0.2,121.1,9.7,146.2c3.6,9.4,7.9,18.6,10.4,28.5
		c2.3,8.7,1.4,17.2-1.4,25.6c-1.6,4.5-1.2,8.5,2.4,11.8c3.5,3.3,7.6,3,12,1.3c35.8-13.9,71.7-27.6,107.5-41.4
		c4.1-1.6,6.6-4.3,6.8-8.7c0.3-4.7-2-7.8-6-10.1c-8.9-5-15.1-12.7-20-21.4c-0.3-0.6-0.8-1.5-0.4-2c0,0,4.9-0.1,5.4,0.6
		c5.6,7.4,10.6,14.7,18.9,19.3c5,2.8,7.5,7.5,7.1,13.3c-0.4,6.4-3.6,11.2-9.5,13.6c-8.6,3.6-106.5,41.3-110.1,42.2
		c-6.1,1.6-11.8,0.4-16.1-4.3c-4.1-4.4-4.7-9.7-2.8-15.4c3.5-10.2,3.2-20.2-0.8-30.3c-3.8-9.4-8.1-18.6-10.5-28.5
		c-5.8-23.9,0.8-44.2,18.8-60.8c1.8-1.6,2.4-2.9,2.1-5.3c-1.3-8.4,3-16,10.2-18.5c7.5-2.6,16,0.6,20.2,8c0.8,1.4,1.6,2,3.1,1.8
		c1.2-0.1,6.2,0,6.2,0V70.3z"/>
	<path class="st1" d="M191.2,62.3c0,13,0,25.9,0,38.9s-9.2,22.3-22.2,22.3c-25.7,0.1-51.3,0.1-77.1,0c-13.4,0-22.6-9.2-22.6-22.4
		c0-25.6,0-51.1,0-76.7c0.1-13.9,9.1-22.9,22.9-22.9c25.6,0,51.1,0,76.7,0c13,0,22.3,9.2,22.3,22.2
		C191.3,36.6,191.2,49.4,191.2,62.3z"/>
	<path class="st2" d="M20.7,129.7c0-0.4,0-1.3,0.1-2.2c1.9-14.6,7.8-27.3,17.9-38.1c1.7-1.8,5.8-3.7,8.2-1.3c2.2,2.2,2.1,5.3,0.5,7
		c-9.3,10-14.9,21.8-16.4,35.4c-0.2,2.1-1,4.8-5.6,4.5C22.1,135,20.5,132.1,20.7,129.7z"/>
	<path class="st2" d="M43.9,165.1c1.1,3,1.8,5.6-2.1,7.7c-3.7,2-6.5,0-7.6-2.3c-2.2-4.3-4.5-8.7-6.4-13.1c-1-2.4,0.8-6.1,3.5-7.1
		c2.7-1.1,6.1,0.6,7.1,3.1C40.1,157.5,42,161.7,43.9,165.1z"/>
	<path class="st3" d="M45.9,214c9.4-3.6,38.9-14.8,38.9-14.8s1.1,7.9-1.3,13.9c-1.2,3.1-4.5,6.7-8.5,8.6c-4.3,2-11.1,3.4-14.3,3.1
		C54.7,224.2,50.6,221.9,45.9,214z"/>
	<path class="st4" d="M130.3,117.7c-13,0-25.9,0-38.9,0c-10.1,0-16.2-6.1-16.2-16.2c0-25.8,0-51.7,0-77.5c0-10.2,5.8-16.6,15.9-16.7
		c26.2-0.2,52.4-0.2,78.6,0c9.9,0.1,15.9,6.4,15.9,16.3c0,25.9,0,51.9,0,77.8c0,10.1-6.2,16.1-16.3,16.1
		C156.2,117.7,143.3,117.7,130.3,117.7z"/>
</g>
</svg>
