<?xml version="1.0" encoding="utf-8"?>
<!-- Generator: Adobe Illustrator 21.0.0, SVG Export Plug-In . SVG Version: 6.00 Build 0)  -->
<svg version="1.1" id="Layer_1" xmlns="http://www.w3.org/2000/svg" xmlns:xlink="http://www.w3.org/1999/xlink" x="0px" y="0px"
	 viewBox="0 0 466 425" style="enable-background:new 0 0 466 425;" xml:space="preserve">
<style type="text/css">
	.st0{fill:#3E4241;}
	.st1{fill:#FD7D00;}
	.st2{fill:#565C5A;}
	.st3{fill:#E2E4F5;}
	.st4{fill:#D4C6B8;}
	.st5{fill:#D7D9D9;}
	.st6{fill:#E6E8F9;}
	.st7{fill:#C2C4D3;}
	.st8{fill:#575C5B;}
	.st9{fill:#E2E4F4;}
	.st10{fill:#FB7C02;}
	.st11{fill:#585D5C;}
</style>
<g>
	<path class="st0" d="M156.4,150.9c-6,6.4-8,12.9-4.2,22c7.6,17.9,13.9,36.4,20.7,54.7c0.4,0.9,0.7,1.7,1,2.6
		c0.5,1.7,1.4,3.4,1.9,5.1c0.3,1.1,0.5,2.1,0.9,3.2c0.8,1.8,1.4,3.7,2.2,5.6c0.7,1.7,1.3,3.4,2,5c0.5,1.1,0.9,2.1,1.3,3.2
		c0.9,2.5,1.6,5,2.7,7.4c0.8,1.9,1.5,3.9,2.3,5.8c0.6,1.5,1.2,3.1,1.8,4.6c2.7,6.9,2.8,7,10,7c11.1,0,22.2,0.1,33.3,0
		c4.6-0.2,9.2,0.2,13.8,0c8.5-0.1,17,0,25.5,0c4.2,0.2,8.4-0.1,12.6,0.1c4.8,0.9,7.9-1.1,10-5.4c1.4-3,3.3-5.8,4.7-8.8
		c2.4-4.9,6-7.2,11.6-6.7c3.5,0.3,7,0,10.5,0c0.9,0,1.7-0.1,2.6,0c3.9-0.1,7.7-0.1,11.6,0c5.9-0.2,11.9-0.1,17.8,0
		c5.6,0,11.2,0.4,17.2-0.2c-0.6-6.2-3.5-11.1-5.2-16.5c-1.2-4-2.5-7.9-3.9-11.9c-1.6-4.6-1.9-4.7-6.2-1.9c-4.2,2.8-7.5,6.6-11.2,9.8
		c-7.8,7.1-7.8,7.1-15.6,1c-2.6-2-5.2-4.1-7.8-6.1c-3-2.2-3.2-4.7-1.7-7.8c1.5-3.1,3.3-6.1,4.4-9.4c2.1-3.5,3.6-7.5,7.1-10
		c1.1,0.8,1.7,0,2.5-0.7c3.1-3.3,6.5-6.2,10.2-8.8c14.5-10,30.7-13.8,48.2-12.3c19.5,1.7,35.7,9.8,48.1,25
		c5.1,6.2,8.8,13.1,10.9,20.9c-4.2,2.9-8.9,4.3-12.7,7.3c-3,3.1-6.2,5.4-10.9,3.6c-3.4-2.8-6.1-6.2-9.2-9.1
		c-11.1-10.4-24.4-12.2-39.2-10.8c0.9,5.4,3.4,9.6,4.6,14.2c2.2,6,4.2,12.2,6.2,18.3c1.2,3.7,3.3,5.4,7.2,5.3
		c6.6-0.2,13.2,0.1,19.8-0.1c5.8,0,11.5-0.1,17.3,0.1c4,0.1,8.2-0.9,11.9,1.5c2,0,4-0.1,6,0c2.8,0.1,3.3,0.8,2.3,3.4
		c-1.4,3.6-3,7-4.5,10.5c-0.9,2-2.4,3.1-4.7,3.1c-3.5,2.4-7.4,1.3-11.2,1.4c-6.7,0.2-13.3,0.2-20,0c-19.3,0.4-38.5,0.3-57.8,0
		c-6.3,0.1-12.5,0.2-18.8-0.1c-2,0.1-4.1-0.5-7,0.8c3.4,0.7,5.7,0.5,8.1,0.3c6.3-0.2,12.6,0.1,18.9-0.1c15.6-0.1,31.2,0,46.9,0
		c2.7,0,5.8-0.6,7.5,2.6c-0.1,6.8-4.2,14.4-8.8,15.1c-8.4,1.4-16.9,3.2-25.5,0.8c-2.1-0.7-4.3-0.5-6.4-0.6
		c-12.5-0.6-24.9,0.8-37.3,1c-48,0-95.9,0-143.9,0c-8.7,0-10.7-1.4-13.9-9.3c-0.5-1.2-1-2.5-1.4-3.7c-11.9-31.7-23.7-63.3-35.6-94.9
		c-0.4-1.1-0.3-2.7-2.2-3.2c-4.3,6.6-8.5,13.5-12.7,20.2c-3.4,5.4-3.4,5.9,1.2,10.1c14.1,13,19.6,29.7,21.2,48.2
		c0.2,2,0.4,4.3-1.5,5.5c-2.3,1.4-4-0.4-5.7-1.7c-4.3-2.5-6.1-6.1-6.8-11.3c-1.4-11.3-6.6-21.2-14.2-29.7c-1.3-1.4-2.3-3.3-4.7-3.3
		c-1.6,1.1-2.2,2.9-3.3,4.4c-3,5.2-6.3,10.2-9.5,15.2c-5.5,10.1-11.8,19.6-17.7,29.4c-4.1,6.8-9.7,8.9-14.7,6
		c-5.3-3.2-5.6-8.7-0.9-16.1c5.9-9.4,11.7-18.9,17.4-28.4c3.6-5.5,7-11.1,10.3-16.8c2.2-3.2,1.3-5-2.4-6c-8.6-2.3-17.3-3.1-26.1-1.2
		c-3.5,0.8-6.2-0.1-7.9-3.5c-1.5-1.8-3.9-2.6-5.3-4.8c17.5-6.6,34.7-5.6,51.8,1.6c6.2-10.2,12.2-20.1,18.3-30
		c0.4-0.6,0.4-1.2,0.4-1.9c0.2-3.2,3.9-4.1,4.6-6.9c0.6-3.9-0.6-8,1-11.9c2.6-2,4-0.8,4.6,1.8c0.6,2.3,0.3,4.6,0.3,6.9
		c0.1,2.9,1.6,3.8,4.3,3.3c1.8-0.4,3.6-0.9,5.1-2c3.1-2.1,3-4.5,0-6.7c-0.9-0.7-2.1-1.1-3.1-1.5c-5.4-2.4-5.6-4.4-0.6-8.2
		c0.9-1.4,1.8-2.8,2.6-4.1c-0.2-1.4-1.9-1.4-2.3-2.7c1.7-3,3.4-6.1,5-8.9c2.2-0.2,3.1,1.6,5.1,1.3c5.4-8.7,10.9-17.6,16.5-26.4
		c2-3.1,3.4-6.1,3.3-10.1c-0.2-5.1,3.7-9.8,8.3-11.4c4.7-1.6,9.4-0.2,12.8,4.3c1.4,1.9,2.9,2.3,5,2.3c6.8-0.1,13.7,0,20.5,0
		c1.5,0,3-0.2,4.4,0.7c2.3,1.4,3.5,4.2,2.9,6.9c-0.6,2.6-2.8,4.4-5.9,4.4c-7.3,0.1-14.6,0-22,0c-1.4,0-3.1-0.4-4,1.3
		c-1.2,2.2-3.5,3.5-5.1,5.3c1.1,1.8,2.9,1.7,4.4,2.2c2.8,0.9,5.8,1.5,8.7,2.3c4,1.1,8,2.1,12,3.3c1.5,0.4,2.8,1.4,2.3,3.2
		c-0.5,2-1.9,2.6-3.8,2.1c-0.6-0.2-1.3-0.4-1.9-0.6c-5.8-1.6-11.5-3.1-17.3-4.6c-4.1-1.1-8.6-1.4-10.5-7.1
		c-6,9.7-11.5,18.7-17.2,27.7c-1.3,2.1-0.1,2.6,1.5,3.1C164.8,145.2,162.2,149,156.4,150.9z"/>
	<path class="st1" d="M185.5,137c16.9,2.5,32,9.7,46.5,18.2c12.3,7.2,22.8,16.6,33.7,25.6c2.4,2,4.6,4.4,5.4,7.6
		c0.7,1.1,0.7,2.2,0.1,3.4c-3.6,3.3-7.8,2.2-11.7,1.1c-10.8-3.2-21.8-5.1-33-6.1c-18.8-2.3-37.6-4.3-56.5-1.7
		c-3.9,0.5-7.2-0.5-9.9-3.5c-6.4-7.1-8.6-24-4.2-32.5c1.3-0.5,3,1.6,4.1-0.8c1.4-2.9,3.7-5.4,4.1-8.7
		C170.9,135.8,178.2,135.9,185.5,137z"/>
	<path class="st2" d="M59.9,322.7c-1.1-0.4-2.2-0.7-3.3-1.1c-43.8-14.7-55.8-71.1-21.9-102.4c6.7-6.2,14.6-10.2,22.9-13.6
		c2.7,1.9,5.2,2.9,8.9,2c6.2-1.6,12.7-1.6,19.1-0.1c4.3,0.9,8.5,1.7,12.7,4.1c-1.3,2.3-2.4,4.3-3.5,6.2c-1.9,0.8-3.6-0.1-5.3-0.5
		c-6.6-1.7-13.3-2.4-20.2-1.5c-23.1,3.2-41.5,23.6-41.9,47c-0.5,26.7,20.6,49,47.4,49.9c30.2,1,55-27.5,49.2-57.2
		c-2.2-11.4-8.3-20.5-15.9-28.9c1.4-2.2,2.7-4.4,4-6.6c0.4,0,0.6,0,0.7,0.1c11.9,10.5,18.9,23.5,20.2,39.4c0.1,1.6,0.3,2.8,1.9,3.6
		c1.1,0.6,2.1,1.5,3.2,2.3c0,1.2,0.4,2.3,0.2,3.5c-2.3,17.4-9.1,32.6-23.3,43.6c-5.8,4.5-11.7,9.3-19.8,9.3
		c-10.2,3.3-20.6,3.9-31.2,1.9C62.3,324.6,61.2,322.9,59.9,322.7z"/>
	<path class="st0" d="M313.9,215.2c-2-0.8-4-1.5-6-2.3c-10.9-4.4-22.1-8.2-32.6-13.5c-2.6-1.3-5.6-2.6-4.8-6.6
		c1.3-1.3,0.9-3.4,2.3-4.6c2.1-5.1,2.7-5.5,7.6-3.8c3.8,1.3,7.4,2.8,11.1,4.3c4.6,1.9,9.3,2.1,14.1,0.9c7.1-1.6,13.3-5.1,19-9.4
		c2.4-1.8,4.5-3.9,6.8-5.8c2.6-2.1,6.2-1.9,9.1,0.3c2.6,2,2.9,3.6,1,7.4c-3.5,7.1-7.1,14.2-11.3,21c-1.5,3.8-4.3,6.8-6.2,10.3
		C321,216.5,317.6,216.8,313.9,215.2z"/>
	<path class="st2" d="M362.9,321.7c-13.8-3.9-23.8-12.7-31.2-24.7c-0.4-0.7-0.5-1.6,0-2.4c5.4-0.5,10.8-0.5,16.3-1
		c8.4-0.8,16.9-0.2,25.4-0.2c1.3,0,2.7-0.5,3.7,0.8c-1.5,1.9-3.6,1.4-5.5,1.5c-6.5,0.1-13,0-19.5,0.1c-1.2,0-2.7-0.7-3.5,0.8
		c0.2,1.2,1,1.8,1.7,2.5c25.8,24.1,66.7,14.6,79.4-18.4c0.8-2.2,1.2-4.5,3.1-6.1c3.8,0,7.5-0.1,11.3-0.1c-0.3,1-0.6,1.9-0.8,2.9
		c-5.8,23.3-20.3,38.2-43.2,45.2c-11.8,3-23.6,3-35.2-0.9C364.2,321.9,363.5,321.9,362.9,321.7z"/>
	<path class="st2" d="M113.9,171.4c-1.5-1.6-1.6-3.6-1.6-5.6c-0.1-9.6-0.1-19.2,0-28.7c0-2,0.1-4,1.6-5.6c10.9-0.1,20,3.2,25,13.8
		c-0.6,2-2.9,3.2-2.6,5.7c3.1,1.3,6.7,1.5,9.1,4.4c2,2.3,2.2,3.8,0,6c-3.6,3.6-8.1,4.6-13.5,3.7c0-3.8-0.1-7.4,0-11
		c0.1-2.4-1.1-2.8-3.1-2.6c-5.2,5.3-5.2,9,0,14.1c-2.9,0.7-3.9,3.7-6.2,5C119.8,170.6,117,172,113.9,171.4z"/>
	<path class="st3" d="M111.5,136.6c0.1,9.9,0.1,19.8,0,29.8c0,1.8-0.2,3.6-1.5,5.1c-4.4-0.2-6-1.4-7-5.4c-2-7.8-1.1-15.8-0.8-23.7
		c0.1-2.6,1.1-5.4,2.7-7.9c1.2-2,2.6-3.4,5.1-3.1C111.3,132.9,111.5,134.7,111.5,136.6z"/>
	<path class="st2" d="M426.4,239.4c-0.3-0.6,0-1.3,0.4-1.9c1.9,0.5,3.7,0.4,5.5-0.7c1.5-0.9,3.2-1.5,4.9-2.2
		c2.7,4.8,4.5,9.9,5.9,15.2c0.7,2.5,0.3,5.3,1.8,7.7c-4,0-8,0-12,0C430.7,251.5,429.1,245.2,426.4,239.4z"/>
	<path class="st0" d="M113.9,131.5c0,13.3,0,26.6,0,39.9c-1.3,0.3-2.6,0.3-4,0c0-13.3,0-26.7,0-40
		C111.3,131.2,112.6,131.2,113.9,131.5z"/>
	<path class="st4" d="M270.7,192.3c-0.1-0.2-0.1-0.4,0.1-0.6c0.1-1.1,0.2-2.2,0.3-3.2c0.5,0,1-0.1,1.5-0.1c-0.5,1.4-0.4,3-1.7,4.2
		C270.9,192.5,270.8,192.4,270.7,192.3z"/>
	<path class="st5" d="M60.9,324.4c-0.3-0.6-0.7-1.1-1-1.7c1.5-0.3,2.6,0.8,4,0.8C63.2,325,62,324.3,60.9,324.4z"/>
	<path class="st2" d="M74.9,250c-3.4,5.6-7.1,11.2-10.1,17c-2.5,4.8,1.2,10.1,6.6,10.5c3.8,0.3,6.3-1.2,8.2-4.3
		c6.4-10.6,12.8-21.2,19.2-31.7c0.2,1.4,1.2,2.3,2,3.4c7.9,10.7,8.6,24.1,1.8,35.5c-5,8.4-17.1,17-32,14.3
		c-14.6-2.6-25.3-15-25.8-29.8c-0.5-16,11.3-29,24.9-31.6c5.2-1,10.2-0.2,15.3,0.3C81.6,239,78.2,244.5,74.9,250z"/>
	<path class="st6" d="M285.7,241.7c6.6,10.4,7.5,21.3,2.7,32.6c-0.7,1.7-1.6,3.3-3.5,4c-4.3,0-8.6,0-12.9,0
		c-0.3-3.1,2.3-4.6,3.7-6.8c4.7-7.6,4.1-17.6-1.8-24.6c-5.3-6.4-15.4-8.7-23.1-5.4c-13.3,5.8-17,21.5-7.5,32.7c1,1.2,2.8,2,2.6,4
		c-4.6,0.3-9.3,0.3-13.9,0c-2.1-0.8-2.8-2.7-3.6-4.5c-3.3-7.7-3.8-15.6-1.1-23.6c0.6-1.9,1.3-3.5-1.6-3.7
		c-13.3-1.1-26.6-0.2-39.9-0.5c-2.6-0.1-5.4,0.2-7.6-1.6c-1-1.9-1.8-3.8-2.2-5.9c1-2.6,3.3-1.5,5-1.5c11.6-0.1,23.2-0.1,34.8,0
		c4.8,0,9.6,0.3,14.2-1.5c-0.6,2.7,2.9,3.8,2.3,6.5c3.1-4.2,6.8-7.5,11.4-9.5c6.5-2.8,13-4.7,20.4-3.2c6.5,1.3,11.9,4.5,17,8.3
		C282.9,238.5,284.5,239.8,285.7,241.7z"/>
	<path class="st7" d="M245.8,278.2c-6.4-4.6-9-10.8-9-18.7c0-11.3,9.6-20.8,20.8-21c8.8-0.1,16.2,3.5,20.2,11.8
		c3.6,7.6,3.4,15.2-1.5,22.5c-1.3,1.9-3.3,3.2-4.3,5.4C263.3,278.5,254.6,278.6,245.8,278.2z"/>
	<path class="st7" d="M306.3,237.5c5.1,0.1,8.9,2.3,12,6.5c3.1,4.2,2.4,8.7,2.6,13.3c-4.3,0.1-8.6,0.3-12.9,0.1
		c-3.2-0.1-5.3,1-6.7,3.9c-2.4,4.7-5.3,9.2-7.6,13.9c-1.3,2.7-3.1,3.6-5.8,3.3c-1-0.1-2-0.1-3-0.2c5.5-9.4,6.8-19.1,3-29.5
		c-1.6-4.3-4.4-7.7-7-11.3C289.4,237.5,297.9,237.4,306.3,237.5z"/>
	<path class="st2" d="M394.6,257.4c-5.1,0-5,0-6.8-5.1c-2.3-6.6-4.6-13.3-6.8-19.9c1,0.1,2,0.2,3,0.2c10.1,0.2,18.2,4.3,24.6,12
		c3.1,3.8,4.6,8.4,6.3,12.9C408.2,257.5,401.4,257.5,394.6,257.4z"/>
	<path class="st7" d="M175,235.4c0.3-1.8-0.6-3.8,1-5.3c1.1-0.8,2.4-1.2,3.8-1.2c15.3-0.2,30.6-0.2,45.9,0c1.7,0,3.9-0.1,4.3,2.5
		c0,1.3-0.1,2.6-0.1,4c-1.1,2.2-2.4,3.2-5.2,3.1c-16.3-0.2-32.5-0.1-48.8-0.1C174.9,237.7,174.7,236.6,175,235.4z"/>
	<path class="st6" d="M173,230.4c-0.4-0.6-1-1.2-0.9-2c0.8-0.5,0.9-1.2,0.8-2c-0.1-1.4,0.7-2,2-1.9c2.2-1.9,5-1.6,7.6-1.6
		c14.6-0.1,29.3,0,43.9-0.1c1.5,0,3-0.1,4.4,0.6c2.8,1.4,3.9,3.5,2.6,6.5c-1.2,0.5-2.4,1-3.5,1.5c-0.7-1.3-2-1-3.1-1
		c-16,0-31.9,0-47.9,0c-1.1,0-2.4-0.3-3.1,1C174.6,232.1,173.8,231.2,173,230.4z"/>
	<path class="st7" d="M216.9,253.9c-10.5,0-21,0.5-31.5-0.3c-2.6-0.3-3.4-2.9-5.3-4.1c-1.1-1.5-1.4-3.4-1.9-5.1
		c9.3,0,18.5,0,27.8,0.1c6,0,11.9,0,17.9,0c1.5,0,3.1-0.3,3.2,2c-1,2.3-3.4,3.3-5,5C220.9,253.6,218.9,253.9,216.9,253.9z"/>
	<path class="st6" d="M222.6,257.9c-1.4,0.8-2.5,0.5-3.7,0.5c-2.1,1.8-4.6,1.4-7.1,1.5c-7.7,0.3-15.4-0.5-23.1,0.5
		c-1.8,0.8-3.3-0.1-4.9-0.9c-1.4-2.2-2-4.7-2.8-7.1c1-0.9,1.9-0.7,2.9,0c10.7,0,21.5,0,32.2,0c2,0,4,0.2,5.7-1
		C223.3,253.6,223.1,255.8,222.6,257.9z"/>
	<path class="st2" d="M405.6,278.5c-16.6-0.1-33.2-0.1-49.8-0.1c-1.5-0.9-2.2-2.1-1.1-3.8c1.8,0,3.7-0.1,5.5-0.1
		c5.7,0,11.3-0.3,17,0.1c5.7,0.4,11.4-0.1,17.1-0.1c6.3,0,12.6,0.1,18.9,0.1c-0.7,2.2-1.6,4.4-3.1,6.2
		C409.8,277.6,407.4,278.5,405.6,278.5z"/>
	<path class="st2" d="M372.4,257.2c-6.6,0-12.7,0-18.8,0c1.5-8,5.8-14.2,12.4-18.8C368.4,244.6,370.9,250.7,372.4,257.2z"/>
	<path class="st8" d="M323,257.5c1.7-7,3.2-14,6.1-20.6c0.2-0.4-0.1-1-0.2-1.4c2.8,1.4,4.2,4.6,7.1,5.9c1.8-1.1,3.1-2.3,4-4
		c0.7-1.3,1.6-2.5,3.2-2.9c-0.2,1.2-1.1,2-1.7,3c-3.4,6.2-6.7,12.5-6.6,19.9C330.9,257.5,326.9,257.5,323,257.5z"/>
	<path class="st9" d="M336.1,278.4c-1.2-1-1.9-2.2-0.9-3.8c6.5,0,13,0,19.5,0c0.4,1.3,0.7,2.5,1.1,3.8
		C349.2,278.4,342.7,278.4,336.1,278.4z"/>
	<path class="st10" d="M128.9,165.5c-4.2-0.6-4.9-1.3-5-5.7c-0.2-6.2,0.6-7.5,5-8.4C128.9,156.1,128.9,160.8,128.9,165.5z"/>
	<path class="st11" d="M329.1,278.3c-1-0.1-1.9-0.7-1.9-1.9c0-1.2,1-1.8,2-1.9c2-0.1,4,0,6,0c0.3,1.3,0.6,2.5,0.9,3.8
		C333.8,278.4,331.4,278.5,329.1,278.3z"/>
	<path class="st1" d="M272.6,228.8c-4.4-1.9-8.9-3.5-13.4-5.2c-2.4-0.9-4.7-2-6.2-4c-3.6-4.8-7.1-9.6-10.3-14.7
		c-2-3.1-0.8-8.3,2.1-11.5c2.7-3,5.4-1.2,8.1-0.1c14.8,6.2,29.7,12.3,44.6,18.4c3.2,1.3,6.5,2.6,9.6,4c3.4,1.5,4,3.3,2.6,6.8
		c-1.5,4-4.3,6.2-8.6,6.5c-5.8,0.5-11.6,1-17.4,1.5C280,230.8,276.3,230.3,272.6,228.8z"/>
	<path class="st0" d="M222.6,192.4c2.1,0,4.4,0,6.6,0c1.4,0,3.1,0.1,3.2,1.6c0.4,2.9,1.8,6.2-1.6,8.5c-1.9,1.7-4.3,1.5-6.6,1.5
		c-14.3,0-28.5,0-42.8,0c-2.3,0-4.7,0.1-6.7-1.5c-2.7-1.6-3.7-4.5-2.9-7.8c0.7-2.7,2.8-2.3,4.8-2.3c2.3,0,4.6,0,6.8,0
		c0.2-0.9,0.3-1.4,0.3-1.8c0.3-5,0.4-5.1,5-5.1c9.4,0,18.9,0.1,28.3-0.1c3,0,4.8,0.8,4.8,4C222,190.4,221.6,191.4,222.6,192.4z"/>
	<path class="st7" d="M230.9,210.4c-1.9,1.9-4.3,1.6-6.6,1.6c-14.3,0.1-28.5,0.1-42.8,0c-2.3,0-4.7,0.2-6.6-1.6c0-2.6,0-5.2-0.1-7.8
		c18.7,0,37.4-0.1,56.1-0.1C230.9,205.2,230.9,207.8,230.9,210.4z"/>
	<path class="st7" d="M175,216.4c1.9-1.8,4.3-1.6,6.6-1.6c14.3-0.1,28.5-0.1,42.8,0c2.3,0,4.7-0.2,6.6,1.6c0,2.3,0,4.6,0,6.9
		c-1.7,1.4-3.8,1-5.7,1c-16.7,0-33.5,0-50.2,0C175,221.8,175,219.1,175,216.4z"/>
	<path class="st6" d="M174.9,210.4c18.6,0,37.3,0,55.9,0c2.3-0.3,3.1,0.6,3.1,3c0,2.4-0.9,3.3-3.1,3c-18.6,0-37.3,0-55.9,0
		C172.1,214.6,172.1,212.4,174.9,210.4z"/>
	<path class="st7" d="M190.6,258.5c9.5,0,18.9,0,28.4,0c-0.2,1.6,0.5,3.3-0.9,5c-10.2,0-20.7,0-31.1,0c0-1-0.1-2-0.1-3
		C187,257.8,189.1,258.5,190.6,258.5z"/>
</g>
</svg>
