<?xml version="1.0" encoding="utf-8"?>
<!-- Generator: Adobe Illustrator 21.0.0, SVG Export Plug-In . SVG Version: 6.00 Build 0)  -->
<svg version="1.1" xmlns="http://www.w3.org/2000/svg" xmlns:xlink="http://www.w3.org/1999/xlink" x="0px" y="0px"
	 viewBox="0 0 473.4 43.6" style="enable-background:new 0 0 473.4 43.6;" xml:space="preserve">
<style type="text/css">
	.st0{fill:#FD9800;}
	.st1{fill:#CB0001;}
	.st2{fill:#FCDFB0;}
	.st3{fill:#FCC167;}
	.st4{fill:#FBE8C8;}
	.st5{fill:#FEFEFE;}
	.st6{fill:#CB0101;}
	.st7{fill:#FEFEFD;}
	.st8{fill:#040366;}
	.st9{fill:#050466;}
	.st10{fill:#090764;}
	.st11{fill:#0A0866;}
	.st12{fill:#0D0B67;}
	.st13{fill:#080665;}
	.st14{fill:#0D0B68;}
	.st15{fill:#110E69;}
	.st16{fill:#18146A;}
	.st17{fill:#493B6F;}
	.st18{fill:#FCB752;}
	.st19{fill:#FCB750;}
	.st20{fill:#EB9F2D;}
	.st21{fill:#FBA412;}
	.st22{fill:#FCDEB0;}
	.st23{fill:#FCCF8A;}
	.st24{fill:#FEFDFE;}
	.st25{fill:#FEFDFD;}
	.st26{fill:#060365;}
	.st27{fill:#050366;}
	.st28{fill:#060366;}
	.st29{fill:#060668;}
	.st30{fill:#CB0304;}
	.st31{fill:#090567;}
	.st32{fill:#080465;}
	.st33{fill:#090667;}
	.st34{fill:#090666;}
	.st35{fill:#140D67;}
	.st36{fill:#010167;}
	.st37{fill:#14106B;}
	.st38{fill:#FC9802;}
	.st39{fill:#0B0967;}
	.st40{fill:#F89707;}
	.st41{fill:#0B0A67;}
	.st42{fill:#F2A52F;}
	.st43{fill:#18126B;}
	.st44{fill:#D74040;}
	.st45{fill:#3F2D71;}
	.st46{fill:#FCDFAE;}
	.st47{fill:#9796C0;}
	.st48{fill:#2A2A7E;}
	.st49{fill:#8F8EBA;}
	.st50{fill:#CA0304;}
	.st51{fill:#C70205;}
	.st52{fill:#0B0867;}
	.st53{fill:#180A64;}
	.st54{fill:#120D69;}
	.st55{fill:#CB1719;}
	.st56{fill:#1B1D74;}
	.st57{fill:#016ECE;}
	.st58{fill:#016FCF;}
	.st59{fill:#FDFDFD;}
	.st60{fill:#201F23;}
	.st61{fill:#231F20;}
	.st62{fill:#F58122;}
	.st63{fill:#221E20;}
	.st64{fill:#242022;}
	.st65{fill:#4F4D4E;}
	.st66{fill:#626061;}
	.st67{fill:#D9D7D8;}
	.st68{fill:#EDEBEC;}
	.st69{fill:#424041;}
	.st70{fill:#DBD8D9;}
	.st71{fill:#193284;}
	.st72{fill:#018A46;}
	.st73{fill:#F47920;}
</style>
<g id="Layer_1">
	<g>
		<path class="st0" d="M138.1,7c1.9-1.6,3.9-3,6.3-3.8c7.5-2.6,14.4-1.5,20.3,3.8c4.8,4.2,7,9.7,6.6,16.1
			c-0.5,9.2-7.6,16.9-16.7,18.3c-6,0.9-11.4-0.6-16.1-4.5c-0.1-0.1-0.2-0.2-0.3-0.4c0.1-0.9,1-1.2,1.4-1.8c-0.9,0.1-1.9,0-2.9,0
			c-0.8,0-2-1.3-2.1-2c0-0.4,0.3-0.5,0.6-0.5c0.7-0.1,1.4,0,2.1,0c1,0,2.1,0,3.1,0c0.3,0,0.6,0,0.8-0.1c0.5-0.3,1-0.8,0.9-1.3
			c-0.1-0.5-0.7-0.3-1.1-0.3c-2.1,0-4.3,0-6.4,0c-1.4,0-1.8-0.4-2.1-1.8c-0.1-0.5,0.1-0.8,0.6-0.8c0.2,0,0.5,0,0.7,0
			c2.6,0,5.2-0.1,7.8,0c1.2,0,2.1-0.1,2.4-1.4c0.4-0.3,0.7,0.1,0.9,0.3c1.1,0.9,2.4,0.9,3.8,0.6c0.2,0,0.2-0.2,0.3-0.3
			c0.2-0.3,0.5-0.4,0.8-0.6c0.2,0,0.3,0.1,0.4,0.2c1.2,1.1,2,1.1,3.3,0.3c0.1,0,0.1-0.1,0.2-0.1c0.1,0,0.2,0,0.2,0
			c0.6,0.6,1.1,0.7,1.8,0.1c0.2-0.1,0.4-0.2,0.6-0.2c0.1,0,0.2,0,0.2,0.1c0.6,0.6,1.3,0.6,2,0c0.4-0.2,0.5-0.6,0.5-1
			c0.2-1,0.3-2,0.5-3c0.1-0.4,0.2-0.8,0.5-1.1c0.9-0.2,1-0.1,0.9,0.7c-0.2,0.8-0.2,1.6-0.2,2.4c0,1.7,1.5,3.5,3.8,2.2
			c0.3-0.2,0.5,0.1,0.8,0.1c0.6,0.2,1.2,0.3,1.7-0.3c0.4-0.3,0.5-0.7,0.5-1.1c0.4-2.5,0.8-5,1.2-7.5c0.1-0.4,0.4-0.9-0.1-1.2
			c-0.5-0.2-1.1-0.2-1.5,0.4c-0.4,0.2-0.6,0.5-0.6,0.9c0,0.3-0.1,0.6-0.3,0.8c-0.1,0.1-0.3,0.1-0.4,0c-1.6-0.7-2.7-0.1-3.7,1.1
			c-0.3,0.1-0.4,0.6-0.8,0.4c-0.3-0.6,0.2-1.1,0.3-1.8c-0.7-0.1-0.9,0.7-1.5,0.8c-0.4-1.1-1.2-1.2-2-0.3c-0.4,0.1-0.4,0.5-0.5,0.8
			c-0.2,0.6,0.1,1.3-0.5,1.7c-0.2-0.1-0.2-0.3-0.2-0.5c0-2.1-1.2-3-3.5-2.7c-0.6,0.1-1.3,0.1-1.7,0.8c-0.6,0.3-0.6,0.8-0.6,1.4
			c0.8-0.1,1.5-0.2,2.3-0.1c0.5,0,0.9,0.1,1,0.7c-0.2,0.2-0.5,0.3-0.8,0.3c-1.2,0.1-2.1,0.6-2.9,1.4c-0.6,0.3-0.6,1-1,1.4
			c-0.9,0.6-1.9,0.8-2.8,0.1c-0.9-0.7-1.1-1.7-1-2.8c0.1-1,0.3-2,1.2-2.6c0.7-0.3,1.5-0.3,2.2,0c0.4,0.2,0.7,0.2,0.9-0.2
			c0.4-0.3,0.4-0.9,0.5-1.3c0-0.5-0.3-0.6-0.7-0.7c-1.5-0.5-2.8-0.1-4.1,0.7c-0.6,0.2-0.9,0.9-1.5,1c-0.2,0-0.3-0.1-0.4-0.2
			c-0.2-0.7-0.8-0.8-1.5-0.8c-3.1,0-6.2,0-9.4,0c-0.5,0-0.9,0.1-1.3-0.2c-0.5-1.2,0.2-2.4,1.4-2.4c2.9,0,5.8,0,8.6,0
			c0.3,0,0.9,0.2,0.9-0.4c0-0.5-0.2-1-0.8-1.2c-0.3-0.1-0.6,0-0.9,0c-2.2,0-4.5,0-6.7,0c-1.2,0-1.4-0.3-0.9-1.5c0.4-0.9,1-1.3,2-1.3
			c1.7,0,3.4,0,5.1,0c-0.2-1-0.8-1.5-1.7-1.5c-0.8,0-1.6,0-2.3,0c-0.7-0.1-0.8-0.3-0.4-0.9C136.9,7.9,137.2,7.2,138.1,7z"/>
		<path class="st1" d="M138.1,7c-0.6,0.6-1.2,1.3-1.9,2.1c1,0,1.9,0.1,2.8,0c0.9-0.1,1.4,0.2,1.8,0.9c0.2,0.4,0.5,0.7,0.7,1.2
			c-2,0-3.9,0.1-5.8,0c-0.9,0-1.5,0.3-1.8,1.1c-0.1,0.3-0.4,0.6-0.4,1c0.3,0.3,0.6,0.2,0.9,0.2c2.5,0,5,0,7.5,0c0.6,0,1,0.1,1.1,0.8
			c0.1,0.4,0.3,0.8,0.5,1.2c-0.3,0.2-0.7,0.1-0.9,0.1c-3.1,0-6.2,0-9.2,0c-0.7,0-1,0.2-1.1,0.9c-0.1,0.4-0.2,0.8-0.3,1.3
			c0,0-0.1,0.1-0.1,0.1c-0.3,0.2-0.7,0.1-1.1,0.1c-0.4,0-0.8,0.1-1,0.5c-0.4,0.2-0.5,0.4-0.5,0.8c-0.2,1.3-0.4,2.5-0.6,3.8
			c-0.1,0.3,0,0.6-0.3,0.8c-0.8-0.6-1.5-1.3-2.4-1.8c-0.2-0.1-0.3-0.4-0.2-0.7c0.4-0.3,0.8-0.2,1.1-0.2c0.3,0,0.7,0,0.9-0.4
			c0.2-0.2,0.4-0.3,0.5-0.6c0.3-0.8,0.1-1.1-0.7-1.2c-1.4-0.2-2.6,0.1-3.6,1.2c-0.4,0.2-0.4,0.9-1,0.8c-1-2.2-3.8-2.7-5.4-1.1
			c-0.2,0.1-0.3,0.4-0.4,0.6c-0.2,0.6-0.1,0.8,0.6,0.7c0.6-0.1,1.2-0.1,1.8,0c0.4,0,0.8,0.1,0.8,0.7c-0.2,0.3-0.5,0.3-0.8,0.3
			c-1.2,0.1-2.2,0.6-2.9,1.6c-0.3,0.1-0.3,0.6-0.8,0.3c-0.2-0.4-0.1-0.7,0-1.1c0.3-1.6,0.5-3.2,0.8-4.7c0.1-0.8,0.1-0.9-0.8-0.9
			c-0.8,0-1.7-0.3-2.3,0.5c-0.4,0.1-0.5,0.5-0.6,0.8c-0.3,0.8-0.5,1.7-0.8,2.5c-0.1,0.2-0.1,0.8-0.7,0.5c-0.3-1.1-0.1-2.2-0.1-3.2
			c0-1-0.1-1.1-1.1-1.1c-0.7,0-1.3-0.1-1.8,0.5c-0.5,0.2-0.5,0.6-0.5,1c-0.4,2.5-0.9,5.1-1.2,7.6c0,0.3-0.4,0.8,0.1,1
			c0.4,0.1,1,0.3,1.4-0.2c0.1-0.1,0,0,0.1-0.1c0.4-0.3,0.5-0.8,0.6-1.3c0.1-0.6,0.2-1.1,0.3-1.7c0.1-0.2,0-0.6,0.4-0.6
			c0.5,0.7,0.4,1.5,0.4,2.3c0,0.2,0,0.5,0,0.7c0,0.3-0.1,0.7,0.3,0.9c0.4,0.1,0.7,0,1-0.3c0.7-0.6,0.7-1.5,1.1-2.3
			c0.2-0.5,0.3-1.1,0.6-1.6c0.1-0.2,0.1-0.7,0.6-0.5c0.2,0.9-0.1,1.7-0.2,2.6c-0.1,0.5-0.1,1-0.2,1.4c-0.1,0.5,0,0.8,0.6,0.7
			c0.4,0,0.8,0.1,1.1-0.3c0.5-0.2,0.5-0.8,0.9-1.1c0.2,0,0.3,0.2,0.4,0.3c0.9,1.4,1.9,1.6,3.3,0.8c0.1-0.1,0.2-0.2,0.4-0.2
			c0.1,0,0.2,0,0.2,0c0.4,0.7,1.1,0.7,1.8,0.1c0.2-0.1,0.3-0.1,0.5,0c1.1,0.8,3.5,0.7,4.6-0.2c0.4-0.3,0.7-0.9,1.3-0.8
			c0.7,1.6,2,2,3.2,0.9c0.3-0.3,0.5-0.6,0.5-0.9c0-0.2,0-0.5,0.4-0.6c0.2,0.2,0.3,0.4,0.5,0.6c0.4,0.7,0.9,1.1,1.7,1.3
			c1.2,0.2,2.4,0.5,3.5-0.4c0.3-0.3,0.6-0.6,0.6-1.1c0-0.3,0.1-0.5,0.4-0.6c0.1,0,0.2,0,0.2,0.1c0.3,0.6-0.1,1.2,0,1.9
			c0.6,0.1,1.3,0.3,1.8-0.3c0.4-0.2,0.5-0.6,0.5-1c0.2-0.9,0.3-1.9,0.5-2.8c0.1-0.5,0.2-1.1,0.7-1.4c1.1-0.4,1.2-0.2,1.2,0.8
			c-0.1,1.1,0,2.1,0.4,3.1c0.1,0.2,0.2,0.4,0,0.7c-0.2,0.6-0.1,1.3-0.6,1.7c-0.5,0.4-1.2,0.1-1.8,0.1c-3,0-6,0-9.1,0
			c0.1,0.7,0.4,1.3,0.7,1.8c0.2,0.4,0.6,0.2,0.9,0.2c2.6,0,5.2,0,7.8,0c0.2,0,0.5,0,0.7,0c-0.2,0.8-0.6,1.3-1,1.9
			c-0.2,0.3-0.6,0.2-0.9,0.2c-1.8,0-3.5,0-5.3,0c-0.3,0-0.6-0.1-0.9,0.1c0.3,0.7,0.8,1.2,1.2,1.8c0.2,0.3,0.5,0.2,0.7,0.2
			c1.1,0,2.1,0,3.2,0c-0.4,0.9-1.2,1.4-1.7,2.1c-0.7,0.4-1.3,1-2,1.5c-11.7,8.3-28.2,1.7-31-12.3C103,15,110,4.3,121,2.2
			C127.4,1.1,133.1,2.7,138.1,7z"/>
		<path class="st2" d="M169.9,32.9c0,0.3,0,0.7-0.4,0.7c-0.4,0-0.4-0.3-0.5-0.7c0.2-0.2,0.5,0,0.7-0.1
			C169.7,32.9,169.8,32.9,169.9,32.9z"/>
		<path class="st3" d="M169.7,32.9c-0.2,0.3-0.5,0.1-0.7,0c0-0.2,0-0.3,0.2-0.4C169.5,32.5,169.7,32.5,169.7,32.9z"/>
		<path class="st4" d="M169.7,32.9c-0.1-0.3-0.3-0.3-0.5-0.4c0.6-0.2,0.8-0.2,0.7,0.4C169.8,32.9,169.8,32.9,169.7,32.9z"/>
		<path class="st5" d="M167.2,17.5c0-0.4,0.2-0.7,0.7-0.6c0.5,0,1,0,1.5,0c-0.2,1.5-0.4,2.8-0.7,4.2c-0.3,1.8-0.6,3.5-0.9,5.3
			c-0.1,0.4-0.1,0.7-0.7,0.7c-0.4,0.3-0.9,0.3-1.2,0.1c-0.5-0.3-0.9-0.3-1.3,0c-1.2,0.5-2.5,0.1-3.2-1.1c-1-1.7-0.6-4.7,0.6-5.8
			c1-1.6,2.9-2,4.2-1c0.2,0,0.3,0.2,0.4,0.3C166.7,18.9,166.8,18.2,167.2,17.5z"/>
		<path class="st5" d="M153.9,26.9L153.9,26.9c-1.3,0.8-2.4,0.7-3.2-0.3c-0.8-1-0.8-2.3,0.1-3.4c0.9-1.3,2.3-1.5,3.7-1.5
			c0.5-0.4,0.4-0.6-0.1-0.9c-0.6-0.2-1.2-0.1-1.8,0c-0.4,0.1-0.8,0.3-1.1-0.2c-0.3-0.4,0-0.8,0.2-1.2c0.1-0.3,0.1-0.5,0.4-0.6
			c1-0.2,2-0.5,3.1-0.3c1.4,0.3,2,0.9,2.1,2.3c0,0.1,0,0.3,0,0.4c-0.2,0.4,0.1,0.7,0,1.1c0,0.1,0,0.2-0.1,0.2
			c-0.1,0.3-0.1,0.6-0.1,0.9c0,0.1,0,0.2-0.1,0.2c0,0.6-0.2,1.3-0.2,1.9c-0.1,0.4-0.1,0.7-0.4,1c-0.1,0.2-0.4,0.1-0.6,0.2
			c-0.4,0.3-0.8,0.3-1.2,0C154.4,26.8,154.1,26.9,153.9,26.9z"/>
		<path class="st5" d="M147.3,19.6c-1.1,1.2-1.3,2.6-0.9,4.2c0.3,1,1.1,1.5,2.1,1.3c0.4-0.1,0.9-0.1,1.3-0.4
			c0.1-0.1,0.3-0.1,0.3,0.1c0,0.6,0.1,1.2-0.3,1.8c0,0.4-0.4,0.4-0.7,0.6c-1.6,0.8-3.8,0.2-4.6-1.5c-1.1-2.2-0.8-4.4,0.2-6.6
			c0.4-0.4,0.8-1,1.3-1.3c1-0.9,2.2-1.2,3.5-1c1.7,0.2,1.9,0.7,1.4,2.3c-0.1,0.4-0.3,0.2-0.5,0.2c-0.4,0.1-0.7-0.1-1.1-0.1
			C148.6,19,148,19.3,147.3,19.6z"/>
		<path class="st6" d="M132,17.6c3.8,0,7.7,0,11.5,0c0.5,0,0.8,0.1,0.8,0.6c0,0.2,0.1,0.4,0.1,0.6c-0.1,0.1-0.1,0.1-0.2,0.1
			c-0.7,0-1,0.7-1.7,0.7c-0.2-0.2-0.1-0.5-0.4-0.6c-0.6-0.1-1.2-0.2-1.6,0.5c-0.3,0.1-0.4,0.4-0.5,0.7c-0.1,0.8-0.1,1.7-0.5,2.4
			c-0.1,0.1-0.1,0.1-0.2,0.1c-0.3-0.2-0.2-0.6-0.3-0.9c0-1.3-0.4-2.4-1.7-2.9c-1.4-0.5-2.5,0-3.4,1c-0.1,0.1-0.2,0.3-0.4,0.4
			c-0.2,0.2-0.5,0.4-0.6,0.7c-0.6,1-0.8,2-0.8,3.1c0,0.4,0,0.7-0.2,1c-1,0.2-1.5-0.2-1.4-1.1c0.1-0.9,0.2-1.8,0.5-2.7
			c0.2-0.4,0.8-0.3,0.9-0.7c0.3-0.3,0.4-0.8,0.4-1.2c0-0.3-0.1-0.5-0.3-0.6C131.5,18.5,131.5,18.3,132,17.6L132,17.6z"/>
		<path class="st7" d="M160.3,21.9c-0.5,1.1-0.6,2.4-0.8,3.6c-0.1,0.3-0.2,0.7-0.2,1c0,0.5-0.3,0.6-0.6,0.6
			c-0.2,0.1-0.5,0.2-0.7,0.2c-0.8,0-1.1-0.2-1-1c0.2-2.1,0.7-4.2,0.9-6.3c0-0.2,0.2-0.4,0.3-0.6c0-0.4,0.1-0.7,0.7-0.6
			c0.4,0.1,0.9-0.1,1.3,0.1c0.2,0.3,0,0.6,0,1c0.3-0.3,0.6-0.6,0.9-0.8c0.3-0.2,0.7-0.4,1.1-0.2c-0.2,0.7-0.6,1.3-0.6,2
			c0.1,0.4-0.2,0.4-0.4,0.5C160.8,21.5,160.5,21.7,160.3,21.9z"/>
		<path class="st8" d="M144.4,18.8L144.4,18.8c0.2,0,0.3,0,0.4,0c0.2,0,0.2,0,0.2,0.2c-0.7,1.4-1,2.9-0.9,4.5c0.2,2.6,2,4,4.6,3.7
			c0.2,0,0.3,0,0.5,0c0,0.4-0.2,0.5-0.5,0.5c-1.7,0.4-3.3,0.2-4.5-1.3c-0.8-1.4-0.9-2.9-0.6-4.5c-0.4-0.3-0.7,0-1.1,0.1
			c-0.1-0.3,0-0.6,0.3-0.7c0.7-0.3,0.8-0.9,1-1.5C143.9,19.4,144,19,144.4,18.8z"/>
		<path class="st9" d="M160.3,21.9c0.1-0.4,0.4-0.7,0.9-0.8c0.2,0,0.3-0.1,0.4-0.3c0.3-0.2,0.3-0.6,0.7-0.6
			c-0.7,1.3-1.1,2.6-0.9,4.1c0.3,2.2,1.4,3,3.5,2.7c0.1,0,0.1,0.1,0.1,0.1c0,0,0,0-0.1,0c-1.4,1.1-3.1,0.6-3.8-1
			c-0.5-1.1-0.4-2.2-0.2-3.3c0.1-0.4,0.2-0.8,0.3-1.2C160.8,21.7,160.6,21.9,160.3,21.9z"/>
		<path class="st10" d="M158.2,19.4c-0.2,2.5-0.8,5-1.1,7.5c0.5,0.2,1.1,0,1.6,0.1c0,0.3,0,0.6-0.4,0.6c-0.6,0-1.1,0-1.6,0
			c-0.2-0.3,0-0.5-0.1-0.7c-0.2-0.4,0.2-0.7,0.1-1.1c0.2-0.7,0.1-1.3,0.3-2l0,0c0.2-0.3,0-0.7,0.2-1.1l0,0c0.2-0.2,0-0.5,0.2-0.6
			c0.2-0.7,0.3-1.5,0.3-2.2C157.6,19.5,157.8,19.4,158.2,19.4z"/>
		<path class="st11" d="M149.8,26.5c0.1-0.5,0.1-1,0.2-1.6c0-0.2,0-0.3-0.2-0.3c0.1-0.6,0.4-1.1,0.9-1.4c-0.3,0.6-0.5,1.2-0.4,1.9
			c0.1,1.5,1.1,2.2,2.6,2c0.3-0.1,0.6-0.2,0.9-0.2C152.5,28.3,150.9,28.1,149.8,26.5z"/>
		<path class="st12" d="M151.7,19.6c0,0.4-0.2,0.8-0.1,1.3c0.5-0.2,1-0.2,1.5-0.3c0.5-0.1,1.1-0.1,1.6,0.1c0.4,0.1,0.5,0.4,0.4,0.8
			c-0.1,0.4-0.4,0.3-0.7,0.2c-0.1-0.5-0.5-0.5-0.9-0.5c-0.5,0-0.9,0-1.4,0c-0.4,0-0.8,0.2-1.3,0.2c0-0.5,0.2-1,0.2-1.5
			C151.1,19.6,151.4,19.6,151.7,19.6z"/>
		<path class="st13" d="M147.3,19.6c0.9-0.9,1.8-1,3.1-0.4c-0.1,0.2-0.1,0.4-0.2,0.7C149.3,19.5,148.4,19.3,147.3,19.6z"/>
		<path class="st14" d="M164.8,27.2c0,0,0-0.1,0-0.1c0.3-0.2,0.6-0.4,1-0.7c0,0.4,0,0.7,0.5,0.7c0.3,0,0.6,0,0.9,0
			c0,0.3,0,0.6-0.5,0.6c-0.4,0-0.9,0-1.3,0c-0.2,0-0.4-0.1-0.4-0.3C165.2,26.9,165,27.2,164.8,27.2z"/>
		<path class="st15" d="M153.9,26.9c0.2-0.2,0.4-0.3,0.6-0.5c0.3,0.1,0.1,0.4,0.2,0.6c0.3,0.1,0.8,0,1.1,0.1c0,0.4-0.1,0.6-0.6,0.6
			c-0.4,0-0.8,0-1.2,0C153.9,27.4,154,27.1,153.9,26.9z"/>
		<path class="st16" d="M167.2,17.5c-0.1,0.7-0.2,1.4-0.3,2.1c-0.3,0-0.4-0.2-0.5-0.4c0.1-0.4,0.2-0.8,0.2-1.3
			C166.6,17.7,166.8,17.5,167.2,17.5z"/>
		<path class="st17" d="M145,19c-0.1-0.1-0.1-0.1-0.2-0.2c0.3-0.5,0.6-0.9,1.3-1.1C145.7,18.1,145.4,18.5,145,19z"/>
		<path class="st18" d="M169.9,26.4c-0.1,0.7-0.1,0.7-0.8,0.4c-0.2-0.1-0.1-0.2,0-0.3c0.2-0.1,0.4-0.2,0.6-0.2
			C169.7,26.3,169.8,26.3,169.9,26.4z"/>
		<path class="st19" d="M169.9,26.4c-0.1,0-0.1,0-0.2,0c-0.2-0.1-0.5,0.1-0.7-0.1c-0.1-0.1,0-0.2,0-0.2c0-0.1,0.1-0.1,0.1-0.2
			c0.2,0,0.4-0.1,0.5,0.2C170,26,170,26.2,169.9,26.4z"/>
		<path class="st20" d="M156.7,25.9c0,0.4,0,0.7-0.2,1c0,0-0.1,0-0.1,0c-0.1-0.4,0.1-0.7,0.1-1C156.6,25.8,156.7,25.8,156.7,25.9z"
			/>
		<path class="st21" d="M157.3,22.1c0,0.2,0.1,0.5-0.2,0.6c0-0.4,0-0.9,0.2-1.3C157.2,21.7,157.3,21.9,157.3,22.1z"/>
		<path class="st22" d="M169,26c0,0.1,0,0.1,0,0.2c0.1,0.1,0.3,0.2,0.2,0.4c-0.1,0-0.1,0.1-0.1,0.2C168.7,26.6,168.7,26.4,169,26z"
			/>
		<path class="st23" d="M169.7,26c-0.1-0.2-0.4,0-0.5-0.2C169.4,25.6,169.6,25.6,169.7,26z"/>
		<path class="st5" d="M113.4,22.5c-0.6,1.3-1,2.7-1.5,4c-0.1,0.3-0.2,0.6-0.6,0.6c-0.9,0.3-1.3,0-1.4-1.1c-0.1-1.5-0.1-3,0-4.5
			c0-0.3,0-0.7,0-1c0-0.2,0.1-0.4,0.1-0.6c0-0.1-0.2,0-0.1,0c0.1,0.3-0.1,0.5,0,0.8c-0.1,0.9,0,1.8-0.5,2.7c-0.3,1-0.4,2.1-0.6,3.1
			c-0.1,0.4-0.1,0.7-0.7,0.7c-0.2,0.2-0.5,0.2-0.7,0.2c-0.8,0-1-0.2-0.9-1c0.3-1.9,0.6-3.8,0.9-5.7c0.1-0.8,0.3-1.6,0.4-2.4
			c0.1-0.3,0.1-0.5,0.3-0.7c0.1-0.5,0.3-0.7,0.9-0.6c0.8,0.1,1.5,0,2.4,0c0.1,1.6,0,3.1,0.2,4.6c0.2,0.3,0.1,0.7,0.1,0.9
			c0.4-1.4,0.9-2.8,1.4-4.3c0.1-0.2,0.2-0.4,0.3-0.5c0.1-0.5,0.5-0.7,1-0.7c0.8,0.1,1.7,0,2.6,0c-0.4,2.4-0.8,4.8-1.1,7.2
			c0.2,0.7,0,1.2-0.3,1.8c-0.1,0.2-0.2,0.4-0.2,0.6c0,0.5-0.3,0.5-0.6,0.5c-0.3,0.2-0.6,0.2-1,0.2c-0.6,0-0.8-0.3-0.8-0.9
			c0.2-1.7,0.5-3.4,0.8-5.1c0.1-0.3,0.2-0.6,0.2-0.9c0-0.1,0-0.1,0.1-0.2c0,0,0-0.1,0-0.1c0,0,0,0,0,0.1c-0.1,0.2-0.1,0.4-0.1,0.6
			C113.8,21.3,113.9,22,113.4,22.5z"/>
		<path class="st5" d="M122.2,27.1c-0.2,0-0.3,0-0.5,0c-0.5,0.3-0.9,0.3-1.3-0.1c-0.2-0.2-0.4-0.2-0.6-0.1l0,0
			c-1.3,0.7-2.1,0.7-3-0.1c-0.7-0.7-0.9-1.9-0.5-3c0.1-0.1,0.1-0.3,0.2-0.4c1-1.3,2.4-1.7,3.9-1.7c0.4-0.6,0.3-0.8-0.3-0.9
			c-0.5-0.1-1.1,0.1-1.6,0.1c-0.4,0-0.9,0.3-1.1-0.1c-0.2-0.4,0-0.8,0.2-1.2c0.1-0.3,0.2-0.5,0.5-0.6c0.9-0.2,1.8-0.4,2.8-0.3
			c1.4,0.2,2,0.8,2.3,2.2c0.3,0.6,0.2,1.2,0.1,1.8c-0.2,1-0.3,2-0.5,3C122.5,26.1,122.8,26.8,122.2,27.1z"/>
		<path class="st5" d="M133.4,20.3c0.7-1,1.6-1.7,2.9-1.7c1.7,0,2.8,1.1,2.9,2.7c0,0.5,0,0.9,0,1.4c0.2,0.6,0,1-0.6,1.1
			c-0.9,0-1.8,0-2.7,0c-0.3,0-0.7-0.1-0.9,0.4c0.2,0.7,0.7,0.8,1.3,0.9c0.6,0.1,1.2-0.2,1.8-0.3c0.4-0.1,0.8-0.1,0.6,0.5
			c-0.1,0.3-0.2,0.5-0.2,0.8c0,0.5-0.2,0.8-0.7,0.9c-1.4,0.7-2.8,0.5-4.1-0.3c-1.3-0.8-1.5-2.2-1.5-3.7c0-0.7,0.2-1.4,0.6-2
			C133.1,20.8,133.3,20.6,133.4,20.3z"/>
		<path class="st5" d="M125.8,21.2c-0.1,0.6,0.4,0.7,0.7,0.8c0.7,0.4,1.4,0.8,1.7,1.6c0.5,0.9,0.4,1.8-0.3,2.4
			c-0.3,0.3-0.6,0.6-0.9,0.8c-1.3,0.9-2.7,0.7-4,0.3c-0.7-0.2-0.4-0.9-0.3-1.4c0.1-0.7,0.4-1,1.1-0.8c0.5,0.1,1.1,0.1,1.6,0.1
			c0.6-0.3,0.5-0.6,0-0.9c-0.4-0.2-0.8-0.4-1.1-0.7c-1.2-1.1-1.3-2.1-0.5-3.5c0.6-0.9,1.6-1.2,2.7-1.3c0.7,0,1.4,0.1,2.2,0.2
			c-0.1,0.5-0.2,1-0.2,1.5c0,0.4-0.3,0.4-0.6,0.4c-0.3,0.2-0.6,0.1-0.9,0.1C126.6,20.8,126.2,20.9,125.8,21.2z"/>
		<path class="st24" d="M131.4,21.4c-0.1,0.9-0.3,1.7-0.4,2.6c-0.2,1.1,0,1.2,1.1,1.1c0.2,0.1,0.3,0.2,0.1,0.4
			c-0.2,0.3-0.1,0.5-0.2,0.8c0,0.4-0.3,0.7-0.7,0.7c-0.7,0.5-1.5,0.4-2.2-0.1c-0.7-0.4-0.8-1.2-0.7-1.9c0.3-2,0.6-4,0.9-6
			c0.1-0.3,0.1-0.7,0.4-0.9c0-0.5,0.2-0.7,0.8-0.6c0.5,0.1,1,0,1.5,0c-0.1,0.4-0.1,0.7-0.2,1.1c0.3,0.3,0.7,0,1,0.3
			c-0.1,0.5-0.1,1-0.2,1.5c0,0.2-0.1,0.4-0.4,0.4C132,21.1,131.6,21,131.4,21.4z"/>
		<path class="st25" d="M144.4,18.8c-0.2,0.5-0.4,1-0.6,1.4c-0.1,0.5-0.2,1-0.9,1.1c-0.3,0-0.4,0.4-0.5,0.7c-0.6,1.4-0.7,3-0.9,4.5
			c-0.1,0.4-0.2,0.7-0.7,0.7c-0.4,0.3-0.7,0.3-1.2,0.2c-0.4-0.1-0.6-0.3-0.6-0.7c0.3-2.3,0.7-4.5,1-6.8c0-0.1,0.1-0.2,0.2-0.4
			c0.1-0.4,0.2-0.7,0.8-0.6c0.4,0.1,0.8,0,1.2,0c0.3,0.2,0,0.6,0.2,0.9C143.1,19.2,143.5,18.6,144.4,18.8z"/>
		<path class="st8" d="M132.2,25.5c0-0.1,0.1-0.3-0.1-0.4c-0.1-1.5,0-3,0.9-4.3c0.1,0,0.2,0,0.1,0.2c-0.4,1.1-0.6,2.3-0.4,3.5
			c0.3,1.5,1.1,2.3,2.6,2.6c0.9,0.2,1.8,0,2.6,0c0,0.3-0.2,0.4-0.5,0.5c-1,0.2-1.9,0.3-2.9,0.1C133.4,27.5,132.5,26.7,132.2,25.5z"
			/>
		<path class="st26" d="M129.7,18.2c-0.3,2.2-0.6,4.3-1,6.5c-0.3,1.7,0.5,2.9,2.5,2.5c0.1,0,0.1,0,0.2,0c0,0.1,0,0.3-0.1,0.4
			c-1.3,0.9-2.9,0.2-3.2-1.4c0,0,0-0.1,0-0.1c0.4-0.8,0.4-1.6,0.3-2.4c0.4-1.6,0.6-3.2,0.8-4.8C129.2,18.5,129.1,18,129.7,18.2z"/>
		<path class="st27" d="M108.2,17.5c-0.2,2.1-0.7,4.1-1,6.2c-0.2,1.1-0.4,2.1-0.5,3.2c0.5,0.2,1,0,1.5,0.1c0,0.3,0,0.5-0.4,0.5
			c-0.5,0-1.1,0-1.7,0c0.2-1.2,0.4-2.3,0.6-3.4c0.3-2,0.7-4.1,1-6.1C107.7,17.7,107.8,17.5,108.2,17.5z"/>
		<path class="st28" d="M140.4,19.4c-0.2,2.4-0.7,4.7-1,7c0,0.2-0.1,0.3,0,0.5c0.5,0.1,1,0,1.5,0.1c0,0.2,0,0.5-0.4,0.5
			c-0.6,0-1.2,0-1.8,0c0.1-0.8,0.2-1.6,0.3-2.3c-0.2-0.9,0.1-1.8,0.4-2.6c0.1-0.9,0.3-1.9,0.4-2.8C139.8,19.5,140,19.4,140.4,19.4z"
			/>
		<path class="st29" d="M109.4,23.3c0-0.9,0.3-1.8,0.4-2.8c0.1-0.1-0.1-0.4,0.3-0.3c0,2.3,0.1,4.5,0.1,6.7c0.4,0.2,0.7,0.1,1.1,0.2
			c-0.1,0.3-0.2,0.6-0.6,0.5c-0.3,0-0.6,0-1,0C109.5,26.1,109.6,24.7,109.4,23.3z"/>
		<path class="st30" d="M139.4,22.7c-0.1,0.9-0.2,1.7-0.4,2.6c-0.1,0-0.1,0-0.2,0c0-0.1,0-0.3-0.1-0.4c-0.8,0.3-1.6,0.5-2.4,0.4
			c-0.7-0.1-1.3-0.2-1.5-1c0.7-0.4,1.5-0.2,2.2-0.2c0.6,0,1.1,0,1.5-0.4c0.8,0.1,0.5-0.6,0.7-0.9C139.3,22.7,139.3,22.7,139.4,22.7z
			"/>
		<path class="st27" d="M123.9,19.9c-0.2,0.5-0.3,0.9-0.3,1.4c0,0.9,0.4,1.6,1.1,2.1c0.3,0.2,0.7,0.4,1.1,0.6
			c0.7,0.4,0.6,0.9-0.1,1.3c-0.5-0.4-1-0.7-1.5-1c-0.7-0.4-1.1-0.9-1.1-1.7c0-0.6,0.1-1.2,0.1-1.7C123.3,20.5,123.5,20.1,123.9,19.9
			z"/>
		<path class="st31" d="M113.4,22.5c0.1-0.6,0.4-1.2,0.6-1.8c0.4,0.1,0.2,0.3,0.1,0.5c-0.3,1.9-0.6,3.8-0.8,5.7
			c0.5,0.2,1.1,0,1.6,0.1c0,0.2,0,0.5-0.4,0.5c-0.6,0-1.2,0-1.8,0C112.9,25.8,113.1,24.2,113.4,22.5z"/>
		<path class="st32" d="M116.5,23.4c0.1,0.5-0.2,0.9-0.2,1.4c0,1.8,1.1,2.7,2.8,2.3c0.2-0.1,0.4-0.1,0.7-0.2c-1.6,1.6-3.4,1.2-4.2-1
			c0-0.6,0.1-1.2,0.3-1.8C116.1,23.9,116.2,23.6,116.5,23.4z"/>
		<path class="st33" d="M117.5,19.6c0,0.4-0.1,0.8-0.2,1.2c0.5,0,1-0.2,1.5-0.2c0.6-0.1,1.1-0.1,1.7,0.1c0.5,0.2,0.5,0.5,0.4,0.9
			c-0.1,0.4-0.4,0.2-0.6,0.1c-0.2-0.5-0.6-0.5-1-0.5c-0.9-0.1-1.7,0-2.7,0.3C117,20.8,116.5,19.9,117.5,19.6z"/>
		<path class="st34" d="M122.9,25.8c0,0.4-0.1,0.7-0.1,1.2c1.4,0.3,2.8,0.4,4.3-0.1c-0.3,0.6-1,0.8-1.6,0.8c-1,0.2-1.9,0.1-2.9-0.1
			c-0.4-0.1-0.5-0.2-0.4-0.6c0.3-0.4,0.1-1,0.3-1.4C122.7,25.6,122.8,25.6,122.9,25.8z"/>
		<path class="st35" d="M113.4,17.6c-0.5,1.8-1.1,3.5-1.8,5.2c0-0.4,0-0.9,0-1.3c0.4-1.1,0.8-2.2,1.2-3.4
			C112.9,17.8,112.9,17.4,113.4,17.6z"/>
		<path class="st36" d="M119.8,26.9c0.2-0.2,0.4-0.3,0.6-0.5c0.2,0.2,0,0.4,0.2,0.6c0.4,0.1,0.8,0,1.1,0.1c0,0.3,0,0.6-0.5,0.5
			c-0.4,0-0.9,0-1.2,0C119.7,27.4,120.1,27,119.8,26.9z"/>
		<path class="st37" d="M125.8,21.2c0-0.5,0.4-0.5,0.7-0.6c0.5-0.1,0.9,0,1.4,0.1c0,0.4-0.1,0.7-0.6,0.6
			C126.8,21.2,126.3,21.2,125.8,21.2z"/>
		<path class="st38" d="M165.4,24.8c-0.9,0.6-1.5,0.4-1.8-0.6c-0.2-1-0.1-1.9,0.5-2.8c0.8-0.3,1.3-0.2,1.6,0.6
			C166.2,23,166,23.9,165.4,24.8z"/>
		<path class="st39" d="M165.4,24.8c0.2-0.6,0.4-1.2,0.4-1.9c0-1.2-0.4-1.5-1.6-1.5c0.3-0.6,0.8-0.7,1.4-0.6
			c0.6,0.1,0.8,0.7,0.8,1.2C166.4,23,166.4,24.1,165.4,24.8z"/>
		<path class="st40" d="M154.1,24.9c-0.3,0.6-0.9,0.7-1.4,0.4c-0.4-0.3-0.4-0.8,0-1.3c0.4-0.4,0.9-0.4,1.3-0.1
			C154.4,24.2,154.3,24.5,154.1,24.9z"/>
		<path class="st41" d="M154.1,24.9c-0.3-0.3,0.2-0.6-0.2-0.9c-0.3-0.1-0.7,0-1.2,0c0-0.5,0.4-0.5,0.7-0.6c0.4-0.1,0.8-0.2,1.3,0
			C154.7,24,154.7,24.5,154.1,24.9z"/>
		<path class="st42" d="M156.7,25.9c-0.1,0-0.1,0-0.2,0c0.1-0.7,0.1-1.4,0.4-2.1C156.9,24.5,156.9,25.2,156.7,25.9z"/>
		<path class="st21" d="M157.1,22.7c-0.1,0.3,0.2,0.8-0.2,1.1C156.9,23.4,156.8,23.1,157.1,22.7z"/>
		<path class="st43" d="M131.4,21.4c-0.1-0.7,0.4-0.6,0.8-0.5C132.3,21.5,131.8,21.4,131.4,21.4z"/>
		<path class="st44" d="M142.6,19.7c-0.1,0.2-0.2,0.3-0.2,0c0-0.3,0.1-0.6,0-0.9C142.8,19,142.5,19.4,142.6,19.7z"/>
		<path class="st45" d="M133.1,21c0-0.1-0.1-0.1-0.1-0.2c0.1-0.2,0.2-0.5,0.5-0.5C133.3,20.5,133.3,20.8,133.1,21z"/>
		<path class="st46" d="M169.2,26.5c-0.1-0.1-0.1-0.2-0.2-0.4c0.2,0.1,0.5-0.1,0.7,0.2C169.5,26.4,169.4,26.6,169.2,26.5z"/>
		<path class="st47" d="M110.1,20.2c-0.1,0.1-0.2,0.2-0.3,0.3c-0.1-0.3,0.1-0.6,0.2-0.9C110.2,19.8,110.1,20,110.1,20.2z"/>
		<path class="st48" d="M114.1,21.2c-0.1-0.2,0-0.4-0.1-0.5c0-0.2,0.1-0.3,0.1-0.5c0.2,0,0.2,0,0.2,0.2
			C114.2,20.6,114.3,21,114.1,21.2z"/>
		<path class="st49" d="M114.3,20.4c-0.1-0.1-0.1-0.2-0.2-0.2c0-0.2,0.1-0.4,0.3-0.6C114.5,19.9,114.5,20.1,114.3,20.4z"/>
		<path class="st50" d="M122.9,25.8c-0.1,0-0.2-0.1-0.4-0.1c0-1.1,0.3-2.1,0.5-3.1c0.3,0.8,0.9,1.4,1.7,1.8c0.4,0.2,0.9,0.3,1,0.9
			c-0.8,0.2-1.7,0-2.5-0.2C123,25.3,123,25.5,122.9,25.8z"/>
		<path class="st51" d="M119.8,25.2c-0.4,0.3-0.8,0.4-1.2,0c-0.4-0.3-0.4-0.7-0.1-1.2c0.1-0.1,0,0,0.1-0.1c0.5-0.4,1-0.5,1.5-0.1
			C120.5,24.4,120,24.8,119.8,25.2z"/>
		<path class="st52" d="M119.8,25.2c0.1-0.4,0.3-0.7,0.2-1.2c-0.5-0.1-1-0.1-1.5,0.1c0.5-0.9,1.3-0.7,2.1-0.7
			C120.6,24.2,120.5,24.8,119.8,25.2z"/>
		<path class="st53" d="M138.5,23.7c-0.1,0.4-0.2,0.6-0.7,0.6c-1,0-2,0-3,0c-0.1-0.4-0.1-0.7,0.4-0.6
			C136.3,23.6,137.4,23.6,138.5,23.7z"/>
		<path class="st54" d="M135.2,21.2c0.3-0.6,0.8-0.7,1.3-0.6c0.4,0.1,0.6,0.4,0.7,0.9c0.1,0.5-0.1,0.7-0.6,0.5
			C136.3,21.5,135.7,21.5,135.2,21.2z"/>
		<path class="st55" d="M135.2,21.2c0.6,0,1.2,0,1.4,0.8c-0.6,0.1-1.1,0.1-1.7,0C134.9,21.6,135.1,21.4,135.2,21.2z"/>
		<g>
			<path class="st56" d="M54.3,20.2c-0.5-0.4-1.1-0.7-1.6-1.1c-0.7-0.5-1.4-0.9-1.9-1.6c-1.3-1.5-1.1-3.4,0.6-4.6
				c1.3-0.9,2.6-1,4-0.5c1.4,0.5,2.7,1.3,4.1,1.9c0.9-1.2,1.8-2.3,2.7-3.5c-0.3-0.3-0.6-0.5-0.9-0.8c-4.2-3.4-11.3-3.4-15.6,0.2
				c-1.2,0.9-2.1,2.1-2.7,3.4c-1.4,3.1-0.9,6,1.6,8.4c1.1,1,2.3,1.8,3.5,2.7c0.8,0.6,1.6,1.2,2.2,2c0.9,1.3,0.7,2.6-0.6,3.5
				c-0.7,0.5-1.5,0.7-2.3,0.8c-2.4,0.3-4.7-0.2-6.8-1.3c-0.4-0.2-0.7-0.7-1.3-0.4c-0.7,1.2-1.3,2.4-2.1,3.8c0.3,0.3,0.4,0.4,0.6,0.6
				c4,2.9,11.8,3.2,16,0.5C59,30.9,59.3,23.8,54.3,20.2z"/>
			<path class="st56" d="M40.3,8.3c-1.8,0-3.6,0.1-5.4,0c-1-0.1-1.4,0.4-1.7,1.3c-1.3,4.2-2.7,8.4-4.1,12.6c-1.3,4.2-2.9,8.4-4,12.7
				c-0.5,0.7,0,0.8,0.5,0.8c1.6,0,3.3,0,4.9,0c0.4,0,1,0.3,1.2-0.3c0.1-0.2,0.2-0.4,0.3-0.6c2.7-8.4,5.4-16.8,8.1-25.2
				C40.3,9.2,40.6,8.8,40.3,8.3z"/>
			<path class="st56" d="M30.7,8.5c-1.9,0.1-3.8-0.3-5.7,0.2c-0.6,0.3-0.7,0.9-1,1.4c-2.8,4.6-5.5,9.3-8.3,13.9
				c-0.2,0.4-0.3,1-1.2,1.2c0-5.6,0-11.2,0-16.9c-4.3,0-8.4,0-12.5,0c0.3,1,1,0.9,1.6,1c2.2,0.4,3.2,1.9,3.4,3.9
				c0.1,0.6,0.1,1.3,0.1,1.9C7.3,21.4,7.5,27.7,7.7,34c0,0.5-0.4,1.2,0.4,1.5c2,0,4,0.1,6,0.1c0.3,0,0.6,0,0.7-0.4
				c3.2-4.9,6.2-10.1,9.2-15.1c2.1-3.5,4.4-7,6.3-10.7C30.7,9.2,30.9,9,30.7,8.5z"/>
			<path class="st56" d="M81.2,35.5c-0.1-1.5-1-18.7-1.1-26c0-0.9-0.4-1.1-1.2-1c-1.8,0-3.5,0.1-5.3,0c-1.1-0.1-1.7,0.3-2.2,1.3
				c-3,5.5-6,11-9,16.6c-1.5,2.8-3.2,5.6-4.5,8.5c-0.3,0.3-0.6,0.8,0.1,0.7c1.8,0,3.7,0.2,5.5-0.1c1-1.3,1.6-2.9,2.4-4.4
				c0.3-0.6,0.6-0.9,1.3-0.9c2.4,0.1,4.8,0.1,7.2,0.1c0.1,0.1,0.2,0.1,0.2,0.2c-0.1-0.1-0.1-0.1-0.2-0.2c0,1.7,0,3.5,0,5.2
				C74.9,35.5,80.1,35.5,81.2,35.5z M68.3,25.7l4.7-9.1c0.1,0,0.2,0,0.3,0.1c0.3,3,0.5,5.9,0.8,9C72.2,25.7,70.4,25.7,68.3,25.7z"/>
		</g>
	</g>
	<g>
		<path class="st57" d="M289.1,2.7c13,0,26,0,39,0c0.1,0.1,0,0.2,0,0.2c0,2.5,0,5,0,7.4c0,4.4,0,8.7,0,13.1c0,0,0,0.1,0,0.1
			c0,0.1-0.1,0.2-0.2,0.2c-0.1,0-0.2,0-0.4,0c-7.5,0-15,0-22.5,0c-0.3,0-0.6,0.1-0.7,0.3c-0.1,0.1-0.2,0.3-0.3,0.4
			c-0.1,0.2-0.2,0.2-0.4,0c-0.1-0.2-0.3-0.4-0.4-0.6c-0.1-0.1-0.2-0.2-0.4-0.2c-1.9,0-3.9,0-5.8,0c-0.2,0-0.3,0-0.3,0.3
			c0,1.8,0,3.6,0,5.4c0,0.2,0,0.3,0.3,0.3c1.9,0,3.9,0,5.8,0c0.2,0,0.3-0.1,0.4-0.2c0.1-0.2,0.3-0.4,0.4-0.6c0.1-0.2,0.2-0.2,0.3,0
			c0.2,0.2,0.3,0.4,0.4,0.6c0.1,0.1,0.2,0.2,0.3,0.2c1.1,0,2.2,0,3.3,0c0.2,0,0.2,0,0.2-0.2c0-0.2,0-0.5,0-0.7c0-0.5,0-0.5,0.5-0.5
			c0.3,0,0.6,0,0.9,0c0.2,0,0.3-0.1,0.5-0.1c0.2-0.1,0.3,0,0.3,0.2c0,0.4,0,0.7,0,1.1c0,0.2,0,0.3,0.3,0.3c0.6,0,1.3,0,1.9,0
			c0.2,0,0.3,0,0.3-0.3c0-0.2,0-0.3,0-0.5c0-0.1,0-0.1,0.1-0.1c0.1,0,0.1,0,0.2,0.1c0.2,0.2,0.4,0.4,0.5,0.7
			c0.1,0.1,0.2,0.2,0.3,0.2c0.1,0,0.2,0,0.3,0c4.1,0,8.3,0,12.4,0c0.4,0,0.8-0.1,1.2-0.3c0,0,0.1,0,0.1-0.1c0.1,0,0.2,0,0.2,0.1
			c0,0,0,0.1,0,0.1c0,3.9,0,7.9,0,11.8c0,0.2,0,0.2-0.2,0.2c-12.9,0-25.7,0-38.6,0c-0.2,0-0.2,0-0.2-0.2c0-6.5,0-13,0-19.5
			c0-0.2,0-0.2,0.3-0.2c0.4,0,0.8,0,1.3,0c0.2,0,0.3-0.1,0.4-0.2c0.1-0.2,0.2-0.4,0.2-0.6c0-0.1,0.1-0.2,0.2-0.2c0.3,0,0.5,0,0.8,0
			c0.1,0,0.2,0.1,0.2,0.2c0.1,0.2,0.2,0.4,0.2,0.6c0.1,0.2,0.2,0.2,0.3,0.2c0.1,0,0.1,0,0.2,0c4.6,0,9.2,0,13.7,0
			c0.4,0,0.4,0,0.4-0.4c0-0.1,0-0.2,0-0.3c0-0.1,0-0.1,0.1-0.1c0.1,0,0.1,0,0.1,0.1c0.2,0.2,0.4,0.4,0.5,0.6
			c0.1,0.1,0.2,0.2,0.4,0.2c1.1,0,2.2,0,3.3,0c0.2,0,0.3,0,0.3-0.3c0-0.1,0-0.2,0.1-0.3c0.1-0.1,0.2,0.1,0.3,0.1
			c0.5,0.3,1,0.5,1.6,0.5c0.7,0,1.4,0,2.1,0c0.3,0,0.3,0,0.4-0.3c0.1-0.2,0.1-0.3,0.2-0.5c0-0.1,0.1-0.2,0.2-0.2c0.3,0,0.5,0,0.8,0
			c0.1,0,0.2,0.1,0.2,0.2c0.1,0.2,0.2,0.4,0.2,0.6c0.1,0.2,0.2,0.2,0.3,0.2c1.1,0,2.2,0,3.2,0c0.2,0,0.3,0,0.3-0.3
			c0-0.2,0-0.3,0-0.5c0-0.1,0-0.2,0.1-0.2c0.1,0,0.1,0.1,0.2,0.1c0.1,0.2,0.3,0.4,0.4,0.6c0.1,0.2,0.2,0.3,0.5,0.3
			c0.6,0,1.3,0,1.9,0c0.3,0,0.3,0,0.3-0.3c0-1.8,0-3.6,0-5.4c0-0.3,0-0.3-0.3-0.3c-0.6,0-1.3,0-1.9,0c-0.3,0-0.3,0-0.3,0.3
			c0,0.2,0,0.3,0,0.5c0,0.1,0,0.2-0.1,0.2c-0.1,0-0.2-0.1-0.2-0.2c-0.1-0.2-0.3-0.4-0.4-0.6c-0.1-0.2-0.2-0.2-0.4-0.2
			c-0.7,0-1.3,0-2,0c-0.2,0-0.3,0-0.3,0.3c0,0.4,0,0.8,0,1.3c0,0.1,0,0.2-0.1,0.2c-0.1,0-0.1-0.1-0.2-0.2c-0.2-0.4-0.4-0.9-0.6-1.3
			c-0.1-0.2-0.2-0.2-0.3-0.2c-1.4-0.1-2.9,0-4.3,0c-0.6,0-1.2,0.2-1.7,0.5c-0.1,0.1-0.2,0.1-0.3,0.1c-0.1-0.1-0.1-0.2-0.1-0.3
			c0,0,0-0.1,0-0.1c0-0.2-0.1-0.2-0.2-0.2c0,0-0.1,0-0.1,0c-4.4,0-8.8,0-13.2,0c0,0-0.1,0-0.1,0c-0.2,0-0.3,0-0.3,0.2
			c-0.1,0.3-0.2,0.6-0.3,0.9c0,0.1,0,0.2-0.1,0.2c-0.1,0-0.1-0.1-0.1-0.2c-0.1-0.3-0.2-0.6-0.3-0.9c-0.1-0.2-0.1-0.2-0.3-0.2
			c-0.8,0-1.6,0-2.5,0c-0.2,0-0.3,0-0.3,0.3c0,0.4,0,0.9,0,1.3c0,0.1,0,0.2-0.1,0.2c-0.1,0-0.1-0.1-0.2-0.2
			c-0.2-0.5-0.4-0.9-0.6-1.4c-0.1-0.2-0.2-0.3-0.4-0.3c-0.6,0-1.2,0-1.9,0c-0.2,0-0.3,0.1-0.4,0.3c-0.4,0.9-0.8,1.9-1.2,2.8
			c0,0.1-0.1,0.2-0.1,0.2c0,0,0,0-0.1,0c0,0,0,0,0-0.1c0,0,0-0.1,0-0.1c0-5.3,0-10.7,0-16C289.1,2.9,289.1,2.8,289.1,2.7z"/>
		<path class="st5" d="M289.1,2.7c0,5.5,0,10.9,0,16.4c0.1,0,0.1-0.1,0.1-0.1c0.4-1,0.9-2,1.3-3c0-0.1,0.1-0.2,0.2-0.2
			c0.7,0,1.5,0,2.2,0c0.1,0,0.2,0,0.2,0.2c0.2,0.5,0.4,1,0.7,1.6c0,0,0,0.1,0.1,0.1c0-0.1,0-0.1,0-0.2c0-0.5,0-1,0-1.5
			c0-0.1,0-0.1,0.1-0.1c1,0,1.9,0,2.9,0c0.1,0,0.1,0,0.2,0.1c0.1,0.4,0.3,0.8,0.4,1.3c0.2-0.4,0.3-0.8,0.4-1.2
			c0-0.1,0.1-0.1,0.2-0.1c4.6,0,9.2,0,13.8,0c0.1,0,0.2,0,0.2,0.2c0,0.2,0,0.3,0,0.5c0.1,0,0.1,0,0.1-0.1c0.5-0.4,1.1-0.6,1.8-0.6
			c1.5,0,3,0,4.5,0c0.1,0,0.1,0.1,0.2,0.1c0.2,0.5,0.4,1,0.7,1.5c0,0,0,0.1,0.1,0.1c0-0.1,0-0.1,0-0.2c0-0.5,0-1,0-1.5
			c0-0.1,0-0.1,0.1-0.1c0.8,0,1.6,0,2.4,0c0.1,0,0.1,0,0.2,0.1c0.2,0.3,0.4,0.6,0.7,0.9c0-0.3,0-0.6,0-0.9c0-0.1,0-0.1,0.1-0.1
			c0.8,0,1.6,0,2.4,0c0.1,0,0.1,0,0.1,0.1c0,2,0,3.9,0,5.9c0,0.1,0,0.1-0.1,0.1c-0.8,0-1.6,0-2.4,0c-0.1,0-0.1,0-0.2-0.1
			c-0.2-0.3-0.4-0.6-0.6-0.9c0,0.3,0,0.6,0,0.9c0,0.1,0,0.2-0.2,0.2c-1.2,0-2.4,0-3.5,0c-0.1,0-0.2,0-0.2-0.1
			c-0.1-0.2-0.2-0.5-0.3-0.7c0-0.1-0.1-0.2-0.2-0.1c-0.2,0-0.5,0-0.7,0c-0.1,0-0.2,0-0.2,0.1c-0.1,0.3-0.2,0.5-0.3,0.7
			c0,0.1-0.1,0.1-0.2,0.1c-0.9,0-1.7,0-2.6,0c-0.6,0-1.1-0.2-1.5-0.6c0,0-0.1-0.1-0.1-0.1c0,0.2,0,0.4,0,0.5c0,0.1,0,0.1-0.1,0.1
			c-1.2,0-2.5,0-3.7,0c-0.1,0-0.1,0-0.2-0.1c-0.2-0.3-0.5-0.6-0.7-0.9c0,0.3,0,0.5,0,0.8c0,0.2,0,0.2-0.2,0.2c-4.8,0-9.5,0-14.3,0
			c-0.1,0-0.2,0-0.3-0.2c-0.1-0.2-0.2-0.5-0.3-0.7c0-0.1-0.1-0.1-0.2-0.1c-0.3,0-0.5,0-0.8,0c-0.1,0-0.1,0-0.2,0.1
			c-0.1,0.2-0.2,0.5-0.3,0.7c0,0.1-0.1,0.1-0.2,0.1c-0.5,0-1,0-1.5,0c-0.1,0-0.1,0-0.1,0.2c0,6.5,0,13,0,19.5c0,0.1,0,0.2,0.1,0.2
			c0,0,0.1,0,0.1,0c12.8,0,25.7,0,38.5,0c0.2,0,0.2,0,0.2-0.2c0-3.9,0-7.9,0-11.8c0-0.1,0-0.1,0-0.2c-0.1,0.1-0.2,0.1-0.3,0.1
			c-0.4,0.2-0.7,0.3-1.1,0.3c-4.3,0-8.5,0-12.8,0c-0.1,0-0.2,0-0.3-0.1c-0.2-0.2-0.4-0.5-0.6-0.7c0,0,0-0.1-0.1-0.1
			c0,0.3,0,0.6,0,0.8c0,0.1,0,0.1-0.1,0.1c-0.8,0-1.5,0-2.3,0c-0.1,0-0.1,0-0.1-0.1c0-0.5,0-1,0-1.5c-0.2,0.1-0.5,0.2-0.7,0.2
			c-0.4,0-0.8,0-1.1,0c-0.1,0-0.2,0-0.2,0.2c0,0.4,0,0.7,0,1.1c0,0.1,0,0.1-0.1,0.1c-1.2,0-2.4,0-3.6,0c-0.1,0-0.1,0-0.2-0.1
			c-0.2-0.3-0.4-0.5-0.6-0.8c-0.2,0.3-0.4,0.5-0.6,0.8c-0.1,0.1-0.1,0.1-0.2,0.1c-2,0-4.1,0-6.1,0c-0.1,0-0.2,0-0.2-0.2
			c0-1.9,0-3.9,0-5.8c0-0.1,0-0.2,0.2-0.2c2.1,0,4.1,0,6.2,0c0.1,0,0.2,0,0.2,0.1c0.2,0.3,0.4,0.5,0.6,0.8c0.2-0.3,0.4-0.5,0.6-0.8
			c0.1-0.1,0.2-0.1,0.3-0.1c7.7,0,15.4,0,23.1,0c0.3,0,0.2,0,0.2-0.2c0-6.9,0-13.9,0-20.8c0.1,0,0.1,0,0.1,0.1c0,0,0,0,0,0.1
			c0,8.2,0,16.3,0,24.5c-0.1,0-0.1-0.1-0.1-0.1c-0.2-0.7-0.7-0.8-1.3-0.9c-0.4,0-0.7,0-1.1,0c-0.3,0-0.5-0.2-0.5-0.5
			c0-0.2,0.2-0.4,0.5-0.4c0.2,0,0.3,0,0.5,0c0.4,0,0.9,0,1.3,0c0.2,0,0.3-0.1,0.3-0.2c0.1-0.2,0.1-0.3,0.2-0.5
			c0.1-0.1,0-0.2-0.1-0.2c-0.7,0-1.5,0-2.2,0c-0.5,0-0.9,0.2-1.2,0.6c-0.3,0.4-0.3,0.9-0.1,1.4c0.2,0.5,0.6,0.6,1.1,0.6
			c0.4,0,0.7,0,1.1,0c0.1,0,0.2,0,0.3,0.1c0.2,0.1,0.3,0.2,0.3,0.4c0,0.2-0.1,0.3-0.3,0.4c-0.1,0-0.2,0-0.3,0c-0.6,0-1.2,0-1.9,0
			c-0.2,0-0.3,0-0.3,0.3c0,0.1,0,0.2,0,0.3c0,0.2,0,0.2,0.2,0.2c0.4,0,0.7,0,1.1,0c0.4,0,0.7,0,1.1,0c0.6,0,1.2-0.3,1.3-0.9
			c0-0.1,0-0.1,0.1-0.1c0,4.6,0,9.1,0,13.7c0,0.1,0,0.2-0.1,0.2c-12.9,0-25.9,0-38.8,0c-0.1,0-0.2,0-0.2-0.2c0-12.9,0-25.8,0-38.7
			C289.1,2.8,289,2.8,289.1,2.7z"/>
		<path class="st58" d="M328.2,28c-0.1,0,0,0.1-0.1,0.1c-0.2,0.6-0.6,1-1.3,1c-0.8,0-1.7,0-2.5,0c-0.1,0-0.1,0-0.1-0.1
			c0-0.2,0-0.5,0-0.7c0-0.1,0.1-0.2,0.2-0.2c0.7,0,1.4,0,2.1,0c0.1,0,0.2,0,0.3,0c0.2,0,0.3-0.2,0.3-0.3c0-0.2-0.1-0.3-0.3-0.4
			c-0.1,0-0.2,0-0.3,0c-0.4,0-0.9,0-1.3,0c-0.6-0.1-1-0.6-1.1-1.2c0-0.9,0.5-1.5,1.5-1.6c0.8-0.1,1.6,0,2.5,0c0.1,0,0.1,0,0.1,0.1
			c-0.1,0.3-0.3,0.6-0.4,0.8c0,0.1-0.1,0.1-0.2,0.1c-0.6,0-1.1,0-1.7,0c-0.1,0-0.2,0-0.3,0c-0.2,0-0.3,0.2-0.3,0.4
			c0,0.2,0.2,0.4,0.4,0.4c0.3,0,0.7,0,1,0c0.3,0,0.5,0,0.7,0.1c0.4,0.1,0.6,0.4,0.7,0.9c0,0,0,0.1,0,0.1
			C328.2,27.6,328.2,27.8,328.2,28z"/>
		<path class="st58" d="M295.8,17.8c0,1.1,0,2.1,0,3.1c0,0.2,0,0.2-0.2,0.2c-0.3,0-0.6,0-0.8,0c-0.1,0-0.1,0-0.1-0.1
			c0-1.4,0-2.9,0-4.3c0-0.1,0-0.1,0.1-0.1c0.5,0,1.1,0,1.6,0c0.1,0,0.1,0.1,0.2,0.1c0.3,0.9,0.6,1.8,0.9,2.6c0,0,0,0.1,0.1,0.2
			c0.1-0.3,0.2-0.5,0.3-0.7c0.2-0.7,0.5-1.4,0.7-2.1c0-0.1,0.1-0.1,0.2-0.1c0.5,0,1,0,1.5,0c0.1,0,0.1,0,0.1,0.1c0,1.4,0,2.9,0,4.3
			c0,0.1,0,0.1-0.1,0.1c-0.3,0-0.6,0-0.8,0c-0.1,0-0.2,0-0.2-0.2c0-1,0-2,0-3c0-0.1,0-0.1,0-0.2c0,0,0,0,0,0c0,0.1,0,0.1-0.1,0.2
			c-0.4,1-0.7,2-1.1,3c0,0.1-0.1,0.2-0.2,0.1c-0.2,0-0.5,0-0.7,0c-0.1,0-0.2,0-0.2-0.1c-0.4-1-0.7-2-1.1-3
			C295.9,17.9,295.9,17.9,295.8,17.8z"/>
		<path class="st58" d="M321.4,18.2c0,0.1,0,0.2,0,0.3c0,0.8,0,1.6,0,2.4c0,0.1,0,0.2-0.2,0.2c-0.3,0-0.6,0-0.9,0
			c-0.1,0-0.1,0-0.1-0.1c0-1.4,0-2.9,0-4.3c0-0.1,0-0.1,0.1-0.1c0.4,0,0.8,0,1.2,0c0.1,0,0.1,0.1,0.2,0.1c0.5,0.9,1.1,1.7,1.6,2.6
			c0,0.1,0.1,0.1,0.1,0.2c0-0.1,0-0.1,0-0.2c0-0.8,0-1.7,0-2.5c0-0.1,0-0.2,0.2-0.2c0.3,0,0.6,0,0.9,0c0.1,0,0.1,0,0.1,0.1
			c0,1.4,0,2.9,0,4.3c0,0.1,0,0.1-0.1,0.1c-0.4,0-0.8,0-1.2,0c-0.1,0-0.1-0.1-0.2-0.1c-0.6-0.9-1.1-1.8-1.7-2.6
			C321.5,18.3,321.4,18.3,321.4,18.2C321.4,18.2,321.4,18.2,321.4,18.2z"/>
		<path class="st58" d="M308.5,19.4c0.5,0.6,1,1.1,1.5,1.7c0,0.1-0.1,0-0.1,0c-0.4,0-0.7,0-1.1,0c-0.1,0-0.1,0-0.2-0.1
			c-0.4-0.5-0.8-1-1.2-1.4c-0.1-0.1-0.4-0.2-0.5-0.1c-0.1,0,0,0.1,0,0.1c0,0.4,0,0.9,0,1.3c0,0.2,0,0.2-0.2,0.2c-0.3,0-0.6,0-0.8,0
			c-0.1,0-0.1,0-0.1-0.1c0-1.4,0-2.9,0-4.3c0-0.1,0-0.1,0.1-0.1c0.8,0,1.6,0,2.5,0c0.6,0,1.2,0.3,1.4,0.9
			C310,18.2,309.5,19.3,308.5,19.4z"/>
		<path class="st58" d="M314,27.4c0.5,0.6,1,1.1,1.5,1.7c-0.4,0-0.7,0-1,0c-0.3,0-0.4-0.1-0.6-0.3c-0.3-0.4-0.7-0.8-1.1-1.3
			c-0.1-0.1-0.4-0.1-0.5-0.1c-0.1,0,0,0.1,0,0.1c0,0.4,0,0.9,0,1.3c0,0.1,0,0.2-0.2,0.2c-0.3,0-0.6,0-0.9,0c-0.1,0-0.1,0-0.1-0.1
			c0-1.4,0-2.9,0-4.3c0-0.1,0-0.1,0.1-0.1c0.9,0,1.8,0,2.7,0c0.6,0,1.1,0.5,1.3,1C315.5,26.5,315,27.3,314,27.4z"/>
		<path class="st58" d="M301.2,18.8c0-0.7,0-1.4,0-2.1c0-0.1,0-0.2,0.2-0.2c1.1,0,2.3,0,3.4,0c0.1,0,0.2,0,0.2,0.2
			c0,0.2,0,0.5,0,0.7c0,0.1,0,0.2-0.2,0.2c-0.7,0-1.5,0-2.2,0c-0.1,0-0.2,0-0.2,0.2c0,0.2,0,0.3,0,0.5c0,0.1,0,0.1,0.1,0.1
			c0.7,0,1.5,0,2.2,0c0.1,0,0.2,0,0.2,0.2c0,0.2,0,0.4,0,0.6c0,0.1,0,0.2-0.2,0.2c-0.7,0-1.5,0-2.2,0c-0.1,0-0.2,0-0.2,0.2
			c0,0.2,0,0.3,0,0.5c0,0.1,0,0.2,0.2,0.2c0.7,0,1.5,0,2.2,0c0.1,0,0.2,0,0.2,0.2c0,0.2,0,0.5,0,0.7c0,0.1,0,0.1-0.1,0.1
			c-1.2,0-2.3,0-3.5,0c-0.1,0-0.1,0-0.1-0.1C301.2,20.2,301.2,19.5,301.2,18.8z"/>
		<path class="st58" d="M297.4,26.8c0-0.7,0-1.4,0-2.1c0-0.1,0-0.2,0.2-0.2c1.1,0,2.3,0,3.4,0c0.1,0,0.2,0,0.1,0.1
			c0,0.2,0,0.5,0,0.7c0,0.1,0,0.1-0.1,0.1c-0.8,0-1.5,0-2.3,0c-0.1,0-0.2,0-0.2,0.2c0,0.2,0,0.3,0,0.5c0,0.1,0,0.2,0.2,0.2
			c0.7,0,1.5,0,2.2,0c0.1,0,0.2,0,0.2,0.2c0,0.2,0,0.4,0,0.7c0,0.1,0,0.1-0.1,0.1c-0.7,0-1.4,0-2.2,0c-0.2,0-0.2,0-0.2,0.2
			c0,0.2,0,0.3,0,0.5c0,0.1,0,0.1,0.1,0.1c0.8,0,1.5,0,2.3,0c0.1,0,0.2,0,0.2,0.2c0,0.2,0,0.5,0,0.7c0,0.1,0,0.1-0.1,0.1
			c-1.1,0-2.3,0-3.4,0c-0.1,0-0.2,0-0.2-0.2C297.4,28.3,297.4,27.6,297.4,26.8z"/>
		<path class="st58" d="M315.7,26.8c0-0.7,0-1.4,0-2.1c0-0.1,0-0.1,0.1-0.1c1.1,0,2.3,0,3.4,0c0.1,0,0.2,0,0.2,0.2
			c0,0.2,0,0.5,0,0.7c0,0.1,0,0.2-0.2,0.2c-0.8,0-1.5,0-2.3,0c-0.1,0-0.2,0-0.2,0.2c0,0.2,0,0.3,0,0.5c0,0.1,0,0.2,0.2,0.2
			c0.7,0,1.4,0,2.2,0c0.2,0,0.2,0,0.2,0.2c0,0.2,0,0.4,0,0.7c0,0.1,0,0.1-0.1,0.1c-0.7,0-1.5,0-2.2,0c-0.1,0-0.2,0-0.2,0.2
			c0,0.2,0,0.3,0,0.5c0,0.1,0,0.1,0.1,0.1c0.8,0,1.5,0,2.3,0c0.1,0,0.2,0,0.2,0.2c0,0.2,0,0.5,0,0.7c0,0.1,0,0.1-0.1,0.1
			c-1.2,0-2.3,0-3.5,0c-0.1,0-0.1,0-0.1-0.1C315.8,28.3,315.7,27.5,315.7,26.8z"/>
		<path class="st58" d="M320.1,21.1c-0.4,0-0.8,0-1.2,0c-0.1,0-0.1,0-0.1-0.1c-0.1-0.2-0.2-0.5-0.3-0.7c0-0.1-0.1-0.1-0.2-0.1
			c-0.6,0-1.3,0-1.9,0c-0.1,0-0.1,0-0.2,0.1c-0.1,0.2-0.2,0.5-0.3,0.7c0,0.1,0,0.1-0.1,0.1c-0.4,0-0.8,0-1.2,0c0-0.1,0-0.1,0-0.2
			c0.6-1.4,1.2-2.9,1.8-4.3c0-0.1,0.1-0.1,0.2-0.1c0.4,0,0.8,0,1.2,0c0.1,0,0.1,0,0.2,0.1C318.8,18.1,319.4,19.6,320.1,21.1
			C320.1,21.1,320.1,21.1,320.1,21.1z"/>
		<path class="st58" d="M294.5,21.1c-0.4,0-0.8,0-1.2,0c-0.1,0-0.1,0-0.1-0.1c-0.1-0.2-0.2-0.5-0.3-0.7c0-0.1-0.1-0.1-0.2-0.1
			c-0.6,0-1.2,0-1.9,0c-0.1,0-0.1,0-0.2,0.1c-0.1,0.2-0.2,0.5-0.3,0.7c0,0.1,0,0.1-0.1,0.1c-0.4,0-0.8,0-1.2,0c0-0.1,0-0.1,0-0.2
			c0.6-1.4,1.2-2.9,1.8-4.3c0-0.1,0.1-0.2,0.2-0.1c0.4,0,0.8,0,1.2,0c0.1,0,0.1,0,0.2,0.1C293.2,18.1,293.9,19.6,294.5,21.1
			C294.5,21.1,294.5,21.1,294.5,21.1z"/>
		<path class="st58" d="M323.9,24.6c-0.1,0.3-0.3,0.6-0.4,0.9c0,0.1-0.1,0.1-0.2,0.1c-0.6,0-1.1,0-1.7,0c-0.1,0-0.2,0-0.2,0
			c-0.3,0-0.4,0.2-0.4,0.4c0,0.2,0.2,0.4,0.4,0.4c0.3,0,0.7,0,1,0c0.2,0,0.3,0,0.5,0c0.7,0.1,1.1,0.7,1,1.4
			c-0.1,0.8-0.6,1.3-1.4,1.3c-0.8,0-1.6,0-2.4,0c-0.1,0-0.1,0-0.1-0.1c0-0.2,0-0.5,0-0.7c0-0.1,0-0.2,0.2-0.2c0.7,0,1.4,0,2.1,0
			c0.1,0,0.2,0,0.3,0c0.2,0,0.3-0.2,0.3-0.3c0-0.2-0.1-0.3-0.3-0.4c-0.1,0-0.2,0-0.3,0c-0.4,0-0.9,0-1.3,0c-0.6-0.1-1-0.5-1.1-1.2
			c-0.1-0.9,0.4-1.5,1.4-1.6C322.1,24.5,323,24.5,323.9,24.6C323.9,24.5,323.9,24.6,323.9,24.6z"/>
		<path class="st58" d="M306.4,26.8c0-0.7,0-1.4,0-2.1c0-0.1,0-0.2,0.2-0.2c0.8,0,1.5,0,2.3,0c0.4,0,0.8,0.1,1.2,0.4
			c0.5,0.4,0.6,1,0.5,1.6c-0.1,0.6-0.6,0.9-1.2,1.1c-0.4,0.1-0.9,0.1-1.4,0.1c-0.1,0-0.3,0-0.4,0c-0.1,0.1,0,0.3,0,0.4
			c0,0.3,0,0.6,0,0.9c0,0.1,0,0.1-0.1,0.1c-0.3,0-0.6,0-0.9,0c-0.1,0-0.1,0-0.1-0.1C306.4,28.3,306.4,27.5,306.4,26.8z"/>
		<path class="st58" d="M301.3,29.1c0.3-0.4,0.7-0.8,1-1.2c0.2-0.3,0.5-0.6,0.7-0.9c0.1-0.1,0.1-0.2,0-0.3c-0.5-0.7-1.1-1.4-1.6-2
			c0,0-0.1-0.1-0.1-0.2c0.2,0,0.5,0,0.7,0c0.2,0,0.4,0,0.6,0c0.1,0,0.2,0,0.2,0.1c0.3,0.4,0.6,0.8,0.9,1.2c0.1,0.1,0.1,0.1,0.2,0
			c0.3-0.4,0.6-0.8,0.9-1.2c0-0.1,0.1-0.1,0.2-0.1c0.4,0,0.8,0,1.2,0c0,0,0,0,0.1,0c-0.3,0.4-0.6,0.8-1,1.2c-0.3,0.3-0.5,0.6-0.8,1
			c-0.1,0.1-0.1,0.1,0,0.2c0.5,0.7,1.1,1.4,1.6,2c0,0,0.1,0.1,0.1,0.1c-0.1,0-0.2,0-0.2,0c-0.4,0-0.7,0-1.1,0c-0.1,0-0.2,0-0.2-0.1
			c-0.3-0.4-0.7-0.9-1-1.3c-0.3,0.4-0.6,0.9-1,1.3c-0.1,0.1-0.1,0.1-0.3,0.1C302.2,29.1,301.8,29.1,301.3,29.1z"/>
		<path class="st58" d="M314.6,20.1c-0.2,0.3-0.3,0.7-0.5,1c0,0.1-0.1,0-0.1,0c-1.1,0-1.8-0.6-2.1-1.6c-0.1-0.6-0.1-1.2,0.1-1.7
			c0.3-0.7,0.9-1.1,1.7-1.2c0.5-0.1,1.1,0,1.6,0c0.1,0,0.1,0,0.1,0.1c0,0.3,0,0.6,0,0.9c0,0.1,0,0.1-0.1,0.1c-0.4,0-0.7,0-1.1,0
			c-0.7,0-1.2,0.4-1.2,1.2c0,0.2,0,0.3,0,0.5c0.1,0.5,0.5,0.8,1,0.8C314.3,20.1,314.4,20.1,314.6,20.1z"/>
		<path class="st58" d="M310.2,18.8c0-0.7,0-1.4,0-2.1c0-0.1,0-0.1,0.1-0.1c0.3,0,0.6,0,0.9,0c0.1,0,0.1,0,0.1,0.1
			c0,1.5,0,2.9,0,4.4c0,0.1,0,0.1-0.1,0.1c-0.3,0-0.6,0-0.9,0c-0.1,0-0.1-0.1-0.1-0.2C310.2,20.2,310.2,19.5,310.2,18.8z"/>
		<path class="st5" d="M307.5,17.6c0.2,0,0.4,0,0.6,0c0.3,0,0.5,0.2,0.5,0.5c0,0.3-0.2,0.5-0.5,0.5c-0.4,0-0.8,0-1.2,0
			c-0.1,0-0.1,0-0.1-0.1c0-0.2,0-0.5,0-0.7c0-0.1,0-0.1,0.1-0.1C307.1,17.6,307.3,17.6,307.5,17.6C307.5,17.6,307.5,17.6,307.5,17.6
			z"/>
		<path class="st5" d="M313,25.6c0.2,0,0.4,0,0.6,0c0.3,0,0.5,0.2,0.5,0.5c0,0.2-0.2,0.5-0.5,0.5c-0.4,0-0.8,0-1.3,0
			c-0.1,0-0.1,0-0.1-0.1c0-0.3,0-0.5,0-0.8c0-0.1,0-0.1,0.1-0.1C312.6,25.6,312.8,25.6,313,25.6z"/>
		<path class="st5" d="M317.4,17.6c0.2,0.6,0.4,1.1,0.6,1.6c-0.4,0-0.8,0-1.2,0c-0.1,0-0.1,0-0.1-0.1
			C316.9,18.6,317.1,18.1,317.4,17.6z"/>
		<path class="st5" d="M291.8,17.6c0.2,0.5,0.4,1.1,0.6,1.6c-0.1,0-0.2,0-0.3,0c-0.3,0-0.6,0-0.9,0c-0.1,0-0.1,0-0.1-0.1
			C291.4,18.6,291.6,18.1,291.8,17.6z"/>
		<path class="st5" d="M308.3,26.6c-0.2,0-0.4,0-0.6,0c-0.1,0-0.1,0-0.1-0.1c0-0.3,0-0.6,0-0.8c0-0.1,0-0.1,0.1-0.1
			c0.4,0,0.8,0,1.2,0c0.4,0,0.6,0.2,0.5,0.5c0,0.3-0.2,0.5-0.6,0.5C308.7,26.6,308.5,26.6,308.3,26.6z"/>
	</g>
	<g>
		<rect x="196.8" y="2.1" class="st59" width="61.9" height="39.2"/>
		<path class="st60" d="M258.7,24.5c0,0-0.1,0-0.1,0c-0.1,0-0.2,0-0.2-0.1c0-0.1,0-0.2,0.1-0.2c0.1,0,0.1,0,0.2,0
			C258.7,24.2,258.7,24.4,258.7,24.5z"/>
		<path class="st61" d="M258.7,24.1c0-7.4,0-14.8,0-22.3c-20.8,0-41.5,0-62.3,0c-0.1,0.2,0,0.4,0,0.6c0,12.9,0,25.8,0,38.7
			c0,0.1,0,0.2,0,0.3c0,0.3,0.1,0.4,0.3,0.3c0.1,0,0.3,0,0.4,0c20.2,0,40.4,0,60.6,0c0.1,0,0.9,0,1.1,0c0-0.4,0-0.7,0-1.1
			c0-5.4,0-10.8,0-16.2C258.6,24.4,258.6,24.2,258.7,24.1z M257.3,24.8c-0.5,0.3-0.9,0.7-1.5,0.9c-0.1,0-0.2,0.1-0.3,0.2
			c-1,0.7-2,1.2-3,1.8c-0.6,0.3-1.2,0.7-1.9,0.9c-0.3,0-0.5,0.2-0.6,0.3c-0.8,0.5-1.6,0.8-2.5,1.3c-0.1,0-0.3,0.1-0.4,0.1
			c-0.1,0.1-0.3,0.1-0.4,0.2c-0.2,0.1-0.5,0.2-0.7,0.3c0,0-0.1,0-0.1,0c-0.5,0.2-1.1,0.4-1.6,0.7c-1.7,0.7-3.5,1.4-5.2,2.1
			c-0.2,0.1-0.4,0.1-0.6,0.2c-0.2,0-0.4,0-0.5,0.2c-0.9,0.4-1.9,0.7-2.8,1.1c-0.3,0.1-0.7,0.2-1.1,0.3c-0.2,0-0.4,0-0.5,0.1
			c0,0-0.1,0-0.1,0c-0.2,0-0.3,0.1-0.4,0.2c-0.2,0.1-0.4,0.2-0.6,0.2c-0.2,0-0.3,0.1-0.5,0.2c-1.4,0.5-2.7,0.9-4.1,1.3
			c-0.2,0-0.4,0.1-0.6,0.2c-0.6,0.2-1.3,0.4-1.9,0.5c-0.2,0-0.4,0.1-0.6,0.1c-0.2,0.1-0.5,0.1-0.7,0.2c-0.3,0-0.5,0-0.7,0.2
			c-1.3,0.4-2.5,0.7-3.9,0.9c-0.3,0-0.5,0-0.7,0.1c-0.3,0.1-0.6,0.2-0.9,0.2c-0.2-0.1-0.4,0.1-0.6,0.1c-0.5,0.2-1.1,0.3-1.6,0.4
			c-0.2,0-0.5,0.1-0.7,0.2c-1.4,0.3-2.8,0.6-4.3,0.6c-0.2,0-0.4,0-0.7,0c-4.2,0-8.4,0-12.5,0c-0.1,0-0.1,0-0.2,0
			c-0.2,0-0.4-0.1-0.3-0.3c0-0.1,0-0.2,0-0.4c0-12.5,0-25.1,0-37.6c0-0.7-0.1-0.6,0.6-0.6c20,0,40.1,0,60.1,0c0.7,0,0.6-0.1,0.6,0.6
			c0,6.9,0,13.8,0,20.6c0,0.1,0,0.3,0,0.4c-0.1,0.3-0.3,0.3-0.5,0.5C257.6,24.6,257.5,24.7,257.3,24.8z"/>
		<path class="st62" d="M258.2,24.1c0.1,0.1,0,0.3,0,0.4c0,5.4,0,10.9,0,16.3c0,0.5,0,0.5-0.6,0.5c-9.5,0-18.9,0-28.4,0
			c-5.9,0-11.9,0-17.8,0c-0.3,0-0.6,0.1-0.9,0C225.2,38.6,252.3,28.2,258.2,24.1z"/>
		<path class="st60" d="M258.5,24.6c0.1,0.2,0.2,0.4,0.2,0.6c0,4.8,0,9.6,0,14.4c0,0.3-0.1,0.5-0.1,0.8c-0.2,0-0.2-0.1-0.2-0.2
			c0-0.1,0-0.2,0-0.3c0-4.9,0-9.9,0-14.8C258.4,25,258.3,24.8,258.5,24.6z"/>
		<path class="st61" d="M199.3,23.1c0-3.1,0-6,0-9c0.1-0.1,0.2-0.1,0.3-0.1c0.9,0,1.8,0,2.7,0c1.2,0.1,2.4,0.5,3.2,1.4
			c1.2,1.3,1.5,2.9,1,4.6c-0.6,1.7-1.8,2.7-3.6,3C201.7,23.2,200.5,23.1,199.3,23.1z"/>
		<path class="st63" d="M255.5,23.1c-0.8,0-1.4,0-2.1,0c-0.2,0-0.2-0.1-0.3-0.3c-0.7-1-1.4-2-2.1-3.1c-0.1-0.1-0.1-0.3-0.4-0.3
			c0,1.2,0,2.4,0,3.6c-0.6,0-1.2,0-1.8,0c0-3,0-6,0-9c0.7,0,1.4,0,2.1,0c0.5,0,1,0,1.5,0.1c1.8,0.4,2.7,2.2,1.9,3.9
			c-0.3,0.5-0.7,0.9-1.3,1.1c-0.1,0.1-0.3,0.1-0.5,0.2C253.7,20.6,254.6,21.8,255.5,23.1z"/>
		<path class="st61" d="M247.8,14.1c0,0.5,0,1,0,1.5c-1.1,0-2.1,0-3.2,0c0,0.6,0,1.2,0,1.8l0,0.2c0.8,0,1.9,0,2.6,0
			c0.1,0,0.3,0,0.5,0c0.1,0.5,0,1,0,1.5c-1,0-2.1,0-3.1,0c0,0.8,0,1.6,0,2.4c1.1,0,2.1,0,3.2,0c0,0.5,0,1,0,1.5c-1.6,0-3.3,0-4.9,0
			c0-3,0-6,0-9C244.5,14.1,246.1,14.1,247.8,14.1z"/>
		<path class="st61" d="M215.9,15c-0.3,0.4-0.6,0.8-0.9,1.1c-0.2-0.1-0.3-0.2-0.4-0.3c-0.5-0.4-1.1-0.5-1.7-0.2
			c-0.3,0.2-0.6,0.4-0.6,0.8c0,0.4,0.2,0.6,0.5,0.8c0.3,0.2,0.6,0.3,0.9,0.4c0.4,0.1,0.7,0.3,1.1,0.5c1.2,0.6,1.7,1.4,1.4,2.9
			c-0.2,1.2-0.9,2-2.1,2.3c-1.5,0.4-3.1,0-4.1-1.6c0.1-0.2,0.3-0.4,0.5-0.6c0.2-0.2,0.3-0.4,0.6-0.5c0.2,0.1,0.2,0.3,0.3,0.4
			c0.5,0.6,1.2,0.9,2,0.7c0.5-0.1,0.9-0.5,0.9-1c0.1-0.6-0.1-0.9-0.7-1.2c-0.3-0.2-0.7-0.3-1.1-0.4c-0.4-0.1-0.7-0.3-1.1-0.5
			c-0.9-0.6-1.3-1.4-1-2.5c0.3-1.3,1.4-2.1,2.8-2.1c0.9,0,1.7,0.3,2.4,0.8c0,0,0.1,0.1,0.1,0.1C215.8,14.9,215.8,14.9,215.9,15z"/>
		<path class="st63" d="M233.4,14c0.6,0,1.1,0,1.7,0c0.2,0,0.2,0.1,0.2,0.2c0.1,0.4,0.3,0.7,0.4,1.1c0.6,1.5,1.3,3.3,1.9,4.8
			c0,0,1.6-4,2.3-5.7c0.1-0.3,0.2-0.4,0.5-0.4c0.5,0,1,0,1.5,0c0.1,0.1,0,0.2-0.1,0.3c-1.2,2.9-2.4,5.7-3.6,8.6l-1.3,0
			c-0.6-1.5-2.9-7.1-3.5-8.5C233.4,14.3,233.3,14.2,233.4,14z"/>
		<path class="st63" d="M223.6,16.4c-0.7-0.7-1.5-1.1-2.4-0.9c-0.7,0.1-1.4,0.4-1.8,1c-1.1,1.2-1,3.2,0.1,4.3
			c0.6,0.6,1.3,0.9,2.1,0.9c0.8,0,1.5-0.3,2.1-0.9c0.2,0.1,0.1,0.2,0.1,0.3c0,0.5,0,1,0,1.5c0,0.2,0,0.3-0.2,0.4
			c-3.1,1.4-6.7-0.7-6.8-4.2c-0.1-2.6,2.2-5.2,5.5-4.8c0.5,0.1,0.9,0.2,1.4,0.4c0.1,0.1,0.2,0.1,0.2,0.3
			C223.7,15.2,223.7,15.8,223.6,16.4C223.7,16.4,223.7,16.4,223.6,16.4z"/>
		<path class="st64" d="M207.6,23.1c-0.1-0.4-0.1-8.6,0-9c0.6,0,1.1,0,1.7,0c0.1,0.1,0.1,0.3,0.1,0.4c0,2.7,0,5.5,0,8.2
			c0,0.4,0,0.4-0.4,0.4C208.4,23.1,208,23.1,207.6,23.1z"/>
		<path class="st65" d="M255,14.5c-0.2-0.1-0.1-0.2,0-0.3c0.1-0.3,0.4-0.4,0.7-0.4c0.3,0,0.5,0.2,0.6,0.5c0.1,0.3,0,0.6-0.3,0.8
			c-0.1,0-0.1-0.1-0.2-0.1c0-0.1,0-0.1,0.1-0.2c0.2-0.4,0-0.6-0.5-0.6c0,0-0.1,0-0.1,0.1C255.2,14.3,255.2,14.5,255,14.5z"/>
		<path class="st66" d="M255.4,15.2c-0.2,0-0.4-0.2-0.5-0.4c0-0.1,0-0.2,0.1-0.2c0.3,0,0.1-0.3,0.3-0.5l0,0c0,0,0.1,0,0.1,0
			c0.2,0.2,0.1,0.4,0.1,0.7c0,0.1,0,0.2,0,0.3C255.5,15.2,255.4,15.2,255.4,15.2z"/>
		<path class="st67" d="M255.3,14.1c0,0.2,0,0.5,0,0.8c-0.2-0.1-0.2-0.2-0.3-0.3c0,0,0-0.1,0-0.1C255.1,14.4,255.1,14.2,255.3,14.1z
			"/>
		<path class="st65" d="M255.4,15.2c0,0,0.1-0.1,0.1-0.1c0.1-0.1,0.2-0.1,0.3,0c0.1,0,0.1,0.1,0.1,0.2
			C255.7,15.3,255.5,15.4,255.4,15.2z"/>
		<path class="st66" d="M255.8,15.2c0-0.1-0.1-0.1-0.1-0.1c0-0.1,0-0.1,0-0.2c0,0,0-0.1,0.1-0.1c0.1,0,0.1,0,0.1,0.1
			c0,0.1,0,0.2,0.1,0.2C255.9,15.2,255.9,15.2,255.8,15.2z"/>
		<circle class="st62" cx="229.2" cy="18.6" r="4.8"/>
		<path class="st5" d="M201.1,21.5c-0.1-0.1-0.1-0.2-0.1-0.3c0-1.7,0-3.4,0-5.2c0-0.4,0-0.5,0.4-0.4c0.4,0,0.7,0,1.1,0.1
			c1.8,0.3,2.5,2.1,2.3,3.4c-0.3,1.5-1.3,2.3-2.8,2.4C201.8,21.5,201.4,21.6,201.1,21.5z"/>
		<path class="st59" d="M250.7,18.2c0-0.9,0-1.8,0-2.7c0.4-0.1,0.8,0,1.2,0.1c0.6,0.2,0.9,0.6,0.9,1.2c0,0.7-0.3,1.1-0.8,1.3
			C251.7,18.2,251.3,18.2,250.7,18.2z"/>
		<path class="st68" d="M255.9,14.9C255.9,14.9,255.8,14.9,255.9,14.9c-0.3-0.3-0.2-0.7-0.5-0.8l0,0l0,0c0.3-0.2,0.6-0.1,0.7,0.1
			C256.2,14.5,256.2,14.7,255.9,14.9z"/>
		<path class="st69" d="M255.4,14.2c0.1,0,0.1,0,0.2,0c0.3,0,0.3,0.1,0.2,0.4c-0.1,0.1,0,0.2,0,0.3c0,0,0,0.1,0,0.1
			c-0.1,0.1-0.3,0-0.4,0C255.4,14.7,255.4,14.4,255.4,14.2z"/>
		<path class="st70" d="M255.4,15c0.1-0.2,0.3,0,0.4,0c0,0.1-0.1,0.1-0.1,0.2c-0.1,0-0.1,0-0.2,0C255.4,15.1,255.4,15,255.4,15z"/>
	</g>
	<g>
		<path class="st71" d="M363.8,32c-2.1,0-4.1,0-6.2,0c2-7.1,3.9-14.2,5.9-21.2c0.1,0,0.2,0,0.3,0c3.6,0,7.2,0,10.8,0.1
			c1,0,1.9,0.2,2.9,0.5c1.6,0.5,2.4,1.6,2.3,3.3c-0.1,2.1-0.7,4.1-2.2,5.6c-0.7,0.7-1.6,1.1-2.4,1.7c-0.1,0.1-0.2,0.1-0.3,0.2
			c0.2,0.1,0.4,0.2,0.6,0.3c0.9,0.4,1.4,1.1,1.4,2.1c0.1,1.4-0.4,2.6-0.7,3.9c-0.1,0.6-0.3,1.2-0.4,1.9c0,0.3,0.1,0.6,0.2,0.9
			c0,0.3,0,0.5-0.1,0.8c-2.2,0-4.3,0-6.4,0c0-1.2,0.2-2.3,0.6-3.4c0.2-0.7,0.4-1.4,0.5-2.1c0.2-1.1-0.3-1.8-1.5-1.8
			c-1-0.1-2,0-3.1,0c-0.1,0-0.3,0.2-0.4,0.4c-0.6,2.1-1.2,4.3-1.8,6.4C363.9,31.7,363.8,31.8,363.8,32z M367.2,19.9c1,0,1.9,0,2.8,0
			c0.3,0,0.5,0,0.8,0c1.4-0.1,2.2-0.8,2.5-2.2c0.2-1.2-0.1-1.7-1.4-1.8c-1.1-0.1-2.2,0-3.4,0c-0.1,0-0.3,0.1-0.4,0.3
			C367.8,17.4,367.5,18.6,367.2,19.9z"/>
		<path class="st71" d="M403,25.5c-0.6,2-1.1,4-1.6,5.9c-0.1,0.5-0.3,0.6-0.8,0.6c-1.9,0-3.8,0-5.7,0c2-7.1,3.9-14.2,5.9-21.2
			c0.1,0,0.1,0,0.2,0c3.4,0,6.8,0,10.1,0.1c1.1,0,2.3,0.2,3.3,0.7c1.4,0.7,2.2,1.9,2.4,3.4c0.4,4.1-2.3,8.4-6.1,9.9
			c-1.2,0.5-2.5,0.6-3.8,0.6C405.6,25.5,404.3,25.5,403,25.5z M404.4,20.2c1.2,0,2.4,0,3.6,0c1.6-0.1,2.3-1.1,2.5-2.8
			c0.1-0.8-0.2-1.2-1-1.3c-1.2-0.1-2.5-0.1-3.8-0.2c-0.1,0-0.2,0.1-0.2,0.2C405.2,17.5,404.8,18.9,404.4,20.2z"/>
		<path class="st71" d="M423.3,32c0-0.5,0-1,0-1.3c-1,0.5-1.9,1-2.9,1.4c-1.3,0.5-2.7,0.6-4,0.4c-2.2-0.4-3.2-1.7-2.8-3.9
			c0.1-0.9,0.5-1.8,0.9-2.6c0.8-1.6,2.2-2.4,3.8-2.8c1.7-0.4,3.4-0.6,5.1-0.9c0.6-0.1,1.1-0.3,1.7-0.5c0.2-0.1,0.5-0.2,0.6-0.4
			c0.2-0.4,0.4-0.8,0.3-1.1c0-0.4-0.5-0.6-0.9-0.6c-1.1-0.1-2.4-0.2-3.2,1.3c0,0.1-0.2,0.2-0.3,0.2c-1.8,0-3.6,0-5.4,0
			c0.4-1.3,1-2.3,2-3.2c1.2-1.1,2.7-1.6,4.3-1.9c2.2-0.4,4.4-0.4,6.6,0.2c1.8,0.5,2.7,1.7,2.6,3.5c-0.1,0.6-0.2,1.2-0.4,1.8
			c-0.8,2.9-1.6,5.8-2.4,8.7c-0.1,0.4-0.1,0.9,0.2,1.3c0.2,0.2,0.1,0.5-0.2,0.5C427,32,425.1,32,423.3,32z M424.6,25.1
			c-0.8,0.2-1.7,0.4-2.5,0.7c-0.7,0.3-1.4,0.6-2.1,1c-0.5,0.3-0.6,1-0.5,1.4c0.2,0.5,0.5,0.7,1.2,0.7
			C423,28.9,424.5,27.4,424.6,25.1z"/>
		<path class="st71" d="M439,16.4c0,3.1,0,6.2,0,9.4c0.1-0.1,0.2-0.2,0.2-0.3c1.6-2.9,3.1-5.9,4.7-8.8c0.1-0.2,0.3-0.3,0.5-0.3
			c1.7,0,3.4,0,5.1,0c0,0.1-0.1,0.2-0.1,0.3c-3.4,5.8-6.7,11.6-10.1,17.4c-0.7,1.1-1.4,2.2-2.4,3.1c-1.1,0.9-2.3,1.2-3.6,1.2
			c-1.4,0-2.7,0-4.2,0c0.3-1.3,0.6-2.4,1-3.5c0.1-0.4,0.1-0.9,0.4-1.1c0.3-0.2,0.8-0.1,1.2-0.1c1.8,0,2.5-0.7,2.4-2.5
			c-0.1-2.5-0.3-5.1-0.5-7.6c-0.1-1.9-0.2-3.9-0.4-5.8c0-0.4-0.1-0.9-0.1-1.3C435.1,16.4,437.1,16.4,439,16.4z"/>
		<path class="st71" d="M396.9,16.3c-0.6,2.3-1.2,4.6-1.9,6.8c-0.8,2.8-1.5,5.5-2.3,8.3c-0.1,0.4-0.3,0.6-0.7,0.6
			c-1.5,0-3.1,0-4.7,0c0.2-0.7,0.4-1.4,0.6-2.3c-0.2,0.2-0.3,0.3-0.5,0.4c-1.4,1.3-2.9,2.1-4.8,2.3c-1.5,0.1-2.9-0.1-3.9-1.3
			c-0.7-0.9-0.8-2-0.6-3.1c0.5-2.2,1-4.3,1.6-6.5c0.4-1.7,0.9-3.4,1.4-5.2c1.9,0,3.8,0,5.8,0c-0.5,1.8-1,3.6-1.5,5.3
			c-0.4,1.4-0.8,2.8-1,4.3c-0.3,1.5,0.8,1.7,1.8,1.6c1-0.1,1.7-0.8,2.1-1.6c0.4-0.8,0.7-1.7,0.9-2.6c0.6-2.2,1.2-4.5,1.9-6.7
			c0-0.1,0.2-0.4,0.4-0.4C393.2,16.3,395,16.3,396.9,16.3z"/>
		<path class="st72" d="M459.6,9.1c0.4,0.8,7.1,14.3,7.1,14.6c0,0-14.6,13.8-15.4,14.7C452.3,34.7,458.5,12.8,459.6,9.1z"/>
		<path class="st73" d="M454.4,9.1c0.4,0.8,7.1,14.3,7.1,14.6c0,0-14.6,13.8-15.4,14.7C447,34.7,453.3,12.8,454.4,9.1z"/>
	</g>
</g>
<g id="Layer_2">
</g>
</svg>
