<?xml version="1.0" encoding="utf-8"?>
<!-- Generator: Adobe Illustrator 21.0.0, SVG Export Plug-In . SVG Version: 6.00 Build 0)  -->
<svg version="1.1" id="Layer_1" xmlns="http://www.w3.org/2000/svg" xmlns:xlink="http://www.w3.org/1999/xlink" x="0px" y="0px"
	 viewBox="0 0 400 100.8" style="enable-background:new 0 0 400 100.8;" xml:space="preserve">
<style type="text/css">
	.st0{opacity:0.3;}
	.st1{fill:#95949E;}
	.st2{fill:#5B5B6B;}
	.st3{fill:#B4B5BE;}
	.st4{fill:#FEFEFE;}
	.st5{fill:#93949D;}
	.st6{fill:#93949E;}
	.st7{fill:#94949E;}
	.st8{fill:#93939D;}
	.st9{fill:#94939E;}
	.st10{fill:#94949D;}
	.st11{fill:#DBEBF8;}
	.st12{fill:#96969F;}
	.st13{fill:#97979E;}
	.st14{fill:#94959E;}
	.st15{fill:#5B5A69;}
	.st16{fill:#9D9BA4;}
	.st17{fill:#9999A4;}
	.st18{fill:#888890;}
	.st19{fill:#888891;}
	.st20{fill:#8C8B94;}
	.st21{fill:#8B8B95;}
	.st22{fill:#9797A1;}
	.st23{fill:#94939D;}
	.st24{fill:#FCFCFC;}
	.st25{fill:#8E8C98;}
	.st26{fill:#878792;}
	.st27{fill:#909098;}
	.st28{fill:#ABA9B0;}
	.st29{fill:#96979F;}
	.st30{fill:#8C8B93;}
	.st31{fill:#5C5B68;}
	.st32{fill:#878890;}
	.st33{fill:#898991;}
	.st34{fill:#898893;}
	.st35{fill:#8F8E96;}
	.st36{fill:#8A8991;}
	.st37{fill:#88888F;}
	.st38{fill:#87888F;}
	.st39{fill:#8E8D95;}
	.st40{fill:#898890;}
	.st41{fill:#87878F;}
	.st42{fill:#878790;}
	.st43{fill:#88878F;}
	.st44{fill:#4B4859;}
	.st45{fill:#4A4858;}
	.st46{fill:#585667;}
	.st47{fill:#A6A6AD;}
	.st48{fill:#ACAAB2;}
	.st49{fill:#9E9DA5;}
	.st50{fill:#898894;}
	.st51{fill:#A0A0A8;}
	.st52{fill:#898992;}
	.st53{fill:#5C5B69;}
	.st54{fill:#72717D;}
	.st55{fill:#5A5968;}
	.st56{fill:#7D7D88;}
	.st57{fill:#535160;}
	.st58{fill:#A29FA9;}
	.st59{fill:#96949F;}
	.st60{fill:#AAA8B2;}
	.st61{fill:#686572;}
	.st62{fill:#898790;}
	.st63{fill:#898792;}
	.st64{fill:#8A8792;}
	.st65{fill:#8A8893;}
	.st66{fill:#878591;}
	.st67{fill:#92909C;}
	.st68{fill:#92919D;}
	.st69{fill:#92909B;}
	.st70{fill:#919099;}
	.st71{fill:#91909A;}
	.st72{fill:#929098;}
	.st73{fill:#93919A;}
	.st74{fill:#A2A1A7;}
	.st75{fill:#84828C;}
	.st76{fill:#525160;}
	.st77{fill:#94929D;}
	.st78{fill:#95939E;}
	.st79{fill:#9C9AA3;}
	.st80{fill:#9B99A3;}
	.st81{fill:#898791;}
	.st82{fill:#AEACB5;}
	.st83{fill:#83828B;}
	.st84{fill:#9E9AA4;}
	.st85{fill:#898892;}
	.st86{fill:#8A8890;}
	.st87{fill:#AFACB4;}
	.st88{fill:#ABA9B1;}
	.st89{fill:#AEACB4;}
	.st90{fill:#B1AEB8;}
	.st91{fill:#888694;}
	.st92{fill:#565565;}
	.st93{fill:#9D9CA3;}
	.st94{fill:#A1A0A7;}
	.st95{fill:#9A9AA5;}
	.st96{fill:#686875;}
	.st97{fill:#555563;}
	.st98{fill:#545362;}
	.st99{fill:#D9D9DF;}
	.st100{fill:#DBDADF;}
	.st101{fill:#BDBBC7;}
	.st102{fill:#D6D5DA;}
	.st103{fill:#BAB8C2;}
	.st104{fill:#C0BEC4;}
	.st105{fill:#E1E0E7;}
	.st106{fill:#9D9CA4;}
	.st107{fill:#797884;}
	.st108{fill:#8B8A95;}
	.st109{fill:#6F6F7D;}
	.st110{fill:#535363;}
	.st111{fill:#8F8E97;}
	.st112{fill:#A5A4AD;}
	.st113{fill:#F7F6F7;}
	.st114{fill:#A5A4AB;}
	.st115{fill:#7D7C89;}
	.st116{fill:#AFAEB4;}
	.st117{fill:#E0EDF7;}
	.st118{fill:#E1E1E8;}
	.st119{fill:#C7C6CE;}
	.st120{fill:#C5C5CA;}
	.st121{fill:#E1E0E5;}
	.st122{fill:#EBEAF1;}
	.st123{fill:#ECEBF2;}
	.st124{fill:#E9E7ED;}
	.st125{fill:#A3A1A8;}
	.st126{fill:#B0ADB5;}
	.st127{fill:#B0AFB5;}
	.st128{fill:#B0AEB5;}
	.st129{fill:#B0AFB6;}
	.st130{fill:#B7B6BC;}
	.st131{fill:#B6B5BA;}
	.st132{fill:#B5B4BA;}
	.st133{fill:#B6B4BC;}
	.st134{fill:#828189;}
	.st135{fill:#B2B2B8;}
	.st136{fill:#9B9AA1;}
	.st137{fill:#A6A5AB;}
	.st138{fill:#777780;}
	.st139{fill:#BABABE;}
	.st140{fill:#B4B3B8;}
	.st141{fill:#F5FAFD;}
	.st142{fill:#DAD9E1;}
	.st143{fill:#A8A7AC;}
	.st144{fill:#C9C9CE;}
	.st145{fill:#CFCED6;}
	.st146{fill:#9C9CA3;}
	.st147{fill:#A8A7AD;}
	.st148{fill:#E0DFE3;}
	.st149{fill:#D2D1D6;}
	.st150{fill:#C6C4CC;}
	.st151{fill:#ACABB1;}
	.st152{fill:#D0CFD6;}
	.st153{fill:#F3F2F5;}
	.st154{fill:#9D9BA3;}
	.st155{fill:#B1B0B7;}
	.st156{fill:#B4B3BA;}
	.st157{fill:#A7A6AD;}
	.st158{fill:#E0DFE6;}
	.st159{fill:#CFCFD2;}
	.st160{fill:#C7C6CC;}
	.st161{fill:#A5A4AA;}
	.st162{fill:#A09FA7;}
	.st163{fill:#C7C7CD;}
	.st164{fill:#E4E3E5;}
</style>
<g class="st0">
	<path class="st1" d="M398.6,99.6c-2.5,0-4.9,0-7.4,0c-1.3-1.6-0.7-3.4-0.8-5.2c0-0.7,0-1.4,0.1-2.2c0-0.4,0.1-0.7,0.2-1.1
		c0.4-1.3,0.3-2.6,0.3-3.9c0-12.6,0-25.2,0-37.9c0-4.1,0.5-8.3,0.2-12.4c0,2.5,0.3,4.9-0.2,7.4c-0.2,0.3-0.4,0.5-0.8,0.6
		c-0.5,0.1-1,0-1.4-0.3c-1.4-2.8-0.3-5.7-0.7-8.2c-0.6,2.3,1.1,5.2-0.9,7.8c-1.4,0.2-1.8-0.4-1.8-1.7c0-4.3,0-8.6,0-12.9
		c0,4.8,0,9.6,0,14.5c-0.2,0.4-0.5,0.5-0.9,0.3c0-5.6,0-11.2,0-17.1c5,0,9.5,0,14.1,0C398.6,51.5,398.6,75.5,398.6,99.6z"/>
	<path class="st2" d="M1.2,94.1c1.5-1.5,0.2-3.5,1.1-5.1c1.6,3.3,1.4,6.6,0.1,10c-2-0.4-0.2-2.3-1.2-3C1.2,95.3,1.2,94.7,1.2,94.1z"
		/>
	<path class="st3" d="M1.2,95.9c1.3,0.8,0.3,2,0.7,3C2,99.2,2,99.4,1.7,99.5c-0.2,0-0.4,0-0.5,0C1.2,98.3,1.2,97.1,1.2,95.9z"/>
	<path class="st2" d="M384.5,44.5c0.2,0,0.4,0,0.6,0c0.9-0.4,1.7-0.3,2.6,0c0.3,0.3,0.4,0.6,0.5,1c0.4,10.5,0.1,21.1,0.2,31.6
		c0,3.4,0,6.9,0,10.3c0,1.2-0.2,2.5,0.7,3.5c1.9,2.4,2.1,6.1,0.4,8.4c-16.1,0-32.1,0-48.2,0c-1.1,0-2.2-0.3-3.3,0.3
		c-1.4,0-2.9,0-4.3-0.1c-1.1-0.5-2.2-0.2-3.3-0.2c-32.8,0-65.6,0-98.3,0c-1.1,0-2.2,0.1-3.4-0.1c-1.3-1.1-1.1-2.6-1.1-4
		c0-21.5,0-42.9,0-64.4c0-1.4-0.1-2.9,1.3-4.2c3.2,1.2,4.5,4,5.7,6.9c0.1,0.2,0.1,0.4,0.1,0.5c0.8,1.8,0.9,3.7,0.9,5.7
		c-0.1,14.1,0,28.1,0.1,42.2c0,1.4-0.1,2.9,0.6,4.4c2.8,0.9,5.7,0.6,8.6,0.3c0.9-0.5,1.1-1.3,1.2-2.3c0.1-1.3-0.3-2.9,1.3-3.4
		c1.7-0.5,2.8,0.7,3.7,2c0.6,1.5,1.7,2.2,3.3,2.1c2.2-0.1,4.5,0.2,7-0.4c1.4-4.9-0.4-10.2,1.2-15.2c3.6,1,7,5.5,7.3,9.2
		c0.2,2.7-0.5,5.5,0.5,8.2c2,1,1.4-0.7,1.4-1.5c0.1-3.2,0-6.3,0-9.5c0-5.1,0-5.1,5.2-5.6c0.5,0,1-0.1,1.7-0.7
		c0.8-2.7,0.3-5.8,0.3-8.8c0.1-4.4,0-4.4,4.2-5.9c1.1-0.4,1.6-1.3,2.3-1.9l0,0c3-1.3,4.3-0.6,4.5,2.6c0.1,1.5,0,3,0.1,4.5
		c0.1,1.2,1.3,1.4,2.1,2.1l0,0c0.1,6.5,0,12.9,0.1,19.4c0,1.4-0.2,3,1.4,3.7c1.7,0.8,2.5-0.7,3.5-1.6l0,0c0.4-0.5,1-0.7,1.6-0.7
		c0.3,0,0.6,0.1,0.9,0.2c0.3,0.1,0.5,0.2,0.8,0.3c1.3,0.4,2.6,0.2,3.8,0.3c-1.5-0.1-3,0.3-4.4-0.7c-0.2-0.4-0.2-0.8,0-1.2
		c1.3-1,2.9-0.3,4.2-0.5c-1.2-0.2-2.8,0.5-4.1-0.5c-0.2-0.4-0.3-0.8-0.1-1.2c1.8-1.3,3.9-0.4,5.4-0.7c-1.5-0.3-3.6,0.4-5.5-0.3
		c-0.3-0.7-0.2-1.3,0.4-1.8c2.3-0.1,4.7-0.3,7,0.3c0.4,0.3-0.3,0.1-0.1-0.2c0.1-0.1-0.2-0.2-0.4-0.2c-2.1,0-4.3,0.1-6.4-0.1
		c-0.6-0.4-0.7-1-0.5-1.7c1.5-0.9,3.1,0,4.4-0.4c-1.3-0.1-2.8,0.3-4.2-0.6c-0.2-0.4-0.2-0.8,0-1.2c1.3-1.1,2.9-0.3,4.1-0.6
		c-1.2-0.2-2.7,0.4-4-0.5c-0.2-0.4-0.3-0.8-0.1-1.2c1.8-1.2,3.9-0.5,5.5-0.6c-1.7-0.3-3.7,0.4-5.6-0.3c-0.3-0.7-0.2-1.3,0.4-1.8
		c2.3-0.2,4.7-0.1,7,0.1c0.4,0.4-0.4,0.2-0.1,0c0.1-0.1-0.2-0.2-0.4-0.2c-2.1,0-4.3,0.1-6.4-0.1c-0.6-0.4-0.7-1-0.5-1.7
		c1.5-1.2,3.1,0.2,4.2-0.4c-1.1-0.1-2.7,0.3-4.1-0.6c-0.2-0.4-0.2-0.8,0-1.2c1.3-1.1,2.8-0.3,4-0.6c-1.1-0.2-2.6,0.4-3.9-0.5
		c-0.3-0.4-0.3-0.8-0.1-1.2c1.4-1.2,3.1-0.5,4.3-0.7c-1,0.1-2.4-0.1-3.8,0.2c-0.5,0-0.9-0.3-1.1-0.7c-0.1-0.3-0.1-0.6,0.1-0.9
		c0.3-0.4,0.7-0.6,1.2-0.7c2,0,4-0.1,5.9,0c-2.2-0.2-4.3,0.2-6.5-0.2c-0.5-0.5-0.5-1.1-0.3-1.7c1.5-0.9,3.1,0.3,4.3-0.3
		c-1.1-0.1-2.7,0.3-4.1-0.6c-0.2-0.4-0.2-0.8,0-1.2c1.3-1.1,2.9-0.3,4.1-0.6c-1.2-0.2-2.7,0.4-4-0.5c-0.2-0.4-0.3-0.8-0.1-1.2
		c1.8-1.3,3.9-0.4,5.4-0.7c-1.5-0.3-3.5,0.4-5.5-0.2c-0.3-0.7-0.2-1.2,0.3-1.8c2.3-0.2,4.5-0.3,7.3,0.1c-2.7-0.5-4.9-0.1-7.1-0.3
		c-0.9-0.5-1.1-1.4-1.4-2.3c-0.1-1-0.1-1.9,0.8-2.6c3.7-0.9,7.3-1.3,10.9,0.3l0,0c1.1,1.5,0.9,3.3,0.9,5c0,11.1,0,22.3,0,33.4
		c0,1.7-0.3,3.6,1.8,4.4c0.3,0.2,0.6,0.4,0.9,0.6c0.2,0,0.3,0.1,0.4,0.2c0.9,0.6,0.5,1.7,1.1,2.6c2.4,0.1,4.9,0.3,7.4-0.1
		c1-1.6,0.9-3.2,0.9-4.8c0-6.1-0.1-12.2,0.1-18.3c0.1-2.8,0.6-3.3,3.3-2.9c2.4,0.4,4.9,0,7.3,0.3c0.5,0.6,0.9,1.1,1.4,1.7
		c0.7,4.4,0.1,8.9,0.3,13.3c0.1,1.5-0.2,3,0.4,4.5c1,1,2.2,0.9,3.3,0.3c0.8-0.8,0.6-1.9,0.9-2.9c0.6-1.1,0.5-2.3-0.1-3.4
		c-0.3-1.7-0.4-3.4,1.2-5.2c5.7,3.5,2.3,9.7,4.3,14.4c1.3-1.2,1-2.4,1-3.6c0-5.8,0-11.6,0-17.4c0-2.2-0.1-4.3,2.2-5.6
		c1-0.6,0.8-1.8,0.9-2.8c0.1-1.4-0.1-2.9,1-4.1l0,0c2-1.3,4.1-0.6,6.1-0.3c1.7,0.3,1.6,2.2,1.6,3.5c0.1,6.2,0,12.4,0.1,18.6
		c0,1.4-0.1,2.8,0.6,4.1c2,1.1,4.3,0.3,6.3,0.9c1,0.2,1.9,0.8,2.8,1.2c1.4,0.5,2.9,0.8,4.5,0.2c1-2.4-0.2-5.2,0.8-7.6
		c0.5-0.6,1.4-1.2,0.3-2.1c-0.1-0.3,0-0.5,0.1-0.8c0.4-0.3,0.8-0.7,0-1.1c-0.2-0.2-0.2-0.5-0.2-0.7c0.2-0.5,0.6-0.7,0.9-1.1
		c-0.1-0.3-0.4-0.4-0.7-0.6c-0.2-0.2-0.2-0.5-0.2-0.7c0.2-0.6,0.7-0.9,1.3-0.9c-0.6-0.1-1.1-0.4-1.3-1c0-0.3,0.1-0.5,0.3-0.7
		c1-0.5,0.1-0.7-0.2-1c-0.2-0.4-0.2-0.7-0.1-1.1c0.2-0.3,0.6-0.4,0.7-0.7c-0.1-0.3-0.4-0.4-0.6-0.6c-0.1-0.2-0.2-0.5-0.1-0.8
		c1.1-1.4,1.3-2.7,0-4.1c-0.1-0.3,0-0.5,0.1-0.8c1.6-1.3-0.9-1.5-0.6-2.5c-0.3-2.1-0.8-4.2,0.7-6.1c3.9,3.3,7,6.7,5.5,12.2
		c2.6,0.7,3.2-0.6,3.2-2.3c0.1-3,0-6.1,0-9.1C383.6,47,383.5,45.6,384.5,44.5L384.5,44.5z"/>
	<path class="st2" d="M149.1,93.5c0,2,0,4,0,6.7c-24.8-0.5-49.4,0.7-74-0.6c-3.5-0.7-7.1-0.3-10.6-0.3c-18.8,0.1-37.7,0-56.5,0
		c-0.4,0-0.7-0.1-0.4,0c20.9,0,42.6,0,64.2,0c1.1,0,2.2-0.3,3.3,0.3c-0.6,0.7-1.5,0.6-2.3,0.6c-23.1,0-46.1,0-69.2,0
		c-0.4,0-0.8-0.1-1.2-0.1c0.5-4,0-8,0.3-12c2-1.5,4.2-0.7,6.3-0.9c1.4-0.1,2.9,0.4,4-0.9c0.8-1.4,0.6-3,0.5-4.5
		c-0.3-8,0.3-16,1.3-24c0.2-1.6,0.3-3.3,1.6-4.5l0,0c1.2-1,2.3-0.9,3.5,0l0,0c2.1,2.5,1.8,5.7,2.6,8.6c0.5,2,1,4.1,1.3,6.2
		c0.4,2.3,1.5,3.4,3.9,3.1c0.3,0,0.6,0.2,0.9,0.4c0.1,0.1,0.1,0.3,0.1,0.5c1,0.8,0.9,2,0.8,3.1c-0.1,3.3-0.1,6.5,0,9.8
		c0,1.1-0.3,2.5,1.2,3.1c1.5-0.5,1.1-1.8,1.2-2.8c0.1-1.9,0-3.9,0-5.8c0-1.3,0.2-2.7,0.9-3.8c2.5-3.7,5.6-7,8.2-10.6
		c0.5-0.7,1.2-1.1,2.2-0.7l0,0c1.1,1.2,1,2.6,1,4c0,4.8,0,9.7,0,14.5c0,1.2-0.1,2.4,0.5,3.6c0.8,0.8,1.8,0.7,2.8,0.5
		c1.4-0.7,1.2-2,1.1-3.2c-0.2-3.6-0.1-7.3-0.1-10.9c0-0.8,0-1.6,0.4-2.4c0.4-0.8,1-0.9,1.8-0.8c0.7,0.1,1.2,0.5,1.3,1.1
		c0.2,0.9-0.3,1.3-1.2,1.4c1-0.1,1.9,0.1,3,0c0.8-1.8-5.1-5.2,1.3-5.5c2.1,1.8,1.1,4.3,1.5,6.5c-0.4,4.6-0.4,9.1,0,13.5
		c1.7,1.2,3.7,0.3,5.1,1.5l0,0c3.4,1.7,6.7,0.1,10.1,0.2c1.2-3.9-0.2-7.8,1.2-11.4c0.3-0.8,0.3-1.6-0.2-2.3c-0.5-1.6-0.5-3.2,0-4.8
		c0.8-2.5,0.2-5,0.1-7.5c0.1-0.6,0.4-1.2,0.2-1.8c-0.5-1.1-0.5-2.2,0-3.3c0.3-0.6,0-1.2-0.1-1.8c-0.3-2.3,0.7-4.5,0.3-6.8
		C73,47.2,74.1,47,75,46.8c1.4-0.1,2.8-0.2,4.2,0.2c0.3,0.2,0.5,0.4,0.8,0.6c0.1,5.8,0.1,11.7,0.2,17.5c0.9,1.2,0.8,2.7,0.9,4.1
		c0,4.4-0.1,8.8,0,13.1c0,1.2-0.3,3,1.7,3c2,0.1,1.7-1.7,1.7-2.9c0.1-4.4,0-8.8,0-13.1c0-1.4-0.1-2.9,1-4l0,0
		c0.4-0.4,0.9-0.4,1.4-0.2c3.3,3.4,6,7.4,8.8,11.2c1.8,2.5,0.9,5.7,1.1,8.6c0.1,1.4-0.4,3.1,1.2,4.1c1.5-0.7,1.2-2.1,1.2-3.2
		c0.1-3.6,0-7.3,0-10.9c0-1.4,0-2.9,0.9-4.1l0,0c5-0.9,3.9,0.2,5.1-5.3c0.3-1.4,0.6-2.7,0.9-4.1c0.1-0.3,0.1-0.6,0.2-0.9
		c0.7-2.2,0.1-4.7,2.3-6.4l0,0c1.3-0.9,2.6-0.9,3.8,0l0,0c1.2,0.9,1.4,2.2,1.5,3.5c1.1,7.4,1.3,14.9,1.2,22.4c0,1.5-0.2,3,0.6,4.7
		c3.5,0.3,7,1.5,10.6,0.1c0-8.8,0-17.5,0.1-26.3c0.4-0.2,0.7-0.1,0.8,0.3c0,8.3,0,16.6,0,25c0-8.2,0-16.4,0-24.4
		c2.6-2.3,5.4-0.2,8-1c1.8,1.4,1.1,3.3,1.3,5.1c0.2,1.7-0.5,3.6,0.8,5.3c1.8-0.7,1.4-2.2,1.4-3.4c0.1-5.1,0-10.2,0-15.3
		c0-1.4-0.2-2.9,1.1-4c1.8,0.7,1.3,2.3,1.4,3.6c0.1,5.6,0,11.3,0,16.9c0,1.3-0.1,2.6,0.4,3.9c0.5,5.7,0.1,11.5,0.2,17.3
		c0,1.2-0.3,2.4,0.5,3.5c1.7,1.1,3.8,0,5.5,1c0.4,0.4,0.8,0.8,0,1.2c-0.8,0.1-1.7,0-2.5,0.1c0.8-0.1,1.5-0.1,2.3,0.3
		c0.4,1.5,0.3,3.1,0.1,5.1c-22.2,0-44.3,0-66.5,0.1c-0.4,0.1,0.2,0.4,0,0.1c22.1-0.4,44.1,0,66.3-0.2c0.7-1.8,0.2-3.6,0.4-5.3
		C148.4,93.5,148.7,93.4,149.1,93.5z"/>
	<path class="st2" d="M180.4,99.7c-9.1,0-18.2,0-27.8,0c0-11.4,0-22.3,0-33.3c0,0,0,0,0,0c1.1-0.8,2.3-0.7,3.5-0.3
		c1,0.4,2,0.5,3-0.1c0.7-0.2,1.4-0.3,2.1-0.1c0.3,0.1,0.5,0.3,0.7,0.5c1.2,1,0,2.7,1.2,3.7c1.3,1.6,1,3.5,0.8,5.2
		c-0.3,2.8,0.2,5.6,0.2,8.5c0,1.2,0.4,2.2,1.6,2.6c2.5,1.5,0.4,3.2,0.3,4.8c-0.1,0.4-0.4,0.5-0.8,0.4c0.1,0.3,0.5,0.3,0.6,0.5
		c0.4,0.9,1,1.7,1,2.7c0,0,0,0,0-0.1c0-0.9,0.5-1.7,0.7-2.5c0-1-0.6-1.8-0.7-2.8c0-0.9,0.1-1.8,0.5-2.7c1-0.7,0.9-1.7,0.9-2.7
		c0.1-2.6,0.3-5.3,0-7.9c-0.6-5.7,1.8-10.3,4.4-14.9c0.4-0.8,0.8-1.7,2-1.5l0,0c1.6,1.2,0.9,2.9,0.9,4.4c0,1.5,0,3,0,4.4
		c-0.1,1.5-0.1,2.9,0.1,4.3c0.1,0.6-0.1,1.3-0.1,1.9c0.3,3.2-0.2,6.4,0.3,10c4.3-0.2,8.6,2.1,11.9-2.3c1.3-1,3.1-0.2,4.6-1.5
		c0.8-7.1-0.4-14.6,0.7-22.2c1.9,0.5,2.2,1.5,2.5,2.6c0.3,1.4,0.6,2.8,0.9,4.2c1,4.2,2,4.8,6.8,3.5c0.6-3.6,0.2-7.3,0.2-11.1
		c0-2,0.5-3.3,2.9-2.1l0,0c1.3,1.2,0.7,3.1,1.5,4.5c2.3,0.9,2.9-0.3,3-2.2c0.2-4.8,0.1-9.7,0.1-14.5c0-1.3-0.1-2.6,0.8-3.8l0,0
		c0.3-0.2,0.6-0.4,0.9-0.5c1.1-0.3,2.2-0.3,3,0.6c0.1,0.3,0.2,0.7,0.2,1.1c-0.2,14.5-0.2,28.9,0,43.3c0.1,0.4,0.3,0.8,0.6,1.2
		c1.3,0.9,2.7,0.7,4.1,0.2c0.6-0.5,0.9-1.1,0.8-1.9c-0.1-14.4,0-28.8-0.1-43.2c0-1.5,0.1-3-0.4-4.5c0-2.7-0.9-5.6,0.7-8.2
		c3.1-0.9,4.2-0.3,4.6,2.7c0.1,1,0.1,2,0.1,3.1c0,20.1,0,40.1,0,60.2c0,1.8,0.3,3.7-1,5.3c-1.4,0.9-2.9,1.2-4.5,1.2
		c-9.4-0.1-18.8-0.1-28.2,0c-1.6,0-3.1,0-4.5-1.1c-0.9,0.5-1.8,0.5-2.7,0C184,100.2,182.2,100.1,180.4,99.7z"/>
	<path class="st4" d="M177.9,30.5c-4-3.2-6.2-11.7-3.9-16.1c1.8-3.4,3.6-6.7,7.5-8.7c5.5-2.7,13.1-2.3,18.6,2.4
		c3.8,3.2,6.8,9.6,4.6,15.9c-3.5,9.8-10,12.2-18.8,11.3c-0.7-0.1-1.1-0.5-1.2-1.2c2.7-1.9,5.7-3.3,8.7-5c-2.7-4.1-8.3-1.5-10.8-5.1
		c0.1-1.4,1-1.8,1.8-2.2c3.8-1.7,4.2-6.7,1.9-9.9c-1.6-2.3-4.2-2.2-5.8,0.1c-1.2,1.8-1.2,1.8-3.2,2c-2.5,6.3-0.8,10.2,5.4,12.7
		c0.4,0.2-0.1-0.1,0.3,0.1c2.4,1.1,4.2,4.4,3,5.9c-1.7,2.2-3.6,0.3-5.5-0.2c-0.7-0.2-1.1-0.9-1.5-1.5c0-0.7,0.1-1.4-0.6-1.8
		C177.6,29.3,178.5,30.3,177.9,30.5z"/>
	<path class="st5" d="M269,87.9c0-1.8-0.3-3.7,0-5.5c1-5.5-2.2-8.9-6-12.9c0,5.7,0,10.9,0,16.3c-4.2,0-8,0-11.9,0
		c-0.8-0.7-0.3-1.9-0.6-2.8c-0.3-0.5-0.5-1.1-0.4-1.7c0.2-0.9,0.1-1.7-0.2-2.6c-0.3-1.7-0.3-3.4,0-5c0.2-0.8,0.4-1.7,0.1-2.6
		c-0.2-0.9-0.2-1.7-0.1-2.6c0.2-0.9,0.2-1.7,0-2.6c-0.2-1.3-0.3-2.5,0.3-3.7c0.4-0.5,0.8-0.8,1.3-0.8c0.9,0.5,0.3,1.5,0.9,1.9
		c0.3,0.2,0.5,0.5,0.8,0.4c4.2-0.6,7.6,0.6,10,4.6c0.9-8.8,1.9-17.7,2.8-26.5c2.3,9.5,4.6,19,6,28.6c0.4,0.5,0.2,0.9,0,1.4
		c-1.3-1.1-1.3-1.1-2-2.8c1.6,2.9,2.7,5.9,2.1,9.5c-2.1,0.4-1.8,2.4-2.2,4c0.4-0.9,1.1-1.1,2.2-1c0.3,2.1,0.3,4,0,5.7
		C271,88.6,270,88,269,87.9z"/>
	<path class="st5" d="M148.6,93.4c-0.2-0.2-0.4-0.4-0.6-0.6c-0.1,0-0.2-0.1-0.3-0.1c-5.8-0.7-5.9-0.7-5.8-6.8
		c0.1-12.5-0.4-25-0.3-37.5c0-0.6-0.2-1.1-0.4-1.7c-0.2-0.3-0.5-0.5-0.9-0.6c-0.3,0-0.4-0.2-0.4-0.4c0.1-0.7,0.3-1.4,0.1-2.1
		c-1-5.4,1.9-9,5.4-12.5c0.9-0.2,1.3-1.3,2.9-1.1c0,12.3,0,24.8,0,32.7c-0.2-8.7,0.3-22-0.2-35.2c0.1-0.4,0.3-0.7,1.1-0.7
		c0,22,0,44.1,0,66.1c0,0.2,0,0.4,0,0.7C148.9,93.5,148.7,93.4,148.6,93.4L148.6,93.4z"/>
	<path class="st6" d="M206.6,56.2c-0.7,0.1-1.4-0.2-2,0.4c0,4.7,0.4,9.5-0.3,14.2c-2.5,0-4.7,0-7.2,0c-1.6-3.4-1.6-7.3-3.2-10.9
		c0,7.5,0,15.1,0,22.6c-2.2,1-4.3,0.3-6.2,0.6c-0.2-0.1-0.3-0.3-0.2-0.5c0.1-0.2,0.1-0.3,0.2-0.3c0-0.6,0.1-1.2,0.1-1.8
		c0.3-4,0.4-8.1,0-12.1c0.5-7.2,1.2-14.4,2.3-21.6c0.6,0.7,0.3,1.5,0.2,2.2c0.4-1.1-0.1-2.6,1.1-3.5c0.7,3.1,1.5,6.2,2.2,9.4
		c5.3-3.7,3.3-9.8,5-14.6c0.4-1.2,0.5-2.5,0.9-4.7c1.4,6.3,2.6,11.8,3.7,17.1c0.9,1.1,2.1,0.4,3,1C206.8,54.5,206.4,55.4,206.6,56.2
		z"/>
	<path class="st7" d="M384.5,44.5c0,5.4,0,10.7,0,16c-1.7,0.8-3.2,0.4-5,0.4c0-2.8,0-5.6,0-7.9c-1-1.5-2.2-0.9-3.1-1.4
		c-0.8-1-0.4-2.5-1.6-3.6c0,2.2,0,4.2,0,6.2c0,0.1-0.1,0.3-0.1,0.4c-0.4,0.6-1,0.9-1.8,0.8c0.4,0.1,0.9,0,1.4,0.2
		c0.3,0.1,0.5,0.3,0.6,0.6c0,0.1-0.1,0.3-0.1,0.4c0.2,0.2,0.2,0.5,0.1,0.8c-1,1-2.6,0.4-3.7,1c-0.2,0.3-0.2,0.6,0,0.9
		c1.2,0.5,2.6-0.1,3.7,1c0.1,0.3,0.1,0.5-0.1,0.8c0,0.1,0.1,0.3,0.1,0.4c-0.1,0.1-0.2,0.2-0.2,0.4c-0.6,0.4-1.3,0.3-1.9,0.4
		c0.4,0,1,0,1.5,0.1c0.3,0.1,0.5,0.3,0.6,0.6c0,0.3,0,0.7,0,1c-0.1,0.3-0.3,0.4-0.6,0.6c-0.5,0.1-1,0.1-1.5,0.1c0.5,0,1,0,1.4,0.1
		c0.3,0.1,0.5,0.3,0.6,0.6c0,0.1,0,0.3-0.1,0.5c0.2,0.2,0.2,0.5,0.1,0.8c-1,1-2.6,0.4-3.7,1c-0.2,0.3-0.2,0.6,0,0.9
		c1.2,0.5,2.6-0.1,3.7,1c0.1,0.3,0.1,0.5-0.1,0.8c0,0.2,0,0.3,0.1,0.5c-0.1,0.1-0.1,0.2-0.2,0.3c-0.6,0.4-1.3,0.3-1.8,0.4
		c0.4,0.1,0.9,0,1.5,0.2c0.3,0.1,0.5,0.3,0.6,0.6c0,0.1-0.1,0.3-0.1,0.4c0.1,0.2,0.2,0.3,0.2,0.5c0,0.2,0,0.3-0.1,0.3
		c-0.5,0.5-1.2,0.5-1.9,0.5c0.4,0,0.8,0,1.2,0.1c0.3,0.1,0.5,0.3,0.6,0.6c0,3,0,6,0,9.4c-2.3-0.6-4.4,0.5-6.3-0.9
		c-0.9-1.2-0.9-2.6-0.9-4.1c0-4.2,0-8.5,0-12.7c0-1.1,0.3-2.2-0.5-3.2c-0.3-0.2-0.4-0.5-0.5-0.9c0-3.1,0-6.3,0-9.6
		c2.6-0.4,2.8-2.2,3.2-4.2c0.7-4.2,1.5-8.4,2.8-12.6c0.6,2.8,1.2,5.6,1.9,8.7C377.9,44.5,381.2,44.5,384.5,44.5z"/>
	<path class="st6" d="M246.3,87.9c-3.7,0-7.3,0-11.5,0c0-18.1,0-36,0-53.8c0.8,1.1,1.5,2.1,2.3,3.2c-0.5,3.7,0,7.4-0.3,11.1
		c0.2,6.1,0,12.2,0.1,18.3c0,1-0.3,2,0.3,2.9c1.4,1.1,2.9,0.4,4.7,0.6c0-4,0-7.8,0-11.7c1.7-0.2,3.1-0.4,4.4-0.5
		c0.1,0.1,0.3,0.3,0.4,0.4c0.2,0.3,0.3,0.7,0.4,1.1c0,7.5,0.9,15-0.5,22.4C246.3,83.9,247.1,86,246.3,87.9z"/>
	<path class="st8" d="M43.4,64.1C36.9,71,30,77.6,33.3,88.3c-2.2,0.7-2.2,0.7-4.3,0.3c-0.6-5.5-0.1-11.2-0.2-16.8
		c0.9,0.2,1.8,0.5,2.9-0.3c0-4.5,0-9.1,0-13.6c1.8-1.4,4.1,0.2,5.6-1.3c0.5-4.9,0.5-9.8,0-14.7c1.8-1.3,3.7-0.3,6.1-0.6
		C43.4,49.2,43.4,56.6,43.4,64.1z"/>
	<path class="st9" d="M100.2,70.8c0,6.3,0,12.5,0,18.5c-1.4,1.2-2.6,1.1-3.9,0.5c-0.8-2.1-0.6-4.4-0.3-6.5c0.7-4.6-1.7-7.6-4.2-10.8
		c-1.8-2.3-3.8-4.5-5.2-7.1c-0.5-0.8-0.5-1.7-0.5-2.7c0-6.3,0-12.6,0-18.9c0-0.8-0.1-1.6,0.5-2.4c1.3-0.8,2.8-0.7,4.4,0
		c0.8,4.7-0.3,9.5,0.6,14.2c1.5,1.6,3.9-0.3,5.5,1.2c-1.4,0.9-0.2,2.1-0.2,3.1c0,3.7-0.5,7.4,0.3,11C98.2,71.4,99.2,71.3,100.2,70.8
		z"/>
	<path class="st1" d="M225.6,99.6c0-23.5,0-47.1,0-70.4c-1.4-0.8-2.6-0.5-3.7-0.5c-0.1,0.1-0.2,0.1-0.4,0.2
		c-0.1-0.1-0.2-0.2-0.3-0.3c0.4-1.2-0.2-2.6,0.5-3.8c0.6,0.9,0.4,1.8,0.2,2.7c0.6-0.9-0.2-2.1,0.6-3.3c3.4-0.4,6.9,0,10.5-0.2
		c1.2-0.1,1.1,1,1.6,1.5c0,2.7,0,5.3,0,8c-1.8-2.1-3.7-4.3-6-7c0,24.6,0,48.5,0,72.4c0.4,0.2,0.4,0.5,0,0.7
		C227.6,99.6,226.6,99.6,225.6,99.6z"/>
	<path class="st7" d="M351.4,54.3c0,2.4,0,4.9,0,7.2c-0.7,1.2-2,0.5-3,1.5c0,8.5,0,17.1,0,25.5c-1.2,1-2.3,0.6-3.3,0.5
		c-1.6-4.9,1.7-10.5-3.3-15.3c0,2.4,0,4,0,5.7c-0.1,0.1-0.1,0.2-0.2,0.4c-0.5,0.5-1.2,0.2-1.8,0.6c0.8-0.1,1.4,0.1,1.9,0.7
		c0,0.1,0.1,0.3,0.1,0.4c0,1.4,0,2.8,0,4.4c-1.8,0.7-3.7,0.4-6.2,0.2c0.3-6.5-0.6-12.9,0.6-19.4c1.8,2.1,3.7,4.2,6,6.9
		c-0.9-3.4,0.3-5.7,1.6-8c1.7-3.1,3.3-6.2,4.9-9.4C349.3,54.9,349.9,54,351.4,54.3z"/>
	<path class="st5" d="M310.6,44.4c-3.7,0-7.4,0.1-11.1,0.1c-0.3,0.2-0.7,0.2-1,0c-0.5-0.4-0.7-0.9-0.7-1.5c0-6.2-0.1-12.4,0-18.6
		c4.3-0.8,8.2,0.2,12.1-0.6c1.1,0.7,0.6,1.8,0.6,2.8C310.6,32.5,310.6,38.5,310.6,44.4z"/>
	<path class="st7" d="M61.8,87.8c-1.9,0-3.8,0-6.1,0c0-5.1-1-10.2,0.4-15.2c1-0.6,1.3,0.7,2.2,0.7c0.5-1.3,0.6-2.6,0.7-4
		c0.1-0.9-0.5-1.5-0.8-2.2c-0.1-0.3-0.2-0.5-0.2-0.8c-0.1-0.6,0-1.1,0.1-1.7c0.1-0.5,0.5-0.9,0.6-1.7c-1.1-0.4-2.5-0.5-3.2-1.7
		c-0.6-0.8-0.7-1.7-0.7-2.6c0-0.5,0-0.9,0.1-1.4c0.1-0.5,0.3-0.9,0.6-1.2c1.1-0.7,1.9,0.2,2.8,0.4c2.6-7.4,2-10.9-2.3-13.2
		c-0.5-2.2,0.4-3.4,2.9-3.2c-0.3-2.8,1.1-5.2,0.4-7.8c-1.2-2.7-2.2-2.7-5.1-0.4c-0.4,0.3-0.9,0.6-1.2,1c-0.5,1.2,1.3,1.5,1.1,2.5
		c-0.1,0.9-0.7,1.3-1.3,1.7c-0.5,0.3-1,0.6-1.3,1.2c-0.3,1,0.3,1.7,0.6,2.6c0.6,1.5,0.2,2.9-0.8,3.9c-1.2,1.3-2.1,1-2.1-1
		c0-6.1,0-12.1,0-18.5c4.2,0,8-0.1,11.7,0c0.8,1.3,0.5,2.4,0.5,3.5c0,18.4,0,36.8,0,55.2c0,1.1-0.3,2.2,0.3,3.3
		C61.8,87.5,61.8,87.7,61.8,87.8z"/>
	<path class="st10" d="M366.7,81.8c-2.7,0-5.4,0-8.5,0c0-9.2,0-18.1,0-27.1c-2.5-0.5-4.6-0.5-6.8-0.3c0.1-0.7,0.6-1,1.3-1
		c3.9,0,7.8,0,11.9,0c0.6,2.5,0.3,4.8,0.3,7c0,1.3,0.2,2.2,1.8,1.9c0,0,0.2,0.2,0.2,0.2c0.6,0.6,0.8,1.4,0.8,2.2c0,4.9,0,9.8,0,14.6
		C367.7,80.2,367.5,81.1,366.7,81.8z"/>
	<path class="st11" d="M179.1,31.1c1.7,1.3,3.9,1.6,5.8,2.3c1.3-2.7,0-5.3-2.8-6c-6.1-1.4-8.9-9.8-5-14.7c0.2-0.3,0.6-0.5,0.8-0.7
		c1,0.2,0.3,1.2,0.9,1.4c1.1-0.7,0.7-2,1.2-2.9c3.5-1.4,6.4-1.2,7.2,1.2c0.7,2.2,2.8,4.3,0.8,7.1c-1.3,1.9-1.1,2.1-5.1,5.3
		c3.8,2.3,8.7,1.1,12.1,4.8c-3,2.7-6.5,4.3-10.4,5.4C182.2,34.2,180,33.8,179.1,31.1z"/>
	<path class="st8" d="M334.8,64.8c-3.2,0.9-6.4,0.2-9.9,0.4c0,8.7,0,17.4,0,26.3c-3.6,0-6.9,0-10.2,0c0-1.2,0-2.3,0-3.5
		c2.3,0,4.6,0,7.3,0c0-14,0-27.7,0-41.5c2.2,0,3.9,0,6.1,0c0,5.7,0,11.4,0,17C330.5,64.9,333,63.1,334.8,64.8z"/>
	<path class="st7" d="M127.1,58.6c-0.2,0-0.4,0-0.5,0c0-3.3,0-6.6,0-9.9c0.4-0.7,0.1-1.6,0.5-2.5c4-0.6,8.2,0.3,12.2-0.5
		c0.2-0.1,0.3-0.1,0.5-0.2c0.1,0.1,0.2,0.2,0.2,0.2c0.2,0.1,0.2,0.2,0.2,0.4c-0.1,0.1-0.1,0.2-0.2,0.2c0,7.7,0,15.5,0,23.1
		c-1.4,1.2-2.7,0.5-4,0.7c-1.1-4,0.4-7.9-0.9-11.6C132.4,59.1,129.8,59.1,127.1,58.6z"/>
	<path class="st12" d="M74,75.7c-1.1,4.2-0.2,8.6-0.8,13.3c-3.4,0-6.8,0-10.2,0c-0.7,0-1-0.6-1.2-1.2c1.8-0.1,3.7,0.7,5.4-0.5
		c0.5-1.1,0.3-2.2,0.3-3.3c0-11.9,0-23.7,0-35.6c0-0.8,0.4-1.4,1-1.8c1.1-0.4,2-0.1,2.8,0.6c0.5,0.5,0.3,1.1,0.1,1.7
		c-0.6,0.9,0,2.2-0.7,2.6c0.7-0.7,0.4-2.3,1.2-3.4c0.2-1.1,0.8-1.9,2-1.8c0.8,0,0.9,0.6,0.5,1.3c-0.8,2.1-0.2,4.3-0.7,6.4
		c-0.1,0.5-0.3,0.9-0.4,1.4c-0.2,0.4-0.6,0.5-1,0.4c0.5,0.3,1.3,0.3,1.5,1c-0.8,1.2-0.9,2.3,0,3.5C73.9,61,73,61.2,73,62
		c0,1.5-2.1,1.5-2.1,3c0.1,0.5,0.1,1.1-0.1,1.6c-0.1,0.5-0.5,0.9-0.8,1.3c0.5,0.8,1.8,0.1,2.3,1.2c0.4,1.3,1,2.6-0.2,3.8
		c-0.9,1-0.1,1.6,0.5,2.2C72.7,76.2,73.6,75.3,74,75.7z"/>
	<path class="st7" d="M16.5,53.2c-1.5,10.7-2.3,21.4-1.9,32.2c0,0.7,0.1,1.4-0.6,2c-3.9,0.5-7.8,0.5-11.6,0c0.1-1,0.1-2,0.2-2.9
		c1.4-1,2.9-0.5,4.3-0.6c1.7-0.1,2.9-0.6,2.3-2.7c-0.4-2.5-1-5.1,1-7.3c0.4-0.5,0.4-1.2,0-1.7c-2.5-3-1-6.5-1.1-9.8
		c1.1-0.1,2.2-0.2,3.5-0.3c0-2.9,0-5.7,0-8.3C14.1,52.9,15.4,53.4,16.5,53.2z"/>
	<path class="st7" d="M166.3,87.3c-0.9,0-1.8,0-2.9,0c-0.6-5.8-0.5-11.4-0.2-17.1c0.9-0.1,1.8-0.2,3-0.3c0-3.8,0-7.6,0-11.5
		c2.6-0.7,4.9-0.2,7.2-0.4c1.4-0.1,1.3,0.9,1.4,1.8c-4.4,6.1-6.4,12.9-5.5,20.5c0.2,1.7,0,3.4,0,5.2c0,1.3-0.5,1.9-1.8,1.8
		C167.1,87.1,166.7,86.9,166.3,87.3z"/>
	<path class="st8" d="M156.5,67.2c-1.1-0.9-2.5-0.6-3.8-0.7c0-13.2,0-26.4,0-39.6c0.2-0.1,0.4-0.2,0.6-0.3c2.7,3.6,5.4,7.1,8.1,10.7
		c0,0.1,0,0.3,0,0.4c0.2,1.9-0.6,3.8-0.5,5.7c-1.1,0.9-2.3-0.5-3.8,0.3c0.5,2.5,0.3,5.1-0.4,7.7c0.1,0.8-0.1,1.6,0.1,2.4
		c0,0.3,0,0.5,0,0.8c-0.2,0.9,0,1.8,0.1,2.7C157.5,60.4,158,63.8,156.5,67.2z"/>
	<path class="st10" d="M126.5,84.9c0,0.7-0.4,1.1-1.1,1.1c-3.5,0-7.1,0-10.4,0c-0.9-1.1-0.7-2.2-0.6-3.2c0.3-8.9-0.3-17.8-1.3-26.6
		c-0.1-0.7-0.3-1.4-0.5-2.1c1.1,0.5,2.5-0.4,3.5,0.7c-0.5,2.7-0.4,5.3,0,7.9c1.1,1.1,2.6,0.2,4,0.9c0,6.9,0,14,0,21.2
		C122.7,84.9,124.6,84.9,126.5,84.9z"/>
	<path class="st13" d="M187.6,82.3c0,0.2,0,0.5,0,0.7c-0.2,0.9,0.1,1.8-0.9,2.8c-3.7,0.3-7.6,0.4-11.9-0.1c0-4,0-7.7,0-11.4
		c0.3-0.3,1.1-0.5,0.4-1.2c-0.8-1.4-0.2-2.9-0.5-4.3c1.3,0.3,2.5,1,3.4-0.1c2.4,1,1.4,3.5,2.9,4.6c0.3,0.1,0.5,0.1,0.9,0.2
		c-0.7-0.3-1.3-0.7-1.5-1.4c-0.3-1.1,0-2.2,0.8-3c2.1-1.4,1-3.6,1.3-5.4c0.2-1.2,0.3-2.4,1.7-3c1.4,1.1,0.4,2.6,0.7,4
		c0.2,1.2-0.4,2.4,0.4,3.5c0.1,0.2,0.1,0.4,0,0.5c-0.7,2-0.4,4.1-0.1,6.1c0,0.4,0,0.9,0,1.3c-0.3,2-0.6,4,0.1,6
		C186,83.2,186.8,83.2,187.6,82.3z"/>
	<path class="st14" d="M269,87.9c0.8-0.1,1.6-0.2,2.4-0.4c1-1.7,0.5-3.4,0.4-5.2c-2.5-0.2-0.7,2-2,2.8c0-2.2,0-4.2,0-6.3
		c1.5,0.4,2.5-0.5,2.1-2.2c-0.4-1.7,0-3.5-2-4.8c-1.6-1-0.5-3.2-0.4-5.6c1.6,1.9,1.6,3.5,2,5c0,0.1,0.1,0.1,0.2,0.2
		c0.1-0.2,0.3-0.5,0.4-0.7c1.5-2.5,0.1-5.3,0.9-8.1c0.5-0.9,1.9-0.1,2.9-1.3c0-2.4,0-5.1,0-7.9c3.4-0.6,6.5-0.2,9.6-0.3
		c0,0.9-0.1,1.8-0.1,2.6c-1.7,0.9-3.4,0-5.3,0.9c0,4.7,0,9.5,0,14.4c-2.5,0.7-4.7,0.3-7.2,0.3c0,5.8,0,11.5,0,17.4
		C271.3,88.6,270.1,89.1,269,87.9z"/>
	<path class="st15" d="M55.5,57.4c0,0.4,0,0.8,0,1.1c-0.8,1.9,0.2,3.7,0.3,5.5c0,0.9-0.7,1.7-0.9,2.6c-0.7,0.3-1.4,0.6-2,0.8
		c-0.7,2,1.6,1.2,1.9,2.3c0,1.2,0,2.4,0,3.8c-1.6-0.5-3-2.1-4.6-0.8c-0.6-1.6,0.6-1.7,1.6-1.8c-0.5-1.6-1.4-1.1-2.2-0.8
		c0,4.6,0,9.2,0,13.7c0,1.2,0.1,2.4-0.8,3.4c-0.9-0.8-1-2-1-3.1c-0.1-5.7-0.1-11.4,0-17.1c0-1.1,0.2-2.2,1-3.1
		c0.1-5.9,0.1-11.7,0.2-17.6c0.2-0.2,0.5-0.4,0.8-0.6c2.5-0.6,4.7-0.3,6.2,2c0.3,0.6,0.3,1.2,0.2,1.8c-0.2,0.8-0.7,1.3-1.6,1.6
		c1.7,0.5,1.3,1.5,0.8,2.6C55.5,55.1,54.8,56.3,55.5,57.4z"/>
	<path class="st1" d="M313.6,87.9c-0.9,0-1.8,0.2-2.9-0.4c0-14.3,0-28.6,0-43c0.2,0,0.3,0,0.5,0.1c0.7,0.6,1.8,0.1,2.7,0.9
		c0.1,2.4,0,5,0,7.5c0,10.6,0,21.2,0,31.8C313.9,85.7,314.2,86.9,313.6,87.9z"/>
	<path class="st10" d="M48.8,64c0,7.8,0.1,15.5,0.1,23.3c-1.6,1.4-3.4,0.3-5.5,0.7c0-8.2,0-16.1,0-23.9C45.2,64.1,47,64,48.8,64z"/>
	<path class="st8" d="M85.6,65.3c0,7,0,13.9,0,20.9c-1.7,0.9-3.3,0.4-5.3,0.6c0-7.4,0-14.5,0-21.7C82,65.2,83.8,65.3,85.6,65.3z"/>
	<path class="st7" d="M28.1,71.5c-1.1,1-2.5,0.5-4.3,0.5c-1.3-6.2-2.5-12.5-3.8-18.8c1.8,0,3.6,0,5.6,0c0,3,0,5.7,0,8
		c0.8,1.3,1.7,0.9,2.4,1.1C28.6,65.4,28.5,68.5,28.1,71.5z"/>
	<path class="st16" d="M181.5,69.6c-0.6,1-0.7,2-0.6,3.1c0.4,0.6,0.4,1.1,0,1.7c-2.6-0.8-0.7-4-2.7-5.1c-1.3,0-0.7,2-2,1.9
		c-1.2-0.3-0.4-1.9-1.5-2.3c0-3,0-6.1,0-9.1c1-0.3,0.4-1.6,1.1-2.1c0.9,0.6,1,1.5,1,2.4c0.2-0.7,0.3-1.5,1-2.3
		c2.2,0.5,5-2.1,6.8,1.3c0.3,0.8,0,1.5-0.8,1.9c-0.2,1-0.4,2-0.6,3c-0.2,0.2-0.4,0.3-0.6,0.4c-0.6,0.1-1.2-0.2-1.7-0.1
		c-0.3,0.1-0.5,0.4-0.6,0.7c-0.2,0.6,0.3,0.5,0.6,0.6c1.1,0.6,0.7,1.6,0.7,2.5C181.7,68.7,181.6,69.1,181.5,69.6z"/>
	<path class="st7" d="M215.7,40.3c-1,0-2-0.1-3-0.1c-0.5-3.5-0.6-6.9,0.1-10.4c0.1-0.7-0.7-0.1-0.7-0.6c3-1.3,6.1-0.2,9.2-0.6
		c0,0,0.2,0.2,0.2,0.2c0.3,2.3,0.1,4.6,0.1,6.9c0,0.3,0,0.6-0.1,0.9c-0.2,0.5-0.7,0.9-1.1,1.2c-0.6,0.4-1.2,0-1.7-0.3
		c-0.2-0.1-0.4-0.1-0.6-0.1c-0.3,0-0.6,0.1-0.8,0.4c-0.3,0.8-0.1,1.8-0.8,2.5C216.2,40.5,216,40.5,215.7,40.3z"/>
	<path class="st7" d="M289.2,61.6c0-2.7,0-5.3,0-7.8c-1.3-1.1-2.6-0.6-3.7-0.7c0-4.1,0-8.3,0-12.6c2.2-0.1,4.2-0.7,6.1,0.3
		c-1.5,0.8-3.2-0.1-5,0.6c-0.4,2.2,0,4.6-0.2,7c0.2-2.3-0.1-4.6,0.2-7c1.5-0.6,2.9-0.4,4.7-0.2c0,6.4,0,12.8,0,19.1
		C291.2,62,290.4,62.2,289.2,61.6z"/>
	<path class="st8" d="M108.7,54.2c-0.6,2.3-1.2,4.5-1.8,6.8c-0.1-0.1-0.3-0.3-0.4-0.4c0.1,0.2,0.2,0.3,0.4,0.4
		c-0.3,3.4-1.1,6.7-1.9,9.9c-1.7,0.6-3.2,0.5-4.8-0.1c0-0.2,0-0.4,0-0.6c0.7-1.9-0.1-4,0.4-5.9c0.5-0.7,1.4-0.3,2-0.8
		c1.3-2.8,0-5.8,0.8-8.8C105.1,53.9,107,54.7,108.7,54.2z"/>
	<path class="st8" d="M212,40.2c0,7.2,0,14.4,0,21.5c-1.7,1.1-3.3,0.4-4.9,0.6c-0.9-2.1-0.3-4.1-0.5-6.1c0.9,0,1.8,0,3.2,0
		c0-4.2,0-8.2,0-12.2c0-1.2-0.5-2.4,0.5-3.5c0.7,4.7,0,9.4,0.3,13.4c0.3,1.1,0.9,0.6,0.5,0.8c-0.2,0.1-0.3,0-0.3-0.1
		c-0.4-4.7-0.5-9.4,0-14.1C211.2,40.3,211.6,40.3,212,40.2z"/>
	<path class="st17" d="M298.3,43.9c0.2,0.2,0.4,0.4,0.6,0.6c0.8,3.1,0.7,6.2,0.6,9.4c-0.1,8.7,0.1,17.5,0,26.2
		c0,1.2,0.2,2.5-0.6,3.5c-0.6,0-1.2,0-1.8,0.1c0-19.1,0-38.3,0-57.4c0-0.8-0.4-1.9,0.6-2.5c0.4,0.5,0.3,1.2,0.3,1.8
		c0,18.2,0,36.4,0,54.6c0,0.4,0.2,0.9,0,1.1c0-11.1,0-22.6,0-34C298,46.1,297.7,45,298.3,43.9z"/>
	<path class="st18" d="M67.8,47.6c0,12.2,0,24.4,0,36.5c0,1.1,0.4,2.3-0.6,3.2c0-20.9,0-41.7,0-62.6c0-0.2,0.1-0.4,0.2-0.8
		c4,0,8.2,0,12.6,0c0,7.9,0,15.8,0,23.7c-0.2,0-0.4-0.1-0.6-0.1c-1.4-1.7-1-3.7-1-5.6c0-4.4,0.1-8.7,0-13.1c0-1,0.1-2-0.8-3.1
		c-2.6-0.6-5.4-0.4-8.4,0c-1,5.1-0.3,10.1-0.5,15C68.6,43.1,69.3,45.5,67.8,47.6z"/>
	<path class="st19" d="M49.5,46.3c-0.2,0-0.3,0.1-0.5,0.1c0-7,0-14,0-21.3c4.1,0,8.2,0,12.7,0c0,20.7,0,41.4,0,62.2
		c-1.1-1-0.6-2.3-0.6-3.5c0-18,0-36,0-54c0-1.2,0-2.4,0-3.9c-3.8,0-7.4,0-11.6,0c0,6.4,0,12.8,0,19.3C49.8,45.5,49.8,45.9,49.5,46.3
		z"/>
	<path class="st12" d="M246.4,58c0.4-3.8-0.7-7.8,0.6-11.6c1.5,0.7,3.2-0.1,5.1,0.5c0,3,0.4,6-0.3,9.1c-0.6,0.8-1.1,1.7-1.9,2.3
		c-1.2,0.5-2.3,0.6-3.4-0.2L246.4,58z"/>
	<path class="st20" d="M91.7,55.6c-1.3-2.5-0.4-5.1-0.6-7.7c-0.2-1.9,0-3.8,0-5.7c-1.4-1-2.6-0.8-4.4-0.2c0,7.8,0,15.6,0,23.5
		c-0.4,0-0.7-0.1-1.1-0.1c0-8.2,0-16.4,0-24.7c2.2-0.4,4-0.4,6.1,0C91.7,45.7,91.7,50.6,91.7,55.6z"/>
	<path class="st21" d="M298.3,43.9c0,12.8,0,25.6,0,38.3c-0.2,0-0.4,0-0.6,0c0-19.5,0-39,0-58.5c4.1,0,8.1,0,12.2,0
		c-2.4,1.2-5,0.3-7.4,0.6c-1.2,0.1-2.4,0-4.2,0C298.3,31.1,298.3,37.5,298.3,43.9z"/>
	<path class="st22" d="M297.1,83.7c-0.1,0.9-0.1,1.8-0.2,2.7c-1.7,0.6-3.3,0.3-5.3,0.2c0-5.6-0.1-10.9,0-16.3
		c0.1-2.7-0.5-5.5,0.5-8.1c1.5,0,0.8,1.1,0.8,1.8c0,6.4,0,12.9,0,19.7C294.6,83.7,295.8,83.7,297.1,83.7z"/>
	<path class="st23" d="M112.6,54.2c-1.3,0-2.6,0-3.8,0c0.7-3.9,1.4-7.9,2.1-11.8c0.3,0,0.6,0,0.8,0
		C111.9,46.3,112.3,50.3,112.6,54.2z"/>
	<path class="st24" d="M120.7,10.8c-0.3,0.8,1,1.3,0.7,2.1c-0.7,0.6-1.1-0.3-1.8-0.2c-0.8,0.6,0.1,1.7-0.8,2.6
		c-0.1-1.3-0.1-2.4-0.2-3.8c-1.1,0.1-1.3,1.9-2.6,1.5c-0.5-1.2,1-1.4,1-2.4c-0.4-0.3-0.7-0.5-1.3-1c2-1.5,3.8-3.2,3.1-6.2
		c0.2,2.6,1.4,4.5,3.2,6.2C121.9,10.5,120.9,10.2,120.7,10.8z"/>
	<path class="st25" d="M148,27.5c0.7,0.7,0.5,1.5,0.5,2.3c0,12.2,0,24.4,0,36.6c0,0.5-0.1,0.9-0.5,1.4c0-12.4,0-24.7,0-37
		c-1.1-0.6-1.8,0.7-2.7,0.4C146.2,29.9,147.1,28.7,148,27.5z"/>
	<path class="st26" d="M313.6,87.9c0-14,0-28.1,0-42.1c-0.9-0.5-1.7-0.9-2.5-1.3c0.9,0,1.8,0,3.2,0c0,14.5,0,28.9,0,43.4
		C314.1,87.9,313.8,87.9,313.6,87.9z"/>
	<path class="st27" d="M289.2,61.6c1.1,0,1.7-0.3,1.7-1.5c0-6.1,0-12.1,0-18c-1.5-0.8-2.6-0.7-4-0.2c-0.7,3.2,0,6.6-0.7,9.9
		c0-3.4,0-6.8,0-10.3c1.7-1,3.5-0.3,5.3-0.5c0,6,0.1,11.9,0.1,17.9c0,1.2-0.2,2.4,0.4,3.6C291.2,62.1,290,62.7,289.2,61.6z"/>
	<path class="st28" d="M9.2,62.3c0,1.4,0.9,2.6,0.1,4.2c-0.5,1-0.6,2.6,0.8,3.9c2.4,2.3,2.1,3.7-0.9,5.5c0,1.7,0,3.4,0,5.1
		c-0.9-0.5-0.6-1.4-0.6-2.2c0-4.9,0-9.8,0-14.8C8.6,63.5,8.4,62.8,9.2,62.3z"/>
	<path class="st23" d="M184.6,59.2c-1.9-2.2-4.3-0.2-6.4-0.9c-0.7,0.9,0.1,2.2-1.1,2.9c-1.3-0.8-0.9-2.2-1.2-3.4
		c0.2-0.9,0.4-1.8,1.4-2.1c2.4,0.6,5-0.3,7.4,0.6C184.9,57.3,185.1,58.3,184.6,59.2z"/>
	<path class="st29" d="M20,53.2c-1.2,0-2.3,0-3.5,0c0.3-3.3,0.6-6.6,0.9-10c0.2,0,0.4,0,0.6,0C18.7,46.5,19.4,49.9,20,53.2z"/>
	<path class="st30" d="M251.2,56.2c1.2-2.9,0.3-5.9,0.6-8.4c-1.6-1.6-3.6,0.4-4.8-1.3c1.7,0,3.4,0,5.5,0c0,5.7,0,11.4,0,17.1
		c-0.8-0.2-0.4-2.1-1.9-1.2c-0.5-0.4-0.5-0.9-0.5-1.4c0.1-0.7,0.3-1.5,0.1-2.2c0-0.3,0.1-0.5,0.2-0.7
		C250.6,57.3,250.7,56.6,251.2,56.2z"/>
	<path class="st8" d="M162,66.5c-0.2,0-0.4,0-0.7-0.1c-1.1-1.1-0.8-2.4-0.9-3.7c-0.2-3.1,0.3-6.3-0.2-9.4c-0.1-0.4-0.1-0.7,0-1.1
		c0.3-5,0.6-10,1.1-14.9c0,0,0.1-0.1,0.1-0.1c0.8,1.1,0.4,2.3,0.5,3.5C162,49.3,162,57.9,162,66.5z"/>
	<path class="st31" d="M2.4,87.3c3.9,0,7.8,0,11.6,0c-2.2,1.3-4.6,0.3-6.8,0.6c-1.2,0.1-2.4,0-4,0c-0.3,3.7-0.6,7.1,0.1,10.4
		c0.3,1.4-0.6,1.1-0.9,1.6c-0.3-0.2-0.5-0.3-0.8-0.5c0-0.2,0.1-0.4,0.1-0.6c1.1-3.3,0.4-6.6,0.4-10C2.3,88.4,2.4,87.9,2.4,87.3z"/>
	<path class="st32" d="M237.2,69.6c-0.8-0.6-0.7-1.4-0.7-2.2c0-6.4,0-12.8,0-19.2c0.2-0.3,0.4-0.3,0.6,0
		C237.2,55.3,237.2,62.5,237.2,69.6z"/>
	<path class="st33" d="M184.6,59.2c0-0.8,0-1.6,0-2.3c-2.3-1.6-5,0-7.3-1.3c2.5,0,5,0,8,0c0,4.3,0,8.6,0,12.8
		c-1.2-1.3-0.5-2.8-0.7-4.3c-0.1-1,0.3-2.2-0.6-3.1C184.2,60.4,184.4,59.8,184.6,59.2z"/>
	<path class="st34" d="M234.6,25.6c-1-1.9-2.8-0.9-4.2-1.1c-2.5-0.3-5-0.3-7.4,0.1c-0.8,0.9-0.4,1.9-0.7,2.9
		c-0.8-0.8-0.2-1.8-0.5-2.6c-0.5-1.4,0.5-1.2,1.3-1.2c3.3,0,6.5,0,9.8,0C234.4,23.5,234.9,24.1,234.6,25.6z"/>
	<path class="st35" d="M97.2,70.8c-1.5-3.5-0.3-7.1-0.6-10.7c-0.1-1.4,0.2-2.8-1.8-3.4c0.8,0,1.6,0,2.3,0
		C97.2,61.5,97.2,66.1,97.2,70.8z"/>
	<path class="st36" d="M210.9,40.4c0,4.8,0,9.6,0,14.5c-0.2,0-0.4,0-0.6,0c0-4.8,0-9.6,0-14.4C210.5,40.3,210.7,40.3,210.9,40.4z"/>
	<path class="st18" d="M37.3,42.1c0.2,0.1,0.7,0.3,0.7,0.4c0,4.4-0.1,8.8-0.2,13.2c0,0.3-0.3,0.7-0.5,1C37.3,51.9,37.3,47,37.3,42.1
		z"/>
	<path class="st37" d="M139.3,45.8c-2.7,1.2-5.5,0.3-8.2,0.6c-1.1,0.1-2.2,0-3,0c-1.3,0.6-0.8,1.9-1.6,2.4c0-0.9,0-1.8,0-3
		C130.9,45.8,135.1,45.8,139.3,45.8z"/>
	<path class="st38" d="M212.1,29.3c1,0,2,0,3,0c0,0.1,0,0.2,0,0.4c-0.7,0.2-1.4,0.4-2.4,0.6c0,3.3,0,6.6,0,9.9c-0.2,0-0.5,0-0.7,0
		C212.1,36.6,212.1,32.9,212.1,29.3z"/>
	<path class="st39" d="M191.4,45.6c-0.3,1.1-0.6,2.2-1.1,3.8c-0.1-1.3-0.2-1.9-0.3-2.6c0-1.6,0-3.2,0-5.2
		C191.5,43,191.2,44.4,191.4,45.6z"/>
	<path class="st40" d="M187.7,68.4c0.9,4,0.9,8.1,0,12.1C187.4,76.5,187.4,72.5,187.7,68.4z"/>
	<path class="st32" d="M237.2,48.2c-0.2,0-0.4,0-0.6,0c0.1-3.7-0.5-7.3,0.5-11C237.5,40.9,237.2,44.6,237.2,48.2z"/>
	<path class="st41" d="M116.1,62.9c-1.2-1.4-0.4-3.1-0.6-4.7c-0.1-1.1,0.3-2.4-1.2-3.2c0.6,0,1.2-0.1,1.7-0.1
		C116.1,57.6,116.1,60.2,116.1,62.9z"/>
	<path class="st42" d="M28.1,71.5c0-3.1,0-6.1,0-9.2c1.5,2.9,0.5,6.1,0.6,9.1C28.5,71.5,28.3,71.5,28.1,71.5z"/>
	<path class="st40" d="M102.6,63.5c-1.4,0.7-2,1.6-1.9,3.3c0.1,1.1,0.5,2.4-0.5,3.4c0-2.1,0-4.2,0-6.3
		C101,63.2,101.9,63.6,102.6,63.5z"/>
	<path class="st43" d="M185.3,82.3c0,0.1,0,0.2-0.1,0.3c-0.1,0.3-0.5,0.5-0.5,0.2c0.1-2.2-0.7-4.4,0.5-6.5
		C185.2,78.4,185.2,80.3,185.3,82.3z"/>
	<path class="st41" d="M185.1,75.1c-0.7-2.1-0.9-4.1,0.1-6.1C185.3,71,185.5,73,185.1,75.1z"/>
	<path class="st11" d="M177.9,30.5c0.1-1-0.8-1.6-1.3-2.7c1.1,0.3,1.5,0.9,1.9,1.5C178.5,29.7,178.4,30.2,177.9,30.5z"/>
	<path class="st44" d="M228.6,99.6c0-0.2,0-0.4,0-0.7c33.9,0,67.8,0,101.6,0c1.2,0,2.5-0.4,3.5,0.5c-0.8,0.1-1.6,0.2-2.4,0.2
		c-33.7,0-67.5,0-101.2,0C229.6,99.7,229.1,99.6,228.6,99.6z"/>
	<path class="st45" d="M338,99.6c1-1,2.3-0.6,3.5-0.6c16.2,0,32.3,0,48.5,0c0.2-0.2,0.5-0.2,0.7-0.1c0.2,0.3,0.1,0.5-0.1,0.7
		c-7.2,0.1-14.4,0.2-21.6,0.2C358.7,99.7,348.4,99.6,338,99.6z"/>
	<path class="st2" d="M390.6,99.5c0-0.2,0-0.4,0-0.6c-0.1-1.7-1.2-3.4,0.6-4.9c0,1.8,0,3.6,0,5.4c0,0-0.3,0.1-0.3,0.1L390.6,99.5z"
		/>
	<path class="st46" d="M391.2,94.1c-1.1,1.5-0.3,3.3-0.6,4.9c-0.2,0-0.4,0-0.6-0.1c-0.5-2.4,1.2-5.2-1.2-7.3
		c-0.7-0.8-0.6-1.7-0.6-2.6c0-14.2,0-28.4,0-42.6c0-0.5,0-1,0.2-1.5c0.1-0.2,0.2-0.3,0.4-0.5c0.4,0,0.8,0.1,1.2,0.1
		c1.2,1.3,0.9,2.9,0.9,4.4c0,13.3,0,26.7,0,40c0,1.1-0.3,2.2,0.3,3.3C391.2,92.8,391.2,93.5,391.2,94.1z"/>
	<path class="st47" d="M391.2,35.4c-0.1-0.7-0.2-1.3-0.4-2.3c1.1,0.4,1,1.1,1,1.7c0,18.3,0,36.5,0,54.8c0,0.7,0,1.4-0.6,1.9
		c-1.3-0.1-0.8-1-0.7-1.7c0.2-13.7,0-27.5,0.2-41.2C390.7,44.3,390.7,39.8,391.2,35.4z"/>
	<path class="st48" d="M394.4,90.9c0-19.3,0-38.5,0-57.8c0.1,0,0.2,0,0.2,0c0,19.3,0,38.5,0,57.8C394.6,90.9,394.5,90.9,394.4,90.9z
		"/>
	<path class="st49" d="M391.2,35.4c0,17.3,0,34.6,0,51.8c0,1.1,0.4,2.3-0.6,3.2c-0.5-0.6-0.3-1.4-0.3-2.1c0-13.9,0-27.8,0-41.7
		c0-0.7-0.1-1.4,0.3-2.1C391,41.5,389.9,38.4,391.2,35.4z"/>
	<path class="st50" d="M390.6,44.5c0,15.3,0,30.6,0,45.9c0,0.5,0.1,0.9,0.6,1.2c0,0.2,0,0.4,0,0.6c-2-0.5-1.2-2.1-1.2-3.3
		c-0.1-14.8,0-29.6,0-44.4C390.2,44.5,390.4,44.5,390.6,44.5z"/>
	<path class="st51" d="M387.5,43.9c0-3.7,0-7.3,0-11c0.4,0,0.8,0,1.2,0c0,3.8,0,7.7,0,11.5c0,0,0,0.1,0,0.1c-0.4,0.4-0.8,0.4-1.2,0
		l0-0.1c-0.2-0.1-0.3-0.2-0.3-0.3C387.4,44,387.5,43.9,387.5,43.9z"/>
	<path class="st52" d="M387.5,43.9c0,0.2,0,0.4,0,0.5c-0.8,0-1.7,0-2.5,0c0-5.2,0-10.5,0-15.7c0.2,0,0.4,0,0.6,0c0,4.3,0,8.5,0,12.8
		C385.7,42.9,385.7,44.1,387.5,43.9z"/>
	<path class="st53" d="M250.6,60.5c0,0.6,0,1.2,0,1.8c0,1.4,0,2.9,0,4.3c0,0.5-0.1,1,0,1.5c0,1.2,0,2.3,0,3.5
		c0.2,0.6-0.1,1.2-0.1,1.8c0,2,0,4,0,6c-0.1,0.6,0.3,1.2,0.1,1.8c0,0.6-0.1,1.3-0.1,1.9c-1-0.5-1.8-1.7-3.2-1.5
		c-1.1,2,0.5,4.5-1.1,6.4c0-9.8,0.1-19.5,0.1-29.3c1.3-0.1,2.6-0.5,3.9,0.2C250.6,59.3,250.6,59.9,250.6,60.5z"/>
	<path class="st54" d="M387.6,44.5c0.4,0,0.8,0,1.2,0c0,15.7,0,31.4,0,47.1c-1.9-0.4-1.2-1.9-1.2-3
		C387.5,73.9,387.6,59.2,387.6,44.5z"/>
	<path class="st55" d="M366.7,81.8c0.1-6.5,0.1-12.9,0.2-19.4c2.1-0.4,1.7,1.2,1.7,2.3c0,6.1,0,12.2,0,18.3
		C368,82.6,367.3,82.2,366.7,81.8z"/>
	<path class="st56" d="M298.9,83.7c0-13,0-26.1,0-39.1c0.2,0,0.4,0,0.6,0c0,0.8,0.1,1.7,0.1,2.5c0.4,4.1,0.5,8.1,0,12.2
		c0,0.2,0,0.4,0,0.6c0.5,7.9,0.5,15.9,0,23.8l-0.3,0L298.9,83.7z"/>
	<path class="st57" d="M299.5,83.7c0-7.9,0-15.9,0-23.8c0.2,0.2,0.4,0.4,0.6,0.7c0,0.1,0,0.3,0,0.4c0,0.5,0,1,0,1.4
		c0.3,0.3,0.3,0.7,0,1c0,0.5,0,1,0,1.4c0.2,0.1,0.2,0.2,0.2,0.3c-0.1,0.1-0.1,0.1-0.2,0.1c0,0.7,0,1.3,0,2c0,0.1,0,0.3,0,0.4
		c0,0.7,0,1.3,0,2c0,0.1,0,0.3,0,0.4c0,0.5,0,1,0,1.4c0.3,0.3,0.3,0.7,0,1c0,0.5,0,1,0,1.4c0,0.1,0,0.3,0,0.4c0,0.7,0,1.3,0,2
		c0,0.1,0,0.3,0,0.4c0,0.7,0,1.3,0,2c0,0.1,0,0.3,0,0.4c0,0.5,0,1,0,1.4c0.3,0.3,0.3,0.7,0,1c0,0.5,0,1,0,1.4
		c0.2,0.1,0.2,0.2,0.2,0.3c-0.1,0.1-0.1,0.2-0.2,0.2C300,83.7,299.7,83.7,299.5,83.7z"/>
	<path class="st58" d="M352.8,64.8c0.8,3.5,0.9,6.9-0.2,10.5c-2.1-0.7-2-2-1.8-3c0.4-2.3-1.1-4.8,0.7-7c1,1.4,0.3,3.1,0.5,4.4
		C352.4,68.2,351.4,66.3,352.8,64.8z"/>
	<path class="st59" d="M354.2,74.1c0-3,0-6,0-8.9c0.2,0,0.4,0,0.6,0c0,3,0,6,0,8.9C354.7,74.1,354.5,74.1,354.2,74.1z"/>
	<path class="st60" d="M356.3,65.7c0.7,2.8,0.8,5.6,0.1,8.4C355.5,71.3,355.8,68.5,356.3,65.7z"/>
	<path class="st61" d="M352.8,64.8c0,2.9,0,5.8,0,8.7c-0.3,0-0.7,0-1,0c-0.6-2.7-0.2-5.4-0.2-8.2C352,65.1,352.4,64.9,352.8,64.8z"
		/>
	<path class="st62" d="M300.2,72.6c0-0.3,0-0.7,0-1c2.5,0,5-0.4,7.5,0.5C305.2,73,302.7,72.6,300.2,72.6z"/>
	<path class="st63" d="M300.2,63.4c0-0.3,0-0.7,0-1c2.5-0.1,5-0.3,7.5,0.4C305.2,63.8,302.7,63.4,300.2,63.4z"/>
	<path class="st64" d="M300.2,81.7c0-0.3,0-0.7,0-1c2.5-0.1,5-0.3,7.5,0.4C305.2,82.1,302.7,81.8,300.2,81.7z"/>
	<path class="st65" d="M300.2,53.2c2.5,0,5,0,7.5,0c0,0.3,0,0.5,0,0.8c-2.5,0.7-5,0.3-7.5,0.3C299.8,53.9,299.8,53.5,300.2,53.2z"/>
	<path class="st66" d="M300.2,55.6c2.5-0.1,5-0.3,7.5,0.5c-2.5,0.7-5,1.1-7.5,0c-0.2-0.1-0.2-0.2-0.2-0.3
		C300.1,55.7,300.1,55.6,300.2,55.6z"/>
	<path class="st67" d="M300.2,60.9c0-0.1,0-0.3,0-0.4c2.5-1.1,5-0.6,7.5-0.1C305.2,61.4,302.7,61,300.2,60.9z"/>
	<path class="st66" d="M300.7,88.1c2.3-1.1,4.6-0.8,7-0.2C305.4,88.9,303.1,88.5,300.7,88.1z"/>
	<path class="st68" d="M300.2,83.7c0-0.2,0-0.3,0-0.5c2.5,0,5,0,7.5,0c0,0.3,0,0.5,0,0.8C305.2,84.3,302.7,84.6,300.2,83.7z"/>
	<path class="st69" d="M300.2,65.3c0-0.1,0-0.3,0-0.4c2.5-0.2,5-0.3,7.5,0.4C305.2,66,302.7,66.3,300.2,65.3z"/>
	<path class="st70" d="M300.2,51.4c2.5-1.2,5-0.6,7.5-0.2c-2.4,1.1-5,0.7-7.5,0.6c-0.2-0.1-0.3-0.2-0.2-0.3
		C300.1,51.4,300.1,51.4,300.2,51.4z"/>
	<path class="st71" d="M300.2,79.3c0-0.1,0-0.3,0-0.4c2.5-1.1,5-0.6,7.5-0.1C305.2,79.7,302.7,79.3,300.2,79.3z"/>
	<path class="st72" d="M300.2,70.1c0-0.1,0-0.3,0-0.4c2.5-1.2,5-0.5,7.5-0.2C305.2,70.6,302.7,70.2,300.2,70.1z"/>
	<path class="st73" d="M300.2,74.4c0-0.1,0-0.3,0-0.4c2.5-0.1,5-0.3,7.5,0.4C305.2,75.1,302.7,75.5,300.2,74.4z"/>
	<path class="st74" d="M369.8,69c0.3-0.6,0.3-1.2,0-1.9c1.5-0.5,3.1-0.2,4.7-0.2c0.3,0.2,0.4,0.5,0.3,0.9c0,0.2,0,0.3,0.1,0.5
		c-0.1,0.1-0.2,0.3-0.3,0.4C373.1,69.6,371.5,69.4,369.8,69z"/>
	<path class="st75" d="M374.7,57.4c0-0.2,0-0.4,0.1-0.7c0.8,0.3,1.7,0.6,2.5,1c0.1,1.3-1.3,0.4-1.7,1c0.2,1,1.7,0.1,1.8,1.4
		c-0.9,0.3-1.8,0.7-2.7,1c0-0.2,0-0.5-0.1-0.7c-0.2-0.2-0.4-0.4-0.5-0.7c-0.2-0.6-0.2-1.1,0-1.7C374.3,57.8,374.5,57.6,374.7,57.4z"
		/>
	<path class="st76" d="M300.2,51.4c0,0.1,0,0.3,0,0.4c0,0.5,0,1,0,1.4c0,0.3,0,0.7,0,1c0,0.5,0,0.9,0,1.4c0,0.2,0,0.3,0,0.5
		c0,0.7,0,1.3,0,2c0,0.1,0,0.3,0,0.4c-0.2,0.2-0.4,0.5-0.6,0.7c0-4.1,0-8.1,0-12.2c0.7,0.5,0.5,1.2,0.6,1.9c0,0.1,0,0.3,0,0.4
		C300.2,50,300.2,50.7,300.2,51.4z"/>
	<path class="st77" d="M300.2,67.7c0-0.1,0-0.3,0-0.4c2.4,0,4.8,0,7.2,0c0,0.1,0,0.3,0,0.4C305,67.7,302.6,67.7,300.2,67.7z"/>
	<path class="st77" d="M300.2,58.5c0-0.1,0-0.3,0-0.4c2.4,0,4.8,0,7.2,0c0,0.1,0,0.3,0,0.4C305,58.5,302.6,58.5,300.2,58.5z"/>
	<path class="st77" d="M300.8,85.8c2.2-0.5,4.5-0.5,6.7,0C305.3,86.3,303,86.2,300.8,85.8z"/>
	<path class="st77" d="M300.2,76.8c0-0.1,0-0.3,0-0.4c2.4,0,4.8,0,7.2,0c0,0.1,0,0.3,0,0.4C305,76.8,302.6,76.8,300.2,76.8z"/>
	<path class="st78" d="M300.2,49.3c0-0.1,0-0.3,0-0.4c2.4,0,4.8,0,7.2,0c0,0.1,0,0.3,0,0.4C305,49.3,302.6,49.3,300.2,49.3z"/>
	<path class="st79" d="M275.5,84.4c-0.8-1.3-0.8-1.3-0.3-2.6C276.7,82.6,276.3,83.4,275.5,84.4z"/>
	<path class="st80" d="M278.6,81.9c1.1,0.7,0.8,1.5,0.4,2.2c-1,0.2-1.4-0.2-1.4-1C277.6,82.6,277.7,82.1,278.6,81.9z"/>
	<path class="st81" d="M374.7,73.3c0-0.2,0-0.5,0-0.7c0.9,0.4,1.8,0.7,2.8,1.1c-0.6,1.3-1.8,0.5-2.7,0.9c0,0-0.2-0.1-0.2-0.1
		C374.3,74.1,374.4,73.7,374.7,73.3z"/>
	<path class="st62" d="M374.8,54.3c0.9,0.3,1.8,0.7,2.8,1c-0.6,1.3-1.8,0.6-2.7,0.9c0,0-0.2-0.1-0.2-0.1c-0.5-0.6-0.4-1.1-0.1-1.7
		L374.8,54.3z"/>
	<path class="st82" d="M278.4,79.6c-1-1.2-0.9-1.8,0.3-2.4C279.6,78,279.6,78.7,278.4,79.6z"/>
	<path class="st83" d="M374.8,70.3c0-0.2,0-0.4-0.1-0.7c-0.4-0.4-0.3-0.8-0.1-1.2c0,0,0.3-0.1,0.3-0.1c0.8,0.2,1.8-0.2,2.7,0.6
		C376.9,70,375.5,69.4,374.8,70.3z"/>
	<path class="st84" d="M288.4,77c1.4,0.8,1.6,1.5,0.5,2.4C287.6,78.9,287.8,78.1,288.4,77z"/>
	<path class="st85" d="M374.9,70.7c0.9,0.1,1.7,0.2,2.9,0.4c-0.9,1.3-2,0.7-2.9,1c0,0-0.2-0.1-0.2-0.1c-0.3-0.4-0.3-0.8,0-1.2
		L374.9,70.7z"/>
	<path class="st86" d="M374.9,61.6c0.8,0.3,1.8-0.2,2.7,0.7c-0.7,1.1-1.8,0.4-2.7,0.7c0,0-0.2-0.1-0.2-0.1c-0.3-0.4-0.3-0.8,0-1.2
		L374.9,61.6z"/>
	<path class="st81" d="M374.9,64c0.8,0.3,1.8-0.2,2.6,0.7c-0.7,1.1-1.8,0.4-2.7,0.8c0,0-0.2-0.1-0.2-0.1c-0.3-0.4-0.3-0.8,0-1.2
		L374.9,64z"/>
	<path class="st87" d="M285.4,78.3c-0.1,0.6-0.3,1-0.9,0.9c-0.5-0.1-0.7-0.4-0.7-0.8c0-0.6,0.3-0.9,0.9-0.9
		C285.3,77.6,285.3,78,285.4,78.3z"/>
	<path class="st88" d="M286.5,70.8c0.4,0.1,0.7,0.3,0.8,0.7c0.1,0.6-0.2,1-0.8,1c-0.4,0-0.7-0.2-0.8-0.7
		C285.6,71.3,285.9,70.9,286.5,70.8z"/>
	<path class="st83" d="M374.8,67.8c0-0.2-0.1-0.4-0.1-0.7c-0.4-0.2-0.4-0.4,0-0.6c0-0.2,0-0.4,0.1-0.7c0.9,0.3,1.7,0.7,2.7,1
		C376.7,67.9,375.4,66.9,374.8,67.8z"/>
	<path class="st89" d="M288.4,70.8c1.1,0.7,0.7,1.2,0.3,1.8C287.8,72.1,287.7,71.6,288.4,70.8z"/>
	<path class="st90" d="M283.6,70.8c0.7,0.7,0.8,1.2,0.2,1.8C282.6,72.2,282.9,71.6,283.6,70.8z"/>
	<path class="st91" d="M342.3,86.9c0.6,0.5,0.7,0.9,0.3,1.3c-0.1,0.1-0.4,0.1-0.5,0C341.6,87.8,341.8,87.4,342.3,86.9z"/>
	<path class="st7" d="M341.8,79.3c1.8,0.7,0.8,1.4,0,2c0,0-0.2-0.2-0.2-0.2c-0.4-0.6-0.5-1.1,0-1.7L341.8,79.3z"/>
	<path class="st7" d="M67.8,47.6c0-7.6,0-15.2,0-23c4,0,7.6,0,11.6,0c0,7.7,0,15.3,0,22.9c-1.6,0-3.2,0-4.9,0.1
		c-0.1-0.5-0.2-1-0.9-0.7c-0.9,0.3-1,1.1-1,1.9c-0.6,0.5-1.2,0.6-1.8,0c0.2-0.4,0.4-0.8,0.6-1.2C70.8,46.8,70,46.3,69,47
		C68.6,47.2,68.2,47.4,67.8,47.6z"/>
	<path class="st92" d="M148.5,93.4c0,1.9,0,3.8,0,5.9c-23.3,0-46.1,0-69,0c0-0.1,0-0.2,0-0.4c22.6,0,45.2,0,67.7,0
		c1-1.6,0.5-3,0.5-4.3c-1.6-1.1-3.2-0.3-4.6-1.3C145,93.4,146.8,93.4,148.5,93.4C148.6,93.4,148.5,93.4,148.5,93.4z"/>
	<path class="st93" d="M55,66.6c-1.7-1.2,0.2-1.7,0.5-2.5c-0.1-1.1-0.6-2.2,0.6-3c1,1.2,2.2,1.3,3.4,0.2c1,1.6,0.2,2.6-0.8,3.5
		c-0.6,0.6-0.6,1.2,0,1.8c0,0.2,0,0.4,0,0.6c0,0.9,0.7,1.3,1.2,1.9c-0.4,2.1,0.4,4.7-2,6.1c-1.5-0.2-0.1-2.4-1.8-2.4
		C55.1,70.8,56.2,68.5,55,66.6z"/>
	<path class="st92" d="M75.1,99.6c-23.2,0-46.4,0-70.2,0C6.6,98.7,7.7,99,8.8,99c17.2,0,34.4,0,51.6,0c4,0,7.9,0,11.9,0
		C73.3,99,74.3,98.6,75.1,99.6C75.1,99.5,75.1,99.6,75.1,99.6z"/>
	<path class="st94" d="M72.7,75.7c-1-0.2-2-0.4-2.3-1.5c-0.4-1.5,1.2-1.6,1.9-2.4c0-0.9,0-1.7-0.3-2.2c-1.1-1.2-3,0.8-3.4-1.5
		c0.3-0.9,1.8-0.4,1.8-1.6c0.6-0.5,0.6-1.1,0.1-1.7c-0.3-0.3-0.5-0.5-1-1.1c1.5-0.4,2.9-0.6,3.4-2c0.3-0.2,0.5-0.2,0.7,0.1
		c0.9,2.6,1.1,5.1,0.2,7.8c-0.5,1.4-0.2,3.2-0.2,4.8C73.8,75.1,73.2,75.4,72.7,75.7z"/>
	<path class="st95" d="M141.8,47c0.9,0.9,0.6,2.1,0.6,3.2c0,13.7,0,27.4,0,40.8c1.6,2.3,4,0.3,5.5,1.8c-2,0-4.1,0-6.1,0
		c-0.3-0.5-0.3-1-0.3-1.5c0.2-13.7-0.5-27.5-0.3-41.2C141.2,49.1,140.9,47.9,141.8,47z"/>
	<path class="st96" d="M141.8,47c0,15.3,0,30.6-0.1,45.8c-1-0.9-0.6-2.1-0.6-3.2c0-6.3,0-12.6,0-18.8c-0.7-7-0.1-13.9-0.3-20.9
		c0-1.4-0.3-2.8,0.3-4.2C141.7,46,141.8,46.5,141.8,47z"/>
	<path class="st97" d="M127.1,58.6c2.6,0,5.3,0,7.9,0c0,0.5,0,1,0,1.8c-2.2-1.9-4.6-1.1-7.1-1c0,9,0,17.8,0,26.7c-0.3,0-0.6,0-0.8,0
		C127.1,76.9,127.1,67.8,127.1,58.6z"/>
	<path class="st98" d="M141.2,45.7c0,8.4,0,16.7,0,25.1c-1-0.9-0.6-2.1-0.6-3.2c0-6,0-12,0-18c0-1.1,0.4-2.3-0.5-3.2
		c0-0.2,0-0.4,0-0.5C140.4,45.8,140.8,45.8,141.2,45.7z"/>
	<path class="st97" d="M134.9,62.4c0,2.2,0,4.3,0,6.5c-0.1,0-0.2,0-0.3,0c0-2.1,0-4.3,0-6.4C134.7,62.5,134.8,62.4,134.9,62.4z"/>
	<path class="st99" d="M111.5,60.9c-1.1-0.8-0.9-1.5-0.3-2.3C112.3,59.2,112,60,111.5,60.9z"/>
	<path class="st100" d="M109.1,58.6c0.5,0.9,0.7,1.5-0.1,2.2C108,60,108.1,59.3,109.1,58.6z"/>
	<path class="st101" d="M74,56.9c-0.5-0.1-0.9-0.3-1.3-0.4c-0.3-0.9,0.4-0.8,0.7-1C74.3,55.6,75,55.9,74,56.9z"/>
	<path class="st102" d="M109.5,62.7c0.5,0.8,0.7,1.4-0.1,1.9C108.4,64,108.5,63.4,109.5,62.7z"/>
	<path class="st103" d="M73.4,61.8c-0.2,0-0.5-0.1-0.7-0.1c0-0.9,0.6-1.2,1.3-1.3C75,61.3,74.2,61.5,73.4,61.8z"/>
	<path class="st104" d="M72.7,75.7c0.2-0.5,0.4-0.9,0.7-1.4c0.7,0.2,1.8,0.4,0.6,1.4C73.6,75.7,73.1,76.3,72.7,75.7z"/>
	<path class="st105" d="M111.5,62.8c1,0.7,0.9,1.2,0.4,1.9C110.8,64.3,111.1,63.6,111.5,62.8z"/>
	<path class="st106" d="M156.5,67.2c0-3.5,0-6.9,0-10.4c0.5-0.8,0.3-1.7,0-2.5c0-0.2,0-0.4,0-0.6c1.6-1.5,2.3-1.5,4.4,0
		c0.5,4-0.7,8,0.1,11.8c-0.4,1.2-1.6,0.4-2.1,1.2C158.5,68.7,157.3,66.9,156.5,67.2z"/>
	<path class="st107" d="M221.2,36.6c0.1-2.6,0.1-5.2,0.2-7.8c0.2-0.1,0.3-0.1,0.5-0.1c0,2.6,0,5.2-0.1,7.9c0.6,1.1,0.3,2.2,0.3,3.3
		c0,14,0,28,0,42c0,1.2-0.1,2.4,0.3,3.6c-0.4,0.4-0.8,0.8-1.2,1.3c-0.1-0.1-0.3-0.3-0.4-0.4c-0.3-0.5-0.4-1.1-0.4-1.7
		c-0.1-14.6,0-29.3,0-43.9C220.4,39.3,220.4,37.9,221.2,36.6z"/>
	<path class="st108" d="M222.5,85.5c-1.1-1-0.6-2.3-0.6-3.5c0-15.2,0-30.3,0-45.5c0.9,0.7,0.6,1.6,0.6,2.5
		C222.5,54.6,222.5,70,222.5,85.5z"/>
	<path class="st109" d="M215.7,40.3c0.2,0,0.4,0,0.6,0c1.2,1,0.9,2.4,0.9,3.7c0,13.5,0.1,27.1,0,40.6c0,0.6-0.1,1.2-0.4,1.7
		c-0.1,0.1-0.3,0.3-0.4,0.4c-0.2-0.2-0.4-0.4-0.6-0.7c-0.4-0.6-0.3-1.4-0.3-2.1c0-13.7,0-27.4,0-41.1c0-0.7-0.1-1.4,0.3-2.1
		C215.8,40.7,215.8,40.5,215.7,40.3z"/>
	<path class="st110" d="M215.8,40.9c0,15.1,0,30.1,0,45.2c-0.8-0.7-0.6-1.7-0.6-2.6c0-13.4,0-26.7,0-40.1
		C215.2,42.6,214.9,41.6,215.8,40.9z"/>
	<path class="st111" d="M158.9,66.6c0.5-0.4,1.1-0.8,1.6-1.2c-0.2-0.6-1.2-0.4-1.1-1.5c1.3-0.9,2.4-2.2-0.5-3.4c2-2,1.9-4.4,1.8-6.8
		c-0.2-0.2-0.2-0.3-0.2-0.4c0.1-0.1,0.2-0.2,0.2-0.2c1.2,4.4,0.2,8.9,0.6,13.3C160.6,66.5,159.7,66.6,158.9,66.6z"/>
	<path class="st112" d="M166.3,87.3c0-0.6,0.2-1.2,1-1.5c0.1,0.6,0.1,1.1,0.2,1.6c0,1,0,2,0,3c-0.6,0.5-0.7,1.8-1.9,1.2
		C164.8,90,167.2,88.9,166.3,87.3z"/>
	<path class="st113" d="M165.6,91.5c0.6-0.4,1.3-0.8,1.9-1.2c0.2,0.7,0.4,1.3,0.6,2c-0.9,1.2-1.7,1.2-2.6,0
		c-0.3-0.1-0.5-0.2-0.8-0.4C165.1,91.8,165.3,91.7,165.6,91.5z"/>
	<path class="st114" d="M165.6,92.3c0.8,0.6,1.7,0.6,2.6,0c0.7,1.2-1.2,1.8-0.7,2.9c-0.4,0.4-0.7,0.4-1.1,0
		C166.8,94,164.9,93.5,165.6,92.3z"/>
	<path class="st109" d="M221.3,86.8c-1.6,0.8-3.3,0.8-4.9,0c0,0,0.1-0.1,0.1-0.1c1.6-1.1,3.2-1.1,4.8,0L221.3,86.8z"/>
	<path class="st115" d="M166.3,95.2c0.4,0,0.7,0,1.1,0c-0.1,0.7,0.4,1.6-0.6,2.2C165.9,96.8,166.4,96,166.3,95.2z"/>
	<path class="st116" d="M175.2,73.3c0.6,0.1,1.4-0.3,1.7,0.6c-0.5,0.9-1.4,0.4-2.1,0.6C175,74.1,175.1,73.7,175.2,73.3z"/>
	<path class="st11" d="M196.7,19.7c-1.2-0.9-1.6-2-2.2-3.1c-2.4,0.1-4-0.7-3-3.4c-1.2-0.6-2,0.6-3-0.2c-0.3-1.3-0.7-2.7-1.1-4.1
		c3.7-0.7,5.9,2.5,9.2,3c0.9,0.1,1.2,1.6,0.8,2.3C196.3,15.9,197,17.7,196.7,19.7z"/>
	<path class="st117" d="M202.4,21.4c-0.6-2.5,0-5.1-1.8-7.3C203.5,14.9,204.2,18,202.4,21.4z"/>
	<path class="st118" d="M250.6,68c-0.7-0.5-0.6-1,0-1.5C251.5,67,251.2,67.5,250.6,68z"/>
	<path class="st119" d="M250.7,81.2c-0.5-0.6-0.9-1.2-0.1-1.8C251.5,79.9,251.5,80.5,250.7,81.2z"/>
	<path class="st120" d="M250.6,73.3c-0.8-0.6-0.5-1.2,0.1-1.8C251.5,72.1,251.5,72.7,250.6,73.3z"/>
	<path class="st121" d="M201.3,64.4c0.4,0.7,0.7,1.4-0.1,2c-0.2-0.1-0.5-0.1-0.5-0.3C200.4,65.4,200.2,64.6,201.3,64.4z"/>
	<path class="st122" d="M199.3,64.3c0.6,0.7,0.6,1.4,0,2.1C198.4,65.7,198.3,65,199.3,64.3z"/>
	<path class="st123" d="M198.9,60.1c1,0.7,1,1.3,0.3,2.1C198.4,61.7,198.5,61,198.9,60.1z"/>
	<path class="st124" d="M201.2,61.8c-0.8-0.8-0.8-1.3-0.2-1.9C202,60.3,201.7,60.9,201.2,61.8z"/>
	<path class="st125" d="M374.7,58c0,0.6,0,1.2,0,1.8c-1.6,0.5-3.2,0.5-4.9,0c0.3-0.6,0.3-1.3,0-1.9C371.5,57.5,373.1,57.5,374.7,58z
		"/>
	<path class="st116" d="M374.6,54.4c0,0.6,0.1,1.2,0.1,1.7c-1.5-0.1-3.1,0.3-5-0.5C371.5,54.5,373.3,55.4,374.6,54.4z"/>
	<path class="st126" d="M374.7,73.3c0,0.4,0,0.8-0.1,1.2c-1.5-0.1-3,0.3-5-0.6C371.7,73,373.2,73.4,374.7,73.3z"/>
	<path class="st127" d="M374.7,61.7c0,0.4,0,0.8,0,1.2c-1.5,0-3,0-4.5,0c0-0.3,0-0.6,0-0.9C371.6,61.3,373.2,61.8,374.7,61.7z"/>
	<path class="st128" d="M374.7,64.1c0,0.4,0,0.8,0,1.2c-1.5-0.1-3,0.2-5.2-0.5C371.6,63.8,373.2,64.2,374.7,64.1z"/>
	<path class="st129" d="M374.7,70.8c0,0.4,0,0.8,0,1.2c-1.5-0.1-3,0.3-5.1-0.6C371.6,70.5,373.2,70.9,374.7,70.8z"/>
	<path class="st130" d="M374.6,68.4c0,0.4,0.1,0.8,0.1,1.2c-1.6-0.3-3.4,0.6-4.9-0.6C371.4,68.9,373.1,69.3,374.6,68.4z"/>
	<path class="st131" d="M369.9,59.8c1.6,0,3.2,0,4.9,0c0,0.2,0,0.4,0,0.6C373.1,60.2,371.4,61,369.9,59.8z"/>
	<path class="st132" d="M374.7,66.5c0,0.2,0,0.4,0,0.6c-1.6,0-3.3,0-4.9,0C371.3,65.9,373.1,66.8,374.7,66.5z"/>
	<path class="st133" d="M374.7,58c-1.6,0-3.2,0-4.9,0c1.5-1.2,3.3-0.3,4.9-0.6C374.7,57.6,374.7,57.8,374.7,58z"/>
	<path class="st134" d="M250.1,59.3c-1.2-0.2-2.4-0.4-3.7-0.6c0-0.2,0-0.4,0.1-0.5c1.2-0.1,2.4-0.2,3.7-0.3l0.3-0.1l0.2,0.2
		c0,0.2,0,0.4,0,0.7C250.8,59.2,250.5,59.3,250.1,59.3z"/>
	<path class="st135" d="M341.7,79.4c0,0.6,0,1.1,0,1.7c-1.2-0.9-2.7,0.4-4-0.7C338.8,78.8,340.4,79.6,341.7,79.4z"/>
	<path class="st136" d="M49.5,46.3c0-0.4,0-0.8,0-1.2c1.9-1.1,3.1-2.4,1.4-4.5c-0.8-1-0.2-2.1-0.5-3.2c1-0.8,2.3-0.8,2.9-1.8
		c0.6-1.5-3.7-1.4-0.9-3.4c0.7,0.3,1.6,0.1,2.2,0.7c0.4,0.4,0.8,1.1,1.5,0.4c1-1.1,2.5-1.1,3.8-1.7c1.4,1.6,0.2,3.3,0,4.9
		c-0.1,1.7-0.2,3.4-0.3,5c-1.1,0.3-1.4-1.2-2.5-0.9c-0.4,0.6-0.8,1.3-0.5,2.3c0.9,0.1,1.9,0.3,2.8,0.4c2.3,4.9,0.5,9.7,0.1,14.7
		c-1.5-0.1-2.2-2.1-3.9-2.1c-0.5-0.7-0.3-1.8-1.3-2.4c0.1-0.6,1.1-0.6,1-1.3c-0.6-1.4-2.2,0.7-2.8-1c0.7-1.2,2.5-0.1,3.1-1.4
		c0.6-0.6,0.6-1.2,0-1.8C54,46.2,51.8,46.3,49.5,46.3z"/>
	<path class="st137" d="M59.9,31.7c-0.5,2.2-3.8,1-3.8,3.5c-1.7-0.2-1.6-1.3-1.7-2.3c-0.2-0.4-0.9-0.5-0.6-1.2
		c1.3-2.5,1.5-2.6,5.7-2.3C60.4,30.1,59.2,31.1,59.9,31.7z"/>
	<path class="st138" d="M56.1,61.1c-0.2,1-0.4,2-0.6,3c-1.3-1.9-1.1-3.7,0-5.5C55.7,59.4,55.3,60.4,56.1,61.1z"/>
	<path class="st138" d="M54.3,53.8c1.3,0.3,1.3,1.3,1.3,2.4c0,0.4,0,0.8-0.1,1.3C53.7,56.7,55.3,54.8,54.3,53.8z"/>
	<path class="st139" d="M53.8,31.7c-0.1,0.5,1.2,0.4,0.6,1.2c-0.8,0.4-1.7,0.8-1.9-0.6C52.8,31.8,53.2,31.7,53.8,31.7z"/>
	<path class="st140" d="M59.9,69c-0.9-0.3-2.3-0.2-1.2-1.9C59.4,67.5,59.9,68.1,59.9,69z"/>
	<path class="st140" d="M58.6,66.5c-0.5-0.1-1-0.1-1.1-0.7c-0.1-0.8,0.5-1,1.1-1C58.6,65.3,58.6,65.9,58.6,66.5z"/>
	<path class="st141" d="M184.6,12.6c1,1,0.6,1.7-0.2,2.4c-1,0-1.5-0.5-1.5-1.2C182.9,12.8,183.6,12.5,184.6,12.6z"/>
	<path class="st142" d="M128.9,50.8c-0.4,0.1-0.7,0.2-0.9,0.1c-0.2-0.2-0.2-0.5-0.2-0.8c0.2-0.1,0.5-0.2,0.7-0.1
		C128.7,50.1,128.7,50.5,128.9,50.8z"/>
	<path class="st143" d="M70.9,48.8c0.6,0,1.2,0,1.8,0c-0.9,1.1-1.3,2.5-1.6,3.8c-1.2,0.3-2,0-2.7-0.7c0.3-1.6,1.4,0,1.6-0.6
		C71.3,50.5,69.7,49.3,70.9,48.8z"/>
	<path class="st144" d="M69,47c0.4-0.9,1.3-0.7,1.8-1.1c0.9,0.4,0.7,1.1,0.7,1.6C70.7,47.4,69.8,47.2,69,47z"/>
	<path class="st143" d="M69,49.9c-0.7-0.6-0.5-1-0.3-1.5C69.7,48.8,69.9,49.2,69,49.9z"/>
	<path class="st145" d="M70.4,64.8c0.6,0.1,1.1,0.3,1,1.1c-0.1,0.6-0.6,0.6-1.1,0.7C70.3,65.9,70.4,65.3,70.4,64.8z"/>
	<path class="st146" d="M156.5,51.3c-0.4,0-1-0.2-0.8-0.6c1.6-2.6,0.9-5.3,0.2-8c1.9-1.3,3.3,0,4.9,0.6c0.5,2.1,0.4,4.1,0,6.2
		C159.8,51.3,158.1,51.2,156.5,51.3z"/>
	<path class="st147" d="M156.5,51.3c0.8-1.6,2.5-0.5,3.7-1.2c0.8,0.6,0.7,1.5,0.7,2.4c0,0.2,0,0.4,0,0.7c0,0.2-0.1,0.4-0.1,0.6
		c-1.4-0.8-2.8,0-4.3,0C155.4,52.9,156.2,52.1,156.5,51.3z"/>
	<path class="st111" d="M160.8,52.4c-0.5-0.7-0.7-1.5-0.7-2.4c0.9-2.2,0.6-4.5,0.6-6.8c-0.8-2.1-0.1-4.1,0.6-6c0,4.2,0,8.4,0,12.6
		C161.3,50.8,161.6,51.7,160.8,52.4z"/>
	<path class="st147" d="M156.4,54.3c2,0.8,1.3,1.7,0,2.5C156.1,55.9,155.4,55.1,156.4,54.3z"/>
	<path class="st148" d="M181.5,69.6c-0.5-0.2-0.6-0.7-0.6-1.2c1-0.5,1-1.5,0.9-2.3c-0.1-0.9,0.1-1.6,1-1.9c0.2,0,0.4,0,0.6-0.1
		c0,1.3-0.1,2.6,0,3.9C183.6,69.6,182.5,69.5,181.5,69.6z"/>
	<path class="st149" d="M181,74.5c0-0.6,0-1.1,0-1.7c0.8,0.2,1.6,0.4,2.6,0.6C182.9,74.7,181.5,73.6,181,74.5z"/>
	<path class="st150" d="M55.6,48.2c0.6,0.1,1.2,0.2,1.1,1c-0.1,0.6-0.6,0.7-1.1,0.7C55.6,49.4,55.6,48.8,55.6,48.2z"/>
	<path class="st151" d="M182.8,64.1c-1.1,1.2,0.6,3.7-1.9,4.3c0.3-0.8,0.5-1.7,0-2.5c-0.2-0.2-0.4-0.5-0.5-0.7
		c-0.1-0.6,0-1.2,0.4-1.7C181.5,63.7,182.1,63.9,182.8,64.1z"/>
	<path class="st152" d="M180.8,65.2c0,0.2,0.1,0.5,0.1,0.7c-0.3,0.5-0.6,1-0.9,1.5c-1.1-1.2,0-1.9-0.3-2.7
		C180.3,64.3,180.5,64.8,180.8,65.2z"/>
	<path class="st153" d="M180.8,65.2c-0.4-0.2-0.7-0.3-1.1-0.5c-0.2-1,0.3-1.3,1.2-1.2C180.8,64.1,180.8,64.7,180.8,65.2z"/>
	<path class="st154" d="M221.2,86.7c-1.6,0-3.2,0-4.8,0c0-0.4,0-0.8,0-1.2c0.5-1.1,0.3-2.2,0.3-3.3c0-14.1,0-28.2,0-42.3
		c0-1.1-0.3-2.2,0.3-3.3c0.4,0,0.8,0,1.2,0c0.5,1.1,0.3,2.2,0.3,3.3c0,14,0,28.1,0,42.1c0,1-0.3,2,0.3,3c0.1,0.3,0.3-0.4,0-0.1
		c-0.1,0.1-0.2,0-0.2-0.2c-0.2-4-0.1-7.9-0.1-11.9c0-11,0-22,0-32.9c0-1.1-0.3-2.2,0.3-3.3c0.4,0.4,0.8,0.8,1.2,1.2
		c1,1.1,0.6,2.5,0.6,3.8c0.1,14.3-0.1,28.6,0.1,42.9c0.1,0.4,0.3,0.7,0.5,1C221.2,85.9,221.2,86.3,221.2,86.7z"/>
	<path class="st155" d="M218.8,36.6c0,16,0,32.1,0,48.1c-0.2,0-0.4,0-0.6,0c0-16,0-32.1,0-48.1C218.4,36.6,218.6,36.6,218.8,36.6z"
		/>
	<path class="st156" d="M217,36.6c0,15.2,0,30.5,0,45.7c0,1.1,0.4,2.3-0.6,3.2c0-15.1-0.1-30.1-0.1-45.2
		C216.6,39.1,215.9,37.7,217,36.6z"/>
	<path class="st157" d="M221.2,85.5c-0.2,0-0.4,0-0.6,0c-0.4-0.6-0.3-1.4-0.3-2.1c0-14.9,0-29.8,0-44.8c0-0.7-0.1-1.4,0.3-2.1
		c0.2,0,0.4,0,0.6,0C221.2,52.9,221.2,69.2,221.2,85.5z"/>
	<path class="st156" d="M220.7,36.6c0,16.3,0,32.6,0,48.9c-1-1-0.6-2.3-0.6-3.5c0-14.7,0-29.5-0.1-44.2
		C220.1,37.3,220.2,36.8,220.7,36.6z"/>
	<path class="st158" d="M106.9,61c-1.7-0.3-1.2-1.3-0.8-2.5C107.3,59.3,106.8,60.3,106.9,61C106.9,61,106.9,61,106.9,61z"/>
	<path class="st159" d="M250.6,58c-0.2-0.1-0.3-0.1-0.5-0.1c-0.3-1-0.1-1.7,1.1-1.7C251.3,56.9,251.4,57.6,250.6,58z"/>
	<path class="st160" d="M250.1,59.3c0.2-0.2,0.4-0.4,0.6-0.6c1,0.6,0.8,1.2-0.1,1.8C250.4,60.1,250.2,59.7,250.1,59.3z"/>
	<path class="st161" d="M72.7,35.4c-0.4-0.6-0.8-1.3-1.3-1.9c-0.4-0.4-0.7-0.4-1.1,0c-0.3,0-0.5,0-0.8-0.1c-0.4-0.5-0.5-1.1-0.5-1.7
		c-0.2-0.6-0.9-1.2-0.4-2.1c2.2,0.6,5.5-1.7,6.3,2.4c1.4,0.1,1.8-0.8,1.9-2.3c1,1.4,0.7,2.4,0.5,3.4c-1.2,0.5-3.1,0.2-3.5,2.2
		C73.5,35.7,73.1,35.8,72.7,35.4z"/>
	<path class="st162" d="M72.7,35.4c0.4,0,0.8,0,1.2,0c-0.9,1.5-0.9,2.9,0.9,3.9c-1.5,0.9-2.4,1.8-2.6,3.2c-1.1,0-1.3-2.7-3-0.6
		c-0.3-1.8-0.2-3.3-1.1-4.9C70.2,37.1,71.7,37,72.7,35.4z"/>
	<path class="st162" d="M76.3,36.5c1.9,2.4,1.2,4.1-0.3,6.1C75,40.4,74.6,38.6,76.3,36.5z"/>
	<path class="st163" d="M70.3,33.5c0-0.5-0.3-1.2,0.5-1.5c0.9,0.2,0.5,0.9,0.6,1.5C71.1,33.5,70.7,33.5,70.3,33.5z"/>
	<path class="st164" d="M69.1,31.7c0.7,0.4,0.7,1,0.5,1.7C68.5,33.1,68.2,32.6,69.1,31.7z"/>
</g>
</svg>
