<?xml version="1.0" encoding="utf-8"?>
<!-- Generator: Adobe Illustrator 21.0.0, SVG Export Plug-In . SVG Version: 6.00 Build 0)  -->
<svg version="1.1" id="Layer_1" xmlns="http://www.w3.org/2000/svg" xmlns:xlink="http://www.w3.org/1999/xlink" x="0px" y="0px"
	 viewBox="0 0 115.5 66" style="enable-background:new 0 0 115.5 66;" xml:space="preserve">
<style type="text/css">
	.st0{fill:#050708;}
	.st1{fill:#FDB917;}
	.st2{fill:none;}
	.st3{display:none;fill:#FFFFFF;}
</style>
<g id="Layer_x0020_1">
	<g id="_886339312">
		<path class="st0" d="M49.6,26.8h-4.1v15.4h4.1c0.1,0,0.2,0,0.2-0.2V27C49.9,26.9,49.9,26.8,49.6,26.8z"/>
		<path class="st0" d="M37.4,19c-0.3,0-0.2,0.7-0.2,0.9v7.9c-1.3-0.8-2.3-1.3-4.1-1.3c-2.3,0-4.2,0.9-5.7,2.6l0,0
			c-1.3,1.5-1.7,3.4-1.7,5.4c0,1.7,0.2,2.9,1.1,4.5c0.3,0.6,0.7,0.9,1.1,1.4c0.5,0.5,0.9,0.9,1.5,1.1c0.1,0.1,0.2,0.1,0.3,0.2
			c0.1,0.1,0.3,0.2,0.5,0.2c0.9,0.3,2.4,0.7,3.3,0.6c0.9-0.1,1.1-0.1,2.2-0.5c0.3-0.2,0.6-0.3,0.9-0.5c0.3-0.1,0.6-0.5,0.8-0.5v1
			h4.1V19H37.4z M33.6,38.5c-0.1,0-0.1,0-0.2,0c0,0,0,0,0,0c-5.2,0-5.2-8.1,0-8.1c0.1,0,0.1,0,0.2,0c0,0,0,0,0,0
			C38.8,30.4,38.8,38.5,33.6,38.5z"/>
		<rect x="72.4" y="26.9" class="st0" width="4.2" height="15.3"/>
		<path class="st0" d="M90.3,30.9v-4h-4.9v-3.1h-2.2c-0.1,0-0.2,0.1-0.3,0.2l-3.4,4.2c-0.1,0.1-0.1,0.2-0.2,0.3
			c-0.1,0.1-0.2,0.2-0.2,0.5v1.6c0,0.1,0,0.2,0.2,0.2h2.1v6.2c0,1.7,0.6,2.9,1.4,3.8c0.9,0.9,2.2,1.5,3.7,1.5h4v-4h-3.1
			c-1.3,0-1.8-0.9-1.8-2.1v-5.4H90.3z"/>
		<path class="st0" d="M64,26.9v1c-0.7-0.5-0.8-0.6-1.6-0.9c-1.3-0.6-2.9-0.6-4.2-0.2c-2.5,0.6-4.2,2.6-5,5
			c-0.2,0.5-0.2,0.9-0.3,1.5c-0.3,2.3,0.5,4.2,1.9,6.1c2.3,1.9,4.6,3,7.5,1.9c0.3-0.1,0.7-0.2,0.9-0.3c0.2-0.1,0.3-0.1,0.5-0.2
			c0.2-0.1,0.2-0.2,0.5-0.2c0,1.6,0.1,2.3-0.6,3.2c-1.1,1.5-4.3,1.8-5.7-0.1c-0.2-0.1-0.5-0.7-0.5-0.9L53.5,44
			c0.1,0.7,0.6,1.4,0.9,1.9c1.3,1.8,3.5,2.9,5.9,3h0.6c2.7-0.1,5.4-1.4,6.6-4c0.3-0.7,0.7-1.9,0.7-2.9V26.9H64z M60.6,38.2
			C60.6,38.2,60.6,38.2,60.6,38.2c-0.1,0-0.1,0-0.1,0c-5.2,0-5.2-8.1,0-8.1c0,0,0,0,0.1,0c0,0,0,0,0.1,0
			C65.8,30.1,65.8,38.2,60.6,38.2z"/>
		<path class="st0" d="M68.1,22.3v-3.1c0-0.1,0-0.2-0.2-0.2H47.5v3.3H68.1z"/>
		<path class="st1" d="M72.3,24c1.5,0,0.9,0.1,1.4-0.5l2.7-3.1l-2.6-2.9c-0.3-0.3-0.5-0.6-0.7-0.6h-0.9v7H72.3z"/>
		<rect x="0" y="0" class="st2" width="115.4" height="66"/>
	</g>
</g>
<circle class="st3" cx="60.6" cy="34.2" r="4.2"/>
<circle class="st3" cx="33.5" cy="34.4" r="4.2"/>
</svg>
