<?xml version="1.0" encoding="utf-8"?>
<!-- Generator: Adobe Illustrator 21.0.0, SVG Export Plug-In . SVG Version: 6.00 Build 0)  -->
<svg version="1.1" id="Objects" xmlns="http://www.w3.org/2000/svg" xmlns:xlink="http://www.w3.org/1999/xlink" x="0px" y="0px"
	 viewBox="0 0 170 231.9" style="enable-background:new 0 0 170 231.9;" xml:space="preserve">
<style type="text/css">
	.st0{fill:#D5DADF;}
	.st1{opacity:0.15;fill:#424242;enable-background:new    ;}
	.st2{fill:none;stroke:#000000;stroke-width:3.0063;stroke-miterlimit:10;}
	.st3{fill:#424242;}
	.st4{fill:#5D5D5D;}
	.st5{fill:#EDBDA2;}
	.st6{fill:#269B9B;}
	.st7{fill:#603639;}
	.st8{fill:#FFD3B6;}
	.st9{fill:#5FBBC4;}
	.st10{fill:#DBB59D;}
	.st11{fill:#E8C0A6;}
	.st12{fill:#51ABAF;}
	.st13{fill:#BD472D;}
	.st14{fill:#78393B;}
	.st15{fill:#999999;}
	.st16{fill:none;stroke:#000000;stroke-width:3.4672;stroke-miterlimit:10;}
	.st17{fill:#FFFFFF;}
	.st18{fill:#E6E6E6;}
	.st19{fill:#E85C5C;}
</style>
<g>
	<g>
		<g>
			<path class="st0" d="M26.6,54.5C37,16.2,76.5-6.4,114.8,4l0,0c38.3,10.4,60.9,49.9,50.6,88.2l-22.8,84.1
				c-10.4,38.3-49.9,60.9-88.2,50.6l0,0c-38.3-10.4-60.9-49.9-50.6-88.2L26.6,54.5z"/>
			<g>
				<ellipse class="st1" cx="70.8" cy="187.5" rx="53.2" ry="15.2"/>
				<g>
					<circle class="st2" cx="70.6" cy="151.4" r="24.9"/>
					<circle class="st3" cx="70.6" cy="151.4" r="4.5"/>
				</g>
				<path class="st4" d="M37.3,172c-0.9-1-0.9-2.5,0.1-3.4l36.4-34c1-0.9,2.5-0.9,3.4,0.1l0,0c0.9,1,0.9,2.5-0.1,3.4l-36.4,34
					C39.8,173,38.2,173,37.3,172L37.3,172z"/>
				<circle cx="102.4" cy="170.2" r="8.1"/>
				<g>
					<path class="st5" d="M87.4,164.5c2.7,0,4.9,1.7,4.9,3.7l0,13.3c0,2-2.2,3.7-4.9,3.7l0,0c-2.7,0-4.9-1.6-4.9-3.7l0-13.3
						C82.4,166.2,84.6,164.5,87.4,164.5L87.4,164.5z"/>
					<path class="st5" d="M82.4,183.6c0.4-2.7,2.3-4.7,4.3-4.4l13.2,1.8c2,0.3,3.4,2.7,3,5.4l0,0c-0.4,2.7-2.3,4.7-4.3,4.4
						l-13.2-1.8C83.3,188.7,82,186.3,82.4,183.6L82.4,183.6z"/>
					<path class="st6" d="M49.4,135c1.1-3.6,5.2-7.6,8.8-6.5l31.3,9.6c3.6,1.1,5.8,6.9,4.7,10.5l0,0c-1.1,3.6-4.9,5.6-8.5,4.5
						l-31.8-9.6C50.3,142.3,48.3,138.6,49.4,135L49.4,135z"/>
					<path class="st7" d="M80.5,187.8c0.7,1.5,2,2.5,3.5,2.7l18.5,2.5c2.8,0.4,5.5-2.4,6.1-6.2c0.5-3.8-1.4-7.2-4.2-7.6l-6.6-0.9
						c0.1,2.5,0.5,6-1.8,7.3c-1.7,0.9-4.1,0.9-6,1.1C86.8,187.2,83.6,187.5,80.5,187.8z"/>
					<path class="st6" d="M79.2,149L79,175.4c4.3-1.4,11.9-1.3,16.4-2L94.4,145c-0.7-3.7-6.1-4.6-9.8-3.9
						C80.9,141.7,78.5,145.3,79.2,149z"/>
				</g>
				<path class="st5" d="M86.4,152.9c1.5-2.9,4.4-4.4,6.6-3.3l14.4,7.2c2.2,1.1,2.8,4.4,1.3,7.3l0,0c-1.5,2.9-4.4,4.4-6.6,3.3
					l-14.4-7.2C85.5,159.1,84.9,155.9,86.4,152.9L86.4,152.9z"/>
				<path class="st3" d="M55.3,127.1c0.3-1.7,2-2.9,3.8-2.6l27.5,5.1c1.7,0.3,2.9,2,2.6,3.8l0,0c-0.3,1.7-2,2.9-3.8,2.6l-27.5-5.1
					C56.2,130.5,55,128.8,55.3,127.1L55.3,127.1z"/>
				<g>
					<path class="st8" d="M65,125.8c-2.3-0.7-3.5-3.3-2.7-5.8l0,0c0.8-2.5,3.3-3.8,5.6-3.1l14.3,7.9c2.3,0.7,2.8-0.2,2,2.3l0,0
						c-0.8,2.5-1.6,2.8-3.8,2.1L65,125.8z"/>
					<g>
						<path class="st8" d="M62.8,108.1c-0.5-2.4,0.9-4.8,3.3-5.3l0,0c2.4-0.5,4.7,0.9,5.3,3.3l3.2,14.2c0.5,2.4-0.9,4.7-3.3,5.3l0,0
							c-2.4,0.5-4.8-0.9-5.3-3.3L62.8,108.1z"/>
						<path class="st9" d="M73.7,109.3l-2.4-12c-0.6-3-3.5-4.9-6.4-4.3c-3,0.6-4.9,3.5-4.3,6.5l2.4,12L73.7,109.3z"/>
					</g>
					<g>
						<path class="st8" d="M80.1,126.2c0.2-1.9,2.5-1.3,4.3-1.1c0,0,3,0.6,4,1c1.2,0.5,2,0.7,1.7,2.5l0,0c-0.2,1.9-1.5,2-3.4,1.8
							l-3.8-0.5C76.8,128.6,79.8,128,80.1,126.2L80.1,126.2z"/>
						<g>
							<path class="st10" d="M87.6,129.5C87.6,129.5,87.6,129.5,87.6,129.5c1.5-0.1,2.8,0.7,2.9,1.9c0,0.1,0,0.3,0,0.4
								c0.9,0.1,1.7,0.2,2.6,0.4c0.1-0.3,0.1-0.7,0.1-1c-0.2-2.3-2.4-5.2-5.3-4.9c-0.1,0-0.5,1.2-0.5,1.2
								C87.4,128.1,87.5,128.8,87.6,129.5z"/>
							
								<ellipse transform="matrix(0.6423 -0.7664 0.7664 0.6423 -68.0491 117.4049)" class="st10" cx="91.8" cy="131.6" rx="1.3" ry="1.4"/>
						</g>
						<g>
							<path class="st11" d="M86.2,129.7C86.2,129.7,86.2,129.7,86.2,129.7c1.5-0.1,2.8,0.7,2.9,1.9c0,0.1,0,0.3,0,0.4
								c0.9,0.1,1.7,0.2,2.6,0.4c0.1-0.3,0.1-0.7,0.1-1c-0.2-2.3-2.4-5.2-5.3-4.9c-0.1,0-0.5,1.2-0.5,1.2
								C86,128.3,86.1,129,86.2,129.7z"/>
							
								<ellipse transform="matrix(0.6422 -0.7665 0.7665 0.6422 -68.6671 116.4073)" class="st11" cx="90.4" cy="131.8" rx="1.3" ry="1.4"/>
						</g>
						<g>
							<path class="st8" d="M84.5,129.8C84.5,129.8,84.5,129.8,84.5,129.8c1.5-0.1,2.8,0.7,2.9,1.9c0,0.1,0,0.3,0,0.4
								c0.9,0.1,1.7,0.2,2.6,0.4c0.1-0.3,0.1-0.7,0.1-1c-0.2-2.3-2.4-5.2-5.3-4.9c-0.1,0-0.5,1.2-0.5,1.2
								C84.3,128.4,84.4,129.1,84.5,129.8z"/>
							
								<ellipse transform="matrix(0.642 -0.7667 0.7667 0.642 -69.3746 115.2446)" class="st8" cx="88.7" cy="131.9" rx="1.3" ry="1.4"/>
						</g>
					</g>
					<path class="st8" d="M81.7,128.2c-0.1-0.7,0.3-1.3,1-1.5l0,0c0.7-0.1,1.3,0.3,1.5,1l0.7,3.7c0.1,0.7-0.3,1.3-1,1.5l0,0
						c-0.7,0.1-1.3-0.3-1.5-1L81.7,128.2z"/>
				</g>
				<path class="st7" d="M27.5,101.9c0-7.3,5.9-13.1,13.1-13.1l0,0c7.3,0,13.1,5.9,13.1,13.1v33.4c0,7.3-5.9,13.1-13.1,13.1l0,0
					c-7.3,0-13.1-5.9-13.1-13.1V101.9z"/>
				<path class="st7" d="M32.7,149.2c0.5-2.8,3.1-4.6,5.8-4.2l27.4,4.6c2.8,0.5,4.6,3.1,4.2,5.8l0,0c-0.5,2.8-3.1,4.6-5.8,4.2
					l-27.4-4.6C34.1,154.6,32.2,152,32.7,149.2L32.7,149.2z"/>
				<g>
					<path class="st12" d="M41.2,91.5c-2.3,1.9-2.7,7.2-2.9,10.4c-0.8,10.4-1.4,41.7-1.4,41.7l29.6,3.9c0,0,3.8-37.4,1.1-52
						c-0.2-1.3-3.3-4.4-4.6-4.6C59.8,90.8,45.3,88.2,41.2,91.5z"/>
					<path class="st5" d="M56.3,95.7l6.7-4.8c0,0-4.4-2.6-7.3-2.6c-2.9-0.1-9,1.7-9,1.7L56.3,95.7z"/>
				</g>
				<g>
					<path class="st5" d="M49.2,89v-5.5c0-3.2,2.6-5.9,5.9-5.9l0,0c3.2,0,5.9,2.6,5.9,5.9V89c0,3.2-2.6,5.9-5.9,5.9h1.3
						C53.1,94.8,49.6,90,49.2,89L49.2,89z"/>
					<g>
						<ellipse class="st8" cx="41.2" cy="67" rx="3.3" ry="4"/>
						<path class="st8" d="M41.6,56.1v13.7C41.6,79.3,48,87,55.9,87h1c7.9,0,14.3-7.7,14.3-17.1V54.1c-0.7-0.6-1.3-1.3-2-2
							c-1.8-1.9-3.3-4.2-4.9-6.3c-0.7-1-0.6-0.7-1.9-1.6c0.6,0.4-0.9-0.1-1.7-0.5h-6.3c0,0,0,0-0.1,0c-0.2,0-0.4,0.1-0.8,0.2
							c-1.3,0.2-2.6,0.6-3.8,1c-1.9,0.6-2.5,1-3.6,2.4c-1.5,1.9-2.6,5.5-3.9,7.9C42,55.5,41.8,55.8,41.6,56.1z"/>
						<path class="st13" d="M69.6,58.3c6.9-0.6,7.9-12.9-1.3-17c-4.6-2.1-9.6-2.9-16-1.4c-15.9,3.6-13.5,22.5-10.7,24.5
							c3.9-4.4,3.3-8.9,7-9.6C58.3,52.9,61.5,59,69.6,58.3z"/>
						<path class="st5" d="M57.7,74.6c0.4,2.3,5.5,2.6,6,1c0.5-1.3-1.3-14.2-2.6-14.3C59.7,61.1,57.3,72.2,57.7,74.6z"/>
						<path class="st8" d="M55.8,72.9c0.4,2.3,5.5,2.6,6,1c0.5-1.3-1.3-14.2-2.6-14.3C57.8,59.4,55.4,70.5,55.8,72.9z"/>
						<ellipse class="st14" cx="67.3" cy="65.1" rx="1.4" ry="1.7"/>
						<ellipse class="st14" cx="52.8" cy="65.1" rx="1.4" ry="1.7"/>
						<g>
							<path class="st13" d="M68.9,63.3c-0.3,0.1-0.6,0.1-1,0.1c-0.4,0-0.8-0.1-1.2-0.2c-0.4-0.1-0.8-0.3-1.1-0.6
								c-0.2-0.1-0.3-0.2-0.4-0.4c-0.1-0.1-0.2-0.3-0.3-0.4c-0.1-0.3-0.2-0.5-0.2-0.7c0-0.2,0-0.3,0-0.3s0.1,0.1,0.2,0.2
								c0.1,0.1,0.1,0.1,0.2,0.2c0.1,0.1,0.2,0.1,0.3,0.2c0.1,0.1,0.2,0.1,0.3,0.2c0.1,0.1,0.3,0.1,0.4,0.2c0.1,0.1,0.3,0.1,0.4,0.2
								c0.2,0.1,0.3,0.1,0.5,0.2c0.3,0.1,0.6,0.2,1,0.2c0.3,0.1,0.6,0.1,0.9,0.2c0.5,0.1,0.9,0.2,0.9,0.2S69.5,63.2,68.9,63.3z"/>
						</g>
						<g>
							<path class="st13" d="M55.5,61.4c-0.2,0.2-0.4,0.3-0.6,0.5c-0.2,0.2-0.4,0.4-0.7,0.5c-0.2,0.1-0.5,0.3-0.8,0.4
								c-0.3,0.2-0.6,0.3-0.8,0.4c-0.3,0.1-0.6,0.2-0.9,0.3c-0.3,0.1-0.6,0.1-0.9,0.2c-0.3,0.1-0.6,0.1-0.8,0.1
								c-0.3,0.1-0.5,0-0.7,0c-0.9,0-1.5-0.2-1.5-0.2s0.6-0.2,1.4-0.4c0.2-0.1,0.4-0.1,0.7-0.2c0.2-0.1,0.5-0.2,0.7-0.2
								c0.3-0.1,0.5-0.1,0.8-0.2c0.3-0.1,0.5-0.2,0.8-0.3c0.3-0.1,0.5-0.2,0.8-0.3c0.2-0.1,0.5-0.2,0.8-0.3c0.3-0.1,0.5-0.2,0.7-0.4
								c0.2-0.1,0.4-0.2,0.6-0.3c0.4-0.2,0.7-0.4,0.9-0.5c0.2-0.1,0.4-0.2,0.4-0.2S56.1,60.8,55.5,61.4z"/>
						</g>
					</g>
				</g>
				<path class="st15" d="M75.4,185.7c0.3,1,1.4,1.5,2.3,1.1l0,0c1-0.3,1.5-1.4,1.1-2.3L69.8,158c-0.3-1-1.4-1.5-2.3-1.1l0,0
					c-1,0.3-1.5,1.4-1.1,2.3L75.4,185.7z"/>
				<g>
					<path class="st9" d="M36.9,143.6c0.6-3.7,4-8.2,7.8-7.7L77,141c3.7,0.6,6.7,6,6.2,9.7l0,0c-0.6,3.7-4,6.2-7.7,5.7l-32.8-5.1
						C38.9,150.8,36.3,147.3,36.9,143.6L36.9,143.6z"/>
					<path class="st9" d="M74.3,156l15.3,7.4c1-4.4,3.1-10.2,4.8-14.4l-15.8-7.7c-3.5-1.3-6.9,2.4-8.2,6
						C69,150.7,70.8,154.7,74.3,156z"/>
				</g>
				<g>
					<circle class="st16" cx="40.2" cy="170.2" r="28.7"/>
					<circle cx="40.2" cy="170.2" r="5.2"/>
				</g>
				<path class="st3" d="M22.1,130.8c0.3-1.7,2-2.9,3.8-2.6l27.5,5.1c1.7,0.3,2.9,2,2.6,3.8l0,0c-0.3,1.7-2,2.9-3.8,2.6l-27.5-5.1
					C23,134.2,21.8,132.6,22.1,130.8L22.1,130.8z"/>
				<g>
					<path class="st8" d="M31,103.5c1.6-2.6,4.9-3.4,7.5-1.8l0,0c2.6,1.6,3.4,4.9,1.8,7.5L31,124.5c-1.6,2.6-4.9,3.4-7.5,1.8l0,0
						c-2.6-1.6-3.4-4.9-1.8-7.5L31,103.5z"/>
					<path class="st8" d="M24.2,126.7c-2.8-1.2-4.1-4.4-2.9-7.1l0,0c1.2-2.8,4.4-4.1,7.1-2.9l15.9,9.7c2.8,1.2,4.7,1.7,3.5,4.5l0,0
						c-1.2,2.8-2.8,3.5-5.6,2.3L24.2,126.7z"/>
					<path class="st9" d="M39.6,114l8.2-12.7c2-3.1,1.1-7.3-2-9.3c-3.1-2-7.3-1.1-9.3,2l-8.2,12.7L39.6,114z"/>
					<path class="st8" d="M41.8,128.7c0.5-2.6,3.7-1.6,6.3-1c0,0,4.1,1.2,5.6,1.9c1.7,0.9,2.7,1.2,2.2,3.8l0,0
						c-0.5,2.6-2.4,2.7-5,2.1l-5.3-1.1C36.9,131.8,41.3,131.3,41.8,128.7L41.8,128.7z"/>
					<g>
						<path class="st10" d="M52,134.4C52,134.4,52.1,134.4,52,134.4c2.2,0,3.9,1.3,3.9,3c0,0.2,0,0.4-0.1,0.6
							c1.2,0.3,2.4,0.5,3.6,0.9c0.1-0.5,0.2-0.9,0.2-1.4c0-3.3-2.7-7.6-6.9-7.6c-0.1,0-0.8,1.6-0.9,1.6
							C51.9,132.4,52,133.4,52,134.4z"/>
						
							<ellipse transform="matrix(0.707 -0.7072 0.7072 0.707 -80.6172 81.2096)" class="st10" cx="57.7" cy="137.9" rx="1.9" ry="1.9"/>
					</g>
					<g>
						<path class="st11" d="M50,134.4C50,134.4,50.1,134.4,50,134.4c2.2,0,3.9,1.3,3.9,3c0,0.2,0,0.4-0.1,0.6
							c1.2,0.3,2.4,0.5,3.6,0.9c0.1-0.5,0.2-0.9,0.2-1.4c0-3.3-2.7-7.6-6.9-7.6c-0.1,0-0.8,1.6-0.9,1.6
							C49.9,132.4,50,133.4,50,134.4z"/>
						
							<ellipse transform="matrix(0.7072 -0.707 0.707 0.7072 -81.2123 79.7605)" class="st11" cx="55.7" cy="137.9" rx="1.9" ry="1.9"/>
					</g>
					<g>
						<path class="st8" d="M47.7,134.4C47.7,134.4,47.7,134.4,47.7,134.4c2.2,0,3.9,1.3,3.9,3c0,0.2,0,0.4-0.1,0.6
							c1.2,0.3,2.4,0.5,3.6,0.9c0.1-0.5,0.2-0.9,0.2-1.4c0-3.3-2.7-7.6-6.9-7.6c-0.1,0-0.8,1.6-0.9,1.6
							C47.6,132.5,47.6,133.4,47.7,134.4z"/>
						
							<ellipse transform="matrix(0.7072 -0.707 0.707 0.7072 -81.8994 78.1037)" class="st8" cx="53.3" cy="137.9" rx="1.9" ry="1.9"/>
					</g>
				</g>
				<circle cx="77.9" cy="190.8" r="9.3"/>
				<g>
					<path class="st17" d="M117.9,153.1c2.1-4.3,7.2-6,11.4-4l0,0c4.2,2.1,6,7.2,4,11.4l-5.8,11.9c-2.1,4.2-7.2,6-11.4,4l0,0
						c-4.2-2.1-6-7.2-4-11.4L117.9,153.1z"/>
					<path class="st17" d="M100,150.7l18.5,8.5c4.2,2.1,6,7.2,4,11.4l0,0c-2.1,4.2-2.2,7.9-6.4,5.8l-23.5-10.4L100,150.7z"/>
				</g>
			</g>
			<g>
				<g>
					<path class="st15" d="M135,42.4c0-3.6,2.9-6.6,6.6-6.6c3.6,0,6.6,2.9,6.6,6.6H135z"/>
					<path class="st15" d="M99.1,92.4c0,3.6-2.9,6.6-6.6,6.6c-3.6,0-6.6-2.9-6.6-6.6H99.1z"/>
					<path class="st17" d="M92.5,47.1c0,0,9.2,48.5,0,51.8c12.5,0.8,37.7,0,37.7,0c0.4-2.6,1.5-4.7,3.7-6.4c2-1.5,4-3,6.2-4.2
						c0,0-8.1-53.9,1.4-52.5c-12.1-0.7-37.9,0-37.9,0c-0.8,1.5-2,2.5-3,3.9c-2,2.7-4.9,5.7-7.8,7.3C92.8,47.1,92.6,47.1,92.5,47.1z"
						/>
					<circle class="st17" cx="102.8" cy="46.1" r="10.3"/>
					<circle class="st17" cx="129.9" cy="88.7" r="10.3"/>
				</g>
				<rect x="103.2" y="87.4" class="st18" width="26.3" height="2.5"/>
				<rect x="103.2" y="44.1" class="st18" width="26.3" height="2.5"/>
				<g>
					<rect x="105" y="64.3" class="st19" width="25.6" height="6.2"/>
					<rect x="114.6" y="54.6" class="st19" width="6.2" height="25.6"/>
				</g>
			</g>
		</g>
	</g>
</g>
</svg>
