<?xml version="1.0" encoding="utf-8"?>
<!-- Generator: Adobe Illustrator 21.0.0, SVG Export Plug-In . SVG Version: 6.00 Build 0)  -->
<svg version="1.1" id="Layer_1" xmlns="http://www.w3.org/2000/svg" xmlns:xlink="http://www.w3.org/1999/xlink" x="0px" y="0px"
	 viewBox="0 0 515 525" style="enable-background:new 0 0 515 525;" xml:space="preserve">
<style type="text/css">
	.st0{fill:none;enable-background:new    ;}
	.st1{fill:none;}
	.st2{fill:#EE7A88;}
	.st3{fill:#FEFEFE;}
	.st4{fill:#FCE9EC;}
	.st5{fill:#D8DADC;}
	.st6{fill:#F7C6CC;}
	.st7{fill:#EEEFF0;}
	.st8{fill:#C5C1CA;}
	.st9{fill:#E7F3F5;}
	.st10{fill:#505159;}
</style>
<image style="display:none;overflow:visible;" width="503" height="513" xlink:href="4AC0BED0701EEADD.png"  transform="matrix(1 0 0 1 6 6)">
</image>
<path class="st0" d="z"/>
<rect x="6" y="15.5" class="st1" width="503" height="503"/>
<g id="health-icon_x0020_2.eps">
	<path d="M303.9,57.8l-13.6-7.1V30.1l13.6-6.6c12.1-6,27.2,3,27.2,16.6c0,14.1-15.1,23.2-27.2,17.1V57.8z"/>
	<path d="M452,272.5c-4.5-6-13.6-7.1-19.7-3c-17.6,11.6-37.8,17.6-59,17.6c-20.7,0-40.3-5.5-58-17.1c-6.6-4-15.1-3-19.7,3
		c-5,6.6-3,16.1,3.5,20.7c13.6,9.1,28.7,15.1,44.9,18.6c9.6,2,15.6,10.1,15.6,20.2v51.4c0,7.1,4.5,13.1,11.6,14.1
		c9.6,2,17.1-5.5,17.1-14.1V332c0-9.6,6.6-17.6,15.6-20.2c15.6-3.5,30.7-10.1,44.9-19.2c7.1-4.5,8.6-14.1,3.5-20.7L452,272.5z"/>
	<path class="st2" d="M293.8,103.2c-32.8,0-62.5,14.6-82.7,37.8c-20.2-22.7-49.4-37.8-82.7-37.8c-60.5,0-109.9,49.9-109.9,110.9
		c0,34.8,15.6,66,40.3,85.7l152.2,121l149.2-118.9c26.2-19.7,43.3-51.4,43.3-87.7C403.7,153.1,354.3,103.2,293.8,103.2z"/>
	<path class="st3" d="M102.3,300.3c-22.2-24.7-40.3-51.4-40.3-85.7c0-53.9,38.3-98.8,88.2-108.9c-7.1-1-14.1-2-21.7-2
		C68,103.2,18.6,153.1,18.6,214.1c0,34.8,15.6,66,40.3,85.7l152.2,121L102.3,300.3z"/>
	<path class="st4" d="M374.4,224.7c-5.5,0-10.1-4.5-10.1-10.1c0-19.7-8.1-37.3-20.7-49.9c-12.6-12.6-30.2-20.7-49.4-20.7
		c-5.5,0-10.1-4.5-10.1-10.1c0-5.5,4.5-10.1,10.1-10.1l0,0c24.7,0,47.4,10.1,64,26.7c16.1,16.6,26.7,39.3,26.7,64.5
		c0,5.5-4.5,10.1-10.1,10.1L374.4,224.7z"/>
	<path d="M441,57.8l13.6-6.6V30.6L441,24.1c-12.6-6-27.2,3-27.2,16.6c0,14.1,14.6,22.7,27.2,16.6V57.8z"/>
	<path class="st5" d="M132.5,153.1c28.2,0,50.9,22.7,50.9,50.9s-22.7,50.9-50.9,50.9S81.6,232.2,81.6,204S104.3,153.1,132.5,153.1z"
		/>
	<path d="M132.5,173.3c16.6,0,30.2,13.6,30.2,30.7s-13.6,30.7-30.2,30.7s-30.2-13.6-30.2-30.7S115.9,173.3,132.5,173.3z"/>
	<path class="st6" d="M96.7,240.3c-9.6-9.6-15.1-22.2-15.1-36.3l0,0C81.6,218.1,87.1,231.2,96.7,240.3L96.7,240.3z M132.5,152.6
		L132.5,152.6L132.5,152.6z"/>
	<path class="st7" d="M96.7,240.3c-9.1-9.1-15.1-22.2-15.1-36.3c0-28.2,22.7-50.9,50.9-50.9l0,0l0,0c14.1,0,26.7,6,36.3,15.6
		l-14.1,14.1c-5.5-5.5-13.1-9.6-21.7-9.6c-16.6,0-30.2,13.6-30.2,30.7c0,8.6,3.5,16.1,9.1,22.2l-14.6,14.6L96.7,240.3z"/>
	<path class="st8" d="M111.3,225.7c-5.5-5.5-9.1-13.1-9.1-22.2c0-17.1,13.6-30.7,30.2-30.7c8.6,0,16.1,3.5,21.7,9.6l-43.3,43.3
		H111.3z"/>
	<path class="st9" d="M128.5,109.7c29.7,0,58,13.1,77.6,35.8c2.5,2.5,7.1,2.5,9.6,0c19.7-22.7,48.4-35.8,77.6-35.8
		c57.5,0,104.3,46.9,104.3,104.8c0,24.7-9.1,48.9-24.7,67.5c-5,5.5-10.6,11.1-16.6,16.1c-0.5,0.5-1,0.5-1,1L211.1,414.7l-72.6-58
		V262c28.2-3,50.9-27.2,50.9-57c0-31.2-25.7-57.5-57-57.5s-57,25.7-57,57.5c0,29.2,22.2,53.9,50.9,57v85.2L63,297.2l-0.5-0.5
		c-24.2-20.2-38.3-49.4-38.3-81.1c0.5-57.5,46.9-104.8,104.3-104.8V109.7z M435.4,275.6c4-2.5,9.1-2,11.6,1.5c1,1.5,2,4,1.5,6
		s-1.5,4-3.5,5.5c-13.1,8.6-27.7,15.1-42.3,18.6c-12.1,3-20.7,13.6-20.7,25.7v51.9c0,2.5-1,5-3,6c-2,1.5-4.5,2-7.1,1.5
		c-3.5-1-6.6-4.5-6.6-8.1v-50.9c0-7.6-3-14.6-8.6-19.7l7.1-5.5c0.5-0.5,0.5-0.5,1-1c5-4,9.6-8.6,14.1-13.1c20.7-1,40.3-7.6,57-18.6
		H435.4z M132.5,249.4c-24.7,0-44.9-20.2-44.9-44.9s19.7-44.9,44.9-44.9c24.7,0,44.9,20.2,44.9,44.9S157.2,249.4,132.5,249.4z
		 M253,506.4c-63.5,0-114.9-51.9-114.9-115.9v-19.2l69,54.9c1,1,2.5,1,3.5,1c1,0,3-0.5,3.5-1l132.1-105.3c4,2.5,6,7.1,6,12.1v51.4
		c0,9.1,5.5,16.6,13.6,19.7c-5.5,58-54.9,102.8-113.4,102.8L253,506.4z M296.3,34.6l10.1-5c1.5-1,3.5-1,5.5-1c6,0,12.6,5,12.6,12.6
		s-6.6,12.6-12.6,12.6c-2,0-4-0.5-5.5-1l-10.1-5V34.6z M448,47.2l-10.1,5c-1.5,1-3.5,1-5.5,1c-6,0-12.6-5-12.6-12.6
		s6.6-12.6,12.6-12.6c2,0,4,0.5,5.5,1l10.1,5V47.2z M54.4,305.3l0.5,0.5l71.1,56.4V391c0,70.6,57,128,127,128
		c64.5,0,119.4-49.9,126-113.9c3-1,5-2,7.1-3.5c5-4,7.1-9.6,7.1-16.1V333c0-6.6,4.5-12.1,11.1-14.1c16.6-3.5,32.3-10.6,46.9-20.2
		c4.5-3,7.6-8.1,9.1-13.6c0.5-3,0-7.1-1-10.1c27.2-24.7,42.3-59.5,42.3-96.3V88.1c0-25.2-17.6-46.9-42.3-52.4v-5.5
		c0-2.5-1-4.5-3-5.5L442.5,18c-3.5-1.5-7.1-3-11.1-3c-13.6,0-24.7,11.6-24.7,24.7c0,13.6,11.6,24.7,24.7,24.7c4,0,7.6-1,11.1-3
		l13.6-6.6c2-1,3-3,3-5.5v-3c17.6,5,30.2,21.2,30.2,39.8v90.7c0,32.8-13.6,64-37.8,86.2c-7.1-5-16.1-5.5-23.7,0
		c-11.6,7.6-25.2,13.1-38.8,15.1c13.1-19.2,20.2-42.3,20.2-65.5c0-64.5-51.9-116.9-115.9-116.9c-12.6,0-25.2,2-36.8,6V86.1
		c0-17.6,11.6-33.3,27.2-38.8v2c0,2.5,1,4.5,3,5.5l13.6,6.6c3.5,1.5,7.1,3,11.1,3c13.6,0,24.7-11.6,24.7-24.7
		c0-13.6-11.6-24.7-24.7-24.7c-4,0-7.6,1-11.1,3l-13.6,6.6c-2,1-3,3-3,5.5v5.5c-23.2,6-39.3,27.2-39.3,51.9v20.7
		c-12.1,5.5-23.7,14.1-33.3,23.7c-21.7-22.2-51.4-34.8-82.7-34.8c-64,0-115.9,52.4-115.9,116.9c-0.5,35.3,15.1,68,41.8,90.7V305.3z"
		/>
	<path class="st10" d="M132.5,224.7c-11.6,0-20.2-9.1-20.2-20.7c0-11.6,9.1-20.7,20.2-20.7c11.6,0,20.2,9.1,20.2,20.7
		C152.7,215.6,143.1,224.7,132.5,224.7z M132.5,171.7c-17.6,0-32.3,14.6-32.3,32.8s14.6,32.8,32.3,32.8s32.3-14.6,32.3-32.8
		S150.1,171.7,132.5,171.7z"/>
</g>
</svg>
