<?xml version="1.0" encoding="utf-8"?>
<!-- Generator: Adobe Illustrator 21.0.0, SVG Export Plug-In . SVG Version: 6.00 Build 0)  -->
<svg version="1.1" id="Layer_1" xmlns="http://www.w3.org/2000/svg" xmlns:xlink="http://www.w3.org/1999/xlink" x="0px" y="0px"
	 viewBox="0 0 347.8 508.3" style="enable-background:new 0 0 347.8 508.3;" xml:space="preserve">
<style type="text/css">
	.st0{fill:none;}
	.st1{fill:#FF6264;}
	.st2{fill:#FF8F7C;}
	.st3{fill:#4E4D5C;}
	.st4{fill:#625E6B;}
	.st5{fill:#F96A67;}
	.st6{fill:#FEFEFE;}
	.st7{fill:#4D4B5A;}
	.st8{fill:#DCDBDE;}
	.st9{fill:#FF648B;}
	.st10{fill:#FF5A66;}
	.st11{fill:#858585;}
	.st12{fill:#F68F26;}
	.st13{fill:#F88F25;}
	.st14{fill:#C8C8C8;}
	.st15{fill:#F79129;}
	.st16{fill:#B0B0B0;}
	.st17{fill:#848484;}
	.st18{fill:#838383;}
	.st19{fill:#B4B4B4;}
	.st20{fill:#2B2A29;}
	.st21{fill:#67A6FE;}
	.st22{fill:#5E9BF1;}
	.st23{fill:#646C77;}
	.st24{fill:#CBD0D8;}
	.st25{fill:#E5E8EC;}
	.st26{fill:#FFC35A;}
	.st27{fill:#FE7257;}
	.st28{fill:#603813;}
	.st29{fill:#FDD099;}
	.st30{fill:#C05749;}
	.st31{fill:#333333;}
	.st32{fill:#FCD6AC;}
	.st33{fill:#0071BC;}
	.st34{fill:#2E3191;}
	.st35{fill:#016FC2;}
	.st36{fill:#BC7273;}
	.st37{fill:#F9734E;}
	.st38{fill:#25282C;}
	.st39{fill:#23282B;}
	.st40{fill:#020202;}
</style>
<g id="Layer_x0020_1">
	<rect x="0" y="0" class="st0" width="158.3" height="158.3"/>
	<rect x="189.5" y="0" class="st0" width="158.3" height="158.3"/>
	<rect x="0" y="188" class="st0" width="158.3" height="158.3"/>
	<rect x="0" y="346.3" class="st0" width="158.3" height="158.3"/>
	<rect x="189.5" y="188" class="st0" width="158.3" height="158.3"/>
	<g id="_1580428800">
		<path class="st1" d="M20.1,68.7c0.4,1.4,2.8,1.5,4.5,1.9c0.8,0.2,1.7,0.3,2.4,0.5c1.6,0.4,1,0.2,1.6,1.2
			C26.9,56.3,45.4,53,51.4,62.7c3,4.9,2.4,6.9,1.6,11.6l56.2,0c-0.3-2.4-1-3.9-0.5-6.8c0.3-1.6,1.3-3.9,2.3-5
			c6.1-7.6,15.5-6.3,20-0.7c3,3.6,3,6.5,2.4,12.4c7.7,0.4,8.9,0.5,8.6-3.5l-1.7-0.9l0-4c1.2-0.4,2.7-1.3,1.8-3.3
			c-0.6-1.3-1.1-0.4-1.6-1.7l-0.3-1.3c-3.1-0.3-3.5,0.5-5.8-0.9c-1.3-1.7-0.1-2.2,0-2.5c0.1-0.4-0.3-0.1-0.6-0.3
			c-14.1-4.1-38.1-2.9-55-2.9c-3.9,0-54.8-0.3-57.2,0.1c0.8-0.2,2.3-0.2,3.2,0.1c2,0.7,1.8,3.1,0.7,3.9c-1.2,0.8-3.9,0.4-5.4,0.4
			C19.4,59,20,66.6,20.1,68.7L20.1,68.7z"/>
		<path class="st2" d="M20.9,53.1l0.7-0.1c2.4-0.3,53.4-0.1,57.2-0.1c16.9,0,41-1.2,55,2.9l0.7,0.3c1.4-1,1.4-0.9,2.9-1
			c1.6,0.5,2.8,3.5,2.6,4.4c0,0,0.1,0,0.2,0c0.1-1.1-1.3-4.7-4-5.8c-3.3-1.6-11.1-3-14.4-3.7c-5.4-1.1-16.5-1-19.3-1.5
			c-2.3,0.5-9.7,0.3-12.3,0.1c-6.6,0.1-13.2,0-19.9,0c-3.4,0-6.7,0.1-10,0.1c-1.7,0-8.3-0.3-9.2-0.1c-2.6-0.1-12-1.2-13.5-2.2
			l0.9-1.3c-2.4,1.2-0.8,1.5-4.7,1.9c-1.3,0.1-4.2,0.5-5.4,0.8C23.1,49.2,22.6,47.3,20.9,53.1L20.9,53.1z"/>
		<path class="st3" d="M118.6,62c5.3-1.9,9.8,1.8,10.9,5.6c1.5,4.9-2,9.5-5.6,10.5c-5,1.3-9.7-1.9-10.6-5.7
			C112,67.5,114.5,63.4,118.6,62L118.6,62z M109.3,74.3c1.2,1.8,1.2,3.3,4.5,5.9c4.1,3.3,11,3.4,15.4-0.3c1.2-1,1.6-1.5,2.5-2.8
			c0.6-0.9,1.2-2.5,1.8-3c0.6-5.9,0.5-8.8-2.4-12.4c-4.6-5.6-13.9-6.9-20,0.7c-0.9,1.2-2,3.4-2.3,5C108.3,70.4,109,71.9,109.3,74.3
			L109.3,74.3z"/>
		<path class="st3" d="M37.9,62.2c5-2.4,9.8,1.4,11.1,5c1.7,4.8-1.1,9.1-4.8,10.7c-6.7,2.9-14.4-4.6-10.7-11.8
			C34.6,64,36,63.1,37.9,62.2L37.9,62.2z M28.6,72.4c0.6,5.2,5.9,10,11.6,10.4c3.4,0.2,6.4-1,8.3-2.5c3-2.3,2.9-3.2,4.6-5.9
			c0.8-4.7,1.4-6.6-1.6-11.6C45.4,53,26.9,56.3,28.6,72.4L28.6,72.4z"/>
		<path class="st4" d="M62.1,36.8c0.8-0.7,2.8-0.5,4-0.3c0.2,1.2-1.3,10.5-1.8,11.8h-6.1c0-0.6,1.4-5.2,1.7-5.9
			c0.4-1.1,0.7-1.7,1-2.7C61.2,38.6,61.4,37.3,62.1,36.8L62.1,36.8z M50.9,48l0.1,0.8c1-0.2,7.6,0.1,9.2,0.1c3.3,0,6.7-0.1,10-0.1
			c6.6,0,13.3,0.1,19.9,0c0.3-0.6,0.4-1,0.3-1.9c-1.3-0.9-4.2-4.8-5.2-6c-1.8-2.2-3-4.8-6.6-4.9l-17.1,0c-4,0.1-4.2,0.7-6.9,3.4
			c-1,1-1.5,1.5-2.3,2.4c-0.5,0.5-2,1.9-2.3,2.5C49.3,45.8,49.7,47.8,50.9,48L50.9,48z"/>
		<path class="st5" d="M38.4,45.2l-0.9,1.3c1.5,1,10.9,2.1,13.5,2.2L50.8,48c-1.2-0.3-1.5-2.2-0.9-3.7c0.3-0.6,1.8-2,2.3-2.5
			c0.9-0.9,1.3-1.4,2.3-2.4c2.7-2.7,2.9-3.3,6.9-3.4l17.1,0c3.6,0.1,4.8,2.7,6.6,4.9c1,1.2,4,5.1,5.2,6c0.1,0.9,0,1.3-0.3,1.9
			c2.7,0.1,10,0.4,12.3-0.1l-1.1-1c0.4,0.7,0.2,0.3,0.5,1c-6.4,0.4-6.5-0.4-9.5-4.2c-1.5-1.8-5.7-5.9-5.7-8c3.8-1.6,5.2,0.1,6.9,2.1
			c-1-2-2.4-2.7-3.3-3.2l-0.5-0.4c0,0-0.1-0.1-0.2-0.1c-3.5-1.8-22.2-1.2-27.1-1.2c-6.5,0-10.3-0.4-14.7,3.2L38.4,45.2L38.4,45.2z"
			/>
		<path class="st6" d="M118.6,62c-4.1,1.4-6.6,5.5-5.4,10.4c0.9,3.7,5.6,7.1,10.6,5.7c3.6-1,7.1-5.6,5.6-10.5
			C128.3,63.9,123.9,60.1,118.6,62L118.6,62z"/>
		<path class="st6" d="M39.7,66.1c2.4-0.9,4.6,1,5.2,2.4c0.9,2.5-0.7,4.7-2.4,5.4C37.6,75.8,34.2,68.2,39.7,66.1z M37.9,62.2
			c-1.9,0.9-3.3,1.8-4.4,3.9c-3.7,7.3,4,14.7,10.7,11.8c3.7-1.6,6.5-6,4.8-10.7C47.7,63.6,42.8,59.8,37.9,62.2L37.9,62.2z"/>
		<path class="st4" d="M101.4,47.6c-1.1-1.7-2.5-3-3.8-4.5c-1.4-1.6-2.5-3.2-3.9-4.7c-1.8-2-3.1-3.7-6.9-2.1c0,2.2,4.2,6.2,5.7,8
			c3,3.7,3.1,4.6,9.5,4.2C101.6,47.8,101.8,48.2,101.4,47.6L101.4,47.6z"/>
		<path class="st7" d="M58.1,48.4h6.2c0.5-1.3,2-10.8,1.8-12c-1.2-0.2-3.2-0.4-4,0.3c-0.7,0.6-0.9,1.9-1.2,2.9c-0.3,1-0.6,1.6-1,2.7
			C59.6,43.1,58.1,47.7,58.1,48.4L58.1,48.4z"/>
		<path class="st8" d="M39.7,66.1c-5.6,2.1-2.2,9.7,2.7,7.8c1.8-0.7,3.3-2.9,2.4-5.4C44.4,67.1,42.2,65.1,39.7,66.1z"/>
		<path class="st9" d="M20,57.3c1.5,0,4.3,0.3,5.4-0.4c1.1-0.7,1.3-3.2-0.7-3.9c-0.9-0.3-2.3-0.2-3.2-0.1l-0.7,0.1
			C20.1,54.3,19.8,55.7,20,57.3L20,57.3z"/>
		<path class="st10" d="M60,62.7h42.2c1.1,0,2,0.9,2,2l0,0c0,1.1-0.9,2-2,2H60c-1.1,0-2-0.9-2-2l0,0C58,63.6,58.9,62.7,60,62.7z"/>
		<path class="st10" d="M53.7,69.6c0,1.3-0.3,2.8-0.6,4.7l56.2,0c-0.2-1.8-0.6-3-0.7-4.7H53.7L53.7,69.6z"/>
		<path class="st8" d="M120.1,66c-5.6,2.1-2.2,9.7,2.7,7.8c1.8-0.7,3.3-2.9,2.4-5.4C124.7,67,122.5,65.1,120.1,66z"/>
	</g>
	<g id="_1055542832">
		<path class="st11" d="M255.6,61.7c-1.8-7.5,9-10.3,11.1-3.1c1,3.4-1.2,6.3-3.9,7.1C259.6,66.8,256.3,64.4,255.6,61.7z M271.5,59.8
			l7.6,1.5c0.7,0.1,1.1,0.8,1,1.4l0,0c-0.1,0.7-0.8,1.1-1.4,1l-7.6-1.5c-0.7-0.1-1.1-0.8-1-1.4l0,0
			C270.2,60.1,270.9,59.7,271.5,59.8z M272.3,56.2l7.6,1.5c0.7,0.1,1.1,0.8,1,1.4l0,0c-0.1,0.7-0.8,1.1-1.4,1l-7.6-1.5
			c-0.7-0.1-1.1-0.8-1-1.4l0,0C271,56.5,271.7,56,272.3,56.2z M273.1,52.7l7.6,1.5c0.7,0.1,1.1,0.8,1,1.4l0,0
			c-0.1,0.7-0.8,1.1-1.4,1l-7.6-1.5c-0.7-0.1-1.1-0.8-1-1.4l0,0C271.8,53,272.5,52.6,273.1,52.7z M234.8,50.2l-1.2,0.1l1.5,0v3.2
			c3.3,0,5.5-0.3,8.2,0.6c2.2,0.7,3.9,1.9,5.6,3.3c2.7,2.2,6.1,7.2,5.6,12.3h24.7c2.2-2,3.4-6.6,4.5-9.7c1.2-3.1,3.2-7.2,3.9-10.4
			c-1.4,0.3-0.7,0.5-2.5,0.6h-8.4c-3.9,0-7.3,0.8-8.6-2.4v1.8c-3.6,0.1-7-0.7-10-0.6c-1.9,0-1.8-0.3-3-0.5c-1-0.1-1.9,0-2.9,0
			c-3.1-0.1-12.9-1.6-16.8-1.8v2.8C235.2,50.7,235.6,49.9,234.8,50.2L234.8,50.2z"/>
		<path class="st12" d="M223.4,62.9c-0.7,1.9-1.8,4.7-1.5,6.9l32.5-0.2c0.4-5.1-3-10-5.6-12.3c-1.7-1.4-3.4-2.6-5.6-3.3
			c-2.8-0.9-4.9-0.6-8.2-0.6c-3,1.3-4.6,1.5-7.1,3.5C226.4,58.3,224.2,60.9,223.4,62.9z"/>
		<path class="st13" d="M268,44.7l0.1,3.1c1.3,3.1,4.7,2.4,8.6,2.4h8.4c1.8-0.1,1.1-0.3,2.5-0.6c1.6-1.9,2.6-6.5,1.1-9.5
			c-3.6-7.5-11.3-3.6-15.7-1.5C270.3,40,268.8,41.6,268,44.7L268,44.7z"/>
		<path class="st14" d="M258.1,49c3-0.1,6.4,0.8,10,0.6v-1.8l0.1-1l-0.9-1.8c-1.6-5.2-8.2-4.8-10.4-5.3c-4.8-0.4-12.5-1.8-16.8-2.1
			c-9.1-0.1-10.1-2.4-10,7.2l-0.3,2.3c0,0.1-0.1,0.3-0.1,0.3c0,0-0.1,0.2-0.1,0.3l0.8-0.1c1.8-1,2.8-0.6,4.9-0.9l0.2,0.3
			C242.3,47.4,251.2,49,258.1,49L258.1,49z"/>
		<path class="st11" d="M223.2,75.6c0.9,5.4,7,9.5,12.4,10.5c6.9,1.3,15.7-3.4,17.7-10.4c-2.1-0.1-4.8-0.8-6.2,0
			c-1.2,4.6-9.4,6.6-14.3,3.6c-1-0.7-3.4-2.5-3.8-3.7C228.3,75.2,223.2,74.9,223.2,75.6L223.2,75.6z"/>
		<path class="st15" d="M230.3,47.4l-0.8,0.1c-1,0.7-2.3,0.8-5.1,2.8c-3.9,2.8-9.6,9.7-9.1,14.1l3.1,0.5c1-1.7,2.8-12.2,15-14.5
			l1.2-0.1c0.8-0.4,0.4,0.4,0.6-0.7v-2.8l-0.2-0.3C233,46.8,232.1,46.4,230.3,47.4L230.3,47.4z"/>
		<path class="st16" d="M259.6,57.2c4-2.4,7,3.8,3.4,5.8C258.9,65.4,255.8,59.4,259.6,57.2z M255.6,61.7c0.6,2.7,3.9,5.1,7.2,4
			c2.8-0.9,4.9-3.7,3.9-7.1C264.7,51.4,253.9,54.2,255.6,61.7z"/>
		<path class="st17" d="M259.6,57.2c-3.8,2.2-0.8,8.1,3.4,5.8C266.6,61.1,263.6,54.9,259.6,57.2z"/>
		<path class="st14" d="M253.7,75.8c8.6-0.6,14.4,1.8,21.3-2.4c1.5-0.9,3.6-2.3,4.1-3.9h-24.7l-33,0.1c-5.7,0-5.9-1.2-5.3,6h6.2
			L253.7,75.8L253.7,75.8z"/>
		<path class="st18" d="M282.7,26.3c-2.3,0-4.6,0-6.8,0c-1.7,1.2-1.4,2.5,0,3.9h6.8V26.3z"/>
		<path class="st12" d="M295.6,31.2h5.4v11.6l-5.5,0c-1.2-2.4-2.6-4.8-3.9-7.1C291.8,33.6,293.3,32.2,295.6,31.2L295.6,31.2z"/>
		<path class="st12" d="M288.6,63.5c-1.1-0.5-2.3-1.1-3.4-1.6c5.6-14.5,20.4-19.1,34-12.9c-0.6,1.1-1.2,2.3-1.8,3.4
			C306.6,46.1,292.5,51.3,288.6,63.5L288.6,63.5z"/>
		<path class="st18" d="M307.7,53.8c-9.1,0-16.4,7.3-16.4,16.4c0,9.1,7.3,16.4,16.4,16.4c9.1,0,16.4-7.3,16.4-16.4
			C324.1,61.1,316.8,53.8,307.7,53.8z M307.5,59.1c14.2,0,14.2,22.1,0,22.1C293.3,81.2,293.3,59.1,307.5,59.1z"/>
		<path class="st14" d="M306,70.5c1.4,2.1,4.2,1,2.8-1.7l-22.7-42.2h-3.6V30h1.9C291.7,43.5,298.8,57,306,70.5L306,70.5z"/>
		<polygon class="st19" points="240.2,37.6 242.1,37.7 242.1,47.5 240.2,47.2 		"/>
		<polygon class="st19" points="253.3,39.3 255.3,39.4 255.3,48.9 253.3,48.7 		"/>
	</g>
	<g id="_1058016352">
		<path class="st20" d="M288.2,274.5c-0.2,5.2-4.5,9.4-9.8,9.4c-5.3,0-9.6-4.2-9.8-9.4l0,0V209h3.1v65.5h0c0.2,3.5,3.1,6.3,6.7,6.3
			c3.6,0,6.5-2.8,6.7-6.3H288.2z"/>
		<path class="st21" d="M269.9,213.8c17.2,0,31.8,11.6,36.1,27.5h-72.2C238.2,225.4,252.7,213.8,269.9,213.8z"/>
		<path class="st22" d="M269.9,213.8c12.4,0,22.8,11.6,26,27.5h-12.8C281.5,225.4,276.3,213.8,269.9,213.8
			c-12.4,0-22.8,11.6-26,27.5h12.8C258.3,225.4,263.6,213.8,269.9,213.8z"/>
	</g>
	<g id="_1058018368">
		<path class="st23" d="M70.1,220.3H87v4.9h4.1c0-2.1,0-4.1,0-6.2c0-1.9-1-2.7-2.8-2.7c-6.4,0-12.8,0-19.2,0c-2-0.1-2.9,0.9-2.9,2.7
			v6.2h4L70.1,220.3z"/>
		<path class="st24" d="M43.3,224.4h5.9c0.1-0.9,0.6-1.6,1.8-1.9c1.6,0,3.4,0,5,0c1.1,0.4,1.5,1.1,1.6,1.9h42
			c0.1-0.9,0.6-1.6,1.8-1.9c1.6,0,3.4,0,5,0c1.1,0.4,1.5,1.1,1.6,1.9h5.7c1.3,0,2.5,1.1,2.5,2.5v45.6c0,1.3-1.1,2.5-2.5,2.5H43.2
			c-1.3,0-2.5-1.1-2.5-2.5v-45.6C40.8,225.5,41.9,224.4,43.3,224.4L43.3,224.4z"/>
		<path class="st25" d="M43.3,224.8h70.5c1.3,0,2.5,1.1,2.5,2.5v40.7c0,1.3-1.1,2.5-2.5,2.5H43.3c-1.3,0-2.5-1.1-2.5-2.5v-40.7
			C40.8,225.9,41.9,224.8,43.3,224.8z"/>
		<path class="st10" d="M70.1,245.6h17.1c2.3,0,4.2,1.9,4.2,4.2l0,0c0,2.3-1.9,4.2-4.2,4.2H70.1c-2.3,0-4.2-1.9-4.2-4.2l0,0
			C66,247.5,67.8,245.6,70.1,245.6z"/>
		<path class="st10" d="M82.8,238.3v22.9c0,0.7-0.6,1.2-1.2,1.2h-5.8c-0.7,0-1.2-0.6-1.2-1.2v-22.9c0-0.7,0.6-1.2,1.2-1.2h5.8
			C82.2,237.1,82.8,237.6,82.8,238.3z"/>
	</g>
</g>
<g>
	<path class="st26" d="M43.9,462.6c-1.3-0.8-2.6-1.7-3.3-3.2c-0.3-0.6-0.3-1.2-0.6-1.7c0-0.7,0-1.3,0-2c0.5-2.4,2.2-4.1,3.5-6.1
		c2.3-3.6,4.7-7.1,7.1-10.6c2.2-3.3,5.9-4,9.2-1.8c0.3,0.2,0.7,0.5,1,0.7c0.1,0.2-0.1,0.4-0.2,0.5c-1.7,2.4-3.3,4.9-5,7.3
		c-2.3,3.3-4.5,6.7-6.8,10c-1.4,2.1-2.9,4.2-4.3,6.3C44.3,462.3,44.3,462.7,43.9,462.6z"/>
	<path class="st27" d="M95.4,417.8c0,2.5,0,4.9,0,7.4c0,0.4-0.1,0.6-0.5,0.6c0,0-0.1,0-0.1,0c-0.1,0-0.2-0.1-0.3-0.1
		c-3.5,0-7,0-10.5,0c-0.1,0-0.3,0-0.4,0c-0.1,0-0.1,0-0.2,0c0,0-0.1,0-0.1,0c-1-0.1-1-0.1-1-1c0-2.8,0-5.6,0-8.4
		c-0.1-0.2,0-0.4,0.2-0.6c0.8-1,1.6-2.1,2.5-3.1c0.1-0.1,0.3-0.3,0.4-0.4c0.3-0.1,0.5,0.1,0.7,0.3c0.3,0.1,0.5,0.2,0.7,0
		c1.8-1.5,3.7-2.8,5.1-4.7c0.6-0.9,1.1-1.8,1.2-3c0-0.8-0.3-1.5-0.9-2.1c-0.3-0.3-0.7-0.6-1.1-0.8c-1.4-0.8-2.8-0.6-4.1,0.3
		c-1.4,1-2.4,2.5-3.2,4c-0.4,0.8-0.9,1.5-1.2,2.4c-0.1,0.1-0.1,0.3-0.3,0.3c0-2-0.2-4.1,0.1-6.1c0.4-2.4,1.9-4.1,4.3-4.9
		c0.1-0.1,0.3-0.2,0.4-0.2c0.8,0,1.7,0,2.5,0c0.2,0,0.3,0.1,0.4,0.1c2.3,0.2,4.3,2,5,4.5c0.2,0.6,0.2,1.2,0.2,1.8c0,2.5,0,5,0,7.6
		c0.1,0.2,0.2,0.5,0.2,0.8c0,1.5,0,3,0,4.5C95.5,417.3,95.5,417.6,95.4,417.8z"/>
	<path class="st28" d="M86.5,397.6c-0.2-0.1-0.5-0.2-0.6,0.1c0,0.1-0.1,0.2-0.2,0.1c-0.4-0.3-0.6,0.1-0.9,0.3c0-1-0.6-1.5-1.3-2
		c-2.2-1.7-4-3.6-5-6.2c-0.6-1.7-0.6-3.3,0.5-4.8c0.1-0.1,0.1-0.2,0.1-0.4c0.2-1.7,1-2.8,2.4-3.6c1.3-0.7,2.7-1,4.1-1.1
		c1.2-0.1,2.3-0.1,3.5-0.1c1.4,0,1.9-0.4,2-1.8c0.8,0.3,1.1,1.1,1.1,2.8c0.4-0.1,0.4-0.1,1.1-1.4c0.4,0.7,0.3,1.1-0.4,2.5
		c0.7-0.1,1.2-0.6,1.8-0.9c0,0.7-0.5,1.4-1.8,2.5c-0.1,0.3-0.4,0.5-0.7,0.6c-1,0.5-2,0.7-3,0.5c-0.4-0.1-0.7-0.1-1.1-0.2
		c-0.4-0.1-0.7,0.1-0.8,0.4c-0.2,0.4-0.3,0.9-0.4,1.3c-0.1,1.3,0.2,2.6,0.5,3.9c0.1,0.3,0.1,0.5,0.2,0.8c0.1,0.4-0.1,0.7-0.5,0.9
		c-0.4,0.2-0.6-0.1-0.7-0.3c-0.5-0.9-1.4-1.4-2.4-1.5c-1.3-0.2-1.8,0.4-1.5,1.7c0.2,0.9,1,1.5,2,1.5c0.3,0,0.6,0,1,0
		c0.6,0,0.9,0.3,0.9,0.9c0,0.5-0.1,0.9,0,1.4c0.1,0.5,0.1,0.9,0.2,1.4C86.7,397.3,86.8,397.5,86.5,397.6z"/>
	<path class="st29" d="M86.5,397.6c0.1-0.1,0.1-0.2,0-0.2c-0.3-1-0.4-2.1-0.3-3.2c0.1-0.5-0.2-0.8-0.7-0.8c-0.5,0-1.1,0-1.6-0.1
		c-1.2-0.3-1.9-1.5-1.6-2.7c0.1-0.5,0.5-0.8,1.1-0.8c1.3,0,2.4,0.3,3.2,1.5c0.1,0.2,0.2,0.6,0.6,0.4c0.4-0.2,0.5-0.4,0.4-0.9
		c-0.4-1.5-0.8-3-0.7-4.5c0-0.4,0.1-0.7,0.2-1c0.3-0.8,0.6-1.1,1.5-0.9c0.7,0.2,1.4,0.2,2.2,0.2c0.9-0.1,1.7-0.4,2.4-1
		c0.4,0.9,0.7,1.8,0.7,2.8c0,0.7,0.4,1.3,1.1,1.6c0.6,0.3,0.7,0.5,0.3,1.1c-0.2,0.2-0.2,0.4-0.1,0.7c0.2,1,0.5,2.1,0.5,3.1
		c0,0.8-0.3,1.3-1.1,1.6c-1.1,0.5-2.2,0.7-3.4,0.6c-0.3,0-0.5,0.1-0.5,0.4c-0.1,0.8-0.3,1.5-0.2,2.3c-1.1,0-2.3,0-3.4,0
		C86.7,397.7,86.6,397.7,86.5,397.6z"/>
	<path class="st29" d="M85.4,412.3c-0.9,1.1-1.9,2.2-2.8,3.4c-0.1,0.2-0.3,0.3-0.3,0.6c-0.6,0.5-1,1.2-1.5,1.8
		c-2.5,3.3-4.9,6.8-7,10.4c-0.7,1.2-1.4,2.4-2,3.6c-0.1,0.3-0.2,0.5-0.5,0.7c-0.1-0.1-0.1-0.1-0.1-0.2c0-0.3,0-0.5,0-0.8
		c-0.3-0.8-0.7-1.2-1.6-1.2c-0.7,0-1.2,0.4-1.4,1.2c0,0.2,0,0.4,0,0.7c0,0.1-0.1,0.2-0.1,0.2c-0.4-0.6-0.4-1.2-0.1-1.8
		c1.1-2.1,2.2-4.2,3.5-6.2c0.1-0.1,0.1-0.2,0.2-0.3c1.6-2.7,3.4-5.2,5.3-7.8c1.5-2,3-4,4.6-5.9c0.1-0.2,0.3-0.3,0.3-0.5
		c0.2-0.1,0.4,0.1,0.5,0.2c0.9,0.5,1.8,1,2.6,1.5C85.2,412,85.4,412.1,85.4,412.3z"/>
	<path class="st26" d="M45.1,463.5c-0.2-0.1-0.4-0.3-0.6-0.4c-0.2-0.2,0-0.4,0.1-0.6c2-3.1,4.1-6.1,6.2-9.1c1-1.5,2.1-3,3.1-4.6
		c2.3-3.3,4.5-6.7,6.8-10c0.1-0.2,0.2-0.6,0.6-0.5c0.8,0.5,1.6,1.1,2.4,1.6c0.1,0.2-0.1,0.4-0.2,0.6c-2.2,3.3-4.5,6.6-6.7,9.9
		c-2.6,3.9-5.2,7.8-7.9,11.7c-0.1,0.1-0.2,0.3-0.3,0.4c-0.4,0.1-0.7-0.1-1.1-0.1c-0.7,0.1-1.3,0.2-1.8,0.7
		C45.5,463.3,45.4,463.5,45.1,463.5z"/>
	<path class="st30" d="M85.4,412.3c-1-0.7-2-1.2-3-1.8c-0.2-0.1-0.3-0.2-0.5-0.3c0.1-0.4,0.3-0.9,0.4-1.3c0.6-1.3,1.2-2.6,2-3.8
		c0.7-1.1,1.5-2.1,2.5-2.9c1.9-1.5,3.8-1.2,5.5,0.4c1.1,1.1,1.2,2.4,0.6,3.8c-0.8,1.8-2.2,3.1-3.7,4.3c-0.7,0.6-1.5,1.1-2.2,1.8
		c-0.4,0.3-0.7,0.3-1,0.1C85.8,412.5,85.6,412.4,85.4,412.3z"/>
	<path class="st29" d="M95.4,417.8c0-2,0-4,0-6c0.8,0.9,1.6,1.8,2.3,2.7c1.2,1.4,2.6,2.6,4,3.8c1,0.8,2.1,1.4,3,2.3
		c0.6,0.7,1.4,0.9,2.1,1.2c0.6,0.2,0.9,0.7,1.5,0.9c-0.3,0.2-0.6,0.2-1.1,0.1c0.7,0.6,1.2,1.1,1.8,1.5c0,0,0,0.1,0,0.1
		c-0.2,0-0.3,0.3-0.4,0.4c-0.3,0.5-0.7,0.9-1.2,1.2c-0.5,0.2-0.9,0.2-1.3-0.1c-0.4-0.4-0.9-0.8-1.3-1.1c-0.5-0.4-1-0.9-1.8-1
		c-0.7,0-1.1-0.6-1.7-1c-2.1-1.4-4-3.1-5.7-4.9C95.5,417.9,95.4,417.9,95.4,417.8z"/>
	<path d="M48.6,462.4c0.4-0.9,1-1.6,1.6-2.4c1.8-2.7,3.6-5.4,5.4-8.1c2.1-3.2,4.3-6.3,6.4-9.5c0.6-0.8,1.1-1.7,1.6-2.5
		c1.4-2,2.8-4.1,4.1-6.1c0.1-0.2,0.3-0.4,0.4-0.6c0.4,0.1,0.8,0.3,1.1,0.7c-3.8,5.6-7.6,11.3-11.4,16.9c-2.7,4.1-5.5,8.1-8.2,12.2
		C49.1,463.1,48.8,462.8,48.6,462.4z"/>
	<path d="M61.2,438.3c-0.2,0-0.3,0.3-0.4,0.4c-3.1,4.6-6.1,9.1-9.2,13.7c-2.3,3.4-4.6,6.8-6.9,10.1c-0.1,0.2-0.3,0.3-0.3,0.5
		c-0.2-0.1-0.4-0.3-0.6-0.4c0.6-0.6,1-1.4,1.5-2c1.6-2.3,3.1-4.5,4.6-6.8c1.9-2.8,3.8-5.6,5.7-8.4c1.7-2.5,3.4-5,5.1-7.4
		C60.9,438,61.1,438.1,61.2,438.3z"/>
	<path class="st31" d="M69.3,433.9c-0.4-0.2-0.7-0.4-1.1-0.7c-0.1-0.1-0.1-0.3-0.2-0.4c0-0.1,0-0.1,0-0.2c0.1-0.2,0-0.5,0-0.7
		c0.2-0.8,0.8-1.3,1.6-1.3c0.8,0,1.4,0.5,1.6,1.3c-0.1,0.2,0,0.5,0,0.7c0,0.1,0,0.2,0,0.2C70.9,433.6,70.2,433.9,69.3,433.9z"/>
	<path class="st32" d="M71.6,424.5c0,0.2,0,0.3-0.2,0.3C71.4,424.6,71.5,424.5,71.6,424.5z"/>
	<path class="st33" d="M94.8,425.7c-0.2,2.4,0.2,4.6,1,6.9c0.8,2.6,1.5,5.3,2.3,7.9c0.2,0.5,0.1,1.1,0.1,1.6
		c-0.2,2.6-0.4,5.2-0.6,7.8c-0.2,3.2-0.5,6.3-0.7,9.5c0,0.3-0.1,0.3-0.4,0.3c-0.1,0-0.3,0-0.4,0c-0.2,0.1-0.4,0.2-0.5,0.1
		c-1.4-0.1-2.8-0.2-4.2-0.3c-0.3,0-0.6-0.1-0.9-0.2c-0.3,0-0.4-0.1-0.4-0.4c0.4-4.7,0.8-9.4,1.1-14.2c0.1-0.9,0.1-1.8,0.2-2.6
		c0-0.1,0-0.2-0.1-0.4c-0.9-1.4-1.8-2.9-2.7-4.2c-0.2,0-0.3-0.2-0.4-0.4c-0.4-0.6-0.8-1.2-1.2-1.8c-0.2-0.3-0.4-0.5-0.8-0.7
		c-1.6-0.8-2.5-2.1-3-3.7c-0.2-0.6-0.1-1.3-0.1-1.9c0.1-1,0-2,0.1-3c0.2-0.3,0.5-0.3,0.8-0.3c3.2,0,6.3,0,9.5,0c0.3,0,0.6,0,0.8,0
		C94.5,425.7,94.7,425.7,94.8,425.7L94.8,425.7z"/>
	<path class="st34" d="M83.2,428.9c0.1,0.9,0.1,1.8,0.6,2.7c0.5,1.2,1.3,2.1,2.5,2.7c0.4,0.2,0.8,0.5,1,0.9c0.4,0.7,0.9,1.4,1.3,2.2
		c-0.2,0.9-0.3,1.7-0.4,2.6c-0.1,0.5-0.2,0.9-0.5,1.3c-3,5-6,10.1-8.9,15.1c-0.2,0.3-0.3,0.4-0.6,0.2c-0.2,0-0.3,0-0.5-0.1
		c-1.3-0.8-2.7-1.6-4-2.4c-0.2-0.1-0.3-0.2-0.4-0.4c-0.6-0.4-0.6-0.4-0.2-1c2.5-4.3,5-8.6,7.6-12.9c0.7-1.1,1.1-2.3,1.3-3.5
		C82.2,433.8,82.7,431.4,83.2,428.9z"/>
	<path d="M90.4,459.2c1.9,0.1,3.8,0.3,5.6,0.4c0,0.4,0,0.8,0,1.2c0,0.3,0.1,0.4,0.4,0.4c1.2,0,2.4,0,3.7,0c1.6,0,2.7,1.2,2.6,2.8
		c-0.2,0.2-0.5,0.2-0.7,0.2c-3.6,0-7.3,0-10.9,0c-0.2,0-0.5,0-0.7-0.2C90.4,462.5,90.4,460.8,90.4,459.2z"/>
	<path d="M73.2,453.7c1.6,1,3.3,1.9,4.9,2.9c-0.4,0.4-0.7,0.9-1.1,1.3c-0.2,0.2-0.2,0.4,0,0.6c0.9,0.8,1.8,1.5,2.7,2.3
		c1.2,1.1,1.3,2.8,0.2,3.9c-0.6-0.2-0.9-0.7-1.4-1c-2.4-2-4.7-4-7.1-6.1c-0.3-0.2-0.7-0.4-0.8-0.9C71.5,455.7,72.4,454.7,73.2,453.7
		z"/>
	<path d="M48.6,462.4c0.4,0.2,0.7,0.4,1.1,0.6c0.2,0.5,0.6,0.9,0.7,1.5c0.2,1.2-0.4,2.4-1.4,3c-1.1,0.6-2.4,0.4-3.3-0.4
		c-0.9-0.8-1.2-2.1-0.7-3.2c0.1-0.2,0.1-0.3,0.2-0.5c0.6-0.6,1.2-1.1,2.1-1.2C47.7,462.2,48.1,462.3,48.6,462.4z"/>
	<path class="st35" d="M94.5,425.8c-0.2,0.2-0.4,0.1-0.6,0.1c-3.3,0-6.6,0-10,0c-0.2,0-0.5,0-0.7,0.1c0-0.1,0-0.1,0-0.2c0,0,0,0,0,0
		c0.2-0.1,0.4-0.1,0.6-0.1c3.4,0,6.8,0,10.1,0C94.1,425.6,94.3,425.6,94.5,425.8z"/>
	<path class="st36" d="M94.5,425.8c-3.3,0-6.6,0-9.9,0c-0.5,0-0.9,0-1.4,0c0,0,0.1-0.1,0.1-0.1c0.1-0.1,0.3,0,0.4,0
		c3.5,0,7.1,0,10.6,0c0.1,0,0.2,0,0.3,0c0.1,0,0.2,0,0.2,0.1C94.7,425.7,94.6,425.7,94.5,425.8z"/>
	<path class="st37" d="M94.6,425.6c-3.8,0-7.5,0-11.3,0c0.2-0.2,0.4-0.1,0.6-0.1c3.3,0,6.6,0,9.9,0
		C94.1,425.5,94.4,425.3,94.6,425.6z"/>
	<path class="st38" d="M71.3,432.5c-0.1-0.2-0.1-0.5,0-0.7C71.4,432,71.4,432.3,71.3,432.5z"/>
	<path class="st39" d="M68,431.8c0.1,0.2,0.2,0.5,0,0.7C68,432.3,68,432,68,431.8z"/>
	<path class="st40" d="M48.8,464.3c0,0-0.1,0.1-0.1,0.1c-0.7,1.1-0.7,1.1-1.7,0.3c0-0.5,0.4-0.9,0.8-1.2
		C48.2,463.6,48.7,463.7,48.8,464.3z"/>
</g>
</svg>
