<?xml version="1.0" encoding="UTF-8"?>
<!DOCTYPE svg PUBLIC "-//W3C//DTD SVG 1.1//EN" "http://www.w3.org/Graphics/SVG/1.1/DTD/svg11.dtd">
<!-- Creator: CorelDRAW X6 -->
<svg xmlns="http://www.w3.org/2000/svg" xml:space="preserve" width="150px" height="4648px" version="1.1" style="shape-rendering:geometricPrecision; text-rendering:geometricPrecision; image-rendering:optimizeQuality; fill-rule:evenodd; clip-rule:evenodd"
viewBox="0 0 150 4633"
 xmlns:xlink="http://www.w3.org/1999/xlink">
 <defs>
  <style type="text/css">
   <![CDATA[
    .str0 {stroke:#2B2A29;stroke-width:1.17489}
    .str1 {stroke:#2B2A29;stroke-width:1.46803}
    .str3 {stroke:#2B2A29;stroke-width:2.93723}
    .str2 {stroke:#4E565A;stroke-width:2.93723}
    .fil5 {fill:none}
    .fil4 {fill:#2B2A29}
    .fil0 {fill:#7690C9}
    .fil6 {fill:#006CD8}
    .fil30 {fill:#008DD2}
    .fil3 {fill:#050505}
    .fil1 {fill:#060606}
    .fil27 {fill:#0B5BA6}
    .fil26 {fill:#232A2C}
    .fil11 {fill:#2B2A29}
    .fil34 {fill:#325024}
    .fil18 {fill:#379138}
    .fil23 {fill:#3A3B3F}
    .fil10 {fill:#3A4855}
    .fil25 {fill:#3F3183}
    .fil20 {fill:#434242}
    .fil32 {fill:#4FBBB2}
    .fil36 {fill:#53201D}
    .fil12 {fill:#5B5B5B}
    .fil7 {fill:#A2D9F7}
    .fil15 {fill:#A79ECD}
    .fil8 {fill:#C7E8FB}
    .fil33 {fill:#CC6F3C}
    .fil14 {fill:#D2CDE7}
    .fil31 {fill:#DF2924}
    .fil28 {fill:#E31E24}
    .fil24 {fill:#E5097F}
    .fil13 {fill:#E51A4B}
    .fil17 {fill:#E6253C}
    .fil21 {fill:#E63F23}
    .fil35 {fill:#EBECEC}
    .fil22 {fill:#EF7F1A}
    .fil16 {fill:#F07886}
    .fil19 {fill:#FECC00}
    .fil2 {fill:#FEFEFE}
    .fil29 {fill:#FFED00}
    .fil9 {fill:black;fill-opacity:0.000000}
   ]]>
  </style>
   <clipPath id="id0">
    <path d="M40 613l58 0 0 26 24 0 3 8 0 68c0,0 0,19 -20,12 0,0 -9,-10 -8,-12 2,-2 -57,0 -57,0l1 -102 -1 0z"/>
   </clipPath>
   <clipPath id="id1">
    <path d="M40 613l58 0 0 26 24 0 3 8 0 68c0,0 0,19 -20,12 0,0 -9,-10 -8,-12 2,-2 -57,0 -57,0l1 -102 -1 0z"/>
   </clipPath>
   <clipPath id="id2">
    <path d="M61 1249l-2 4c0,0 -1,1 -1,0l-10 -6c0,0 -1,-1 -1,-1l4 -8c0,0 0,0 0,0l15 -29c1,-1 2,-1 3,-1l42 22c1,1 2,2 1,3l-15 29c0,0 0,0 0,0l-4 8c0,0 -1,1 -1,0l-10 -6c0,0 -1,-1 -1,-1l2 -4 -24 -13 1 0z"/>
   </clipPath>
   <clipPath id="id3">
    <path d="M61 1249l-2 4c0,0 -1,1 -1,0l-10 -6c0,0 -1,-1 -1,-1l4 -8c0,0 0,0 0,0l15 -29c1,-1 2,-1 3,-1l42 22c1,1 2,2 1,3l-15 29c0,0 0,0 0,0l-4 8c0,0 -1,1 -1,0l-10 -6c0,0 -1,-1 -1,-1l2 -4 -24 -13 1 0z"/>
   </clipPath>
   <clipPath id="id4">
    <path d="M62 1263l10 3c1,0 1,1 1,2l-11 34 3 1c1,1 2,1 1,3l-6 19c-1,1 -1,2 -3,1l-20 -7c-1,-1 -2,-1 -1,-3l6 -19c1,-1 1,-2 3,-1l3 1 11 -34c0,-1 1,-1 2,-1l0 0z"/>
   </clipPath>
   <clipPath id="id5">
    <path d="M62 1263l10 3c1,0 1,1 1,2l-11 34 3 1c1,1 2,1 1,3l-6 19c-1,1 -1,2 -3,1l-20 -7c-1,-1 -2,-1 -1,-3l6 -19c1,-1 1,-2 3,-1l3 1 11 -34c0,-1 1,-1 2,-1l0 0z"/>
   </clipPath>
   <clipPath id="id6">
    <path d="M75 314l1 0c2,7 14,13 29,13 12,0 22,-3 26,-8 1,52 -17,90 -55,114 -35,-25 -56,-61 -55,-114 4,5 15,8 26,8 15,0 26,-6 29,-13l-1 0z"/>
   </clipPath>
   <clipPath id="id7">
    <path d="M75 314l1 0c2,7 14,13 29,13 12,0 22,-3 26,-8 1,52 -17,90 -55,114 -35,-25 -56,-61 -55,-114 4,5 15,8 26,8 15,0 26,-6 29,-13l-1 0z"/>
   </clipPath>
 </defs>
 <g id="Layer_x0020_1">
  <metadata id="CorelCorpID_0Corel-Layer"/>
  <g id="_862492176">
   <path class="fil0" d="M56 4603c3,21 -10,19 49,19 39,0 35,7 35,-32 0,-37 0,-29 -19,-48 -5,-5 -11,-10 -16,-17 -2,-3 -2,0 -2,-6l0 -19c0,-2 0,-7 -6,-7l-56 -1c-36,0 -30,-3 -30,32 0,21 0,41 0,62 0,15 0,17 15,16 10,0 20,0 31,0zm47 -46l21 0 -21 -21 0 21zm-74 -55c-1,3 -1,5 0,8l55 0c2,-12 1,-9 -22,-9 -6,0 -28,-1 -32,1zm36 110l65 0 0 -46c-42,-3 -38,10 -37,-37l-28 0 0 83z"/>
   <path class="fil1" d="M95 4572c-24,4 -17,39 6,35 22,-4 17,-39 -6,-35z"/>
   <path class="fil2" d="M95 4577c-18,5 -10,31 7,26 18,-5 10,-31 -7,-26z"/>
   <path class="fil3" d="M96 4591c-3,-4 -6,-1 -5,2 0,1 3,7 4,7l3 0c2,-2 3,-6 4,-9 1,-3 4,-6 2,-10 -6,-2 -4,4 -8,9z"/>
   <path class="fil4" d="M23 4539c2,-5 -4,-5 -5,-3 -1,4 3,6 5,3zm0 21c2,-5 -4,-5 -5,-3 -1,4 3,6 5,3zm6 1c6,0 23,0 28,0 1,-2 1,-2 0,-4 -2,-1 -27,-1 -29,0 -1,0 -2,1 -2,3 0,2 1,2 3,2zm-6 -12c2,-5 -4,-5 -5,-3 -1,4 3,6 5,3zm6 1c6,0 23,0 28,0 1,-2 1,-2 0,-4 -2,-1 -27,-1 -29,0 -1,0 -2,1 -2,3 0,2 1,2 3,2zm0 -11c6,0 23,0 28,0 1,-2 1,-2 0,-4 -2,-1 -27,-1 -29,0 -1,0 -2,1 -2,3 0,2 1,2 3,2z"/>
  </g>
  <rect class="fil5" y="4483" width="150" height="150"/>
  <rect class="fil5" y="1791" width="150" height="150"/>
  <rect class="fil5" y="895" width="150" height="150"/>
  <rect class="fil5" y="2387" width="150" height="150"/>
  <rect class="fil5" y="1492" width="150" height="150"/>
  <rect class="fil5" y="2686" width="150" height="150"/>
  <rect class="fil5" width="150" height="150"/>
  <rect class="fil5" y="298" width="150" height="150"/>
  <rect class="fil5" y="597" width="150" height="150"/>
  <rect class="fil5" y="1193" width="150" height="150"/>
  <rect class="fil5" y="2089" width="150" height="150"/>
  <rect class="fil5" y="2984" width="150" height="150"/>
  <rect class="fil5" y="3282" width="150" height="150"/>
  <rect class="fil5" y="3581" width="150" height="150"/>
  <rect class="fil5" y="3879" width="150" height="150"/>
  <rect class="fil5" y="4182" width="150" height="150"/>
  <path class="fil2" d="M52 79c0,-1 -18,51 -18,51l64 1 9 -16 -15 -16 -14 -24c0,0 -22,-1 -24,1 -2,2 -2,2 -2,2l1 -1z"/>
  <path class="fil6" d="M90 106c4,0 6,0 8,2 1,1 2,1 3,3 3,4 1,9 -2,12 -2,1 -3,3 -5,5 -1,1 -1,1 -3,1 -18,0 -37,0 -54,0 1,-2 1,-4 2,-6 2,-5 3,-11 6,-16 1,-1 1,-2 1,-3 2,-5 3,-11 6,-16 1,-1 3,-8 3,-10 -3,1 -5,3 -8,4 -8,6 -15,13 -15,25l0 27c0,1 0,1 1,1l84 0c1,0 1,0 1,-1l0 -28c0,-24 -23,-31 -43,-31l6 13c1,1 1,1 1,2l6 11c1,1 2,3 2,4l1 0z"/>
  <path class="fil6" d="M48 41c0,6 1,12 5,17 10,15 32,15 42,0 3,-3 5,-10 5,-15 0,-7 -1,-12 -5,-17 -1,-2 -4,-5 -6,-6 -8,-5 -17,-6 -26,-2 -2,1 -4,2 -6,3 -6,5 -10,12 -10,19l1 0z"/>
  <path class="fil6" d="M86 122c5,0 9,1 12,-2 5,-3 2,-10 -4,-12 -4,-1 -9,0 -13,0 0,1 1,3 1,3 1,1 1,2 1,3l2 5c0,1 0,1 1,1l0 1z"/>
  <path class="fil6" d="M80 106l5 0c0,-1 -14,-29 -14,-31l-2 0c0,1 1,3 1,4l3 8c1,1 1,3 1,4l6 15 0 -1z"/>
  <path class="fil6" d="M86 124c0,1 1,2 1,3 3,0 2,0 3,-1 1,-1 2,-1 2,-3l-7 0 1 1z"/>
  <polygon class="fil7" points="27,714 96,715 102,728 34,727 26,718 "/>
  <polygon class="fil7 str0" points="97,615 122,640 97,640 "/>
  <path class="fil8" d="M40 613l58 0 0 26 24 0 3 8 0 68c0,0 0,19 -20,12 0,0 -9,-10 -8,-12 2,-2 -57,0 -57,0l1 -102 -1 0z"/>
  <g style="clip-path:url(#id0)">
   <polygon class="fil9" points="40,613 125,613 125,728 40,728 "/>
  </g>
  <g style="clip-path:url(#id1)">
   <g id="_863408016">
    <path id="1" class="fil7" d="M118 656c0,19 -10,37 -26,46 0,1 -1,1 -1,1 -8,4 -16,7 -25,7 -8,0 -17,-2 -24,-6 0,6 0,9 0,9 0,0 0,0 1,0l28 0c3,0 19,0 22,0 1,0 1,0 1,0 1,0 1,0 1,0 4,0 3,1 4,3 0,3 1,6 3,7 2,2 6,4 11,3 3,-1 6,-3 8,-6 1,-2 1,-3 1,-6 0,-19 0,-41 0,-60 0,-3 0,-6 0,-9 -2,0 -3,0 -6,0 1,4 1,8 1,13l0 -1z"/>
   </g>
  </g>
  <path class="fil5" d="M40 613l58 0 0 26 24 0 3 8 0 68c0,0 0,19 -20,12 0,0 -9,-10 -8,-12 2,-2 -57,0 -57,0l1 -102 -1 0z"/>
  <path class="fil5" d="M40 613l58 0 0 26 24 0 3 8 0 68c0,0 0,19 -20,12 0,0 -9,-10 -8,-12 2,-2 -57,0 -57,0l1 -102 -1 0z"/>
  <path class="fil10" d="M28 716c11,0 22,0 33,0l25 0c1,0 3,0 4,0 1,0 3,0 4,0 1,2 0,2 2,6 1,1 1,1 1,2 1,1 1,1 2,2 -3,0 -7,0 -10,0 -15,0 -31,0 -46,0 -1,0 -3,0 -5,0 -4,-1 -8,-2 -9,-6 -1,-1 -1,-3 -1,-3l0 0 -1 -1zm97 -6c0,3 0,6 -1,9 -1,3 -3,6 -6,8 -3,3 -7,3 -12,3 -19,0 -38,0 -57,0 -3,0 -10,0 -14,-1 -3,-1 -7,-3 -9,-6 -1,-1 -2,-3 -3,-5 -2,-7 -1,-7 5,-7 2,0 6,0 7,0l0 0c0,-19 0,-38 0,-57 0,-12 0,-24 0,-35 0,-8 -1,-8 6,-8l49 0c8,0 3,1 8,4 0,0 1,1 1,1l16 16c0,1 1,1 1,1l6 6c2,2 1,69 1,72l2 -1zm-4 -58c0,-3 0,-6 0,-9 -4,0 -9,0 -13,0l-10 0c-1,0 -2,0 -3,-1 -1,-1 -1,-5 -1,-6 0,-3 0,-19 0,-20 -1,0 -3,0 -5,0l-47 0c-3,0 -2,-1 -2,2 0,10 0,93 0,94 0,0 0,0 1,0l28 0c3,0 19,0 22,0 1,0 1,0 1,0 1,0 1,0 1,0 4,0 3,1 4,3 0,3 1,6 3,7 2,2 6,4 11,3 3,-1 6,-3 8,-6 1,-2 1,-3 1,-6 0,-19 0,-41 0,-60l0 0zm-23 -33c1,1 2,2 3,2l13 13c1,1 5,4 5,5l-19 0c0,0 0,0 0,0l0 -2 0 -17 0 0 -1 0z"/>
  <path class="fil10" d="M58 659c-2,1 -2,3 0,4 1,0 36,0 41,0 1,0 6,0 7,0 1,0 1,-1 1,-2 0,-1 -1,-1 -1,-2 -1,0 -36,0 -41,0 -1,0 -6,0 -7,0l0 0z"/>
  <path class="fil10" d="M59 699c-3,1 -3,4 1,4 2,0 30,0 31,0 3,0 3,-4 -1,-4 -3,0 -29,0 -31,0l0 0 1 0z"/>
  <path class="fil10" d="M61 677c1,0 1,0 2,0 2,0 3,0 6,0 1,0 1,0 1,0l24 0c4,0 5,-4 -1,-4l-22 0c-4,0 -9,0 -13,0 -1,0 -3,1 -3,2 0,1 2,1 4,1l0 0 0 1z"/>
  <path class="fil10" d="M59 690l31 0c1,0 2,0 3,0 3,-1 2,-4 -1,-4l-33 0c-4,0 -4,4 0,4z"/>
  <line class="fil5 str1" x1="141" y1="959" x2="134" y2= "935" />
  <path class="fil11" d="M141 956c1,0 3,1 3,3 0,1 -1,3 -3,3 -1,0 -3,-1 -3,-3 0,-1 1,-3 3,-3z"/>
  <path class="fil12" d="M50 987l84 -74c5,-4 11,-3 14,3l0 0c3,6 1,14 -3,18l-84 74c-5,4 -11,3 -14,-3l0 0c-3,-6 -1,-14 3,-18z"/>
  <path class="fil13" d="M118 992c15,8 13,8 19,19l1 1c11,-4 12,-7 11,-20l-31 0z"/>
  <path class="fil11" d="M92 1022c6,24 45,18 39,-9 -5,-26 -45,-17 -39,9z"/>
  <path class="fil13" d="M62 992l47 0c-11,1 -22,9 -23,23l-35 0 -29 1c-5,-1 1,-5 -8,-15 -3,-4 -8,-6 -13,-8l0 -75 9 0c3,1 3,1 3,2 2,5 1,61 1,72l48 1 0 0z"/>
  <path class="fil11" d="M0 1037c10,-2 17,-10 15,-24 -2,-9 -8,-14 -15,-15l0 39z"/>
  <path class="fil13" d="M0 914l10 0c-1,-6 -3,-10 -10,-11l0 11z"/>
  <path class="fil14" d="M61 1249l-2 4c0,0 -1,1 -1,0l-10 -6c0,0 -1,-1 -1,-1l4 -8c0,0 0,0 0,0l15 -29c1,-1 2,-1 3,-1l42 22c1,1 2,2 1,3l-15 29c0,0 0,0 0,0l-4 8c0,0 -1,1 -1,0l-10 -6c0,0 -1,-1 -1,-1l2 -4 -24 -13 1 0z"/>
  <g style="clip-path:url(#id2)">
   <polygon class="fil9" points="47,1209 113,1209 113,1272 47,1272 "/>
  </g>
  <g style="clip-path:url(#id3)">
   <g id="_862621584">
    <path id="1" class="fil15" d="M61 1220c1,-1 2,-1 3,-1l42 22c1,1 2,2 1,3l6 -10c1,-1 0,-3 -1,-3l-42 -22c-1,-1 -3,-1 -3,1l-6 10z"/>
   </g>
  </g>
  <path class="fil5" d="M61 1249l-2 4c0,0 -1,1 -1,0l-10 -6c0,0 -1,-1 -1,-1l4 -8c0,0 0,0 0,0l15 -29c1,-1 2,-1 3,-1l42 22c1,1 2,2 1,3l-15 29c0,0 0,0 0,0l-4 8c0,0 -1,1 -1,0l-10 -6c0,0 -1,-1 -1,-1l2 -4 -24 -13 1 0z"/>
  <path class="fil5 str2" d="M61 1249l-2 4c0,0 -1,1 -1,0l-10 -6c0,0 -1,-1 -1,-1l4 -8c0,0 0,0 0,0l15 -29c1,-1 2,-1 3,-1l42 22c1,1 2,2 1,3l-15 29c0,0 0,0 0,0l-4 8c0,0 -1,1 -1,0l-10 -6c0,0 -1,-1 -1,-1l2 -4 -24 -13 1 0z"/>
  <path class="fil16" d="M62 1263l10 3c1,0 1,1 1,2l-11 34 3 1c1,1 2,1 1,3l-6 19c-1,1 -1,2 -3,1l-20 -7c-1,-1 -2,-1 -1,-3l6 -19c1,-1 1,-2 3,-1l3 1 11 -34c0,-1 1,-1 2,-1l0 0z"/>
  <g style="clip-path:url(#id4)">
   <polygon class="fil9" points="36,1263 73,1263 73,1327 36,1327 "/>
  </g>
  <g style="clip-path:url(#id5)">
   <g id="_862351920">
    <path id="1" class="fil17" d="M42 1321l17 6c1,1 3,0 3,-1l6 -19c1,-1 0,-3 -1,-3l-3 -1 11 -34c0,-1 0,-2 -1,-2l-10 -3c0,0 -1,0 -1,0 1,5 2,10 2,16 0,21 -9,38 -22,42l-1 0z"/>
   </g>
  </g>
  <path class="fil5" d="M62 1263l10 3c1,0 1,1 1,2l-11 34 3 1c1,1 2,1 1,3l-6 19c-1,1 -1,2 -3,1l-20 -7c-1,-1 -2,-1 -1,-3l6 -19c1,-1 1,-2 3,-1l3 1 11 -34c0,-1 1,-1 2,-1l0 0z"/>
  <path class="fil5 str2" d="M62 1263l10 3c1,0 1,1 1,2l-11 34 3 1c1,1 2,1 1,3l-6 19c-1,1 -1,2 -3,1l-20 -7c-1,-1 -2,-1 -1,-3l6 -19c1,-1 1,-2 3,-1l3 1 11 -34c0,-1 1,-1 2,-1l0 0z"/>
  <path class="fil18" d="M36 1595l0 0c2,1 6,2 8,3 3,1 3,1 4,1 2,3 28,36 79,7 4,-3 8,-9 8,-15 0,-13 1,-17 -8,-26 -1,-1 -6,-5 -8,-6 0,-2 1,-3 1,-8 0,-10 1,-14 -6,-22 -1,-2 -3,-3 -4,-4 -8,-6 -22,-10 -32,-10 -10,0 -16,0 -26,4 -9,3 -18,9 -21,21 -1,2 -1,2 -5,5 -4,3 -10,10 -10,17l0 0 0 0c0,10 -1,17 6,24 4,4 5,5 7,6l0 0c1,1 1,1 3,2l0 0c1,1 2,1 3,2l-1 -1zm55 9c-7,0 -17,-1 -24,-4 -1,-1 -1,0 -1,-1 12,0 33,-7 38,-23 1,-5 0,-1 7,-7 1,-1 1,-1 3,-3 1,-1 2,-2 2,-3 2,1 5,2 7,5 21,18 -7,36 -32,36l0 0 0 0 1 0zm-60 -58c0,4 0,8 1,10 1,5 4,10 8,13 1,1 1,1 3,2 1,1 2,1 3,2 8,6 26,9 36,8 1,0 3,-1 4,-1 -1,1 -8,3 -9,3 -15,3 -37,1 -49,-10 -3,-3 -8,-9 -6,-16 1,-6 6,-10 10,-12l0 0 -1 0zm4 -3c0,-8 9,-15 14,-17 15,-8 38,-8 53,0 5,3 14,9 14,17 0,13 -17,19 -26,22 -14,3 -27,2 -40,-4 -6,-2 -15,-9 -15,-18l0 0 0 1z"/>
  <path class="fil11" d="M60 1524l0 3c0,1 1,1 3,1 1,0 3,0 4,0 1,0 3,1 4,1 1,0 1,1 1,2l-11 0c-3,0 -2,0 -2,3 0,1 1,1 2,1l11 0c-1,1 -1,1 -2,3 -3,2 -7,2 -10,2 -1,0 -1,0 -1,1 0,1 0,3 0,4 1,1 1,1 1,1 1,1 3,3 5,5l8 8c0,0 0,0 1,1l1 1c0,0 0,0 0,0 0,0 1,1 1,1l6 0c1,0 1,-1 1,-1l-13 -15c0,0 -1,0 -1,-1 3,0 6,-1 8,-3 1,-1 1,-1 1,-1 1,-2 2,-3 3,-6 1,0 3,0 3,0 3,0 2,0 2,-4 0,-1 -1,-1 -3,-1 -1,0 -3,0 -3,0 0,-1 0,-2 -1,-3 0,0 -1,-1 -1,-1 1,0 5,0 7,0 1,0 1,0 1,-1l0 -3c0,-1 0,-1 -1,-1l-26 0c-1,0 -1,1 -1,1l0 0 1 -1z"/>
  <path class="fil2" d="M75 314l1 0c2,7 14,13 29,13 12,0 22,-3 26,-8 1,52 -17,90 -55,114 -35,-25 -56,-61 -55,-114 4,5 15,8 26,8 15,0 26,-6 29,-13l-1 0z"/>
  <g style="clip-path:url(#id6)">
   <polygon class="fil9" points="20,314 130,314 130,433 20,433 "/>
  </g>
  <g style="clip-path:url(#id7)">
   <g id="_862347824">
    <path id="1" class="fil19" d="M75 314l0 118c38,-24 56,-62 55,-114 -4,5 -15,8 -26,8 -15,0 -26,-6 -29,-13l-1 0 1 0z"/>
   </g>
  </g>
  <path class="fil5" d="M75 314l1 0c2,7 14,13 29,13 12,0 22,-3 26,-8 1,52 -17,90 -55,114 -35,-25 -56,-61 -55,-114 4,5 15,8 26,8 15,0 26,-6 29,-13l-1 0z"/>
  <path class="fil5 str3" d="M75 314l1 0c2,7 14,13 29,13 12,0 22,-3 26,-8 1,52 -17,90 -55,114 -35,-25 -56,-61 -55,-114 4,5 15,8 26,8 15,0 26,-6 29,-13l-1 0z"/>
  <path class="fil20" d="M64 2105l16 0 0 5 0 0c-1,0 -3,2 -3,4 0,2 1,4 3,4l0 0 0 10 -16 0 0 -22 0 -1z"/>
  <polygon class="fil21" points="49,2132 95,2132 91,2122 51,2122 "/>
  <polygon class="fil22" points="45,2129 98,2129 98,2220 45,2220 "/>
  <polygon class="fil11" points="42,2216 102,2216 102,2222 42,2222 "/>
  <polygon class="fil11" points="85,2111 108,2106 108,2104 84,2110 "/>
  <polygon class="fil11" points="84,2113 108,2111 108,2109 84,2112 "/>
  <polygon class="fil11" points="84,2115 108,2115 108,2113 84,2113 "/>
  <polygon class="fil11" points="84,2116 108,2120 108,2118 84,2115 "/>
  <polygon class="fil11" points="84,2118 108,2124 108,2122 85,2117 "/>
  <path class="fil23" d="M91 2405l40 38c4,4 4,10 0,15 -45,49 -104,-10 -54,-52 4,-3 11,-4 15,-1l0 1z"/>
  <path class="fil2" d="M100 2417l19 19c2,2 3,4 2,6 -10,12 -40,-17 -27,-26 1,-1 3,0 6,2l0 -1z"/>
  <path class="fil6" d="M59 2461l16 15 -43 45 -7 -1 38 -38c1,-1 1,-1 0,-2l0 0c-1,-1 -1,-1 -2,0l-40 41 -4 -4 40 -41c1,-1 1,-1 0,-2l0 0c-1,-1 -1,-1 -2,0l-27 27 -3 -3 36 -37 -1 0z"/>
  <path class="fil12" d="M100 2784c6,26 -17,19 -37,19 -13,0 -22,-1 -26,-10 -2,-4 -13,-59 -12,-62 3,-11 13,0 19,8 13,14 -6,50 23,48 11,-1 6,-3 15,-4 6,-1 13,0 18,1l0 0 -1 1z"/>
  <path class="fil24" d="M71 2745l33 1 1 10c-10,3 -33,-2 -40,3l10 2 3 8c17,1 32,-5 37,7l5 22c3,15 9,22 -8,22 -7,-19 -4,-34 -8,-38 -9,-8 -29,3 -43,1 -7,-10 -5,-11 -5,-24 0,-10 -5,-18 -4,-26 15,-7 17,1 20,13l0 0 -1 0z"/>
  <path class="fil24" d="M59 2704c4,2 11,5 8,16 -2,6 -9,10 -17,6 -13,-5 -5,-29 10,-22l0 0 0 0z"/>
  <path class="fil12" d="M28 2722c-2,-4 -3,-8 -1,-15 2,-8 4,-8 13,-6 1,10 1,22 -12,21l0 0z"/>
  <path class="fil25" d="M83 3083l-19 -51c-2,-6 -8,-8 -13,-6 -63,20 -32,97 26,70 6,-3 8,-8 6,-13z"/>
  <path class="fil25" d="M77 3028l37 -13c1,-1 3,0 4,2l1 3c1,1 0,3 -2,4l-37 13c-1,1 -3,0 -4,-2l-1 -3c-1,-1 0,-3 2,-4z"/>
  <path class="fil25" d="M84 3049l37 -13c1,-1 3,0 4,2l1 3c1,1 0,3 -2,4l-37 13c-1,1 -3,0 -4,-2l-1 -3c-1,-1 0,-3 2,-4z"/>
  <path class="fil25" d="M92 3070l37 -13c1,-1 3,0 4,2l1 3c1,1 0,3 -2,4l-37 13c-1,1 -3,0 -4,-2l-1 -3c-1,-1 0,-3 2,-4z"/>
  <path class="fil26" d="M82 1821l0 22c9,3 16,11 16,22 0,2 0,4 -1,6l17 15c3,-6 6,-13 6,-21 0,-22 -17,-41 -38,-44l-1 0zm-13 22l0 -22c-22,3 -39,22 -39,44 0,8 2,15 6,21l17 -15c-1,-2 -1,-4 -1,-6 0,-10 7,-19 17,-22zm38 53l-17 -14c-4,3 -9,6 -15,6 -6,0 -11,-2 -15,-6l-17 14c8,8 19,13 32,13 13,0 24,-5 32,-13l-1 0zm-32 -90c33,0 59,26 59,59 0,33 -26,59 -59,59 -33,0 -59,-26 -59,-59 0,-33 26,-59 59,-59z"/>
  <path class="fil27" d="M75 3665l0 -38c0,-1 1,-1 1,-1l17 0c1,0 18,19 19,19 3,3 6,6 10,10l7 8c1,1 2,1 2,3l-55 0c-1,0 -1,0 -1,-1l-1 0zm-64 -12c0,-4 1,-8 2,-10 8,-19 35,-23 47,0 8,16 -4,38 -23,38 -14,0 -26,-12 -26,-26l0 -1zm-7 -25l0 56c-6,0 -4,1 -4,12 0,2 3,2 4,2 0,10 8,8 15,8 0,-6 1,-10 6,-15 7,-8 18,-8 25,0 4,5 6,8 6,15l38 0 0 -2c0,-9 8,-18 17,-18 6,0 10,1 13,6 4,4 6,9 6,15 6,0 15,1 15,-6l0 -2c6,0 5,0 5,-12 0,-2 -3,-2 -5,-2 0,-1 0,-2 0,-3 0,-2 -1,-1 0,-6 0,-1 0,-1 0,-3 0,-3 0,-3 -2,-5l-43 -45c-1,-1 -2,-3 -4,-3l-83 0c-6,0 -8,3 -8,8l1 0z"/>
  <path class="fil20" d="M23 3705l0 3c0,7 7,14 13,14l3 0c6,0 13,-7 13,-14 0,-5 -1,-8 -4,-12 -9,-10 -24,-2 -24,9l-1 0z"/>
  <path class="fil20" d="M97 3705c0,9 6,15 13,15 3,0 5,0 8,-1 3,-2 8,-7 8,-12 0,-6 0,-8 -4,-13 -9,-9 -24,-2 -24,10l0 0z"/>
  <path class="fil28" d="M74 3615l0 1 14 0 0 -3c0,-3 -3,-7 -7,-7 -4,0 -7,3 -7,8l0 1z"/>
  <path class="fil29" d="M80 3592l0 10c0,1 1,2 1,3 1,0 2,-1 2,-1 0,-3 1,-10 0,-13 -1,0 -3,-1 -3,2l-1 -1z"/>
  <path class="fil29" d="M88 3606c2,4 4,0 7,-3 1,-1 4,-3 4,-6 0,-1 -1,-1 -2,-1 -1,0 -4,3 -5,5 -1,1 -3,3 -4,5z"/>
  <path class="fil29" d="M64 3597c-1,2 0,2 1,3 1,1 7,8 8,8 1,0 1,0 1,0 1,-3 0,-3 -4,-6 -3,-3 -4,-5 -6,-4l0 -1z"/>
  <path class="fil28" d="M34 3640l5 0c1,0 1,1 1,1l0 25c0,1 -1,1 -1,1l-5 0c-1,0 -1,-1 -1,-1l0 -25c0,-1 1,-1 1,-1z"/>
  <path class="fil28" d="M24 3658l0 -7c0,0 0,-1 1,-1l25 0c0,0 1,0 1,1l0 7c0,0 0,1 -1,1l-25 0c0,0 -1,0 -1,-1z"/>
  <path class="fil30" d="M38 3680c-14,0 -26,-12 -26,-26 0,-4 1,-8 2,-10 8,-19 35,-23 47,0 8,16 -4,38 -23,38l0 -1zm58 -60l-83 0c-6,0 -8,3 -8,8l0 56 140 0c0,-1 0,-1 0,-3 0,-2 -1,-1 0,-6 0,-1 0,-1 0,-3 0,-3 0,-3 -2,-5l-43 -45c-1,-1 -2,-3 -4,-3l1 1zm-20 45l0 -38c0,-1 1,-1 1,-1l17 0c1,0 18,19 19,19l10 10 7 8c1,1 2,1 2,3l-55 0c-1,0 -1,0 -1,-1l-1 0z"/>
  <path class="fil31" d="M60 3410c0,-11 18,-11 18,0 0,11 -18,11 -18,0zm40 -16l-65 0 0 -87 68 0 0 84c0,2 -1,3 -3,3l0 0zm-23 -99c3,0 3,1 3,3l-6 0c0,-3 0,-3 3,-3zm-16 0l7 0c3,0 3,1 3,3l-13 0c0,-3 0,-3 3,-3zm-31 2l0 120c0,4 4,9 9,9l61 0c4,0 9,-4 9,-9l0 -120c0,-4 -4,-9 -9,-9l-61 0c-4,0 -9,4 -9,9z"/>
  <path class="fil19" d="M133 3316c0,18 -12,16 -4,22 10,-3 13,-22 7,-33 -2,-4 -2,-6 -8,-6 -1,5 1,3 3,8 1,3 3,6 3,10l-1 -1z"/>
  <path class="fil19" d="M0 3314c0,8 1,21 10,24 7,-5 -4,-3 -4,-22 0,-10 8,-11 6,-18 -6,0 -6,1 -8,6 -1,3 -3,6 -3,11l0 -1z"/>
  <path class="fil19" d="M116 3303c0,10 4,3 4,16 0,3 -9,15 -1,13 10,-2 8,-34 -3,-29l1 0z"/>
  <path class="fil19" d="M12 3315c0,19 10,19 10,15 0,-3 -4,-4 -4,-13 0,-9 4,-6 4,-15 -4,0 -5,0 -8,5 -1,2 -2,4 -2,8z"/>
  <path class="fil19" d="M64 3409c0,8 10,7 10,1 0,-3 -3,-4 -6,-6 -1,1 -6,3 -6,4l1 1z"/>
  <path class="fil2" d="M103 3307l-68 0 0 87 65 0c2,0 3,-1 3,-3l0 -84 0 0z"/>
  <path class="fil27" d="M92 3352l56 14c1,0 1,1 1,2l-16 42c0,1 -1,1 -2,1l-56 -14c-1,0 -1,-1 -1,-2l16 -42c0,-1 1,-1 2,-1z"/>
  <path class="fil32" d="M92 3352l53 21c1,0 1,1 1,2l-16 42c0,1 -1,1 -2,1l-53 -21c-1,0 -1,-1 -1,-2l16 -42c0,-1 1,-1 2,-1z"/>
  <path class="fil33" d="M121 3378l21 8 -7 18 -21 -8c-5,-2 -8,-8 -6,-13l0 0c2,-5 8,-7 13,-6l0 0z"/>
  <circle class="fil34" transform="matrix(1.13868 0.443015 -0.431033 1.11322 116.943 3386.25)" r="3"/>
  <path class="fil22" d="M17 3965c0,-2 8,-40 14,-43 6,-3 80,-3 84,-1 4,3 16,37 17,45 1,12 2,22 1,22l-118 0 1 -24 0 1z"/>
  <path class="fil20" d="M50 3944c0,-10 -2,-10 6,-10 6,0 10,-1 17,-1 7,0 12,1 18,1 6,0 13,1 17,1 1,3 1,6 3,9 2,8 6,21 6,29l-32 0c1,-1 1,-1 2,-1 3,-1 16,-2 19,-2 4,0 6,1 6,-2 -1,-2 -1,-1 -4,-1l-18 -1c-1,0 -2,2 -8,2 0,3 1,2 -6,5 -6,2 -22,1 -30,1 5,-4 9,-3 14,-3 11,-1 13,1 14,-3 -2,-3 -3,-1 -10,-1 -19,-2 -12,1 -21,1 0,3 1,2 -2,3 -4,2 -8,3 -13,3 1,-7 2,-14 3,-20l5 -19 6 -1c1,3 1,8 1,10 1,8 0,4 6,4 1,2 0,1 1,2 -2,3 -3,4 -3,8 3,-1 5,-3 6,-4 2,3 3,6 6,6 0,-3 -6,-15 -8,-17l-4 1 2 0zm-26 32c1,2 1,3 3,3l92 0c3,0 4,-1 4,-4l0 0c0,-2 -1,-4 -1,-6 0,0 0,0 0,0 0,-5 -8,-37 -11,-39 -5,-3 -58,-3 -67,-1 -9,1 -9,-1 -12,8 -2,7 -6,18 -7,28 0,0 -1,7 -1,12l0 0z"/>
  <path class="fil20" d="M65 3937c0,7 3,5 15,5 2,0 8,-8 -3,-8l0 -2c-3,0 -3,0 -5,1 -4,2 -7,1 -7,3l0 1z"/>
  <path class="fil35" d="M112 3944c-1,-3 -2,-6 -3,-9 -5,0 -13,-1 -17,-1 -7,0 -11,-1 -18,-1 -7,0 -10,1 -17,1 -9,0 -6,1 -6,10l4 -1c1,3 7,15 8,17 -3,0 -4,-3 -6,-6 -2,1 -4,3 -6,4 0,-4 2,-6 3,-8 -1,-1 -1,0 -1,-2 -6,0 -6,3 -6,-4 0,-3 -1,-8 -1,-10l-6 1 -5 19c-1,6 -3,13 -3,20 5,0 9,-1 13,-3 3,-1 2,0 2,-3 8,0 1,-3 21,-1 7,1 8,-1 10,1 -1,3 -3,1 -14,3 -5,1 -9,-1 -14,3 8,0 24,1 30,-1 7,-3 6,-2 6,-5 6,0 8,-2 8,-2l18 1c3,0 3,-1 4,1 -1,3 -2,2 -6,2 -3,0 -16,1 -19,2 -1,1 -1,1 -2,1l32 0c0,-8 -3,-22 -6,-29l-2 0zm-32 -1c-13,0 -15,1 -15,-5 0,-2 3,-1 7,-3 2,-1 1,-1 5,-1l0 2c11,0 6,8 3,8l0 -1z"/>
  <path class="fil22" d="M18 3969l-1 -1c-1,-1 -1,-1 -1,-1 -1,-1 -3,-1 -4,-2 -3,-1 -6,0 -9,1 -5,10 2,11 8,11 3,0 6,-1 7,-1 0,1 0,1 0,1l1 -12c0,1 -1,3 -1,5l0 -1z"/>
  <path class="fil22" d="M140 3963c-1,0 -1,0 -1,0 -5,0 -5,3 -8,5 0,-1 0,-3 -1,-6l1 13c0,-1 0,-1 0,-1 3,0 6,1 10,1 4,0 8,-1 8,-7 0,-6 -4,-6 -9,-5l0 1z"/>
  <polygon class="fil20" points="73,3931 72,3935 77,3937 76,3930 "/>
  <path class="fil36" d="M83 4318l0 0c0,0 0,0 0,0zm-25 -126l31 0c4,0 8,1 10,1 5,2 1,5 4,5 3,0 2,-1 5,1l6 5c1,2 0,2 1,5 1,2 3,2 4,2 2,1 2,1 2,3 7,11 2,8 4,11 1,2 1,2 2,3 1,1 1,1 2,3 4,13 1,10 1,13 0,4 1,4 2,5 0,4 1,17 -1,19 -1,2 0,1 -2,1 0,2 -1,2 -1,5 0,1 1,2 1,3 0,1 -3,11 -4,12 -2,2 -1,-1 -3,2 -3,5 4,0 -4,12 -4,5 -4,1 -6,4 -2,4 2,2 -4,7 -3,2 -3,2 -8,2 -2,3 -2,4 -7,4l0 0 -1 0 -27 0c-6,0 -11,-1 -13,-1 -5,-1 -7,-2 -7,-5 3,0 6,-1 9,-1l-13 -2c-4,-1 -8,-3 -8,-7 0,-3 3,-1 8,-2l-12 -4c-3,-1 -4,-4 -5,-7 -1,-4 2,-4 2,-4l8 -1c-2,-2 -9,-4 -11,-5 -4,-2 -5,-10 -4,-13l10 -2c-5,-4 -11,-4 -11,-9 0,-13 -1,-9 11,-12 -2,-3 -9,-5 -9,-8 0,-4 1,-8 3,-11 4,0 7,-1 11,-1 -4,-3 -8,-4 -8,-5 0,-4 4,-9 5,-10 2,-1 4,-1 6,-1 3,0 4,-1 6,-1 -4,-5 -10,-3 -4,-10 3,-3 6,-2 15,-2l-2 -1c-1,-1 -1,-1 -2,-1 0,-4 4,-5 8,-5l0 0 1 0 -1 0zm23 125l1 0 -1 0zm-14 -61c0,-36 29,-55 43,-26 13,26 2,67 -18,67 -17,0 -24,-26 -24,-40l0 0zm14 61c-2,0 -5,-2 -7,-3 -3,-2 -4,-2 -9,-2 2,-4 3,-2 -3,-8 -4,-4 -4,-3 -11,-3 2,-2 5,-3 3,-8l-5 -8 -8 0c4,-7 7,-2 5,-11 -2,-10 -1,-9 -9,-9 2,-4 6,-4 7,-8 1,-15 1,-14 -7,-14 7,-6 7,-2 10,-13 1,-1 1,-5 2,-6 -5,-3 -10,0 -6,-2 7,-4 5,1 14,-11 4,-5 -1,-4 -6,-4 1,-1 0,0 1,-1 1,0 2,-1 2,-1 1,-1 2,-1 4,-1 2,-1 5,-1 7,-2l5 -4c4,-3 -2,-2 -5,-2l0 -1c10,0 14,-4 18,-4l-2 1c-5,2 -2,2 -3,3 -1,1 -1,1 -2,2 -4,2 -1,-2 -5,2 -7,6 -1,3 -4,7 -1,1 -1,1 -2,1l-2 0c-1,0 -5,7 -6,8 -2,4 1,0 0,5 -1,4 -2,3 -4,3 0,2 -2,5 -2,8 -2,10 0,3 0,8 0,2 -1,3 -1,4 -1,1 -1,0 -1,2 -1,2 -1,10 -1,13 2,0 2,1 2,2 0,2 -1,3 -2,4 0,2 1,12 2,14 1,1 4,1 3,5 -1,2 -2,1 1,6 2,5 2,5 5,7 1,1 2,2 2,3l0 1c0,1 5,7 6,8 2,1 2,1 4,2 3,4 -4,-1 8,7 1,1 0,0 1,1l1 0zm2 -123l1 -1 -1 1z"/>
 </g>
</svg>
