<?xml version="1.0" encoding="UTF-8"?>
<!DOCTYPE svg PUBLIC "-//W3C//DTD SVG 1.1//EN" "http://www.w3.org/Graphics/SVG/1.1/DTD/svg11.dtd">
<!-- Creator: CorelDRAW X8 -->
<svg xmlns="http://www.w3.org/2000/svg" xml:space="preserve" width="7.15007in" height="3.59733in" version="1.1" style="shape-rendering:geometricPrecision; text-rendering:geometricPrecision; image-rendering:optimizeQuality; fill-rule:evenodd; clip-rule:evenodd"
viewBox="0 0 7150 3597"
 xmlns:xlink="http://www.w3.org/1999/xlink">
 <defs>
  <style type="text/css">
   <![CDATA[
    .fil11 {fill:#2D293D}
    .fil2 {fill:#3380E4}
    .fil7 {fill:#3569BD}
    .fil5 {fill:#4A4875}
    .fil3 {fill:#8C97E1}
    .fil10 {fill:#A1616A}
    .fil8 {fill:#A5A5A7}
    .fil12 {fill:#B2CEF4}
    .fil0 {fill:#D8E6F9}
    .fil4 {fill:#F27188}
    .fil9 {fill:#F5B8B8}
    .fil1 {fill:#FCC250}
    .fil14 {fill:#FEFEFE}
    .fil6 {fill:white}
    .fil13 {fill:#FEFEFE;fill-rule:nonzero}
   ]]>
  </style>
 </defs>
 <g id="Layer_x0020_1">
  <metadata id="CorelCorpID_0Corel-Layer"/>
  <g id="_2114480754032">
   <path class="fil0" d="M1631 379c28,0 1177,-3 1219,0 81,17 65,111 69,132 0,16 9,21 21,29l86 70c20,-37 53,-53 57,-70 9,4 9,8 9,0 -9,-4 -9,-8 -9,0l-45 41c-8,13 0,8 -17,25 13,-46 95,-95 141,-107 53,-16 171,-9 238,-9 159,0 331,5 496,-4 -45,13 -275,-45 -329,-57 -49,-13 -102,-29 -151,-45 -46,-16 -99,-33 -144,-49 -45,-21 -98,-41 -140,-53 -53,-21 -94,-37 -143,-58 -353,-140 -1071,-432 -1305,12 -13,25 -16,46 -29,70 -12,25 -12,50 -24,73l0 0zm1555 124c73,-8 554,-4 669,-4 61,0 176,8 230,0 0,4 16,4 25,4 -9,-8 0,-4 -13,-8 -12,0 -4,0 -12,4 -5,-4 -5,-4 -5,-4 0,4 -3,0 -7,0 -21,-5 -747,-5 -834,-5 -20,0 -37,0 -53,13l0 0zm-91 33c-7,-4 -3,-4 -3,4 8,-4 8,0 3,-4 17,-4 21,-9 34,-16 12,-5 20,-5 33,-13 -17,0 -25,4 -33,8l-29 17c0,0 0,0 -5,4l0 0z"/>
   <polygon class="fil0" points="3009,580 3024,610 3119,573 3958,495 3894,485 3805,485 3117,444 3024,525 "/>
  </g>
  <path class="fil1" d="M0 450l0 555c16,28 16,45 53,62 33,16 296,7 345,7l1412 0 960 0c197,0 160,-28 160,-418l71 32 77 37c25,13 197,99 210,95l-206 -172c-16,-13 -32,-25 -44,-37l-87 -70c-12,-8 -21,-12 -21,-29 -3,-20 13,-115 -69,-131 -42,-5 -1191,0 -1219,0l-1498 0c-107,0 -103,0 -144,69l0 0z"/>
  <path class="fil2" d="M3263 2630l349 0 0 349 -349 0 0 -349zm476 -1346l349 0 0 345 -349 0 0 -345zm497 58c0,-173 0,-346 0,-518 0,-74 12,-185 -33,-226 -41,-40 -201,-32 -221,-28 -5,81 -42,106 -120,106l-426 0c-79,0 -111,-28 -111,-106 -21,-4 -136,-4 -160,0 -41,8 -78,41 -83,78l206 172c-13,4 -185,-82 -210,-95l-4 1163 156 16 0 -185 66 0 4 -49 345 0 0 348 -345 0c16,13 234,-3 279,4l0 46 -349 0 0 -160 -156 45c8,106 0,398 0,525 0,177 0,353 0,530 4,106 82,110 152,110l797 0c0,-37 -13,-81 -13,-122 -5,-49 0,-99 -5,-144 -44,0 -53,12 -81,12 -4,-28 12,-135 21,-164 4,-25 20,-144 20,-164l-25 -5c-25,-12 -155,-3 -197,-3 -4,-29 0,-83 0,-111 0,-16 0,-37 0,-53 0,-9 0,-21 0,-29 0,-5 0,-8 0,-12 5,-13 0,0 5,-9l3 9 4 7 0 13 9 -4c-9,-4 -4,7 -9,-9l-4 -7 -3 -9c-13,-12 -30,-16 -30,-41 5,-17 21,-24 25,-41l0 -53c21,-4 119,-9 132,0 -4,0 -4,0 -4,3 -5,13 0,9 -13,18l-4 3 -4 4 -4 5 -5 4 -7 0c-5,0 -5,0 -5,3 -4,0 -4,0 -4,5 -8,0 -3,0 -3,8 7,-4 3,0 3,-8 9,0 4,4 4,-5 9,0 5,5 5,-3 7,3 7,3 7,0l5 -4 4 -5 4 -4 4 -3c8,-9 8,-9 13,-18 7,0 4,5 4,-3 33,-13 130,-115 148,-124 36,25 180,214 213,226l0 -902 -78 37 -5 -5c13,-8 74,-57 83,-69l0 0zm-1051 -481l349 0 0 349 -349 0 0 -349z"/>
  <path class="fil3" d="M4334 1120l0 144c-20,12 -33,24 -49,41 -12,7 -37,32 -49,37 -9,12 -70,61 -83,69l5 5 78 -37 98 -50 0 99 0 7 -8 0 8 0 0 -7c4,-120 -8,-95 41,-120l136 -65c0,94 0,185 0,279 0,111 16,144 132,144 90,0 183,0 274,0 91,0 189,-5 279,0 164,4 337,0 505,0 110,0 1354,4 1387,-5 37,-12 41,-32 62,-65l0 -554c-37,-62 -37,-70 -127,-70l-969 0c-127,0 -262,-4 -389,0 -210,8 -436,0 -649,0 -107,0 -218,0 -324,0 -49,0 -111,-9 -144,21 -41,32 -37,61 -37,123l-107 90c-20,12 -45,41 -66,53 0,-28 5,-118 -4,-139l0 0z"/>
  <path class="fil0" d="M4786 2860c21,4 45,-8 74,-4 37,4 28,12 74,82 8,9 8,12 16,21 8,12 8,16 17,25 4,-5 4,-5 24,-5 90,-4 201,-16 291,-25 29,-4 74,-7 99,-16 4,12 0,21 9,33 -5,-21 -9,-45 -5,-66 5,-20 12,-20 16,-49 8,-41 21,-70 25,-115 -13,8 -13,4 -25,4l-110 0 -5 -168c-4,-4 -4,-4 -4,-12 -3,-4 -3,-4 -8,-13 -4,-28 5,-33 25,-33l0 17c4,-5 4,-5 4,-12 0,0 0,0 0,0 0,-5 -4,-5 -4,-5l-13 -8c13,-20 -7,-91 9,-107 16,-21 242,9 271,-8 4,0 4,0 4,-4l0 0c3,0 -9,4 12,4 0,5 0,5 4,5 -4,16 0,3 5,7 0,5 0,5 3,5 0,7 0,4 4,4 0,-9 5,-4 -4,-4l-3 -5c0,-12 3,-7 -5,-7 5,-9 5,-9 -4,-5 -4,-13 0,-4 -12,-4 0,-9 0,-9 0,0 -9,-4 -9,-4 -4,4l-160 -4c-37,0 -95,0 -124,9 -3,-18 -8,-30 -8,-46 -12,-4 -12,-4 -20,-12 4,-50 32,-41 28,-66 -20,-8 -40,-12 -53,-24 -8,-13 -17,-34 -17,-53l-16 -5c0,-41 16,-82 46,-90 28,-13 106,21 106,21 5,20 0,32 5,53 7,12 7,16 3,28 21,9 17,17 34,21l3 16c13,5 25,0 41,0 16,5 16,9 29,9 78,8 49,12 82,40 9,9 62,21 86,34 16,8 16,8 29,16 17,12 12,0 21,21 12,19 8,44 12,69 0,29 0,54 -4,78 -5,33 8,54 4,78 0,13 8,37 4,49 -13,21 -29,0 -25,29 5,28 12,65 12,99 0,24 5,24 9,49 8,21 -4,37 8,53l0 -25c20,-4 61,-37 73,-53 71,-61 132,-176 111,-275 -28,-156 -123,-222 -229,-291 -213,-140 -538,-222 -460,-558 -90,-5 -188,0 -279,0 -91,0 -184,0 -274,0 -116,0 -132,-33 -132,-144 0,-94 0,-185 0,-279l-136 65c-49,25 -37,0 -41,120l0 7 -8 0c-12,0 -8,67 -8,91l0 1088c0,115 8,287 -8,394 8,-8 8,4 8,-12 8,7 -8,4 16,7l54 -3c40,0 184,-9 209,-4 -4,7 -4,7 0,7l0 -7c-4,-21 -21,-46 -16,-79 16,-7 49,-7 69,-12l53 -8c21,-8 9,-4 13,-12 -8,-21 -17,-21 -29,-37 -12,-12 -16,-21 -32,-33 -67,-70 -144,-9 -79,-131 12,-17 46,-62 58,-70 -25,86 28,123 74,192 12,17 20,42 32,58 0,0 49,-90 74,-115 30,-37 49,-77 33,-135 21,12 87,102 83,143 -13,25 -62,12 -120,70 -3,9 -8,9 -12,16l-12 17 0 0z"/>
  <path class="fil4" d="M1797 1567l-997 0c-111,0 -225,-24 -225,103 0,111 0,221 0,332 3,119 127,94 234,94 222,0 442,0 660,0 370,-4 764,0 1137,0 62,0 127,0 189,0 66,0 91,-37 95,-97l102 -25c0,98 0,976 4,993 -8,-45 0,-415 0,-493 0,-164 0,-332 0,-496 0,-13 12,-9 33,-16 16,-5 28,-9 45,-9l156 -45 17 -4 -17 0 -156 -16 -78 -9 0 -308c0,-65 5,-65 -13,-86 13,21 13,12 13,41l-4 353 -102 -8c-17,-119 37,-254 -53,-295 -34,-17 -284,-9 -342,-9 -229,0 -463,4 -698,0l0 0z"/>
  <path class="fil0" d="M4125 504l16 8c91,33 156,95 173,197 12,74 -4,333 4,390 4,21 4,0 16,21 9,21 4,111 4,139 21,-12 46,-41 66,-53l107 -90c0,-62 -4,-91 37,-123 33,-30 95,-21 144,-21 106,0 217,0 324,0 213,0 439,8 649,0l61 -123c16,-41 29,-99 32,-152 4,-111 -32,-217 -81,-284 -103,-151 -227,-233 -452,-278 -144,-29 -332,4 -448,90 -41,29 -61,58 -97,86 -169,132 -342,160 -551,185 8,4 17,4 21,12l-25 -4 0 0zm349 184c-25,-32 -37,-28 -33,-114 4,-94 74,-148 160,-173 29,-7 24,0 29,0 16,9 49,9 62,17 -21,13 -30,8 -49,4 -30,-4 -46,-4 -79,0 21,16 61,4 86,16 -37,29 -44,25 -65,21 -25,-4 -62,-9 -78,8l86 4c0,9 -29,33 -45,29 -41,-4 -46,0 -78,12l16 5c4,0 25,-5 58,-5 -5,12 -25,37 -42,42 -28,12 -41,7 -49,37 17,-5 21,-17 45,-21 0,12 -8,16 -12,28 -4,13 -8,25 -4,33 4,-17 20,-49 33,-57l12 57c5,13 0,8 8,17 9,-34 -3,-57 -12,-87 16,-16 21,-28 41,-40 21,45 12,82 24,123 25,-46 -7,-99 -16,-136 16,-4 25,-16 37,-24 34,49 16,102 29,130 17,-44 0,-97 -16,-139 16,-16 24,-16 45,-28 25,49 16,65 20,123 29,-37 -4,-90 -8,-132l33 -12c12,21 8,45 12,61 0,9 0,5 4,9 5,-33 5,-46 -8,-74l62 -28c-9,28 -21,40 -30,49 -7,24 -12,61 -40,111 -37,57 -103,127 -177,122 -8,0 -24,0 -33,0 -20,0 -16,5 -28,12l0 0zm156 -291c16,-8 49,-12 69,-12 21,-4 53,-4 74,-4 -8,13 -49,29 -65,29 -29,-4 -41,-13 -78,-13l0 0z"/>
  <path class="fil0" d="M2754 2885c9,4 9,4 9,-5l-9 5c-16,8 -25,25 -28,41 0,0 3,0 3,4l13 12c4,-4 0,-20 12,0l12 54 185 7c13,5 20,0 32,0 0,0 13,5 13,5l8 4 -8 -45c-4,-17 -4,-895 -4,-993l-102 25c-4,60 -29,97 -95,97 -62,0 -127,0 -189,0 -373,0 -767,-4 -1137,0 -16,46 -40,79 -57,132 -37,111 -50,209 4,316 29,54 37,58 66,91 4,7 0,0 4,7 4,9 -4,-7 4,9l4 8c-4,-21 0,-41 12,-57 34,-54 62,-41 90,-50 78,-33 34,-12 66,-37 12,-12 8,-4 21,-16l21 -12c24,-17 -9,0 37,-33 24,-17 3,-17 69,-37 8,-16 0,-21 21,-34 21,-7 24,-3 33,-24 28,-45 7,-115 122,-82 25,9 21,9 33,21 13,12 21,12 33,25 0,20 -12,23 -29,36 -12,17 12,29 -20,61 -17,21 -33,17 -61,25l0 17c3,12 7,20 16,29 16,24 21,40 8,65 -8,17 -5,9 -5,33 -3,12 -19,4 -32,4 4,42 74,164 94,189l-4 -50 353 0 0 62 0 5 0 -5c21,-4 29,-32 45,-53 17,-21 25,-37 41,-57 13,-17 33,-42 33,-66 0,-8 -8,-50 -3,-82 -9,-12 -9,-8 -9,-25 0,-37 -12,-24 9,-57 -21,-9 -17,-21 -34,-25 -12,-9 -90,4 -94,-78l-16 -12c-9,-4 -9,-4 -13,-9 -4,-20 -21,-32 0,-57 0,0 4,-4 9,-8 7,-9 7,0 16,-9 25,-16 12,-56 74,-28 12,9 28,12 45,16 37,9 16,17 45,74 5,12 12,41 0,49l-4 -3 -4 -5 -4 -4 0 0 0 0 4 4 4 5 4 3 0 13 -4 21 4 -21 5 -13c3,0 74,16 102,34 28,19 0,-9 62,28 7,8 16,12 28,16 16,17 9,9 21,25 7,8 53,29 78,54 33,24 61,98 70,111 20,16 16,3 12,69 12,8 8,-9 8,12 -4,9 -33,66 -66,70 25,-17 37,-29 53,-54 5,-12 9,-12 9,-28l-4 12c0,0 0,0 0,0l-25 37c-17,29 -29,16 -36,37 -9,-4 -5,-4 -9,4 9,0 9,5 9,-4 7,0 0,-4 3,0 -8,12 -3,12 -16,25 0,8 0,4 -5,8 5,-12 9,-12 9,-29 -4,8 -9,17 -12,29 -9,0 -4,-4 -4,8 12,0 7,5 4,-8 8,13 8,0 0,16 -4,4 -9,4 -13,9l-16 25c0,0 -5,0 -5,0l-3 -5c12,-4 21,-16 28,-25 0,-4 0,-4 0,-4l5 -8c0,0 0,0 0,-4l-42 46c9,7 9,0 5,3 -12,13 -9,4 -9,0 9,4 9,4 9,-3 -9,0 -9,-5 -9,3 -8,0 -8,-3 -8,4 12,13 12,0 0,13 0,0 -20,12 -20,24 0,13 7,9 4,13 0,0 0,4 0,0 0,0 -4,4 -4,4 -5,-8 0,-4 -9,-8 9,-25 16,-29 25,-41l0 0z"/>
  <path class="fil0" d="M1810 1074c8,30 24,58 37,107 17,87 8,189 -13,275 -7,41 -24,74 -37,111 235,4 469,0 698,0 58,0 308,-8 342,9 90,41 36,176 53,295l102 8 4 -353c0,-29 0,-20 -13,-41l-3 -152c0,-28 12,-25 12,-33 4,-24 4,-48 -4,-66 -8,-12 -5,5 -8,-12 0,-16 0,-65 0,-81 0,-169 16,-13 16,-153 0,-41 -4,-16 -13,-36l0 -79c0,-24 5,-7 9,-28 4,-13 4,-66 4,-83 0,-28 5,-49 5,-74l-71 -32c0,390 37,418 -160,418l-960 0 0 0z"/>
  <path class="fil5" d="M4244 3479c0,-20 -4,-7 -8,-12 4,21 0,12 8,12l8 25c-20,0 -12,-4 -12,5 -8,-5 -8,-5 -8,4 -5,-4 -5,-4 0,3 -9,-3 -5,-3 -9,5 9,0 9,4 9,-5 4,0 4,0 0,-3 8,0 8,0 8,-4 20,4 8,-5 12,-5l-8 -25zm82 13c-16,-45 8,-50 5,-94 -9,-33 -17,-46 -17,-90 0,-33 -13,-58 -20,-86 -9,-25 -34,-58 -17,-83 -4,-41 -13,-41 4,-74 16,-21 16,-37 29,-57 16,-107 8,-279 8,-394l0 -1088c0,-24 -4,-91 8,-91l8 0 0 -7 0 -99 -98 50 0 902c58,29 16,29 33,78l-21 5c0,0 -4,0 -4,0l-8 -18 0 71c-9,3 -21,3 -29,8 -20,8 0,8 -20,16l-29 -28c-21,-17 -49,-5 -66,7 -20,13 -37,5 -62,0l-16 -7c-4,4 -4,7 -9,7l-7 5c-9,29 -21,20 -49,20 -58,-7 -95,-53 -127,-99l-25 -19 -33 12 -9 4c-12,12 -7,16 0,33 9,7 12,16 21,28 9,13 12,21 16,29 12,24 5,17 25,29l123 69 25 5c0,20 -16,139 -20,164 -9,29 -25,136 -21,164 28,0 37,-12 81,-12 5,45 0,95 5,144 0,41 13,85 13,122l-797 0c-70,0 -148,-4 -152,-110 0,-177 0,-353 0,-530 0,-127 8,-419 0,-525 -17,0 -29,4 -45,9 -21,7 -33,3 -33,16 0,164 0,332 0,496 0,78 -8,448 0,493l8 45c25,45 16,53 53,94 99,107 202,82 366,82 53,0 563,0 600,4 3,9 3,12 7,30 9,24 21,127 29,164 4,40 -8,24 -8,61 8,4 8,4 16,12l-16 8c0,0 0,0 0,9 4,12 0,3 8,8l-8 -17 16 0c0,0 -8,5 -4,17 4,4 9,16 13,20 77,-4 33,-12 61,-45 0,8 0,0 0,8 -4,5 -4,12 -4,12 -4,13 -8,17 0,30 -4,7 -8,7 4,7l-4 -7 4 -30c16,-53 0,0 0,-40 0,-16 9,-9 0,-37 -21,-50 -4,-45 -8,-127 0,-21 -4,-74 0,-90l49 -21c9,12 9,16 9,28 3,17 28,49 36,103 4,50 -12,91 4,119 9,9 5,4 13,9 4,3 4,3 8,3 4,9 0,4 4,9 0,0 0,0 0,4l-4 16c-8,-4 -8,-4 -4,4 -8,-4 -8,-4 -8,4 8,0 8,4 8,-4 4,0 4,0 4,-4 0,-4 0,-4 0,-4l12 -21c0,9 -40,70 25,70 21,0 33,-8 41,-8l0 0zm-263 8c4,-12 9,-8 -4,-8 0,8 0,8 4,8 0,9 -4,4 4,4 -4,9 -4,9 5,9 0,-9 4,-9 -5,-9l-4 -4zm66 -382c-4,-20 -4,-69 8,-85 13,24 16,57 29,81l-37 4z"/>
  <path class="fil6" d="M2241 2996c-8,16 -21,16 -41,16 -131,-4 -135,-156 -54,-197 58,-29 127,0 144,41 20,41 8,98 -33,103 -20,4 -32,-12 -32,-12 -5,0 -5,0 -5,-5 -37,29 -74,21 -74,-32 0,-50 46,-71 71,-37 8,-13 8,-13 24,-13 0,20 -4,62 4,74 33,37 45,-61 12,-91 -28,-24 -86,-28 -118,-4 -25,25 -33,83 -13,120 29,49 94,25 115,37l0 0zm-218 -214l0 41c9,8 42,33 33,57 -8,25 -12,-4 -24,5 -4,4 -4,25 -9,32l-28 0 -9 0c-7,0 -7,5 -7,-4 -5,0 -5,0 -5,-3 -8,0 -4,0 0,-9l-4 -8c-16,-4 -41,-8 -57,-17l-116 -40c-56,-21 -44,-30 -53,-17 9,45 25,33 4,91 -12,24 -12,65 -12,98 0,36 5,66 8,94 0,12 4,29 9,37 0,4 20,33 20,33 17,16 8,25 29,29 -12,-9 -17,-9 -21,-29 74,0 132,-5 205,-8 86,0 354,-4 428,0 65,8 53,3 102,0 21,0 33,0 46,-4 7,-9 19,-21 24,-29 20,-33 16,-54 13,-98 -5,-30 -13,-58 -18,-86 -7,-5 0,0 -3,-9 -4,-4 -4,-8 -4,-8 -5,-8 -5,-13 -5,-20l0 0c-4,-5 -4,-5 -7,-9 -5,-12 0,-4 0,-12l0 0c-13,0 -9,4 -5,-9 -12,17 21,37 24,107 -36,-3 -69,-8 -106,-8 -119,-12 -103,0 -103,-62 -8,-7 -16,-7 -25,-7l-12 -5 -4 -4 -4 -4c0,-24 4,-4 17,-24l-29 -9c0,-12 0,-8 8,-16 8,-9 37,-12 45,-12l4 -37 0 -5 0 -62 -353 0 4 50 0 0z"/>
  <path class="fil0" d="M2775 3262c0,21 4,21 -17,21l-90 8c-37,0 -78,4 -87,-32 58,-9 66,-21 95,-55 -45,0 -172,9 -181,-32 21,-5 46,0 62,-8 8,-4 12,-9 17,-13l16 -12c0,0 0,0 4,-4l-8 -4c-5,8 -17,20 -24,29 -13,4 -25,4 -46,4 -49,3 -37,8 -102,0 -74,-4 -342,0 -428,0 -73,3 -131,8 -205,8 4,20 9,20 21,29 -21,-4 -12,-13 -29,-29 12,45 24,20 33,50 -9,7 -9,7 -25,12l-8 20c-20,5 -45,5 -69,0 -13,-4 -13,-8 -30,-4 -12,0 -37,25 -32,-83 0,0 0,5 0,5 0,0 0,0 -5,0 -4,8 0,16 -4,13 0,0 0,0 -3,3 -9,-8 -21,-3 -42,0 -53,9 -266,21 -283,66 37,33 136,45 189,54 242,28 451,32 702,32 151,0 805,-4 891,-86 -17,-45 -243,-66 -312,-69 0,16 4,12 7,24 -28,-24 0,-54 -16,-78 0,49 -8,61 16,86 5,-25 13,12 5,24l0 -3c0,0 0,-4 0,-4l-5 -12c0,16 0,7 -3,19 8,13 3,-7 3,21 0,9 0,13 0,16 -12,21 -114,17 -118,17 12,0 16,0 32,-4l30 0c28,-4 40,0 53,-13 3,-28 0,-7 -4,-16l0 0z"/>
  <path class="fil5" d="M2331 2330l21 16c29,-7 32,-36 69,-23 30,7 37,28 62,44 21,-8 5,-8 25,-12l0 0 4 4 4 5 4 3c12,-8 5,-37 0,-49 -29,-57 -8,-65 -45,-74 -17,-4 -33,-7 -45,-16 -62,-28 -49,12 -74,28 -9,9 -9,0 -16,9 -5,4 -9,8 -9,8 -21,25 -4,37 0,57zm189 50l-4 21c-4,19 -4,37 -8,53 -4,24 -4,3 -29,8l0 49c0,17 0,13 9,25l0 20c37,0 28,12 69,-4 33,-21 29,-21 70,-8 8,70 -41,78 -25,98l4 5c29,12 37,20 70,25 -8,57 4,12 -24,57l-74 90c-16,24 -16,33 -21,61l5 9 0 0 7 21 0 0c5,3 0,-5 5,7 4,5 0,5 4,9 0,8 3,12 3,21 5,28 13,56 18,86 3,44 7,65 -13,98l8 4c-4,4 -4,4 -4,4l-16 12c-5,4 -9,9 -17,13 -16,8 -41,3 -62,8 9,41 136,32 181,32 -29,34 -37,46 -95,54 9,37 50,33 87,33l90 -8c21,0 17,0 17,-21 0,-4 -5,-4 0,-12 0,-12 0,-4 4,-9 3,-12 3,-3 3,-19l0 -5c-24,-25 -16,-37 -16,-86 -3,-62 -8,-131 -24,-189l-13 -12c0,-4 -3,-4 -3,-4 3,-16 12,-33 28,-41l9 -5 -5 0c0,-7 0,-4 8,-4 0,-8 0,-3 9,-3l-5 0 42 -46 0 4c0,-12 -5,-8 4,-8 3,-12 8,-20 12,-29l0 0c4,-8 0,-8 9,-4 7,-21 19,-8 36,-37l25 -37c0,0 0,0 0,0l4 -12 -4 0c4,-66 8,-53 -12,-69 -9,-13 -37,-87 -70,-111 -25,-25 -71,-46 -78,-54 -12,-16 -5,-8 -21,-25 -12,-4 -21,-7 -28,-16 -62,-37 -34,-9 -62,-28 -28,-18 -99,-34 -102,-34l-5 13 0 0z"/>
  <path class="fil5" d="M3776 582c12,21 -4,53 -28,32 -13,-11 -5,-40 28,-32zm-217 37c-37,0 -37,-28 -17,-37 8,-4 58,-4 70,-4 45,0 119,-12 94,36 -49,5 -98,5 -147,5zm-361 -115l-25 4c-12,9 -21,9 -33,13 -12,8 -16,12 -33,16 4,4 4,0 -4,4l0 0c0,8 0,4 -9,0 -3,17 -37,33 -56,70 12,12 28,24 44,37 5,-37 42,-70 83,-78 24,-4 139,-4 160,0 0,78 32,106 111,106l426 0c78,0 115,-25 120,-106 20,-4 180,-12 221,28 45,41 33,152 33,226 0,172 0,345 0,518 12,-5 37,-30 49,-37 16,-17 29,-29 49,-41l0 -144c-12,-21 -12,0 -16,-21 -8,-57 8,-316 -4,-390 -17,-102 -82,-164 -173,-197l-16 -8 -4 0c-8,0 -25,0 -25,-4 -54,8 -168,0 -230,0 -115,0 -594,-4 -668,4l0 0z"/>
  <path class="fil5" d="M1494 2659c21,61 127,193 139,217 21,37 -12,99 0,157 4,11 9,24 9,36 4,25 8,21 12,33 4,21 -8,58 -12,65 -5,108 20,83 32,83 17,-4 17,0 30,4 24,4 49,4 69,0l8 -20c16,-5 16,-5 25,-12 -9,-30 -21,-5 -33,-50 0,0 -20,-29 -20,-33 -5,-8 -9,-25 -9,-37 -3,-28 -8,-58 -8,-94 0,-33 0,-74 12,-98 21,-58 5,-46 -4,-91 -8,-8 -61,-124 -65,-144 8,-12 12,-20 32,-24 37,-9 37,-41 128,-37 -21,-148 -66,-62 -61,-164 32,-9 74,-21 90,7 20,42 -9,58 -13,83 4,0 9,4 16,4 21,8 13,0 13,49l12 -20c0,0 0,0 0,-5 9,13 12,17 29,25 20,5 29,5 36,-4 0,-24 -3,-16 5,-33 13,-25 8,-41 -8,-65 -9,-9 -13,-17 -16,-29 -17,-37 16,-33 28,-61 21,-42 0,-34 53,-42 17,-13 29,-16 29,-36 -12,-13 -20,-13 -33,-25 -12,-12 -8,-12 -33,-21 -115,-33 -94,37 -122,82 -9,21 -12,17 -33,24 -21,13 -13,18 -21,34 -66,21 -45,21 -69,37 -46,33 -13,16 -37,33l-21 12c-13,12 -9,4 -21,16 -32,25 12,4 -66,37 -28,9 -56,-4 -90,50 -12,16 -16,36 -12,57z"/>
  <path class="fil5" d="M5426 2741c-4,45 -17,74 -25,115 -4,29 -11,29 -16,49 -4,21 0,45 5,66 0,4 0,13 0,16l3 16c20,66 20,103 37,177 4,8 8,21 8,33l12 28c0,0 0,0 0,5 -16,8 -28,45 -94,62l-8 7c-8,17 0,17 0,17l8 8c29,5 57,0 82,0 12,-8 21,-8 42,-12l12 0c28,0 45,4 62,-8l0 -21c-9,-16 -5,-16 -5,-33 -4,-20 -4,-16 -16,-16 8,-25 0,-33 -9,-58 0,-7 -7,-98 -16,-123 -12,-29 -8,-36 -12,-61 -4,-17 -9,-12 -9,-21 0,-8 5,-3 0,-28 0,-21 -4,-5 17,-49 16,-34 25,-67 41,-104 25,17 25,25 33,58 8,25 20,41 25,66 7,20 16,57 28,70 29,24 41,40 50,44 8,9 20,9 28,17l58 87c12,16 16,12 20,24 8,8 5,8 8,16 4,25 13,25 9,53 -5,13 -5,25 -9,37 -12,34 -53,34 -24,58l8 4 0 0 53 0 4 0 21 -8 -4 0c8,-8 12,-12 20,-20l0 3 5 -7c7,-37 69,-62 32,-91l-20 -29c0,0 0,-3 0,-3 0,0 0,0 0,0l-8 -13c0,0 0,-5 0,-5 -4,-3 -4,-3 -9,-7 -16,-17 -20,-42 -37,-70 -12,-13 -20,-25 -28,-41 -25,-37 -34,-53 -66,-78 -33,-29 -24,-66 -33,-78 -4,-13 -8,-8 -8,-25 -12,-16 0,-32 -8,-53 -4,-25 -9,-25 -9,-49 0,-34 -7,-71 -12,-99 -12,-16 0,0 -7,-8l-25 0 0 82 -214 0 0 0z"/>
  <polygon class="fil7" points="3263,2979 3612,2979 3612,2630 3263,2630 "/>
  <path class="fil5" d="M2983 1485c18,21 13,21 13,86l0 308 78 9 4 -1163 -77 -37c0,25 -5,46 -5,74 0,17 0,70 -4,83 -4,21 -9,4 -9,28l0 79c9,20 13,-5 13,36 0,140 -16,-16 -16,153 0,16 0,65 0,81 3,17 0,0 8,12 8,18 8,42 4,66 0,8 -12,5 -12,33l3 152 0 0z"/>
  <path class="fil6" d="M3226 1087l168 -4 0 65 -168 0 0 -61zm176 61l0 -16c13,-8 91,-4 103,0 0,28 -29,16 -103,16zm99 -57c9,33 -33,41 -41,16 -8,-28 25,-45 41,-16zm-99 33l0 -20 0 -17 50 -4c12,41 -13,41 -50,41zm-114 -94c12,12 8,20 16,28 4,9 16,9 25,16 -9,9 -21,9 -37,5l-4 -49 0 0zm102 37c-21,-13 0,-17 -21,-50 -16,13 -7,13 -12,25 -41,-12 -16,-12 -37,-33 -4,8 -4,12 0,21 12,20 33,12 46,24 8,13 3,16 -9,16 -12,0 -41,-12 -45,-20 -4,-4 -20,-33 -20,-41 -13,-46 57,-37 74,-21 8,8 8,8 16,17 17,12 29,53 8,62l0 0zm-45 -104c-70,25 -45,-81 8,-28 0,12 -4,21 -8,28zm-160 247l349 0 0 -349 -349 0 0 349z"/>
  <path class="fil6" d="M3776 1571l0 -123c41,0 0,8 65,12l5 95c-17,0 -33,-4 -42,4 -7,4 0,12 -28,12l0 0zm78 -28l0 -71c74,0 49,0 86,30 21,-5 70,-25 86,-25 53,4 -12,41 -24,49 -13,8 -53,41 -66,45 -37,5 -49,-28 -82,-28l0 0zm70 -198c70,-20 102,87 33,107 -70,17 -107,-86 -33,-107zm-185 284l349 0 0 -345 -349 0 0 345z"/>
  <path class="fil6" d="M3473 1986c-165,4 -71,-177 -17,-193 -13,-12 -17,-16 17,-16 49,-5 12,16 12,16 20,8 16,12 28,24 9,9 17,13 25,21 9,16 25,41 29,62 8,65 -37,86 -94,86l0 0zm7 -259c21,-12 9,-17 33,-4 0,8 -8,33 -16,41 -8,13 -33,8 -49,8 -5,-12 -17,-32 -12,-45l3 -4c0,0 4,0 4,0l13 8c4,-12 4,-16 12,-24l12 20 0 0zm-184 -8l4 299 345 0 0 -348 -345 0 -4 49z"/>
  <path class="fil6" d="M5554 3299c19,16 -5,29 -9,33 25,-12 9,-12 21,-33 41,0 86,0 127,0 21,0 41,0 62,4 16,0 12,9 37,-20l3 -5c4,-12 4,-24 9,-37 4,-28 -5,-28 -9,-53 -3,-8 0,-8 -8,-16 -4,-12 -8,-8 -20,-24l-58 -87c-8,-8 -20,-8 -28,-17 -9,-4 -21,-20 -50,-44 -12,-13 -21,-50 -28,-70 -5,-25 -17,-41 -25,-66 -8,-33 -8,-41 -33,-58 -16,37 -25,70 -41,104 -21,44 -17,28 -17,49 5,25 0,20 0,28 0,9 5,4 9,21 4,25 0,32 12,61 9,25 16,116 16,123 9,25 17,33 9,58 12,0 12,-4 16,16 0,17 -4,17 5,33z"/>
  <path class="fil6" d="M3936 2228l103 115c20,21 24,21 33,45 -13,4 -13,8 -25,13 -24,-21 -127,-136 -135,-157 8,-4 12,-12 24,-16l0 0zm-61 -49c0,8 3,3 -4,3 -5,9 -5,9 -12,18l-5 3 -4 4 -4 5 -5 4c0,3 0,3 -7,0 0,8 4,3 -5,3 0,9 5,5 -4,5 0,8 4,4 -3,8l-5 5 -32 32c0,24 -9,33 7,49 9,12 17,17 30,28 32,46 69,91 127,99 28,0 40,9 49,-20l-29 -33 25 -21 36 42 0 7c25,5 42,13 62,0 17,-12 45,-24 66,-7l0 -17c-17,8 -37,5 -58,5 -21,-37 -4,-50 -45,-55l0 -19 -8 -4c-8,4 -5,4 -5,-5 -7,-4 0,0 -7,-4l-12 -16c7,-8 16,-17 28,-21l4 -12c-4,-21 -20,-25 -29,-41l25 -21c25,25 25,29 37,41 12,12 0,9 16,9 49,-16 49,0 66,16 41,37 37,29 8,111l49 -41c9,4 5,-9 9,7l8 18c0,0 4,0 4,0l21 -5c-17,-49 25,-49 -33,-78 -33,-12 -177,-201 -213,-226 -18,9 -115,111 -148,124l0 0z"/>
  <path class="fil6" d="M5353 2466l114 0 0 45 111 0 0 161 -225 0 0 -206 0 0zm213 -70c-29,17 -255,-13 -271,8 -16,16 4,87 -9,107l13 8c0,0 4,0 4,5 0,0 0,0 0,0 0,7 0,7 -4,12l-4 4c8,16 4,8 4,16l0 21 -13 0 5 168 110 0c12,0 12,4 25,-4l214 0 0 -82c-17,-12 7,-17 -5,-41 -16,12 0,12 -20,17 -8,-25 13,-37 20,-50l-4 -17c0,-28 9,5 0,-32 -8,-45 -8,-37 -21,-79 -7,-19 0,-19 -12,-40 -4,0 -4,3 -4,-4 -3,0 -3,0 -3,-5 -5,-4 -9,9 -5,-7 -4,0 -4,0 -4,-5 -21,0 -8,-4 -12,-4l0 0c0,4 0,4 -4,4l0 0z"/>
  <path class="fil8" d="M4786 2860l-37 13c-13,3 -21,12 -33,12 -4,8 8,4 -13,12l-53 8c-20,5 -53,5 -69,12 -5,33 12,58 16,79l0 7c21,30 41,30 83,37 48,9 278,41 299,4 8,-28 -5,-36 -12,-60 -9,-9 -9,-13 -17,-25 -8,-9 -8,-12 -16,-21 -46,-70 -37,-78 -74,-82 -29,-4 -53,8 -74,4l0 0z"/>
  <path class="fil2" d="M4474 688c12,-7 8,-12 28,-12 9,0 25,0 33,0 74,5 140,-65 177,-122 28,-50 33,-87 40,-111 9,-9 21,-21 30,-49l-62 28c13,28 13,41 8,74 -4,-4 -4,0 -4,-9 -4,-16 0,-40 -12,-61l-33 12c4,42 37,95 8,132 -4,-58 5,-74 -20,-123 -21,12 -29,12 -45,28 16,42 33,95 16,139 -13,-28 5,-81 -29,-130 -12,8 -21,20 -37,24 9,37 41,90 16,136 -12,-41 -3,-78 -24,-123 -20,12 -25,24 -41,40 9,30 21,53 12,87 -8,-9 -3,-4 -8,-17l-12 -57c-13,8 -29,40 -33,57 -4,-8 0,-20 4,-33 4,-12 12,-16 12,-28 -24,4 -28,16 -45,21 8,-30 21,-25 49,-37 17,-5 37,-30 42,-42 -33,0 -54,5 -58,5l-16 -5c32,-12 37,-16 78,-12 16,4 45,-20 45,-29l-86 -4c16,-17 53,-12 78,-8 21,4 28,8 65,-21 -25,-12 -65,0 -86,-16 33,-4 49,-4 79,0 19,4 28,9 49,-4 -12,-8 -46,-8 -62,-17 -5,0 0,-7 -29,0 -86,25 -156,79 -160,173 -4,86 8,82 33,114l0 0z"/>
  <path class="fil5" d="M5406 2392l160 4c-5,-8 -5,-8 4,-4 0,-9 0,-9 0,0 12,0 8,-9 12,4 9,-4 9,-4 4,5 8,0 5,-5 5,7l3 5c9,0 4,-5 4,4 12,20 5,20 12,40 13,42 13,34 21,79 9,37 0,4 0,32l4 13 58 8c4,-24 -9,-45 -4,-78 4,-24 4,-49 4,-78 -4,-25 0,-50 -12,-69 -9,-21 -4,-9 -21,-21 -13,-8 -13,-8 -29,-16 -24,-13 -77,-25 -86,-34 -33,-28 -4,-32 -82,-40 -13,0 -13,-4 -29,-9 -16,0 -28,5 -41,0 -40,42 0,102 13,148l0 0z"/>
  <path class="fil0" d="M4079 3570c0,-8 0,-4 -7,-8 -9,8 -9,16 -37,-4l12 0c-5,-8 -5,-8 -12,-12 -5,7 0,12 -9,0 -3,-5 0,0 0,-9 0,-4 9,-21 13,-21l3 9c-3,0 -3,0 -3,0l-4 12 12 -16c-53,-8 -250,12 -283,32 58,58 763,58 833,5 -33,-29 -197,-37 -259,-42 -4,-24 -12,-28 -7,-53 0,-24 7,-24 7,-45 5,-29 -16,-61 -16,-94 -4,-58 -8,-74 -28,-115 -21,-49 -13,-42 -17,-70 -17,25 8,58 17,83 7,28 20,53 20,86 0,44 8,57 17,90 3,44 -21,49 -5,94l5 58c-17,3 -25,3 -42,3 -20,-3 -20,-3 -37,-7 5,0 5,7 17,12 12,4 49,0 62,0 -30,12 -95,0 -108,-21 9,4 0,4 13,9 8,0 4,0 12,0l-21 -13c0,0 -4,-4 -4,-4 -3,8 0,4 -3,8l-9 -21c-24,-3 -61,0 -74,0 0,9 0,17 4,30 5,28 -8,28 -57,24 20,17 57,4 57,4 5,0 5,0 5,0 -13,9 -25,9 -46,4 -12,0 -53,0 -21,-8l0 0z"/>
  <path class="fil0" d="M1744 2819c9,-13 -3,-4 53,17l116 40c16,9 41,13 57,17l4 8c-4,9 -8,9 0,9 0,3 0,3 5,3 0,9 0,4 7,4l9 0 -9 0c0,-7 0,-7 -7,-4 0,-8 3,-8 -5,-3 5,-9 5,-9 0,-9l-4 -8c-12,-107 -25,-74 -65,-136 -13,-16 -25,-45 -37,-65 -13,-25 -16,-54 -29,-78 -91,-4 -91,28 -128,37 -20,4 -24,12 -32,24 4,20 57,136 65,144l0 0z"/>
  <path class="fil9" d="M2372 2794l0 5 -4 37c-8,0 -37,3 -45,12 -8,8 -8,4 -8,16l29 9c-13,20 -17,0 -17,24l4 4 4 4 12 5c74,7 91,-62 153,-111 25,-25 37,-42 57,-74 8,-5 21,-30 24,-41 5,-12 5,-17 5,-29 8,-25 4,-13 16,-13l4 5 -4 -5c-16,-20 33,-28 25,-98 -41,-13 -37,-13 -70,8 -41,16 -32,4 -69,4l0 -20c-5,32 3,74 3,82 0,24 -20,49 -33,66 -16,20 -24,36 -41,57 -16,21 -24,49 -45,53l0 0z"/>
  <path class="fil0" d="M5779 3340l-8 -4c-29,-24 12,-24 24,-58l-3 5c-25,29 -21,20 -37,20 -21,-4 -41,-4 -62,-4 -41,0 -86,0 -127,0 -12,21 4,21 -21,33 4,-4 28,-17 9,-33l0 21c-17,12 -34,8 -62,8 16,12 32,8 49,4 -17,13 -8,4 -12,4l-79 0c17,0 17,0 30,-8 -21,4 -30,4 -42,12 17,0 8,0 12,5 -20,7 -106,28 -110,-21l0 -4c4,20 4,20 16,20l-8 -8c0,0 -8,0 0,-17l8 -7c-16,4 -8,-5 -16,12l-4 -8c-45,3 -115,8 -140,28 46,53 784,58 834,0 -21,-20 -103,-25 -140,-28 -12,-4 0,3 -12,-4l-5 7c9,5 9,-7 5,5l-17 12 12 -20c-8,8 -12,12 -20,20 4,0 20,4 -5,8l5 -4c0,-4 4,-4 4,-4l-21 8c12,0 9,0 12,5 -12,4 -24,7 -37,7 -12,0 -24,0 -32,-7 16,4 41,7 53,-5l-53 0c-8,9 8,5 -8,5l-13 -17c9,8 4,8 21,12l0 0z"/>
  <path class="fil0" d="M2557 2880c-4,13 -8,9 5,9l-5 -9c5,-28 5,-37 21,-61l74 -90c28,-45 16,0 24,-57 -33,-5 -41,-13 -70,-25l-4 -5c-12,0 -8,-12 -16,13 0,12 0,17 -5,29 -3,11 -16,36 -24,41 -20,32 -32,49 -57,74 -62,49 -79,118 -153,111l-12 -5 -4 -4 -4 -4 4 4 4 4 12 5c9,0 17,0 25,7 0,62 -16,50 103,62 37,0 70,5 106,8 -3,-70 -36,-90 -24,-107l0 0zm12 30c0,7 0,12 5,20 0,0 0,4 4,8 3,9 -4,4 3,9 0,-9 -3,-13 -3,-21 -4,-4 0,-4 -4,-9 -5,-12 0,-4 -5,-7zm0 0l-7 -21c0,8 -5,0 0,12 3,4 3,4 7,9l0 0z"/>
  <path class="fil10" d="M1839 2614c13,24 16,53 29,78 12,20 24,49 37,65 40,62 53,29 65,136l4 8c5,0 5,0 0,9 8,-5 5,-5 5,3 7,-3 7,-3 7,4l9 0 28 0c5,-7 5,-28 9,-32 12,-9 16,20 24,-5 9,-24 -24,-49 -33,-57l0 -41c-20,-25 -90,-147 -94,-189 13,0 29,9 32,-4 -7,9 -16,9 -36,4 -17,-8 -20,-12 -29,-25 0,5 0,5 0,5l-12 20c0,-49 8,-41 -13,-49 -7,0 -12,-4 -16,-4 4,-25 33,-41 13,-83 -16,-28 -58,-16 -90,-7 -5,102 40,16 61,164l0 0z"/>
  <path class="fil7" d="M3230 1904l17 0 -17 4 0 160 349 0 0 -46c-45,-7 -263,9 -279,-4l-4 -299 -66 0 0 185 0 0z"/>
  <path class="fil2" d="M4716 2885c12,0 20,-9 33,-12l37 -13 12 -17c4,-7 9,-7 12,-16 58,-58 107,-45 120,-70 4,-41 -62,-131 -83,-143 16,58 -3,98 -33,135 -25,25 -74,115 -74,115 -12,-16 -20,-41 -32,-58 -46,-69 -99,-106 -74,-192 -12,8 -46,53 -58,70 -65,122 12,61 79,131 16,12 20,21 32,33 12,16 21,16 29,37l0 0z"/>
  <path class="fil6" d="M4133 3509l4 7c13,0 50,-3 74,0l9 21c3,-4 0,0 3,-8l0 -8c4,-8 0,-8 9,-5 -5,-7 -5,-7 0,-3 0,-9 0,-9 8,-4 0,-9 -8,-5 12,-5l-8 -25c-8,0 -4,9 -8,-12l0 -4c0,-8 0,-8 8,-4 -4,-8 -4,-8 4,-4l4 -16c0,-4 0,-4 0,-4 -4,-5 0,0 -4,-9 -4,0 -4,0 -8,-3 -8,-5 -4,0 -13,-9 -16,-28 0,-69 -4,-119 -8,-54 -33,-86 -36,-103 0,-12 0,-16 -9,-28l-49 21c-4,16 0,69 0,90 4,82 -13,77 8,127 9,28 0,21 0,37 0,40 16,-13 0,40l-4 30 0 0zm119 37l-4 0c-8,0 -4,0 -12,0 -13,-5 -4,-5 -13,-9 13,21 78,33 108,21 -13,0 -50,4 -62,0 -12,-5 -12,-12 -17,-12l0 0z"/>
  <path class="fil2" d="M1334 2954c0,-20 16,-16 8,-57 -33,0 -45,20 -54,50l-3 -13c-9,-12 -9,-17 -29,-17 -21,-4 -33,5 -37,21 0,33 45,37 53,62 -33,0 -127,3 -139,33 58,36 308,41 361,0 -16,-30 -95,-33 -132,-33 13,-21 62,-25 30,-70 -30,-4 -30,17 -58,24l0 0z"/>
  <path class="fil2" d="M5422 2626l21 0 0 21 -21 0 0 -21zm-45 0l20 0 0 21 -20 0 0 -21zm45 -45l21 0 0 21 -21 0 0 -21zm-45 0l20 0 0 21 -20 0 0 -21zm90 8c4,-21 4,-4 25,-12l0 -16c-21,-13 -25,12 -25,-25l87 0 0 111 -87 0c0,-37 0,-12 25,-25l0 -17c-17,-7 -29,5 -25,-16zm-24 -37c-9,4 -9,4 -21,4 0,-20 -4,-20 21,-20l0 16zm-66 -16l20 0 0 20 -20 0 0 -20zm66 -29c-5,4 0,4 -21,4l4 -20 20 -4 -3 20zm-46 -20c0,28 0,24 -20,24 0,-17 0,-12 4,-24l16 0zm-44 185l225 0 0 -161 -111 0 0 -45 -114 0 0 206 0 0z"/>
  <path class="fil2" d="M3427 1920c-37,33 -25,-8 -28,-32 20,0 16,-5 24,12 37,-54 57,69 4,20zm90 -29c21,4 30,-8 33,13l0 16c0,12 0,8 -8,12 -16,-4 -8,0 -12,-12l8 -4c0,0 0,0 -4,-4l0 -4c-4,-4 -4,0 -8,-8l-4 28c-37,4 -17,-8 -29,-33l0 33c-17,-8 -13,-8 -20,-20 -9,20 12,12 -9,20l-4 -37c16,4 16,9 20,17 0,0 0,0 0,0l9 -17 21 0c-5,17 -5,17 0,29 7,-4 12,5 7,-29l0 0zm25 9c12,8 0,-9 -4,0 -8,8 4,0 4,0zm-86 -107c-54,16 -148,197 17,193 57,0 102,-21 94,-86 -4,-21 -20,-46 -29,-62 -8,-8 -16,-12 -25,-21 -12,-12 -8,-16 -28,-24 0,0 37,-21 -12,-16 -34,0 -30,4 -17,16l0 0z"/>
  <path class="fil11" d="M4104 2253c-25,12 -25,16 -49,12l-4 12c0,29 -9,16 -9,41 9,-4 9,-4 5,5 8,-5 8,-5 8,4l0 19c41,5 24,18 45,55 21,0 41,3 58,-5 12,-4 12,-4 20,-16 29,-82 33,-74 -8,-111 -17,-16 -17,-32 -66,-16l0 0z"/>
  <path class="fil2" d="M5282 2277c4,25 -24,16 -28,66 8,8 8,8 20,12 0,16 5,28 8,46 29,-9 87,-9 124,-9 -13,-46 -53,-106 -13,-148l-3 -16c-17,-4 -13,-12 -34,-21 -16,5 -20,21 -33,42 -7,20 -16,37 -20,49l-12 -8c-5,0 -5,0 -5,0 -4,-4 -4,-9 -4,-13l0 0z"/>
  <path class="fil2" d="M2176 2885c12,-9 20,-9 32,-5 17,30 12,67 -32,58 -9,-21 -9,-28 0,-53zm65 111c-21,-12 -86,12 -115,-37 -20,-37 -12,-95 13,-120 32,-24 90,-20 118,4 33,30 21,128 -12,91 -8,-12 -4,-54 -4,-74 -16,0 -16,0 -24,13 -25,-34 -71,-13 -71,37 0,53 37,61 74,32 0,5 0,5 5,5 0,0 12,16 32,12 41,-5 53,-62 33,-103 -17,-41 -86,-70 -144,-41 -81,41 -77,193 54,197 20,0 33,0 41,-16l0 0z"/>
  <path class="fil9" d="M2331 2330c4,5 4,5 13,9l16 12c4,82 82,69 94,78 17,4 13,16 34,25 -21,33 -9,20 -9,57l0 -49c25,-5 25,16 29,-8 4,-17 4,-34 8,-53l4 -21 0 -13 -4 -3 -4 -5 -4 -4 0 0c-20,4 -4,4 -25,12 -25,-16 -32,-37 -62,-44 -37,-13 -40,16 -69,23l-21 -16 0 0z"/>
  <path class="fil7" d="M3940 2531l-123 -69c-20,-12 -13,-5 -25,-29 -4,-8 -7,-16 -16,-29 -9,-12 -12,-21 -21,-28 -7,-17 -12,-21 0,-33l0 -13 -4 -7 -3 -9c-5,9 0,-4 -5,9 0,4 0,7 0,12 0,8 0,20 0,29 0,16 0,37 0,53 0,28 -4,82 0,111 42,0 172,-9 197,3l0 0z"/>
  <path class="fil10" d="M5212 2200c0,19 9,40 17,53 13,12 33,16 53,24 0,4 0,9 4,13 0,0 0,0 5,0l12 8c4,-12 13,-29 20,-49 13,-21 17,-37 33,-42 4,-12 4,-16 -3,-28l3 21c-8,-9 -8,-9 -20,-13 -4,16 0,16 -13,25 -16,-12 -7,-21 -16,-37l-25 -29c-20,8 -3,8 -24,12 -16,5 -13,-4 -29,0 -8,24 4,24 -17,42l0 0z"/>
  <path class="fil2" d="M3854 1543c33,0 45,33 82,28 13,-4 53,-37 66,-45 12,-8 77,-45 24,-49 -16,0 -65,20 -86,25 -37,-30 -12,-30 -86,-30l0 71 0 0z"/>
  <polygon class="fil2" points="3226,1148 3394,1148 3394,1083 3226,1087 "/>
  <path class="fil5" d="M5212 2200c21,-18 9,-18 17,-42 16,-4 13,5 29,0 21,-4 4,-4 24,-12l25 29c9,16 0,25 16,37 13,-9 9,-9 13,-25 12,4 12,4 20,13l-3 -21c-5,-21 0,-33 -5,-53 0,0 -78,-34 -106,-21 -30,8 -46,49 -46,90l16 5 0 0z"/>
  <path class="fil2" d="M4306 274c-66,25 -83,78 -58,127 33,0 58,-4 83,-20 16,-12 28,-33 40,-58 -8,-45 -8,-33 -17,-37 -11,17 9,17 0,58 -7,-8 -7,-29 -11,-49 -42,8 4,25 -12,74 -5,-9 -9,-42 -13,-58 -12,12 -12,4 -17,21 13,7 13,37 5,49 0,-8 -5,-17 -5,-24 -4,-21 0,-18 -7,-25 -30,16 0,25 -13,49l-8 -24c-13,7 -9,7 -16,19l3 -24c0,0 -3,5 -8,0 -8,0 -4,0 -4,0 9,-8 4,-4 21,-13 4,0 0,0 4,-3 4,0 8,-4 8,-9l-29 -4c29,-16 37,4 49,-16l-20 -4c-12,-4 -4,0 -12,-4 32,-9 41,4 57,-9 -4,-4 -16,-4 -25,-7l46 0c-16,-9 -21,-13 -41,-9l0 0zm73 29l5 -8 4 -5c0,-7 -4,-4 3,-4l0 -8c-7,-4 -12,-4 -24,5 4,12 4,20 8,28 0,-12 0,-4 4,-8l0 0z"/>
  <path class="fil6" d="M5512 2602l21 0 0 24 -21 0 0 -24zm0 -46l21 0 0 25 -21 0 0 -25zm-20 5l0 16c-21,8 -21,-9 -25,12 -4,21 8,9 25,16l0 17c-25,13 -25,-12 -25,25l87 0 0 -111 -87 0c0,37 4,12 25,25z"/>
  <path class="fil2" d="M3957 1379c0,0 0,3 0,3 12,9 16,-3 12,21 -4,16 4,-5 -12,8 -12,17 0,17 -29,17 0,-25 0,-9 -8,-17 -8,-8 -5,17 -8,-8 -9,-21 0,-8 12,-24 12,-13 -12,-13 16,-13 25,0 5,4 17,13zm-33 -34c-74,21 -37,124 33,107 69,-20 37,-127 -33,-107z"/>
  <path class="fil2" d="M3912 2244c8,21 111,136 135,157 12,-5 12,-9 25,-13 -9,-24 -13,-24 -33,-45l-103 -115c-12,4 -16,12 -24,16l0 0z"/>
  <path class="fil2" d="M3776 1571c28,0 21,-8 28,-12 9,-8 25,-4 42,-4l-5 -95c-65,-4 -24,-12 -65,-12l0 123 0 0z"/>
  <path class="fil7" d="M3743 2232c29,-13 29,17 45,33l29 -28 5 -5c0,-8 -5,-8 3,-8 0,-5 0,-5 4,-5 0,-3 0,-3 5,-3l7 0 5 -4 4 -5 4 -4 4 -3c13,-9 8,-5 13,-18 0,-3 0,-3 4,-3 -13,-9 -111,-4 -132,0l0 53 0 0z"/>
  <path class="fil0" d="M3559 619c49,0 98,0 147,-5 25,-48 -49,-36 -94,-36 -12,0 -62,0 -70,4 -20,9 -20,37 17,37z"/>
  <path class="fil2" d="M3320 1009c21,21 -4,21 37,33 5,-12 -4,-12 12,-25 21,33 0,37 21,50 21,-9 9,-50 -8,-62 -8,-9 -8,-9 -16,-17 -17,-16 -87,-25 -74,21 0,8 16,37 20,41 4,8 33,20 45,20 12,0 17,-3 9,-16 -13,-12 -34,-4 -46,-24 -4,-9 -4,-13 0,-21l0 0z"/>
  <path class="fil11" d="M4051 3467l8 17 0 8c13,0 8,-4 4,8l4 4c9,0 5,0 5,9 -9,8 -9,8 -25,8l-12 16 0 9c7,4 7,4 12,12l25 4c7,4 7,0 7,8l5 0c49,4 62,4 57,-24 -4,-13 -4,-21 -4,-30 -12,0 -8,0 -4,-7 -8,-13 -4,-17 0,-30 0,0 0,-7 4,-12 0,-8 0,0 0,-8 -28,33 16,41 -61,45 -4,-4 -9,-16 -13,-20 -4,-12 4,-17 4,-17l-16 0 0 0z"/>
  <path class="fil12" d="M4306 274c20,-4 25,0 41,9l-46 0c9,3 21,3 25,7 -16,13 -25,0 -57,9 8,4 0,0 12,4l20 4c-12,20 -20,0 -49,16l29 4c0,5 -4,9 -8,9 -4,3 0,3 -4,3 -17,9 -12,5 -21,13 0,0 -4,0 4,0 5,5 8,0 8,0l-3 24c7,-12 3,-12 16,-19l8 24c13,-24 -17,-33 13,-49 7,7 3,4 7,25 0,7 5,16 5,24 8,-12 8,-42 -5,-49 5,-17 5,-9 17,-21 4,16 8,49 13,58 16,-49 -30,-66 12,-74 4,20 4,41 11,49 9,-41 -11,-41 0,-58 9,4 9,-8 17,37 4,-3 4,9 4,-12l4 -8c-4,4 -4,-4 -4,8 -4,-8 -4,-16 -8,-28 12,-9 17,-9 24,-5l0 8c-7,0 -4,-3 -4,4l-3 5c3,0 3,0 3,-5 4,0 4,0 4,-4l0 -8c5,-8 0,0 -4,-16 -12,0 -28,0 -40,0 -16,0 -29,4 -41,12l0 0z"/>
  <path class="fil9" d="M3743 2232c-4,17 -20,24 -25,41 0,25 17,29 30,41l3 9 4 7c5,16 0,5 9,9l33 -12 25 19c-13,-11 -21,-16 -30,-28 -16,-16 -7,-25 -7,-49l32 -32 -29 28c-16,-16 -16,-46 -45,-33l0 0z"/>
  <path class="fil11" d="M4248 3455c0,4 0,4 -4,4 0,8 0,4 -8,4l0 4c4,5 8,-8 8,12l8 25c-4,0 8,9 -12,5 0,4 0,4 -8,4 4,3 4,3 0,3 0,9 0,5 -9,5l0 8c0,0 4,4 4,4l21 13 4 0c17,4 17,4 37,7 17,0 25,0 42,-3l-5 -58c-8,0 -20,8 -41,8 -65,0 -25,-61 -25,-70l-12 21c0,0 0,0 0,4l0 0z"/>
  <path class="fil10" d="M5640 2659l25 0c7,8 -5,-8 7,8 -4,-29 12,-8 25,-29 4,-12 -4,-36 -4,-49l-58 -8 -4 -13 4 17c-7,13 -28,25 -20,50 20,-5 4,-5 20,-17 12,24 -12,29 5,41z"/>
  <path class="fil2" d="M4178 2380c-8,12 -8,12 -20,16l0 17 29 28c20,-8 0,-8 20,-16 8,-5 20,-5 29,-8l0 -71c-4,-16 0,-3 -9,-7l-49 41z"/>
  <path class="fil10" d="M1942 2462l0 -17c28,-7 44,-4 61,-25 32,-32 8,-44 20,-61 -53,8 -32,0 -53,42 -12,28 -45,24 -28,61z"/>
  <path class="fil2" d="M3456 1731l-13 -8c0,0 -4,0 -4,0l-3 4c-5,13 7,33 12,45 16,0 41,5 49,-8 8,-8 16,-33 16,-41 -24,-13 -12,-8 -33,4l-12 -20c-8,8 -8,12 -12,24l0 0z"/>
  <path class="fil2" d="M4055 2265l-4 12c-12,4 -21,13 -28,21l12 16c7,4 0,0 7,4 0,9 -3,9 5,5l8 4c0,-9 0,-9 -8,-4 4,-9 4,-9 -5,-5 0,-25 9,-12 9,-41l4 -12c24,4 24,0 49,-12 -16,0 -4,3 -16,-9 -12,-12 -12,-16 -37,-41l-25 21c9,16 25,20 29,41l0 0z"/>
  <path class="fil6" d="M3928 1428c29,0 17,0 29,-17 16,-13 8,8 12,-8 4,-24 0,-12 -12,-21 0,0 0,-3 0,-3 -12,-9 8,-13 -17,-13 -28,0 -4,0 -16,13 -12,16 -21,3 -12,24 3,25 0,0 8,8 8,8 8,-8 8,17z"/>
  <path class="fil6" d="M2176 2885c-9,25 -9,32 0,53 44,9 49,-28 32,-58 -12,-4 -20,-4 -32,5z"/>
  <path class="fil0" d="M3427 1920c53,49 33,-74 -4,-20 -8,-17 -4,-12 -24,-12 3,24 -9,65 28,32z"/>
  <path class="fil2" d="M4630 397c37,0 49,9 78,13 16,0 57,-16 65,-29 -21,0 -53,0 -74,4 -20,0 -53,4 -69,12l0 0z"/>
  <path class="fil6" d="M3538 1900c4,-9 16,8 4,0 0,0 -12,8 -4,0zm-21 -9c5,34 0,25 -7,29 -5,-12 -5,-12 0,-29l-21 0 -9 17c0,0 0,0 0,0 -4,-8 -4,-13 -20,-17l4 37c21,-8 0,0 9,-20 7,12 3,12 20,20l0 -33c12,25 -8,37 29,33l4 -28c4,8 4,4 8,8l0 4c4,4 4,4 4,4l-8 4c4,12 -4,8 12,12 8,-4 8,0 8,-12l0 -16c-3,-21 -12,-9 -33,-13l0 0z"/>
  <path class="fil2" d="M3402 1148c74,0 103,12 103,-16 -12,-4 -90,-8 -103,0l0 16z"/>
  <path class="fil2" d="M4129 3118l37 -4c-13,-24 -16,-57 -29,-81 -12,16 -12,65 -8,85z"/>
  <path class="fil2" d="M3345 963c4,-7 8,-16 8,-28 -53,-53 -78,53 -8,28z"/>
  <path class="fil2" d="M3402 1124c37,0 62,0 50,-41l-50 4 0 17 0 20z"/>
  <path class="fil2" d="M3998 2425l7 -5c5,0 5,-3 9,-7l16 7 0 -7 -36 -42 -25 21 29 33 0 0z"/>
  <path class="fil2" d="M3501 1091c-16,-29 -49,-12 -41,16 8,25 50,17 41,-16z"/>
  <path class="fil0" d="M3776 582c-33,-8 -41,21 -28,32 24,21 40,-11 28,-32z"/>
  <path class="fil10" d="M5286 2577l13 0 0 -21c0,-8 4,0 -4,-16l4 -4 0 -17c-20,0 -29,5 -25,33 5,9 5,9 8,13 0,8 0,8 4,12l0 0z"/>
  <path class="fil2" d="M3292 1079c16,4 28,4 37,-5 -9,-7 -21,-7 -25,-16 -8,-8 -4,-16 -16,-28l4 49 0 0z"/>
  <polygon class="fil2" points="5512,2626 5533,2626 5533,2602 5512,2602 "/>
  <polygon class="fil2" points="5512,2581 5533,2581 5533,2556 5512,2556 "/>
  <path class="fil6" d="M5377 2511c20,0 20,4 20,-24l-16 0c-4,12 -4,7 -4,24z"/>
  <path class="fil6" d="M5422 2511c21,0 16,0 21,-4l3 -20 -20 4 -4 20z"/>
  <polygon class="fil6" points="5422,2647 5443,2647 5443,2626 5422,2626 "/>
  <polygon class="fil6" points="5377,2647 5397,2647 5397,2626 5377,2626 "/>
  <polygon class="fil6" points="5422,2602 5443,2602 5443,2581 5422,2581 "/>
  <polygon class="fil6" points="5377,2602 5397,2602 5397,2581 5377,2581 "/>
  <polygon class="fil6" points="5377,2556 5397,2556 5397,2536 5377,2536 "/>
  <path class="fil6" d="M5422 2556c12,0 12,0 21,-4l0 -16c-25,0 -21,0 -21,20z"/>
  <path class="fil13" d="M5044 1246l-19 0 0 -48 -48 0 0 48 -19 0 0 -109 19 0 0 45 48 0 0 -45 19 0 0 109zm56 1c-6,0 -11,-1 -16,-3 -5,-2 -9,-4 -12,-8 -3,-3 -6,-7 -8,-12 -2,-5 -2,-10 -2,-16l0 -3c0,-6 1,-12 2,-17 2,-5 5,-9 8,-13 3,-4 7,-6 12,-8 4,-2 9,-3 14,-3 6,0 11,1 15,3 5,2 8,4 11,8 3,3 5,8 7,12 1,5 2,11 2,16l0 8 -53 0c0,3 1,6 2,9 1,3 2,5 4,7 2,2 4,3 7,4 2,1 5,2 8,2 5,0 9,-1 12,-3 3,-2 6,-4 9,-7l9 9c-1,2 -3,4 -4,6 -2,2 -5,3 -7,5 -3,1 -6,2 -9,3 -3,1 -7,1 -11,1zm-2 -69c-5,0 -9,2 -12,5 -3,4 -5,9 -6,15l35 0 0 -1c0,-3 -1,-5 -1,-7 -1,-3 -2,-4 -3,-6 -2,-2 -3,-3 -5,-4 -2,-1 -5,-2 -8,-2zm97 68c-1,-1 -1,-2 -1,-4 -1,-1 -1,-2 -1,-4 -1,2 -3,3 -4,4 -2,1 -3,2 -5,3 -2,0 -4,1 -6,2 -2,0 -4,0 -6,0 -4,0 -8,0 -11,-2 -4,-1 -7,-2 -9,-5 -3,-2 -4,-4 -6,-7 -1,-3 -2,-6 -2,-10 0,-4 1,-8 3,-11 1,-4 4,-6 7,-9 3,-2 7,-4 11,-5 5,-1 10,-1 16,-1l11 0 0 -6c0,-4 -1,-7 -3,-10 -3,-2 -6,-4 -11,-4 -2,0 -4,1 -6,1 -2,1 -3,2 -4,3 -1,1 -2,2 -3,3 -1,1 -1,3 -1,4l-18 0c0,-3 1,-6 2,-9 2,-3 4,-5 7,-8 3,-2 6,-4 10,-5 4,-2 9,-2 14,-2 5,0 9,0 13,1 3,2 7,3 10,6 2,2 4,5 6,8 2,4 2,8 2,12l0 36c0,7 1,13 3,18l0 1 -18 0zm-20 -13c2,0 4,0 6,-1 2,-1 3,-1 5,-2 1,-1 3,-2 4,-3 1,-1 2,-3 2,-4l0 -15 -10 0c-6,0 -11,1 -15,3 -3,3 -5,6 -5,10 0,2 0,4 1,5 1,1 1,3 3,4 1,1 2,1 3,2 2,0 4,1 6,1zm74 13l-19 0 0 -115 19 0 0 115zm42 -101l0 20 14 0 0 14 -14 0 0 45c0,1 0,3 1,4 0,1 1,2 1,3 1,0 2,1 3,1 1,0 2,0 3,0 2,0 3,0 4,0 1,0 2,0 3,0l0 14c-2,0 -3,0 -5,1 -2,0 -4,0 -7,0 -3,0 -6,0 -8,-1 -3,-1 -5,-2 -7,-4 -2,-2 -3,-4 -5,-7 -1,-3 -1,-6 -1,-10l0 -46 -13 0 0 -14 13 0 0 -20 18 0zm46 29c3,-3 6,-6 10,-8 4,-1 8,-2 12,-2 4,0 8,0 11,1 3,1 6,3 8,6 3,2 5,5 6,9 1,4 2,8 2,14l0 52 -18 0 0 -52c0,-6 -2,-10 -4,-12 -3,-2 -6,-4 -11,-4 -4,0 -7,1 -9,3 -3,2 -5,4 -7,7l0 58 -18 0 0 -115 18 0 0 43zm190 36c-1,6 -2,11 -4,15 -2,5 -5,9 -8,12 -4,3 -8,6 -13,8 -5,1 -11,2 -18,2 -7,0 -13,-1 -18,-3 -5,-3 -10,-6 -14,-11 -4,-4 -7,-9 -9,-16 -2,-6 -3,-13 -3,-21l0 -9c0,-8 1,-15 3,-21 3,-6 6,-12 9,-16 4,-5 9,-8 14,-11 6,-2 12,-3 19,-3 6,0 12,1 17,3 5,1 9,4 13,7 3,4 6,8 8,12 2,5 3,10 4,15l-19 0c-1,-3 -1,-6 -2,-9 -1,-3 -3,-5 -4,-7 -2,-2 -4,-4 -7,-4 -3,-1 -6,-2 -10,-2 -4,0 -8,1 -11,2 -4,2 -6,4 -8,7 -2,4 -4,7 -5,12 -1,4 -2,9 -2,15l0 9c0,5 1,10 2,15 1,4 2,8 4,11 2,3 5,6 8,7 3,2 7,3 11,3 4,0 8,0 10,-1 3,-1 5,-3 7,-5 2,-1 4,-4 5,-6 1,-3 1,-6 2,-10l19 0zm33 -36c2,-3 6,-6 9,-8 4,-1 8,-2 13,-2 4,0 8,0 11,1 3,1 6,3 8,6 2,2 4,5 5,9 2,4 2,8 2,14l0 52 -18 0 0 -52c0,-6 -1,-10 -3,-12 -3,-2 -6,-4 -11,-4 -4,0 -7,1 -10,3 -3,2 -5,4 -6,7l0 58 -19 0 0 -115 19 0 0 43zm102 73c-6,0 -11,-1 -16,-3 -5,-2 -9,-4 -12,-8 -3,-3 -6,-7 -8,-12 -2,-5 -3,-10 -3,-16l0 -3c0,-6 1,-12 3,-17 2,-5 5,-9 8,-13 3,-4 7,-6 12,-8 4,-2 9,-3 14,-3 6,0 11,1 15,3 5,2 8,4 11,8 3,3 5,8 6,12 2,5 2,11 2,16l0 8 -52 0c0,3 1,6 2,9 1,3 2,5 4,7 2,2 4,3 7,4 2,1 5,2 8,2 5,0 9,-1 12,-3 3,-2 6,-4 8,-7l10 9c-1,2 -3,4 -5,6 -2,2 -4,3 -6,5 -3,1 -6,2 -9,3 -3,1 -7,1 -11,1zm-2 -69c-5,0 -9,2 -12,5 -3,4 -5,9 -6,15l35 0 0 -1c-1,-3 -1,-5 -2,-7 0,-3 -1,-4 -2,-6 -2,-2 -3,-3 -5,-4 -3,-1 -5,-2 -8,-2zm82 55c2,0 4,0 6,-1 2,-1 3,-2 5,-3 1,-1 2,-3 3,-4 1,-2 2,-4 2,-6l17 0c0,4 -1,8 -3,11 -2,4 -4,7 -7,9 -3,3 -7,5 -10,6 -4,2 -9,2 -13,2 -6,0 -12,-1 -16,-3 -5,-2 -9,-5 -12,-9 -3,-3 -5,-8 -7,-13 -1,-4 -2,-10 -2,-15l0 -3c0,-5 1,-11 2,-15 2,-5 4,-10 7,-13 3,-4 7,-7 12,-9 4,-2 10,-3 16,-3 5,0 9,0 13,2 4,1 8,3 10,6 3,3 6,6 7,10 2,3 3,8 3,12l-17 0c0,-2 -1,-4 -2,-6 0,-2 -1,-4 -3,-5 -1,-2 -3,-3 -5,-4 -2,0 -4,-1 -6,-1 -4,0 -7,1 -9,2 -3,2 -5,4 -6,6 -1,3 -2,6 -3,9 0,3 -1,6 -1,9l0 3c0,3 1,6 1,9 1,3 2,6 3,9 1,2 3,4 6,6 2,1 5,2 9,2zm73 -22l-8 8 0 27 -18 0 0 -115 18 0 0 66 5 -7 23 -25 21 0 -30 34 34 47 -21 0 -24 -35zm88 -4l-39 0 0 -15 39 0 0 15zm64 31c-2,3 -5,5 -9,7 -4,1 -8,2 -13,2 -4,0 -8,0 -11,-1 -3,-1 -6,-3 -9,-6 -2,-2 -4,-5 -5,-9 -1,-4 -2,-8 -2,-14l0 -52 18 0 0 52c0,3 0,6 1,8 1,2 2,3 3,4 1,2 3,2 4,3 2,0 3,1 5,1 5,0 8,-1 11,-3 3,-2 5,-4 7,-7l0 -58 18 0 0 81 -17 0 -1 -8zm107 -32c0,6 -1,12 -2,17 -1,5 -3,9 -6,13 -3,3 -6,6 -10,8 -4,2 -8,3 -13,3 -5,0 -9,0 -12,-2 -4,-1 -7,-4 -10,-6l0 38 -18 0 0 -112 17 0 1 8c2,-3 5,-5 9,-7 3,-2 8,-2 12,-2 6,0 10,1 14,3 4,2 7,4 10,8 3,4 5,8 6,13 1,5 2,11 2,17l0 1zm-18 -1c0,-4 0,-7 -1,-11 -1,-3 -2,-5 -3,-8 -2,-2 -4,-4 -6,-5 -3,-2 -5,-3 -9,-3 -4,0 -7,1 -9,3 -3,2 -5,4 -7,7l0 35c2,3 4,6 6,7 3,2 6,3 11,3 3,0 6,-1 8,-2 2,-2 4,-4 6,-6 1,-2 2,-5 3,-8 1,-4 1,-7 1,-11l0 -1zm136 -5l-44 0 0 46 -19 0 0 -109 69 0 0 15 -50 0 0 33 44 0 0 15zm60 -18c-2,-1 -3,-1 -4,-1 -1,0 -2,0 -4,0 -4,0 -8,1 -10,3 -3,1 -5,4 -7,7l0 55 -18 0 0 -81 18 0 0 9c2,-3 5,-6 8,-8 3,-1 6,-2 10,-2 1,0 3,0 4,0 1,0 2,0 3,1l0 17zm45 65c-6,0 -11,-1 -16,-3 -5,-2 -9,-4 -12,-8 -3,-3 -6,-7 -8,-12 -2,-5 -2,-10 -2,-16l0 -3c0,-6 1,-12 2,-17 2,-5 5,-9 8,-13 3,-4 7,-6 12,-8 4,-2 9,-3 14,-3 6,0 11,1 15,3 5,2 8,4 11,8 3,3 5,8 6,12 2,5 3,11 3,16l0 8 -53 0c0,3 1,6 2,9 1,3 2,5 4,7 2,2 4,3 7,4 2,1 5,2 8,2 5,0 9,-1 12,-3 3,-2 6,-4 9,-7l9 9c-1,2 -3,4 -5,6 -1,2 -4,3 -6,5 -3,1 -6,2 -9,3 -3,1 -7,1 -11,1zm-2 -69c-5,0 -9,2 -12,5 -3,4 -5,9 -6,15l35 0 0 -1c0,-3 -1,-5 -1,-7 -1,-3 -2,-4 -3,-6 -2,-2 -3,-3 -5,-4 -2,-1 -5,-2 -8,-2zm84 69c-6,0 -11,-1 -16,-3 -5,-2 -9,-4 -12,-8 -3,-3 -6,-7 -8,-12 -2,-5 -2,-10 -2,-16l0 -3c0,-6 0,-12 2,-17 2,-5 5,-9 8,-13 3,-4 7,-6 12,-8 4,-2 9,-3 14,-3 6,0 11,1 15,3 5,2 8,4 11,8 3,3 5,8 6,12 2,5 3,11 3,16l0 8 -53 0c0,3 1,6 2,9 1,3 2,5 4,7 2,2 4,3 7,4 2,1 5,2 8,2 5,0 9,-1 12,-3 3,-2 6,-4 9,-7l9 9c-1,2 -3,4 -5,6 -1,2 -4,3 -6,5 -3,1 -6,2 -9,3 -3,1 -7,1 -11,1zm-2 -69c-5,0 -9,2 -12,5 -3,4 -5,9 -6,15l35 0 0 -1c0,-3 -1,-5 -1,-7 -1,-3 -2,-4 -3,-6 -2,-2 -3,-3 -5,-4 -2,-1 -5,-2 -8,-2zm83 27c0,-6 1,-12 3,-17 2,-5 4,-9 7,-13 3,-3 7,-6 12,-8 5,-2 10,-3 16,-3 6,0 11,1 16,3 4,2 8,5 11,8 4,4 6,8 8,13 1,5 2,11 2,17l0 1c0,6 -1,12 -2,17 -2,5 -4,9 -8,13 -3,3 -7,6 -11,8 -5,2 -10,3 -16,3 -6,0 -11,-1 -16,-3 -5,-2 -9,-5 -12,-8 -3,-4 -5,-8 -7,-13 -2,-5 -3,-11 -3,-17l0 -1zm18 1c0,4 1,7 2,11 0,3 1,6 3,8 2,2 4,4 6,6 3,1 6,2 9,2 3,0 6,-1 9,-2 2,-2 4,-4 6,-6 1,-2 2,-5 3,-8 1,-4 1,-7 1,-11l0 -1c0,-4 0,-7 -1,-10 -1,-4 -2,-6 -3,-9 -2,-2 -4,-4 -6,-6 -3,-1 -6,-2 -9,-2 -4,0 -7,1 -9,2 -2,2 -4,4 -6,6 -2,3 -3,5 -3,9 -1,3 -2,6 -2,10l0 1zm79 40l0 -67 -12 0 0 -14 12 0 0 -8c0,-4 1,-8 2,-11 1,-4 3,-7 6,-9 2,-3 5,-4 9,-6 3,-1 7,-1 11,-1 2,0 4,0 6,0 1,0 3,1 5,1l-1 14c-1,0 -2,0 -3,0 -1,0 -3,0 -4,0 -4,0 -7,1 -9,3 -3,2 -4,5 -4,9l0 8 17 0 0 14 -17 0 0 67 -18 0zm171 -36c-1,6 -2,11 -4,15 -2,5 -5,9 -8,12 -4,3 -8,6 -13,8 -6,1 -11,2 -18,2 -7,0 -13,-1 -18,-3 -6,-3 -10,-6 -14,-11 -4,-4 -7,-9 -9,-16 -2,-6 -3,-13 -3,-21l0 -9c0,-8 1,-15 3,-21 2,-6 5,-12 9,-16 4,-5 9,-8 14,-11 6,-2 12,-3 19,-3 6,0 12,1 17,3 5,1 9,4 13,7 3,4 6,8 8,12 2,5 3,10 4,15l-19 0c-1,-3 -1,-6 -2,-9 -1,-3 -3,-5 -4,-7 -2,-2 -5,-4 -7,-4 -3,-1 -6,-2 -10,-2 -4,0 -8,1 -11,2 -4,2 -6,4 -8,7 -3,4 -4,7 -5,12 -1,4 -2,9 -2,15l0 9c0,5 1,10 2,15 1,4 2,8 4,11 2,3 5,6 8,7 3,2 7,3 11,3 4,0 7,0 10,-1 3,-1 5,-3 7,-5 2,-1 4,-4 5,-6 1,-3 1,-6 2,-10l19 0zm11 -5c0,-6 1,-12 3,-17 2,-5 4,-9 7,-13 3,-3 7,-6 12,-8 5,-2 10,-3 16,-3 6,0 11,1 16,3 4,2 8,5 11,8 4,4 6,8 8,13 1,5 2,11 2,17l0 1c0,6 -1,12 -2,17 -2,5 -4,9 -8,13 -3,3 -7,6 -11,8 -5,2 -10,3 -16,3 -6,0 -11,-1 -16,-3 -5,-2 -9,-5 -12,-8 -3,-4 -5,-8 -7,-13 -2,-5 -3,-11 -3,-17l0 -1zm18 1c0,4 1,7 1,11 1,3 2,6 4,8 2,2 4,4 6,6 3,1 5,2 9,2 3,0 6,-1 9,-2 2,-2 4,-4 6,-6 1,-2 2,-5 3,-8 1,-4 1,-7 1,-11l0 -1c0,-4 0,-7 -1,-10 -1,-4 -2,-6 -3,-9 -2,-2 -4,-4 -7,-6 -2,-1 -5,-2 -8,-2 -4,0 -7,1 -9,2 -2,2 -4,4 -6,6 -2,3 -3,5 -4,9 0,3 -1,6 -1,10l0 1zm118 18c0,-1 0,-3 -1,-4 0,-1 -1,-2 -2,-3 -2,-1 -3,-2 -6,-3 -2,0 -5,-1 -8,-2 -5,-1 -9,-2 -12,-3 -4,-2 -7,-3 -9,-5 -3,-2 -5,-4 -6,-7 -2,-3 -2,-6 -2,-9 0,-3 0,-6 2,-9 1,-3 3,-6 6,-8 3,-2 6,-4 10,-5 4,-2 8,-2 13,-2 5,0 9,0 13,2 4,1 8,3 10,5 3,2 5,5 7,8 1,3 2,7 2,10l-18 0c0,-1 0,-3 -1,-4 -1,-2 -1,-3 -3,-4 -1,-1 -2,-2 -4,-3 -2,0 -4,-1 -6,-1 -3,0 -4,0 -6,1 -2,1 -3,1 -4,2 -2,1 -2,2 -3,3 0,2 -1,3 -1,4 0,2 1,3 1,4 1,1 1,2 3,3 1,1 3,1 5,2 2,1 5,2 8,2 5,1 9,2 12,4 4,1 7,3 10,5 2,2 4,4 6,7 1,2 2,5 2,9 0,3 -1,7 -3,10 -1,3 -3,5 -6,8 -3,2 -7,3 -11,5 -4,1 -8,1 -13,1 -6,0 -10,0 -15,-2 -4,-2 -7,-4 -10,-6 -3,-3 -5,-6 -7,-9 -1,-3 -2,-6 -2,-10l18 0c0,3 0,5 1,7 1,1 2,3 4,4 2,1 3,2 5,2 2,1 4,1 6,1 5,0 9,-1 11,-3 3,-2 4,-4 4,-7zm56 -79l0 20 14 0 0 14 -14 0 0 45c0,1 0,3 1,4 0,1 1,2 1,3 1,0 2,1 3,1 1,0 2,0 4,0 1,0 2,0 3,0 1,0 2,0 3,0l0 14c-2,0 -3,0 -5,1 -2,0 -4,0 -7,0 -3,0 -6,0 -8,-1 -3,-1 -5,-2 -7,-4 -2,-2 -3,-4 -4,-7 -1,-3 -2,-6 -2,-10l0 -46 -13 0 0 -14 13 0 0 -20 18 0z"/>
  <ellipse class="fil14" cx="4855" cy="1193" rx="26" ry="25"/>
  <g id="_2001700381136">
   <path class="fil13" d="M5047 1431l-34 0 0 94 -19 0 0 -94 -33 0 0 -15 86 0 0 15zm48 94c-1,-1 -1,-3 -1,-4 -1,-1 -1,-2 -1,-4 -1,1 -3,2 -4,4 -2,1 -3,2 -5,2 -2,1 -4,2 -6,2 -2,1 -4,1 -6,1 -4,0 -8,-1 -11,-2 -4,-1 -7,-3 -9,-5 -3,-2 -4,-5 -6,-8 -1,-2 -2,-6 -2,-9 0,-4 1,-8 3,-12 1,-3 4,-6 7,-8 3,-2 7,-4 11,-5 5,-1 10,-2 16,-2l11 0 0 -5c0,-4 -1,-8 -3,-10 -3,-3 -6,-4 -11,-4 -2,0 -4,0 -6,1 -1,1 -3,1 -4,2 -1,1 -2,2 -3,4 -1,1 -1,3 -1,4l-18 0c0,-3 1,-6 2,-9 2,-3 4,-6 7,-8 3,-2 6,-4 10,-6 4,-1 9,-2 14,-2 5,0 9,1 13,2 4,1 7,3 10,5 2,3 5,5 6,9 2,3 2,7 2,12l0 36c0,7 1,13 3,17l0 2 -18 0zm-20 -14c2,0 4,0 6,0 2,-1 3,-2 5,-2 1,-1 3,-2 4,-4 1,-1 2,-2 2,-3l0 -15 -9 0c-7,0 -12,1 -16,3 -3,2 -5,6 -5,10 0,2 1,3 1,5 1,1 1,2 3,3 1,1 2,2 4,3 1,0 3,0 5,0zm83 -41l16 -26 20 0 -25 40 26 41 -20 0 -16 -28 -16 28 -21 0 26 -41 -25 -40 20 0 15 26zm145 27c0,-3 -1,-5 -1,-6 -1,-2 -2,-4 -4,-5 -1,-1 -4,-3 -7,-4 -3,-1 -7,-3 -11,-4 -6,-2 -10,-4 -15,-6 -4,-2 -8,-4 -11,-7 -3,-2 -6,-5 -7,-9 -2,-3 -3,-7 -3,-11 0,-5 1,-9 3,-13 2,-3 4,-6 8,-9 3,-3 7,-5 12,-6 4,-2 10,-3 15,-3 6,0 12,1 17,3 5,2 9,4 12,7 4,3 6,7 8,11 2,4 3,8 3,13l-19 0c0,-3 -1,-5 -1,-8 -1,-2 -3,-4 -4,-5 -2,-2 -4,-3 -7,-4 -2,-1 -5,-1 -9,-1 -3,0 -6,0 -8,1 -3,0 -5,1 -7,3 -1,1 -2,3 -3,5 -1,1 -1,3 -1,5 0,5 2,8 5,11 4,2 10,5 18,7 6,2 11,4 16,6 4,2 8,5 11,7 3,3 5,6 7,10 1,3 2,7 2,11 0,5 -1,9 -3,13 -2,3 -4,7 -8,9 -3,3 -7,5 -12,6 -5,1 -10,2 -16,2 -5,0 -10,-1 -15,-2 -5,-2 -10,-4 -14,-7 -4,-2 -7,-6 -10,-10 -2,-4 -3,-10 -3,-15l18 0c0,3 1,6 2,9 1,2 3,4 5,6 2,1 5,2 8,3 3,1 6,1 9,1 7,0 12,-1 15,-4 3,-3 5,-6 5,-10zm82 28c-1,-1 -1,-3 -2,-4 0,-1 0,-2 0,-4 -2,1 -3,2 -4,4 -2,1 -3,2 -5,2 -2,1 -4,2 -6,2 -2,1 -4,1 -7,1 -4,0 -7,-1 -11,-2 -3,-1 -6,-3 -8,-5 -3,-2 -5,-5 -6,-8 -1,-2 -2,-6 -2,-9 0,-4 1,-8 2,-12 2,-3 4,-6 8,-8 3,-2 7,-4 11,-5 5,-1 10,-2 16,-2l11 0 0 -5c0,-4 -1,-8 -3,-10 -3,-3 -6,-4 -11,-4 -2,0 -4,0 -6,1 -2,1 -3,1 -4,2 -2,1 -3,2 -3,4 -1,1 -1,3 -1,4l-18 0c0,-3 0,-6 2,-9 2,-3 4,-6 7,-8 3,-2 6,-4 10,-6 4,-1 9,-2 14,-2 4,0 9,1 12,2 4,1 8,3 10,5 3,3 5,5 7,9 1,3 2,7 2,12l0 36c0,7 1,13 3,17l0 2 -18 0zm-20 -14c2,0 4,0 6,0 1,-1 3,-2 5,-2 1,-1 2,-2 3,-4 2,-1 2,-2 3,-3l0 -15 -10 0c-6,0 -11,1 -15,3 -3,2 -5,6 -5,10 0,2 0,3 1,5 0,1 1,2 2,3 1,1 3,2 4,3 2,0 4,0 6,0zm81 -9l18 -58 18 0 -28 81 -15 0 -29 -81 19 0 17 58zm67 23l-18 0 0 -81 18 0 0 81zm-19 -102c0,-3 1,-5 2,-7 2,-2 5,-3 8,-3 3,0 6,1 7,3 2,2 3,4 3,7 0,3 -1,5 -3,7 -1,2 -4,2 -7,2 -3,0 -6,0 -8,-2 -1,-2 -2,-4 -2,-7zm55 21l1 9c3,-3 6,-6 10,-8 4,-2 9,-3 13,-3 4,0 8,1 11,2 3,1 6,3 8,5 2,3 4,6 5,9 2,4 2,9 2,14l0 53 -18 0 0 -53c0,-3 0,-5 -1,-7 -1,-2 -1,-3 -3,-4 -1,-2 -2,-3 -4,-3 -2,-1 -4,-1 -6,-1 -4,0 -7,1 -10,3 -3,2 -5,4 -7,7l0 58 -18 0 0 -81 17 0zm274 -28l0 73c0,6 -1,11 -3,16 -2,5 -5,8 -8,12 -4,3 -8,5 -13,7 -5,1 -11,2 -16,2 -6,0 -11,-1 -16,-2 -5,-2 -10,-4 -13,-7 -4,-4 -7,-7 -9,-12 -2,-5 -3,-10 -3,-16l0 -73 19 0 0 73c0,3 1,7 2,10 1,2 2,5 4,7 2,1 4,3 7,4 2,1 6,1 9,1 3,0 6,0 9,-1 3,-1 5,-3 7,-4 2,-2 3,-5 4,-7 1,-3 2,-7 2,-10l0 -73 18 0zm36 28l0 9c3,-3 6,-6 10,-8 4,-2 9,-3 14,-3 4,0 7,1 10,2 3,1 6,3 8,5 3,3 4,6 5,9 2,4 2,9 2,14l0 53 -18 0 0 -53c0,-3 0,-5 -1,-7 0,-2 -1,-3 -2,-4 -2,-2 -3,-3 -5,-3 -2,-1 -4,-1 -6,-1 -4,0 -7,1 -10,3 -2,2 -5,4 -6,7l0 58 -18 0 0 -81 17 0zm64 40c0,-7 1,-12 3,-17 1,-5 3,-10 6,-13 3,-4 6,-7 10,-9 4,-2 8,-3 13,-3 5,0 9,1 12,3 3,1 6,3 9,6l0 -41 18 0 0 115 -16 0 -1 -9c-3,3 -6,6 -9,7 -4,2 -8,3 -13,3 -5,0 -9,-1 -13,-3 -4,-2 -7,-5 -10,-9 -3,-3 -5,-8 -6,-13 -2,-5 -3,-10 -3,-16l0 -1zm19 1c0,4 0,7 1,10 0,3 1,6 3,9 1,2 3,4 5,5 3,2 5,2 9,2 4,0 7,-1 10,-2 2,-2 4,-5 6,-8l0 -34c-2,-3 -4,-5 -6,-7 -3,-2 -6,-3 -10,-3 -3,0 -6,1 -9,2 -2,2 -4,4 -5,6 -2,2 -3,5 -3,8 -1,4 -1,7 -1,11l0 1zm107 41c-6,0 -12,-1 -17,-3 -4,-2 -8,-5 -12,-8 -3,-4 -6,-8 -7,-13 -2,-4 -3,-9 -3,-15l0 -3c0,-6 1,-12 3,-17 2,-5 4,-10 8,-13 3,-4 7,-7 11,-9 5,-2 9,-3 14,-3 6,0 11,1 16,3 4,2 8,5 11,9 2,3 4,7 6,12 1,5 2,10 2,16l0 8 -53 0c0,3 1,6 2,9 1,2 3,4 5,6 1,2 4,4 6,5 3,1 5,2 9,2 4,0 8,-1 11,-3 4,-2 6,-4 9,-7l10 9c-2,2 -3,4 -5,5 -2,2 -4,4 -7,5 -2,2 -5,3 -9,4 -3,1 -6,1 -10,1zm-3 -69c-5,0 -9,2 -12,5 -3,4 -5,8 -5,15l34 0 0 -2c0,-2 0,-4 -1,-7 -1,-2 -2,-4 -3,-5 -1,-2 -3,-4 -5,-5 -2,-1 -5,-1 -8,-1zm91 3c-1,0 -2,0 -3,0 -2,0 -3,0 -4,0 -4,0 -8,1 -11,2 -3,2 -5,4 -6,7l0 56 -18 0 0 -81 17 0 1 9c2,-3 4,-6 7,-8 3,-2 7,-3 11,-3 1,0 2,0 3,1 2,0 3,0 3,0l0 17zm108 37c0,-3 0,-5 -1,-6 0,-2 -2,-4 -3,-5 -2,-1 -4,-3 -7,-4 -3,-1 -7,-3 -12,-4 -5,-2 -10,-4 -14,-6 -5,-2 -8,-4 -12,-7 -3,-2 -5,-5 -7,-9 -2,-3 -3,-7 -3,-11 0,-5 1,-9 3,-13 2,-3 5,-6 8,-9 3,-3 7,-5 12,-6 5,-2 10,-3 16,-3 6,0 11,1 16,3 5,2 9,4 13,7 3,3 6,7 7,11 2,4 3,8 3,13l-19 0c0,-3 0,-5 -1,-8 -1,-2 -2,-4 -4,-5 -1,-2 -4,-3 -6,-4 -3,-1 -6,-1 -9,-1 -4,0 -7,0 -9,1 -2,0 -4,1 -6,3 -2,1 -3,3 -4,5 0,1 -1,3 -1,5 0,5 2,8 6,11 4,2 10,5 17,7 6,2 12,4 16,6 5,2 8,5 11,7 3,3 6,6 7,10 1,3 2,7 2,11 0,5 -1,9 -3,13 -1,3 -4,7 -7,9 -4,3 -8,5 -13,6 -4,1 -10,2 -15,2 -6,0 -11,-1 -16,-2 -5,-2 -10,-4 -14,-7 -4,-2 -7,-6 -9,-10 -3,-4 -4,-10 -4,-15l19 0c0,3 0,6 2,9 1,2 3,4 5,6 2,1 4,2 7,3 3,1 6,1 10,1 6,0 11,-1 14,-4 4,-3 5,-6 5,-10zm70 29c-6,0 -12,-1 -17,-3 -4,-2 -8,-5 -12,-8 -3,-4 -6,-8 -7,-13 -2,-4 -3,-9 -3,-15l0 -3c0,-6 1,-12 3,-17 2,-5 4,-10 7,-13 4,-4 8,-7 12,-9 5,-2 9,-3 14,-3 6,0 11,1 16,3 4,2 8,5 10,9 3,3 5,7 7,12 1,5 2,10 2,16l0 8 -53 0c0,3 1,6 2,9 1,2 3,4 4,6 2,2 5,4 7,5 3,1 5,2 9,2 4,0 8,-1 11,-3 4,-2 6,-4 9,-7l10 9c-2,2 -3,4 -5,5 -2,2 -4,4 -7,5 -2,2 -5,3 -9,4 -3,1 -6,1 -10,1zm-3 -69c-5,0 -9,2 -12,5 -3,4 -5,8 -6,15l35 0 0 -2c0,-2 -1,-4 -1,-7 -1,-2 -2,-4 -3,-5 -1,-2 -3,-4 -5,-5 -2,-1 -5,-1 -8,-1zm82 55c2,0 4,-1 6,-1 2,-1 4,-2 5,-3 2,-2 3,-3 4,-5 1,-1 1,-3 1,-5l17 0c0,4 -1,7 -3,11 -1,3 -4,6 -7,9 -3,2 -6,4 -10,6 -4,1 -8,2 -13,2 -6,0 -11,-1 -16,-3 -4,-2 -8,-5 -11,-9 -3,-4 -6,-8 -7,-13 -2,-5 -2,-10 -2,-15l0 -3c0,-6 0,-11 2,-16 1,-5 4,-9 7,-13 3,-3 6,-6 11,-8 5,-3 10,-4 16,-4 5,0 10,1 14,3 4,1 7,3 10,6 3,3 5,6 7,9 1,4 2,8 2,13l-17 0c0,-2 0,-4 -1,-6 -1,-2 -2,-4 -3,-5 -2,-2 -3,-3 -5,-4 -2,-1 -4,-1 -7,-1 -4,0 -7,1 -9,2 -2,2 -4,4 -6,6 -1,3 -2,5 -3,8 0,4 0,7 0,10l0 3c0,3 0,6 0,9 1,3 2,6 3,8 2,3 4,5 6,6 2,2 5,3 9,3zm70 -88l0 20 14 0 0 13 -14 0 0 45c0,2 0,4 0,5 1,1 1,2 2,2 1,1 2,1 3,2 1,0 2,0 3,0 1,0 2,0 4,0 1,0 2,-1 2,-1l0 14c-1,1 -3,1 -5,1 -2,1 -4,1 -7,1 -3,0 -5,0 -8,-1 -2,-1 -5,-2 -7,-4 -1,-2 -3,-4 -4,-7 -1,-3 -1,-6 -1,-11l0 -46 -14 0 0 -13 14 0 0 -20 18 0zm47 101l-18 0 0 -81 18 0 0 81zm-19 -102c0,-3 1,-5 2,-7 2,-2 5,-3 8,-3 3,0 6,1 8,3 1,2 2,4 2,7 0,3 -1,5 -2,7 -2,2 -5,2 -8,2 -3,0 -6,0 -8,-2 -1,-2 -2,-4 -2,-7zm35 60c0,-5 1,-11 3,-16 2,-5 4,-9 7,-13 4,-4 7,-6 12,-9 5,-2 10,-3 16,-3 6,0 11,1 16,3 4,3 8,5 12,9 3,4 5,8 7,13 2,5 2,11 2,16l0 2c0,6 0,11 -2,16 -2,5 -4,10 -7,13 -4,4 -8,7 -12,9 -5,2 -10,3 -16,3 -6,0 -11,-1 -16,-3 -5,-2 -8,-5 -12,-9 -3,-3 -5,-8 -7,-13 -2,-5 -3,-10 -3,-16l0 -2zm18 2c0,4 1,7 2,10 0,4 2,6 3,9 2,2 4,4 6,5 3,2 6,3 9,3 3,0 6,-1 9,-3 2,-1 4,-3 6,-5 1,-3 2,-5 3,-9 1,-3 1,-6 1,-10l0 -2c0,-3 0,-7 -1,-10 -1,-3 -2,-6 -3,-8 -2,-3 -4,-5 -6,-6 -3,-1 -6,-2 -9,-2 -4,0 -6,1 -9,2 -2,1 -4,3 -6,6 -1,2 -3,5 -3,8 -1,3 -2,7 -2,10l0 2zm90 -41l0 9c3,-3 6,-6 10,-8 4,-2 9,-3 14,-3 3,0 7,1 10,2 3,1 6,3 8,5 2,3 4,6 5,9 2,4 2,9 2,14l0 53 -18 0 0 -53c0,-3 0,-5 -1,-7 0,-2 -1,-3 -3,-4 -1,-2 -2,-3 -4,-3 -2,-1 -4,-1 -6,-1 -4,0 -7,1 -10,3 -3,2 -5,4 -6,7l0 58 -19 0 0 -81 18 0zm173 1c0,5 -1,10 -4,14 -3,4 -7,7 -11,10 2,1 5,2 7,4 2,2 4,4 6,6 1,2 2,5 3,7 1,3 1,6 1,9 0,5 -1,9 -2,13 -2,4 -5,7 -8,10 -3,3 -7,5 -11,6 -4,1 -9,2 -14,2 -5,0 -10,-1 -14,-2 -5,-1 -8,-3 -12,-6 -3,-3 -5,-6 -7,-10 -2,-4 -3,-8 -3,-13 0,-3 1,-6 1,-9 1,-2 2,-5 4,-7 1,-2 3,-4 6,-6 2,-2 4,-3 7,-4 -5,-3 -9,-6 -11,-10 -3,-4 -4,-9 -4,-14 0,-5 1,-10 2,-13 2,-4 4,-7 7,-10 3,-2 6,-4 10,-6 5,-1 9,-2 14,-2 5,0 9,1 13,2 4,2 8,4 11,6 3,3 5,6 7,10 1,3 2,8 2,13zm-16 49c0,-3 0,-5 -1,-7 -1,-3 -2,-4 -4,-6 -1,-2 -3,-3 -5,-4 -2,-1 -5,-1 -7,-1 -3,0 -5,0 -8,1 -2,1 -3,2 -5,4 -1,2 -3,3 -3,6 -1,2 -2,4 -2,7 0,3 1,5 2,7 0,3 2,4 3,6 2,1 3,3 6,3 2,1 4,2 7,2 5,0 10,-2 13,-5 3,-3 4,-7 4,-13zm-2 -49c0,-2 0,-4 -1,-6 -1,-2 -2,-4 -3,-5 -1,-2 -3,-3 -5,-4 -2,-1 -4,-1 -6,-1 -5,0 -8,1 -11,4 -3,3 -4,7 -4,12 0,3 0,5 1,7 1,2 2,4 3,5 1,1 3,3 5,3 1,1 4,1 6,1 2,0 4,0 6,-1 2,0 4,-2 5,-3 1,-1 2,-3 3,-5 1,-2 1,-4 1,-7zm107 34c0,8 -1,16 -2,22 -2,6 -4,11 -7,14 -4,4 -7,7 -12,9 -4,1 -9,2 -14,2 -6,0 -10,-1 -15,-2 -4,-2 -8,-5 -11,-9 -3,-3 -6,-8 -7,-14 -2,-6 -3,-14 -3,-22l0 -18c0,-8 1,-16 3,-22 1,-6 4,-10 7,-14 3,-4 7,-6 11,-8 4,-2 9,-3 15,-3 5,0 10,1 14,3 5,2 8,4 11,8 4,4 6,8 8,14 1,6 2,14 2,22l0 18zm-18 -20c0,-6 0,-11 -1,-14 -1,-4 -2,-7 -3,-9 -2,-3 -4,-4 -6,-5 -2,-2 -5,-2 -7,-2 -3,0 -6,0 -8,2 -2,1 -4,2 -5,5 -2,2 -3,5 -4,9 0,3 -1,8 -1,14l0 22c0,6 1,11 1,14 1,4 2,7 4,10 1,2 3,4 5,5 3,1 5,2 8,2 3,0 5,-1 7,-2 2,-1 4,-3 6,-5 1,-3 2,-6 3,-10 1,-3 1,-8 1,-14l0 -22z"/>
   <path class="fil13" d="M6916 1525l0 -109 32 0c8,0 14,1 20,4 6,2 11,5 16,10 4,4 7,10 10,16 2,7 3,14 3,22l0 5c0,8 -1,15 -3,21 -3,7 -6,12 -10,17 -5,4 -10,7 -16,10 -6,2 -13,4 -21,4l-31 0zm19 -94l0 78 12 0c5,0 10,0 14,-2 4,-2 7,-4 10,-7 2,-3 4,-7 5,-12 2,-4 2,-9 2,-15l0 -6c0,-11 -2,-20 -7,-27 -6,-6 -13,-9 -23,-9l-13 0zm-1321 53c0,-7 1,-12 3,-17 1,-5 3,-10 6,-13 3,-4 6,-7 10,-9 4,-2 9,-3 14,-3 5,0 9,1 12,3 4,2 7,4 9,7l1 -8 17 0 0 78c0,6 -1,11 -3,15 -2,4 -4,8 -8,10 -3,3 -7,6 -11,7 -5,2 -10,2 -15,2 -2,0 -5,0 -7,0 -3,-1 -6,-2 -9,-3 -3,-1 -5,-2 -8,-4 -2,-2 -4,-4 -6,-6l8 -11c3,4 7,6 10,8 4,1 7,2 11,2 6,0 11,-2 14,-5 4,-3 5,-8 5,-14l0 -6c-2,3 -5,5 -9,7 -3,1 -7,2 -11,2 -5,0 -10,-1 -14,-3 -4,-2 -7,-5 -10,-9 -3,-3 -5,-8 -6,-13 -2,-5 -3,-10 -3,-16l0 -1zm18 1c0,4 1,7 2,10 0,3 1,6 3,9 1,2 3,4 6,5 2,2 5,2 8,2 4,0 8,-1 10,-2 3,-2 5,-4 6,-7l0 -36c-1,-2 -3,-5 -6,-6 -2,-2 -6,-3 -10,-3 -3,0 -6,1 -8,2 -3,2 -5,4 -6,6 -2,2 -3,5 -3,8 -1,4 -2,7 -2,11l0 1z"/>
  </g>
  <ellipse class="fil14" cx="4865" cy="1472" rx="26" ry="25"/>
  <g id="_2001700382800">
   <g>
    <path class="fil13" d="M357 613l0 40 -19 0 0 -108 42 0c6,0 12,0 17,2 5,2 9,4 12,7 3,3 6,7 8,11 2,5 2,9 2,14 0,5 0,10 -2,14 -2,4 -5,8 -8,11 -3,3 -7,5 -12,7 -5,1 -11,2 -17,2l-23 0zm0 -15l23 0c4,0 7,-1 9,-2 3,-1 5,-2 7,-3 1,-2 3,-4 3,-6 1,-3 2,-5 2,-8 0,-2 -1,-5 -2,-7 0,-2 -2,-4 -3,-6 -2,-2 -4,-4 -7,-5 -2,-1 -5,-1 -9,-1l-23 0 0 38zm119 -9c-1,0 -2,0 -3,0 -1,0 -3,-1 -4,-1 -4,0 -8,1 -11,3 -2,2 -4,4 -6,7l0 55 -18 0 0 -81 17 0 1 10c2,-4 4,-6 7,-8 4,-2 7,-3 11,-3 1,0 2,0 4,0 1,1 2,1 3,1l-1 17zm46 66c-6,0 -11,-1 -16,-3 -5,-2 -9,-5 -12,-8 -4,-4 -6,-8 -8,-13 -2,-5 -3,-10 -3,-15l0 -3c0,-7 1,-12 3,-18 2,-5 5,-9 8,-13 3,-3 7,-6 12,-8 4,-2 9,-3 14,-3 6,0 11,1 15,3 5,2 8,5 11,8 3,4 5,8 6,13 2,5 2,10 2,16l0 8 -52 0c0,3 1,6 2,8 1,3 2,5 4,7 2,2 4,3 7,5 2,1 5,1 8,1 5,0 8,-1 12,-2 3,-2 6,-5 8,-8l10 9c-1,2 -3,4 -5,6 -2,2 -4,4 -6,5 -3,1 -6,3 -9,3 -3,1 -7,2 -11,2zm-2 -69c-5,0 -9,1 -12,5 -3,3 -5,8 -6,14l35 0 0 -1c-1,-2 -1,-5 -2,-7 0,-2 -1,-4 -3,-6 -1,-2 -2,-3 -5,-4 -2,-1 -4,-1 -7,-1zm84 38c0,-3 0,-6 1,-9 1,-2 3,-5 4,-7 2,-2 4,-5 7,-7 2,-2 5,-4 8,-6 -2,-2 -3,-4 -5,-6 -1,-2 -2,-4 -3,-6 -1,-2 -2,-4 -3,-6 0,-2 0,-4 0,-6 0,-5 0,-8 2,-12 1,-3 3,-6 5,-9 3,-2 6,-4 9,-5 4,-1 8,-2 12,-2 4,0 8,1 11,2 4,1 7,3 9,5 2,2 4,5 5,8 2,3 2,6 2,9 0,3 0,5 -1,8 0,2 -1,4 -3,6 -1,2 -3,4 -4,5 -2,2 -4,4 -6,5l-8 6 21 24c2,-2 3,-6 3,-9 1,-3 2,-7 2,-11l15 0c0,7 0,13 -2,18 -1,6 -4,11 -7,15l16 19 -21 0 -6 -7c-4,3 -9,5 -13,7 -5,1 -10,2 -15,2 -5,0 -10,-1 -15,-3 -4,-1 -8,-3 -11,-6 -3,-3 -5,-6 -7,-10 -2,-4 -2,-8 -2,-12zm36 16c3,0 6,0 9,-1 2,-1 5,-3 8,-5l-24 -28 -2 2c-2,1 -4,3 -5,4 -1,2 -2,3 -3,5 0,1 -1,2 -1,3 0,1 0,2 0,3 0,3 0,5 1,7 1,2 2,4 3,5 2,2 4,3 6,4 2,1 5,1 8,1zm-10 -70c0,3 0,5 2,8 1,2 3,5 5,8l7 -4c1,-2 3,-3 4,-4 1,0 2,-1 2,-3 1,-1 2,-2 2,-3 0,-1 1,-3 1,-4 0,-1 -1,-3 -1,-4 -1,-1 -1,-2 -2,-3 -1,-1 -3,-2 -4,-2 -1,-1 -3,-1 -5,-1 -2,0 -3,0 -5,1 -1,0 -2,1 -3,2 -1,2 -2,3 -3,4 0,2 0,4 0,5zm133 43l0 40 -19 0 0 -108 41 0c7,0 12,0 17,2 5,2 9,4 13,7 3,3 6,7 7,11 2,5 3,9 3,14 0,5 -1,10 -3,14 -1,4 -4,8 -7,11 -4,3 -8,5 -13,7 -5,1 -10,2 -17,2l-22 0zm0 -15l22 0c4,0 7,-1 10,-2 2,-1 5,-2 6,-3 2,-2 3,-4 4,-6 1,-3 1,-5 1,-8 0,-2 0,-5 -1,-7 -1,-2 -2,-4 -4,-6 -1,-2 -4,-4 -6,-5 -3,-1 -6,-1 -10,-1l-22 0 0 38zm72 14c0,-6 1,-11 3,-16 2,-5 4,-10 7,-13 4,-4 8,-7 12,-9 5,-2 10,-3 16,-3 6,0 11,1 16,3 4,2 8,5 12,9 3,3 5,8 7,13 2,5 3,10 3,16l0 2c0,6 -1,11 -3,16 -2,5 -4,9 -7,13 -4,4 -8,7 -12,9 -5,2 -10,3 -16,3 -6,0 -11,-1 -16,-3 -4,-2 -8,-5 -12,-9 -3,-4 -5,-8 -7,-13 -2,-5 -3,-10 -3,-16l0 -2zm19 2c0,3 0,7 1,10 0,3 2,6 3,8 2,3 4,5 6,6 3,2 6,2 9,2 3,0 6,0 9,-2 2,-1 4,-3 6,-6 1,-2 3,-5 3,-8 1,-3 1,-7 1,-10l0 -2c0,-3 0,-7 -1,-10 0,-3 -2,-6 -3,-9 -2,-2 -4,-4 -6,-5 -3,-2 -6,-2 -9,-2 -3,0 -6,0 -9,2 -2,1 -4,3 -6,5 -1,3 -3,6 -3,9 -1,3 -1,7 -1,10l0 2zm117 17c0,-1 0,-2 -1,-3 0,-1 -1,-3 -2,-3 -1,-1 -3,-2 -5,-3 -3,-1 -6,-2 -9,-3 -4,0 -8,-2 -12,-3 -4,-1 -7,-3 -9,-5 -3,-2 -5,-4 -6,-7 -1,-2 -2,-5 -2,-9 0,-3 1,-6 2,-9 1,-3 4,-5 6,-8 3,-2 6,-4 10,-5 4,-1 8,-2 13,-2 5,0 10,1 14,2 4,1 7,3 10,5 3,3 5,5 6,9 2,3 2,6 2,10l-18 0c0,-2 0,-3 -1,-5 0,-1 -1,-3 -2,-4 -2,-1 -3,-2 -5,-2 -2,-1 -4,-1 -6,-1 -2,0 -4,0 -6,0 -2,1 -3,2 -4,3 -1,1 -2,2 -3,3 0,1 0,2 0,4 0,1 0,2 0,3 1,1 2,2 3,3 1,1 3,2 5,2 2,1 5,2 8,3 5,1 9,2 13,3 3,1 6,3 9,5 3,2 5,4 6,7 1,3 2,6 2,9 0,4 -1,7 -2,10 -2,3 -4,6 -7,8 -3,2 -6,4 -10,5 -4,1 -9,2 -14,2 -5,0 -10,-1 -14,-3 -5,-1 -8,-3 -11,-6 -3,-2 -5,-5 -7,-8 -1,-4 -2,-7 -2,-10l18 0c0,2 0,4 1,6 1,2 3,3 4,4 2,1 4,2 5,2 2,1 4,1 6,1 5,0 9,-1 11,-3 3,-1 4,-4 4,-7zm56 -78l0 19 15 0 0 14 -15 0 0 45c0,2 1,3 1,4 0,2 1,2 2,3 0,1 1,1 2,1 1,1 3,1 4,1 1,0 2,0 3,-1 2,0 2,0 3,0l0 14c-1,0 -3,1 -5,1 -2,1 -4,1 -7,1 -3,0 -6,-1 -8,-1 -3,-1 -5,-3 -7,-4 -2,-2 -3,-5 -4,-7 -1,-3 -2,-7 -2,-11l0 -46 -13 0 0 -14 13 0 0 -19 18 0zm154 100l-18 0 0 -48 -49 0 0 48 -19 0 0 -108 19 0 0 45 49 0 0 -45 18 0 0 108zm18 -41c0,-6 1,-11 2,-16 2,-5 4,-10 8,-13 3,-4 7,-7 11,-9 5,-2 10,-3 16,-3 6,0 11,1 16,3 5,2 9,5 12,9 3,3 5,8 7,13 2,5 3,10 3,16l0 2c0,6 -1,11 -3,16 -2,5 -4,9 -7,13 -3,4 -7,7 -12,9 -5,2 -10,3 -16,3 -6,0 -11,-1 -16,-3 -4,-2 -8,-5 -11,-9 -4,-4 -6,-8 -8,-13 -1,-5 -2,-10 -2,-16l0 -2zm18 2c0,3 0,7 1,10 1,3 2,6 3,8 2,3 4,5 6,6 3,2 6,2 9,2 4,0 6,0 9,-2 2,-1 4,-3 6,-6 2,-2 3,-5 3,-8 1,-3 2,-7 2,-10l0 -2c0,-3 -1,-7 -2,-10 0,-3 -1,-6 -3,-9 -2,-2 -4,-4 -6,-5 -3,-2 -6,-2 -9,-2 -3,0 -6,0 -9,2 -2,1 -4,3 -6,5 -1,3 -2,6 -3,9 -1,3 -1,7 -1,10l0 2zm117 17c0,-1 0,-2 0,-3 -1,-1 -2,-3 -3,-3 -1,-1 -3,-2 -5,-3 -2,-1 -5,-2 -9,-3 -4,0 -8,-2 -12,-3 -3,-1 -6,-3 -9,-5 -2,-2 -4,-4 -6,-7 -1,-2 -2,-5 -2,-9 0,-3 1,-6 2,-9 2,-3 4,-5 6,-8 3,-2 6,-4 10,-5 4,-1 8,-2 13,-2 5,0 10,1 14,2 4,1 7,3 10,5 3,3 5,5 6,9 2,3 2,6 2,10l-18 0c0,-2 0,-3 -1,-5 0,-1 -1,-3 -2,-4 -1,-1 -3,-2 -5,-2 -1,-1 -3,-1 -6,-1 -2,0 -4,0 -6,0 -1,1 -3,2 -4,3 -1,1 -2,2 -2,3 -1,1 -1,2 -1,4 0,1 0,2 0,3 1,1 2,2 3,3 1,1 3,2 5,2 2,1 5,2 8,3 5,1 9,2 13,3 4,1 7,3 9,5 3,2 5,4 6,7 1,3 2,6 2,9 0,4 -1,7 -2,10 -2,3 -4,6 -7,8 -3,2 -6,4 -10,5 -4,1 -9,2 -14,2 -5,0 -10,-1 -14,-3 -4,-1 -8,-3 -11,-6 -3,-2 -5,-5 -6,-8 -2,-4 -3,-7 -3,-10l18 0c0,2 1,4 2,6 1,2 2,3 3,4 2,1 4,2 6,2 2,1 4,1 6,1 4,0 8,-1 11,-3 2,-1 3,-4 3,-7zm105 -17c0,6 -1,11 -3,16 -1,5 -3,9 -6,13 -2,4 -6,7 -9,9 -4,2 -9,3 -14,3 -4,0 -8,-1 -12,-3 -3,-1 -6,-3 -9,-6l0 38 -18 0 0 -112 17 0 0 9c3,-3 6,-6 10,-7 3,-2 7,-3 12,-3 5,0 10,1 14,3 3,2 7,5 9,8 3,4 5,8 6,13 2,5 3,11 3,17l0 2zm-19 -2c0,-4 0,-7 -1,-10 0,-3 -1,-6 -3,-8 -1,-3 -3,-5 -6,-6 -2,-1 -5,-2 -8,-2 -4,0 -7,1 -10,2 -3,2 -5,4 -6,7l0 36c1,3 3,5 6,7 3,1 6,2 10,2 3,0 6,0 8,-2 3,-1 5,-3 6,-6 2,-2 3,-5 3,-8 1,-3 1,-7 1,-10l0 -2zm53 41l-18 0 0 -81 18 0 0 81zm-19 -101c0,-3 1,-6 3,-7 1,-2 4,-3 7,-3 3,0 6,1 8,3 2,1 2,4 2,7 0,2 0,5 -2,6 -2,2 -5,3 -8,3 -3,0 -6,-1 -7,-3 -2,-1 -3,-4 -3,-6zm62 1l0 19 14 0 0 14 -14 0 0 45c0,2 0,3 0,4 1,2 1,2 2,3 1,1 2,1 3,1 1,1 2,1 3,1 1,0 2,0 4,-1 1,0 2,0 2,0l0 14c-1,0 -3,1 -5,1 -2,1 -4,1 -7,1 -3,0 -5,-1 -8,-1 -3,-1 -5,-3 -7,-4 -1,-2 -3,-5 -4,-7 -1,-3 -2,-7 -2,-11l0 -46 -13 0 0 -14 13 0 0 -19 19 0zm76 100c-1,-1 -1,-2 -1,-3 -1,-1 -1,-3 -1,-4 -1,1 -3,2 -4,3 -2,1 -3,2 -5,3 -2,1 -4,2 -6,2 -2,0 -4,1 -6,1 -4,0 -8,-1 -12,-2 -3,-1 -6,-3 -8,-5 -3,-2 -4,-5 -6,-8 -1,-3 -2,-6 -2,-9 0,-5 1,-9 3,-12 1,-3 4,-6 7,-8 3,-2 7,-4 11,-5 5,-2 10,-2 16,-2l11 0 0 -5c0,-5 -1,-8 -3,-10 -3,-3 -6,-4 -11,-4 -2,0 -4,0 -6,1 -2,0 -3,1 -4,2 -1,1 -2,2 -3,3 -1,2 -1,3 -1,5l-18 0c0,-3 1,-7 2,-9 2,-3 4,-6 7,-8 3,-3 6,-5 10,-6 4,-1 9,-2 14,-2 5,0 9,1 13,2 3,1 7,3 10,5 2,2 4,5 6,9 2,3 2,7 2,12l0 36c0,7 1,13 3,17l0 1 -18 0zm-20 -13c2,0 4,0 6,-1 2,0 3,-1 5,-2 1,-1 3,-2 4,-3 1,-1 2,-2 2,-3l0 -16 -10 0c-6,0 -11,1 -15,4 -3,2 -5,5 -5,10 0,1 0,3 1,4 1,2 1,3 3,4 1,1 2,2 3,2 2,1 4,1 6,1zm74 13l-19 0 0 -114 19 0 0 114zm39 0l-19 0 0 -81 19 0 0 81zm-20 -101c0,-3 1,-6 3,-7 2,-2 4,-3 8,-3 3,0 5,1 7,3 2,1 3,4 3,7 0,2 -1,5 -3,6 -2,2 -4,3 -7,3 -4,0 -6,-1 -8,-3 -2,-1 -3,-4 -3,-6zm164 101c0,-1 -1,-2 -1,-3 0,-1 0,-3 -1,-4 -1,1 -2,2 -4,3 -1,1 -3,2 -5,3 -1,1 -3,2 -5,2 -2,0 -5,1 -7,1 -4,0 -8,-1 -11,-2 -3,-1 -6,-3 -9,-5 -2,-2 -4,-5 -5,-8 -2,-3 -2,-6 -2,-9 0,-5 0,-9 2,-12 2,-3 4,-6 7,-8 3,-2 7,-4 12,-5 4,-2 9,-2 15,-2l12 0 0 -5c0,-5 -1,-8 -4,-10 -2,-3 -6,-4 -10,-4 -3,0 -5,0 -6,1 -2,0 -4,1 -5,2 -1,1 -2,2 -3,3 0,2 -1,3 -1,5l-18 0c0,-3 1,-7 3,-9 1,-3 3,-6 6,-8 3,-3 7,-5 11,-6 4,-1 8,-2 14,-2 4,0 8,1 12,2 4,1 7,3 10,5 3,2 5,5 6,9 2,3 3,7 3,12l0 36c0,7 1,13 3,17l0 1 -19 0zm-20 -13c3,0 4,0 6,-1 2,0 4,-1 5,-2 2,-1 3,-2 4,-3 1,-1 2,-2 3,-3l0 -16 -10 0c-7,0 -12,1 -15,4 -4,2 -5,5 -5,10 0,1 0,3 1,4 0,2 1,3 2,4 1,1 2,2 4,2 2,1 3,1 5,1zm78 -87l0 19 14 0 0 14 -14 0 0 45c0,2 0,3 0,4 0,2 1,2 2,3 1,1 1,1 2,1 1,1 3,1 4,1 1,0 2,0 3,-1 2,0 3,0 3,0l0 14c-1,0 -3,1 -5,1 -2,1 -4,1 -7,1 -3,0 -5,-1 -8,-1 -3,-1 -5,-3 -7,-4 -2,-2 -3,-5 -4,-7 -1,-3 -2,-7 -2,-11l0 -46 -13 0 0 -14 13 0 0 -19 19 0zm47 100l-18 0 0 -81 18 0 0 81zm-19 -101c0,-3 1,-6 2,-7 2,-2 5,-3 8,-3 3,0 6,1 7,3 2,1 3,4 3,7 0,2 -1,5 -3,6 -1,2 -4,3 -7,3 -3,0 -6,-1 -8,-3 -1,-1 -2,-4 -2,-6zm35 60c0,-6 1,-11 3,-16 1,-5 4,-10 7,-13 3,-4 7,-7 12,-9 5,-2 10,-3 16,-3 6,0 11,1 16,3 4,2 8,5 11,9 4,3 6,8 8,13 1,5 2,10 2,16l0 2c0,6 -1,11 -2,16 -2,5 -4,9 -8,13 -3,4 -7,7 -11,9 -5,2 -10,3 -16,3 -6,0 -11,-1 -16,-3 -5,-2 -9,-5 -12,-9 -3,-4 -6,-8 -7,-13 -2,-5 -3,-10 -3,-16l0 -2zm18 2c0,3 1,7 1,10 1,3 2,6 4,8 2,3 4,5 6,6 2,2 5,2 9,2 3,0 6,0 8,-2 3,-1 5,-3 7,-6 1,-2 2,-5 3,-8 1,-3 1,-7 1,-10l0 -2c0,-3 0,-7 -1,-10 -1,-3 -2,-6 -4,-9 -1,-2 -3,-4 -6,-5 -2,-2 -5,-2 -8,-2 -4,0 -7,0 -9,2 -2,1 -4,3 -6,5 -2,3 -3,6 -4,9 0,3 -1,7 -1,10l0 2zm89 -42l1 10c3,-4 6,-6 10,-8 4,-2 9,-3 13,-3 4,0 8,1 11,2 3,1 6,2 8,5 2,2 4,5 5,9 1,4 2,9 2,14l0 52 -18 0 0 -52c0,-3 0,-5 -1,-7 -1,-2 -2,-4 -3,-5 -1,-1 -2,-2 -4,-2 -2,-1 -4,-1 -6,-1 -4,0 -7,1 -10,3 -3,1 -5,4 -7,7l0 57 -18 0 0 -81 17 0z"/>
    <path class="fil13" d="M2248 618c0,5 -2,10 -4,15 -2,4 -4,8 -8,11 -3,4 -8,6 -13,8 -5,2 -11,3 -17,3 -7,0 -13,-2 -19,-4 -5,-2 -9,-6 -13,-10 -4,-5 -7,-10 -9,-16 -2,-7 -3,-14 -3,-22l0 -8c0,-8 1,-15 3,-22 2,-6 5,-11 9,-16 4,-4 9,-8 14,-10 6,-3 12,-4 18,-4 7,0 13,1 18,3 5,2 9,4 12,8 4,3 6,7 8,11 2,5 4,10 4,15l-19 0c0,-3 -1,-6 -2,-9 -1,-3 -2,-5 -4,-7 -2,-2 -4,-3 -7,-4 -2,-1 -6,-2 -10,-2 -4,0 -8,1 -11,3 -3,1 -6,4 -8,7 -2,3 -4,7 -5,11 -1,5 -1,10 -1,15l0 9c0,6 0,11 1,15 1,5 3,8 5,12 2,3 4,5 7,7 3,2 7,2 12,2 4,0 7,0 10,-1 3,-1 5,-2 7,-4 2,-2 3,-4 4,-7 1,-3 2,-6 2,-9l19 0zm12 -6c0,-6 1,-11 2,-16 2,-5 5,-10 8,-13 3,-4 7,-7 12,-9 4,-2 9,-3 15,-3 6,0 12,1 16,3 5,2 9,5 12,9 3,3 6,8 7,13 2,5 3,10 3,16l0 2c0,6 -1,11 -3,16 -1,5 -4,9 -7,13 -3,4 -7,7 -12,9 -4,2 -10,3 -16,3 -5,0 -11,-1 -15,-3 -5,-2 -9,-5 -12,-9 -3,-4 -6,-8 -8,-13 -1,-5 -2,-10 -2,-16l0 -2zm18 2c0,3 0,7 1,10 1,3 2,6 4,8 1,3 3,5 6,6 2,2 5,2 8,2 4,0 7,0 9,-2 3,-1 5,-3 6,-6 2,-2 3,-5 4,-8 0,-3 1,-7 1,-10l0 -2c0,-3 -1,-7 -1,-10 -1,-3 -2,-6 -4,-9 -1,-2 -3,-4 -6,-5 -2,-2 -5,-2 -9,-2 -3,0 -6,0 -8,2 -3,1 -5,3 -6,5 -2,3 -3,6 -4,9 -1,3 -1,7 -1,10l0 2zm100 16l17 -58 18 0 -28 81 -15 0 -29 -81 19 0 18 58zm81 25c-6,0 -11,-1 -16,-3 -5,-2 -9,-5 -12,-8 -3,-4 -6,-8 -8,-13 -1,-5 -2,-10 -2,-15l0 -3c0,-7 1,-12 2,-18 2,-5 5,-9 8,-13 3,-3 7,-6 12,-8 4,-2 9,-3 14,-3 6,0 11,1 15,3 5,2 8,5 11,8 3,4 5,8 7,13 1,5 2,10 2,16l0 8 -53 0c0,3 1,6 2,8 1,3 2,5 4,7 2,2 4,3 7,5 2,1 5,1 8,1 5,0 9,-1 12,-2 3,-2 6,-5 9,-8l9 9c-1,2 -3,4 -4,6 -2,2 -5,4 -7,5 -3,1 -6,3 -9,3 -3,1 -7,2 -11,2zm-2 -69c-5,0 -9,1 -12,5 -3,3 -5,8 -6,14l35 0 0 -1c0,-2 -1,-5 -1,-7 -1,-2 -2,-4 -3,-6 -2,-2 -3,-3 -5,-4 -2,-1 -5,-1 -8,-1zm91 3c-1,0 -2,0 -4,0 -1,0 -2,-1 -3,-1 -5,0 -8,1 -11,3 -3,2 -5,4 -6,7l0 55 -18 0 0 -81 17 0 0 10c2,-4 5,-6 8,-8 3,-2 7,-3 11,-3 1,0 2,0 3,0 1,1 2,1 3,1l0 17zm-824 50l43 0 0 14 -66 0 0 -12 41 -54 -40 0 0 -15 63 0 0 12 -41 55z"/>
   </g>
  </g>
  <ellipse class="fil14" cx="237" cy="593" rx="26" ry="25"/>
  <g id="_2001700384912">
   <path class="fil13" d="M423 899c0,5 -2,10 -4,15 -2,4 -4,8 -8,11 -4,4 -8,6 -13,8 -5,2 -11,3 -18,3 -6,0 -12,-1 -18,-4 -5,-2 -10,-6 -13,-10 -4,-4 -7,-10 -9,-16 -2,-6 -3,-14 -3,-21l0 -9c0,-8 1,-15 3,-21 2,-7 5,-12 9,-17 4,-4 8,-8 14,-10 5,-2 12,-4 18,-4 7,0 13,1 18,3 4,2 9,5 12,8 4,3 6,7 8,12 2,4 3,9 4,15l-19 0c0,-4 -1,-7 -2,-10 -1,-2 -2,-5 -4,-7 -2,-1 -4,-3 -7,-4 -2,-1 -6,-1 -10,-1 -4,0 -8,0 -11,2 -3,2 -6,4 -8,7 -2,3 -4,7 -5,11 -1,5 -1,10 -1,16l0 9c0,5 0,10 1,14 1,5 2,9 5,12 1,3 4,5 7,7 3,2 7,3 11,3 5,0 8,-1 11,-2 3,-1 5,-2 7,-4 2,-2 3,-4 4,-7 1,-2 2,-5 2,-9l19 0zm63 35c0,-1 -1,-2 -1,-3 0,-1 0,-3 -1,-4 -1,1 -2,2 -4,3 -1,2 -3,2 -5,3 -1,1 -3,2 -5,2 -2,1 -5,1 -7,1 -4,0 -8,-1 -11,-2 -3,-1 -6,-3 -9,-5 -2,-2 -4,-5 -5,-8 -2,-3 -2,-6 -2,-9 0,-5 0,-8 2,-12 2,-3 4,-6 7,-8 3,-2 7,-4 12,-5 4,-1 9,-2 15,-2l12 0 0 -5c0,-4 -1,-8 -4,-10 -2,-3 -6,-4 -10,-4 -3,0 -5,0 -6,1 -2,0 -4,1 -5,2 -1,1 -2,2 -3,4 0,1 -1,2 -1,4l-18 0c0,-3 1,-6 3,-9 1,-3 3,-6 6,-8 3,-2 7,-4 11,-6 4,-1 8,-2 14,-2 4,0 8,1 12,2 4,1 7,3 10,5 3,3 5,5 6,9 2,3 3,7 3,12l0 36c0,7 1,13 3,17l0 1 -19 0zm-20 -13c3,0 4,0 6,0 2,-1 4,-2 5,-3 2,0 3,-2 4,-3 1,-1 2,-2 3,-3l0 -15 -10 0c-7,0 -12,1 -15,3 -4,2 -5,6 -5,10 0,2 0,3 1,5 0,1 1,2 2,3 1,1 2,2 4,3 2,0 3,0 5,0zm100 -8c0,-2 0,-3 -1,-4 0,-1 -1,-2 -2,-3 -1,-1 -3,-2 -5,-3 -3,-1 -6,-2 -9,-2 -5,-1 -8,-2 -12,-4 -4,-1 -7,-3 -9,-5 -3,-2 -5,-4 -6,-6 -1,-3 -2,-6 -2,-9 0,-4 1,-7 2,-10 1,-3 3,-5 6,-7 3,-3 6,-4 10,-6 4,-1 8,-2 13,-2 5,0 10,1 14,2 4,2 7,3 10,6 2,2 5,5 6,8 2,3 2,6 2,10l-18 0c0,-2 0,-3 -1,-5 0,-1 -1,-2 -2,-3 -2,-2 -3,-3 -5,-3 -2,-1 -4,-1 -6,-1 -2,0 -4,0 -6,1 -2,0 -3,1 -4,2 -1,1 -2,2 -3,3 0,1 -1,3 -1,4 0,1 1,2 1,4 1,1 2,2 3,2 1,1 3,2 5,3 2,0 5,1 8,2 5,1 9,2 13,3 3,2 6,3 9,5 3,2 5,5 6,7 1,3 2,6 2,10 0,3 -1,6 -2,9 -2,3 -4,6 -7,8 -3,2 -6,4 -10,5 -4,1 -9,2 -14,2 -5,0 -10,-1 -14,-2 -5,-2 -8,-4 -11,-7 -3,-2 -5,-5 -7,-8 -1,-3 -2,-7 -2,-10l18 0c0,2 0,5 1,6 1,2 3,3 4,4 2,1 4,2 5,3 2,0 4,0 6,0 5,0 9,-1 11,-2 3,-2 4,-5 4,-7zm52 -50c2,-4 6,-6 9,-8 4,-2 8,-3 13,-3 4,0 7,1 11,2 3,1 6,3 8,5 2,3 4,6 5,10 2,3 2,8 2,14l0 51 -18 0 0 -52c0,-5 -1,-9 -4,-11 -2,-3 -6,-4 -10,-4 -4,0 -7,1 -10,3 -3,1 -5,4 -6,7l0 57 -19 0 0 -114 19 0 0 43zm86 71l-18 0 0 -114 18 0 0 114zm55 2c-6,0 -11,-1 -16,-3 -5,-2 -9,-5 -12,-8 -4,-4 -6,-8 -8,-13 -2,-4 -3,-10 -3,-15l0 -3c0,-6 1,-12 3,-17 2,-5 5,-10 8,-13 3,-4 7,-7 12,-9 4,-2 9,-3 14,-3 6,0 11,1 15,3 5,2 8,5 11,8 3,4 5,8 6,13 2,5 2,10 2,16l0 8 -52 0c0,3 1,6 2,8 1,3 2,5 4,7 2,2 4,4 7,5 2,1 5,1 8,1 5,0 8,0 12,-2 3,-2 6,-4 8,-8l10 10c-1,2 -3,4 -5,5 -2,2 -4,4 -6,5 -3,2 -6,3 -9,4 -3,0 -7,1 -11,1zm-2 -69c-5,0 -9,2 -12,5 -3,3 -5,8 -6,15l35 0 0 -2c-1,-2 -1,-4 -2,-7 0,-2 -1,-4 -3,-6 -1,-1 -2,-3 -5,-4 -2,-1 -4,-1 -7,-1zm94 46c0,-2 0,-3 -1,-4 0,-1 -1,-2 -2,-3 -2,-1 -3,-2 -6,-3 -2,-1 -5,-2 -9,-2 -4,-1 -8,-2 -11,-4 -4,-1 -7,-3 -9,-5 -3,-2 -5,-4 -6,-6 -2,-3 -3,-6 -3,-9 0,-4 1,-7 3,-10 1,-3 3,-5 6,-7 3,-3 6,-4 10,-6 4,-1 8,-2 13,-2 5,0 9,1 13,2 4,2 8,3 10,6 3,2 5,5 7,8 1,3 2,6 2,10l-18 0c0,-2 0,-3 -1,-5 -1,-1 -2,-2 -3,-3 -1,-2 -2,-3 -4,-3 -2,-1 -4,-1 -6,-1 -3,0 -5,0 -6,1 -2,0 -3,1 -5,2 -1,1 -1,2 -2,3 -1,1 -1,3 -1,4 0,1 0,2 1,4 0,1 1,2 3,2 1,1 3,2 5,3 2,0 4,1 8,2 4,1 9,2 12,3 4,2 7,3 10,5 2,2 4,5 6,7 1,3 2,6 2,10 0,3 -1,6 -3,9 -1,3 -4,6 -6,8 -3,2 -7,4 -11,5 -4,1 -8,2 -13,2 -6,0 -11,-1 -15,-2 -4,-2 -8,-4 -10,-7 -3,-2 -6,-5 -7,-8 -1,-3 -2,-7 -2,-10l17 0c1,2 1,5 2,6 1,2 2,3 4,4 1,1 3,2 5,3 2,0 4,0 6,0 5,0 8,-1 11,-2 2,-2 4,-5 4,-7zm79 0c0,-2 -1,-3 -1,-4 0,-1 -1,-2 -3,-3 -1,-1 -3,-2 -5,-3 -2,-1 -5,-2 -9,-2 -4,-1 -8,-2 -11,-4 -4,-1 -7,-3 -10,-5 -2,-2 -4,-4 -6,-6 -1,-3 -2,-6 -2,-9 0,-4 1,-7 2,-10 2,-3 4,-5 7,-7 2,-3 6,-4 10,-6 3,-1 8,-2 13,-2 5,0 9,1 13,2 4,2 7,3 10,6 3,2 5,5 7,8 1,3 2,6 2,10l-18 0c0,-2 -1,-3 -1,-5 -1,-1 -2,-2 -3,-3 -1,-2 -3,-3 -4,-3 -2,-1 -4,-1 -6,-1 -3,0 -5,0 -6,1 -2,0 -4,1 -5,2 -1,1 -2,2 -2,3 -1,1 -1,3 -1,4 0,1 0,2 1,4 0,1 1,2 2,2 2,1 3,2 6,3 2,0 4,1 8,2 4,1 8,2 12,3 4,2 7,3 10,5 2,2 4,5 5,7 2,3 2,6 2,10 0,3 0,6 -2,9 -1,3 -4,6 -6,8 -3,2 -7,4 -11,5 -4,1 -8,2 -13,2 -6,0 -11,-1 -15,-2 -4,-2 -8,-4 -11,-7 -3,-2 -5,-5 -6,-8 -2,-3 -2,-7 -2,-10l17 0c0,2 1,5 2,6 1,2 2,3 4,4 1,1 3,2 5,3 2,0 4,0 6,0 5,0 8,-1 11,-2 2,-2 4,-5 4,-7zm136 -25l-44 0 0 46 -19 0 0 -108 69 0 0 15 -50 0 0 32 44 0 0 15zm65 46c-1,-1 -1,-2 -1,-3 -1,-1 -1,-3 -1,-4 -1,1 -3,2 -4,3 -2,2 -3,2 -5,3 -2,1 -4,2 -6,2 -2,1 -4,1 -6,1 -4,0 -8,-1 -12,-2 -3,-1 -6,-3 -8,-5 -3,-2 -5,-5 -6,-8 -1,-3 -2,-6 -2,-9 0,-5 1,-8 2,-12 2,-3 5,-6 8,-8 3,-2 7,-4 11,-5 5,-1 10,-2 16,-2l11 0 0 -5c0,-4 -1,-8 -3,-10 -3,-3 -6,-4 -11,-4 -2,0 -4,0 -6,1 -2,0 -3,1 -4,2 -1,1 -2,2 -3,4 -1,1 -1,2 -1,4l-18 0c0,-3 1,-6 2,-9 2,-3 4,-6 7,-8 3,-2 6,-4 10,-6 4,-1 9,-2 14,-2 5,0 9,1 13,2 3,1 7,3 10,5 2,3 4,5 6,9 2,3 2,7 2,12l0 36c0,7 1,13 3,17l0 1 -18 0zm-20 -13c2,0 4,0 6,0 2,-1 3,-2 5,-3 1,0 2,-2 4,-3 1,-1 2,-2 2,-3l0 -15 -10 0c-6,0 -11,1 -15,3 -3,2 -5,6 -5,10 0,2 0,3 1,5 1,1 1,2 2,3 2,1 3,2 4,3 2,0 4,0 6,0zm87 0c3,0 5,0 7,-1 2,0 3,-1 5,-2 1,-2 2,-3 3,-5 1,-1 1,-3 1,-5l18 0c-1,4 -2,7 -3,11 -2,3 -4,6 -7,9 -3,2 -7,4 -11,6 -4,1 -8,2 -12,2 -7,0 -12,-1 -17,-3 -4,-2 -8,-5 -11,-9 -3,-4 -5,-8 -7,-13 -1,-5 -2,-10 -2,-16l0 -2c0,-6 1,-11 2,-16 2,-5 4,-9 7,-13 3,-4 7,-6 11,-9 5,-2 10,-3 17,-3 4,0 9,1 13,2 4,2 7,4 10,7 3,2 5,6 7,9 2,4 2,8 3,13l-18 0c0,-2 0,-5 -1,-6 -1,-2 -2,-4 -3,-6 -1,-1 -3,-2 -5,-3 -2,-1 -4,-1 -7,-1 -3,0 -6,1 -9,2 -2,2 -4,4 -5,6 -2,2 -3,5 -3,8 -1,3 -1,7 -1,10l0 2c0,4 0,7 1,10 0,3 1,6 3,8 1,3 3,5 5,6 3,2 6,2 9,2zm67 13l-19 0 0 -80 19 0 0 80zm-20 -101c0,-3 1,-5 3,-7 2,-2 4,-3 8,-3 3,0 5,1 7,3 2,2 3,4 3,7 0,2 -1,5 -3,7 -2,1 -4,2 -7,2 -4,0 -6,-1 -8,-2 -2,-2 -3,-5 -3,-7zm59 101l-19 0 0 -114 19 0 0 114zm39 0l-19 0 0 -80 19 0 0 80zm-20 -101c0,-3 1,-5 3,-7 2,-2 4,-3 8,-3 3,0 5,1 7,3 2,2 3,4 3,7 0,2 -1,5 -3,7 -2,1 -4,2 -7,2 -4,0 -6,-1 -8,-2 -2,-2 -3,-5 -3,-7zm62 1l0 20 14 0 0 13 -14 0 0 45c0,2 0,4 1,5 0,1 1,2 1,2 1,1 2,1 3,2 1,0 2,0 3,0 2,0 3,0 4,0 1,0 2,-1 3,-1l0 14c-2,1 -3,1 -5,1 -2,1 -5,1 -7,1 -3,0 -6,0 -9,-1 -2,-1 -4,-2 -6,-4 -2,-2 -4,-4 -5,-7 -1,-3 -1,-7 -1,-11l0 -46 -13 0 0 -13 13 0 0 -20 18 0zm47 100l-18 0 0 -80 18 0 0 80zm-19 -101c0,-3 1,-5 3,-7 2,-2 4,-3 7,-3 4,0 6,1 8,3 2,2 3,4 3,7 0,2 -1,5 -3,7 -2,1 -4,2 -8,2 -3,0 -5,-1 -7,-2 -2,-2 -3,-5 -3,-7zm75 103c-6,0 -12,-1 -16,-3 -5,-2 -9,-5 -13,-8 -3,-4 -6,-8 -7,-13 -2,-4 -3,-10 -3,-15l0 -3c0,-6 1,-12 3,-17 2,-5 4,-10 8,-13 3,-4 7,-7 11,-9 5,-2 9,-3 15,-3 5,0 10,1 15,3 4,2 8,5 11,8 2,4 5,8 6,13 1,5 2,10 2,16l0 8 -53 0c1,3 1,6 2,8 1,3 3,5 5,7 1,2 4,4 6,5 3,1 5,1 9,1 4,0 8,0 11,-2 4,-2 7,-4 9,-8l10 10c-2,2 -3,4 -5,5 -2,2 -4,4 -7,5 -2,2 -5,3 -8,4 -4,0 -7,1 -11,1zm-3 -69c-5,0 -9,2 -12,5 -3,3 -5,8 -5,15l34 0 0 -2c0,-2 0,-4 -1,-7 -1,-2 -2,-4 -3,-6 -1,-1 -3,-3 -5,-4 -2,-1 -5,-1 -8,-1zm94 46c0,-2 0,-3 0,-4 -1,-1 -2,-2 -3,-3 -1,-1 -3,-2 -5,-3 -2,-1 -5,-2 -9,-2 -4,-1 -8,-2 -12,-4 -3,-1 -6,-3 -9,-5 -2,-2 -4,-4 -6,-6 -1,-3 -2,-6 -2,-9 0,-4 1,-7 2,-10 2,-3 4,-5 6,-7 3,-3 6,-4 10,-6 4,-1 8,-2 13,-2 5,0 10,1 14,2 4,2 7,3 10,6 3,2 5,5 6,8 2,3 3,6 3,10l-19 0c0,-2 0,-3 0,-5 -1,-1 -2,-2 -3,-3 -1,-2 -3,-3 -5,-3 -1,-1 -3,-1 -6,-1 -2,0 -4,0 -6,1 -1,0 -3,1 -4,2 -1,1 -2,2 -2,3 -1,1 -1,3 -1,4 0,1 0,2 1,4 0,1 1,2 2,2 1,1 3,2 5,3 2,0 5,1 8,2 5,1 9,2 13,3 4,2 7,3 9,5 3,2 5,5 6,7 1,3 2,6 2,10 0,3 -1,6 -2,9 -2,3 -4,6 -7,8 -3,2 -6,4 -10,5 -4,1 -9,2 -14,2 -5,0 -10,-1 -14,-2 -4,-2 -8,-4 -11,-7 -3,-2 -5,-5 -6,-8 -2,-3 -3,-7 -3,-10l18 0c0,2 1,5 2,6 1,2 2,3 4,4 1,1 3,2 5,3 2,0 4,0 6,0 4,0 8,-1 11,-2 2,-2 3,-5 3,-7z"/>
   <path class="fil13" d="M1771 896c0,3 0,6 -1,9 0,4 -1,7 -2,10 -1,3 -3,6 -4,8 -2,3 -4,5 -6,7 -3,2 -5,3 -8,4 -3,1 -7,2 -10,2 -5,0 -9,-1 -12,-3 -3,-2 -5,-5 -6,-8 -3,3 -6,6 -9,8 -4,2 -7,3 -11,3 -3,0 -7,-1 -9,-3 -3,-1 -6,-3 -7,-6 -2,-3 -3,-6 -4,-11 -1,-4 -1,-8 -1,-13 1,-7 2,-12 4,-18 3,-5 5,-9 8,-13 3,-4 6,-6 10,-8 4,-2 8,-3 12,-3 3,0 5,0 7,0 2,1 4,1 6,2 2,1 3,2 5,3 1,1 3,2 4,3l-4 42c0,3 0,5 1,7 0,2 1,4 1,5 1,1 2,1 3,2 2,0 3,0 4,0 3,0 5,0 7,-2 2,-1 4,-3 6,-6 1,-3 2,-6 3,-9 1,-4 2,-8 2,-12 0,-9 -1,-17 -2,-24 -2,-7 -5,-13 -8,-17 -4,-5 -9,-9 -15,-12 -6,-2 -13,-4 -22,-4 -7,0 -14,2 -20,5 -7,3 -12,7 -16,12 -5,6 -8,12 -11,19 -2,7 -4,16 -4,24 0,9 0,18 2,25 2,7 5,13 9,18 4,5 9,8 15,11 6,3 13,4 20,4 3,0 5,0 7,-1 2,0 5,0 7,-1 2,0 4,-1 6,-1 2,-1 4,-2 5,-3l3 11c-2,1 -4,2 -6,3 -2,0 -5,1 -7,2 -3,0 -5,1 -8,1 -2,0 -5,0 -7,0 -10,0 -18,-1 -26,-4 -7,-4 -13,-8 -19,-14 -5,-6 -8,-13 -11,-22 -2,-8 -3,-18 -3,-29 0,-6 1,-13 3,-19 1,-6 3,-12 6,-17 3,-6 6,-10 10,-15 3,-4 8,-7 12,-10 5,-3 10,-6 16,-7 5,-2 11,-3 18,-3 9,0 18,2 25,5 7,3 14,8 19,14 4,6 8,13 10,21 3,8 4,18 3,28zm-75 7c-1,7 0,12 2,15 2,4 5,6 9,6 1,0 2,-1 3,-1 1,-1 2,-1 4,-2 1,-1 2,-3 3,-4 1,-2 2,-4 3,-7l3 -36c-1,-1 -2,-1 -3,-1 -1,-1 -2,-1 -4,-1 -5,0 -10,3 -13,8 -4,5 -6,13 -7,23zm205 -62l-33 0 0 93 -19 0 0 -93 -34 0 0 -15 86 0 0 15zm-6 52c0,-6 1,-11 3,-16 1,-5 4,-9 7,-13 3,-4 7,-7 12,-9 4,-2 10,-3 15,-3 6,0 12,1 16,3 5,2 9,5 12,9 3,4 6,8 8,13 1,5 2,10 2,16l0 2c0,6 -1,11 -2,16 -2,5 -5,10 -8,13 -3,4 -7,7 -12,9 -4,2 -10,3 -15,3 -6,0 -12,-1 -16,-3 -5,-2 -9,-5 -12,-9 -3,-3 -6,-8 -7,-13 -2,-5 -3,-10 -3,-16l0 -2zm18 2c0,4 1,7 1,10 1,3 2,6 4,9 1,2 3,4 6,5 2,2 5,2 9,2 3,0 6,0 8,-2 3,-1 5,-3 6,-5 2,-3 3,-6 4,-9 1,-3 1,-6 1,-10l0 -2c0,-3 0,-7 -1,-10 -1,-3 -2,-6 -4,-8 -1,-3 -3,-5 -6,-6 -2,-2 -5,-2 -9,-2 -3,0 -6,0 -8,2 -3,1 -5,3 -6,6 -2,2 -3,5 -4,8 0,3 -1,7 -1,10l0 2zm143 0c0,6 -1,11 -2,16 -1,5 -3,10 -6,13 -3,4 -6,7 -10,9 -4,2 -8,3 -13,3 -5,0 -9,-1 -12,-2 -4,-2 -7,-4 -10,-7l0 38 -18 0 0 -111 17 0 1 8c2,-3 5,-6 9,-7 4,-2 8,-3 13,-3 5,0 9,1 13,3 4,2 7,5 10,9 3,3 5,8 6,13 1,5 2,10 2,16l0 2zm-18 -2c0,-3 0,-7 -1,-10 -1,-3 -2,-6 -3,-8 -2,-3 -4,-4 -6,-6 -2,-1 -5,-2 -9,-2 -4,0 -7,1 -9,3 -3,1 -5,3 -7,6l0 36c2,3 4,5 7,7 2,2 5,2 10,2 3,0 6,0 8,-2 2,-1 4,-3 6,-5 1,-3 2,-6 3,-9 1,-3 1,-7 1,-10l0 -2zm159 41l-18 0 0 -48 -49 0 0 48 -19 0 0 -108 19 0 0 45 49 0 0 -45 18 0 0 108zm18 -41c0,-6 0,-11 2,-16 2,-5 4,-9 8,-13 3,-4 7,-7 11,-9 5,-2 10,-3 16,-3 6,0 11,1 16,3 5,2 9,5 12,9 3,4 5,8 7,13 2,5 3,10 3,16l0 2c0,6 -1,11 -3,16 -2,5 -4,10 -7,13 -3,4 -7,7 -12,9 -5,2 -10,3 -16,3 -6,0 -11,-1 -16,-3 -4,-2 -8,-5 -11,-9 -4,-3 -6,-8 -8,-13 -2,-5 -2,-10 -2,-16l0 -2zm18 2c0,4 0,7 1,10 1,3 2,6 3,9 2,2 4,4 6,5 3,2 6,2 9,2 4,0 6,0 9,-2 2,-1 4,-3 6,-5 1,-3 3,-6 3,-9 1,-3 2,-6 2,-10l0 -2c0,-3 -1,-7 -2,-10 0,-3 -2,-6 -3,-8 -2,-3 -4,-5 -6,-6 -3,-2 -6,-2 -9,-2 -3,0 -6,0 -9,2 -2,1 -4,3 -6,6 -1,2 -2,5 -3,8 -1,3 -1,7 -1,10l0 2zm117 18c0,-2 0,-3 0,-4 -1,-1 -2,-2 -3,-3 -1,-1 -3,-2 -5,-3 -2,-1 -5,-2 -9,-2 -4,-1 -8,-2 -12,-4 -3,-1 -6,-3 -9,-5 -3,-2 -4,-4 -6,-6 -1,-3 -2,-6 -2,-9 0,-4 1,-7 2,-10 2,-3 4,-5 6,-7 3,-3 6,-4 10,-6 4,-1 8,-2 13,-2 5,0 10,1 14,2 4,2 7,3 10,6 3,2 5,5 6,8 2,3 2,6 2,10l-18 0c0,-2 0,-3 -1,-5 0,-1 -1,-2 -2,-3 -1,-2 -3,-3 -5,-3 -1,-1 -3,-1 -6,-1 -2,0 -4,0 -6,1 -2,0 -3,1 -4,2 -1,1 -2,2 -3,3 0,1 0,3 0,4 0,1 0,2 0,4 1,1 2,2 3,2 1,1 3,2 5,3 2,0 5,1 8,2 5,1 9,2 13,3 3,2 7,3 9,5 3,2 5,5 6,7 1,3 2,6 2,10 0,3 -1,6 -2,9 -2,3 -4,6 -7,8 -3,2 -6,4 -10,5 -4,1 -9,2 -14,2 -5,0 -10,-1 -14,-2 -5,-2 -8,-4 -11,-7 -3,-2 -5,-5 -7,-8 -1,-3 -2,-7 -2,-10l18 0c0,2 1,5 2,6 1,2 2,3 3,4 2,1 4,2 6,3 2,0 4,0 6,0 4,0 8,-1 10,-2 3,-2 4,-5 4,-7zm105 -18c0,6 -1,11 -3,16 -1,5 -3,10 -6,13 -2,4 -6,7 -9,9 -4,2 -9,3 -14,3 -4,0 -8,-1 -12,-2 -3,-2 -6,-4 -9,-7l0 38 -18 0 0 -111 17 0 0 8c3,-3 6,-6 9,-7 4,-2 8,-3 13,-3 5,0 10,1 14,3 3,2 7,5 9,9 3,3 5,8 6,13 2,5 3,10 3,16l0 2zm-19 -2c0,-3 0,-7 -1,-10 0,-3 -1,-6 -3,-8 -1,-3 -3,-4 -6,-6 -2,-1 -5,-2 -8,-2 -4,0 -7,1 -10,3 -3,1 -5,3 -6,6l0 36c1,3 3,5 6,7 3,2 6,2 10,2 3,0 6,0 8,-2 3,-1 5,-3 6,-5 2,-3 3,-6 3,-9 1,-3 1,-7 1,-10l0 -2zm53 41l-18 0 0 -80 18 0 0 80zm-19 -101c0,-3 1,-5 3,-7 1,-2 4,-3 7,-3 3,0 6,1 8,3 2,2 2,4 2,7 0,2 0,5 -2,7 -2,1 -5,2 -8,2 -3,0 -6,-1 -7,-2 -2,-2 -3,-5 -3,-7zm62 1l0 20 14 0 0 13 -14 0 0 45c0,2 0,4 0,5 1,1 1,2 2,2 1,1 2,1 3,2 1,0 2,0 3,0 1,0 2,0 4,0 1,0 2,-1 2,-1l0 14c-1,1 -3,1 -5,1 -2,1 -4,1 -7,1 -3,0 -5,0 -8,-1 -3,-1 -5,-2 -7,-4 -1,-2 -3,-4 -4,-7 -1,-3 -2,-7 -2,-11l0 -46 -13 0 0 -13 13 0 0 -20 19 0zm76 100c-1,-1 -1,-2 -1,-3 -1,-1 -1,-3 -1,-4 -1,1 -3,2 -4,3 -2,2 -3,2 -5,3 -2,1 -4,2 -6,2 -2,1 -4,1 -6,1 -4,0 -8,-1 -12,-2 -3,-1 -6,-3 -8,-5 -3,-2 -4,-5 -6,-8 -1,-3 -2,-6 -2,-9 0,-5 1,-8 3,-12 1,-3 4,-6 7,-8 3,-2 7,-4 11,-5 5,-1 10,-2 16,-2l11 0 0 -5c0,-4 -1,-8 -3,-10 -3,-3 -6,-4 -11,-4 -2,0 -4,0 -6,1 -2,0 -3,1 -4,2 -1,1 -2,2 -3,4 -1,1 -1,2 -1,4l-18 0c0,-3 1,-6 2,-9 2,-3 4,-6 7,-8 3,-2 6,-4 10,-6 4,-1 9,-2 14,-2 5,0 9,1 13,2 3,1 7,3 10,5 2,3 4,5 6,9 2,3 2,7 2,12l0 36c0,7 1,13 3,17l0 1 -18 0zm-20 -13c2,0 4,0 6,0 2,-1 3,-2 5,-3 1,0 3,-2 4,-3 1,-1 2,-2 2,-3l0 -15 -10 0c-6,0 -11,1 -15,3 -3,2 -5,6 -5,10 0,2 0,3 1,5 1,1 1,2 3,3 1,1 2,2 3,3 2,0 4,0 6,0zm74 13l-19 0 0 -114 19 0 0 114zm65 -21c0,-2 -1,-3 -1,-4 0,-1 -1,-2 -3,-3 -1,-1 -3,-2 -5,-3 -2,-1 -5,-2 -9,-2 -4,-1 -8,-2 -11,-4 -4,-1 -7,-3 -10,-5 -2,-2 -4,-4 -6,-6 -1,-3 -2,-6 -2,-9 0,-4 1,-7 2,-10 2,-3 4,-5 7,-7 2,-3 6,-4 10,-6 3,-1 8,-2 13,-2 5,0 9,1 13,2 4,2 7,3 10,6 3,2 5,5 7,8 1,3 2,6 2,10l-18 0c0,-2 -1,-3 -1,-5 -1,-1 -2,-2 -3,-3 -1,-2 -3,-3 -4,-3 -2,-1 -4,-1 -6,-1 -3,0 -5,0 -6,1 -2,0 -4,1 -5,2 -1,1 -2,2 -2,3 -1,1 -1,3 -1,4 0,1 0,2 1,4 0,1 1,2 2,2 2,1 3,2 6,3 2,0 4,1 8,2 4,1 8,2 12,3 4,2 7,3 10,5 2,2 4,5 5,7 2,3 2,6 2,10 0,3 0,6 -2,9 -1,3 -4,6 -7,8 -2,2 -6,4 -10,5 -4,1 -8,2 -13,2 -6,0 -11,-1 -15,-2 -4,-2 -8,-4 -11,-7 -3,-2 -5,-5 -6,-8 -2,-3 -2,-7 -2,-10l17 0c0,2 1,5 2,6 1,2 2,3 4,4 1,1 3,2 5,3 2,0 4,0 6,0 5,0 8,-1 11,-2 2,-2 4,-5 4,-7z"/>
  </g>
  <ellipse class="fil14" cx="237" cy="882" rx="26" ry="25"/>
  <path class="fil13" d="M939 1783l0 72c0,7 -1,12 -3,17 -2,4 -5,8 -9,12 -4,3 -8,5 -13,7 -5,1 -10,2 -16,2 -5,0 -11,-1 -16,-2 -5,-2 -9,-4 -13,-7 -3,-4 -6,-8 -8,-12 -2,-5 -3,-10 -3,-17l0 -72 19 0 0 72c0,4 0,8 1,11 1,2 3,5 5,6 1,2 4,4 6,5 3,0 6,1 9,1 4,0 7,-1 9,-1 3,-1 5,-3 7,-5 2,-1 4,-4 5,-6 1,-3 1,-7 1,-11l0 -72 19 0zm89 69c0,6 -1,11 -2,16 -1,5 -3,10 -6,13 -3,4 -6,7 -10,9 -4,2 -8,3 -13,3 -5,0 -9,-1 -12,-2 -4,-2 -7,-4 -10,-7l0 38 -18 0 0 -111 17 0 1 8c2,-3 5,-6 9,-7 4,-2 8,-3 12,-3 6,0 10,1 14,3 4,2 7,5 10,9 3,3 5,8 6,13 1,5 2,10 2,16l0 2zm-18 -2c0,-3 0,-7 -1,-10 -1,-3 -2,-6 -3,-8 -2,-3 -4,-5 -6,-6 -2,-1 -5,-2 -9,-2 -4,0 -7,1 -9,3 -3,1 -5,3 -7,6l0 36c2,3 4,5 7,7 2,2 5,2 10,2 3,0 6,0 8,-2 2,-1 4,-3 6,-5 1,-3 2,-6 3,-9 1,-3 1,-7 1,-10l0 -2zm56 -59l0 20 14 0 0 13 -14 0 0 45c0,2 0,4 1,5 0,1 1,2 1,2 1,1 2,1 3,2 1,0 2,0 3,0 2,0 3,0 4,0 1,0 2,-1 3,-1l0 14c-2,1 -3,1 -5,1 -2,1 -4,1 -7,1 -3,0 -6,0 -8,-1 -3,-1 -5,-2 -7,-4 -2,-2 -3,-4 -4,-7 -2,-3 -2,-7 -2,-11l0 -46 -13 0 0 -13 13 0 0 -20 18 0zm23 59c0,-6 0,-11 2,-16 2,-5 4,-9 8,-13 3,-4 7,-7 11,-9 5,-2 10,-3 16,-3 6,0 11,1 16,3 5,2 9,5 12,9 3,4 5,8 7,13 2,5 3,10 3,16l0 2c0,6 -1,11 -3,16 -2,5 -4,10 -7,13 -3,4 -7,7 -12,9 -5,2 -10,3 -16,3 -6,0 -11,-1 -16,-3 -4,-2 -8,-5 -11,-9 -4,-3 -6,-8 -8,-13 -2,-5 -2,-10 -2,-16l0 -2zm18 2c0,4 0,7 1,10 1,3 2,6 3,9 2,2 4,4 6,5 3,2 6,2 9,2 3,0 6,0 9,-2 2,-1 4,-3 6,-5 1,-3 3,-6 3,-9 1,-3 2,-6 2,-10l0 -2c0,-3 -1,-7 -2,-10 0,-3 -2,-6 -3,-8 -2,-3 -4,-5 -6,-6 -3,-2 -6,-2 -9,-2 -3,0 -6,0 -9,2 -2,1 -4,3 -6,6 -1,2 -2,5 -3,8 -1,3 -1,7 -1,10l0 2zm158 39l-18 0 0 -87 -27 9 0 -15 43 -16 2 0 0 109zm108 -45c0,8 0,16 -2,22 -2,6 -4,10 -7,14 -3,4 -7,7 -11,8 -5,2 -10,3 -15,3 -5,0 -10,-1 -15,-3 -4,-1 -8,-4 -11,-8 -3,-4 -5,-8 -7,-14 -2,-6 -3,-14 -3,-22l0 -18c0,-8 1,-16 3,-22 2,-6 4,-10 7,-14 3,-4 7,-7 11,-8 5,-2 10,-3 15,-3 5,0 10,1 14,3 5,1 9,4 12,8 3,4 5,8 7,14 2,6 2,14 2,22l0 18zm-18 -21c0,-5 0,-10 -1,-13 -1,-4 -2,-7 -3,-10 -2,-2 -4,-4 -6,-5 -2,-1 -4,-1 -7,-1 -3,0 -5,0 -8,1 -2,1 -4,3 -5,5 -2,3 -3,6 -3,10 -1,3 -2,8 -2,13l0 23c0,6 1,10 2,14 0,4 2,7 3,10 2,2 3,4 6,5 2,1 4,1 7,1 3,0 5,0 7,-1 3,-1 4,-3 6,-5 1,-3 2,-6 3,-10 1,-4 1,-8 1,-14l0 -23zm105 21c0,8 -1,16 -2,22 -2,6 -4,10 -7,14 -4,4 -7,7 -12,8 -4,2 -9,3 -14,3 -5,0 -10,-1 -15,-3 -4,-1 -8,-4 -11,-8 -3,-4 -6,-8 -7,-14 -2,-6 -3,-14 -3,-22l0 -18c0,-8 1,-16 3,-22 1,-6 4,-10 7,-14 3,-4 7,-7 11,-8 5,-2 9,-3 15,-3 5,0 10,1 14,3 5,1 8,4 12,8 3,4 5,8 7,14 1,6 2,14 2,22l0 18zm-18 -21c0,-5 0,-10 -1,-13 -1,-4 -2,-7 -3,-10 -2,-2 -4,-4 -6,-5 -2,-1 -5,-1 -7,-1 -3,0 -6,0 -8,1 -2,1 -4,3 -5,5 -2,3 -3,6 -4,10 0,3 -1,8 -1,13l0 23c0,6 1,10 1,14 1,4 2,7 4,10 1,2 3,4 5,5 3,1 5,1 8,1 3,0 5,0 7,-1 2,-1 4,-3 6,-5 1,-3 2,-6 3,-10 1,-4 1,-8 1,-14l0 -23zm34 -21c0,-3 0,-6 1,-9 1,-3 3,-5 5,-7 2,-2 4,-4 7,-5 3,-1 6,-2 10,-2 3,0 7,1 9,2 3,1 6,3 8,5 2,2 3,4 4,7 1,3 2,6 2,9l0 5c0,3 -1,6 -2,9 -1,3 -2,5 -4,7 -2,2 -5,4 -8,5 -2,1 -6,2 -9,2 -4,0 -7,-1 -10,-2 -3,-1 -5,-3 -7,-5 -2,-2 -4,-4 -5,-7 -1,-3 -1,-6 -1,-9l0 -5zm12 5c0,2 0,3 1,5 0,1 1,2 2,3 1,1 2,2 3,3 1,1 3,1 5,1 1,0 3,0 4,-1 2,-1 3,-2 3,-3 1,-1 2,-2 2,-3 1,-2 1,-3 1,-5l0 -5c0,-2 0,-3 -1,-5 0,-1 -1,-2 -2,-3 0,-1 -2,-2 -3,-3 -1,-1 -3,-1 -4,-1 -2,0 -4,0 -5,1 -1,1 -2,2 -3,3 -1,1 -2,2 -2,3 -1,2 -1,3 -1,5l0 5zm40 56c0,-3 0,-6 1,-9 1,-3 3,-5 5,-7 2,-2 4,-4 7,-5 3,-1 6,-2 10,-2 4,0 7,1 10,2 3,1 5,3 7,5 2,2 3,4 4,7 1,3 2,6 2,9l0 6c0,3 -1,6 -2,8 -1,3 -2,5 -4,7 -2,2 -4,4 -7,5 -3,1 -6,2 -10,2 -4,0 -7,-1 -10,-2 -3,-1 -5,-3 -7,-5 -2,-2 -4,-4 -5,-7 -1,-2 -1,-5 -1,-8l0 -6zm12 6c0,1 1,3 1,4 1,1 1,3 2,4 1,1 2,2 3,2 2,1 3,1 5,1 2,0 3,0 5,-1 1,0 2,-1 3,-2 1,-1 1,-3 2,-4 0,-1 0,-3 0,-4l0 -6c0,-2 0,-3 0,-5 -1,-1 -2,-2 -2,-3 -1,-1 -2,-2 -4,-3 -1,0 -2,-1 -4,-1 -2,0 -3,1 -5,1 -1,1 -2,2 -3,3 -1,1 -1,2 -2,3 0,2 -1,3 -1,5l0 6zm-38 12l-9 -5 53 -85 9 5 -53 85zm214 8l-19 0 -49 -77 0 77 -19 0 0 -108 19 0 49 77 0 -77 19 0 0 108zm17 -41c0,-6 1,-11 2,-16 2,-5 5,-9 8,-13 3,-4 7,-7 11,-9 5,-2 10,-3 16,-3 6,0 11,1 16,3 5,2 9,5 12,9 3,4 6,8 7,13 2,5 3,10 3,16l0 2c0,6 -1,11 -3,16 -1,5 -4,10 -7,13 -3,4 -7,7 -12,9 -5,2 -10,3 -16,3 -6,0 -11,-1 -15,-3 -5,-2 -9,-5 -12,-9 -3,-3 -6,-8 -8,-13 -1,-5 -2,-10 -2,-16l0 -2zm18 2c0,4 0,7 1,10 1,3 2,6 4,9 1,2 3,4 6,5 2,2 5,2 8,2 4,0 7,0 9,-2 3,-1 5,-3 6,-5 2,-3 3,-6 4,-9 0,-3 1,-6 1,-10l0 -2c0,-3 -1,-7 -1,-10 -1,-3 -2,-6 -4,-8 -2,-3 -4,-5 -6,-6 -2,-2 -5,-2 -9,-2 -3,0 -6,0 -8,2 -3,1 -5,3 -6,6 -2,2 -3,5 -4,8 -1,3 -1,7 -1,10l0 2zm195 4c-1,5 -2,10 -4,15 -2,4 -5,8 -8,11 -4,4 -8,6 -13,8 -5,2 -11,3 -18,3 -6,0 -12,-1 -18,-4 -5,-2 -10,-6 -14,-10 -3,-4 -6,-10 -8,-16 -2,-6 -3,-14 -3,-21l0 -9c0,-8 1,-15 3,-21 2,-7 5,-12 9,-17 3,-4 8,-8 14,-10 5,-2 11,-4 18,-4 7,0 12,1 17,3 5,2 9,5 13,8 3,3 6,7 8,12 2,4 3,9 4,15l-19 0c0,-4 -1,-7 -2,-10 -1,-2 -2,-5 -4,-7 -2,-1 -4,-3 -7,-4 -3,-1 -6,-1 -10,-1 -4,0 -8,0 -11,2 -3,2 -6,4 -8,7 -2,3 -4,7 -5,11 -1,5 -2,10 -2,16l0 9c0,5 1,10 2,14 1,5 2,9 4,12 2,3 5,5 8,7 3,2 7,3 11,3 4,0 8,-1 11,-2 2,-1 5,-2 7,-4 1,-2 3,-4 4,-7 1,-2 2,-5 2,-9l19 0zm34 35l-18 0 0 -114 18 0 0 114zm68 0c0,-1 -1,-2 -1,-3 0,-1 -1,-3 -1,-4 -1,1 -2,2 -4,3 -1,2 -3,2 -5,3 -2,1 -3,2 -6,2 -2,1 -4,1 -6,1 -4,0 -8,-1 -11,-2 -4,-1 -6,-3 -9,-5 -2,-2 -4,-5 -6,-8 -1,-3 -2,-6 -2,-9 0,-5 1,-8 3,-12 1,-3 4,-6 7,-8 3,-2 7,-4 12,-5 4,-1 9,-2 15,-2l11 0 0 -5c0,-4 -1,-8 -3,-10 -2,-3 -6,-4 -11,-4 -2,0 -4,0 -6,1 -1,0 -3,1 -4,2 -1,1 -2,2 -3,4 0,1 -1,2 -1,4l-18 0c0,-3 1,-6 2,-9 2,-3 4,-6 7,-8 3,-2 6,-4 11,-6 4,-1 8,-2 13,-2 5,0 9,1 13,2 4,1 7,3 10,5 3,3 5,5 6,9 2,3 3,7 3,12l0 36c0,7 1,13 3,17l0 1 -19 0zm-20 -13c2,0 4,0 6,0 2,-1 4,-2 5,-3 2,-1 3,-2 4,-3 1,-1 2,-2 2,-3l0 -15 -9 0c-7,0 -12,1 -15,3 -4,2 -5,6 -5,10 0,2 0,3 0,5 1,1 2,2 3,3 1,1 2,2 4,3 1,0 3,0 5,0zm74 13l-18 0 0 -80 18 0 0 80zm-19 -101c0,-3 1,-5 2,-7 2,-2 5,-3 8,-3 3,0 6,1 7,3 2,2 3,4 3,7 0,2 -1,5 -3,7 -1,1 -4,2 -7,2 -3,0 -6,-1 -8,-2 -1,-2 -2,-5 -2,-7zm56 21l0 8c3,-3 6,-5 10,-7 4,-2 8,-3 13,-3 5,0 10,1 14,3 4,2 7,5 9,10 2,-4 6,-7 10,-9 4,-3 9,-4 14,-4 5,0 8,1 12,2 3,1 6,3 8,5 2,3 4,6 5,9 1,4 2,9 2,14l0 52 -18 0 0 -52c0,-3 -1,-5 -1,-7 -1,-2 -2,-4 -3,-5 -1,-1 -3,-2 -5,-2 -1,-1 -3,-1 -6,-1 -4,0 -7,1 -10,3 -2,3 -4,5 -5,9 0,0 0,1 0,1 0,0 0,0 0,1l0 53 -18 0 0 -52c0,-3 -1,-5 -1,-7 -1,-2 -2,-3 -3,-5 -2,-1 -3,-2 -5,-2 -2,-1 -4,-1 -6,-1 -4,0 -7,1 -9,2 -3,2 -5,4 -6,7l0 58 -18 0 0 -80 17 0zm155 80l0 -108 38 0c5,0 11,0 15,2 5,1 9,3 12,5 3,2 6,5 8,9 1,4 2,8 2,13 0,5 -1,10 -4,14 -2,4 -6,7 -12,9 4,1 6,2 9,4 2,1 4,3 5,5 2,2 3,5 4,8 0,2 1,5 1,8 0,5 -1,10 -3,13 -1,4 -4,8 -7,10 -3,3 -7,5 -12,6 -5,2 -10,2 -16,2l-40 0zm19 -49l0 34 21 0c3,0 6,0 8,-1 3,-1 5,-2 6,-3 2,-2 3,-3 4,-5 1,-3 1,-5 1,-7 0,-6 -1,-10 -4,-13 -3,-3 -8,-5 -14,-5l-22 0zm0 -13l19 0c6,0 10,-2 13,-4 4,-3 5,-7 5,-12 0,-5 -1,-9 -4,-11 -3,-3 -8,-4 -14,-4l-19 0 0 31zm73 21c0,-6 0,-11 2,-16 2,-5 4,-9 8,-13 3,-4 7,-7 11,-9 5,-2 10,-3 16,-3 6,0 11,1 16,3 5,2 9,5 12,9 3,4 5,8 7,13 2,5 3,10 3,16l0 2c0,6 -1,11 -3,16 -2,5 -4,10 -7,13 -3,4 -7,7 -12,9 -5,2 -10,3 -16,3 -6,0 -11,-1 -16,-3 -4,-2 -8,-5 -11,-9 -4,-3 -6,-8 -8,-13 -2,-5 -2,-10 -2,-16l0 -2zm18 2c0,4 0,7 1,10 1,3 2,6 3,9 2,2 4,4 6,5 3,2 6,2 9,2 4,0 6,0 9,-2 2,-1 4,-3 6,-5 1,-3 3,-6 3,-9 1,-3 2,-6 2,-10l0 -2c0,-3 -1,-7 -2,-10 0,-3 -2,-6 -3,-8 -2,-3 -4,-5 -6,-6 -3,-2 -6,-2 -9,-2 -3,0 -6,0 -9,2 -2,1 -4,3 -6,6 -1,2 -2,5 -3,8 -1,3 -1,7 -1,10l0 2zm89 -41l0 9c3,-3 7,-6 11,-8 4,-2 8,-3 13,-3 4,0 7,1 10,2 4,1 6,3 8,5 3,2 4,6 6,9 1,4 1,9 1,14l0 52 -18 0 0 -52c0,-3 0,-5 -1,-7 0,-2 -1,-3 -2,-5 -2,-1 -3,-2 -5,-2 -2,-1 -4,-1 -6,-1 -4,0 -7,1 -10,3 -2,2 -5,4 -6,7l0 57 -18 0 0 -80 17 0zm117 73c-3,3 -6,5 -10,6 -3,2 -8,3 -13,3 -4,0 -7,-1 -11,-2 -3,-1 -6,-3 -8,-5 -2,-2 -4,-6 -6,-9 -1,-4 -1,-9 -1,-14l0 -52 18 0 0 52c0,3 0,5 1,7 0,2 1,4 2,5 2,1 3,2 5,2 1,1 3,1 4,1 5,0 9,-1 12,-2 3,-2 5,-4 6,-7l0 -58 18 0 0 80 -17 0 0 -7zm81 -14c0,-2 0,-3 -1,-4 0,-1 -1,-2 -2,-3 -1,-1 -3,-2 -5,-3 -3,-1 -6,-2 -9,-2 -4,-1 -8,-2 -12,-4 -4,-1 -7,-3 -9,-5 -3,-2 -5,-4 -6,-6 -1,-3 -2,-6 -2,-9 0,-4 1,-7 2,-10 1,-3 3,-5 6,-7 3,-3 6,-4 10,-6 4,-1 8,-2 13,-2 5,0 10,1 14,2 4,2 7,3 10,6 3,2 5,5 6,8 2,3 2,6 2,10l-18 0c0,-2 0,-3 -1,-5 0,-1 -1,-2 -2,-3 -2,-2 -3,-3 -5,-3 -2,-1 -4,-1 -6,-1 -2,0 -4,0 -6,1 -2,0 -3,1 -4,2 -1,1 -2,2 -3,3 0,1 0,3 0,4 0,1 0,2 0,4 1,1 2,2 3,2 1,1 3,2 5,3 2,0 5,1 8,2 5,1 9,2 13,3 3,2 6,3 9,5 3,2 5,4 6,7 1,3 2,6 2,10 0,3 -1,6 -2,9 -2,3 -4,6 -7,8 -3,2 -6,4 -10,5 -4,1 -9,2 -14,2 -5,0 -10,-1 -14,-2 -5,-2 -8,-4 -11,-7 -3,-2 -5,-5 -7,-8 -1,-3 -2,-7 -2,-10l18 0c0,2 0,5 1,6 1,2 3,3 4,4 2,1 4,2 5,3 2,0 4,0 6,0 5,0 9,-1 11,-2 3,-2 4,-5 4,-7z"/>
  <ellipse class="fil14" cx="757" cy="1839" rx="26" ry="25"/>
 </g>
</svg>
