<?xml version="1.0" encoding="utf-8"?>
<!-- Generator: Adobe Illustrator 21.0.0, SVG Export Plug-In . SVG Version: 6.00 Build 0)  -->
<svg version="1.1" id="Layer_1" xmlns="http://www.w3.org/2000/svg" xmlns:xlink="http://www.w3.org/1999/xlink" x="0px" y="0px"
	 viewBox="0 0 158.5 90.6" style="enable-background:new 0 0 158.5 90.6;" xml:space="preserve">
<style type="text/css">
	.st0{fill:none;}
	.st1{fill:#1E1D44;}
	.st2{fill:#FCFCFC;}
	.st3{fill:#FEFEFC;}
	.st4{fill:#FDFDFB;}
	.st5{fill:#FEFEFE;}
</style>
<g id="Layer_x0020_1">
	<rect x="0" y="0" class="st0" width="158.5" height="90.6"/>
	<g id="_868171296">
		<path class="st1" d="M14.1,64c-0.3-0.1-0.6-0.3-0.9-0.4c0.2-0.6,1.4-2.2,1.8-2.7c0.7-0.9,1.3-1.6,2.2-2.3c1.1-0.9,4.1-2.7,6.1-2.9
			c-0.4,0.2-1,0.5-1.4,0.7c-1.5,0.9-2.6,1.5-3.9,2.7l-1.2,1.1C16.1,61,14.6,62.9,14.1,64L14.1,64z M15.9,58.3c0.1-0.4,0.3-1,0.4-1.4
			c0.3-1.4,0.5-3.2,1.3-4.1c0.3-0.3,0.7-0.5,1.3-0.5c0.4,0,0.4,0.1,0.5,0.4l0.9,1.8c0.3,0.6,0.2,0.7,0.9,0.9
			C19.5,56.2,17.3,57,15.9,58.3L15.9,58.3z M15.8,64.6l-0.6-0.2c0.3-0.6,1.5-2.3,1.9-2.8c1.2-1.5,2.4-2.7,4.2-3.9
			c2.3-1.6,6.2-3.2,9.8-3.1l0,0.3c-0.1,0.1-2.3,0.3-2.7,0.4c-2.4,0.5-4.7,1.5-6.6,2.8c-2.1,1.5-4,3.4-5.4,5.6
			C16.3,63.9,16.1,64.3,15.8,64.6L15.8,64.6z M9.8,43.9c0.1,0.7,0,1.9,0.2,2.5c0.4,1.5,1.5,4.3,2,6.2c0.3,1.4,0.6,3.2,0.6,4.8
			c0.1,2-0.1,3.1-0.6,4.8c-0.7-0.5-1.8-2.9-2.1-3.6c-1.2-3.1-1.5-6.6-1.1-10C8.9,47.6,9.4,44.4,9.8,43.9z M13.1,61.3
			c0.2-0.8,0.3-0.9,0.5-2.1c0.3-2.8-0.5-4.6,0.4-7.1c0.4-1.2,1.4-2.3,2.6-2.6c0.4-0.1,0.8-0.1,1.3,0c0.5,0.1,0.4,0.2,0.7,0.6
			c0.2,0.4,0.7,1.3,0.8,1.7c-1.4-0.2-2.2,0.5-2.7,1.2c-0.6,1-0.7,1.8-0.8,3.1C15.2,59.2,14.3,59.5,13.1,61.3L13.1,61.3z M28.3,53.5
			c-0.2-0.4-0.4-0.8-0.6-1.2c-0.5-1.2-1.3-1.7-0.7-2.5c0.1-0.2,0.6-0.8,0.9-0.8c0.2,1.9-0.1,0.9,0.6,2.5c0.2,0.5,0.9,1.6,1,2
			L28.3,53.5L28.3,53.5z M31.3,53.6c-0.8,0-0.8-0.5-1.5-1.6c-0.5-0.9-1-1.4-1-2.2c0-0.4-0.2-1.1,0-1.5c0.4-0.9,0.1-0.8,0.5-1.1
			l1.7-1.4c0.1-0.1-0.1,0,0.2-0.1C31.5,49.5,31.5,50.2,31.3,53.6z M17.7,45.9c-0.1,0.5-0.1,0.5,0,1c-0.4-0.2-0.8-0.6-1.2-0.8l-0.1-1
			L17.7,45.9z M18.6,47c-0.2-0.2-0.2-0.6-0.1-0.9c0.2-0.6,0.4-0.3,0.4-0.7c0-0.9-0.1-1.1,0.4-1.9c0.6-0.9,1.7-1.5,3.2-1.3
			c1.3,0.2,2.4,0.9,3.2,1.5c0.6,0.4,1.4,1.1,1.8,1.7c0.2,0.3,0.3,0.4,0.3,0.8c-0.2-0.2-0.9-0.8-1.1-1.1c-0.2,0.1-0.5,0.6-0.6,0.8
			c0.3,0.3,1,0.8,1.1,1.1c-0.9,0.3-1.2,0.3-1.9-0.2c-1.3-0.9-0.4-0.9-1.3-1.2c-1.2-0.4-2-0.5-3.3-0.2c-0.7,0.2-0.4,0-1,0l0.5,0.7
			c0.6,0,1-0.3,2-0.1c1.5,0.3,2.7,2,3.3,2.1c0.5,0.1,0.4-0.3,0.8-0.1c0.1,0.2,0,0.2,0,0.3c0,0.7,0.5,0,1,0.1
			c-0.1,0.3-0.4,0.6-0.6,0.8c-0.3,0.2-0.4,0.3-0.7,0.3l-0.2,0.1c0,0,0,0,0,0c-0.2,0.4,0,0.7,0.2,1.1c0.4,1.1,1,2.2,1.4,3.1
			c-0.9,0.1-1.8,0.4-2.6,0.6c-0.8,0.2-1.7,0.6-2.5,0.8c-0.1-0.4-0.5-1.4-0.4-1.7c0.1-0.2,0.7-0.9,0.9-1.3c-0.6,0.1-1.8,0.8-2.1,0.1
			c-0.4-0.9,0.2-0.8,0.4-0.9c0.1-0.1,0.2-0.2,0.2-0.3c-1-0.1-1,0.2-1.1-0.3c0.2,0,1.2,0,1.2-0.1c0,0,0,0,0,0c-0.1-0.2,0-0.1-0.3-0.2
			l-0.7-0.2c0,0-0.1,0-0.2,0c-0.2,0,0,0-0.1,0c0.1-0.2,0.4-0.5,0.7-0.6c-0.1-0.1,0,0-0.1-0.1c-0.3-0.2-0.6-0.2-1-0.2
			c0-0.5,0.5-1.9,0-1.8c0,0-0.1,0-0.1,0c-0.1,0-0.2,0.2-0.5,0.3c0-0.6-0.2-1.1,0.6-1.5l-0.1-0.6c-0.3,0.1-0.6,0.3-0.8,0.5
			C18.7,46.5,18.7,46.7,18.6,47L18.6,47z M29.1,41.2c0.2,0.3,0.9,1.6,1,2.1c-0.3,0.2-0.9,0.4-1.3,0.6c-1,0.4-0.9,0.5-1.3,0.3
			L29.1,41.2L29.1,41.2z M33.7,42.7l-4.9,3.8c-0.1-0.8-0.3-1-0.6-1.5L33.7,42.7z M22.4,33.6l0.9,7.9c-0.5-0.2-1.1-0.2-1.7-0.2
			L22.4,33.6z M13.8,38.1c0.1-0.1,0.3-0.4,0.6-0.4l3.1,5.6c0.8,1.5,0.7,0.8,0.7,2c-0.3-0.1-1.8-0.9-1.9-1L13.8,38.1L13.8,38.1z
			 M18.5,43.4L15.3,38l4.2,4.2c-0.1,0.2-0.4,0.3-0.6,0.6C18.8,42.9,18.7,43.2,18.5,43.4L18.5,43.4z M8,37.3c0.2-0.1,0.3-0.2,0.5-0.4
			c0.4-0.2,0.2-0.1,0.5-0.4c1.4,1.2,1,1.4,1.1,2.6c0,0.5,0.4,0.2,0.2,0.9c-0.3,0-0.6-0.3-1.1-0.3c-0.4,0-0.9,0.1-1,0.4
			c-0.1,0.3,0.3,0.4,0.4,0.4c0.2,0.1,0.1,0,0.2,0.1c-0.4,0-0.8-0.2-0.9-0.5c-0.2-0.5,0.1-0.7,0.4-0.9L8,37.3z M30.2,37.4l-3.4,6.2
			c-0.1-0.1-1.4-1.1-1.4-1.1L30.2,37.4L30.2,37.4z M26.7,39.9c-0.5,0.5-1.5,1.8-2,2.2l-0.6-0.3l-0.6-5.1c1.3,0.2,3.6,1.8,3.9,2.5
			C27.2,39.4,27,39.6,26.7,39.9z M15.5,37.1c0.5-0.4,1.8-0.7,2.6-0.8c1.1-0.2,2.1-0.2,3.2,0l-0.5,5.3l-0.5,0.2
			c-0.7-0.4-1.8-1.7-2.4-2.4c-0.4-0.4-0.8-0.8-1.2-1.2L15.5,37.1z M6.9,35c0.4-0.2,0.9-0.5,1.5-0.6c0,0.2,0.1,0.4-0.1,0.6L8,35.3
			c0.7,0,0.9-0.1,0.7,0.6L8.3,36v0.5c-1.1,0.7-0.5,0.2-1,0.9C7.2,37.2,7,37,7,36.6l0.5-0.4c0,0,0,0,0,0c0,0,0,0,0,0
			c-0.1,0-0.4,0-0.5,0c-0.2,0-0.2,0.1-0.3-0.2c-0.1-0.5,0.1-0.5,0.3-0.6L6.9,35L6.9,35z M11,45.9c-0.2-1.3-0.4-6.2-0.4-7.7l0.4-0.4
			c-0.3-0.1-0.4,0-0.7-0.3l-0.1-2.4c-0.8-0.1-1.4-0.3-1.1-1.1c0.4,0.1,0.6,0.2,1.1,0.3c0.4,0,0.6,0.2,0.9,0.4
			c0.5,0.2,0.4,0.3,0.6,0.8l3.4,8.9c0.3,0.8,0.4,1.2,0.5,2.2c0.1,0.9,0.5,1.3,0.7,2c-1,0.1-1.8,0.7-2.2,1.2
			c-0.7,0.9-0.7,1.5-1.1,2.3C12.7,51.4,11,46.2,11,45.9z M7.5,34c0-0.6,0.1-0.8,0.5-1c0.4-0.2,0.8-0.3,1.3-0.3c1,0,1.7,0.4,1.7,1.3
			c-0.3-0.1-0.4-0.3-0.7-0.5C9.2,33.2,8.2,33.4,7.5,34z M5.5,30.9c0.3,0,0.6,0.2,0.9,0c0.2-0.1,0.3-0.4,0.4-0.6
			c0.4-0.4,1,0.3,1.7-0.1c0.7-0.5,0.5-0.6,1.3,0c0.6,0.4,0.8-0.2,1.6,0c0.1,0.2,0.2,0.7,0.3,0.8c0.2,0.2,0.6,0,0.9,0
			c-0.2,1.2,0.5,1.2,0.3,2.5c-0.3-0.7-0.4-1.2-1.7-1.7c-0.8-0.3-1.9-0.4-2.9-0.3c-0.9,0.1-1.9,0.5-2.3,1c-0.9,1.3,0.3,2,0.4,2.2
			c-0.2,0.1-0.7-0.4-0.8-0.5c-0.2-0.3-0.4-0.6-0.4-1C5.2,32.1,5.9,32,5.5,30.9L5.5,30.9z M11.3,29.4c-0.9-0.5-0.7,0.3-1.3,0
			c-0.4-0.2-0.5-0.7-1.2-0.5c-0.5,0.2-0.6,0.8-1.2,0.2c-0.3-0.3-0.4-0.8-0.3-1.4c0.3-2,2.7-1.1,4-1.3C12,26.3,12,26,11.8,27
			c0.5,0.1,1,0.3,1.6,0.2c0.7-0.1,0.9-0.5,1.2-0.6C14.7,28.6,12,28,11.3,29.4L11.3,29.4z M1.6,66.5h155.3V24.1H1.6V66.5z"/>
		<path class="st2" d="M20.6,47.4V47c0.5-0.2,0.9-0.5,1.6-0.4c0.6,0.1,1,0.4,1.4,0.7c-0.1,0.3-0.1,0.2-0.4,0.3c-1,0.2-0.6-0.3-1.7,0
			c0,0.3,0.1,0.1,0,0.3L21.2,48c-0.1-0.2-0.1-0.2-0.3-0.3C20.5,47.4,20.7,47.6,20.6,47.4z M24.1,43.5c0.2,0.1,1.7,0.9,1.9,1.2
			c-0.2,0.3-0.4,0.6-0.6,0.8c-0.6-0.4-1.6-0.8-1.8-0.9L24.1,43.5L24.1,43.5z M19.3,45.1c-0.1-0.6,0.3-1.2,0.6-1.5l0.4,0.9
			c-0.2,0.2-0.4,0.2-0.5,0.4C19.4,45.2,19.6,45.2,19.3,45.1z M20.6,43.2c1.1-0.5,1.6-0.3,2.7,0l-0.2,1.1c-0.1,0.1-0.3,0-0.5,0
			c-0.2,0-0.4,0-0.6,0c-0.4,0-0.8,0.1-1.1,0.1C20.8,44,20.6,43.6,20.6,43.2L20.6,43.2z M18.6,47c0.2-0.3,0.1-0.5,0.4-0.8
			c0.2-0.2,0.5-0.4,0.8-0.5l0.1,0.6c-0.8,0.4-0.6,1-0.6,1.5c0.3-0.1,0.4-0.2,0.5-0.3c0,0,0.1,0,0.1,0c0.5-0.1,0,1.3,0,1.8
			c0.3-0.1,0.7,0,1,0.2c0.1,0.1,0,0,0.1,0.1c-0.2,0.1-0.6,0.4-0.7,0.6c0.1,0.1,0,0,0.1,0c0,0,0.1,0,0.2,0l0.7,0.2
			c0.3,0.1,0.2,0,0.3,0.2c0,0,0,0,0,0c0,0.1-1,0-1.2,0.1c0,0.5,0.1,0.2,1.1,0.3c-0.1,0.2-0.1,0.3-0.2,0.3c-0.2,0.1-0.8-0.1-0.4,0.9
			c0.3,0.8,1.5,0.1,2.1-0.1c-0.2,0.4-0.8,1.1-0.9,1.3c-0.2,0.3,0.3,1.3,0.4,1.7c0.7-0.2,1.6-0.6,2.5-0.8c0.8-0.2,1.7-0.5,2.6-0.6
			c-0.4-0.9-1-2-1.4-3.1c-0.2-0.4-0.4-0.7-0.2-1.1c0,0,0,0,0,0l0.2-0.1c0.3-0.1,0.5-0.1,0.7-0.3c0.2-0.2,0.5-0.5,0.6-0.8
			c-0.5-0.1-1,0.6-1-0.1c0-0.2,0.1-0.1,0-0.3c-0.4-0.2-0.3,0.2-0.8,0.1c-0.6-0.1-1.8-1.8-3.3-2.1c-1-0.2-1.4,0.2-2,0.1l-0.5-0.7
			c0.5,0,0.3,0.2,1,0c1.3-0.3,2.1-0.1,3.3,0.2c0.9,0.3-0.1,0.3,1.3,1.2c0.7,0.5,1.1,0.6,1.9,0.2c-0.1-0.3-0.9-0.8-1.1-1.1
			c0.1-0.1,0.4-0.6,0.6-0.8c0.3,0.3,0.9,0.9,1.1,1.1c0-0.4-0.1-0.6-0.3-0.8c-0.4-0.6-1.3-1.3-1.8-1.7c-0.8-0.6-1.9-1.3-3.2-1.5
			c-1.5-0.2-2.7,0.4-3.2,1.3c-0.5,0.7-0.4,0.9-0.4,1.9c0,0.4-0.2,0.2-0.4,0.7C18.3,46.5,18.4,46.8,18.6,47L18.6,47z"/>
		<path class="st2" d="M10.1,35.2l0.1,2.4c0.3,0.2,0.5,0.1,0.7,0.3l-0.4,0.4c0.1,1.5,0.3,6.4,0.4,7.7c0,0.3,1.7,5.5,2,6.2
			c0.4-0.8,0.4-1.4,1.1-2.3c0.4-0.5,1.2-1.2,2.2-1.2c-0.2-0.7-0.6-1.1-0.7-2c-0.1-1-0.2-1.4-0.5-2.2l-3.4-8.9
			c-0.2-0.5-0.1-0.6-0.6-0.8c-0.4-0.2-0.5-0.4-0.9-0.4c-0.5-0.1-0.7-0.2-1.1-0.3C8.7,34.9,9.3,35.1,10.1,35.2z"/>
		<path class="st2" d="M9.8,43.9c-0.4,0.6-0.9,3.7-1,4.7c-0.3,3.3,0,6.9,1.1,10c0.3,0.7,1.4,3.1,2.1,3.6c0.5-1.7,0.7-2.8,0.6-4.8
			c-0.1-1.5-0.3-3.3-0.6-4.8c-0.5-1.9-1.6-4.6-2-6.2C9.8,45.8,9.9,44.6,9.8,43.9z"/>
		<path class="st2" d="M70.6,42.1l1.1,0c0,0.9,0,1.9,0,2.8c0,0.9-0.1,1.8,0.4,2.5c0.5,0.8,2.1,1,3.1,0.3c0.2-0.1,0.6-0.5,0.5-0.8
			c-0.3-0.1-0.7,0.8-1.6,0.3c-0.5-0.2-0.6-0.9-0.6-1.6v-3.5c2.7,0,2.6-0.3,3.6,2c0.4,0.9,0.9,1.9,1.3,2.8c0.2,0.3,0.6,1,0.5,1.4
			c-0.1,0.4-0.4,1-0.6,1.4c-0.5,0.9-1.2,1.6-2.7,1.2l-0.4,1.9c1.7,0.2,2.4-0.6,3-1.6c0.7-1.3,2.2-4.9,2.9-6.5
			c0.2-0.5,0.5-1.1,0.7-1.6c0.2-0.3,0.3-0.5,0.5-0.7c0.1-0.1,0.2-0.1,0.4-0.2c0.3-0.1,0.3,0,0.3-0.4h-2.6c0,0.4,0,0.2,0.4,0.4
			c0.6,0.3,0.3,1.2,0.1,1.7c-0.3,0.7-0.6,1.5-0.9,2.1c-0.2-0.2-1.7-3.3-1.5-3.6c0.4-0.3,0.5-0.1,0.6-0.5c-0.1-0.1,0-0.1-0.2-0.1
			h-5.2l0-2.4c-0.3,0-0.3,0-0.5,0.2c-0.1,0.2-0.2,0.3-0.3,0.4c-0.6,0.6-1.2,1.3-1.9,1.8C70.6,41.8,70.5,41.8,70.6,42.1L70.6,42.1z"
			/>
		<path class="st2" d="M54.5,45.6c-0.2,1.3-0.9,2.1-2.3,2c-0.8,0-0.9-0.5-0.9-1.2c0-0.7,0-1.5,0-2.2c0-1.1-0.2-1.2,0.5-1.6
			C53.3,41.5,55,43.1,54.5,45.6L54.5,45.6z M48.5,37.8c0,0.5,0.3,0.1,0.7,0.6c0.3,0.3,0.2,0.8,0.2,1.2v8.3c3.1,0.5,6.7,0.5,7.1-2.6
			c0.4-3-2.4-4.7-4.6-3.3c-0.3,0.2-0.4,0.4-0.7,0.6l0-4.9C50.8,37.5,48.8,37.6,48.5,37.8L48.5,37.8z"/>
		<path class="st2" d="M101,45.2c-0.4-2.5,1.1-4.3,2.9-3c0.7,0.5,0.5,0.8,0.5,1.8c0,1.8,0.3,3.4-1.1,3.4
			C102,47.4,101.2,46.4,101,45.2L101,45.2z M102.9,37.7l0,0.2l0.2,0.1c0.6,0.1,1.3,0,1.3,1.2c0,0.9,0,1.9,0,2.8
			c-0.3-0.1-0.6-0.3-0.9-0.4c-3.1-1-5.3,1.5-4.4,4.1c0.4,1.3,1.6,1.9,3.2,2.1c1.6,0.1,3.6,0,5.2,0c0-0.6-0.1-0.1-0.8-0.5
			c-0.3-0.2-0.4-0.6-0.4-1.1c-0.1-2.7,0-5.9,0-8.6L102.9,37.7L102.9,37.7z"/>
		<polygon class="st3" points="79.3,51.2 79.6,51.2 149.9,51.2 149.9,50.7 79.3,50.7 		"/>
		<path class="st2" d="M139.4,41.6c0,0.4,0.2,0.2,0.6,0.4c0.3,0.1,0.4,0.2,0.5,0.5c0.1,0.3,0.1,3.7,0,4.1c-0.1,1-1,0.5-0.9,1.1h3.7
			c0-0.7-0.7-0.2-0.9-1c-0.1-0.4,0-1.4,0-1.9c0-0.6-0.1-1.4,0.2-1.7c0.2-0.3,0.6-0.7,1.2-0.8c1.5-0.2,1.3,1.3,1.3,2.5
			c0,1,0.2,2-0.4,2.4c-0.4,0.2-0.6,0-0.5,0.5h3.8c0-0.6-0.5-0.2-0.8-0.8c-0.4-0.7,0.2-3.5-0.4-4.6c-0.8-1.3-2.7-1.4-3.8-0.1
			c-0.1,0.1-0.1,0.2-0.2,0.3l-0.2,0.3l0-1.4C142.1,41.3,139.7,41.5,139.4,41.6L139.4,41.6z"/>
		<path class="st2" d="M85.2,38.2c0,0.4,0.1,0.2,0.5,0.4c0.9,0.4,1.7,3.1,2.2,4.2c0.4,1.1,1.7,4.4,2.1,5.2c0.5,0,0.4-0.2,0.8-1.2
			l2.5-6.6c0.2-0.6,0.5-1.3,1.1-1.6c0.4-0.2,0.5,0,0.5-0.5l-3,0c-0.2,0-0.1,0-0.2,0.1c0.1,0.4,0.2,0.1,0.7,0.4
			c0.3,0.2,0.3,0.5,0.3,0.8c0,0.5-0.4,1.3-0.6,1.7l-1.3,3.4c-0.1-0.5-0.4-1.2-0.6-1.7l-1.3-3.4c-0.1-0.3-0.2-0.7,0.1-0.9
			c0.4-0.4,0.7,0,0.6-0.5C88.9,38.2,85.5,38.1,85.2,38.2z"/>
		<path class="st2" d="M13.1,61.3c1.2-1.7,2.1-2.1,2.6-5.3c0.2-1.3,0.2-2.2,0.8-3.1c0.5-0.8,1.3-1.4,2.7-1.2
			c-0.1-0.3-0.6-1.3-0.8-1.7c-0.2-0.4-0.2-0.5-0.7-0.6c-0.4-0.1-0.9-0.1-1.3,0c-1.2,0.3-2.2,1.4-2.6,2.6c-0.9,2.5,0,4.4-0.4,7.1
			C13.4,60.4,13.2,60.5,13.1,61.3L13.1,61.3z"/>
		<path class="st2" d="M37.8,40v5.9c0,2.1-1.1,1.1-1.2,1.8c0.1,0.1,0.1,0.1,0.3,0.1h7l0.2-2.3c0-0.2,0-0.1-0.1-0.2
			c-0.5,0-0.1,0.2-0.8,1c-0.7,0.9-1.5,1.1-2.7,0.9c-0.6-0.1-0.7-0.4-0.7-1.1v-6.2c0-0.7,0.2-1.1,0.8-1.3c0.4-0.1,0.4,0,0.4-0.4
			l-4.5,0c0,0.6,0.2,0.1,0.9,0.6C37.8,39.1,37.8,39.5,37.8,40L37.8,40z"/>
		<path class="st2" d="M134.9,41.9c2.8-0.8,2.9,5.1,0.9,5.7C133.1,48.4,132.7,42.5,134.9,41.9z M134.6,41.4
			c-4.8,0.6-4.1,7.2,1.3,6.6c1.9-0.2,3.6-1.7,3.2-4C138.8,42.2,136.9,41.1,134.6,41.4L134.6,41.4z"/>
		<path class="st2" d="M120.9,45.3c-0.1,1.3-0.8,2.7-2.3,2.2c-1.1-0.4-1.4-2-1.3-3.4c0.1-1.3,0.8-2.8,2.3-2.2
			C120.8,42.3,121.1,43.9,120.9,45.3L120.9,45.3z M118.5,41.4c-4.8,0.6-4.1,7.3,1.3,6.6C124.6,47.4,123.9,40.7,118.5,41.4z"/>
		<path class="st2" d="M109.7,43.8c0.1-2.8,2.5-2.5,2.7,0H109.7z M114.4,45.9c-0.4,0-0.3,0.1-0.7,0.5c-1.2,1.4-4.1,1.2-4-2.2l4.7,0
			c-0.5-4-6.3-3.5-6.7,0.2c-0.2,1.9,1,3.3,2.6,3.6C112.3,48.3,114,47.2,114.4,45.9L114.4,45.9z"/>
		<path class="st2" d="M59.4,43.8c0.1-2.7,2.5-2.6,2.7,0H59.4z M64,45.9c-0.6,0-0.4,0.6-1.3,1c-2.1,1.2-3.7-1.1-3.4-2.8l4.7,0
			c-0.5-3.9-6.3-3.6-6.7,0.2C56.9,48.6,62.8,49.3,64,45.9L64,45.9z"/>
		<polygon class="st3" points="36.7,51.2 36.8,51.2 74,51.2 74,50.7 73.8,50.7 37,50.7 36.7,50.7 		"/>
		<path class="st2" d="M64.2,41.8c0.1,0.4,0.2,0,0.7,0.4c0.2,0.1,0.3,0.3,0.4,0.6c0.1,0.3,0.1,3.7,0,4c-0.1,0.6-0.5,0.6-0.8,0.7
			c-0.3,0.1-0.2,0-0.2,0.3c0.7,0,3.5,0.1,3.9,0c0-0.6-1,0-1-1.2c0-0.7,0-1.6,0-2.3c0-0.6,0.5-1.1,1.1-1.2c0.8-0.1,1.3,0.5,1.6,0.8
			c0.1-0.4,0.5-1.6,0.4-1.9c-0.2-0.4-1.6-1-2.6,0.6c-0.2,0.3-0.3,0.6-0.5,0.9l0-1.9c-0.5,0-1,0.1-1.5,0.1l-1.3,0.1
			C64.2,41.7,64.3,41.6,64.2,41.8L64.2,41.8z"/>
		<path class="st2" d="M130.7,46.1c-0.5,0-0.4,0.1-0.7,0.4c-1.4,1.4-4.2,1.1-4.1-2.2c0.1-2.8,2.4-3,3.5-1.9c0.6,0.6,0.6,1.2,1,1.2
			c0,0,0-0.1,0-0.1c0,0,0,0,0-0.1c0,0,0,0,0-0.1l-0.2-2.1c-0.5,0-0.3,0.3-1.2,0.2c-0.4-0.1-0.8-0.1-1.2-0.1c-5-0.3-5.5,6.4-0.9,6.7
			c1.1,0.1,2.4-0.3,3.1-1C130.3,46.8,130.6,46.4,130.7,46.1L130.7,46.1z"/>
		<path class="st4" d="M40.5,58.3c0.3,0.6,0.7-0.3,0.7,1.6c0,0.8-0.5,1-1.4,0.8c-1.3-0.2-1.7-1.5-1.7-2.9c0-4.1,3.2-3.5,4.1-1.8
			c0.1,0.3,0,0.2,0.3,0.3c0.1-0.2,0.1-1.4,0-1.8c-0.4,0-0.3,0.3-0.9,0.2c-0.3-0.1-0.6-0.2-1-0.3c-4.1-0.7-5.5,4.9-2.2,6.4
			c1.1,0.5,3,0.4,4.1-0.1c0.1-0.5,0-1,0-1.5c0.1-1,0.5-0.5,0.6-1L40.5,58.3L40.5,58.3z"/>
		<path class="st2" d="M11.3,29.4c0.7-1.4,3.4-0.8,3.3-2.8c-0.3,0.1-0.4,0.4-1.2,0.6c-0.6,0.1-1.1-0.1-1.6-0.2
			c0.2-1,0.2-0.7-0.6-0.6c-1.3,0.2-3.7-0.6-4,1.3c-0.1,0.5,0.1,1.1,0.3,1.4c0.5,0.6,0.7,0,1.2-0.2c0.7-0.2,0.9,0.3,1.2,0.5
			C10.6,29.7,10.4,28.9,11.3,29.4L11.3,29.4z"/>
		<path class="st2" d="M31.3,53.6c0.2-3.4,0.2-4.2-0.3-7.8c-0.3,0.1,0,0-0.2,0.1l-1.7,1.4c-0.4,0.3-0.1,0.1-0.5,1.1
			c-0.2,0.4,0,1,0,1.5c0.1,0.8,0.5,1.3,1,2.2C30.4,53.2,30.5,53.7,31.3,53.6z"/>
		<path class="st2" d="M15.9,58.3c1.4-1.3,3.6-2.1,5.3-2.9c-0.7-0.2-0.6-0.3-0.9-0.9l-0.9-1.8c-0.1-0.3-0.1-0.4-0.5-0.4
			c-0.6,0-1,0.3-1.3,0.5c-0.8,0.8-1,2.6-1.3,4.1C16.2,57.4,16,57.9,15.9,58.3L15.9,58.3z"/>
		<path class="st2" d="M44.3,41.7c0,0.6,0.9,0.1,1.1,0.9c0.1,0.3,0.1,3.6,0,4c-0.1,1.1-0.9,0.5-1,1.1c0.2,0.2,2.9,0.1,3.4,0.1
			l0.5-0.1c0-0.3,0.1-0.1-0.2-0.3c-0.1-0.1-0.2,0-0.3-0.1c-0.7-0.4-0.5-1.3-0.5-2.3c0-1.2,0-2.5,0-3.7
			C46.8,41.4,44.5,41.5,44.3,41.7L44.3,41.7z"/>
		<path class="st2" d="M94.7,41.6c0,0.5,0,0.2,0.6,0.4c0.8,0.3,0.5,1.4,0.5,2.6c0,0.6,0.1,1.5,0,2c-0.2,1-1,0.4-1,1.1l3.9,0
			c0-0.7-0.6,0-0.9-0.9c-0.1-0.4-0.1-4.9-0.1-5.5L94.7,41.6L94.7,41.6z"/>
		<path class="st2" d="M50.2,57.9c0.1-0.2,0.4-0.5,0.8-0.5c1-0.1,0.9,0.9,0.9,1.7c0,0.3,0,1,0,1.2c-0.1,0.6-0.5,0.3-0.6,0.6
			c0.2,0.1,2.4,0.1,2.5,0c-0.1-0.3-0.4-0.1-0.6-0.5c-0.2-0.5,0.2-2.3-0.3-3.1c-0.3-0.4-0.9-0.8-1.6-0.6c-0.6,0.1-0.9,0.6-1.2,0.9
			l0-1l-2,0.2c0,0.4,0.6,0,0.7,0.7l0,2.7c-0.1,0.5-0.5,0.3-0.6,0.7c0.2,0.1,2,0.1,2.4,0c0,0,0,0,0,0c0,0,0,0,0,0
			c-0.1-0.2,0.1,0-0.2-0.2c-0.6-0.3-0.4-0.4-0.4-1.8C50.1,58.6,50,58.2,50.2,57.9L50.2,57.9z"/>
		<path class="st4" d="M77.3,57c0.1,0.4,0.6,0,0.7,0.6l0,2.6c-0.1,0.6-0.5,0.4-0.6,0.7c0.2,0.1,0.9,0.1,1.2,0.1l1.1,0
			c0.1,0,0.1,0,0.2-0.1c-0.1-0.1,0-0.1-0.2-0.2c-0.1,0-0.1,0-0.2-0.1c-0.4-0.3-0.2-1.1-0.2-1.7c0-0.4-0.1-0.8,0.2-1.1
			c0.2-0.2,0.4-0.4,0.8-0.5c0.9,0,0.8,0.9,0.8,1.7c0,0.7,0.1,1.4-0.3,1.6c-0.3,0.2-0.3,0-0.4,0.3c0.5,0,2.3,0.1,2.5-0.1
			c-0.1-0.3-0.4-0.1-0.6-0.5c-0.2-0.5,0.2-2.2-0.3-3c-0.2-0.4-0.8-0.8-1.5-0.7c-0.7,0.1-0.9,0.6-1.3,0.9l0-0.9
			c-0.2,0-1.6,0.1-1.9,0.1C77.4,57,77.3,57,77.3,57C77.3,57,77.3,57,77.3,57z"/>
		<path class="st4" d="M104.7,58.6c0,0.6,0.1,1.8-0.2,2.1c-0.3,0.3-0.4,0-0.5,0.4c0.5,0,2.3,0.1,2.5-0.1c-0.1-0.3-0.5-0.1-0.6-0.5
			c-0.2-0.6,0.2-2.3-0.3-3c-0.2-0.4-0.8-0.8-1.6-0.6c-0.7,0.1-0.8,0.6-1.2,0.9l0-0.9L101,57c0,0,0,0-0.1,0c0.2,0.2-0.2,0,0.3,0.2
			c0.1,0,0.2,0,0.3,0.1c0.3,0.3,0.2,2,0.2,2.6c0,0.7-0.1,0.7-0.4,0.9c-0.2,0.1-0.1,0-0.2,0.2c0.2,0.1,0.3,0.1,0.6,0.1h1.9
			c0-0.3,0.1-0.1-0.2-0.3c-0.1-0.1-0.2-0.1-0.3-0.2c-0.2-0.3-0.1-1.7-0.1-2.2C102.9,57.5,104.7,56.7,104.7,58.6L104.7,58.6z"/>
		<path class="st2" d="M91.5,56.8c-0.4,0-1.6,0-1.9,0.2c0.1,0.2,0,0.1,0.2,0.2c0.7,0.4,0.5,0.6,0.5,2.4c0,0.3-0.1,0.4-0.3,0.6
			c-0.7,0.7-1.4,0.3-1.5-0.1c-0.1-0.5,0-2.5,0-3.2c-0.3,0-1.7,0.1-1.9,0.2c0.1,0.2-0.2,0,0.3,0.2c0.7,0.3,0,2.5,0.5,3.4
			c0.4,0.7,1.6,1,2.6-0.1l0.3-0.3l0,1l1.8-0.2c0-0.3,0-0.2-0.3-0.3c-0.2-0.1-0.2-0.2-0.3-0.3C91.5,60.1,91.5,57.2,91.5,56.8z"/>
		<path class="st2" d="M24.1,41.8l0.6,0.3c0.5-0.4,1.5-1.7,2-2.2c0.3-0.3,0.4-0.5,0.7-0.8c-0.4-0.7-2.7-2.2-3.9-2.5L24.1,41.8z"/>
		<path class="st4" d="M5.5,30.9c0.4,1-0.3,1.2-0.3,2.2c0,0.4,0.1,0.7,0.4,1c0.1,0.1,0.6,0.6,0.8,0.5c-0.1-0.1-1.3-0.9-0.4-2.2
			c0.4-0.5,1.3-0.9,2.3-1c1-0.1,2.1,0,2.9,0.3c1.3,0.5,1.3,1,1.7,1.7c0.3-1.3-0.5-1.4-0.3-2.5c-0.3,0-0.7,0.2-0.9,0
			c-0.2-0.1-0.2-0.6-0.3-0.8c-0.7-0.2-1,0.4-1.6,0c-0.8-0.5-0.6-0.5-1.3,0c-0.6,0.4-1.2-0.3-1.7,0.1c-0.2,0.2-0.2,0.5-0.4,0.6
			C6.1,31.1,5.8,30.9,5.5,30.9L5.5,30.9z"/>
		<path class="st4" d="M65.4,58.8c0,0.4,0.1,1.4-0.1,1.6c-0.2,0.3-0.8,0.5-1.1,0.2C63.6,59.8,64.5,59,65.4,58.8z M63.1,58.2
			c0.2-0.1,0.1-0.1,0.3-0.3c0.6-0.6,2.2-0.6,2,0.7c-1,0.3-2.7,0.5-2.6,1.7c0,0.6,0.6,1,1.1,1c0.9,0.1,1.2-0.4,1.5-0.6
			c0.1,0.4,0.6,0.6,1.1,0.6c0.3,0,0.7-0.2,0.8-0.5c0.1-0.4,0-0.2,0-0.3c-0.3,0.2,0,0.4-0.5,0.4c-0.6-0.9,0.5-3-0.9-3.8
			c-1.3-0.8-2.8,0.2-2.9,1C63,58.2,63,58,63.1,58.2L63.1,58.2z"/>
		<path class="st4" d="M74,54.7c0.1,0.4,0.8-0.1,0.8,1.1v3.9c0,0.6,0,0.8-0.5,1C74,60.9,74,60.8,74,61l1.5,0.1
			c0.4,0,1.2,0.1,1.5-0.1c-0.2-0.4-0.8,0.1-0.8-1.1v-3.9c0-0.3,0-0.6,0.2-0.8c0.3-0.2,0.5-0.1,0.6-0.4C76.8,54.6,74.2,54.6,74,54.7
			L74,54.7z"/>
		<path class="st4" d="M99,58.8c0,0.4,0.1,1.3-0.1,1.6c-0.2,0.2-0.8,0.5-1.1,0.2C97.3,60.1,97.8,59,99,58.8L99,58.8z M96.6,58.2
			c0.4-0.1,0.4-0.7,1.4-0.7c0.7,0,1,0.4,1,1.1c-0.9,0.3-2.6,0.5-2.6,1.6c0,1.3,1.8,1.4,2.6,0.5c0.3,0.2,0.3,0.6,1.2,0.5
			c0.3,0,0.7-0.2,0.8-0.5c0.1-0.3,0-0.2,0-0.3c-0.3,0.2,0,0.4-0.5,0.4c-0.6-0.7,0.5-2.9-0.9-3.7C98.3,56.4,96.7,57,96.6,58.2
			L96.6,58.2z"/>
		<path class="st4" d="M15.8,64.6c0.2-0.3,0.4-0.6,0.6-1c1.4-2.2,3.2-4.1,5.4-5.6c1.9-1.3,4.3-2.3,6.6-2.8c0.4-0.1,2.6-0.3,2.7-0.4
			l0-0.3c-3.7-0.1-7.5,1.5-9.8,3.1c-1.7,1.2-3,2.4-4.2,3.9c-0.4,0.6-1.7,2.3-1.9,2.8L15.8,64.6L15.8,64.6z"/>
		<path class="st4" d="M14.1,64c0.5-1.1,2-3,2.8-3.8l1.2-1.1c1.3-1.2,2.4-1.9,3.9-2.7c0.4-0.2,1-0.5,1.4-0.7c-1.9,0.2-4.9,2-6.1,2.9
			c-0.9,0.7-1.5,1.4-2.2,2.3c-0.4,0.5-1.6,2.1-1.8,2.7C13.5,63.7,13.8,63.9,14.1,64L14.1,64z"/>
		<path class="st2" d="M13.8,38.1l2.4,6.2c0.1,0.1,1.7,0.9,1.9,1c0-1.2,0.1-0.5-0.7-2l-3.1-5.6C14.1,37.8,13.9,38,13.8,38.1
			L13.8,38.1z"/>
		<path class="st4" d="M67.6,61c0.1,0.1,2.6,0.1,2.7,0c-0.1-0.2,0-0.1-0.3-0.2c-0.4-0.1-0.4-0.3-0.4-0.9v-5.7c-0.5,0-1.6,0-2,0.2
			c0.4,0.5,0.8-0.1,0.8,1.1v4.5C68.3,61,67.7,60.6,67.6,61z"/>
		<path class="st4" d="M55.3,58.4c0.1-1.8,1.7-1.7,1.8,0H55.3z M58.4,59.8c-0.3,0-0.2,0.1-0.5,0.3c-0.1,0.1-0.2,0.2-0.4,0.3
			c-1.2,0.7-2.5-0.5-2.2-1.9h3.1c-0.3-2.7-4.3-2.3-4.4,0.2C53.8,61.5,57.4,62.1,58.4,59.8L58.4,59.8z"/>
		<path class="st4" d="M44.8,58.4c0.1-1.8,1.6-1.7,1.8,0H44.8z M47.9,59.8c-0.4,0.1-0.9,1.3-2.1,0.8c-0.6-0.2-1.2-1.1-1-2h3.1
			c-0.3-2.6-4.2-2.4-4.4,0.2C43.2,61.7,47.3,61.9,47.9,59.8L47.9,59.8z"/>
		<path class="st4" d="M112.8,58.4c0.1-1.8,1.7-1.7,1.8,0H112.8z M115.9,59.8c-0.4,0.1-0.8,1.2-2,0.8c-0.7-0.2-1.1-1-1.1-2h3.1
			c-0.3-2.6-4.2-2.4-4.4,0.2C111.3,61.8,115.4,61.8,115.9,59.8z"/>
		<path class="st4" d="M58.5,61c0.2,0.2,1.5,0.1,2,0.1c0.2,0,0.5,0,0.6-0.1c-0.2-0.4-0.7,0-0.7-0.9c0-0.9-0.2-2.2,0.8-2.3
			c0.5,0,0.8,0.3,1,0.5c0.1-0.3,0.3-1,0.2-1.2c-0.4-0.4-0.9-0.4-1.3-0.1c-0.5,0.3-0.4,0.6-0.8,1.1l0-1.3l-2,0.2c0,0.4,0.5,0,0.7,0.7
			l0,2.7C59,60.9,58.6,60.6,58.5,61z"/>
		<path class="st4" d="M92.3,57c0.1,0.3,0.5,0,0.7,0.6c0.1,0.2,0.1,2.4,0,2.7c-0.1,0.6-0.5,0.4-0.7,0.7c0.2,0.2,1,0.1,1.3,0.1
			c0.3,0,1.1,0.1,1.3-0.1c-0.1-0.4-0.7,0-0.7-0.8c0-0.3,0-1.3,0-1.6c0-0.3,0.4-0.7,0.8-0.7c0.5,0,0.8,0.3,1.1,0.5
			c0.1-0.4,0.3-0.9,0.2-1.2c-0.1-0.2-1-0.7-1.7,0.4c-0.1,0.2-0.2,0.4-0.3,0.6l0-1.2C94,56.8,92.6,56.9,92.3,57L92.3,57z"/>
		<path class="st4" d="M111.2,59.9c-0.3,0-0.5,0.4-0.9,0.6c-0.9,0.5-2.3,0-2.2-1.8c0-2,1.8-2.3,2.7-0.9c0.1,0.2,0.1,0.3,0.4,0.4
			l-0.1-1.5c-0.3,0-0.3,0.1-0.8,0.1c-0.3,0-0.5-0.1-0.8-0.1c-1.7-0.1-3,1.1-2.7,2.8C107.3,62,111,61.4,111.2,59.9L111.2,59.9z"/>
		<path class="st4" d="M83.2,61.2c0.3,0,0.3-0.2,0.7-0.1c0.2,0,0.5,0.1,0.7,0.1c1.7,0.2,2.4-1.6,1.2-2.5c-0.4-0.4-2.2-0.7-1.8-1.4
			c0.2-0.3,0.9-0.3,1.2-0.1c0.6,0.3,0.5,0.8,0.8,0.8c0.1-0.3,0-0.9,0-1.2c-0.3,0-0.3,0.1-0.8,0c-0.3,0-0.5-0.1-0.8-0.1
			c-1.2,0-1.6,1.1-1.3,1.8c0.4,0.7,1.6,0.8,2.1,1.3c0.3,0.3,0.2,0.8-0.2,1c-0.5,0.2-0.9-0.1-1.2-0.4c-0.4-0.5-0.4-0.6-0.5-0.7
			c-0.2-0.2,0.1-0.1-0.3-0.1L83.2,61.2L83.2,61.2z"/>
		<path class="st4" d="M21.6,41.4c0.6,0,1.2,0,1.7,0.2l-0.9-7.9L21.6,41.4z"/>
		<path class="st2" d="M25.5,42.4c0,0.1,1.3,1,1.4,1.1l3.4-6.2L25.5,42.4L25.5,42.4z"/>
		<path class="st2" d="M8,37.3l0.1,2c-0.2,0.2-0.6,0.4-0.4,0.9c0.1,0.3,0.5,0.5,0.9,0.5c-0.1-0.1,0,0-0.2-0.1
			c-0.1,0-0.5-0.1-0.4-0.4c0.2-0.3,0.6-0.4,1-0.4c0.5,0,0.8,0.3,1.1,0.3c0.2-0.7-0.2-0.4-0.2-0.9c0-1.2,0.3-1.4-1.1-2.6
			c-0.3,0.3-0.1,0.2-0.5,0.4C8.4,37,8.2,37.2,8,37.3z"/>
		<path class="st4" d="M28.3,53.5h1.2c-0.1-0.4-0.7-1.6-1-2C27.8,50,28.1,51,27.9,49c-0.3,0-0.8,0.6-0.9,0.8
			c-0.5,0.7,0.2,1.3,0.7,2.5C27.9,52.7,28.1,53.1,28.3,53.5L28.3,53.5z"/>
		<path class="st4" d="M28.3,44.9c0.3,0.5,0.5,0.8,0.6,1.5l4.9-3.8L28.3,44.9z"/>
		<path class="st4" d="M18.5,43.4c0.2-0.2,0.3-0.5,0.4-0.7c0.2-0.2,0.4-0.4,0.6-0.6L15.3,38L18.5,43.4L18.5,43.4z"/>
		<path class="st2" d="M96.4,37.6c-1.4,0.5-0.6,2.4,0.7,2C98.3,39.2,97.8,37.1,96.4,37.6z"/>
		<path class="st2" d="M46.1,37.6c-1.5,0.4-0.8,2.4,0.5,2.1C47.9,39.3,47.4,37.2,46.1,37.6z"/>
		<path class="st2" d="M27.6,44.1c0.4,0.2,0.3,0.1,1.3-0.3c0.4-0.2,1-0.4,1.3-0.6c-0.1-0.4-0.8-1.7-1-2.1L27.6,44.1L27.6,44.1z"/>
		<path class="st4" d="M6.9,35L7,35.4c-0.2,0.1-0.4,0.1-0.3,0.6c0.1,0.2,0,0.2,0.3,0.2c0.1,0,0.3,0,0.5,0c0,0,0,0,0,0c0,0,0,0,0,0
			L7,36.6c0,0.4,0.2,0.6,0.4,0.8c0.5-0.7-0.1-0.3,1-0.9V36l0.4-0.1c0.2-0.8,0-0.6-0.7-0.6L8.4,35c0.1-0.2,0.1-0.4,0.1-0.6
			C7.8,34.5,7.3,34.8,6.9,35L6.9,35z"/>
		<path class="st1" d="M20.6,43.2c0,0.3,0.2,0.8,0.3,1.1c0.4,0,0.7-0.1,1.1-0.1c0.2,0,0.4,0,0.6,0c0.2,0,0.3,0.1,0.5,0l0.2-1.1
			C22.2,42.9,21.6,42.7,20.6,43.2L20.6,43.2z"/>
		<path class="st1" d="M20.6,47.4c0.2,0.3-0.1,0,0.3,0.3c0.1,0.1,0.2,0.2,0.3,0.3l0.3-0.1c0.1-0.2,0,0,0-0.3c1.1-0.3,0.7,0.2,1.7,0
			c0.3-0.1,0.3,0,0.4-0.3c-0.4-0.2-0.8-0.6-1.4-0.7c-0.8-0.1-1.1,0.2-1.6,0.4V47.4z"/>
		<path class="st1" d="M23.7,44.6c0.1,0.1,1.2,0.5,1.8,0.9c0.2-0.2,0.4-0.5,0.6-0.8c-0.2-0.3-1.7-1.1-1.9-1.2L23.7,44.6L23.7,44.6z"
			/>
		<path class="st4" d="M7.5,34c0.7-0.6,1.8-0.8,2.7-0.4c0.4,0.2,0.5,0.3,0.7,0.5c0-1-0.7-1.3-1.7-1.3c-0.5,0-0.9,0.1-1.3,0.3
			C7.6,33.2,7.4,33.4,7.5,34z"/>
		<path class="st4" d="M117,55.6c-0.2-1.3,1.6-1.6,1.9-0.4C119.2,56.5,117.3,56.7,117,55.6z M117.6,54.3c-1.4,0.5-0.6,2.7,0.8,2.2
			C119.8,55.9,119.1,53.7,117.6,54.3z"/>
		<path class="st4" d="M16.5,46.2c0.4,0.2,0.8,0.6,1.2,0.8c-0.1-0.6,0-0.5,0-1l-1.3-0.8L16.5,46.2z"/>
		<path class="st1" d="M19.3,45.1c0.2,0,0,0.1,0.5-0.3c0.2-0.1,0.4-0.2,0.5-0.4L20,43.6C19.6,43.9,19.2,44.5,19.3,45.1z"/>
		<path class="st5" d="M117.6,55.9v-1.1h0.5c0.1,0,0.2,0,0.3,0c0.1,0,0.1,0.1,0.1,0.1s0,0.1,0,0.2c0,0.1,0,0.2-0.1,0.2
			c0,0.1-0.1,0.1-0.2,0.1c0,0,0.1,0.1,0.1,0.1s0.1,0.1,0.1,0.2l0.1,0.2h-0.3l-0.2-0.3c-0.1-0.1-0.1-0.1-0.1-0.2c0,0,0,0-0.1,0
			s-0.1,0-0.1,0h0v0.5H117.6L117.6,55.9z M117.8,55.3h0.2c0.1,0,0.2,0,0.2,0s0,0,0.1,0s0-0.1,0-0.1c0,0,0-0.1,0-0.1s0,0-0.1,0
			c0,0-0.1,0-0.2,0h-0.2V55.3L117.8,55.3z"/>
	</g>
</g>
</svg>
