<?xml version="1.0" encoding="utf-8"?>
<!-- Generator: Adobe Illustrator 21.0.0, SVG Export Plug-In . SVG Version: 6.00 Build 0)  -->
<svg version="1.1" id="Layer_1" xmlns="http://www.w3.org/2000/svg" xmlns:xlink="http://www.w3.org/1999/xlink" x="0px" y="0px"
	 viewBox="0 0 45.1 45.1" style="enable-background:new 0 0 45.1 45.1;" xml:space="preserve">
<style type="text/css">
	.st0{clip-path:url(#SVGID_2_);}
	.st1{clip-path:url(#SVGID_5_);}
	.st2{clip-path:url(#SVGID_6_);}
	.st3{fill:#8FB4BD;}
	.st4{fill:#7197A0;}
	.st5{fill:#FEDCA6;}
	.st6{fill:#FEDAA6;}
	.st7{fill:#5E748D;}
	.st8{fill:#3B556C;}
	.st9{fill:#F6CD5E;}
	.st10{fill:#FD7C5F;}
	.st11{fill:#EA4521;}
	.st12{fill:#F5D37A;}
	.st13{fill:#5A7C91;}
	.st14{fill:#3D5B73;}
	.st15{fill:#FDDBAE;}
	.st16{fill:#313131;}
	.st17{fill:#030303;}
	.st18{fill:#DDE1DD;}
	.st19{fill:#F3F3F5;}
	.st20{fill:#567A89;}
	.st21{fill:#55B8C7;}
	.st22{fill:#EFBA70;}
	.st23{fill:#F6CE8D;}
	.st24{fill:none;}
</style>
<g>
	<g>
		<defs>
			<circle id="SVGID_1_" cx="22.5" cy="22.5" r="22.5"/>
		</defs>
		<clipPath id="SVGID_2_">
			<use xlink:href="#SVGID_1_"  style="overflow:visible;"/>
		</clipPath>
		<g id="Layer_x0020_1" class="st0">
			<g>
				<defs>
					<circle id="SVGID_3_" cx="22.5" cy="22.5" r="22.5"/>
				</defs>
				<defs>
					<circle id="SVGID_4_" cx="22.5" cy="22.5" r="22.5"/>
				</defs>
				<clipPath id="SVGID_5_">
					<use xlink:href="#SVGID_3_"  style="overflow:visible;"/>
				</clipPath>
				<clipPath id="SVGID_6_" class="st1">
					<use xlink:href="#SVGID_4_"  style="overflow:visible;"/>
				</clipPath>
				<g class="st2">
					<path class="st3" d="M-61.5,86.4H61.7V78c-0.8,0.1-1.2,0.5-1.7,0.9c-0.2-0.5,0.1-0.4,0.2-0.7c0-0.1,0.1-0.1,0.1-0.1
						c-0.9,0-0.5,0.3-1.3,0.2c-2.3-0.5-22.2,0.2-26.2-0.1c0.3,0.5,0.3,0.3,0.4,0.8c-1.8-1.6-3.6-4.1-5.2-6c-1.7-2-3.3-4-5.1-6
						c-0.9-1.1-1.6-1.9-2.5-3l-7.5-9.1c0,0-0.1,0.1-0.1,0.1l-0.4,0.3c0,0-0.1,0.1-0.1,0.1l-0.1,0.2c0,1.9-0.1,4.3,0,6.2
						c0.1,1.4,1.8,3.2,2.7,4.2l2.3,3.2c0.2,0.5,0.1,0.6,0.3,1.2c0,0.1,0,0.1,0.1,0.2l0.2,0.5c0.3,1.1-0.2,1-0.2,1.6
						c0,0.8,0,0.5,0.4,0.8c-1-0.2-1.6-1-2.9-1.3c0.3,0.4,0,0.1,0.3,0.4l0.4,0.3l2.1,1.3c-0.8,0.6-0.5,0.7-0.5,3.2
						c-0.8,0.5-0.3,0-0.8,0.8c-8.7,0-19.6,0.2-28.2,0c-1.4,0,0,0-1.1,0.2c-1-1.6-2.2-2.7-3.4-4.1c-1.2-1.4-2.3-2.7-3.4-4l-19.7-23.7
						c-0.4-0.4-0.4-0.4-0.7-1c-0.2-1.9,0-5.1,0.2-7c0.1-1,0.3-2.1,0.5-3.1c0.3-1.1,0.5-1.9,1.4-2.3l2.9-1.3l1.1-0.6
						c0.3-5.2-0.2-10.7,0.3-15.8c0.3-2.4,0.3-4.7,1.4-6.7c0.8-1.6,2.5-3.2,4.8-3.3c0.9-0.3,3.5-0.2,4.5,0c1.3,0.1,2,0.5,2.9,1.1
						c1.1,0.7,1.2,1.3,1.9,2.1c0.4,0.2,2.1,2.3,2.6,2.9l1.1,1.4c0.3,0.5,0.4,0.5,0.8,0.9l5.3,6.6c0.3,0.4,0.5,0.5,0.8,0.9L5.3,37.1
						c0.8,0.7,0.9,0.1,0.9,0.1c0.3-3.1,0.3-2.7,2.6-3.8c1.4-0.7,3-1.4,4.4-2l4.2-1.7l0.6-0.4l0.1-3.1c-1-1.1-1.2-0.2-1.5-2.3
						c-0.5-3.3-0.1-1.9-0.9-2.7c-0.7-0.7-2.4-5-0.2-5.2c-0.4-1.3-0.7-3-0.8-4.4c-0.2-2.6,0.4-2.2,1.4-3.5c1.6-1.9,2.6-3.4,6.5-3.5
						c2.1,0.1,3.7,0.6,5,1.7c0.7,0.6,0.8,1,1.5,1.7c0.7,0.8,0.9,0.8,1.4,1.7c0.9,0.6,0.6,0.4,1.2,1.2l4.8,5.8
						c0.7,0.8,1.3,1.5,1.9,2.3c1.8,2.5,1.6,2,2.9,3.7l16.4,20.2c0.7,0.8,1.2,1.5,1.9,2.3c1.3,1.7,1.2,2,2.2,2.2v-61.5H-61.5V86.4
						L-61.5,86.4z"/>
					<path class="st4" d="M-16.4,31.1c0.6,0.6,0.6,0.2,1.1,0.8c1,0,2,0.7,3.1,1.1c2,2.1,1.9,8.9,1.8,12.3l-4.8,0l-7.8,0
						c-0.8,0-1.8,0.1-2.4-0.2c-1.2,0.3-8.2,0.2-9.7,0.1c-1.2,0.4-3.4,0.1-4.9,0.1c0.3,0.6,0.3,0.6,0.7,1l19.7,23.7
						c1.1,1.3,2.2,2.6,3.4,4c1.2,1.4,2.4,2.6,3.4,4.1c1.1-0.2-0.3-0.2,1.1-0.2c8.6,0.2,19.5,0,28.2,0c0.5-0.8,0-0.3,0.8-0.8
						c0-2.4-0.3-2.5,0.5-3.2l-2.1-1.3c0,0-0.4-0.3-0.4-0.3c-0.3-0.3-0.1,0-0.3-0.4c1.3,0.3,2,1.2,2.9,1.3c-0.4-0.3-0.5,0-0.4-0.8
						c0-0.6,0.5-0.5,0.2-1.6l-0.2-0.5c0-0.1,0-0.1-0.1-0.2c-0.2-0.6,0-0.7-0.3-1.2l-2.3-3.2c-0.9-1-2.6-2.8-2.7-4.2
						c-0.1-1.9,0-4.2,0-6.2l0.1-0.2c0,0,0.1-0.1,0.1-0.1l0.4-0.3c0,0,0.1,0,0.1-0.1l7.5,9.1c1,1,1.6,1.9,2.5,3c1.7,2,3.3,4,5.1,6
						c1.6,1.9,3.4,4.4,5.2,6c-0.2-0.5-0.2-0.4-0.4-0.8c4.1,0.3,23.9-0.4,26.2,0.1c0.7,0.2,0.4-0.1,1.3-0.2c0,0-0.1,0.1-0.1,0.1
						c0,0.3-0.4,0.2-0.2,0.7c0.5-0.4,0.9-0.8,1.7-0.9V47.2c-1-0.2-0.9-0.5-2.2-2.2c-0.7-0.9-1.2-1.5-1.9-2.3L41.2,22.5
						c-1.3-1.6-1.2-1.2-2.9-3.7c-0.6-0.8-1.2-1.5-1.9-2.3l-4.8-5.8c-0.7-0.8-0.3-0.6-1.2-1.2c0.4,2.1-0.3,4.2-0.6,6.2
						c0.6,0.3,0.7,0.3,0.8,1.1c0.1,0.6,0,1.1-0.1,1.7c-0.7,3.9-1.3,0.8-2,5.4c-0.3,1.7-0.3,1.2-1.5,2.2l0.1,3l0.8,0.6
						c0.8,0.2,2.9,1.1,3.6,1.5c1.3,0.4,2.8,1.2,4,1.8c2.5,1.3,2.9,0.9,3.2,2.6c0.3,1.4,0.7,3.6,0.9,4.8c0.2,1.5,0.5,3.7,0.6,5.2
						l-14.2,0l-2.1-0.1l-1.3-0.2l0-13.2c-0.2,0.2-0.2,0.1-0.4,0.3l-0.6,0.9c-0.3,0.5-0.3,0.6-0.8,1c0.5,1.6,0.9,0.9,0.4,3.1
						c-0.4,1.6-0.2,2.8-1,2.8c0.2,0.5,0.2,0.4,0.3,0.8c0.7,1.8,0.5,1,0.7,3.4c0.1,1,0.4,0.8,0.6,1.2l-2.6,0l-6.5-0.1
						c0.1,0.7,0.5,1,0.9,1.4l-0.7,0.4c-0.9,0.5-0.3,0.3-0.8,0.8l-0.7,0.6c-0.4,0.5,0,0.4-0.8,1.1c-0.7,0.6-0.3,0.2-0.5,1.1
						c-0.7-0.5-0.2-0.1-0.7-0.6l-4-4.9c-0.5-0.9,0.9-6.7,1-8.2c0,0-0.1,0.6-0.9-0.1L-7.5,21.1c-0.3-0.4-0.5-0.5-0.8-0.9l-5.3-6.6
						c-0.4-0.5-0.5-0.4-0.8-0.9l-1.1-1.4c-0.5-0.6-2.2-2.8-2.6-2.9c0.4,1.7,0.9,2.9,1.2,5c0.2,1.9,0.3,3.8,0.4,5.7
						C-16.4,23.1-16.5,27.1-16.4,31.1L-16.4,31.1z"/>
					<path class="st5" d="M-29.3,23.9c1,0.4,1.8,1,2.9,1.3c1.5,0.4,2.2-0.1,2.8-0.2l0.5,0.1c-1.3,0.7-4.7,3.2-6.2,3.6
						c-0.8,0.8-3.5,2.4-4.7,2.5l-1.1,0.6l2.4,2.8c1.7,1.6,6.3,7.1,7.4,8.1c0.8-0.9,1.7-1.7,2.5-2.7c0.8-0.9,1.6-1.7,2.4-2.7
						c0.9-1,4.2-4.7,5-5.3c-0.5-0.7-0.5-0.2-1.1-0.8c-1.3-0.3-4.2-1.7-4.9-2.6c-0.4-1.3-0.1-3.2-0.1-4.7c0.8-0.4,1.1-0.5,1.4-1.2
						c0,0,0.2-0.7,0.2-0.7c0.2-1,0.1-1.9,0.6-2.5c1-1,0.7-0.4,1.2-2c0.3-0.9,0.5-1.6,0.4-2.6l-1.2-0.5c0-0.6-0.1-1.4,0-1.9
						c0-1.4,0.1-0.5,0.3-1.3c0.9-3.8-4-5.4-4.5-5.9c-1-0.2-3.7-0.3-4.5,0l2.2,0l0,9c-2,0.6-4.9,2.4-6.9,2.7c0-0.7,0.2-2-0.4-2.3
						c-0.6,0.2-0.5,0.3-0.5,1.2l0.7,2.8c0.8,1.5,1.1,0.2,1.4,2C-30.5,23.4-31.2,22.6-29.3,23.9L-29.3,23.9z"/>
					<path class="st6" d="M15.5,15.8c-2.2,0.2-0.5,4.5,0.2,5.2c0.8,0.8,0.4-0.6,0.9,2.7c0.3,2.1,0.5,1.2,1.5,2.3
						c4.4,2.7,5.6,1.3,8,0.5c-1,0.2-4.7,3.9-6.5,3.6c0.7,0.7,2.2,1.3,3.2,1.3c0.8-0.4,1.3-0.5,2.1-1c0.7-0.4,1.5-1.2,2.1-1.5l-0.1-3
						c1.2-0.9,1.2-0.5,1.5-2.2c0.7-4.7,1.3-1.5,2-5.4c0.1-0.6,0.2-1.1,0.1-1.7c-0.1-0.8-0.2-0.8-0.8-1.1c-0.5,0.6-0.2,0.5-0.9,1
						c0-1.8,0.3-1.8-0.3-3.4c-0.4-0.9-0.7-2-0.8-3c-2.1,0.7-2.6,0.9-5.2,0.7c-2.3-0.3-3.3-1-5.2-1.6c0,1.3-0.3,2.4-0.8,3.6
						c-0.8,2-0.3,1.8-0.5,3.9L15.5,15.8L15.5,15.8z"/>
					<path class="st7" d="M26,45.5l14.2,0c0-1.5-0.3-3.7-0.6-5.2c-0.2-1.2-0.5-3.5-0.9-4.8c-0.4-1.7-0.7-1.3-3.2-2.6
						c-1.3-0.6-2.7-1.3-4-1.8L29.3,35c0.4,0.9,0.9,1.3,1.2,2.1C29.5,39.3,26.4,43.9,26,45.5L26,45.5z"/>
					<path class="st8" d="M6.2,37.1c-0.1,1.6-1.5,7.4-1,8.2l7.4,0l6.5,0.1c-0.9-2.1-2.4-4.2-3.6-6.3c-0.4-0.6-0.8-1.5-1.1-2.1
						c0.4-0.9,0.9-1.3,1.3-2.1c-0.4-0.7-0.8-1.4-1.2-2c-1.4-2.3-0.6-1.4-1.4-1.6c-1.4,0.6-3,1.3-4.4,2C6.5,34.5,6.6,34,6.2,37.1z"/>
					<path class="st9" d="M-34,31.1c1.2,0,3.9-1.6,4.7-2.5l0-4.7c-1.9-1.3-1.2-0.6-1.7-3.3c-0.3-1.8-0.6-0.5-1.4-2l-0.7-2.8
						c0-0.9-0.1-1,0.5-1.2c0.6,0.4,0.4,1.6,0.4,2.3c2-0.2,4.8-2.1,6.9-2.7l0-9l-2.2,0c-2.2,0.1-4,1.7-4.8,3.3c-1,2-1.1,4.3-1.4,6.7
						C-34.3,20.4-33.7,25.9-34,31.1L-34,31.1z"/>
					<path class="st10" d="M-25.3,42.6c0,0.8,0.2,1.9-0.2,2.6c0.6,0.3,1.6,0.2,2.4,0.2l7.8,0c0.4-1.4,0.2-5.2,0.5-7.1
						c0.3-2,1.2-4.4,2.5-5.2c-1.1-0.4-2.1-1.1-3.1-1.1c-0.9,0.6-4.2,4.3-5,5.3c-0.8,0.9-1.6,1.7-2.4,2.7
						C-23.6,40.9-24.5,41.7-25.3,42.6L-25.3,42.6z"/>
					<path class="st11" d="M-37.9,33c0.4,0.7,1,1.2,1.4,2.2c0.4,0.9,0.8,1.8,1,2.8c0.5,2.1,0.3,4.9,0.4,7.2c1.5,0.1,8.4,0.2,9.7-0.1
						c0.4-0.7,0.2-1.7,0.2-2.6c-1.1-0.9-5.7-6.4-7.4-8.1l-2.4-2.8L-37.9,33L-37.9,33z"/>
					<path class="st12" d="M-16.4,31.1c0-4,0-8.1-0.1-12.1c-0.1-1.9-0.2-3.9-0.4-5.7c-0.2-2.1-0.8-3.3-1.2-5
						C-18.9,7.6-19,7-20.1,6.3c-0.9-0.6-1.6-1-2.9-1.1c0.5,0.5,5.4,2.1,4.5,5.9c-0.2,0.8-0.3-0.1-0.3,1.3c0,0.5,0,1.4,0,1.9l1.2,0.5
						c0.2,1-0.1,1.7-0.4,2.6c-0.5,1.6-0.3,1-1.2,2c-0.6,0.6-0.4,1.5-0.6,2.5c0,0-0.1,0.7-0.2,0.7c-0.3,0.7-0.6,0.8-1.4,1.2
						c0,1.5-0.3,3.4,0.1,4.7C-20.6,29.4-17.7,30.8-16.4,31.1L-16.4,31.1z"/>
					<path class="st13" d="M13.2,31.4c0.8,0.2,0.1-0.6,1.4,1.6c0.4,0.6,0.8,1.3,1.2,2c-0.3,0.9-0.9,1.2-1.3,2.1
						c0.3,0.6,0.7,1.5,1.1,2.1c1.2,2.1,2.7,4.2,3.6,6.3l2.6,0c-0.2-0.4-0.5-0.2-0.6-1.2c-0.2-2.3,0-1.6-0.7-3.4
						c-0.2-0.4-0.1-0.3-0.3-0.8c0-1-1.1-4.3-1.4-5.4c-0.4-1.4-1.3-3.9-1.4-5.2L13.2,31.4z"/>
					<path class="st14" d="M24.9,39.8l-1,5.6l2.1,0.1c0.5-1.6,3.6-6.2,4.5-8.4c-0.4-0.9-0.9-1.2-1.2-2.1l2.2-3.9
						c-0.8-0.4-2.8-1.3-3.6-1.5L24.9,39.8L24.9,39.8z"/>
					<path class="st15" d="M-40.1,45.4c1.5,0,3.7,0.3,4.9-0.1c-0.1-2.2,0.1-5.1-0.4-7.2c-0.2-1-0.5-2-1-2.8c-0.5-1-1.1-1.5-1.4-2.2
						c-0.8,0.4-1.1,1.3-1.4,2.3c-0.2,0.9-0.4,2-0.5,3.1C-40,40.3-40.2,43.5-40.1,45.4L-40.1,45.4z"/>
					<path class="st16" d="M22.5,11c2.6,0.2,3.1-0.1,5.2-0.7c0.1,1,0.5,2.1,0.8,3c0.7,1.6,0.3,1.6,0.3,3.4c0.7-0.5,0.4-0.4,0.9-1
						c0.3-2,1-4.1,0.6-6.2c-0.5-1-0.7-1-1.4-1.7c-0.6-0.7-0.8-1.1-1.5-1.7c-1.3-1.1-2.9-1.7-5-1.7C22.6,6.6,22.6,8.8,22.5,11
						L22.5,11z"/>
					<path class="st15" d="M-15.2,45.4l4.8,0c0.1-3.4,0.2-10.3-1.8-12.3c-1.3,0.8-2.1,3.2-2.5,5.2C-15.1,40.2-14.8,44-15.2,45.4
						L-15.2,45.4z"/>
					<path class="st17" d="M15.5,15.8l0.7,1.1c0.2-2.1-0.3-1.9,0.5-3.9c0.5-1.1,0.8-2.2,0.8-3.6c1.9,0.6,2.8,1.3,5.2,1.6
						c0.1-2.2,0-4.4,0-6.7c-3.8,0.1-4.9,1.6-6.5,3.5c-1,1.3-1.6,0.9-1.4,3.5C14.8,12.8,15.1,14.5,15.5,15.8z"/>
					<path class="st18" d="M17.4,29.6c0.2,1.3,1,3.8,1.4,5.2c0.3,1.1,1.4,4.4,1.4,5.4c0.7,0,0.6-1.3,1-2.8c0.5-2.2,0-1.5-0.4-3.1
						c0.5-0.5,0.5-0.5,0.8-1l0.6-0.9c0.2-0.2,0.2-0.2,0.4-0.3c-0.1-0.4-0.2-0.2,0.3-0.2l0.1-0.2c-1-0.1-2.5-0.7-3.2-1.3
						c-0.7-0.4-1-0.8-1.6-1L17.4,29.6L17.4,29.6z"/>
					<path class="st19" d="M22.8,31.6l-0.1,0.2c0.3,0.8,1.1,1.6,1.6,2.6C24,35.9,23.5,35.1,24,37c0.3,0.9,0.4,2.2,0.9,2.9l2.9-10.2
						L27,29.1c-0.5,0.3-1.4,1-2.1,1.5C24.1,31,23.6,31.1,22.8,31.6L22.8,31.6z"/>
					<path class="st20" d="M12.7,45.4l-7.4,0l4,4.9c0.5,0.5,0,0.1,0.7,0.6c0.2-0.9-0.2-0.6,0.5-1.1c0.8-0.7,0.5-0.7,0.8-1.1l0.7-0.6
						c0.5-0.5,0-0.3,0.8-0.8l0.7-0.4C13.2,46.4,12.8,46.1,12.7,45.4L12.7,45.4z"/>
					<path class="st21" d="M23.8,45.4l1-5.6c-0.5-0.7-0.6-1.9-0.9-2.9c-0.5-1.9-0.1-1,0.3-2.6c-0.5-0.9-1.3-1.8-1.6-2.6
						c-0.4,0-0.4-0.1-0.3,0.2l0,13.2L23.8,45.4z"/>
					<path class="st22" d="M18,29.2c0.6,0.2,0.9,0.7,1.6,1c1.8,0.3,5.5-3.4,6.5-3.6c-2.3,0.7-3.6,2.2-8-0.5L18,29.2z"/>
					<path class="st23" d="M-29.3,28.6c1.4-0.4,4.9-2.9,6.2-3.6l-0.5-0.1c-0.5,0.1-1.3,0.6-2.8,0.2c-1.1-0.3-1.9-0.9-2.9-1.3
						L-29.3,28.6z"/>
				</g>
			</g>
			<path class="st24" d="M22.5,0C34.9,0,45,10.1,45,22.5S34.9,45,22.5,45S0,34.9,0,22.5S10.1,0,22.5,0z"/>
		</g>
	</g>
</g>
</svg>
