<?xml version="1.0" encoding="utf-8"?>
<!-- Generator: Adobe Illustrator 21.0.0, SVG Export Plug-In . SVG Version: 6.00 Build 0)  -->
<svg version="1.1" xmlns="http://www.w3.org/2000/svg" xmlns:xlink="http://www.w3.org/1999/xlink" x="0px" y="0px"
	 viewBox="0 0 242.9 119.1" style="enable-background:new 0 0 242.9 119.1;" xml:space="preserve">
<style type="text/css">
	.st0{fill:#DDDDDD;}
	.st1{fill:#EB5E6D;}
	.st2{fill:#A82239;}
	.st3{fill:#393453;}
	.st4{fill:#A72239;}
	.st5{fill:#444444;}
	.st6{fill:#DAE9F4;}
	.st7{fill:#251B47;}
	.st8{fill:#0D2B3D;}
	.st9{fill:#19243F;}
	.st10{fill:#982A37;}
	.st11{fill:#B01D43;}
	.st12{fill:#D56B7D;}
	.st13{fill:#ED5D21;}
	.st14{fill:#F0F7F5;}
	.st15{fill:#E26672;}
	.st16{fill:#AD2435;}
	.st17{fill:#F9A419;}
	.st18{fill:#1A1C38;}
	.st19{fill:#181E3A;}
	.st20{fill:#F9F8F6;}
	.st21{fill:#191D39;}
	.st22{fill:#1B1D3A;}
	.st23{fill:#1D1E35;}
	.st24{fill:#595763;}
	.st25{fill:#CD556C;}
	.st26{fill:#F8F1F4;}
	.st27{fill:#5A5864;}
	.st28{fill:#341D2D;}
	.st29{fill:#1F1C25;}
	.st30{fill:#9ECBE7;}
	.st31{fill:#B11E47;}
	.st32{fill:#9A2D2A;}
	.st33{fill:#331B2E;}
	.st34{fill:#451129;}
	.st35{fill:#F8D93B;}
	.st36{fill:#2D2638;}
	.st37{fill:#DF576C;}
	.st38{fill:#B41C39;}
	.st39{fill:#FDFDFD;}
	.st40{fill:#0F2945;}
	.st41{fill:#EB5E22;}
	.st42{fill:#322437;}
	.st43{fill:#A72238;}
	.st44{fill:#7D8C90;}
	.st45{fill:#7C8D90;}
	.st46{fill:#AB2338;}
	.st47{fill:#E75B71;}
	.st48{fill:#FEFEFE;}
	.st49{fill:#1A1A1A;}
	.st50{fill:#F1F1F1;}
	.st51{fill:#9B4500;}
	.st52{fill:#8A2402;}
	.st53{fill:#CD5902;}
	.st54{fill:#010101;}
	.st55{fill:#1F1F1F;}
	.st56{fill:#D1793D;}
	.st57{fill:#9A4403;}
	.st58{fill:#F89C57;}
	.st59{fill:#132665;}
	.st60{fill:#F4A15F;}
	.st61{fill:#D47939;}
	.st62{fill:#4E4E4E;}
	.st63{fill:#9B9B9B;}
	.st64{fill:#AFA9A3;}
	.st65{fill:#090909;}
	.st66{fill:#C97E4B;}
	.st67{fill:#2E2E2E;}
	.st68{fill:#C8A184;}
	.st69{fill:#E8A774;}
	.st70{fill:#161616;}
	.st71{fill:#9F521A;}
	.st72{fill:#A2A4AA;}
	.st73{fill:#B0B0AF;}
	.st74{fill:#D4D5D4;}
	.st75{fill:#292929;}
	.st76{fill:#581702;}
	.st77{fill:#020202;}
	.st78{fill:#040404;}
	.st79{fill:#050505;}
	.st80{fill:#FEB76E;}
	.st81{fill:#EFA365;}
	.st82{fill:#B6B4B1;}
	.st83{fill:#F8DEC1;}
	.st84{fill:#3D140A;}
	.st85{fill:#CDCDCD;}
	.st86{fill:#985844;}
	.st87{fill:#FE9851;}
	.st88{fill:#872E05;}
	.st89{fill:#C85906;}
	.st90{fill:#C55908;}
	.st91{fill:#AF815C;}
	.st92{fill:#BA560B;}
	.st93{fill:#B74420;}
	.st94{fill:#0A0405;}
	.st95{fill:#380C03;}
	.st96{fill:#333333;}
	.st97{fill:#E6E2E2;}
	.st98{fill:#F58E41;}
	.st99{fill:#E17322;}
	.st100{fill:#820000;}
	.st101{fill:#670603;}
	.st102{fill:#ED8B43;}
	.st103{fill:#FCFCFC;}
	.st104{fill:#E7E6E6;}
	.st105{fill:#F48C43;}
	.st106{fill:#9A3D06;}
	.st107{fill:#E28439;}
	.st108{fill:#545454;}
	.st109{fill:#DE9461;}
	.st110{fill:#FEFDFD;}
	.st111{fill:#CBCBCB;}
	.st112{fill:#810000;}
	.st113{fill:#EEE9E8;}
	.st114{fill:#4B2120;}
	.st115{fill:#541E1D;}
	.st116{fill:#6C0503;}
	.st117{fill:#5F1B14;}
	.st118{fill:#F99957;}
	.st119{fill:#181818;}
	.st120{fill:#3B3B3B;}
	.st121{fill:#272727;}
	.st122{fill:#B84420;}
	.st123{fill:#8A2403;}
	.st124{fill:#882E06;}
	.st125{fill:#882D06;}
	.st126{fill:#270E09;}
	.st127{fill:#221008;}
	.st128{fill:#100A0E;}
	.st129{fill:#EC8236;}
	.st130{fill:#EF8135;}
	.st131{fill:#150B0A;}
	.st132{fill:#D87633;}
	.st133{fill:#D77632;}
	.st134{fill:#3D1504;}
	.st135{fill:#F6F4ED;}
	.st136{fill:#EBD8C7;}
	.st137{fill:#9D9490;}
	.st138{fill:#A89C8C;}
	.st139{fill:#CF7E48;}
	.st140{fill:#666563;}
	.st141{fill:#D0C5BB;}
	.st142{fill:#6B412C;}
	.st143{fill:#FBF4E9;}
	.st144{fill:#8F5841;}
	.st145{fill:#7C2B04;}
	.st146{fill:#945B34;}
	.st147{fill:#571702;}
	.st148{fill:#D26A1F;}
	.st149{fill:#F6974F;}
	.st150{fill:#DF7426;}
	.st151{fill:#17255C;}
	.st152{fill:#963E05;}
	.st153{fill:#CD7133;}
	.st154{fill:#4B100D;}
	.st155{fill:#A5633B;}
	.st156{fill:#95B2B9;}
	.st157{fill:#FBD38E;}
	.st158{fill:#E37525;}
	.st159{fill:#D77533;}
	.st160{fill:#E17528;}
	.st161{fill:#D87531;}
	.st162{fill:#CFE0E1;}
	.st163{fill:#D87631;}
	.st164{fill:#DD7731;}
	.st165{fill:#6B5036;}
	.st166{fill:#B99B7C;}
	.st167{fill:#C88F71;}
	.st168{fill:#303030;}
	.st169{fill:#A8C3C7;}
	.st170{fill:#656B6C;}
	.st171{fill:#E08E50;}
	.st172{fill:#A7C3C9;}
	.st173{fill:#CCDFE4;}
	.st174{fill:#F2CBB6;}
	.st175{fill:#BC9668;}
	.st176{fill:#99B09B;}
	.st177{fill:#93B2B7;}
	.st178{fill:#B59677;}
</style>
<g id="Layer_2">
	
		<ellipse transform="matrix(3.540741e-02 -0.9994 0.9994 3.540741e-02 66.5871 287.2938)" class="st0" cx="182.1" cy="109.2" rx="1" ry="11.4"/>
	
		<ellipse transform="matrix(3.540741e-02 -0.9994 0.9994 3.540741e-02 18.104 237.9174)" class="st0" cx="132.3" cy="109.6" rx="1" ry="11.4"/>
	
		<ellipse transform="matrix(3.540741e-02 -0.9994 0.9994 3.540741e-02 -15.0808 203.0524)" class="st0" cx="97.6" cy="109.3" rx="1" ry="11.4"/>
	
		<ellipse transform="matrix(6.966417e-02 -0.9976 0.9976 6.966417e-02 92.2518 317.5958)" class="st0" cx="216.4" cy="109.3" rx="1" ry="11.4"/>
</g>
<g id="Layer_1">
	<g>
		<path class="st1" d="M83.4,101.6c-3.5-0.4-6.6-1.6-9.2-4c-0.3-0.2-0.3-0.4-0.4-0.7c0.2-1.1,0.2-2.2,0-3.4
			c-0.2-1.5-1.4-1.8-1.7-2.1c-0.4-0.7-0.1-1.5-0.1-2.2c-0.1-0.7,0-1.5,0.2-2.2c0.5-1.8,0.9-3.6,3.5-3.7c2.2-0.1,3.8-1.8,5.1-3.6
			c1.7-2.2,4.3-3.1,6.4-4.6c0.9-0.3,1-1.2,1.6-1.8c3.2-2.1,16.3-5.1,20.7-8.3c1.8-1.3,4.9-3.7,7.6-5.8C117.5,59,131,49.1,143.5,46
			c1.4-0.4,4.9-0.6,5.1-0.4c7.6,0,15.2,0,22.8,0c0.6,0,1.2,0,1.9,0.1c-0.3,1,12.3,5.7,18.6,8.2c0.3,0.1,0.6,0.2,0.9,0.4
			c0.4,0.3,0.8,0.7,0.8,1.2c-0.1,0.6-0.6,0.7-1.1,0.9c-1,0.4-2.3-0.2-3.2,0.7c-0.1,1.7,0.6,3.2,1.7,4.5c1.3,1.6,1.8,3.6,3.2,5.2
			c1.3,1.4,2.6,2.8,4.3,3.8c0.3,0.5,0.7,0.6,1.2,0.6c0.2,0,0.4,0.1,0.6,0.1c0.6,0.2,1.1,0.6,1.6,1c0.3,0.2,0.5,0.4,0.8,0.6
			c0.4,0.7,1.3,1.3,0.5,2.3c-2.6,0.5-5.2,0.1-7.8,0.2c-0.6,0-1.2,0-1.9,0c-0.7,0.1-1.2,0.4-1,1.2c0.1,0.5,0,1.1,0.5,1.5
			c0.8,0.8,1.5,1.8,2.1,2.7c0.6,0.6,1.2,1.1,2,1.3c2.6,1.5,5.4,2,8.4,1.8c2.8-0.2,5.6,0.3,8.3-0.3c0.8,1.1,0.7,1.4-0.5,1.6
			c-1.7,0.2-3.4,0.1-5.1,0.1c-1.4,0-1.9,0.5-1.9,1.9c0,1.2,0.2,2.5-0.3,3.7c-0.1,0.3,0,0.5,0.2,0.7c1.5,1.3,1.9,3.6,1.1,5.4
			c-0.5,1-1.4,1.3-2.4,1.3c-2,0-4.1,0-6.1,0c-0.9,0-1.8,0.1-2.5-0.5c-0.7-1.4-0.9-3-1.7-4.4c-3.3-6.1-10-8.9-16.2-6.6
			c-2.8,1.1-4.9,3-6.6,5.5c-1.4,2.3-2.5,4.7-2.5,7.5c0,0.6-0.1,1.1-0.6,1.6c-0.6,0.7-1.5,0.8-2.4,0.8c-17.1,0-34.1,0-51.2,0
			c-1.6,0-3.2-0.2-4-2c-0.5-2.9-1.3-5.7-2.9-8.3c-0.3-0.7-0.8-1.2-1.4-1.7c-2.5-2.3-5.4-4-8.9-4.1c-4-0.2-7.3,1.4-10,4.2
			c-0.3,0.3-0.6,0.7-1,1s-0.6,0.7-0.8,1.2c-1.5,2.3-2.1,4.9-2.5,7.5C83.9,100.6,83.9,101.2,83.4,101.6z"/>
		<path class="st2" d="M203.5,75c-0.4-0.7-0.7-1.3-1.1-2c0.7-0.7,1.6-0.4,2.4-0.5c0.7-0.1,1.5,0.2,2-0.5c0.2-0.3,0.3-0.5,0.6-0.6
			c1.7-0.4,3.4-0.4,5.1,0c0.3,0.1,0.4,0.4,0.5,0.7c0.1,0.3,0.1,0.6,0.3,0.8c0.4,0.4,0.9,0.3,1.5,0.3c6.4,0,12.9-0.1,19.3,0.1
			c0.4,0,0.7,0,1-0.3c1.5-0.2,1.7,1,2.1,1.9c-0.4,0.9-1.6,1.2-1.7,2.4c-0.3,0.8-0.5,1.6-0.5,2.4c0.1,0.9-0.2,1.8-0.7,2.5
			c-0.1,0.7-0.3,1.4-0.4,2c-0.1,0.7,0.4,0.5,0.8,0.5c1.3,0,2.7,0.1,4,0c1-0.1,1.3,0.4,1.3,1.2c-0.2,3,0.6,5.9,0.6,8.9
			c0,1,0.1,2.1-0.6,2.9c-1.2,1.1-2.7,0.4-4,0.9c-0.5,0-1.1,0-1.6-0.1c-0.6-0.2-1.2-0.2-1.9-0.2c-8,0-15.9,0-23.9,0
			c-0.7,0-1.4,0-2,0.2c-2.6,0.1-5.2,0.4-7.7-0.1c-0.2-0.1-0.3-0.3-0.1-0.5c2,0,4.1-0.1,6.1,0c1.6,0.1,2.3-0.7,2.3-2.2
			c0-0.6,0-1.3,0-1.9c-0.1-1-0.3-2.1-1.8-1.8c-0.3,0.1-0.7,0-0.8-0.4c0-0.3,0.2-0.5,0.5-0.5c0.8-0.1,0.7-0.7,0.7-1.3
			c0-1.1,0.1-2.3,0-3.4c-0.1-1.3,0.4-1.6,1.6-1.5c2,0.1,4,0,6,0c1.1,0,1.2-0.3,0.4-1c-1.1-0.3-1.3-1.2-1.5-2.1
			c0.2-2-0.8-3.4-2.4-4.5c-0.6-0.3-1-0.8-1.6-1.2c-1.4-1.1-3.1-0.5-4.6-1.1C203.6,75.2,203.6,75.1,203.5,75z"/>
		<path class="st3" d="M212.7,71.7c-1.8,0-3.7,0-5.5,0c-2.3,0.8-4.6,0.6-6.9,0c-0.2,0-0.4,0-0.6-0.1c-0.5-0.2-1.1-0.2-1.4-0.6
			c-3.8-2-5.8-5.5-7.5-9.2c-0.7-1.2-1.9-2.4-1.6-4c0.6-1.1,2.1-1,3.1-1c4.3,0,8.5,0,12.8,0c1,0,1.9,0,2.7,0.8c0.4,0.5,1,0.5,1.6,0.5
			c2.3,0,4.5,0,6.8,0c0.4,0,0.9,0,1.1-0.2c1.9-1.7,4.2-1.1,6.3-0.8c1,0.2,1.9-0.5,2.8-0.2c0.2,0.1,0.4,0.2,0.5,0.3
			c2.9,4.5,5.8,9.1,7.2,14.4c-0.4,0.6-1.1,0.5-1.7,0.5c-6,0-12,0-18,0C213.9,72.1,213.3,72.1,212.7,71.7z"/>
		<path class="st4" d="M189.7,57.9c-0.5,0.1-0.6-0.4-0.9-0.6c-0.5-1.1,0.5-0.9,1-1c0.9-0.2,1.9,0.1,2.9-0.3c0.3-0.1,0.8-0.1,0.7-0.5
			c0-0.3-0.3-0.6-0.6-0.7c-1.1-0.5-2.2-0.9-3.3-1.3c-7.6-2.9-26.5-7.4-28.1-7.9c3.3,0,24.3,0.1,30.4,0.1c4.6,0.2,9.2,0.7,13.7,1.8
			c0.7,0.2,16.2,4.6,21.5,7.2c0.7,0.4,1,0.9,1.1,1.5c0.2,0.9-0.9,0.5-1.1,1c-0.1,0-0.1,0-0.2,0c-2.1-0.4-4.1-0.3-6.2-0.2
			c-0.8,0-1.7,0.4-2.4-0.2c0.3-0.9-10.7-0.2-10.8,0.1c-0.7,0.4-1.4,0.1-2.1,0.1C200.8,57,190.4,57.2,189.7,57.9z"/>
		<path class="st5" d="M193.6,103.1c-0.4,0.2-0.5,0.5-0.7,0.9c-2.1,4.1-5.6,6.3-10.2,6.2c-4.5,0-7.8-2.4-9.9-6.4
			c-0.1-0.2-0.3-0.5-0.4-0.7c-0.7-0.8-0.7-1.9-1-2.8c-0.4-1.9,0.3-3.6,0.7-5.3c3.3-6.5,9.6-9.1,15.8-6.2
			C192.9,91,196.1,97.6,193.6,103.1z"/>
		<path class="st5" d="M108.1,103.1c-1.7,3.5-4.3,6.1-8.3,6.9c-5.2,1-10.3-1.6-12.3-6.6c-0.4-1.1-1-1.5-2-1.6
			c0.6-0.6,0.7-1.4,0.7-2.2c0-5.6,3.5-10.3,8.6-11.5c5.6-1.4,10.9,1,13.4,6.3C109.3,97.1,110.1,100.2,108.1,103.1z"/>
		<path class="st3" d="M122,103.2c1.1,0,2.1,0.2,3.2,0c0.5-0.4,1.2-0.3,1.8-0.3c4.6,0,9.1,0,13.7,0c0.7,0,1.5-0.2,1.9,0.7
			c-1.7,4.2-4.9,6.4-9.2,6.8s-7.7-1.4-10.2-5C122.7,104.6,122.4,103.9,122,103.2z"/>
		<path class="st3" d="M207.2,103.2c4.7,0,9.4,0,14.1,0c2.2,0,4.4,0,6.6,0c-3,5.7-7.3,8-12.8,6.8
			C211.3,109.1,208.7,106.8,207.2,103.2z"/>
		<path class="st6" d="M81.3,79.8c-1.5,1.3-2.8,3-4.9,3.4c-1,0.2-2,0.4-2.9-0.3c1.7-2.5,3.9-4.3,6.6-5.6c2.1-1,4.2-2.2,6.3-3.3
			c0.6-0.3,1.9-0.8,2.5-0.7C89.3,75.2,83.2,78,81.3,79.8z"/>
		<path class="st7" d="M234.6,99.7c0.1,0,0.2,0,0.3,0c0.3,0.4-0.1,0.5-0.2,0.7c-0.2,0.1-0.5,0.2-0.7,0.3c-0.6-0.5-1.3-0.3-2-0.3
			c-11.3,0-22.6,0-33.8,0c-0.6,0-1.6,0.5-1.8-0.7c0.6-0.5,1.3-0.3,2-0.3c11.5,0,22.9,0,34.4,0C233.3,99.4,234,99.2,234.6,99.7z"/>
		<path class="st8" d="M142.6,103.4c-0.6-0.4-1.3-0.3-2-0.3c-5.1,0-10.3,0-15.4,0c0.2-1,0.9-0.7,1.5-0.7c8.6,0,17.2,0,25.9,0
			c0.2,0.2,0.2,0.4,0,0.6c-2.8,0-5.6,0-8.3,0.1C143.6,103.2,143,103,142.6,103.4z"/>
		<path class="st9" d="M234.7,98.3c-0.2-0.1-0.4-0.1-0.7-0.1c-8.9,0-17.9,0-26.8,0c-0.2,0-0.5,0-0.7,0.1c-2.6,0-5.2,0-7.8,0
			c-0.7-0.5-1.9,0.5-2.4-0.7c-0.3-5-5.3-10.4-10.7-11.7c-5.4-1.2-11.4,1.5-14.4,6c-1.8,2.8-2.4,5.8-2.3,9.1c-0.4,1-1.3,0.9-2.2,0.9
			c-17.2,0-34.4,0-51.6,0c-0.4,0-0.8,0.1-1.2,0c-1.1-0.4-2.6-0.4-2.4-2.2c-0.1-3-2.4-8.2-3.6-9.4c-2-2-4.8-3.8-7.6-4.4
			c-5.6-1.1-11.8,1.8-14,5.1c-1.9,2.9-3.1,6.7-2.9,10.6c0.7,0.1,1.3,0.1,2,0.2c0.8-0.1,1.3-0.1,1.2-1.4C86,95,89.3,90.1,94.3,88.6
			c6.3-1.9,12.5,1.7,14.1,8c0.6,2.3,0.2,4.4-0.3,6.5c1.4,0,11.1,0,13.9,0c1.3,0.7,2.6,0.8,3.9-0.1c0.5-0.2,1-0.1,1.5-0.1
			c8.3,0.1,16.7-0.2,25-0.1h0.1c0,0.1,0,0.2,0,0.3c6.6,0,13.2,0,19.8,0c-1.4-3.1-0.2-7.3,0.7-9.1c2.1-4.3,7-6.3,11.2-5.8
			c4.8,0.6,7.9,3.5,9.3,8.2c0.7,2.3,0.1,4.5,0,6.7c4.5,0,9.1,0,13.6,0.1c0.6,0.5,1.3,0.6,2.1,0.6c5.5-0.2,10.9-0.1,16.4-0.1
			c0.8,0,1.6-0.1,2.3-0.5c2.4,0,4.1-1.6,6.1-2.5c-0.5-1.2-1.5-0.8-2.3-0.8c-10.6,0-21.2,0-31.9,0c-0.7,0-1.4,0.1-2-0.1
			c0.4-0.5,1.1-0.2,1.6-0.3c10.9,0,21.9,0,32.8,0c0.7,0,1.4-0.1,2,0.2c0.2,0.1,0.4,0.2,0.6,0.2c0.8-0.2,1.4-0.6,1.4-1.5
			C235.6,98.3,235.2,98.3,234.7,98.3z"/>
		<path class="st10" d="M237.7,74.8c-0.1,0.6-0.4,0.4-0.7,0.2c-0.3-0.9-0.8-1.7-1.7-2c-0.4,0.4-0.9,0.3-1.5,0.3c-6.5,0-13,0-19.5,0
			c-0.6,0-1.2,0.1-1.6-0.3c0-0.2,0-0.5,0-0.7c0.7-0.5,1.4-0.3,2.1-0.3c6.6-0.1,13.2,0.1,19.8-0.1C236.1,72.5,237,73.5,237.7,74.8z"
			/>
		<path class="st11" d="M234.7,71.9c-0.5,0.7-1.2,0.4-1.9,0.4c-6.7,0-13.4,0-20.1,0c0-0.2,0-0.4,0-0.7c7.2,0,14.3-0.1,21.5-0.1
			C234.4,71.7,234.5,71.8,234.7,71.9z"/>
		<path class="st12" d="M73.5,82.9c2.4,0.4,4.4-0.3,6.2-2c0.5-0.5,1.8-1.4,2.7-1.9c-1.4,2.4-4.3,4.8-7.2,4.9
			c-0.9,0.1-1.6,0.4-1.8,1.2c-0.4,1.3-1.2,2.5-0.9,4c-0.2,0.2-0.3,0.5-0.6,0.3C71.9,87.1,72.4,84.9,73.5,82.9z"/>
		<path class="st13" d="M239.8,80.5c-0.1-2.1-0.9-3.9-2-5.7c-0.2,0-0.5,0.1-0.7,0.2c-0.8,0.5-2,0.7-2.3,2c-0.4,1.9-0.3,4.1-0.3,5.2
			c0.6,0,2.9-0.2,4.4-0.3C239.7,81.9,239.8,80.5,239.8,80.5z"/>
		<path class="st14" d="M234.7,100.4c0.1-0.2,0.1-0.5,0.2-0.7c0.4-0.5,0.8-0.9,1.2-1.4c1.3-0.5,2.7-0.1,4-0.5c0.3,1.4-0.1,2-1.6,1.9
			C237.2,99.7,235.8,99.6,234.7,100.4z"/>
		<path class="st15" d="M71.9,91.2c0-0.4-0.1-0.7-0.1-1.1c0-0.2,0.1-0.5,0.1-0.7c0.2-0.1,0.4-0.2,0.6-0.3c0,0.8,0,1.5,0,2.3
			C72.1,91.8,72,91.4,71.9,91.2z"/>
		<path class="st3" d="M124.5,58.6c5-3.2,10.1-6.1,15.7-8c0.4-0.1,5.1-1.5,7-1.7c4.9-0.5,9.7-0.4,14.5,0.5c-0.4,0.9-0.2,1.8-0.2,2.7
			c0,5.5,0,11.1,0,16.6c0,0.8,0,1.7-0.7,2.4c-0.9,0.6-2.1,0.2-3,0.6c-2.4,0.4-4.9,0.4-7.3,0.5c-7.4,0.2-14.8,0.6-22.1,0.9
			c-2.4,0.1-4.7,0.5-7.1,0.3c-0.2-0.1-0.4-0.1-0.5-0.3c-0.1-0.2-0.1-0.3,0-0.5c2.2-0.2,2.7-1.8,2.9-3.6c0.2-2.9,0.9-5.7,1.1-8.5
			C124.8,59.8,124.9,59.2,124.5,58.6z"/>
		<path class="st3" d="M167.6,50.5c2,0.5,4,0.9,6.1,1.4c1.7,0.2,3.2,0.9,4.9,1.1c0.5,0.1,1,0.1,1.3,0.6c0,0.1,0,0.2,0.1,0.2
			c-1.4,2.5-0.7,5.3-1.2,8c-0.4,2.3-0.2,4.7-0.7,7.1c-0.1,0.5-0.2,1-0.5,1.4c-3.4,0.2-6.8,0.4-10.2,0.6c-0.3-0.5-0.2-1-0.2-1.5
			c0-5.6,0-11.1,0-16.7C167.1,52,167,51.1,167.6,50.5z"/>
		<path class="st16" d="M158.1,71.3c0.8-0.6,1.8-0.1,2.7-0.4c0.7-0.5,1.5-0.4,2.3-0.4c0.2,0,0.4,0,0.5,0c0.4,0,0.7,0.1,1,0.3
			c0.1,0.1,0.1,0.1,0.2,0.2c-0.3,3.1-1.5,5.9-2.2,8.9c-1.7,6.2-3.5,12.4-5.1,18.7c-0.4,1.5-0.9,2-2.4,1.9c-0.8-0.1-1.7,0-2.6,0
			c-1.6,0.2-3.2,0.1-4.8,0.1c-6.9,0-13.8,0-20.7,0c-0.6,0-1.3,0.1-1.9-0.1c-1.4,0-2.7-0.1-4.1,0c-1.1,0.1-1.4-0.4-1.4-1.5
			c0-8.6,0-17.3,0.1-25.9c0.1-0.1,0.1-0.1,0.2-0.2c0.3-0.2,0.6-0.1,0.9,0.1v0.1c0.5,0.5,0.4,1.1,0.4,1.8c0.2,7.2,0,14.4,0.1,21.5
			c0,2.4,0,2.3,2.3,2.5c8.9,0.7,17.9,0.1,26.8,0.3c1.4,0,2.8-0.3,4.3-0.4c1.1,0,1.5-0.9,1.8-1.8c0.6-2.1,1.2-4.3,1.8-6.4
			c1.5-5.6,3.2-11.2,4.6-16.8c0.4-1.7,0.3-1.8-1.4-1.9C160.3,71.7,159.1,72.1,158.1,71.3z"/>
		<path class="st17" d="M195,81.3c-1-0.8-2.5-3.5-2.8-4.1c-0.6-1.5-0.3-2,1.3-2c3.3-0.1,6.7,0,10-0.1l0,0c1.6,1.2,2.7,5.4,1.8,7.1
			c-2.9,0.5-5.8,0.4-8.6,0.1C196.1,82.1,195.5,81.7,195,81.3z"/>
		<path class="st18" d="M167.6,50.5c0,6.1,0,12.3,0,18.4c0,0.7,0.1,1.4-0.3,2c-0.8,0-1.6,0.1-2.4,0.1l0.1-0.1
			c-0.3-0.3-0.5-0.8-0.5-1.2c0-6.1,0-12.2,0-18.4c0-0.8,0.2-1.7,1.4-1.3C166.4,50.2,167,50.3,167.6,50.5z"/>
		<path class="st19" d="M163.5,70.9c-0.9,0-1.8,0-2.7,0c0.4-0.7,0.3-1.4,0.3-2.2c-0.1-6.2,0.2-12.3-0.2-18.5c0-0.7,0.2-0.9,0.9-0.9
			c0.6,0.1,1.2-0.1,1.7,0.3c0.5,0.6,0.5,1.4,0.5,2.1c0,5.7,0,11.3,0,17C164,69.5,164.1,70.3,163.5,70.9z"/>
		<path class="st20" d="M196.4,82c3.1,0,6.1,0,9.2-0.1c0.9-0.7,2-0.5,3-0.5c1.2,0.1,2.5-0.2,3.6,0.3c0.1,0.1,0.1,0.2,0.2,0.2
			c0.5,0.7,0.9,1.4,1.4,2.1c0,0.3,0,0.6-0.4,0.6c-4.1-0.2-8.3,0.4-12.4-0.2C199.4,84.2,196.1,82.3,196.4,82z"/>
		<path class="st21" d="M177.5,70.3c0.3-4.8,1-9.6,1.1-14.5c0-0.7-0.2-2,1.3-2c2.7,0.3,2.7,0.3,2.2,2.9c-0.7,3.2-1.4,6.3-2.2,9.5
			c-0.8,1.3-0.8,2.8-1.4,4.1C178.2,70.3,177.8,70.3,177.5,70.3z"/>
		<path class="st22" d="M124.5,58.6c0.7,0,1.1-0.1,0.8,1.1c-0.6,2.8-0.9,5.6-1.1,8.5c-0.1,1.3-0.4,2.6-0.8,3.8
			c-0.4,1.3-1.8,0.4-2.6,0.7c-0.5-0.5-0.6-1.1-0.4-1.7c0.6-3.1,0.8-6.3,1.4-9.4c0.1-0.5,0.2-1.1,0.7-1.5
			C122.9,59.3,123.8,59.1,124.5,58.6z"/>
		<path class="st23" d="M115.6,64.7c1.4-1.5,3.3-2.4,4.8-3.7c0.5-0.3,1.2-0.3,1.1,0.4c-0.5,3.9-0.4,7.8-1.9,11.5l0.1,0.1
			c-0.9,0-1.8,0-2.8,0c0.1-1.4,0.8-2.8,0.6-4.3c-0.2-1.3-0.5-2.3-2-2.5c0-0.1,0-0.1,0-0.2C115.2,65.6,115.3,65.2,115.6,64.7z"/>
		<path class="st24" d="M165.8,50.1c-0.9,0-1,0.5-1,1.2c0,6.5,0,13.1,0.1,19.6c-0.4,0-0.8,0-1.1,0c-0.2-6.9-0.1-13.9-0.1-20.8
			c0-0.1,0.1-0.2,0.2-0.3C164.5,49.8,165.2,49.5,165.8,50.1z"/>
		<path class="st25" d="M168.9,101.1c0.2,1.4-0.9,0.9-1.5,0.9c-5.7,0-11.4,0-17.1,0c-11.9,0-23.9,0-35.8,0c-0.3,0-0.7,0-1,0
			c-1.9,0.2-2.4-0.6-2-2.3c0.6,1.8,2.2,2,3.7,2c12.4,0,24.8,0,37.2,0c4.6,0,9.1,0,13.7,0C167.2,101.7,168.1,101.7,168.9,101.1z"/>
		<path class="st26" d="M111.2,77.2c1.1,0.2,2.8-0.4,2.8,1.3c0,1.7-1.7,1.3-2.8,1.3c-1.1,0-2.8,0.5-2.7-1.4
			C108.6,76.7,110.2,77.3,111.2,77.2z"/>
		<path class="st27" d="M119.6,73c0.4-3.2,0.9-6.4,1.2-9.7c0.1-0.7,1.2-1.9-0.5-2.2c0.7-0.3,1.3-0.7,2-1c-0.5,4.2-1.1,8.4-1.6,12.7
			c0,0.1,0,0.2,0,0.3C120.4,72.9,120,72.9,119.6,73z"/>
		<path class="st28" d="M115.2,73c-2.1-0.1-4.2,0.3-6.2-0.5c-1.4-0.5-1.4-1.2-0.4-2.3c0.3,0.2,0.4,0.5,0.5,0.8
			c-0.1-0.3-0.3-0.5-0.6-0.8c0.3-0.5,0.6-1,1.3-1.2c0.1,1.4,0.8,2.2,2.1,2.6c0.4,0.3,1,0.2,1.4,0.6c0.2,0,0.4,0.1,0.6,0.1
			C114.7,72.4,115.3,72.1,115.2,73z"/>
		<path class="st25" d="M125.2,100.4c9.1,0,18.2,0,27.3,0c-0.4,0.4-1,0.3-1.5,0.3c-8.1,0-16.3,0-24.4,0
			C126.1,100.7,125.6,100.9,125.2,100.4z"/>
		<path class="st29" d="M163.9,49.8c0,6.4,0,12.8-0.1,19.3c0,0.6,0,1.2-0.1,1.9h-0.1h-0.1c0-7.1,0-14.1,0-21.2
			C163.6,49.7,163.7,49.8,163.9,49.8z"/>
		<path class="st30" d="M117.6,67c-0.4-1-1-1.5-2.1-0.8c-1.2,0.5-0.5,4.1-0.5,4.1l0,0c0.1,0.7-0.3,2,0.7,2.7c0.4,0,0.8,0,1.3,0
			C118.3,71.1,118.4,69.1,117.6,67z"/>
		<path class="st1" d="M73.9,93.5c0.1-0.7-0.5-1.1-0.7-1.7c0.1-1.5-0.2-3,0.2-4.5c0.7,0.2,0.5,0.8,0.5,1.1c0.1,1.5-0.4,3,0.7,4.4
			c0.2,0.2,0,0.5-0.2,0.8C74.1,93.7,74,93.7,73.9,93.5z"/>
		<path class="st31" d="M200.4,71.7c2.3,0,4.6,0,6.9,0c0,0.2,0,0.4,0,0.6c-1.8,0.7-3.7,0.2-5.5,0.4C201.3,72.3,200.9,72,200.4,71.7z
			"/>
		<path class="st32" d="M201.8,72.7c1.8-0.7,3.7-0.2,5.5-0.4c-0.1,0.8-0.8,0.7-1.3,0.7c-1.2,0-2.4,0-3.6,0
			C202.1,73,201.9,72.9,201.8,72.7z"/>
		<path class="st33" d="M178.5,70.3c0-1.5-0.1-3.1,1.4-4.1C179.6,67.6,179.9,69.2,178.5,70.3z"/>
		<path class="st1" d="M115.2,73c-0.4-0.2-0.7-0.4-1.1-0.6c0.3-0.7-0.5-1.7,0.7-2.1c0.1,1,0.4,1.8,0.8,2.7
			C115.5,73,115.4,73,115.2,73z"/>
		<path class="st34" d="M115.6,64.7c0,0.4,0,0.9,0,1.3c-0.7,0.2-1.4,0.3-2.3,0.6C114,65.6,114.6,65,115.6,64.7z"/>
		<path class="st35" d="M74.3,93.5c-0.1,0-0.4-1.4-1.1-1.8c-0.2-0.1-0.5-0.3-0.7-0.4s-0.4-0.1-0.6-0.2c-0.3,1.3,1.3,6.6,2.4,6.4
			C74.2,97.4,74.6,94.7,74.3,93.5z"/>
		<path class="st36" d="M198.8,98.3c-0.7-0.5-2.1,1.2-2.4-0.7c0.7,0.7,1.6,0.3,2.4,0.4C198.7,98.1,198.7,98.2,198.8,98.3z"/>
		<path class="st1" d="M113.6,72.3c-0.6,0-1-0.2-1.4-0.6C112.7,71.7,113.4,71.4,113.6,72.3z"/>
		<path class="st37" d="M224.5,89.8c-2.2,0-4.4,0-6.7,0c-1,0-1.4-0.3-1.4-1.4c0.1-4.2-0.5-3.4,3.3-3.5c3.9-0.1,7.7,0,11.6,0
			c1.1,0,1.5,0.3,1.5,1.4c-0.1,4.1,0.5,3.3-3.3,3.4c-0.6,0-1.1,0-1.7,0C226.8,89.8,225.7,89.8,224.5,89.8z"/>
		<path class="st38" d="M212.7,73c7.5,0,15.1,0,22.6,0c-0.2,0.4,0.5,1.5-0.8,0.8c-0.5-0.2-1.1-0.2-1.7-0.2c-6.1,0-12.3,0-18.4,0
			C213.8,73.7,213,74.1,212.7,73z"/>
		<path class="st36" d="M234.7,98.3c-9.4,0-18.8,0-28.2,0c0.4-0.4,1-0.3,1.5-0.3c8.4,0,16.8,0,25.2,0
			C233.7,98,234.3,97.9,234.7,98.3z"/>
		<path class="st10" d="M191.7,57.5c0.9-0.5,2.4-0.9,3.4-0.8c3.6,0.1,7.3-0.3,10.9,0.3c0.4,0.1,0.9,0.1,1.3-0.3
			c3.6-0.8,7.3-0.8,10.9,0c0.7,0.6,1.5,0.3,2.3,0.2c1.9-0.4,3.7-0.1,5.6-0.2c0.4,0,0.6,0.2,0.7,0.6c-2.4,0.8-4.8-0.2-7.2,0
			c-0.6,0.1-1.3-0.2-1.5,0.8c-0.1,0.7-0.7,0.6-1.2,0.6c-2.8,0-5.6,0-8.4,0c-0.4,0-1,0.1-1.1-0.3c-0.3-1.5-1.5-1.1-2.5-1.1
			C200.7,57.3,196,57.5,191.7,57.5z"/>
		<path class="st39" d="M189.8,99.2c0,3.8-3.2,6.9-7,6.9s-6.9-3.2-6.9-7.1c0-3.7,3.2-6.8,6.9-6.8C186.7,92.2,189.9,95.4,189.8,99.2z
			"/>
		<path class="st39" d="M97.6,92.2c3.7,0,6.9,3.2,6.9,6.8c0,3.8-3.1,7-6.9,7.1c-3.8,0-7.1-3.2-7-7.1C90.7,95.3,93.9,92.2,97.6,92.2z
			"/>
		<path class="st40" d="M234.6,99.7c-12.8,0-25.5,0-38.3,0c0.1-0.8,0.8-0.7,1.3-0.7c11.9,0,23.8,0,35.7,0
			C233.8,99,234.5,98.8,234.6,99.7z"/>
		<path class="st1" d="M158.1,71.3c1.5,0,3,0,4.4,0c1,0,1.5,0.2,1.1,1.4c-2.3,8.3-4.5,16.5-6.8,24.8c-0.4,1.4-1,2-2.7,2
			c-8.9,0.4-17.7,0.1-26.6,0.2c-1.9,0-3.9-0.2-5.8-0.2c-1.3,0-1.1-0.9-1.1-1.6c0-6.3,0-12.5,0-18.8c0-2,0-4,0-5.9
			C133.2,72.5,145.6,71.9,158.1,71.3z"/>
		<path class="st41" d="M209.3,75.9c-1.2-0.6-4.1-0.7-5.8-0.8c1.3,2.1,1.4,4.5,2,6.8c1,0,2.1,0,3.1,0c1.2,0,2.4,0,3.7,0l0,0h0.1
			C213.1,80.2,209.8,76.1,209.3,75.9z"/>
		<path class="st42" d="M108.7,70.2c1-0.1,1.1,0.7,1.3,1.3c0.1,0.2-0.2,0.3-0.5,0.3C108.7,71.6,108.7,70.9,108.7,70.2L108.7,70.2z"
			/>
		<path class="st43" d="M224.8,85.7c2.1,0,4.1,0.1,6.2,0c1.5-0.1,1.3,0.9,1.3,1.8s0.2,1.7-1.2,1.7c-4.2-0.1-8.4-0.1-12.6,0
			c-1.6,0-1.1-1-1.2-1.9c-0.1-1,0-1.7,1.3-1.6C220.6,85.7,222.7,85.7,224.8,85.7z"/>
		<path class="st44" d="M183,101.4c-1.4,0-2.4-1-2.4-2.3c0-1.2,1-2.2,2.3-2.2s2.2,0.9,2.2,2.2C185.1,100.5,184.3,101.4,183,101.4z"
			/>
		<path class="st45" d="M97.6,96.9c1.3,0,2.3,1,2.3,2.3s-1.1,2.3-2.5,2.2c-1.4-0.1-2-0.9-2-2.3C95.3,97.8,96.3,96.9,97.6,96.9z"/>
		<path class="st46" d="M155,74.4c1.7-0.2,3,0.8,4.4,1.3c0.9,0.3,0.9,1.6,0,2.2c-2.7,2-5.5,2.5-8.4,0.4c-0.5-0.4-1-0.8-1-1.5
			c0-0.6,0.4-1.1,1-1.2C152.4,75.3,153.5,74.2,155,74.4z"/>
		<path class="st47" d="M155.2,76.3c1,0,1.9,0,2.9,0c0.4,0,0.7-0.1,0.8,0.3s-0.2,0.7-0.6,0.7c-2.3,0.1-4.6,0.1-7,0.1
			c-0.3,0-0.5-0.3-0.4-0.6c0.1-0.4,0.4-0.4,0.7-0.4C152.8,76.4,154,76.4,155.2,76.3C155.2,76.4,155.2,76.4,155.2,76.3z"/>
	</g>
	<g>
		<path class="st48" d="M14.1,26.8c-0.9,0-2.4-0.6-2.4-1.5l0.3-0.5c0.2-0.9,0.6-1.6,0.9-1.5l3.4,1.3c0.8,0.4-0.1,1.9-0.1,1.9
			C16.2,27.4,14.1,26.8,14.1,26.8z"/>
		<path class="st49" d="M14.9,48.9c-0.2-1.3-0.2-2.6-0.4-3.9c0-0.2,0-0.4-0.1-0.7c-0.7,1.3-1.5,2.4-2.4,3.4
			c-1.4,1.6-3.1,2.3-5.1,2.5c-0.6,0.1-1.1-0.1-1.6-0.4c-1.5-1.1-2.2-2.5-1.8-4.4c0.5-2.3,1.2-4.6,2-6.9c1.5-4.2,3.1-8.3,4.8-12.4
			c0.3-0.7,0.3-0.7,1.2-0.6c0.2-0.1,0.3,0.1,0.4,0.1c0.9,0.2,1.8,0.4,2.7,0.8c0.4,0.4,0.8,0.6,1.2,0.9c0.5,0.3,0.5,0.5,0.4,1
			c-0.9,2.6-1.8,5.2-2.8,7.8c-0.9,2.6-1.8,5.1-2.7,7.7c-0.2,0.4-0.4,0.9-0.4,1.4c0.3-0.1,0.3-0.3,0.4-0.5c0.7-2,1.5-4,2.2-6
			c0.3-0.7,0.5-1.4,0.8-2.1c0.1-0.1,0.1-0.3,0.3-0.3s0.2,0.2,0.2,0.4c0.1,0.7,0.1,1.4,0.1,2c0.1,1.7,0.2,3.3,0.2,5c0,0.1,0.1,0,0,0
			l0,0c-0.1-1.8-0.1-3.6-0.3-5.4c-0.1-0.8,0-1.6-0.2-2.3c0-0.1,0-0.2,0-0.4c0.7-1.6,1.1-3.3,1.8-4.9l0.1-0.1
			c0.2-0.1,0.5,0.1,0.7,0.1s0.2,0.2,0.2,0.4c0.1,2.2,0.6,4.4,1.3,6.5c0.2,0.7,0.3,0.7,1,0.6c0.3-0.1,0.6-0.1,0.9-0.1
			c0.1,0,0.3,0,0.4,0.1s0,0.3-0.1,0.4c-0.2,0.3-0.4,0.5-0.7,0.7c-0.3,0.3-0.3,0.5-0.1,0.9c0.8,1.6,1.8,3.1,2.8,4.6
			c1,1.6,2.2,3.2,3.3,4.8c0.1,0.2,0.2,0.5,0.6,0.3c0.5-0.3,0.8-0.8,1.2-1.2c2-2.2,3.6-4.7,5.1-7.3c0.2-0.4,0.3-0.7,0-1
			c-0.1-0.1-0.4-0.4-0.3-0.5c0.1-0.1,0.3-0.2,0.4-0.2c0.5,0.2,0.9,0.1,1-0.3c0.6-1.4,1-2.9,1.3-4.3c0-0.2,0.1-0.3,0.2-0.5h0.1
			c0.9,0.4,1.8,0.7,2.6,1.3c0.2,0.3,0.3,0.6,0.3,1c-0.1,0.7-0.4,1.3-0.7,1.9c-0.5,1.4-0.8,2.8-1.1,4.2c0,0.1,0,0.1,0,0.2
			c-0.1,0.5-0.5,0.8-0.8,1.2c-1.9,2.7-3.7,5.5-5.3,8.4c-0.3,0.5-0.3,0.6,0.3,0.6c0.6,0,1.3,0.1,1.9,0.1c0.1,0,0.3,0,0.4,0.2
			c-0.3,0.9-0.8,1.7-1.1,2.5c-0.6,1.4-0.9,2.8-1.3,4.2c0,0.1,0,0.2,0,0.4c0,0.3,0.1,0.5,0.4,0.4c0.8,0,1.6,0.1,2.4,0
			C33.8,61,34.4,61,35,61c0.5,0,0.6,0.1,0.7,0.7c0.2,1.4,0.4,2.9,0.6,4.3c0.3,1.8,0.4,3.5,0.8,5.3c0.2,1,0,1.2-1,1.3
			c-0.5,0.1-1,0.2-1.5,0.4c0,0-0.1,0-0.2,0c-0.2,0-0.9,0.1-1,0c-0.7-0.7-1.2-0.3-1.5-2.4C31.8,70,31,70,30.5,70.2
			c-0.4,0.1-0.8,0.1-1.2-0.1c-0.5-0.3-1.1-0.2-1.6,0.3c-0.6,0.6-1.3,1.3-1.9,1.9c-0.1,0.1-0.3,0.5-0.5,0.1c0-2.1,0.1-4.2,0.2-6.3
			c0-0.7,0-1.4,0-1.8c0.1,1.7-0.2,3.6-0.2,5.5c0,1-0.1,1.9,0,2.9c0,0.3-0.2,0.4-0.4,0.6c-0.6,0.5-0.7,1-0.4,1.8
			c0.1,0.3,0.2,0.7,0.2,1s0,0.6,0,0.9c-0.1,0.3-0.1,0.6-0.1,0.9c-0.1,1.8-0.3,3.5-0.4,5.3c-0.1,1-0.2,2-0.4,3
			c-0.1,0.5-0.2,0.9-0.5,1.3c-0.2,0.3-0.2,0.6,0,1c0.3,0.4,0.3,0.9,0.2,1.4c-0.4,1.9-0.3,3.8-0.1,5.7c0.3,2.8,0.8,5.5,1,8.3
			c0.2,2,0.2,4.1,0,6.1c0,0.2-0.1,0.3-0.1,0.5c-0.2,0.6-0.3,0.7-1,0.6c-0.8-0.3-1.7-0.2-2.5-0.2c-0.3,0-0.5,0-0.8-0.1
			c0.8-1.5,0.6-3,0.5-4.6c0-1.2-0.1-2.4-0.2-3.5c-0.1-1.9-0.3-3.9-0.5-5.8s-0.3-3.8-0.2-5.7c0-0.6,0.1-1.2-0.1-1.9
			c-0.1-0.3,0-0.6,0.2-0.8c0.3-0.6,0.4-1.2,0.4-1.9c0-0.6-0.3-0.4-0.3-1c0-0.1,0-0.8,0-0.9c0.2-2.4-0.4-4.6-0.2-7.1
			c0-0.5,0.5-1.2,0.5-1.8c0-0.5-2.8-1.5-5.6-2.1c-0.9-0.2-1-0.4-0.9-1.3c0.4-2.9,0.8-5.7,1.2-8.6c0.1-0.8,0.4-2.8,0.4-3.1
			c0.1-1.5,0.4-3,0.6-4.4c0-0.4,0-0.8-0.1-1.2c-0.1-1-0.3-1.9-0.4-2.9c0-0.1-0.1-0.2-0.1-0.2c-0.1,0-0.1-0.1-0.1-0.2l0,0h0.1
			C15.1,50.5,15,49.7,14.9,48.9C14.9,48.9,15,48.9,14.9,48.9C14.9,48.8,14.9,48.9,14.9,48.9z"/>
		<path class="st50" d="M32.7,53.5c-0.8,0-1.7-0.1-2.5-0.1c-0.6,0-0.6-0.1-0.3-0.6c2-3.3,4-6.6,6.3-9.7c0-0.2,0.2-0.4,0.3-0.6
			c0.6-0.9,1.3-1.7,2-2.6c0.1-0.1,1.8-2,2.6-2.8c0.2-0.2,0.7-0.2,0.9-0.2c2.7,0,5.4,0.1,7.9,1c1.2,0.4,2.4,0.8,3.3,1.8
			c0.3,0.3,0.1,1.1-0.3,1.3c-0.2,0.1-0.3-0.1-0.3-0.2c-0.1-0.1-0.1-0.3-0.3-0.2c-0.5-0.5-1-1-1.4-1.4c0.2,0.5,0.5,1,0.7,1.4
			c0.1,0.2,0.2,0.3,0.1,0.5c-1,1-1.9,2.2-2.8,3.4c-0.1,0.2-0.3,0.4-0.4,0.6c-0.5,0-0.9-0.3-1.4-0.3c-0.1,0-0.1,0-0.1,0
			c-0.2-0.1-0.3-0.1-0.5-0.1c-0.5-0.1-1-0.3-1.5-0.3c-0.2,0-0.4,0.1-0.4,0.3c0,0.1,0,0.2-0.2,0.2c-0.1,0-0.2,0-0.3,0s-0.3,0-0.3,0.1
			c-0.1,0.6-0.9,0.8-0.8,1.5c0.1,0.3-0.1,0.7,0.1,1c0.1,0.2,0.3,0.3,0.3,0.5c-0.1,0.4,0.2,0.7,0.5,0.9c0.4,0.4,2.3,0.7,2.7,1.1
			c0.3,0.2-0.5,1.3-0.5,1.7c0,0.1-1,0.9-2.6,1c-0.2,0.3-0.4,0.6-0.6,1c-0.2,0.4-0.5,0.5-0.9,0.4c-1.4-0.1-2.8-0.1-4.2-0.2
			c-0.5,0-1,0.1-1.4-0.1c-0.3-0.1-0.5-0.2-0.8-0.1c-0.1,0.1-0.2,0.1-0.3,0.1C34.1,53.8,33.4,53.8,32.7,53.5z"/>
		<path d="M36.5,72.6c-0.7,0.1-1.3,0.3-2,0.3c0-0.2,0.2-0.2,0.3-0.2c0.6-0.2,1.3-0.2,1.9-0.4c0.3-0.1,0.4-0.2,0.3-0.5
			c-0.2-1.5-0.4-3-0.6-4.4c-0.3-1.9-0.6-3.8-0.8-5.6c-0.1-0.4-0.2-0.5-0.6-0.5c-1.5,0-2.9,0.2-4.4,0.1c-0.3,0-0.4-0.1-0.4-0.4
			c0.1-0.9,0.3-1.7,0.6-2.6c0.4-1.5,1.1-3,1.8-4.4c0.1-0.1,0.1-0.2,0.2-0.3c0.8,0,1.6,0.1,2.4,0.1c-0.3,2.5,0.4,4.9,0.7,7.4
			c0.4,3.2,0.9,6.4,1.4,9.7c0.1,0.4,0.1,0.8,0.2,1.3c0.1,0.4,0,0.6-0.4,0.6C36.8,72.5,36.7,72.6,36.5,72.6z"/>
		<path class="st51" d="M18.8,12.2c0-1.7,0.1-3.5,0.1-5.2c0-0.6,0.2-1,0.7-1.4C20.8,4.7,22,4,23.3,3.4c-0.1-0.3-0.7-0.3-0.4-0.8
			c0.3-0.2,0.7-0.2,1-0.1c0.3,0.1,0.6,0.1,0.9,0c0.4,0.3,0.8,0.6,1,1.1c0.1,0.7,0.1,1.3,0.2,2c0.1,0.3,0,0.7-0.1,1
			c-0.1,0.4-0.4,0.6-0.8,0.7c-0.7,0.2-1.3,0.3-2,0.5s-1.4,0.5-2,0.9C20.7,9,20.2,9.3,20.4,10c0,0,0,0.1,0,0.2
			C20,11.1,19.8,12,19.6,13c-0.2,0.1-0.4-0.1-0.6,0s-0.3,0-0.2-0.2C18.8,12.5,18.8,12.3,18.8,12.2z"/>
		<path class="st52" d="M37.8,107.9c0.6-0.2,1.2-0.3,1.9-0.5c0.2-0.1,0.5-0.1,0.7-0.1c1.8,1.6,4,2.2,6.3,2.3c0.5,0,1,0.2,1.3,0.5
			c0.3,0.2,0.4,0.4,0.7,0.6c0.1,0.1,0,0.1,0,0.2c-1.1,0.8-2.4,1-3.7,1.1c-2.2,0.1-4.3-0.2-6.4-0.8c-0.6-0.2-1.2-0.5-1.8-0.6
			c-1-0.2-2-0.2-3-0.4c-0.4-0.2-0.1-0.4,0.1-0.6c0.7-0.5,1.5-0.9,2.3-1.2C36.7,108.2,37.2,108,37.8,107.9z"/>
		<path class="st53" d="M33.4,17.9c0.2-1,0.5-2.1,0.6-3.1c0.3-1.5,0.5-2.9,0.7-4.4c0-0.3,0.1-0.5,0.1-0.8c0-0.4-0.2-0.6-0.5-0.7
			c-0.6-0.2-1.1-0.1-1.7-0.1c-0.9,0.1-1.5-0.4-1.5-1.3c0-1.5,0.6-2.6,1.5-3.8c0.1-0.1,0.1-0.1,0.2-0.2c0.1-0.2,0.2-0.4,0.4-0.3
			c0.2,0.1,0,0.4,0,0.6c-0.1,0.3-0.3,0.5-0.4,0.8c-0.1,0.2-0.1,0.4,0.1,0.5C33.3,5.4,33.7,5.7,34,6c0.2,0.2,0.3,0.4,0.6,0.5
			c0.6,0.5,1.1,1.2,1.6,1.8c0.7,0.8,0.4,1.7,0.1,2.5c-0.6,1.8-1.1,3.6-1.7,5.4c-0.1,0.2-0.3,0.4-0.3,0.7c0,0.5-0.3,0.8-0.7,1
			C33.5,17.9,33.5,17.9,33.4,17.9z"/>
		<path class="st54" d="M16,30.6c-0.6,1.7-1.2,3.3-1.8,5c-0.1,0.3,0,0.6,0,0.8c0.2,0.8,0.1,1.5,0.2,2.3c0.1,1.3,0.2,2.7,0.1,4
			c0,0.4,0.3,0.9-0.1,1.3c-0.1-2.5-0.3-5-0.4-7.6h-0.1c-0.3,0.7-0.6,1.5-0.9,2.2c-0.7,1.9-1.3,3.8-2,5.6c-0.1,0.3-0.3,0.7-0.4,1
			c-0.1,0.2-0.2,0.4-0.5,0.3C9.8,45.4,10,45.2,10,45c0.6-1.6,1.1-3.3,1.7-4.9c0.7-2,1.5-4,2.2-6c0.5-1.4,1-2.9,1.5-4.3
			c0.2-0.5,0.4-0.9,0.6-1.4c0.2-0.4,0-0.6-0.3-0.7c-0.5-0.2-0.8-0.7-1.3-0.9c-0.2-0.1,0-0.1,0.1-0.2c0.4,0.1,0.7,0.3,1.1,0.4
			c0.2,0,0.4,0,0.5,0.1c1.1,0.4,1.1,0.4,0.7,1.5c-0.2,0.6-0.4,1.2-0.7,1.7C16.2,30.4,16.2,30.6,16,30.6z"/>
		<path class="st54" d="M35.1,34.6c-0.2,1.2-0.6,2.4-0.9,3.6c-0.2,0.6-0.4,1.1-0.7,1.6c-0.1,0.2-0.2,0.3-0.4,0.2s-0.4-0.1-0.6-0.1
			c0,0.1-0.1,0.1,0,0.1c0.8,0.7,0.2,1.4-0.2,2c-1.2,2-2.5,3.9-4,5.7c-0.6,0.7-1.2,1.3-1.7,2c-0.1,0.1-0.1,0.3-0.3,0.2
			c-0.1-0.3,0.1-0.4,0.3-0.6c0.9-1.2,1.6-2.5,2.4-3.8c0.9-1.5,1.9-2.9,2.6-4.5c0.2-0.4,0.2-0.8-0.1-1.2c-0.1-0.2-0.2-0.4-0.3-0.5
			c-0.1-0.2-0.2-0.4-0.1-0.6c0.1-0.2,0.3-0.1,0.5-0.1c0.3,0,0.5,0.1,0.7,0.1c0.4,0.1,0.5,0,0.7-0.4c0.6-1.6,1.1-3.2,1.4-4.9
			c0-0.2-0.1-0.5,0.4-0.4c0.2,0.1,0.3,0.2,0.5,0.3c0.1,0.1,0,0.3,0,0.4C35.2,34,35.3,34.3,35.1,34.6z"/>
		<path class="st55" d="M38.8,39.7c-0.9,0.9-1.5,2-2.3,2.9c-0.2-0.2-0.1-0.4-0.1-0.6c0.4-1.7,0.8-3.3,1.5-4.9C38,37,38,36.8,38,36.7
			c0-0.5,0.3-0.9,0.6-1.2c0.1,0,0.1,0,0.2,0c0.2,0,0.4,0.2,0.5,0.4c0.1,0.9,0.4,1.8,0.4,2.8c-0.4,0.1-0.3-0.2-0.4-0.4
			c-0.1-0.5-0.2-1-0.3-1.5c0-0.2,0-0.6-0.3-0.6c-0.3,0.1-0.3,0.4-0.2,0.7c0.1,0.7,0.3,1.4,0.4,2C38.9,39.2,39,39.4,38.8,39.7
			C38.8,39.6,38.8,39.7,38.8,39.7z"/>
		<path class="st56" d="M30.4,28.2v0.1c0.3,0.2,0.2,0.4,0,0.6c-0.8,1.1-1.7,2.1-2.5,3.2c-0.3,0.3-0.4,0.6-0.7,0.9h-0.1
			c-0.7-0.1-1.5-0.1-2.2-0.1c-1.1-1.2-2.3-2.2-3.4-3.4c-0.2-0.2-0.3-0.5-0.3-0.8c0.1-0.6,0.1-0.7,0.2-1.3c0-0.1,0-0.6,0.3-0.7
			c0.2,0.7,0,1.3,0.1,2c0,0.3,0,0.6,0.3,0.8c0.9,0.8,1.7,1.5,2.5,2.3c0.6,0.7,1.5,0.6,2.2,0.6c0.4,0,0.6-0.4,0.9-0.7
			c0.8-0.9,1.5-1.8,2.3-2.7c0.2-0.2,0.3-0.5,0.2-0.8c-0.1-0.5-0.1-1-0.1-1.6c0-0.2-0.1-0.8,0-0.9S30.5,27.4,30.4,28.2z"/>
		<path class="st57" d="M33.9,8.7c-0.5,0-0.9,0-1.4,0c-0.7,0-1.2-0.4-1.2-1.1c-0.1-1.3,0.6-2.4,1.3-3.5c0.1-0.2,0.3-0.4,0.6-0.6
			c-0.1,0.4-0.3,0.7-0.4,1.1c0,0.2-0.2,0.5,0.2,0.6c0.2-0.2,0.2-0.6,0.3-0.8c0.1-0.2,0.2-0.4,0.3-0.5c0.3-0.4,0.1-0.6-0.2-0.8
			c-0.4-0.2-0.9-0.3-1.3-0.4c-0.1-0.1-0.2-0.1-0.3,0l0,0c-0.1,0-0.1,0-0.2-0.1c-0.7,0-1.4-0.1-2,0s-1.2,0.1-1.8,0.3
			c-0.1,0.1-0.7,0.2-0.7,0.4c-0.3,0.4-0.4,1.9-0.4,2.1c0,1.4,0.3,2.7,1,3.8C27.8,9.4,28,9.5,28,9.7c0.4,0.3,0.9,0.4,1.3,0.6
			c1.2,0.5,2.5,0.8,3.7,1.1c0.4,0.1,0.7,0.4,0.7,0.8c0,0.2,0,0.4,0,0.6c0,1.2-0.2,2.3-0.4,3.5c-0.1,0.6-0.3,1.2-0.3,1.8
			c0.3,0.3,0.4,0,0.5-0.2c0.7-2.6,1-5.2,1.4-7.8C35.1,9.1,34.8,8.8,33.9,8.7z M30.7,4c0.1-0.1,0.3-0.3,0.2-0.5
			c0.1-0.1,0.2-0.2,0.3-0.4c0.2,0.2,0.3,0,0.5,0l0,0c0-0.1,0,0,0,0c-0.6,0.7-1.1,1.4-1.5,2.2C30.3,4.7,30.3,4.6,30.7,4z"/>
		<path class="st58" d="M46,50.3c-0.3,0-0.6,0-0.9,0c-0.1,0-0.3,0-0.3-0.2c0.1-0.3,0-0.6-0.3-0.8c-0.3-0.3-0.5-0.6-0.9-0.8
			c-0.1-0.1-0.2-0.2-0.2-0.3c0.1-0.4,0.3-0.3,0.5-0.1c0.6,0.5,1.3,0.8,1.9,1.2c0.6,0.4,1,0.3,1.4-0.2c0.3-0.4,0.5-0.7,0.9-1
			c0.1-0.1,0.2-0.3,0.2-0.4c0-0.1,0-0.3,0.1-0.3c0.4-0.3,0.4-0.7,0.4-1.1c0.2-0.1,0.3,0.1,0.4,0.2c0.2,0.3,0.2,0.5-0.1,0.7
			c0,0-0.1,0.1-0.1,0.2c0,0.8-0.6,1.3-1.1,1.8C47.4,49.7,46.9,50.4,46,50.3z"/>
		<path class="st59" d="M15.7,15.6c-0.6-1.4-1.3-2.9-1.9-4.3c-0.1-0.6,0.3-0.3,0.6-0.4c0.6,1.4,1.2,2.8,1.9,4.2
			C16.1,15.6,16,15.5,15.7,15.6z"/>
		<path class="st60" d="M19.9,13.3c-0.1-0.2-0.2-0.3-0.4-0.4c-0.2-0.5-0.4-0.3-0.7-0.1c0-0.2,0-0.4,0-0.6c-0.2,1.5-3.4,3.5-3.5,3.7
			c-0.5,0.3-1.1,0.6-1.5,1c0,0-0.4,0.8-0.4,1.2c-0.1,1.7-0.2,3.4-0.3,5.1c0,0.3,0.1,0.4,0.4,0.4s0.6,0.1,1,0.1
			c0.2-0.1,0.3-0.3,0.6-0.4c0.1,0,0.3-0.1,0.1-0.3c-0.8-0.3-1.4-0.9-1.3-1.9c0-0.6,0-1.3,0-1.9c0-0.7-0.1-1.5,0.3-2.2
			c0.1,0,0-0.1,0-0.1h0.1c0.9-0.6,2-0.9,2.9-1.6c0.6-0.5,1.1-1.1,1.6-1.7c0.1-0.2,0.1-0.3,0.3-0.2c0.2,0.2,0.3,0.4,0.1,0.6
			c-0.3,0.5-0.6,0.9-1,1.3c-0.1,0.2-0.3,0.3-0.2,0.6c0.4,0,0.5-0.4,0.8-0.5c0.4-0.3,0.8-0.8,1-1.3C19.9,13.8,20.1,13.6,19.9,13.3z"
			/>
		<path class="st61" d="M32.9,21.7c-0.3,1.5-1.3,2.6-2.4,3.6c-0.1,0.1-0.2,0.2-0.3,0.3c0,0.1-0.1,0.1-0.1,0.1s-0.1,0-0.1-0.1
			c-0.1-0.1-0.1-0.2-0.1-0.3c0.2-0.3,0.4-0.5,0.6-0.7c1.1-1,1.8-2.2,2-3.7c0-0.1,0-0.2,0.1-0.3c0.1-0.3,0.2-0.4,0.5-0.2
			c0.7,0.5,1.2,0.4,1.6-0.3c0.1-0.2,0.3-0.5,0.4-0.7c0.1-0.1,0.1-0.3,0.3-0.2c0.1,0.1,0.1,0.1,0.1,0.2c-0.1,0.4-0.3,0.8-0.5,1.2
			c-0.1,0.2-0.3,0.3-0.4,0.4c-0.3,0.4-0.7,0.3-1.1,0.3C33.2,21.4,33,21.5,32.9,21.7z"/>
		<path class="st62" d="M38.8,39.6c-0.2-0.9-0.3-1.8-0.6-2.7c-0.1-0.4,0.1-0.6,0.3-0.9c0-0.1,0.1-0.1,0.2-0.1
			c0.2,0.1,0.3,0.3,0.3,0.5c0.1,0.5,0.6,1.9,0.7,2.3C39.5,39.1,39.1,39.3,38.8,39.6z"/>
		<path class="st63" d="M51.6,41.2c-0.4-0.8-0.7-1.5-1.1-2.3c0.6,0.5,1.3,1,1.7,1.7C51.9,40.8,51.8,41.1,51.6,41.2z"/>
		<path class="st64" d="M16.1,27.1c-0.1-0.1-0.4,0-0.5-0.1c0.4-0.5,0.6-1.3,0.8-1.9c0.1-0.2-0.1-0.2-0.2-0.3
			c-0.2-0.1-0.5-0.3-0.7-0.5c0.2-0.2,0.4-0.1,0.6-0.1c0.2,0.1,0.4,0.2,0.5,0.3c0.3,0.2,0.4,0.5,0.3,0.8C16.6,26,16.6,26.7,16.1,27.1
			z"/>
		<path class="st65" d="M44.1,51.9L44.1,51.9c-0.5-0.4-0.7,0.1-0.9,0.4c-0.2,0.4-0.5,0.8-0.8,1.2c-0.2,0.3-0.4,0.4-0.8,0.4
			c-1.4-0.1-2.9-0.1-4.3-0.2c-0.5,0-0.9-0.1-1.4,0c0,0,0,0,0,0.1c0.1,0.2,0,0.4,0.1,0.5c0.2,0.5,0.3,1,0.5,1.5c0.8,2.1,3,3,5,2.1
			c0.3-0.1,0.6-0.3,0.8-0.6c0.8-1.2,1.7-2.3,2.4-3.6c0.2-0.1,0.2-0.3,0.3-0.5c0.3-0.5,0.6-0.9,0.8-1.5
			C45.3,52.1,44.7,52.1,44.1,51.9z"/>
		<path class="st66" d="M35.2,17c-0.2,0-0.4,0-0.7,0c-0.2,0-0.3,0-0.3-0.2c0,0.5-0.5,0.6-0.7,1c0.1,0.1,0.1,0.1,0.1,0.1
			c0.2,0.1,0.3,0,0.5-0.1c0.3-0.2,0.7-0.4,1.1-0.2c0.4,0.2,0.3,0.7,0.2,1.1c0,0.2-0.2,0.4,0,0.6c0,0.1,0,0.1,0,0.2
			c-0.1,0.4-0.4,0.8-0.4,1.3c0.6-0.8,1-1.7,1-2.7C36.1,17.3,35.8,17,35.2,17z"/>
		<path class="st67" d="M38.7,35.5L38.7,35.5c-0.9-0.3-1.7-0.9-2.5-1.2c-0.4-0.2-0.8-0.3-1.1-0.6c0-0.1,0.1-0.2,0.1-0.3
			c1.1,0.6,2.2,1.2,3.4,1.8C38.7,35.3,38.9,35.3,38.7,35.5z"/>
		<path class="st68" d="M16.1,24.4c-0.2,0-0.4,0-0.6,0c-0.6-0.3-1.3-0.5-1.9-0.8c0.3,0,0.6,0,0.9,0c0.2-0.1,0.2,0.1,0.4,0.2
			C15.3,24,15.8,24.1,16.1,24.4C16.2,24.3,16.2,24.3,16.1,24.4z"/>
		<path class="st69" d="M49.2,46.4c-0.1-0.1-0.3-0.1-0.4-0.2c-0.4-0.6-1-0.9-1.7-1.2c-0.1,0-0.2-0.1-0.1-0.2c0.5,0.1,1,0.1,1.4,0.4
			C48.7,45.6,49,45.9,49.2,46.4z"/>
		<path class="st70" d="M14.9,48.9c0.1-0.1-0.1-0.3,0.2-0.4c-0.1,0.9,0.1,1.7,0.2,2.6c0,0.1,0.1,0.4-0.2,0.3
			C15,50.5,14.9,49.7,14.9,48.9z"/>
		<path class="st71" d="M34.6,6.5c-0.6-0.2-0.8-0.7-1.3-1c-0.1-0.1-0.2-0.2-0.4-0.3c0-0.3,0.1-0.6,0.3-0.8c-0.2,0.6,0,1,0.5,1.3
			C34.1,5.9,34.3,6.2,34.6,6.5z"/>
		<path class="st72" d="M14.4,11c-0.1,0-0.6,0.3-0.6,0.4c-0.2-0.4-0.1-0.8-0.1-1.2C13.9,10.4,14.1,10.7,14.4,11z"/>
		<path class="st73" d="M11.9,25.6c-0.1,0-0.3-0.1-0.4-0.1c0.1-0.4,0.3-0.7,0.4-1.1H12C12.1,24.8,11.7,25.2,11.9,25.6z"/>
		<path class="st74" d="M12.1,24.4H12c0-0.2,0.5-1.2,0.8-1.3c0.2,0,0.4,0.3,0.4,0.3s-0.4-0.1-0.5,0.1C12.5,23.7,12.1,24.3,12.1,24.4
			z"/>
		<path d="M22.2,74.8c-0.6-0.1-1.1-0.2-1.7-0.4c-2.1-0.5-4.2-0.9-6.3-1.3c-0.5-0.1-0.6-0.3-0.6-0.8c0.1-0.9,0.2-1.8,0.4-2.7
			c0.1-1.1,0.3-2.2,0.5-3.2c0.2-1.3,0.3-2.5,0.5-3.8c0-0.5,0.3-1.9,0.4-2.2c0.1-1,0.3-2.1,0.4-3.1c0.1-0.8,0.3-1.5,0.1-2.3
			c-0.2-1-0.3-2.1-0.4-3.1c0-0.1-0.1-0.3-0.2-0.3c-0.1,0.4,0,0.7,0.1,1.1c0.2,1.6,0.4,3.2,0.1,4.9c-0.3,1.4-0.4,2.8-0.5,4.2
			c0,0.1-0.1,0.3-0.1,0.4c-0.5,3.4-0.9,6.7-1.4,10.1c0,0.4-0.2,0.8-0.1,1.1c0.2,0.3,0.7,0.2,1,0.3c0.4,0.1,0.4,0.3,0.4,0.6
			c-0.2,5.4-0.3,10.8-0.4,16.1c0,2.5,0,4.9,0,7.4c0,2.9,0,5.7,0,8.6c0,0.4,0,0.7,0.3,1c0.3,0.4,0.4,0.8,0.4,1.3
			c0,0.7-0.1,1.4-0.1,2.1c0,0.3,0.1,0.4,0.3,0.5c0.1,0.2,0.3,0.2,0.5,0.2c1.5,0.1,2.8-0.3,4.2-0.8c0.1,0,0.1-0.1,0.1-0.1
			c0.3-0.1,0.5-0.4,0.5-0.7c0-0.5,0.2-1,0.2-1.5c0-1.1,0-2.1-0.1-3.2c-0.1-0.9-0.1-4.3-0.3-5.1c-0.2-1.8-0.4-3.2-0.5-5
			c-0.1-1.4,0-2.1,0-3.4c0,0,0.4-3.7,0.4-4.7c-0.1-0.1-0.2-2.8-0.1-2.9c0.1-0.8,0.2-1.7,0.2-2.5c0-2.1,0.3-4.2,0.3-6.3
			c0-0.6,0.1-0.6,0.6-0.5s1.1,0.2,1.6,0.3c0.5,0.1,1-0.4,1.1-0.9C23.6,75.1,22.9,75,22.2,74.8z M19,89.8L19,89.8L19,89.8L19,89.8z"
			/>
		<path class="st48" d="M19.8,29c0-0.1-0.1-0.3-0.3-0.4c-0.1-0.1,1.8-0.7,1.8-0.6c-0.1,0.6,0,0.3-0.1,0.9c0,0.2,0.1,0.3,0.3,0.5
			c1,1,2.1,2,3.1,3c0.1,0.1,0.3,0.2,0.3,0.4c-0.1,0.6-0.5,0.9-0.8,1.3c-0.6,0.6-1,1.3-1.5,2c-0.1,0.1-0.2,0.2-0.3,0.4
			c-0.2,0.2-0.4,0.2-0.5-0.1c-0.1-0.1-0.1-0.3-0.2-0.4c-0.6-1.9-1.2-3.7-2-5.5C19.4,30,19.4,29.5,19.8,29z"/>
		<path class="st75" d="M15.2,65.9c0-0.8-0.2-0.9,0.9-0.8c0.6,0.1,2.2,0.2,2.3,0.2c0.3,0.1,1.2,0,1.5,0c0.5,0,1-0.1,1.4,0.2
			c0.1,0.1,0,0.3,0,0.4c0,0.7-0.2,0.8-0.9,0.8c-1.6,0-3.3-0.2-4.9-0.6C15.4,66.1,15.2,66.1,15.2,65.9z"/>
		<path class="st75" d="M29.7,65.1c0.6-0.4,1.3-0.3,1.9-0.3c0.9,0,3-0.3,3.2-0.3c0.5-0.1,0.2,0.3,0.2,0.7c-0.1,0.2-0.3,0.3-0.5,0.3
			c-1.2,0.5-2.5,0.7-3.8,0.8C29.7,66.5,29.5,66.2,29.7,65.1z"/>
		<path class="st76" d="M15.7,112.5c0-0.4,0-0.9,0-1.3c0.6,0.1,1.2,0,1.8-0.1c0.9-0.2,1.7-0.4,2.5-0.7c0.6,0,1.2,0,1.9,0
			c0.5,0,1,0.1,1.5,0.2c0,0.1,0,0.1,0,0.2c-0.1,0.1-0.3,0.1-0.4,0.1c-1.3-0.2-2.5,0.1-3.7,0.5c-0.9,0.3-1.7,0.7-2.3,1.3
			c-0.2,0.2-0.3,0.3-0.3,0.5C16.1,113.4,15.8,113.2,15.7,112.5z"/>
		<path class="st62" d="M35.2,33.7c0.7,0.1,1.2,0.5,1.7,0.8c0.6,0.3,1.2,0.6,1.7,1c-0.1,0.4-0.4,0.7-0.5,1.1c0,0.1,0,0.1-0.1,0.1
			c-0.1-0.3,0-0.6-0.3-0.7c-0.8-0.5-1.8-0.8-2.6-1.3C35.1,34.3,35.1,34,35.2,33.7z"/>
		<path class="st77" d="M15.2,65.9c0.9,0.3,1.8,0.4,2.7,0.6c0.7,0.1,1.5,0.1,2.2,0.2c1.1,0.1,1.1,0,1.2-1.1c0.2,0.3,0.1,0.7,0.1,1
			s-0.3,0.3-0.5,0.3c-1.9,0.1-3.8,0-5.6-0.6c-0.3-0.1-0.5-0.3-0.4-0.6c0-0.4,0.2-0.8,0.3-1.3C15.3,64.8,14.9,65.4,15.2,65.9z"/>
		<path class="st77" d="M29.7,65.1c0,1.2,0.1,1.2,1.3,1.1c1.4-0.2,2.7-0.5,4-1c0.2-0.2,0-0.6,0.1-0.8c0.3,0.9,0.3,0.9-0.5,1.2
			c-1,0.5-2.1,0.8-3.3,0.8c-0.5,0-0.9,0.1-1.4,0.1c-0.3,0-0.4-0.1-0.4-0.4C29.6,65.8,29.5,65.5,29.7,65.1z"/>
		<path class="st78" d="M25.4,72.4c0,0.1-0.1,0.1-0.1,0.2c0,0-0.1,0-0.1-0.1c0.1-1.7-0.1-3.4,0-5.1c0.1-1.2,0.4-2.5,0.4-3.7
			c0,1,0.1,2.1,0,3.1c0,0.1-0.1,0.2,0,0.3C25.6,68.8,25.3,70.6,25.4,72.4z"/>
		<path class="st79" d="M38,36.6C38.1,36.6,38.1,36.6,38,36.6c0.2,0.3-0.1,0.6-0.2,0.9c-0.5,1.5-1,3-1.3,4.5c0,0.2,0,0.4,0,0.6
			c-0.1,0.2-0.2,0.3-0.3,0.5c-0.3-0.2,0-0.5,0-0.6c0.4-1.9,0.9-3.7,1.7-5.4c0-0.1,0-0.2,0-0.3S38,36.6,38,36.6z"/>
		<path d="M20.3,84.4c-0.1,0-0.3,0.1-0.4-0.1c0.1-0.2,0.2-0.1,0.4-0.1C20.3,84.3,20.3,84.3,20.3,84.4z"/>
		<path class="st80" d="M47,44.8c0.2,0.2,0.5,0.3,0.7,0.4c0.5,0.1,0.8,0.3,0.9,0.8c0,0.1,0.1,0.2,0.2,0.3c0.1,0.4,0.3,0.8-0.2,1
			l-0.1,0.1c-0.1,0.9-1,1.2-1.4,2c-0.2,0.4-0.8,0.5-1.3,0.2c-0.6-0.5-1.4-0.8-2-1.3c-0.1-0.1-0.3-0.2-0.3,0.1
			c-0.2,0.1-0.2,0-0.3-0.1c0-0.3-0.5-0.6-0.2-1l0.1-0.1c0.1-0.1,0.3,0,0.4,0c-0.3-0.2-0.5-0.4-0.6-0.8c-0.1-0.4,0.2-0.6,0.5-0.5
			c0.2,0.1,0.4,0.1,0.6,0.2c0.1,0.1,0.2,0.2,0.3,0.2c0.1,0.1,0.2,0.1,0.4,0.2c0.4,0.2,0.8,0.5,1.3,0.6c0.2-0.2-0.1-0.2-0.2-0.3
			c-0.4-0.3-0.8-0.3-1.2-0.5c-0.2-0.2-0.5-0.2-0.8-0.3c-0.2-0.1-0.5-0.1-0.5-0.4c0-0.3,0.1-0.4,0.3-0.6c0.1,0,0.2-0.1,0.2-0.1
			c0.1,0,0.2,0,0.3,0.1c0.2,0.1,0.1-0.1,0.1-0.2c0-0.2,0.1-0.3,0.3-0.5c0.6-0.1,1.1,0.2,1.6,0.3C46.5,44.8,46.7,44.6,47,44.8
			C46.9,44.8,47,44.8,47,44.8z"/>
		<path class="st81" d="M44.7,46.6c-0.1,0-0.2-0.1-0.3-0.2c0-0.2-0.2-0.1-0.3-0.2c-0.2-0.1-0.4-0.1-0.6-0.2c-0.4-0.1-0.5,0-0.4,0.4
			c0,0.3,0.2,0.4,0.4,0.6c0.1,0.1,0.3,0.1,0.4,0.4c-0.3,0.1-0.5-0.2-0.7-0.2c-0.2-0.1-0.3-0.3-0.4-0.5c-0.1-0.4,0-0.7,0.4-0.8
			c0.2-0.1,0.2-0.2,0.2-0.3c0-0.5,0.3-0.6,0.7-0.5L44,45.2c-0.2,0.2-0.4,0.3-0.4,0.6c0.1,0.2,0.4,0.1,0.5,0.3c0.2,0.1,0.5,0,0.7,0.3
			c0.1,0.1,0.1,0.1,0.1,0.2C44.8,46.5,44.8,46.6,44.7,46.6z"/>
		<path class="st82" d="M43.3,48c0,0.1,0.1,0.2,0.2,0.2c0.4,0.4,0.8,0.7,1.2,1.1c0.2,0.2,0.4,0.5,0,0.7c-0.5-0.4-1-0.9-1.5-1.3
			C43,48.5,42.8,48.3,43,48C43.2,48,43.2,48,43.3,48z"/>
		<path class="st58" d="M43.1,47.2L43.1,47.2L43.1,47.2c0-0.4-0.2-0.5-0.4-0.6c0.1,0.3-0.2,0.7,0.1,1c0.1,0.1,0.2,0.3,0.3,0.4
			c0.1,0,0.1,0,0.2,0C43.4,47.7,42.8,47.6,43.1,47.2z"/>
		<path class="st83" d="M44.7,44.4c-0.1,0.2-0.2,0.3-0.2,0.5c0,0.1-0.1,0.2-0.2,0.1C44.4,44.7,44.3,44.4,44.7,44.4z"/>
		<path class="st69" d="M46.9,44.8c-0.2,0-0.4,0.1-0.5-0.1C46.6,44.7,46.8,44.6,46.9,44.8z"/>
		<path d="M15,98.9c0.1,0.5,0.2,0.8,0.7,0.8c0.1,0,0.1,0.1,0.1,0.2s0,0.2,0.1,0.2c0.4,0.4,0.8,0.8,1.2,1.2c0.2,0.2,0.3,0.3,0.5,0.5
			c0.5,0.4,0.7,1,1.3,1.2c0.2,0.1,0.2,0.1,0.3,0.3c0,0.2,0.2,0.4,0.4,0.5c0.6,0.1,0.5,0.6,0.5,0.8c-0.2,0.8-0.1,1.7,0,2.5
			s0,1.6-0.1,2.4c0,0.2-0.1,0.3-0.3,0.3c-1.1,0-2.1,0-3.2,0c-0.6,0-1-0.3-0.8-1c0.1-0.6,0-1.2,0-1.9c0-0.2-0.1-0.4-0.4-0.4
			c-0.4,0-0.3-0.2-0.3-0.5c0-1.2,0-2.3,0-3.5c-0.1-1.1,0.1-2.1,0-3.2C14.9,99.2,14.8,99,15,98.9z"/>
		<path class="st84" d="M26.5,115.8c-0.1-0.3,0-0.6-0.2-0.6c-0.6-0.1-2,0.3-2.6,0.3c-0.1,0-0.6,0.1-0.9,0.1
			c-0.7,0.1-1.5-0.1-2.2-0.1c-0.4,0-0.9,0-1.2-0.2c-0.9-0.7-2-1.4-2.9-2c-0.5,0-0.6-0.4-0.8-0.7c-0.2,0.3-0.1,0.5,0.1,0.7
			c1,0.8,2,1.7,3,2.5c0.1,0.1,0.3,0.2,0.4,0.2c0.7,0.1,1.4,0.3,2.1,0.3c0.5,0,0.9,0.1,1.4,0l0,0c0.3,0,0.8,0.1,1,0.1
			C24.7,116.1,25.6,116.1,26.5,115.8z"/>
		<path class="st85" d="M26.6,115.4c-0.1,0-0.2,0-0.2-0.1c0-0.3,0-0.6,0-0.9c0.1,0.2,0.3,0.3,0.1,0.5
			C26.4,115,26.6,115.2,26.6,115.4z"/>
		<path class="st86" d="M25.5,113.9c-0.1-0.1-0.2-0.3-0.1-0.4c0.2,0.1,0.3,0.3,0.5,0.4C25.8,114,25.7,113.9,25.5,113.9L25.5,113.9z"
			/>
		<path class="st84" d="M21.4,116.2c0.5,0,0.9,0,1.4,0c0,0,0,0,0,0.1C22.3,116.3,21.8,116.3,21.4,116.2z"/>
		<path class="st87" d="M27.9,9.6c1.6,0.7,3.2,1.2,4.9,1.5c0.9,0.2,1,0.4,1.1,1.3c0.1,1.4-0.2,2.8-0.4,4.1c-0.1,0.5-0.2,1-0.3,1.4
			c0,0.2-0.2,0.4-0.4,0.5c-0.4,0.3-0.8,0.7-1.3,0.9c-0.4-0.2-0.8-0.4-1.2-0.5c-0.1-0.2,0-0.3,0.1-0.4s0.2-0.2,0.3-0.3
			c0.1,0,0.2,0,0.1-0.1c-0.1-0.6-0.4-0.8-1.1-0.9c-0.4-0.1-0.4-0.1-0.4-0.3c0.4-0.2,0.9-0.2,1.4-0.3c0.3-0.1,0.5-0.3,0.5-0.6
			c0-0.4-0.2-0.6-0.6-0.6c-0.8,0.1-1.6,0.1-2.4,0.3c-0.6,0.1-0.6,0.3-0.6,0.8c0,0.5,0.3,0.5,0.7,0.5c0.1,0,0.1,0,0.2,0
			c0.2,0,0.4,0,0.5,0.2s-0.2,0.2-0.4,0.3c-0.1,0.1-0.3,0.2-0.3,0.3c0,0.1-0.2,0.2-0.1,0.3c0.3,0.3,0.6,0.3,1,0.4
			c0.1,0.1,0.1,0.1,0,0.2c-0.2,0.2-0.4,0.1-0.6,0.1c-0.2-0.1-0.5-0.1-0.7-0.1s-0.3,0-0.5-0.1c-0.4-0.3-0.8-0.5-1.3-0.6
			c-0.1,0-0.2,0-0.3-0.1c-0.1-0.2-0.1-0.4,0-0.6c0.1-0.7,0.1-1.4-0.2-2.1L25.5,15c0.1-0.9-0.4-1.4-1.1-1.7c-0.4-0.2-0.8-0.4-1.3-0.4
			c-0.5-0.1-0.7,0.1-0.8,0.5c-0.1,0.4,0,0.6,0.6,0.7c0.8,0.1,1.6,0.5,2.4,0.9c0.2,0.1,0.3,0.2,0.4,0.3c0.3,0.9,0.2,1.8-0.2,2.7
			c-0.1,0.1-0.2,0.2-0.3,0.2c-1-0.2-2.1-0.4-3.2-0.5c-0.3,0-0.5,0-0.8,0c-0.1,0-0.1,0-0.2,0c-0.1-0.1-0.2-0.2-0.4-0.3
			c-0.4-0.2-0.6-0.4-0.7-0.8c0-0.5,0.1-1,0.2-1.6c0.2-1.2,0.4-2.4,0.5-3.6c0-0.2-0.1-0.3-0.1-0.4c0.1-0.5,0.5-0.7,1-0.8
			c0.8-0.2,1.6-0.3,2.4-0.6c0.7-0.2,1.3-0.6,1.8-1.2C25.8,8.2,26,8,26.2,8.3C26.7,8.9,27.4,9.2,27.9,9.6z"/>
		<path class="st88" d="M28,9.4c-0.7-1-1-2.1-1.2-3.3c-0.1-0.5-0.1-1,0.1-1.5V4.5l0,0c0-0.2,0.4-1.3,0.8-1.6c0.1,0,0.2-0.1,0.1-0.2
			c0,0-0.1,0-0.2,0c-0.5,0.1-0.9,0.2-1.3,0.5c-0.1,0.1-0.1,0.1-0.2,0.2c0,0.1-0.1,0.1-0.1,0.2v0.1l0,0c-0.2,0.6-0.1,1.2-0.1,1.8
			c0,0.1-0.1,0.3-0.1,0.4c0.1,0.8-0.4,1-1.1,1.2c-0.6,0.1-1.2,0.3-1.8,0.4c-0.7,0.2-1.4,0.5-2,0.9c-0.4,0.3-0.8,0.5-0.6,1.3
			c0,0.1,0,0.2,0,0.3c-0.4,0.9-0.7,1.9-0.7,2.8c0,0.3,0.4,0.5,0.4,0.7c0.2,0.1,0.2-0.5,0.2-0.7c0.1-0.7,0.3-1.3,0.5-2
			c0.2-0.4,0.4-0.5,0.8-0.6c0.6-0.1,1.4-0.2,2-0.3c1.1-0.3,2-0.6,2.5-1.7c0.5,0.6,1.1,1.2,1.9,1.4C28,9.8,28.1,9.6,28,9.4z"/>
		<path class="st89" d="M32.5,3.2c-0.4,0.8-0.7,1.5-1.1,2.1c-0.3,0.5-0.5,1.1-0.7,1.7c0,0.1,0,0.3-0.2,0.2c-0.2,0-0.1-0.2-0.1-0.3
			c0-1.1,0.4-2.1,1.1-3C31.7,3.7,31.9,3.4,32.5,3.2z"/>
		<path class="st90" d="M30.9,3.5c0-0.2,0.1-0.3,0.3-0.4c0.3,0.2,0.4-0.4,0.8-0.2c-0.8,0.8-1.3,1.7-1.8,2.7c-0.1-0.7,0-1.1,0.5-1.7
			C30.7,3.8,30.9,3.7,30.9,3.5z"/>
		<path class="st91" d="M32.7,18.5c0.1-0.1,0.3-0.3,0.4-0.4c0.2,0.1,0.2-0.1,0.3-0.2h0.1l0,0c0.2,0.1,0.2,0.2,0.1,0.3
			c-0.2,0.2-0.3,0.4-0.6,0.5C32.9,18.7,32.9,18.7,32.7,18.5C32.8,18.6,32.7,18.6,32.7,18.5z"/>
		<path class="st92" d="M26.1,3.5c-0.3-0.3,0-0.7-0.3-1c0-0.4-0.2-0.7-0.4-1c-0.1,0-0.1-0.1-0.2-0.1l0,0c-0.5-0.1-0.8,0.1-0.8,0.8
			c0,0.2-0.2,0.2-0.3,0.2c-0.3,0-0.5,0-0.8,0C23.2,2.5,23,2.5,23,2.6c0.2,0,0.4,0,0.5,0c0.5-0.1,0.9,0.4,1.4,0c0.8,0.4,0.9,2.3,1,3
			C25.9,5,26,4.4,26,3.8V3.7C26.1,3.7,26.1,3.6,26.1,3.5z"/>
		<path class="st93" d="M47,110.1c-0.4,0.5-1,0.5-1.6,0.6c-1.3,0.1-2.6,0-3.9-0.4c-0.3-0.1-0.6-0.2-0.8-0.4
			c-0.5-0.3-0.7-0.5-0.5-0.9c0.3-0.5,0.7-0.7,1.2-0.5c0.9,0.5,1.9,0.9,2.9,1.1C45.2,109.9,46,110,47,110.1z"/>
		<path class="st94" d="M35.2,111.5c0-0.2,0-0.3,0-0.5s0.1-0.3,0.3-0.3c0.4,0.1,0.9,0.1,1.3,0.4C36.2,111.3,35.7,111.4,35.2,111.5z"
			/>
		<path class="st95" d="M48.7,110.9c-0.3,0-0.4,0.3-0.7,0.4c-1.1,0.5-2.3,0.7-3.4,0.7c-1.2,0-2.4,0-3.6-0.3
			c-0.9-0.2-1.8-0.4-2.7-0.7c-1.5-0.6-3-0.7-4.5-0.8c-0.1,0-1.1-0.4-1.3-0.5c-0.5-0.3-0.7,0-0.9,0.5c0,0,0.1,0.1,0.2,0.1
			c-0.1,0.1-0.1,0.1-0.2,0.2c0,0.1,0,0.3,0.1,0.4c0,0.1,0,0.2,0,0.3c0.2,0.1,0.5,0.1,0.7,0.2c0.9,0.2,1.9,0.3,2.9,0.2
			c0-0.1,0.1-0.1,0.1-0.2c0-0.5,0.3-0.5,0.7-0.4c0.2,0.1,0.5,0.1,0.7,0.2c0.4-0.1,0.7,0.1,1,0.2c3.5,1.2,7,1.4,10.5,0.5
			C48.9,111.6,48.9,111.6,48.7,110.9z"/>
		<path class="st96" d="M33.6,33.6c-0.4-0.4-0.1-0.6,0.2-0.8h0.1C34.1,33,33.9,33.5,33.6,33.6z"/>
		<path class="st97" d="M51,111.1c-0.9-0.6-1.9-0.8-3-0.9c0.2,0.3,0.2,0.6,0.7,0.7c-0.1,0.8,0,0.7-0.8,0.9c-1.7,0.4-3.5,0.6-5.2,0.5
			c-1.8-0.2-3.5-0.5-5.2-1.1c-0.2-0.1-0.5-0.2-0.7-0.1c-0.5,0.1-1.1,0.3-1.6,0.4c-0.9,0-1.8,0-2.7-0.2c-0.3,0-0.5-0.1-0.7-0.2l0,0
			V111c0,0,0-0.1-0.1-0.1c0-0.1,0-0.2,0-0.4c0-0.1,0.1-0.3,0-0.4c-0.2-0.1-0.5,0-0.7,0c0,0,0,0-0.1-0.1s-0.2-0.1-0.3-0.1
			c0,0-1.8,0.1-1.9,0.1c-1.1,0.1-2.3,0-3.4,0.1c-0.3,0-0.7,0-1,0.2c-0.1,0.5-0.4,0.6-0.8,0.4c-0.1,0-0.1,0.1-0.1,0.2
			c0.5,1,1.1,2,2,2.7c0.2,0.2,0.4,0.3,0.6,0.4s0.4,0.3,0.5,0.5c0.2,0.3,0,0.7,0.1,1c0,0.1,0,0.3-0.1,0.3c-0.8,0.2-1.7,0.2-2.6,0.4
			c-0.3,0.1-0.7,0-1,0.1c-0.4,0-0.8,0-1.3,0c-0.2-0.1-0.5,0-0.7-0.1c-0.8-0.1-1.5-0.1-2.2-0.7c-0.8-0.7-1.6-1.4-2.4-2
			c-0.3-0.2-0.5-0.5-0.3-0.9c0-0.4,0.1-0.8-0.1-1.2c-0.2,0-0.3-0.1-0.5-0.1c-0.1,0.1-0.3,0.2-0.5,0.2c-0.6,0.1-1.2,0.3-1.7,0.5
			c-0.6,0.2-0.9,0.7-0.7,1.3c0.1,0.4,0.2,0.7,0.5,1c0.6,0.7,1.5,1.2,2.3,1.6c2.4,1,4.1,1.6,6.6,1.8c0.3,0,5.2-0.7,5.3-0.8
			c0.6-0.2,1.1-0.4,1.6-0.8c0.7-0.6,0.9-1.4,1.1-2.2l0,0c0.2-0.4,0.6-0.6,0.9-0.9l0,0c0.5-0.2,1.1-0.4,1.6-0.5
			c1.5-0.4,3.1-0.5,4.7-0.3c1.3,0.1,2.6,0.3,3.9,0.5c2.5,0.4,5,0.9,7.6,0.7c0.9-0.1,1.7-0.2,2.5-0.6C51.8,112.2,51.8,111.6,51,111.1
			z"/>
		<path class="st98" d="M30.1,25.7c0,0.1,0,0.1,0,0.2c-0.1,0.7,0.1,1.4,0.1,2.1c0,0.3,0.1,0.6,0,0.8c-0.8,1.1-2,2.3-3,3.4
			c-0.2,0.2-0.6,0.2-0.8,0.2c-1,0-1.7-0.3-2.4-1.1c-0.6-0.7-1.4-1.3-2.1-1.9c0.5-0.1,1.1,0,1.6-0.1c0.4-0.1,0.7-0.3,1.1-0.2
			c0.2,0.1,0.3,0.4,0.4,0.6c0.2,0.4,0.4,0.7,0.7,1c0.4,0.4,0.8,0.4,1.1-0.2c0.2-0.3,0.3-0.7,0.4-1c0-0.1,0-0.2,0.1-0.3
			c0.9-0.7,1.4-1.7,1.8-2.6C29.4,26.2,29.6,25.8,30.1,25.7L30.1,25.7z"/>
		<path class="st99" d="M22.8,29.6c-0.3,0-0.6,0-0.8-0.1c-0.3-0.1-0.4-0.3-0.4-0.7c0-0.8,0-1.5,0-2.3c0-0.2,0.1-0.8,0-1v-0.1
			c0.2-0.2,0.3,0,0.3,0.1c0.3,0.4,0.6,0.7,0.9,1.1c0.6,1,1.7,1.2,2.7,1.4c1.2,0.2,2.2-0.4,3-1.2c0.4-0.4,0.8-0.7,1.2-1.1
			c0.1-0.1,0.2-0.2,0.4-0.2c0.1,0,0.1,0.1,0.1,0.2c-0.9,0.6-1,1.7-1.6,2.5c-0.3,0.4-0.6,0.8-1,1c-0.1-0.1-0.1,0.1-0.2,0.1
			c-0.5,0-1-0.1-1.6,0c-0.2,0-0.4,0-0.6,0.1C24.9,29.3,23.5,29.6,22.8,29.6z"/>
		<path class="st100" d="M24,34.1c0.3-0.4,0.5-0.8,0.8-1.2c0.5-0.3,1.1,0,1.7-0.1c0.2,0,0.4,0.1,0.5,0.1c0.2,0.4,0.4,0.9,0.6,1.3
			c0.4,0.9-0.1,1.7-1.1,1.7c-0.5,0-1,0-1.5-0.1c-0.4-0.1-0.7-0.3-0.8-0.7c0-0.1-0.1-0.2-0.2-0.3s-0.1-0.1-0.1-0.2
			C23.7,34.4,23.9,34.2,24,34.1z"/>
		<path class="st101" d="M24,34.7c0.2-0.2,0.2,0,0.2,0.1c0.2,0.8,0.9,1,1.6,1c0.2,0,0.4,0,0.6,0c0.7,0.2,0.9-0.4,1.2-0.7
			c0.1-0.1,0.1-0.4,0-0.6c-0.3-0.4-0.3-0.9-0.5-1.3c-0.1-0.1-0.1-0.2,0-0.3h0.1c0.3,0.5,0.5,1,0.8,1.4c0.2,0.2,0.3,0.4,0.2,0.7
			c-0.3,0.6-0.5,1.2-0.6,1.9c-0.1,0.1-0.1,0.1-0.2,0c-0.2-0.4-0.5-0.5-0.9-0.5c-0.3,0-0.5,0-0.8,0c-0.2,0-0.4-0.1-0.5,0.2
			c-0.1,0.2-0.3,0.1-0.3,0c-0.1-0.2-0.2-0.2-0.4-0.3c-0.1-0.3-0.2-0.7-0.4-1C23.9,35,23.8,34.8,24,34.7z"/>
		<path class="st80" d="M14.2,16.9c0.7-0.4,1.5-0.8,2.2-1.3c0.5-0.3,1-0.7,1.4-1.1c0.3-0.4,0.8-0.6,1-1.1c0.1-0.1,0.4-0.4,0.4-0.3
			c0.1,0.3,0.7,0.3,0.4,0.8c-0.3,0.5-0.7,1-1.1,1.5c-0.1,0.1-0.3,0.2-0.3,0.5c-0.1,0.4-0.5,0.5-0.7,0.7c0.5-0.3,1-0.7,1.5-1
			c0.2-0.1,0.4-0.3,0.6-0.2c0.5,0.2,0.3,0.6,0.2,1c-0.1,0.4-0.5,0.5-0.8,0.7c-0.5,0.3-0.9,0.7-1.3,1c-0.3,0.3-0.5,0.3-0.7,0.7
			c-0.1,0.1-0.1,0.4-0.3,0.3c-0.1-0.1-0.2,0-0.2,0.1c-0.1,0.3-0.1,0.6,0,0.9c0.1,0.8,0.1,1.6-0.1,2.4C16,23,15.7,23.2,15.2,23
			c-0.8,0.1-1.5-0.7-1.5-1.7c0.1-1,0-2.1,0-3.1C13.7,17.7,13.9,17.2,14.2,16.9z"/>
		<path class="st102" d="M15.2,23c0.5,0,0.9-0.2,1-0.7c0.1-0.2,0.2-0.4,0.2-0.6c0-0.6,0.1-1.2,0.8-1.5c0-0.5,0.7-0.4,0.8-0.8
			c0-0.2,0.1-0.3,0.1-0.5c0.1-0.2-0.1-0.4-0.2-0.6c0,0,0-0.1,0.1-0.1c0.3,0.1,0.6,0,0.8-0.2c0.1-0.2,0.4-0.3,0.6-0.3s0.4,0,0.5-0.1
			c0.5-0.1,0.6-0.1,0.6,0.4c-0.2,0.2-0.2,0.5-0.2,0.8c0.1,0.3,0,0.7,0,1.1c0,0.1,0,0.1,0,0.2c-0.3,0.5-0.5,1.1-0.5,1.7
			c0,0.1-0.1,0.2-0.3,0.1c0-0.7,0-1.5,0-2.3c-0.5,0.3-0.8,0.8-1.1,1.2c-0.4,0.5-0.7,1.2-0.9,1.8c-0.3,0.4-0.9,0.5-1,1l0,0
			c-0.2,0-0.1,0.2-0.2,0.3C16.2,24,16,24.2,15.7,24s-0.6,0-0.9-0.2c-0.2,0-0.2-0.1-0.3-0.2C14.5,23.1,15,23.3,15.2,23z"/>
		<path class="st103" d="M31.1,28.7c0.2,0.7,0.4,1.4,0.6,2.1c0,0.4-0.3,1.3-0.4,1.9c0,0.1-0.4,1.8-0.6,2c0,0.1,0,0.2-0.1,0.3
			c-0.2,0.3-0.2,1.6-0.5,1.3s-1.4-1.3-1.6-1.4c-0.2-0.2-0.6-0.9-0.8-1.3c-0.2-0.5-0.2-0.9,0.2-1.2c0.4-0.5,1.4-1.7,1.7-2.1
			C30.1,29.8,30.4,29.1,31.1,28.7z"/>
		<path class="st104" d="M31.7,29.8l-0.1-0.1c-0.1-0.4-0.2-1.2-1.2-1.5c0.1,0.2,0.1,0.4-0.1,0.5c-0.3,0.3-0.5,0.6-0.7,0.9
			c-0.8,1.1-1.7,2-2.5,3.2c0,0.6,0.4,1,0.7,1.5c0.1,0,0.1,0.1,0.1,0.1c0.1,0.2,0,0.4-0.1,0.7c-0.4,0.5-0.6,1.1-0.5,1.7
			c-0.1,0.2,0,0.4,0,0.6c0,0.2,0,0.3,0,0.5c0.1,0.8,0.2,1.5,0.3,2.3c0.1,0.2,0.1,0.3,0.1,0.5c0.1,0.5,0,2.5,0.1,2.7
			c0.2-0.2,0.4-1,0.4-1.3c0-0.7,0.2-1.6,0-2.3c-0.1-0.2-0.5-4.1-0.1-4.5c0.2,0,2.2,1.8,2.2,1.8s0.1-0.3,0.1-0.5
			c0.1-0.3,0.2-0.6,0.3-0.8c0-0.1,0.1-0.2,0.1-0.3c0-0.2,0.1-0.4,0.2-0.6c0.1-0.4,0.2-0.7,0.3-1.1c0.1-0.2,0.1-0.5,0.2-0.7
			C32,32,32.3,30.9,31.7,29.8z M30.9,33.9c-0.1,0.3-0.7,2.2-0.7,2.4c-0.3-0.2-1.3-1.1-1.6-1.3c-0.1-0.3-0.6-1.2-0.8-1.6
			c-0.2-0.3,0.1-0.8,0.3-1.1c0.4-0.5,2.3-2.8,2.9-3.6c0,0.2,0,0.3,0.1,0.5c0.1,0.3,0.2,0.7,0.3,1C31.8,31.2,31,33.6,30.9,33.9z"/>
		<path class="st105" d="M19.7,16.2c0.1-0.3,0.1-0.6-0.3-0.8c0.2-0.1,0.4-0.4,0.4-0.6c-0.1-0.3,0.2-0.5,0-0.8
			c-0.1-0.3,0.4-0.5,0.1-0.8c0.2-0.1,0.2-0.3,0.2-0.5c0.1-0.6,0.2-1.3,0.6-1.8c0.2,0.2,0.1,0.5,0.2,0.8c0.1,0.7-0.2,1.4-0.3,2.1
			c0,1-0.4,1.9-0.4,2.8l-0.1,0.1c-0.1,0-0.1,0-0.2,0C19.7,16.6,19.8,16.4,19.7,16.2z"/>
		<path class="st106" d="M19.8,14c0.2-0.1,0.2,0,0.2,0.1c0,0.3-0.1,0.7-0.1,1c0,0.4-0.3,0-0.3,0.2c-0.2,0.1-0.3,0.2-0.5,0.3
			c-0.3,0.1-0.3-0.1-0.2-0.3C19.2,14.9,19.5,14.5,19.8,14z"/>
		<path class="st107" d="M18.8,15.3c0,0.1,0,0.3,0.2,0.3c-0.6,0.4-1.2,0.9-1.9,1.1c0.3-0.3,0.7-0.6,1-0.9
			C18.4,15.7,18.6,15.5,18.8,15.3z"/>
		<path class="st87" d="M19.5,21.9c0.1-0.3,0.1-0.6,0.2-0.9s-0.1-0.7,0.3-0.8c0.1,0,0.1-0.2,0.1-0.3c0-0.5,0.1-0.9-0.1-1.4
			c-0.1-0.3,0-0.6,0.4-0.7c0.5,0.1,0.6,0.3,0.6,1c-0.1,0.4,0.1,0.7,0.5,0.9c0.9,0.5,1.9,0.5,2.9,0.4c0.2,0,0.3-0.1,0.5-0.3
			c0.2-0.2,0.2-0.4,0.2-0.6c0-0.1,0.1-0.3,0.1-0.4c0.2-0.8,0.9-1,1.6-0.4c-0.2,0.9-0.2,1.7-0.2,2.6c-0.3,0.3-0.6,0.2-0.9,0.2
			s-0.6-0.1-0.8-0.2c0.4,0.6,1.5,0.9,2,0.5c0.2-0.1,0.2-0.2,0.2-0.4c0-0.2,0-0.5,0.2-0.6h0.1c0.1,0.1,0.2,0.1,0.3,0.2
			c0.7,0.4,1.4,0.6,2.2,0.7c0.4,0.1,0.6-0.1,0.7-0.4c0.2,0,0.1-0.2,0.2-0.3c0.1-0.1,0.2-0.3,0.3-0.4c0.2-0.4,0.6-0.6,0.9-0.9
			c0.3-0.2,0.5-0.6,1-0.7c0.2-0.2,0.4-0.4,0.6-0.6c0.1-0.1,0-0.2,0-0.2c0.4-0.1,0.8-0.5,1.3-0.5s0.7,0.1,0.7,0.6
			c0.1,0.5-0.1,0.9-0.2,1.4c-0.3,0.5-0.5,1.2-1.1,1.6c-0.4,0.3-0.9,0.3-1.3-0.1c-0.1-0.1-0.1-0.2-0.2-0.2c-0.1,0-0.1,0.2-0.1,0.3
			c-0.2,1.6-0.9,3-2.1,4c-0.2,0.2-0.4,0.4-0.6,0.7c-0.7,0.6-1.4,1.1-2,1.8c-0.9,0.9-1.9,0.9-3,0.7c-1.1-0.2-2-0.7-2.7-1.7
			c-0.2-0.3-0.4-0.7-0.8-0.9C20.6,24.3,19.7,23.4,19.5,21.9z"/>
		<path class="st108" d="M34.3,32.1C34.2,32,33.2,31,33,30.8c0,0-0.6-0.6-0.9-0.9c-0.2-0.2-0.3-0.2-0.5-0.2v0.1
			c0.3,0.5,0.8,0.9,1.2,1.4l0.8,1c0.1,0.2,0.1,0.5,0.2,0.6c0.1,0.3-0.2,1.7-0.2,1.8c-0.3,1.1-0.7,2.2-1,3.2
			c-0.1,0.3-0.2,0.4-0.5,0.4s-0.6,0-0.9,0c-0.4,0-0.6,0.2-0.5,0.6s0.4,0.8,0.5,1.3c0.1,0.4,0.1,0.7-0.1,1.1c-0.6,1.4-1.3,2.7-2,4.1
			c-0.1,0.2-0.3,0.4,0.1,0.5c1-1.6,2-3.2,2.7-4.9c0.1-0.2,0.1-0.3,0-0.5c-0.2-0.5-0.5-0.9-0.7-1.5c0.5,0.1,1,0.1,1.4,0.3
			c0.4,0.1,0.5,0,0.6-0.3c0.6-1.8,1.2-3.5,1.4-5.4c0-0.1,0.1-0.2,0.2-0.2C34.5,32.8,34.7,32.5,34.3,32.1z"/>
		<path class="st109" d="M14.8,23.8c0.4,0.1,0.7-0.2,1.1,0.1c0.1,0.1,0.3-0.2,0.3-0.5s0.1-0.1,0.2-0.1c-0.1,0.3-0.2,0.6-0.3,0.8
			C15.6,24.3,15.2,24.1,14.8,23.8z"/>
		<path class="st78" d="M32.5,108c-0.2,0-0.3-0.1-0.5-0.1c-0.4,0.1-0.6-0.1-0.8-0.3c-0.1-0.1-0.1-0.2-0.2-0.3
			c-0.4-0.4-0.6-0.9-0.7-1.5c-0.3-5.3-0.6-10.6-0.9-15.9c-0.1-2.4-0.2-4.8-0.5-7.2c-0.1-0.7-0.2-1.5-0.3-2.2c-0.1-0.1-0.1-0.2,0-0.3
			c0.1,0,0.1,0,0.2,0c0.4,0.3,0.2,0.7,0.3,1c0.2,1.8,0.5,3.6,0.6,5.3c0.1,1.7,0.2,3.5,0.3,5.2c0.1,2.3,0.2,4.5,0.4,6.8
			c0.2,2.3,0.2,4.7,0.5,7.1c0.1,0.9,0.4,1.6,1.3,1.9C32.3,107.6,32.5,107.7,32.5,108z"/>
		<path class="st110" d="M24.4,36.2c-0.3,1.2-0.4,2.4-0.5,3.7c-0.1,0.1,0,0.2-0.1,0.3c-0.3,0.2-0.3,0.6-0.8,0.7
			c-0.4-1.1-0.7-2.2-1.1-3.4c0-0.1,0-0.2,0.1-0.3c0.5-0.8,1-1.6,1.6-2.4c0.1-0.1,0.1-0.2,0.3-0.1l0.1,0.1
			C24,35.2,24.4,35.7,24.4,36.2z"/>
		<path class="st111" d="M23.9,34.6c-0.3,0.3-0.6,0.7-0.8,1.1c-0.4,0.6-0.7,1.2-1.1,1.8c-0.6-1.6-1.3-3.1-1.8-4.7
			c-0.2-0.7-0.5-1.5-0.8-2.2c-0.2-0.6-0.2-1,0.2-1.5l0.3-0.5c-0.3,0.7,0,1.8,0.3,2.4c0.7,1.7,1.3,3.4,1.8,5.1
			c0.1,0.2,0.1,0.4,0.3,0.4c0.1,0,0.3-0.2,0.4-0.4c0.5-0.7,0.9-1.5,1.2-1.7C23.8,34.5,23.8,34.4,23.9,34.6z"/>
		<g>
			<path class="st112" d="M27.8,43.8L27.8,43.8L27.8,43.8z"/>
			<path class="st112" d="M26.2,41.2L26.2,41.2L26.2,41.2z"/>
			<path class="st112" d="M27.3,40.7L27.3,40.7L27.3,40.7z"/>
		</g>
		<path class="st113" d="M23.1,41.2L23,41.1c0-0.1,0-0.2,0-0.3c0.3-0.2,0.4-0.6,0.7-0.7c0.1,0.1,0.1,0.2,0.1,0.4s-0.1,0.5-0.1,0.7
			c-0.1,0.3,0.1,0.7-0.4,0.8C23.1,41.8,23,41.5,23.1,41.2z"/>
		<path class="st114" d="M26.8,47c0-0.5,0.1-0.9,0.4-1.2C27.1,46.2,27.4,46.8,26.8,47z"/>
		<path class="st115" d="M24.8,46.4c0.3,0.1,0.1,0.4,0.2,0.6C24.6,46.9,24.8,46.6,24.8,46.4z"/>
		<path class="st116" d="M27.6,44.2c0-0.2-0.1-0.4,0.2-0.4C27.8,43.9,27.9,44.1,27.6,44.2z"/>
		<path class="st115" d="M25.2,47c0,0.1,0,0.3,0,0.4c-0.3,0-0.2-0.2-0.2-0.4C25,47,25.1,47,25.2,47z"/>
		<path class="st117" d="M25.2,47.6c0.3,0.1,0.2,0.3,0.2,0.4C25.1,48,25.2,47.8,25.2,47.6z"/>
		<path class="st109" d="M16.4,23.4c0-0.2,0-0.4,0.2-0.5c0.3-0.2,0.6-0.4,0.9-0.5C17.3,22.8,16.8,23.1,16.4,23.4z"/>
		<path class="st49" d="M40.4,104.6c-0.1-0.5-0.4-0.9-0.8-1.3c-0.8-0.7-0.9-1.2-0.2-2c0.3-0.3,0.4-0.7,0.3-1.2
			c-0.2-1.4-0.3-2.7-0.5-4.1c-0.3-2.7-0.6-5.4-0.9-8c-0.2-1.4-0.6-2.7-0.6-4.2c0-0.7-0.1-1.4-0.4-2c-0.3-0.5-0.3-1-0.2-1.5
			s0.2-0.9,0.1-1.5c-0.3-2.1-0.5-4.2-0.8-6.3c-0.7-0.2-1.3,0.1-2,0.3h-0.1c0,0,0,0,0,0.1c-0.3,0-0.6,0-0.7-0.1l0,0
			c0,0,0,0.1-0.1,0.1c-0.7,0.1-0.9,0.6-0.7,1.3c0.1,0.2,0.3,1.5,0.3,1.5C33,75.8,33,75.9,33,76c0.1,0.6,0.2,1.1,0.3,1.7
			c0.2,1.6,0.5,3.2,0.6,4.8c0,0.6,0.1,1.2,0.4,1.7c0.2,0.5,0.3,1.1,0.4,1.7c0.2,0.7,0,1.5,0.2,2.2c0.2,1.5,0.4,3,0.5,4.4
			c0.2,1.7,0.3,3.4,0.5,5.1c0.1,1.1,0.2,2.2,0,3.3c-0.1,0.7-0.1,1.4,0.3,2c0.6,1,0.8,2,0.9,3.1c0.1,0.6,0.1,1.3,0.5,1.8
			c0,0,0.1,0.1,0.2,0.1c0.9-0.1,1.7-0.4,2.6-0.7c0-0.1-0.2-0.2,0-0.2s0.3-0.1,0.3-0.3C40.6,106.1,40.6,105.3,40.4,104.6z"/>
		<path class="st118" d="M44.7,46.6c0-0.1,0-0.1,0-0.2c0.6,0,1,0.3,1.4,0.6c0.1,0.1,0.1,0.2,0,0.3C45.6,47.2,45.2,46.8,44.7,46.6z"
			/>
		<path class="st118" d="M46.2,47.2c-0.3-0.5-0.9-0.7-1.4-0.8c0-0.1,0-0.1,0-0.2c0.5,0.1,1,0.3,1.4,0.5C46.4,46.9,46.5,47,46.2,47.2
			z"/>
		<path class="st118" d="M44.1,46.2c0.1,0,0.4-0.1,0.3,0.2C44.3,46.4,44.1,46.4,44.1,46.2z"/>
		<path class="st54" d="M32.5,108c-0.1-0.1-0.2-0.3-0.3-0.4l0,0c0.2-0.1,0.4,0,0.5-0.1c-0.1-0.3-0.4-0.5-0.4-0.8
			c0.3-0.3,0.5-0.6,0.8-0.8c0.2-0.2,0.3-0.1,0.4,0c0.1,0.1,0.1,0.3,0,0.4c-0.2,0.2-0.3,0.3-0.5,0.5c-0.2,0.1-0.2,0.3,0,0.5
			s0.3,0.2,0.5,0c0.1-0.1,0.2-0.2,0.4-0.4c0.1-0.2,0.3-0.2,0.5-0.1c0.2,0.2,0.1,0.3-0.1,0.5c-0.2,0.3-0.6,0.4-0.7,0.8
			c-0.3,0.3-0.5,0-0.8,0C32.6,108.1,32.6,108.1,32.5,108z"/>
		<path class="st119" d="M34,105.8c-0.2-0.2-0.6-0.2-0.6-0.5s0.2-0.5,0.5-0.5s0.5,0.2,0.5,0.5C34.5,105.6,34.2,105.6,34,105.8z"/>
		<path class="st120" d="M32.9,107.5c-0.2-0.2-0.3-0.7-0.6-0.8h-0.1c-0.1-0.1-0.2-0.1-0.2-0.2c-0.7-0.2-0.8-0.7-0.9-1.3
			c0-0.3-0.1-0.6-0.1-1c-0.2-2.2-0.4-4.3-0.5-6.5c-0.2-2.5-0.4-5.1-0.5-7.6c-0.1-1.7-0.2-3.4-0.3-5.1c-0.1-1.7-0.4-3.3-0.6-5
			c-0.1,0-0.1,0-0.2,0c0.1,0.6,0.1,1,0.1,1.4c0.3,2.2,0.5,4.4,0.6,6.7c0.1,2.3,0.2,4.7,0.3,7c0.1,1.3,0.1,2.6,0.2,3.8
			c0.2,2.3,0.2,4.6,0.5,6.9c0.1,1.1,0.5,1.6,1.5,1.9l0,0l0,0c0.2,0.1,0.4,0.1,0.6,0.1C32.9,107.7,33.1,107.7,32.9,107.5z"/>
		<path class="st121" d="M28.7,79.3c-0.2-0.6-0.2-1.2-0.2-1.8c0.1,0.6,0.2,1.1,0.3,1.7C28.8,79.2,28.8,79.2,28.7,79.3z"/>
		<path class="st122" d="M25.4,114.4c-1.1,0.2-2.2,0.4-3.4,0.3c-0.6,0-1.2-0.1-1.8-0.2c-0.5-0.1-0.8-0.5-0.6-1c0.4-1,2.1-2.1,3.3-2
			c0.4,0,0.8,0.3,1,0.6c0.4,0.6,1,1,1.5,1.5C25.6,113.6,25.7,114.4,25.4,114.4z"/>
		<path class="st123" d="M26.4,114.4c-0.1-0.2-0.7-0.9-0.8-1c-0.9-0.7-1.5-1.7-2-2.6c-0.3,0.1-0.7-0.1-1-0.1
			c-1.1,0.1-2.2,0.2-3.3,0.6c-0.9,0.3-1.8,0.8-2.5,1.5c-0.2,0.2-0.5,0.3-0.3,0.5c0,0.2,0.6,0.4,0.8,0.5c0.8,0.5,1.5,1.2,2.3,1.6
			c0.1,0.1,0.3,0.2,0.5,0.2c0.5,0,0.9,0.1,1.4,0.1c0.6,0,2.6,0,2.6-0.1c0.7,0.1,1.3-0.1,1.9-0.1c0,0,0,0,0.1,0c0,0,0.4-0.1,0.4-0.4
			C26.5,114.9,26.6,114.6,26.4,114.4z M25.3,114.3c-1.6,0.3-3.2,0.4-4.8,0.1c-0.6-0.1-0.8-0.5-0.4-1.1c0.6-0.8,1.4-1.3,2.3-1.6
			c0.6-0.2,1,0,1.4,0.5s0.8,1,1.3,1.4c0.1,0.1,0.2,0.3,0.4,0.3l0,0C25.4,114,25.4,114.2,25.3,114.3z"/>
		<path class="st124" d="M28.4,17.1c-0.8,0-0.9-0.1-0.9-0.9c0-0.4,0.2-0.6,0.6-0.6c1-0.2,1.7-0.2,2.6-0.3c0.4,0,0.7,0,0.8,0.5
			c0.1,0.5-0.2,0.9-0.6,1c-0.5,0.1-1,0.2-1.6,0.2C29,17.1,28.7,16.9,28.4,17.1z"/>
		<path class="st125" d="M25.6,15.3c-0.5-0.1-0.9-0.4-1.3-0.5c-0.5-0.2-1.1-0.4-1.6-0.5c-0.2,0-0.6,0-0.5-0.4c0-0.4-0.1-1,0.5-1.1
			c0.6-0.2,2.6,0.8,2.9,1.4C25.7,14.5,25.7,14.8,25.6,15.3C25.6,15.2,25.6,15.3,25.6,15.3L25.6,15.3z"/>
		<path class="st126" d="M28.7,18.7c0.2-0.1,0.4,0.1,0.6-0.1c0.1-0.1,0.2-0.2,0.3-0.3c0.2,0,0.4-0.1,0.6-0.1
			c0.1,0.1,0.1,0.2,0.1,0.3c-0.2,0.3-0.5,0.1-0.7,0.1c0.3,0,0.5,0,0.7,0.1c0.4,0.1,0.9,0.1,1.2,0.5c0.1,0.2,0,0.3-0.1,0.4
			c-0.1,0-0.1,0-0.2,0c-0.3-0.3-0.6-0.4-1-0.4c-0.7,0-1.4-0.2-2.1-0.3c-0.2,0-0.4-0.1-0.6,0c-0.1,0.1-0.1,0.2-0.2,0.3
			c-0.1,0.1,0,0.3-0.2,0.4c-0.3-0.2-0.2-0.4-0.2-0.7c0-0.1,0.1-0.3,0.1-0.4c0.1-0.1,0.1-0.2,0.3-0.2c0.2,0,0.3,0,0.5,0
			C28.2,18.7,28.4,18.6,28.7,18.7z"/>
		<path class="st127" d="M21.1,17.7c1.4-0.2,2.8,0.1,4.1,0.5c0.1,0.1,0.2,0.3,0,0.4c-1.1-0.1-2.1-0.3-3.2-0.5
			c-0.2,0-0.4-0.1-0.5,0.1c0,0.1-0.1,0.1-0.1,0.2c0,0.2,0,0.3-0.1,0.4c-0.4-0.2-0.1-0.5-0.3-0.8C20.9,17.9,21,17.8,21.1,17.7z"/>
		<path class="st128" d="M22.1,16.9H22c0-0.1,0.1-0.1,0.1-0.2c0.7-0.6,2-0.5,2.6,0.3c0.1,0.1,0.1,0.2,0.2,0.3c0,0-0.1,0.1-0.1,0
			c-0.2,0-0.3,0-0.5,0.1c-0.1,0.2-0.2,0.2-0.4,0.2c0-0.1,0-0.2-0.1-0.2s0,0.2-0.1,0.2c-0.2,0-0.4,0-0.5-0.1c-0.1-0.3-0.1-0.3,0-0.6
			C22.8,17,22.5,17,22.1,16.9z"/>
		<path class="st129" d="M28.4,17.1C28.7,17,29,17,29.2,17c0.4,0.1,0.9,0,1.2,0.2c0.3,0.2,0.5,0.5,0.4,1h-0.1
			c-0.7-0.5-1.5-0.6-2.4-0.3c-0.1,0-0.1,0-0.1-0.1c0-0.5,0.5-0.4,0.8-0.7C28.8,17.1,28.6,17.1,28.4,17.1z"/>
		<path class="st130" d="M24.7,17c-0.8-0.6-1.6-0.7-2.6-0.3c-0.1-0.2,0.1-0.3,0.2-0.4c0.7-0.6,1.8-0.4,2.4,0.3
			C24.8,16.7,24.9,16.9,24.7,17z"/>
		<path class="st131" d="M28.3,17.8c0.9-0.4,1.8-0.3,2.5,0.4c0,0.1,0.1,0.2,0.1,0.2c-0.1,0.1-0.1-0.1-0.2-0.1
			c-0.1,0.1-0.2,0-0.3-0.1c0,0.1,0,0.3,0,0.4h-0.1c0-0.1,0-0.2-0.1-0.3c-0.2,0-0.4-0.1-0.5,0.1c0,0.2-0.1,0.2-0.3,0.2l-0.1-0.1
			c-0.1-0.3-0.2-0.6-0.7-0.5C28.4,17.9,28.3,17.9,28.3,17.8z"/>
		<path class="st132" d="M27.3,15.7c-0.3-0.2-0.5-0.6-0.9-0.1c0.3-0.6,0.4-1.3,0.6-1.9c0-0.1,0-0.3,0.2-0.2c0.2,0,0.1,0.2,0.1,0.3
			c-0.1,0.5-0.1,0.9-0.1,1.4C27.2,15.3,27.2,15.5,27.3,15.7z"/>
		<path class="st133" d="M25.6,15.3C25.6,15.3,25.6,15.2,25.6,15.3c0.5,0.6,0.4,1.4,0.4,2.1c0,0.2-0.1,0.4-0.1,0.6
			c-0.1,0.2-0.3,0.3-0.5,0.1C25.7,17.2,25.8,16.2,25.6,15.3z"/>
		<path class="st134" d="M25.4,18.1c0.2,0,0.3-0.1,0.5-0.1c0.6,0,1.2,0.1,1.5,0.6c-0.1,0.1-0.1,0.2-0.2,0.2
			c-0.2-0.1-0.3-0.2-0.4-0.3c0,0,0,0,0-0.1c-0.1-0.1-0.3-0.1-0.5-0.1c-0.7-0.1-0.8-0.1-1,0.6c0,0.1-0.1,0.3-0.2,0.4L25,19.2
			c0-0.2-0.1-0.5,0.1-0.7c0.2-0.1,0.1-0.2,0-0.3C25.3,18.1,25.3,18.1,25.4,18.1z"/>
		<path class="st135" d="M22.1,16.9c0.4-0.2,0.8-0.1,1.3,0c-0.1,0.2-0.2,0.4-0.2,0.7C22.8,17.5,22.4,17.3,22.1,16.9z"/>
		<path class="st136" d="M28.5,17.9c0.2,0,0.5,0,0.7,0c0,0.2-0.1,0.4-0.1,0.6c-0.5,0.1-0.8-0.1-1.1-0.4C28.2,17.8,28.4,18,28.5,17.9
			z"/>
		<path class="st137" d="M31.4,19.8c-0.1-0.2,0.1-0.3,0.1-0.4c0.4-0.3,0.7-0.7,1.2-0.9c0.1,0,0.2,0,0.2,0.1
			c-0.2,0.3-0.6,0.4-0.8,0.7C31.9,19.5,31.7,19.8,31.4,19.8z"/>
		<path class="st138" d="M21.1,17.7c0,0.1,0.1,0.3-0.2,0.2c-0.3,0.1-0.4-0.2-0.5-0.3c-0.1-0.2-0.2-0.3-0.3-0.4
			c-0.2-0.2-0.1-0.3,0-0.5h0.1c0.1,0.4,0.4,0.6,0.7,0.7C20.9,17.6,21,17.6,21.1,17.7L21.1,17.7z"/>
		<path class="st139" d="M30.2,18.6L30.2,18.6c0.2-0.1,0.2-0.1,0.3,0c-0.1,0.1-0.1,0.2-0.2,0.3c-0.3,0-0.6-0.1-0.9-0.1
			C29.7,18.6,30,18.8,30.2,18.6z"/>
		<path class="st140" d="M23.8,17.7c0.1-0.2-0.3-0.1-0.1-0.3c0.1-0.1,0.2-0.1,0.4,0c0.2,0.1,0.1,0.3,0,0.4
			C23.9,17.7,23.8,17.7,23.8,17.7z"/>
		<path class="st141" d="M30.5,18.6c-0.1,0-0.1,0-0.2,0c0-0.3,0-0.7,0.4-0.3C30.7,18.5,30.5,18.5,30.5,18.6z"/>
		<path class="st142" d="M28.5,17.9c-0.1,0.1-0.3,0-0.4,0.2c-0.3-0.2,0.1-0.2,0.1-0.3h0.1C28.4,17.8,28.5,17.9,28.5,17.9z"/>
		<path class="st143" d="M24.3,17.5c0-0.5,0.3-0.1,0.4-0.1s0.1,0.1,0,0.1C24.6,17.4,24.5,17.7,24.3,17.5z"/>
		<path class="st134" d="M28.7,18.7c-0.3,0-0.5,0.1-0.7-0.1C28.2,18.6,28.4,18.5,28.7,18.7z"/>
		<path class="st144" d="M21.1,17.7c-0.2,0-0.3-0.1-0.4-0.3h0.1C21,17.5,21,17.6,21.1,17.7z"/>
		<path class="st145" d="M24.8,17.5C24.8,17.4,24.7,17.4,24.8,17.5c0-0.1,0.1-0.1,0.1-0.1c0.1,0,0.2,0.2,0.1,0.2
			C24.9,17.7,24.9,17.5,24.8,17.5z"/>
		<path class="st146" d="M32.1,19.3c0.3-0.2,0.6-0.4,0.8-0.7l0.1,0.1c-0.3,0.2-0.6,0.5-0.9,0.7C32.1,19.4,32.1,19.3,32.1,19.3z"/>
		<path class="st147" d="M37.7,107.9c-1.3,0.3-2.2,0.2-3.6,0.2h-0.5c0,0-0.5,0-0.7-0.1c-0.1-0.1-1.5-0.3-1.7-0.4c0,0,0,1.5,0.1,1.8
			l0,0l0,0c0,0.2,0.3,0.3,0.3,0.5c0,0.1,0,0.3,0,0.4c0-0.1,0.1-0.1,0.1-0.2c0.2-0.5,0.5-0.6,1-0.3c0.2,0.1,0.9,0.5,1.1,0.3
			c-0.1-0.1-0.1-0.2,0.1-0.3c0.8-0.5,1.6-0.9,2.5-1.3c0.5-0.2,1-0.3,1.5-0.6C37.8,107.9,37.7,107.9,37.7,107.9z"/>
		<path class="st148" d="M27.3,29.2c0-0.1,0-0.2,0-0.2s0,0,0.1,0c0,0.1,0,0.2,0,0.2c0,0.5-0.2,1-0.5,1.5s-0.8,0.6-1.3,0.1
			c-0.5-0.4-0.8-1-1-1.6c-0.1-0.3-0.3-0.6-0.4-1.1c0.6,0.3,0.3,0.9,0.6,1.2c0.3,0.2,0.3,0.6,0.6,0.8c0.2,0.2,0.4,0.6,0.8,0.6
			c0.4-0.1,0.5-0.5,0.7-0.8C27.1,29.6,27.1,29.4,27.3,29.2z"/>
		<path class="st98" d="M27.3,29.2c-0.1,0.4-0.2,0.9-0.4,1.3c-0.3,0.5-0.6,0.5-1.1,0.1c-0.4-0.4-0.8-0.8-1-1.3
			c0-0.3,0.5-0.2,0.6-0.2C26,29.1,26.7,29.1,27.3,29.2z"/>
		<path class="st149" d="M18,19.4c0.2,0.5-0.4,0.3-0.4,0.5c0,0.1-0.5,0-0.1,0.3c0,0-0.2,0.2-0.3,0.3c-0.4,0.2-0.7,0.6-0.7,1.1
			c0,0.3,0.1,0.6-0.2,0.7c0.2-0.8,0.2-1.6,0-2.4c-0.1-0.3,0.1-0.7,0.1-1c0-0.2,0.3-0.1,0.4-0.2c0,0.2-0.1,0.4-0.2,0.5
			c-0.2,0.5,0.6,1,1,0.5C17.7,19.6,17.8,19.3,18,19.4z"/>
		<path class="st150" d="M19.3,17.8c-0.3,0-0.5,0.2-0.6,0.4c-0.2,0.4-0.5,0.5-0.8,0.1c-0.3,0-0.3-0.2-0.2-0.4c0.4-0.4,0.8-0.8,1.3-1
			C19.1,17.1,19.1,17.5,19.3,17.8z"/>
		<path class="st151" d="M17.6,17.9c0,0.2,0.1,0.3,0.2,0.4v0.1c0,0.2,0.2,0.3,0.2,0.5s0,0.3-0.1,0.5c-0.2,0.1-0.2,0.1-0.4,0
			c-0.3-0.1-0.6-0.5-0.6-0.9C17.2,18.2,17.3,18.1,17.6,17.9z"/>
		<path class="st152" d="M19.3,17.8c-0.4-0.2-0.3-0.6-0.3-0.9c0.2-0.2,0.6-0.3,0.7-0.6c0.3,0,0.1,0.3,0.2,0.4c0,0.2,0,0.4,0,0.6
			s0,0.3-0.2,0.5C19.6,17.9,19.4,17.7,19.3,17.8z"/>
		<path class="st153" d="M19.8,17.8c0-0.2,0-0.3,0-0.5c0.1-0.1,0.1-0.3,0.3-0.1c0.2,0.1,0.3,0.3,0.4,0.4s0.3,0.2,0.4,0.3
			c0.2,0.3,0.1,0.6,0.2,0.9c0.1,0.1,0.1,0.2,0.1,0.3c0,0.1,0,0.2-0.1,0.2c-0.3,0-0.2-0.3-0.3-0.4c0.1-0.5-0.1-0.8-0.5-1
			C20.2,17.6,20,17.5,19.8,17.8z"/>
		<path class="st154" d="M27.5,37.8c-0.1,0.2,0.1,0.4-0.1,0.5c0-0.3,0-0.6-0.1-0.9c0.1,0,0.1-0.1,0.2-0.1
			C27.5,37.5,27.5,37.7,27.5,37.8z"/>
		<path class="st155" d="M20.5,17.6c-0.1-0.1-0.3-0.2-0.4-0.3c-0.1-0.2-0.2,0-0.3,0c0-0.2-0.1-0.4,0.1-0.6c0.1,0,0.1,0,0.2,0
			C20,17.1,20.5,17.2,20.5,17.6z"/>
		<path class="st156" d="M27.2,19.8c0-0.1,0-0.3,0.1-0.4c0.3,0.3,0.7,0.4,1.1,0.5c0.7,0.1,1.4,0.2,2.1,0.3c0.2,0,0.4,0,0.5,0.3
			c0,0.1,0,0.2-0.1,0.3c0,0.1,0,0.2-0.2,0.2c-0.4,0.2-0.9,0.2-1.3,0.1c-0.2-0.3-0.4-0.4-0.7-0.4c-0.3,0-0.5,0-0.8,0
			c-0.1,0-0.3,0-0.4-0.1l0,0C27.1,20.3,27,20.1,27.2,19.8z"/>
		<path class="st157" d="M27.2,19.8c0,0.3,0,0.5,0.2,0.7c-0.3,0.1-0.1,0.4-0.2,0.6c-0.2,0.2-0.5,0.2-0.7,0c-0.1-0.8,0-1.6,0.1-2.4
			c0-0.1,0.1-0.2,0.2-0.2l0,0c0.2,0.2,0.4,0.3,0.3,0.6C27.2,19.3,27,19.6,27.2,19.8z"/>
		<path class="st158" d="M20.9,18.9c0.3,0,0.1,0.3,0.3,0.4c0.3,0,0.5,0.3,0.8,0.3c0.2,0,0.4,0,0.5,0.1c0.2,0.1,0.5,0.2,0.7,0.1
			c0.5,0,1,0,1.5,0c0.1,0,0.2,0.1,0.2,0.1c-0.1,0.3-0.3,0.4-0.7,0.4c-1,0-2,0-2.9-0.5C21,19.6,20.8,19.4,20.9,18.9z"/>
		<path class="st159" d="M26.5,21.1c0.2,0,0.5,0,0.7,0c-0.1,0.4-0.4,0.7-1,0.7s-1.2-0.2-1.6-0.7c-0.1-0.1-0.2-0.2-0.1-0.3
			c0.1-0.1,0.2,0,0.3,0C25.4,21.1,25.9,21.2,26.5,21.1z"/>
		<path class="st160" d="M29.3,20.9c0.5,0,1,0,1.4,0c0,0.4-0.2,0.6-0.6,0.6c-0.9-0.1-1.7-0.2-2.4-0.8c0.1-0.1,0.1-0.1,0.2-0.1
			C28.3,20.6,28.8,20.8,29.3,20.9z"/>
		<path class="st161" d="M27.5,23.9c-1.6,0.4-2.9-0.6-4.4-0.8C24.7,22.9,26,23.8,27.5,23.9z"/>
		<path class="st162" d="M30.9,20.7c0-0.1,0-0.2,0-0.3c-0.1-0.7-0.1-0.7-0.8-0.8c-0.9-0.1-1.8-0.2-2.7-0.5c0-0.3,0.2-0.2,0.4-0.2
			c1,0.2,2,0.4,3,0.4c0.3,0,0.4,0.2,0.5,0.5c0,0.2,0,0.4-0.2,0.5C31,20.4,31.2,20.8,30.9,20.7z"/>
		<path class="st163" d="M33.4,20.2c0-0.2,0.2-0.2,0.3-0.3c0.2-0.2,0.3-0.5,0.1-0.6c-0.6-0.5-0.1-0.8,0.2-1.1
			c0.2-0.2,0.4-0.4,0.7-0.3c-0.1,0.2-0.3,0.3-0.4,0.5c-0.2,0.2-0.3,0.4-0.1,0.7C34.5,19.6,34.1,20.1,33.4,20.2z"/>
		<path class="st164" d="M24.2,24.2c0.7,0.3,1.4,0.4,2.1,0.4C25.7,25.1,24.7,25,24.2,24.2z"/>
		<path class="st165" d="M31.1,20.3c0.1-0.2,0-0.4,0.2-0.5h0.1c0.2-0.2,0.5-0.4,0.7-0.5v0.1C31.8,19.7,31.5,20,31.1,20.3z"/>
		<path class="st166" d="M25,19.9c-0.1,0-0.1,0-0.2,0c-0.2-0.3,0-0.5,0.2-0.6c0.1-0.1,0.1-0.1,0.2-0.1v0.1
			C25.1,19.5,25.3,19.8,25,19.9z"/>
		<path class="st167" d="M27.8,20.7c-0.1,0-0.1,0-0.2,0s-0.2-0.1-0.2-0.2c0.1,0,0.3,0,0.4,0C27.9,20.6,27.9,20.6,27.8,20.7z"/>
		<path class="st103" d="M30.2,37c0,0.2-1.9,5.8-2,5.8c0.1-2.7-0.7-6.9,0-7.4C28.5,35.1,30.1,37,30.2,37z"/>
		<path class="st168" d="M33.6,32.1c-0.1-0.2-0.3-0.3-0.4-0.5c0,0-0.2-0.4-0.3-0.5c0,0-0.8-0.9-1.3-1.3c-0.1,0.2,0,0.4,0.1,0.5
			c0.2,0.6,0.2,1.1,0,1.7c-0.1,0.3-0.4,1.4-0.5,1.6c-0.1,0.4-0.8,2.6-0.9,2.9c-0.1,0.2-0.2,0.5-0.2,0.7c0,0-0.8,1.8-0.8,1.9
			c-0.3,0.9-0.6,1.8-0.9,2.7c-0.1,0.2-0.7,1.9-0.7,1.9c0,0.2-1.1,3.5-1.2,3.6c-0.3,0.5-0.4,1.1-0.7,1.7c-0.2-0.4-2.8-8.2-2.8-8.3
			c-0.3-1.1-0.7-2.3-1.1-3.4c-0.8-2.3-1.6-4.6-2.4-6.9c-0.2-0.6-0.2-1.1,0.2-1.5c0.1-0.2,0.2-0.3,0-0.5s-0.4-0.1-0.5,0
			c-0.9,0.5-1.8,1.1-2.5,1.8c-0.1,0.1-0.3,0.2-0.2,0.4c0.1,0,0.2,0.1,0.1,0.1c-0.1,0.7,0.1,1.4,0.2,2.2c0.2,1.7,0.6,3.4,1.3,5
			c0.1,0.3,0.3,0.4,0.6,0.4c0.5-0.1,1.1-0.2,1.7-0.1c-0.2,0.5-0.8,0.6-1.1,0.9c-0.2,0.2-0.3,0.4-0.1,0.7c0.3,0.6,0.6,1.2,1,1.8
			c0.8,1.4,1.7,2.8,2.6,4.1s1.8,2.6,2.7,4c0.2,0.2,0.6,0.5,0.8,0.2c0.1-0.2,0.2-0.4,0.3-0.6c0.9-1.2,2.6-4,2.7-4.2
			c0.5-1.1,1-2.1,1.5-3.1c0.4-0.8,0.8-1.4,0.3-2.4c-0.2-0.3-0.4-0.9-0.3-1.1c0.1-0.3,0.4-0.2,0.7-0.2c0.2,0,0.4-0.1,0.6,0
			c0.2,0.1,0.4-0.1,0.5-0.3c0.4-1.2,1-3.4,1.3-4.1c0.2-0.5,0-1.5,0-1.5C33.9,32.4,33.6,32.2,33.6,32.1z"/>
		<path class="st112" d="M27.8,40.2c-0.1-0.8-0.4-2.8-0.3-2.8c0-0.2-0.1-0.3-0.1-0.5c-0.1,0-0.1-0.6-0.6-0.6c-0.3,0-0.7,0-1,0
			s-1.1-0.2-1.4,0c-0.2,0.1-0.2,0.3-0.2,0.4c-0.2,1-0.7,4.7-0.8,5.3c0,0.1,2.3,7,2.6,7.5c0.3-0.7,1.9-5.8,2-6.1
			C28,43,27.9,40.3,27.8,40.2z M27.4,39.9L27.4,39.9L27.4,39.9L27.4,39.9L27.4,39.9L27.4,39.9z M27.8,41.4L27.8,41.4L27.8,41.4
			L27.8,41.4z"/>
		<path class="st54" d="M37.3,105.8c-0.1-0.9-0.2-1.8-0.8-2.6c-0.4-0.7-0.5-1.4-0.4-2.2c0.1-0.8,0.2-1.5,0.1-2.3
			C36,97,36,95.3,35.8,93.6c-0.1-1.1-0.2-2.1-0.4-3.2c-0.1-1.1-0.3-2.2-0.3-3.3c0-0.7-0.1-1.4-0.3-2.1c-0.1-0.6-0.5-1.2-0.6-1.9
			c-0.1-1.8-0.3-3.6-0.6-5.3c-0.1-0.6-0.3-2-0.3-2.1c0-0.3-0.2-1.3-0.3-1.8s0-0.8,0.6-0.8c0.2,0,0.3-0.1,0.1-0.3
			c-0.9,0.2-1.9,0.4-2.8,0.6c-0.2,0-2.2,0.3-3.1,0.6c-0.2,0.1-0.4,0-0.5,0.2c-0.1,0.1,0,0.2,0.1,0.1c0.2,0,0.2,0.2,0.2,0.3
			c0.1,0.4,0.2,1.7,0.2,1.9c0.2,0.8,0.3,1.6,0.4,2.3c0,0.2,0.3,0.8,0.2,0.9V80c0,0.1,0.1,0.1,0.1,0.2c0.1,0,0.1,0,0.2,0h0.1v0.1
			c0.4,2.3,0.6,4.6,0.8,6.9c0.1,1.7,0.2,3.3,0.3,5c0.1,2.1,0.3,4.2,0.4,6.2c0.2,2.2,0.3,4.4,0.5,6.6c0.1,0.8,0.3,1.3,1.1,1.6
			c0.1,0,0.6,0.4,0.8,0.6s0.5,0.7,0.8,0.9c0.1,0,0.1,0,0.2,0c0.8,0,1.6,0,2.4,0c0.5,0,1.3,0,1.7-0.2
			C37.6,107.4,37.4,106.5,37.3,105.8z"/>
		<path class="st49" d="M32.1,70.5c-0.5-0.6-1.1-0.7-1.8-0.5c-0.3,0.1-0.5,0.1-0.8-0.1c-0.6-0.5-1.3-0.4-1.9,0.2
			c-0.7,0.7-1.5,1.5-2.2,2.2c-0.1,0-0.2,0.1-0.1,0.2c-0.1,0.2-0.3,0.3-0.4,0.4c-0.6,0.5-0.8,1-0.6,1.7c0.1,0.4,0.4,1.7,0.4,2.1
			c0.1-0.6,0.1-1.4,0.1-1.7c-0.1-0.3,0.1-1,0.1-1c0.3-0.3,0.6-0.3,1-0.1c0.3,0.2,0.6,0.4,1,0.4c0.2,0.1,0.5,0,0.6-0.1
			c0.6-0.1,1.1-0.2,1.7-0.4c0.4-0.1,2.4-0.4,2.8-0.5c0.6-0.1,1.1-0.2,1.6-0.5C34.4,73.6,32.9,71.3,32.1,70.5z"/>
		<path class="st169" d="M27.4,19.1c0.8,0,1.5,0.3,2.2,0.4c0.2,0,0.5,0,0.7,0.1c0.7,0.1,0.8,0.2,0.6,0.9c-0.7-0.2-1.3-0.2-2-0.3
			c-0.4-0.1-0.8-0.1-1.1-0.2c-0.2-0.1-0.4-0.2-0.4-0.5C27.3,19.3,27.3,19.2,27.4,19.1z"/>
		<path class="st170" d="M29.6,18.4c0.1-0.4,0.3-0.4,0.5-0.1C30,18.7,29.7,18.3,29.6,18.4z"/>
		<path class="st171" d="M27.1,19.1c-0.1-0.2-0.2-0.4-0.3-0.6c0.2,0,0.4,0,0.4,0.3C27.2,18.9,27.2,19,27.1,19.1z"/>
		<path class="st172" d="M21.2,18.3v-0.1c0.1-0.1,0.3-0.2,0.5-0.2c0.9,0.2,1.9,0.4,2.8,0.5c0.6,0.1,0.6,0.3,0.4,0.8
			c-0.7,0.1-1.4,0-2.1-0.2c-0.5-0.1-1.1-0.2-1.6-0.5C21.2,18.6,21.3,18.4,21.2,18.3z"/>
		<path class="st173" d="M25,19.3c0.1-0.4,0-0.6-0.5-0.7c-0.9-0.1-1.8-0.2-2.7-0.5c-0.2-0.1-0.4-0.1-0.6,0c0-0.3,0.2-0.3,0.4-0.3
			c1.1,0.2,2.2,0.4,3.3,0.5c0.1,0,0.1,0.1,0.2,0.1c0,0.2,0,0.5,0,0.7C25.1,19.2,25.1,19.2,25,19.3C25.1,19.3,25,19.3,25,19.3z"/>
		<path class="st174" d="M21.2,18.3c0.1,0.1,0.1,0.2,0.1,0.3c0.1,0.2,0.1,0.3,0,0.5c0,0.1-0.1,0.1-0.1,0s0-0.2,0-0.3
			C21.2,18.6,21.2,18.5,21.2,18.3z"/>
		<path class="st175" d="M21.2,19.1C21.3,19.1,21.3,19.1,21.2,19.1c0.4,0,0.7,0.2,0.7,0.6c-0.3,0-0.5-0.2-0.7-0.4
			C21.2,19.2,21.2,19.2,21.2,19.1z"/>
		<path class="st176" d="M27.8,20.7c0-0.1,0-0.1,0-0.2c0.4,0,0.8,0,1.2,0c0.4,0,0.4,0.1,0.2,0.4C28.8,21,28.3,20.7,27.8,20.7z"/>
		<path class="st177" d="M21.9,19.7c-0.1-0.3-0.4-0.4-0.6-0.6c0-0.2,0-0.3,0-0.5c1.2,0.4,2.4,0.6,3.7,0.7h0.1
			c-0.1,0.2-0.4,0.3-0.3,0.6c-0.5,0-1.1,0-1.6,0c-0.2-0.1-0.4-0.1-0.6-0.2C22.3,19.7,22.1,19.7,21.9,19.7z"/>
		<path class="st178" d="M22.5,19.7c0.2,0,0.4,0,0.6,0.2C22.9,19.9,22.7,19.9,22.5,19.7z"/>
	</g>
</g>
</svg>
