<?xml version="1.0" encoding="utf-8"?>
<!-- Generator: Adobe Illustrator 21.0.0, SVG Export Plug-In . SVG Version: 6.00 Build 0)  -->
<svg version="1.1" id="Layer_1" xmlns="http://www.w3.org/2000/svg" xmlns:xlink="http://www.w3.org/1999/xlink" x="0px" y="0px"
	 viewBox="0 0 841.9 215.1" style="enable-background:new 0 0 841.9 215.1;" xml:space="preserve">
<style type="text/css">
	.st0{fill:#3EB2B5;}
	.st1{fill:#E0313D;}
	.st2{fill:#2F7D7B;}
	.st3{fill:#2B2A29;}
	.st4{fill:#FEFEFE;}
	.st5{fill:#860A0B;}
	.st6{fill:#B30B0C;}
	.st7{fill:#FD6B6C;}
	.st8{fill:#E31B1B;}
	.st9{fill:#FC8384;}
	.st10{fill:#640202;}
	.st11{fill:#D31515;}
	.st12{fill:#FC4C4C;}
	.st13{fill:#FAFAFA;}
	.st14{fill:#B9120D;}
	.st15{fill:#F6F6F6;}
	.st16{fill:#BCBCBC;}
	.st17{fill:#B4B4B4;}
	.st18{fill:#A81616;}
	.st19{fill:#DEDEDE;}
	.st20{fill:#D95857;}
	.st21{fill:#CFCFCF;}
	.st22{fill:#C3C3C3;}
	.st23{fill:#ABACAB;}
	.st24{fill:#F64848;}
	.st25{fill:#CC1414;}
	.st26{fill:#F7423D;}
	.st27{fill:#C6130D;}
	.st28{fill:#C63737;}
	.st29{fill:#A40909;}
	.st30{fill:#B7B8B8;}
	.st31{fill:#E87676;}
	.st32{fill:#BB0D0D;}
	.st33{fill:#F5F3F1;}
	.st34{fill:#F87777;}
	.st35{fill:#EAEAEA;}
	.st36{fill:#CACACA;}
	.st37{fill:#D3D3D3;}
	.st38{fill:#F76567;}
	.st39{fill:#E5E5E5;}
	.st40{fill:#F1635C;}
	.st41{fill:#FA5C62;}
	.st42{fill:#F7524D;}
	.st43{fill:#E56767;}
	.st44{fill:#FB2C33;}
	.st45{fill:#F83737;}
	.st46{fill:#6B0203;}
	.st47{fill:#D3AE50;}
	.st48{fill:#D34F4F;}
	.st49{fill:#E75858;}
	.st50{fill:#F9726E;}
	.st51{fill:#FC6364;}
	.st52{fill:#C52828;}
	.st53{fill:#EEB030;}
	.st54{fill:#E2E2E2;}
	.st55{fill:#C5080A;}
	.st56{fill:#F1B54B;}
	.st57{fill:#B60609;}
	.st58{fill:#D6AA2F;}
	.st59{fill:#C7C8C7;}
	.st60{fill:#E9D390;}
	.st61{fill:#D54848;}
	.st62{fill:#F00D11;}
	.st63{fill:#EADC5D;}
	.st64{fill:#F3CD4F;}
	.st65{fill:url(#SVGID_1_);}
	.st66{fill:#E6253C;}
	.st67{fill:#FECBCB;}
	.st68{fill:#FEC6C4;}
	.st69{fill:#0B0A09;}
	.st70{fill:#FCDAD6;}
	.st71{fill:#0A0808;}
	.st72{fill:#0D0C0B;}
	.st73{fill:#343233;}
	.st74{fill:#F3C1C3;}
	.st75{fill:#110F10;}
	.st76{fill:#F5C3C2;}
	.st77{fill:#100F0E;}
	.st78{fill:#FBD4D3;}
	.st79{fill:#0C0B0B;}
	.st80{fill:#F2CECF;}
	.st81{fill:#FAB4B1;}
	.st82{fill:#FFFFFF;}
	.st83{fill:#EFEFEF;}
	.st84{fill:#FCD7D4;}
	.st85{fill:#FFEBEE;}
	.st86{fill:#930920;}
</style>
<g id="Layer_1_1_">
	<g id="Layer_x0020_1">
		<path class="st0" d="M252.9,152.8c-22.6,0-40.5-15-40.5-41.7V58.9h4.3c13.1,0,18.9,5.6,18.9,16.3v33.7c0,16.8,8.2,23.7,18.5,23.7
			c9.4,0,16-6.5,16-22.1V58.9h4.1c13.3,0,18.9,5.6,18.9,16.3v34.4C293.1,138.2,279.6,152.8,252.9,152.8L252.9,152.8z"/>
		<path class="st0" d="M402.4,87.9c-3.1-5.3-11.8-9.5-24.8-9.5c-13.3,0-25,10.7-25,24.3c0,16.7,9.9,28.1,25.4,28.1
			c13.1,0,20.9-4.3,24.2-8.5h0.9v10.5c0,11.1-10.7,19.1-27.2,19.1c-25.2,0-47-19.6-47-45.8s18.2-48.7,49.5-48.7
			c14.6,0,25,8.9,25,19.7v10.7L402.4,87.9L402.4,87.9z"/>
		<path class="st0" d="M432.7,42.8v54.8c8.9-11.6,17.5-23.3,28.1-33.4c5.4-5.1,10.9-5.9,18.2-5.9h13v0.9
			c-6.5,5.4-27.7,29.6-37.3,41.7c7.3,9,14.5,18.4,22.6,26.7c8.3,8.3,12.1,10,17.7,11.9c-2.4,7.3-6.1,11.2-15.5,11.2
			c-5.1,0-11.1-2.4-15-6.3c-11.8-12.1-22-25.7-32-39.2V150l-7.3,0.2c-10.5,0.2-15.7-5.4-15.7-16.2V27.7h7.3
			C428.1,27.7,432.7,34,432.7,42.8L432.7,42.8z"/>
		<path class="st1" d="M753.8,150.8c-12.4,0-17.4-5.8-17.4-16.7V98.7c0-15.1-6.8-21.6-16.8-21.6c-9.2,0-15.5,6.5-15.5,19.1v54.6H698
			c-10,0-16.7-5.8-16.7-16.7V98.7c0-15.1-7-21.6-17-21.6c-8.9,0-15.5,7-15.5,19.6v54.1h-6.1c-9.4,0-16.5-6.1-16.5-16.7V98.6
			c0-25,13.1-41.7,40.8-41.7c11.9,0,21.3,5.4,27.9,14.3c5.3-8.5,15.3-14.3,26.4-14.3c21.1,0,38.1,12.8,38.1,38.8v55.1L753.8,150.8
			L753.8,150.8z"/>
		<path class="st1" d="M819.6,110.8h-8.2c-17.4,0-22.3,4.1-22.3,11.6c0,7.2,5.8,11.4,15.8,11.4c9.9,0,14.6-4.8,14.6-14.1v-8.9H819.6
			z M807.2,152.3h-4.6c-21.8,0-36.8-12.2-36.8-29.1c0-16.3,11.9-28.8,45.6-28.8h8v-1.2c0-12.9-6.1-16.8-19.7-16.8
			c-16.5,0-25.7,6.3-29.1,10.5h-0.9v-7.3c0-10.2,9.2-22.5,33.4-22.5c20.4,0,38.8,9.5,38.8,41.2v21.1
			C841.9,138.9,827.6,152.3,807.2,152.3L807.2,152.3z"/>
		<path class="st0" d="M310.6,25.7c-7.3,0-13.3,5.9-13.3,13.3s5.9,13.5,13.3,13.5c7.3,0,13.5-6.1,13.5-13.5S318,25.7,310.6,25.7z"/>
		<path class="st0" d="M322.2,103.7V77.9c0-11.6-6.1-17-16.3-17h-6.5c0,0,0,24.5,0,42.8V123v28.3h22.8v-28.9V103.7L322.2,103.7z"/>
		<path class="st0" d="M173.9,104.8c-7.5,18.5-28.6,27.4-47.1,20s-27.4-28.5-20-47s28.6-27.5,47.1-20
			C172.5,65.2,181.4,86.3,173.9,104.8L173.9,104.8z M165,30.5c-33.5-13.6-71.7,2.7-85.3,36.2s2.7,71.7,36.2,85.3
			c10.3,4.2,21.1,5.5,31.4,4.4c2.7-0.3,5.4-0.7,7.9-1.3c20.1-4.6,37.7-18.7,46-39.2C214.7,82.3,198.5,44.1,165,30.5z"/>
		<path class="st2" d="M155.2,155c-2.6,0.6-5.3,1.1-7.9,1.3l-27.6-20.1C119.6,136.2,138.8,140,155.2,155z"/>
		<path class="st0" d="M68.7,68.9c-1.1,3-1.9,6-2.6,9h-48c-2.5,0-4.5-2-4.5-4.5l0,0c0-2.5,2-4.5,4.5-4.5H68.7L68.7,68.9z"/>
		<path class="st0" d="M65.4,82.2c-0.4,3-0.6,6-0.6,9H4.5c-2.5,0-4.5-2-4.5-4.5l0,0c0-2.5,2-4.5,4.5-4.5H65.4z"/>
		<path class="st0" d="M66.2,104.5H34.3c-2.5,0-4.5-2-4.5-4.5l0,0c0-2.5,2-4.5,4.5-4.5H65C65.2,98.6,65.6,101.6,66.2,104.5
			L66.2,104.5z"/>
		<path class="st0" d="M152.2,210.9c-10.3-24.2-24.6-39.8-42.5-46.3c-28.3-10.3-57.9,4.5-58.2,4.7l-13.9-26.8
			c1.7-0.9,41.2-21,82-6.4c26.3,9.4,46.6,30.6,60.3,62.9L152.2,210.9L152.2,210.9z"/>
		<path class="st3" d="M684.2,207.5c-3.5,0-6.5-3-6.5-6.5s3-6.5,6.5-6.5s6.5,3,6.5,6.5S687.7,207.5,684.2,207.5z"/>
		<path class="st3" d="M729.9,179.8c-1.3-2.3-5.2-4.2-11-4.2c-5.9,0-11.1,4.8-11.1,10.8c0,7.4,4.4,12.5,11.3,12.5
			c5.8,0,9.3-1.9,10.7-3.8h0.4v4.7c0,4.9-4.8,8.5-12.1,8.5c-11.2,0-20.9-8.7-20.9-20.4s8.1-21.6,22-21.6c6.5,0,11.1,3.9,11.1,8.8
			v4.8L729.9,179.8L729.9,179.8z"/>
		<path class="st3" d="M756,174.8c-5.8,0-8.8,4.8-8.8,11.6c0,8.1,3,12.9,9.7,12.9c5.9,0,8.8-4.8,8.8-11.5
			C765.7,179.6,762.6,174.8,756,174.8z M756.9,165.7c12.2,0,19.3,9.8,19.3,20.6c0,12.2-7,22-20.2,22c-12.2,0-19.3-9.7-19.3-20.6
			C736.7,175.6,743.7,165.7,756.9,165.7L756.9,165.7z"/>
		<path class="st3" d="M839.4,207.5c-5.5,0-7.7-2.6-7.7-7.4v-15.7c0-6.7-3-9.6-7.5-9.6c-4.1,0-6.9,2.9-6.9,8.5v24.3h-2.7
			c-4.5,0-7.4-2.6-7.4-7.4v-15.7c0-6.7-3.1-9.6-7.5-9.6c-3.9,0-6.9,3.1-6.9,8.7v24.1H790c-4.2,0-7.4-2.7-7.4-7.4v-15.8
			c0-11.1,5.8-18.5,18.2-18.5c5.3,0,9.5,2.4,12.4,6.4c2.3-3.8,6.8-6.4,11.7-6.4c9.4,0,16.9,5.7,16.9,17.2v24.5L839.4,207.5
			L839.4,207.5z"/>
		<g id="_344119992">
			
				<rect x="403.2" y="31.6" transform="matrix(0.2605 -0.9655 0.9655 0.2605 269.4731 419.9261)" class="st4" width="11.3" height="5"/>
			
				<rect x="416.8" y="7.3" transform="matrix(0.9143 -0.4051 0.4051 0.9143 30.7011 170.9694)" class="st4" width="5" height="11.3"/>
			
				<rect x="421.8" y="18.4" transform="matrix(0.9143 -0.4051 0.4051 0.9143 26.6297 173.9464)" class="st4" width="5" height="11.3"/>
			
				<rect x="434.8" y="47" transform="matrix(0.9143 -0.4051 0.4051 0.9143 16.1626 181.6653)" class="st4" width="5" height="11.3"/>
			<path class="st5" d="M449.1,72.9c0.7,0.8,0,1.7-0.6,2.2s-1.3,0.9-2,1.2c-1.2,0.7-3.1,1.2-4.6,1.7c-1.6,0.5-3.3,0.9-4.9,1.2
				c-1.6,0.3-3.5,0.8-5.2,0.9c0-0.2,0-0.3-0.3-0.2l-0.3,0.1c-0.3-0.3,0-0.1-0.3-0.4c-0.3,0-0.6-0.1-0.8,0.1
				c-0.4,0.3-0.3,0.3,0.2,0.5c-0.1,0-0.2-0.1-0.3-0.1V80c0,0-0.1-0.1-0.2-0.2l-0.3,0.3c-0.2,0.2-0.2,0-0.4-0.2c0,0,0,0,0,0.1
				c-0.1,0.4,0.2,0,0,0.2l-0.6-0.4l0.5-0.3c0.1-0.1,0-0.2,0-0.4l-0.1-0.4c-0.1-0.1-0.2-0.1-0.3-0.1c0,0-0.2,0-0.3,0
				c-0.5,0,0.1,0.1-0.8,0c-0.6-0.1-0.5,0.3-0.9,0.4l0.1-0.7l-1.4-0.3l-0.1,0.7l-1.9-0.3c0.1,0.3,0,0,0.1,0.2
				c0.3,0.4-0.3-0.4,0.1,0.2c0.1,0.2,0.2-0.2,0.1,0.4l-0.7-0.1c-0.1-0.4-0.1-0.5-0.5-0.7l-0.2,0.3c0,0.1-0.1,0.2-0.1,0.3
				c-0.3-0.1-0.7-0.1-1-0.2c-0.6-0.2-0.1-0.2-0.8-0.4l-0.9-0.1c-0.4,0.1-0.6,0-1.1-0.1c-0.6-0.1-0.1-0.2-0.9-0.3
				c-0.3-0.1-0.7-0.1-1.1-0.2c-1.1-0.2-1.3-0.4-1.4,0.2c0,0.1,0.3,0.1,0,0.1c-0.1,0.3,0-0.1-0.4,0c0.2-0.1,0.1-0.1-0.1-0.1
				c0-0.2,0.2,0.1-0.2-0.4c0,0,0,0,0-0.1l-0.9-1.2c-0.4-0.6-0.4-1-0.9-1.1l-0.5,0.5c-0.3,0.1-0.4,0-0.8,0l-0.1,0.5l-2.8-0.5
				l-0.2,0.8c-0.3,0-2.7-0.6-2.7-0.4c0,0,0,0,0,0.1l-0.2,0.3c-1-0.2-1.6-0.2-2.7-0.4c0,0,0,0,0,0.1l-0.2,0.4c0,0-0.3,0.2-0.4,0.3
				l-0.3,0.3c-0.5,0.5-0.7,0.5-1.5,0.3c-0.9-0.2-0.6-0.1-1.1,0.1c0.1,0.8-0.2-0.6,0.1,0.3c0,0.1,0.1,0,0.1,0.2l-1.4-0.2l-0.3,1.2
				c-0.3,0-0.5-0.1-0.7-0.1h-0.5c-0.9,0-0.4-0.3-1-0.2c-0.2,0-0.1,0-0.2,0.1l-0.2,0.2c0,0,0,0-0.1,0.1c-1.6-1.7,1.1-3,1.5-3.3
				c0.3-0.1,1.5-0.7,1.7-0.9c0.4-0.1,1.1-0.4,1.5-0.6c0.4-0.1,0.9-0.3,1.3-0.4c0.2-0.1,0.4-0.1,0.6-0.2s0.4-0.2,0.6-0.2
				c1,0.1,0.9,0,1.7-0.2c0.6-0.1,1.1-0.3,1.6-0.4c1.1-0.2,2.2-0.4,3.3-0.7c0.4,0,0.4,0.2,0.6,0.5c0.5,0.7,0.3,0.6,1.5-0.3
				c0.5-0.3,0.1-0.2,0.4-0.6c0.3-0.3,0.5,0.1,0.6-0.3c0.7,0.1,2.9-0.4,3.9-0.4c-0.6,0.4-1.5,0.3-2.8,0.5c-1,0.2-1.3,0.1-1.7,0.3
				c0.2,0.2,0.1,0.2,0.3,0.3l0.3,0.1c0,0,0,0,0.1,0l2.3,0.3c0.6,0,0,0,0.4-0.1l2.7,0.3v-0.1l0.1-0.1c0.1-0.2,0-0.1,0.1-0.1
				c0.2-0.1,3.7,0.6,4.1,0.7l0.1-0.3l1.2,0.2v0.3l1.5,0.3l0.1-0.4l9.7,1.8l0.2-0.9l0.7,0.2l0,0c0.3,0.2,0,0,0.2,0.1
				c0.2,0.2-0.2,0.1,0.3,0.2c0-0.3,0-0.3,0-0.5c0,0.1,1.7,1.6,2.4,1.8c0.6,0.2,1.3-0.3,1.7-0.5c0.4-0.3,1.7,0,2.1-0.1h0.4
				c0.1-0.2,0.2-0.5,0.3-0.7c0.5,0.5,0.2,0.4,0.3,0.7l0.2-0.4l0,0v-0.2c0-1.2,0.4-1.1,0.8-1.4l0,0l0,0c-0.1,0.6,0,0.2,0.1,0.4
				c0.7,0.1,0.9,0,1.2-0.3c0.3,0.2,0,0.1,0.2,0.2c0.2,0,0.3-0.2,0.6-0.5c0.3,0.2,0.1,0.2,0.3,0.1c0,0,0.3-0.1,0.3-0.2
				c0.3-0.2,0.4-0.1,0.4-0.3v-0.1c0.3,0,0.5,0,0.8-0.1c-0.1-0.2,0,0,0-0.1v-0.2v-0.1c0.4,0.2,0.7,0.4,1,0.8h0.6L449.1,72.9
				L449.1,72.9z"/>
			<path class="st6" d="M412.3,38.7c-0.2,0.2-0.2,0.2-0.4,0.4c-0.1,0.5-2,2.8-0.8,5.5c0.3,0.7,0.8,1.4,1.6,1.9
				c1.3,0.7,1.6,0.4,2.8,0.4l-0.1,0.2l-0.7-0.1c0.1,0.3-0.3,0.1,0.3,0.3l-0.1,0.5c0,0,0,0,0.1,0l0.1,0.1l0.1,0.1c0,0,0,0,0.1,0
				c0,0.2-0.1,0.3-0.1,0.5c0,0.3,0,0,0.1,0.2c0.3,0.6,0-0.3,0.1,0.2l-0.5,2.6l0.8,0.2l-0.7,4.1l0.4,0.4l0.1,0.1l0.2,0.2h-0.2
				c-1.2,0.1-2.2,0.8-3,1.5c-0.7,0.7-1.5,2.1-1.6,3.3c-0.2,2.7,1.4,4.8,4.5,4.7c-0.1,0.3-0.1,0.1-0.1,0.3l-2.1-0.5
				c0.1,0.3,1.5,0.5,1.7,1.1c-0.2,0.3,0,0-0.2,0.1c0,0,0,0-0.1,0c-0.2,0.1,0-0.1-0.2,0.1l0.3,0.2c0.1,0,0.3,0,0.4,0.1
				c-0.1,0.6-0.1,1-0.3,1.4c-0.1,0.1,0-0.2-0.1,0.3l-0.2,1.1l0.4,0.1l0,0c-0.1,0.5-0.2-0.2,0,0.2c0.5-0.1,0.1,0,0.6,0.1l0.4,0.1
				l-3,0.5c-0.1,0-0.2,0-0.2,0c-0.3,0.1-0.1,0-0.2,0.1c-0.5-0.1,0-0.1-0.2,0.2c-0.1,0.4-0.3,0-0.6,0.3c-0.3,0.4,0.1,0.3-0.4,0.6
				c-1.2,0.9-1.1,1-1.5,0.3c-0.2-0.3-0.2-0.5-0.6-0.5c0.5,0.1,1-0.2,1.9-0.3c0.7-0.1,0.5-0.1,0.7-0.3c-1.3-0.5-0.1-0.7-1.1-2.3
				c-0.5-0.8-1-1.4-2.1-1.6c-1.7-0.4-2.9,0.1-3.9,1.1l-0.9,1h-0.2c-0.5-0.1,0.2,0.1-0.1,0c0-0.2,0.1-0.2,0.2-0.5l0.4-2.3
				c0.1-0.4,0.3-1.1,0.2-1.5c0,0-0.1,0-0.1-0.2c0-0.4,0.5-0.7,0.5-0.8c-0.1-0.1-0.1-0.3-0.3-0.4c0.8-0.7,0.9-1.3,0.8-1.2l0.2-0.7
				c0.2-1,0.3-1.1,0-1.3h0.1c0,0,0.2,0,0.3-0.3l0.3-1.9l0.4,0.1c-0.3-0.1-0.1-0.1-0.4-0.2c0.2-0.1,0.3-0.1,0.1-0.2
				c0.5,0,0.4,0.1,0.7-0.2c1-0.4,1.8-0.8,2.6-1.6c2.3-2.7,2.6-7.9-1.6-8.3v0.1c-0.7,0.1-1.2,0.2-1.7,0.7c-0.3,0.3-0.9,0.8-1.1,1.3
				l0.2-0.6c0.4-0.1-0.1,0.2,0.1-0.1l0,0l0.1-0.2c0.2-0.3-0.2,0.3,0.2-0.1c0-0.2-0.2-0.2-0.2-0.4c0-0.3,0,0,0.1-0.1l0.1-0.1
				c0.3-0.4,1.3-7.1,1.6-8l0.2-0.4l0,0l0,0c0,0-0.1-0.1-0.1-0.2c0.2,0,0.3,0,0.3-0.3s0.2-0.1-0.3-0.3c0.4,0,0.2,0,0.2-0.1l0.1-0.3
				v-0.1V39c0.4-0.1,0.8-0.4,1.1-0.7c0.2-0.2,0.6-0.7,0.8-1c0.5-0.7,1.1-1.6,1.2-2.4l1.4,1.9C412.7,37.5,412,38.2,412.3,38.7
				L412.3,38.7L412.3,38.7z"/>
			<path class="st7" d="M427.9,38c-0.5,2.3-0.1,3.9,0.8,5.3c0.7,1.2,2.1,2.8,4.1,2.9c-0.2,0.1,0,0.1-0.4,0.1
				c0.1,0.2,0.2,0.6,0.5,1.3l1.6,4.6c0.5,1.2,0.9,2.8,1.5,4c-1.4-0.6-1.9-0.9-3.3-0.4c-0.9,0.4-1.6,1.1-1.9,2.4
				c-0.2,0.2-0.4,0.5-0.4,0.8c0-0.1-0.2-0.3-0.2-0.4l-1.3-1.6c-0.2,0-0.1,0-0.2,0.2l-0.1,0.3c-0.5,0.7-0.3,1.6-0.3,1.7L428,61
				l0.5,0.3c-0.1,0.7-0.4,1-0.1,1.6c0.2,0.4,0.1,0.3,0,1.1h0.1l0.4,0.2c-0.2,0.1-0.1,0.1-0.4,0.1l0.1,0.2c0.1,0.2,0.1,0.1,0,0.3
				c0.6,0.2,0.7,0.1,0.6,0.5l-0.8-0.2c-0.2,0-0.3-0.1-0.5-0.1c-0.5-0.1-0.4,0-0.5,0l-0.2,0.1H427l-0.4-0.1l0.4-0.2l0,0l0.1-0.2
				c-0.8-0.3-0.6-0.3-0.6-1.2c0-0.7,0-1.1-0.1-1.6v-0.6c0.1-0.8,0-0.7-0.1-1c0,0,0,0,0-0.1c-0.1-0.9,0.4-0.8,0-1.7l-0.1-2l-0.6-0.3
				c0.1,0,0.1-0.1,0.3-0.1c0.3-0.1,0.5-0.1,0.8,0c0.1-0.4,0.1,0-0.3-0.4c-0.2-0.2,0.2,0-0.1-0.1l0.5-0.2c0.5-0.1,0.7-0.2,1.1-0.5
				c1.7-1.1,2-3,1.5-4.9c-0.3-1-0.9-2-1.7-2.7c-1.1-1-1.8-1.2-3.5-1.3c0.5-1-0.1-0.6-0.1-1.5c0-1-0.1-0.9,0-1.5l-0.4-0.5l0.3-2.5
				l-0.7-0.2l0.2-1.3c0.1-0.5,0.4-1.1-0.1-0.8l-0.1,0.1c0.1-0.6,0-0.4,0-0.9h0.7c-0.1-0.1,0,0-0.2-0.2l-1-0.2c0,0-0.1-0.3,0.4-0.1
				c1.3,0.1,2.5-0.5,3.1-1.6l0.3-0.4c0.1,0.3,0,0,0.2,0.2c0,0,0,0,0.1,0l0,0l0,0c0,0,0,0,0,0.1s0.1,0.2,0.1,0.2s0,0,0,0.1l0.1,0.2
				c0,0,0,0,0,0.1l-0.1,0.1c-0.1,0.2,0,0,0,0.5c0,0.1,0,0.1,0,0.2l0.7,0.1l-0.1,0.7l0.3-0.6c0,0,0,0,0-0.1c0.5,0.2,0.2,0.3,0.2,1.6
				C427.8,37.8,427.7,38,427.9,38L427.9,38z"/>
			<path class="st8" d="M417.3,9.7c0,0.5-0.3,1.2-0.4,1.9s0,1.2,0.1,1.8c0.1,0.7,0.5,1.6,0.9,2.2c0.2,0.3,0.3,0.4,0.4,0.7
				c-0.1,0.4,0,0.1,0.1,0.6c0,0.4,0,0.4,0.1,0.8s0.2,1,0.2,1.5c0.1,0.5,0.2,1,0.3,2.1l0.6,4.4c0,0.3,0,0.5,0,0.8
				c0.1,0.5,0.3,0.9,0.1,1.5c-0.5,0.7-0.9,1-1.2,2c-0.5,1.8-0.1,3.2,0.8,4.6c0.5,0.8,1.2,1.1,1.6,1.5c0.1,0.9,0.3,0.5,0.2,1.1
				c0,0.8,1.3,8.7,1.2,9.3l0.1,0.1c-0.5,0-0.4,0.3-0.7,0.3c-0.4-0.2-0.1,0.1-0.3-0.3l-0.1-0.1c0-0.2-0.1,0,0-0.1
				c-0.2,0.6-0.1,0.4-0.5,0.5c0-0.3-0.1-0.5,0.2-0.6c-0.3-0.2-0.8-1.1-1.1-1.4c-0.3-0.4-1-1.2-1-1.7c0-0.8,0.2-1.1,0.1-2
				c-0.4-2-1.7-3.5-3.9-3.8l0.1-0.1c0.6-0.5,0.4-0.3,0.4-1.1c0-0.7,0.2-0.8,0.5-1.2c0.1-0.1-0.2-2,0.1-1.5c0.1,0.2,0.1,0.2,0.3,0.4
				c0-0.3-0.1-0.2-0.3-0.6c-0.2-0.4,0-0.3-0.2-0.7c-0.3-0.4,0.1,0.6-0.4-0.6c-0.1-0.3-0.1-0.1,0-0.9c0.1-0.4,0.1-0.6,0.1-0.8
				l-0.1-0.2c0,0,0,0,0-0.1c-0.1-0.3,0.1-0.9,0.2-1.2l-0.2-0.2c-0.5-0.5-0.2-0.5-0.2-0.5c0.2-0.3,0,0.3,0.3-0.3h-0.1
				c0,0-0.1,0-0.2,0v-0.3c0.1-0.2,0.4-0.3,0.8-0.8c0.9-1,1.4-2.6,1.4-4c-0.1-1.3-0.5-2.5-1.2-3.4c-0.2-0.3-0.7-0.6-0.9-0.8
				c0-0.4-0.2-0.6-0.6-0.8c0.3,0,0.3,0,0.6,0c0.1,0,0.2,0,0.3,0h0.2c0,0,0,0,0.1,0l-0.6-0.1c-0.1-0.4-0.1-0.3-0.2-0.5V17
				c-0.1-0.8,0.3-1.1,0-1.5c-0.1-0.1-0.1-0.1-0.1-0.2c0-0.2,0-0.4,0.1-0.6c0.1-0.7-0.2-0.1,0-1.2c0.1-0.4,0.2-0.9,0.2-1.3
				c0-0.4,0-0.5-0.1-0.8c-0.2-0.4-0.1,0,0-1c0.1-0.8,0-0.4-0.1-0.7s0.1-1.1,0.2-1.5c-0.1-0.1,0-0.1-0.2-0.2l-0.1-0.1V7.2
				c0.8-1.3,1.2-4,0.6-5.3c0.2-0.3,0.3-0.2,0.6-0.1l0.1,0.1h-0.6c0,0.2,0.1,0.1,0.2,0.4c0.2,0.3-0.1,0.2,0.1,0.9
				c0.1,0.3,0.1,0.2,0.1,0.5l0.4,3.1c0.1,0.3,0.2,0.6,0.2,0.9l0.2,2.1L417.3,9.7z"/>
			<path class="st9" d="M430.8,58.3c-0.4,2.3,0.4,4,1.6,5.2c0.6,0.6,1.3,1.2,2.3,1.5c1.3,0.5,2,0.4,3-0.1c0,0.1,0.1,0.2-0.3,0.4
				c-0.3,0.1-0.3,0.1-0.5,0.2c0.3,0.8,0.2-0.2,0.1,0.2c0,0,0,0,0,0.1l0,0l0,0c0.4,0,0.2,0,0.5,0c0,0.1,0,0.1,0.1,0.2l0.2,0.3
				c0.1,0.3,0,0.1,0.2,0.5c0.4,0.8,0,0.7,0.7,0.8c-0.2,0.2-0.3,0.1,0.1,0.3l-0.9-0.1c0,0,0,0,0.1,0l0.6,0.3c1.3,0.6,1.1-0.3,1.9,0.3
				c0.3,0.1,0,0,0.3,0.2s0,0.1,0.3,0.2c0,0,0,0,0,0.1c0,0.2,0.2,1,0.1,1.3c-0.2,0.5,0.1,0-0.4,0.3c-0.7,0-2.1-0.2-2.9-0.2
				c-1-0.1-1.9,0-2.8-0.1h-0.8c-0.7-0.2-1.8,0-2.6-0.1c0.4-0.3,0.8-0.2,0.5-0.9c-0.4-1.1-0.9-1.8-1.6-2.5c-0.9-0.8-1.8-1.2-3.3-1.4
				l0.2-0.1c0.1,0,0-0.1,0.5,0c0.2,0,0.4,0.1,0.5,0.1l0.8,0.2c0.1-0.4,0-0.4-0.6-0.5c0.1-0.2,0.1-0.2,0-0.3l-0.1-0.2
				c0.3,0,0.2,0,0.4-0.1l-0.4-0.2c0,0,0,0-0.1,0c0.1-0.8,0.2-0.7,0-1.1c-0.3-0.6,0-0.9,0.1-1.6L428,61l0.3-1.8c0-0.1-0.2-1,0.3-1.7
				l0.1-0.3c0.1-0.1,0-0.2,0.2-0.2l1.3,1.6c0.1,0.2,0.2,0.3,0.2,0.4C430.5,58.7,430.6,58.4,430.8,58.3L430.8,58.3z"/>
			<path class="st10" d="M436,74.2c0,0.3,0,0.3,0,0.5c-0.6-0.2-0.1-0.1-0.3-0.2c-0.2-0.1,0.1,0-0.2-0.1l0,0l-0.7-0.2l-0.2,0.9
				l-9.7-1.8l-0.1,0.4l-1.5-0.3v-0.3l-1.2-0.2l-0.1,0.3c-0.4-0.1-4-0.8-4.1-0.7c-0.1,0.1,0,0-0.1,0.1l-0.1,0.1v0.1l-2.7-0.3
				c-0.3,0.1,0.3,0.1-0.4,0.1l-2.3-0.3c0,0,0,0-0.1,0l-0.3-0.1c-0.2-0.1-0.1-0.1-0.3-0.3c0.3-0.2,0.7-0.1,1.7-0.3
				c1.2-0.3,2.2-0.2,2.8-0.5c0.9-0.1,1.9-0.2,2.8-0.3c0.9-0.1,2.1-0.1,2.8-0.3c1.5-0.2,3.4-0.2,4.9-0.3c0.8,0,1.6,0,2.5-0.1
				c0.9,0,1.7,0,2.5,0s1.9-0.1,2.6,0.1l0.1,0.1c-0.8,0.6,0,1.5,0.4,2.1C435.1,72.9,435.6,73.8,436,74.2L436,74.2z"/>
			<path class="st11" d="M421.8,46.9c-0.3,0.5-1,0.8-1.4,1.8c-0.7,1.5-0.5,3.3,0.4,4.7c0.6,0.8,0.8,1,1.6,1.5
				c-0.4-0.1-0.3-0.1-0.6,0l-0.4,0.2l-0.1,0.1l-0.1,0.1c0.1,0,0.2,0.2,0.5,0.2c0,0,0,0,0.1,0l0.2-0.1c0.7-0.3-0.1,0,0.6,0
				c-0.2-0.2-0.8,0.5-1.3,0.8c-0.2,0.1-0.1,0-0.3,0.2c-0.2,0.2-0.2,0.2-0.4,0.3l-1.1,0.7c-0.3,0.3-0.1-0.1-0.2,0.3
				c-1-0.7-2.1-1.4-3.6-1.1l-0.2-0.2l-0.1-0.1l-0.4-0.4l0.7-4.1l-0.8-0.2l0.5-2.6c-0.1-0.5,0.2,0.4-0.1-0.2c-0.1-0.2,0,0.1-0.1-0.2
				c0-0.2,0-0.3,0.1-0.5c0,0,0-0.1-0.1,0c0,0-0.1,0-0.1-0.1H415c0,0,0,0-0.1,0l0.1-0.5c-0.6-0.2-0.2,0-0.3-0.3l0.7,0.1l0.1-0.2
				l0.2-0.1c0.8-0.2,1.6-0.7,2.1-1.3c0.3-0.3,0.5-0.6,0.8-1.1s0.3-0.9,0.5-1.3c0,0.5,0.7,1.3,1,1.7c0.2,0.3,0.8,1.2,1.1,1.4
				c-0.4,0.1-0.3,0.3-0.2,0.6c0.4-0.1,0.2,0.1,0.5-0.5c-0.1,0.1,0-0.1,0,0.1c0,0,0,0.1,0.1,0.1C421.8,47.1,421.5,46.7,421.8,46.9
				L421.8,46.9z"/>
			<path class="st12" d="M422,17.4c0.1,0.3-0.3,0.2,0.3,0.3v-0.1c-0.1,0.8-0.1,0.2,0.1,0.6c0.4,0.7-0.2-0.5,0.1,0.2c0,0,0,0,0,0.1
				l0.7,1.9c0.6,1.2,0.1,0.4,0.4,1.1c0.2,0.6,0.2,0.1,0.4,1.1v0.1c0.1,0.2,0,0,0.1,0.3c0.1,0.5,0,0.2,0.2,0.6l0.4,1c0,0,0,0,0,0.1
				c0,0,0,0,0,0.1l0.3,0.7c0.1,0.2,0,0.2,0.2,0.5c0.1,0.2,0.2,0,0.2,0.3c-0.1,0.7,0,0,0.1,0.4c0.1,0.2,0.1,0.3,0.1,0.4l0.2,0.4
				c0,0.2-0.1,0.3,0,0.5l0,0c0.3,0.5,0-0.2,0.1,0.1c0,0.1,0,0.1,0,0.1l0.1,0.3c0.1,0.2,0.1,0.3,0.1,0.4c0.1,0.4,0,0.3,0.2,0.7
				c0,0,0,0,0,0.1c0,0,0,0,0,0.1l0.2,0.9l0,0l0,0h0.1l0,0c0,0,0.1,0.2,0.1,0.3l0.2,0.3c0.2,0.4,0,0.3,0.2,0.7l1.4,3.9
				c0.2,0.4,0.2,0.6,0.7,0.4c-0.3,0.3-0.6,0.3-0.9,0.6c-0.2,0.3-0.5,0.8-0.6,0.9c-0.2,0.1-0.2-0.1-0.3,0.2c0-1.3,0.3-1.5-0.2-1.6
				c0,0,0,0,0,0.1l-0.3,0.6l0.1-0.7l-0.7-0.1c0-0.1,0-0.1,0-0.2c0-0.4-0.1-0.2,0-0.5l0.1-0.1c0,0,0,0,0-0.1l-0.1-0.2c0,0,0,0,0-0.1
				s-0.1-0.2-0.1-0.2s0,0,0-0.1l0,0l0,0c0,0,0,0-0.1,0c-0.2-0.2-0.1,0.1-0.2-0.2c0-0.6,0.3-1.2,0.3-1.8c0-0.7-0.1-1-0.2-1.5
				c-0.3-1-0.7-1.8-1.2-2.5c-1.2-1.5-2.8-2.2-4.6-1.3c-0.3,0.1-0.3,0.2-0.6,0.4c0.1-0.6-0.1-1-0.1-1.5c0-0.3,0-0.6,0-0.8l-0.6-4.4
				c-0.1-1.1-0.3-1.6-0.3-2.1s-0.1-1.1-0.2-1.5s0-0.4-0.1-0.8c-0.1-0.5-0.2-0.2-0.1-0.6c0.5,0.3,0.7,0.8,1.6,1.1
				C420.7,17.8,421.4,17.8,422,17.4L422,17.4z"/>
			<path class="st13" d="M436,56.3c0.3,0.2,0.6,0.5,0.8,0.7c0.3,0.3,0.4,0.5,0.7,0.7c0.1,0.4,0.4,0.6,0.5,1l0.6,1
				c0,0.3,0.4,1.2,0.4,1.8c0.1,1.1-0.2,1.4-0.3,2.3l-0.3,0.3c-0.2,0.3-0.5,0.7-0.9,0.9c-1,0.5-1.7,0.5-3,0.1
				c-0.9-0.3-1.7-0.9-2.3-1.5c-1.1-1.2-2-2.9-1.6-5.2c0.3-1.2,1.1-2,1.9-2.4C434,55.3,434.6,55.7,436,56.3L436,56.3z"/>
			<path class="st14" d="M414.6,77.8C414.8,77.9,414.9,77.8,414.6,77.8l0.2,0.6l0,0l0.6,0.9c0.1,0.6-0.1-0.2,0,0.2l0.5,0.5l0,0
				c0.1,0.3-0.2,0.2,0.2,0.4c0.1,0.1,0,0,0.1,0.1l0.6,0.7c0,0,0,0,0,0.1c-0.2-0.5,0.1,0.3-0.7,0.1l-0.2,0.2c-1.2,0.1-2.8,0-4.2,0
				c-1.4,0-2.9-0.1-4.4-0.1c-2.9-0.1-6.3-0.5-9.2-1.2c0.2-1.1,0.7-0.7,0.9-0.6c0.2-0.5,0.7-0.6,1.4-0.5l0.1-0.6
				c0.5,0,0.1,0.1,0.5-0.1l0.4-0.4c0.7-1.3,1.1-0.2,2.1-0.5l0.1-0.1c0.4-0.2-0.4,0,0.1-0.1l1.1,0.2l0.3-0.5c2.1,0.4,1.3,0,2-0.2
				c0.2-0.1,0.4,0,0.7,0c0.2,0,0.5,0.1,0.8,0.1c0.7,0.1,0.2-0.1,0.6,0l1.4,0.2c0,0,0-0.1,0.1-0.1l0.2-0.4l1.8,0.4
				c0,0.5,0,0.1,0.1,0.3c0.4,0.7,0.7,0.4,0.9,0.3C414.1,78,414.2,78.4,414.6,77.8L414.6,77.8z"/>
			<path class="st15" d="M426.2,34.6l-0.3,0.4c-0.6,1.1-1.7,1.7-3.1,1.6c-0.7,0-1.1-0.3-1.7-0.6c-0.4-0.4-1.1-0.6-1.6-1.5
				c-0.9-1.4-1.2-2.9-0.8-4.6c0.3-1.1,0.7-1.3,1.2-2c0.3-0.2,0.3-0.3,0.6-0.4c1.8-0.9,3.3-0.3,4.6,1.3c0.6,0.7,0.9,1.5,1.2,2.5
				c0.2,0.6,0.2,0.9,0.2,1.5C426.4,33.4,426.2,34,426.2,34.6L426.2,34.6z"/>
			<path class="st13" d="M434.1,39.8l0.5,1.3c0.6,1.7,0.6,3-0.3,4.5l-0.5,0.5c-0.4,0-0.5,0.2-1,0.1c-2-0.2-3.4-1.7-4.1-2.9
				c-0.9-1.5-1.3-3.1-0.8-5.3c0.1-0.1,0.4-0.7,0.6-0.9c0.3-0.3,0.6-0.3,0.9-0.6c0.3,0,0.3-0.1,0.7,0c1.2,0.1,1.8,0.6,2.5,1.3
				c0.4,0.4,0.5,0.6,0.8,1C433.7,39,433.9,39.5,434.1,39.8L434.1,39.8z"/>
			<path class="st8" d="M423.1,55.2l0.7,0.3l1.3,9.9c-1.6,0.3-3.3,2.1-3.6,4.1c0,0.3-0.1,0.7,0.1,1c-0.7,0.2-1.9,0.2-2.8,0.3
				c-0.9,0.1-1.9,0.2-2.8,0.3c-1,0-3.3,0.5-3.9,0.4c0.2-0.2-0.3-0.3,0.2-0.2c0.1-0.1-0.1,0,0.2-0.1c0,0,0.1,0,0.2,0l3-0.5
				c0.4,0,0.9-0.1,1.4-0.2l1.3-0.2c0,0,0.3,0,0.4-0.1L421,70c0.1-0.5,0.3-0.8,0.4-1.4v-1.4l-1.3-0.3c0.1-0.5,0.2-1.1,0.3-1.7
				c0-0.3,0.1-0.2,0-0.4l-0.1-0.2c-0.1-0.3,0.1-0.4,0.3-0.5c-0.2-0.1-0.2,0-0.2-0.3c0.4-0.4,0.1-0.4,0.4-0.8l0,0h-0.3l0,0l0,0
				c0.2,0.5-0.1,0.6-0.4,0.7l0.1-0.5c0.6-1.1,0.8-1.9,0.5-3.2c-0.1-0.5-0.3-1-0.5-1.3c-0.3-0.5-0.6-0.7-0.9-1.1
				c0.1-0.4-0.1,0,0.2-0.3l1.1-0.7c0.2-0.1,0.2-0.2,0.4-0.3c0.2-0.2,0.1-0.1,0.3-0.2c0.6-0.3,1.2-1.1,1.3-0.8
				c-0.7,0.1,0.1-0.3-0.6,0l-0.2,0.1c0,0,0,0-0.1,0c-0.3,0-0.4-0.1-0.5-0.2c0,0,0-0.1,0.1-0.1c0,0,0-0.1,0.1-0.1l0.4-0.2
				c0.3-0.1,0.3-0.1,0.6,0L423.1,55.2L423.1,55.2z"/>
			<path class="st13" d="M426,55.7c-0.6-0.1-1.3,0-2.2-0.2l-0.7-0.3l-0.1-0.4h0.6c0.2-0.9-0.2-0.4,0-1c0.1-0.4,0-0.4-0.1-0.6
				c-0.2-0.7-0.2-1.7-0.2-1.9c-0.1-0.3-0.1-0.2-0.1-0.4l-0.1-0.6c0,0,0,0,0-0.1l-0.2-1.6c-0.1-0.6,0-0.5,0.1-0.9
				c-0.1-0.5,0.1,0.4-0.1-0.2c0,0,0,0,0-0.1s0,0,0-0.1c-0.1-0.6,0.3-0.4-0.3-0.5c0.2-0.1,0.3,0,0.5-0.1l-0.6-0.1l0.1-0.3l-0.1-0.1
				l1.4-0.4c1.7,0.1,2.4,0.4,3.5,1.3c0.8,0.7,1.4,1.7,1.7,2.7c0.5,1.9,0.2,3.8-1.5,4.9c-0.5,0.3-0.6,0.4-1.1,0.5L426,55.7L426,55.7z
				"/>
			<path class="st16" d="M416.9,65.8c-0.3,0.2-1,0.3-1.5,0.3c-3.1,0-4.7-2-4.5-4.7c0.1-1.2,1-2.7,1.6-3.3c0.8-0.8,1.7-1.4,3-1.5
				c0.1,0,0.4,0.3,0.5,0.4c-0.2,0.1-0.4,0.3-0.8,0.3c0.4,0.3,0.2-0.1,0.5,0.4c0.1,0.3,0.1,0.3,0.4,0.4c-0.1,0.4-0.1,0.7-0.1,1
				c0,0.7-0.4,0.4,0.2,1.1c0.5,0.6-0.2,0.4,0.5,1c-0.2,0.2-0.2,0-0.3,0.7c-0.1,0.3-0.2,0.7-0.1,0.9c0.2,0.6,0.5,0,0.2,1.5
				c0.1,0,0.1,0.1,0.2,0.2l0.4,0.5l-0.7-0.1c0.1,0.4-0.1,0,0.2,0.3l0,0c0.4,0.4,0.2,0,0.5,0.5C416.9,65.6,417.1,65.4,416.9,65.8
				L416.9,65.8z"/>
			<path class="st17" d="M406.5,57.9c-0.6,0.1-1.4,0.2-1.8-0.4c0.4-0.3,0,0.2,0-0.1s-0.2-0.1,0.1-0.1l-0.1-0.4
				c0.1,0,0.2,0.1,0.4,0.1v-0.1v-0.1l1.1-6.4c0.2-0.9,0.2,0,0.6-2l0.8-0.5c0,0,0,0,0.1-0.1v-0.1c4.1,0.4,3.9,5.7,1.6,8.3
				C408.3,57.1,407.5,57.5,406.5,57.9L406.5,57.9z"/>
			<path class="st18" d="M431.9,80.1c-0.5,0.2-3.1,0.5-3.8,0.6c-1.3,0.2-2.5,0.3-3.9,0.4c-2.6,0.3-5.5,0.5-8.2,0.5l0.2-0.2
				c0.8,0.3,0.5-0.5,0.7-0.1v-0.1l-0.6-0.7c-0.1-0.1,0,0-0.1-0.1c-0.4-0.2-0.1-0.1-0.2-0.4l0,0l-0.5-0.5c-0.1-0.4,0,0.4,0-0.2
				l-0.6-0.9l0,0l-0.1-0.5c0.4-0.2,0.2,0.3,0.4,0c0.3,0,0,0,0-0.1c0.1-0.6,0.4-0.4,1.4-0.2c0.4,0.1,0.7,0.1,1.1,0.2
				c0.7,0.1,0.3,0.2,0.9,0.3c0.5,0.1,0.7,0.1,1.1,0.1l0.9,0.1c0.7,0.1,0.3,0.2,0.8,0.4c0.3,0.1,0.7,0.1,1,0.2c0-0.1,0-0.2,0.1-0.3
				l0.2-0.3c0.4,0.2,0.4,0.3,0.5,0.7l0.7,0.1c0.1-0.6,0-0.2-0.1-0.4c-0.5-0.6,0.1,0.2-0.1-0.2c-0.1-0.2,0,0.1-0.1-0.2l1.9,0.3
				l0.1-0.7l1.4,0.3l-0.1,0.7c0.4-0.1,0.3-0.4,0.9-0.4c1,0.1,0.3,0,0.8,0c0,0,0.2,0,0.3,0c0.1,0,0.2,0,0.3,0.1l0.1,0.4
				c0,0.3,0.1,0.3,0,0.4l-0.5,0.3l0.6,0.4c0.2-0.2-0.1,0.2,0-0.2c0,0,0,0,0-0.1c0.2,0.1,0.2,0.4,0.4,0.2l0.3-0.3
				c0.1,0.1,0.2,0.1,0.2,0.2l0.1,0.1c0.1,0.1,0.1,0.1,0.3,0.1c-0.5-0.1-0.6-0.1-0.2-0.5c0.2-0.1,0.5-0.1,0.8-0.1
				c0.3,0.3,0,0.2,0.3,0.4l0.3-0.1c0.4-0.1,0.3,0,0.3,0.2L431.9,80.1z"/>
			<path class="st19" d="M402.8,63.5c-0.3,0.7-0.4,1.8-0.7,2.7c-0.2,0.6-1,1.7-1,2c-0.2,0.1,0,0-0.2,0.1c-0.2,0.2-0.4,0.6-1.1,1.1
				c-0.2,0.1-0.4,0.2-0.5,0.3c-1.9,0.4-1.7-1.7-1.9-2.3v-0.1c0,0,0,0,0-0.1v-0.1l0.2-0.4c0.4-1,1-4,1.4-5.1l0.4-1.5l0,0
				c0.5-0.6,0.9-0.8,1.7-0.8c0.8,0.1,1.4,1,1.5,1.7C402.9,62.7,402.6,63.3,402.8,63.5L402.8,63.5z"/>
			<path class="st20" d="M404.7,50c-1.1,1.6-1.7,3.9-1.2,5.9c0.3,1,0.6,1.1,0.8,1.5c-0.6,0-0.5,0-0.6,0.7c0,0.2-0.1,0.4-0.1,0.5
				c-0.1,0.3,0,0.3-0.2,0.5c0.1,0.1-0.3,0.3,0.3,0.1c-0.1,0.2-0.1,0.1-0.2,0.3h0.1c0,0.1,0.3,0.1,0.4,0.4l-0.5,0.3
				c0,0-0.5-0.3-0.1,0.3l0,0h0.1c0.2,0,0.1,0,0.1-0.1c-0.1,0.6-0.4,0.4-0.1,0.6c-0.3-0.2-0.1,0.7-0.2,0.1c-0.5,2-1,2.3-0.4,2.1
				l-0.1,0.3c-0.2-0.3,0.1-0.9-0.3-2.5c-0.2-0.7-0.7-1.6-1.5-1.7l0.3-0.1l-0.4-0.3c0-0.2,0.1-0.3,0.1-0.4l0.1-0.7
				c0.2,0.2,0,0,0.3,0.2c-0.1-1.2,0.3-1.9,0.5-3c0.1-0.6,0.4-2.6,0.6-2.9c0.2,0.4-0.2,1.4-0.3,1.9l0.5-2.1c0.4-1.3,0.3-0.9,0.5-1.4
				c0.6-1.7,0.7-3.2,1-4.6c0.2-0.9,0.2-0.4,0.3-0.9c0.1-0.4,0.1-0.8,0.3-1.1s0.1,0.3,0.3-0.4l0.8-3.7c0.1-0.4,0-0.6,0.2-0.9l0,0
				l0.1-0.1c0.2-0.3-0.3,0.2,0.1-0.3c0.4,0,0.7,0,1-0.1v0.1l-0.1,0.3c-0.1,0.1,0.1,0.2-0.2,0.1c0.4,0.1,0.3,0,0.3,0.3
				c0,0.2-0.1,0.2-0.3,0.3l0.1,0.2l0,0l0,0l-0.2,0.4c-0.3,0.9-1.3,7.7-1.6,8l-0.1,0.1c-0.1,0.1,0-0.2-0.1,0.1c0,0.2,0.1,0.2,0.2,0.4
				c-0.4,0.5,0-0.1-0.2,0.1L405,49l0,0c-0.2,0.3,0.3,0-0.1,0.1L404.7,50L404.7,50z"/>
			<path class="st21" d="M419.1,43.1c-0.2,0.5-0.2,0.9-0.5,1.3c-0.3,0.4-0.5,0.7-0.8,1.1c-0.5,0.6-1.3,1.1-2.1,1.3l-0.2-0.1
				c0,0,0,0-0.1,0h-0.1c-0.2,0-0.1,0.2-0.7,0.1c-0.1-0.4-0.1,0,0.1-0.3l-0.4-0.1c0.4-0.2,0.3,0.1,0.5-0.3c-0.2,0-0.4-0.1-0.6-0.1
				c-0.4-0.1-0.3,0-0.4-0.2l0.7,0.1c0.1-0.6,0.1-0.4,0-0.8c0-0.1-0.1,0-0.1-0.3c0-0.6,0.1-0.5-0.1-1c-0.1-0.3-0.1-0.2-0.1-0.5
				c0-0.5,0.5-0.6,0.5-1.4c-0.2,0-0.2-0.1-0.3,0.6c-0.2-0.3-0.2-0.1,0-1.1c0.1-0.7,0.1-0.7,0-1.1c0-0.8,0.4-1.8-0.6-1.2
				c0.2-0.3,0.5-0.5,0.9-0.4c-0.2-0.2-0.1-0.2,0.5-0.7c0,0,0.1-0.1,0.2-0.1l-0.3,0.1c0,0,0,0-0.1,0l-1.5,0.9c-0.5,0.3-1,0.8-1.4,0.5
				c-0.3-0.2-0.1,0-0.2-0.2c0.3-0.1,0.6-0.1,0.9-0.2c0.6-0.4,1-0.7,1.8-1.2l0.1-0.1c0.3-0.2-0.3-0.1,0.3-0.1c0-0.1-0.1-0.1-0.2-0.2
				l0.3-0.1c2.1,0.3,3.5,1.8,3.9,3.8C419.3,41.9,419.1,42.3,419.1,43.1L419.1,43.1z"/>
			<path class="st22" d="M415.4,27.3c-0.6,0.4-1.4,0.7-2.3,0.4c-0.5-0.1-0.7-0.3-1-0.6c-0.3-0.3-0.5-0.6-0.8-0.8
				c0-0.3-0.2-0.5-0.3-0.8c-0.1-0.3-0.1-0.6-0.2-0.9c-0.2-0.9-0.1-2,0.1-3c0.3-1.2,0.8-1.6,1.2-2.5c0.4-0.4,0.8-0.8,1.4-1
				c0.4-0.1,1.4-0.4,1.8,0.1h-0.4c0.1,0.2,0.1,0.1,0.1,0.3c0.2,0.5-0.1,0.1-0.1,0.7c-0.1,0.5,0,0.3,0.1,0.3c0.1,0.3,0-0.3,0.1,0.3
				c0,0.4-0.2,0.6-0.2,0.6c-0.2,0.4,0.2,1.7,0.1,2.3l-0.1,1.1c0,0.4,0,0.1,0,0.3c0.1,0.6-0.2,0.7,0,1.2c0.1,0.4,0.2,0.8,0,1.3
				l-0.1,0.1c-0.1,0.2-0.4,0,0,0.2c0.2,0.2,0.5,0.1,0.7,0.1L415.4,27.3L415.4,27.3z"/>
			<path class="st23" d="M408.9,72.1c-1.1,0.2-2.2,0.5-3.3,0.7c-0.6,0.1-1.1,0.2-1.6,0.4c-0.8,0.2-0.7,0.3-1.7,0.2
				c0-1.6,0.7-2.4,1.2-3.6l0.9-1c1.1-1,2.2-1.5,3.9-1.1c1.1,0.3,1.5,0.8,2.1,1.6c1,1.5-0.2,1.8,1.1,2.3c-0.2,0.2,0,0.2-0.7,0.3
				C409.9,71.9,409.4,72.2,408.9,72.1z"/>
			<path class="st21" d="M419.3,57.6c0.3,0.4,0.7,0.6,0.9,1.1c0.2,0.4,0.4,0.9,0.5,1.3c0.3,1.3,0.1,2.1-0.5,3.2
				c-0.5,0.7-0.8,1.1-1.3,1.5c-0.4,0.3-1.3,0.9-1.9,1c0.2-0.3-0.1-0.2,0.1-0.2c-0.3-0.4-0.1,0-0.5-0.5l0,0c-0.3-0.3-0.1,0.1-0.2-0.3
				l0.7,0.1l-0.4-0.5c-0.1-0.1-0.1-0.1-0.2-0.2c0.3-1.5,0-0.9-0.2-1.5c-0.1-0.2,0-0.6,0.1-0.9c0.2-0.8,0.2-0.5,0.3-0.7
				c-0.6-0.6,0.1-0.4-0.5-1c-0.6-0.7-0.2-0.4-0.2-1.1c0-0.4,0.1-0.6,0.1-1c-0.3-0.1-0.2-0.2-0.4-0.4c-0.3-0.5,0-0.1-0.5-0.4
				c0.3,0,0.5-0.2,0.8-0.3c-0.1,0-0.4-0.3-0.5-0.4h0.2C417,56.3,418.2,57,419.3,57.6L419.3,57.6z"/>
			<path class="st24" d="M436.7,48c-0.3,1.1,0.1,2.7,0.4,3.5c0.2,0.6,0.4,1,0.6,1.5s0.7,1.1,0.7,1.3c0,0.3,0.1,0.3-0.1,0.5
				c0.1,0.1,0-0.1,0.2,0.1c0.1,0.3,0-0.1,0,0.1c-0.1,0.5-0.1-0.4,0,0.1c0.3-0.2,0.1-0.2,0.6,0.3c0.1,0.1,0.1,0.1,0.2,0.2l-0.3,0.3
				l0,0c0.3,0.7-0.1,0.3,0.6,0.9l-0.1,0.7l0.5,0.1c0,0.3,0.1,0.7,0.2,0.9l0.5,0.8c-0.1,0.9-0.1,0.6,0.1,0.9c0.3,0.7-0.1,0.2,0.5,0.7
				c-0.2,1.2,0.6,0.2,0.4,1.4c0.6,0.1,0.1,0,0.9,1.3c0,0.1,0,0.1,0.1,0.2l0.2,0.4c0.1,0.6-0.4,1.1,0.1,1.2c-0.7,0.5,0.4-0.1-0.2,0.1
				c-0.2,0.1,0,0,0,0s0,0,0,0.1c0,0,0,0,0,0.1l0.1,0.1c0.1,0.2,0.1,0,0.1,0.3l-0.3,0.2c-0.1,0.1-0.6,0.5-0.8,0.6
				c0-0.4,0-0.3,0.2-0.6l0.1-0.1c0.1-0.1,0.1-0.1,0.3-0.1c-1-0.3-0.4-0.3-0.7-0.8l-0.2-0.2c0.1-0.5,0.1-0.5,0-0.9
				c-0.1-0.1,0,0-0.1-0.2c-0.2-0.4-0.1-0.3-0.6-0.4c0-0.4,0-0.5-0.1-0.7c-0.2-0.3-0.2-0.2-0.1-0.8c-0.5-0.1-0.7,0-0.4-1.4
				c-0.7-0.2-0.2-0.2-0.3-0.4l-0.2-0.2c-0.1-0.2-0.2-0.1,0-0.3c-0.1,0-0.2,0-0.3,0c0,0,0,0-0.1,0l-0.4-0.1l-0.6-1
				c-0.2-0.3-0.5-0.6-0.5-1c0.1,0,0.2,0,0.3,0c-0.2-0.6-0.4-0.5-0.3-1.4l-0.7-0.5c0.2-0.1,0.1,0.2,0.2-0.4c0.1-0.7-0.4-0.1-0.2-1.1
				l-0.7-0.2c0.2-1.1-0.2-0.6,0-1.4l-1.1-0.3l0.1-0.1l0,0l-0.1-0.4c-0.1-0.2,0-0.5,0.1-0.8l-0.4-0.7c-0.3-0.4-0.2-0.4-0.1-1.2
				l-0.2-0.3c-0.1-0.1,0-0.2-0.1-0.3l-0.1-0.3c0-0.2,0-0.2-0.1-0.3c-0.4-0.1-0.5,0.1-0.8-0.2c0.3-0.3,0.5-0.5,0.8-0.6l-0.3-0.5
				c0.3-0.1,0.3,0,0.3-0.4l-0.5-0.1l0.5-0.5c0.2,0.1,0.1,0,0.2,0.1c0.1-0.2,0.1-0.2,0.3-0.4l-0.1-0.1c-0.2-0.3,0.3-0.4,0.4,0.5
				c0,0.1,0,0.1,0,0.2l0,0c-0.1,0.6,0-0.1,0.1,0.6v0.1c0.2-0.1,0.2-0.1,0.4-0.2c0,0.3,0.2-0.1,0.5,0.6l0.2,0.4c0,0,0,0,0,0.1
				l0.1,0.2c0.1,0.2,0,0.1,0.2,0.2l0,0L436.7,48L436.7,48z"/>
			<path class="st25" d="M415.6,70.7l-0.4-0.1c-0.4-0.1,0-0.2-0.6-0.1c-0.1-0.4-0.1,0.4,0-0.2l0,0l-0.4-0.1l0.2-1.1
				c0.1-0.4,0.1-0.1,0.1-0.3c0.2-0.4,0.2-0.8,0.3-1.4c-0.1,0-0.3,0-0.4-0.1l-0.3-0.2c0.2-0.2,0,0,0.2-0.1c0,0,0,0,0.1,0
				c0.3-0.1,0.1,0.1,0.2-0.1c-0.2-0.6-1.6-0.8-1.7-1.1l2.1,0.5c0-0.2,0-0.1,0.1-0.3c0.5,0,1.2-0.1,1.5-0.3c0.6-0.1,1.5-0.7,1.9-1
				c0.6-0.5,0.9-0.9,1.3-1.5l-0.1,0.5c0.3-0.1,0.6-0.2,0.4-0.7l0,0l0,0h0.3l0,0c-0.3,0.4,0,0.4-0.4,0.8c0,0.2,0,0.2,0.2,0.3
				c-0.2,0.1-0.4,0.1-0.3,0.5l0.1,0.2c0.1,0.2,0.1,0.1,0,0.4c-0.1,0.5-0.2,1.1-0.3,1.7l1.3,0.3v1.4c-0.1,0.6-0.3,0.9-0.4,1.4
				l-2.3,0.3c-0.1,0-0.3,0.1-0.4,0.1l-1.3,0.2C416.5,70.6,416,70.6,415.6,70.7L415.6,70.7z"/>
			<path class="st26" d="M426.4,25.4c-0.2,0.2-0.1,0-0.1,0.2c0,0,0,0.1,0.1,0.2c0,0,0.2,0.2,0.3,0.3c0.2,0.2,0.1,0.1,0.1,0.3
				c0,0.3-0.1,0,0.1,0.4L427,27c0.8,1.1,0.1,0.5,0.4,1.1l0.7,1.4c0,0,0,0,0,0.1c0.2,0.5,0.2,0.3,0.4,0.5c0.2,0.3,0,0.4,0.1,0.8
				l0.1,0.2c0.4,0.5,0.2,0.1,0.2,0.5c0.1,0.3-0.1,0.1,0.1,0.4c0.2,0.2,0.1-0.1,0.2,0.3c0.1,0.3,0,0.6,0.1,0.9l0.1,0.1l0.1,0.1
				c0.7,0.7,0.1,0.1,0.4,0.8c0.4,1.1-0.2,0.1,0.4,1.3c0.3,0.6,0.2,0,0.3,0.5c0.1,0.8-0.2,0.1-0.4,0.6c-0.4,0-0.4,0.1-0.7,0
				c-0.5,0.2-0.5,0-0.7-0.4l-1.4-3.9c-0.2-0.4,0-0.3-0.2-0.7l-0.2-0.3c0-0.1-0.1-0.3-0.1-0.3l0,0h-0.1l0,0l0,0l-0.2-0.9
				c0,0,0,0,0-0.1c0,0,0,0,0-0.1c-0.2-0.4-0.1-0.2-0.2-0.7c0-0.2-0.1-0.3-0.1-0.4l-0.1-0.3c0-0.1,0-0.1,0-0.1
				c-0.2-0.3,0.1,0.4-0.1-0.1l0,0c-0.1-0.2,0-0.3,0-0.5l-0.2-0.4c-0.1-0.2-0.1-0.3-0.1-0.4c-0.2-0.5-0.3,0.3-0.1-0.4
				c0-0.3,0-0.1-0.2-0.3c-0.2-0.3-0.1-0.3-0.2-0.5l-0.3-0.7c0,0,0,0,0-0.1c0,0,0,0,0-0.1l-0.4-1c-0.2-0.4-0.1-0.1-0.2-0.6
				c-0.1-0.3,0-0.1-0.1-0.3v-0.1c-0.2-1-0.2-0.5-0.4-1.1c-0.3-0.8,0.2,0-0.4-1.1l-0.7-1.9c0,0,0,0,0-0.1c-0.3-0.8,0.3,0.5-0.1-0.2
				c-0.2-0.4-0.2,0.2-0.1-0.6V18c-0.6-0.1-0.2,0-0.3-0.3c0.4-0.4,0.7-0.3,1.3-1.8c0.1,0.3,1.5,3.1,1.5,3.5c0.1,0.5-0.6,2.8,1,5.3
				l0.6,1L426.4,25.4z"/>
			<path class="st27" d="M413.7,0.4l-0.2,1.1l0.1,0.8c0,0.5,0.3,2.4,0.5,2.8c0,0.5,0.2,1,0.3,1.5c0.1,0.5,0.1,0.9,0.2,1.4
				c0.3-0.3,0.4-0.5,0.7-0.9v0.7l0.1,0.1c0.1,0.1,0.1,0.1,0.2,0.2c-0.1,0.4-0.3,1.1-0.2,1.5c0.1,0.2,0.2-0.1,0.1,0.7
				c-0.2,1-0.2,0.5,0,1c0.1,0.3,0.2,0.4,0.1,0.8c-0.1,0.4-0.2,0.9-0.2,1.3c-0.2,1.2,0,0.6,0,1.2c0,0.2-0.1,0.4-0.1,0.6
				c0,0.1,0.1,0.1,0.1,0.2c0.3,0.5-0.2,0.7,0,1.5V17c0.1,0.2,0.1,0.1,0.2,0.5l0.6,0.1h-0.1h-0.2c-0.1,0-0.2,0-0.3,0
				c-0.3,0-0.3,0-0.6,0c0.3,0.2,0.5,0.3,0.6,0.8h-0.3c-0.3-0.5-1.4-0.2-1.8-0.1c-0.6,0.2-1,0.6-1.4,1c-0.1-0.2-0.1,0.1,0-0.1
				c0.1-0.3,0-0.1,0.2-0.1l-0.3-0.2c0.1-0.1,0.2-0.1,0.1-0.4c-0.1-0.2,0-0.1-0.3-0.1c0.4-0.2,0.4-0.2,0.7-0.7c0.1-0.1,0.2-1,0.3-1.2
				c0.2-1-0.8-2.1-0.9-2.6v-0.1c0.2-0.2,0.2-0.2,0.3-0.5l0.7,1c0.2,0.2,0,0.1,0.2,0.3c0-0.4,0-0.2,0-0.5l0.4-2.4
				c0.1-0.5,0.3-0.3,0.2-0.7c-0.2-0.1-0.2,0-0.2-0.1h-0.1l0.5-0.9l-0.9,0.5c-0.1-0.1-0.1,0.1,0-0.2l0.4-1.5l0.6-0.3
				c0.1-0.8-0.4-2.3-0.5-3.1c-0.2-1-0.5-2.1-0.4-3.1s0.1-1.3,0.6-2l0.2-0.3L413.7,0.4L413.7,0.4z"/>
			<path class="st28" d="M404.7,57.6c0.4,0.6,1.2,0.4,1.8,0.4c-0.3,0.3-0.2,0.2-0.7,0.2c0.2,0.2,0.1,0.1-0.1,0.2
				c0.3,0.1,0.1,0.1,0.4,0.2l-0.4-0.1l-0.3,1.9c-0.1,0.3-0.3,0.3-0.3,0.3s0,0-0.1,0c0.3,0.2,0.2,0.4,0,1.3c0.1,0.2,0.2,0.4-0.1,0.5
				c0,0.5-0.3,1.4-0.9,1.4c0.2,0.1,0.2,0.2,0.3,0.4c-0.1,0.1-0.6,0.4-0.5,0.8c0,0.2,0.1,0.2,0.1,0.2c0.1,0.4-0.1,1.1-0.2,1.5
				l-0.4,2.3c-0.1,0.3-0.2,0.4-0.2,0.5c0.3,0.2-0.4,0,0.1,0c0,0,0.1,0,0.2,0c-0.5,1.3-1.2,2-1.2,3.6c-0.2,0-0.4,0.1-0.6,0.2
				s-0.4,0.1-0.6,0.2c-0.4,0.2-0.8,0.4-1.3,0.4l0.2-0.2c0,0,0,0,0.1,0c0,0,0-0.1-0.1,0c0,0,0,0-0.1,0c0,0,0,0-0.1,0h-0.2
				c0.2,0,0.2-0.1,0.4-0.1c0.4-1.4,0.6-2.8,0.9-4.4c0,0-0.1-0.2-0.3-0.1l0.1-0.2c0.3-0.3-0.4,0.3,0.1-0.1c0.2-0.1,0.2-0.4,0.3-0.7
				c0.1-0.4,0.8-1.4,1-2c0.3-0.8,0.4-2,0.7-2.7l0.1-0.3c-0.5,0.6,0.4-2.3,0.5-2.4s0.2-0.2,0.3-0.4c0,0.1,0.1,0.1-0.1,0.1h-0.1l0,0
				c-0.4-0.6,0.1-0.3,0.1-0.3l0.5-0.3c0-0.3-0.4-0.3-0.4-0.4h-0.1c0.2-0.2,0.1-0.1,0.2-0.3c-0.6,0.1-0.3,0-0.3-0.1
				c0.2-0.2,0.1-0.1,0.2-0.5c0-0.2,0.1-0.4,0.1-0.5c0.1-0.7,0-0.7,0.6-0.7C404.6,57.5,404.4,57.4,404.7,57.6L404.7,57.6z"/>
			<path class="st29" d="M414.6,77.8c-0.4,0.7-0.5,0.3-0.7,0.1c-0.2,0.1-0.6,0.5-0.9-0.3c-0.1-0.3-0.1,0.3-0.1-0.2l-1.8-0.4
				l-0.2,0.3c0,0,0,0.1-0.1,0.1l-1.4-0.2c-0.5,0,0.1,0.1-0.6,0.1c-0.3,0-0.6-0.1-0.8-0.1c-0.3,0-0.5-0.1-0.7,0
				c-0.7,0.2,0.1,0.6-2,0.2l-0.3,0.5l-1.1-0.2c-0.5,0.1,0.3-0.1-0.1,0.1l-0.1,0.1c-1.1,0.3-1.4-0.9-2.1,0.5l-0.5,0.5
				c-0.3,0.2,0,0.2-0.5,0.1l-0.1,0.6c-0.7-0.1-1.1,0-1.4,0.5c-0.3-0.1-0.7-0.6-1,0.6c-1.1-0.3-2.5-1-3.2-1.7c0,0,0,0,0.1-0.1
				l0.2-0.2c0.1-0.1,0-0.1,0.2-0.1c0,0,0.9,0.1,1.3,0.2c0.2,0,0.5,0.1,0.8,0.2l0.3-1.3l1-0.1c0.1-0.6,0-0.1,0.4-0.3
				c0.4-0.1,0.2-0.2,1.1,0c0.8,0.2,0.9,0.4,1.4-0.1c0.2-0.1,0.6-0.5,0.7-0.6l0.3-0.3c0,0,0,0,0-0.1c1,0.2,1.6,0.2,2.7,0.4l0.2-0.4
				c0,0,0,0,0-0.1c0.1-0.2,2.4,0.3,2.7,0.4l0.2-0.9l2.8,0.5l0.1-0.5c0.4,0.1,0.5,0.2,0.8,0l0.5-0.5c0.5,0.2,0.5,0.6,0.9,1.2l0.8,1.3
				c0,0,0,0,0,0.1C414.7,78,414.6,77.7,414.6,77.8L414.6,77.8z"/>
			<path class="st30" d="M415.7,46.7l-0.2,0.1c-1.2,0-1.5,0.3-2.8-0.4c-0.8-0.4-1.3-1.1-1.6-1.9c-1.2-2.8,0.7-5.1,0.8-5.5
				c0.2-0.2,0.2-0.2,0.4-0.4c0.6-0.8,1.5-1.4,2.8-1.4c0.1,0.1,0.1,0.1,0.2,0.2c-0.6,0,0-0.1-0.3,0.1l-0.1,0.1
				c-0.8,0.5-1.1,0.9-1.8,1.2c-0.3,0.1-0.6,0.1-0.9,0.2c0.1,0.2-0.1,0,0.2,0.2c0.5,0.2,1-0.3,1.4-0.5l1.5-0.9c0,0,0,0,0.1,0l0.3-0.1
				c0,0-0.1,0.1-0.2,0.1c-0.6,0.5-0.7,0.5-0.5,0.7c-0.4-0.1-0.7,0.1-0.9,0.4c1-0.6,0.6,0.4,0.6,1.2c0,0.5,0.1,0.5,0,1.1
				c-0.2,0.9-0.3,0.8,0,1.1c0.1-0.7,0.1-0.6,0.3-0.6c0,0.9-0.4,0.9-0.5,1.4c0,0.3,0,0.2,0.1,0.5c0.2,0.5,0.1,0.4,0.1,1
				c0,0.2,0,0.2,0.1,0.3c0.1,0.4,0.1,0.2,0,0.8l-0.7-0.1c0.1,0.2,0,0.1,0.4,0.2c0.2,0,0.4,0.1,0.6,0.1c-0.2,0.5-0.1,0.2-0.5,0.3
				l0.4,0.1c-0.2,0.3-0.2,0-0.1,0.3c0.5,0.2,0.4-0.1,0.7-0.1h0.1C415.6,46.7,415.6,46.7,415.7,46.7L415.7,46.7L415.7,46.7z"/>
			<path class="st31" d="M406.3,38.6c-0.4,0.5,0.1-0.1-0.1,0.3l-0.1,0.1l0,0c-0.2,0.3-0.2,0.5-0.2,0.9l-0.8,3.7
				c-0.2,0.6-0.1,0.1-0.3,0.4c-0.2,0.3-0.2,0.7-0.3,1.1c-0.2,0.5-0.2,0.1-0.3,0.9c-0.3,1.4-0.4,3-1,4.6c-0.2,0.5-0.1,0.1-0.5,1.4
				l-0.5,2.1c0.1-0.5,0.4-1.5,0.3-1.9c-0.2,0.3-0.5,2.4-0.6,2.9c-0.2,1.1-0.6,1.8-0.5,3c-0.3-0.2-0.1,0-0.3-0.2l-0.1,0.7
				c0,0.1-0.1,0.3-0.1,0.4l0.4,0.3l-0.3,0.1c-0.8,0-1.2,0.3-1.7,0.8l0.9-3.2c0.4,0.1,0,0.2,0.2-0.7l1-3.6c0.4-1.5,0.9-3.1,1.3-4.7
				c0.2-0.9,0.5-1.5,0.8-2.3c0.2-0.8,0.4-1.7,0.6-2.5c0.3-1.2,1.1-3.6,1.2-4.7l0.2-0.2C405.7,38.5,406,38.6,406.3,38.6L406.3,38.6z"
				/>
			<path class="st13" d="M432.1,69.2v0.5l-5.9,0.1c0,0-0.3,0,0-0.2l0,0c-0.5,0.1-0.6-0.2-0.6-0.6c0-0.5-0.1-0.7,0-1.2l-0.3-0.3l0,0
				c0.1-0.5,0.1-0.9,0-1.3c-0.2,0-0.5,0.2-0.6,0.1c-0.4-0.2,0-0.2,0-0.2c0.2-0.5,0.2-0.1,0.1-0.2c0.5,0,0.3,0,0.6-0.2
				c0.2-0.2,0.3-0.1,0.3-0.1c0.2,0,0.1,0,0.3,0c-0.4,0-0.2-0.1-0.1-0.3c0.2-0.1,0.8-0.1,1.1-0.1h0.2c1.5,0.2,2.4,0.6,3.3,1.4
				C431.2,67.3,431.8,68.1,432.1,69.2L432.1,69.2z"/>
			<path class="st32" d="M415.4,27.3c0.1-0.2,0,0,0.2-0.1v0.3c0.1,0,0.2,0,0.2,0h0.1c-0.3,0.6-0.1,0-0.3,0.3c0,0-0.3,0.1,0.2,0.5
				l0.2,0.2c-0.1,0.3-0.2,0.9-0.2,1.2c0,0,0,0,0,0.1l0.1,0.2c0.1,0.3,0,0.5-0.1,0.8c-0.2,0.8-0.2,0.6,0,0.9c0.6,1.1,0.2,0.2,0.4,0.6
				c0.1,0.4,0,0.3,0.2,0.7s0.3,0.2,0.3,0.6c-0.2-0.2-0.2-0.2-0.3-0.4c0.1,0.3,0,0.7,0,0.9c0.1,0.1,0,0.1,0.2,0.2
				c-0.3,0.8-0.7,0.7-0.7,1.6c0,0.8,0.1,0.6-0.4,1.1l-0.1,0.1l-0.3,0.1c-1.2,0-2.1,0.7-2.8,1.4l-0.4-0.5c-0.3-0.6,0.4-1.2-0.1-1.9
				l-1.4-1.9c0.1-0.6,0.3-1.3,0.3-1.9c0-0.5-0.1-1.1-0.1-1.5l-0.4-1.2c0.2-0.2,0.1,0.1,0.1-0.2v-0.1l0.5-0.2c0-0.5,0-1,0.2-1.5
				l0.1-1.4c0.1,0.1,0,0.1,0.2,0c0.3,0.2,0.4,0.5,0.8,0.8c0.3,0.3,0.6,0.5,1,0.6C413.9,27.9,414.8,27.6,415.4,27.3L415.4,27.3z"/>
			<path class="st33" d="M445.1,67.4c0.1,0.3,0.1,0.2,0.3,0.5c0.4,0.5,0.5,0.9,0.9,1.5c0.2,0.3,0.3,0.7,0.4,1.1l0.3,1l0,0
				c-0.7-0.1-1.6-0.4-2.3-0.6c-0.8-0.2-1.6-0.2-2.4-0.4h-0.1l-0.5-0.1l-1-0.1c0.4-0.3,0.2,0.1,0.4-0.3c0.1-0.3-0.1-1.1-0.1-1.3
				c0,0,0,0,0-0.1c0-0.4,0.1-0.9,0.2-1.2c0.1-0.3,0.3-0.6,0.4-0.9c0.2-0.1,0.7-0.4,0.8-0.6c0.8-0.1,1.1-0.2,1.8,0.3
				c0.2,0.1,0.4,0.3,0.6,0.5C444.8,67.1,444.9,67.2,445.1,67.4L445.1,67.4z"/>
			<path class="st34" d="M449.1,72.9c-0.2-0.4-0.5-0.6-1-0.8l-1.2-0.6c0,0,0,0-0.1,0c0,0,0-0.1,0,0l-0.3-1c-0.2-0.4-0.3-0.8-0.4-1.1
				c-0.3-0.6-0.5-1-0.9-1.5c-0.2-0.3-0.2-0.2-0.3-0.5h0.6c-0.1-0.1-0.2-0.1-0.3-0.2c-0.1-0.1-0.1-0.3-0.2-0.4
				c0.3-0.1,0.2,0.1,0.3-0.2v-0.1c-0.7,0.2-0.2,0-0.4-0.2c0.2,0.1,0-0.2,0-0.6c-0.3,0.1,0.1,0.3-0.4,0c-0.2-0.1,0-0.1-0.6-0.3
				l0.1-0.6c0,0,0-0.1-0.1,0l-0.1-0.1c-0.1-0.1-0.1,0-0.2-0.1l0.1-0.6l-0.6-0.2l0.1-1.3c-0.1-0.1-0.3-0.1-0.5-0.6
				c-0.1-0.4,0-0.6,0-1l-0.7-0.2c0.2-1.3-0.2-0.2-0.1-1.3l-0.4-0.3l0.1-0.5c-0.3-0.3-0.5-0.3-0.4-0.8c-1.4-0.4-0.2-0.3-1.3-0.7
				c0.1-0.3,0-0.4,0.5-0.4c0,0-0.1-0.1-0.1,0l-0.2-0.2c-0.1-0.3-0.1,0.1,0-0.1c0.2-0.3,0.1,0.2,0.1,0c-0.4-0.2-0.3-0.1-0.3-0.5
				c0.5,0.3,0.9,0.5,1.4,0.4c0.3,0.4,3.1,6.7,3.7,8.1l3.4,7.7C448.9,72.6,448.9,72.7,449.1,72.9L449.1,72.9z"/>
			<path class="st35" d="M423.1,55.2l-0.7-0.4c-0.8-0.5-1-0.7-1.6-1.5c-0.9-1.3-1.1-3.1-0.4-4.7c0.5-1,1.1-1.3,1.4-1.8
				c0.3,0,0.2-0.2,0.7-0.3l-0.1,0.3l0.6,0.1c-0.2,0.1-0.3,0-0.5,0.1c0.6,0.1,0.1-0.1,0.3,0.5c0,0,0,0,0,0.1c0,0,0,0,0,0.1
				c0.2,0.6,0-0.3,0.1,0.2c-0.1,0.4-0.2,0.4-0.1,0.9l0.2,1.6c0,0,0,0,0,0.1l0.1,0.6c0,0.2,0.1,0.1,0.1,0.4c0,0.2,0,1.2,0.2,1.9
				c0.1,0.2,0.2,0.2,0.1,0.6c-0.2,0.6,0.2,0.1,0,1h-0.6v0.2C422.9,55.2,423.1,55.2,423.1,55.2z"/>
			<path class="st36" d="M410.1,29.7l0.3,0.7l0.1,0.4c0,0.4,0.1,1.1,0.1,1.6c0,0.6-0.2,1.3-0.3,1.9c-0.1,0.9-0.8,1.8-1.2,2.4
				c-0.2,0.3-0.6,0.8-0.8,1c-0.3,0.3-0.7,0.6-1.1,0.7c0.2-0.4-0.1,0.2,0-0.2l0.1-0.1l0,0l-0.2-0.3c0,0,0,0,0-0.1c0,0,0,0,0-0.1l0,0
				l0.1-0.2c0-0.2-0.3-0.1,0.2-0.2c0.3-1.4,0.1-0.2,0.5-1.7c0-0.1,0.1-0.4,0.2-0.7l-0.6,0.1l0.2-0.8l-1.4-0.3
				c-0.3-0.1-0.6-0.3-0.8-0.5c0.3,0,0.3-0.1,0.6,0c-0.2,0.1-0.2-0.4-0.2-0.4l0.8,0.2l0.1-0.5l0.9,0.2c0,0,0,0,0.1,0c0,0,0,0,0.1,0
				l0.1-0.1c0,0.3,0,0.3,0.1,0.5c0.2,0.2,0.3,0.1,0.3,0.1c0.1-0.1,0-0.4,0-0.4c-0.1-0.3-0.1-0.3,0-0.5c0.1-0.3,1.2-1,1.4-1.1
				c0.3-0.2,0.4-0.2,0.3-0.5c-0.2,0.3-0.5,0.4-0.8,0.6l-0.5,0.3c-0.1,0.1-0.1,0.1-0.2,0.2l-0.2,0.2l0.1-0.6
				c-0.2-0.2-0.4-0.1-0.7-0.2c-0.3-0.1-0.4-0.2-0.8-0.3c-0.4-0.1-0.2,0-0.4-0.2l0,0l0,0c-0.2-0.2,0,0.1-0.2-0.1c0.3,0.1,0.8,0.2,1,0
				c0.6-0.1-0.6,0.2,0.2-0.1c0.1,0,0.2-0.1,0.2-0.1c0.2,0,0.5,0,0.7,0c0.7,0.2,0.7,0.3,0.5,0.8l0.7-0.5c0-0.3,0.1-0.3,0-0.6
				c0-0.3-0.2-0.5-0.3-0.8l-0.1-0.2c0,0,0,0,0-0.1l0.3,0.1c0.2,0.1,0.2,0.2,0.3,0.3c0.2,0.2,0.1,0.1,0.3,0.3L410.1,29.7z"/>
			<path class="st37" d="M415.6,27.3c-0.2,0-0.1-0.1-0.2,0.1l0.1-0.3c-0.2,0.1-0.5,0.1-0.7-0.1c-0.3-0.3-0.1,0,0-0.2l0.1-0.1
				c0.2-0.5,0.1-1,0-1.3c-0.2-0.6,0.1-0.7,0-1.2c0-0.2,0,0.1,0-0.3l0.1-1.1c0.1-0.6-0.4-1.9-0.1-2.3c0,0,0.2-0.2,0.2-0.6
				c0-0.5,0,0-0.1-0.3c0-0.1-0.1,0.1-0.1-0.3c0.1-0.6,0.3-0.2,0.1-0.7c-0.1-0.2,0-0.1-0.1-0.3h0.4h0.3c0.2,0.2,0.7,0.5,0.9,0.8
				c0.8,0.9,1.2,2.1,1.2,3.4c0.1,1.3-0.5,3-1.4,4C415.9,27,415.6,27.1,415.6,27.3L415.6,27.3z"/>
			<path class="st38" d="M434.1,39.8c-0.2-0.3-0.4-0.7-0.7-1.1c-0.3-0.4-0.5-0.6-0.8-1c-0.7-0.7-1.3-1.2-2.5-1.3
				c0.3-0.5,0.6,0.2,0.4-0.6c-0.1-0.5,0,0-0.3-0.5c-0.6-1.2,0-0.2-0.4-1.3c-0.3-0.7,0.4-0.1-0.4-0.8l-0.1-0.1l-0.1-0.1
				c-0.1-0.3,0-0.6-0.1-0.9c-0.1-0.4-0.1-0.1-0.2-0.3c-0.2-0.3,0-0.1-0.1-0.4c-0.1-0.4,0.1,0-0.2-0.5l-0.1-0.2
				c-0.1-0.3,0.1-0.5-0.1-0.8c-0.2-0.2-0.2-0.1-0.4-0.5c0,0,0,0,0-0.1l-0.7-1.4c-0.3-0.7,0.4,0-0.4-1.1l-0.1-0.2
				c-0.2-0.4,0-0.1-0.1-0.4c0-0.2,0.1-0.1-0.1-0.3c-0.1-0.1-0.3-0.3-0.3-0.3s-0.1-0.1-0.1-0.2c0-0.2-0.1,0.1,0.1-0.2
				c0.3,0.2,0.5,0.5,0.8,0.8c1.3,1,1,0.3,1.5,1.4l4.6,10.3C433.6,38.2,434.1,39.3,434.1,39.8L434.1,39.8z"/>
			<path class="st39" d="M432.1,69.2c0.3,0.7-0.2,0.6-0.5,0.9c-0.8,0-1.7,0-2.5,0s-1.6,0-2.5,0.1c-1.6,0.1-3.4,0.1-4.9,0.3
				c-0.2-0.3-0.1-0.6-0.1-1c0.3-1.9,2-3.8,3.6-4.1l0.6-0.1c-0.1,0.3-0.3,0.3,0.1,0.3c-0.3,0-0.2,0-0.3,0c0,0-0.1-0.1-0.3,0.1
				c-0.3,0.2,0,0.2-0.6,0.2c0.1,0.1,0.2-0.3-0.1,0.2c0,0-0.4,0,0,0.2c0.1,0.1,0.5-0.1,0.6-0.1c0.2,0.4,0.1,0.8,0,1.3l0,0l0.3,0.3
				c-0.1,0.5,0,0.7,0,1.2s0.1,0.7,0.6,0.6l0,0c-0.3,0.2,0,0.2,0,0.2l5.9-0.1L432.1,69.2L432.1,69.2z"/>
			<path class="st40" d="M440.3,56.2c-0.1,0.3-0.2,0.2,0.3,0.5c0.1,0.3,0.1-0.3-0.1,0c-0.1,0.2-0.2-0.2,0,0.1l0.2,0.2c0,0,0,0,0.1,0
				c-0.5,0-0.4,0-0.5,0.4c1.1,0.3-0.1,0.3,1.3,0.7c-0.1,0.6,0.1,0.6,0.4,0.8l-0.1,0.5l0.4,0.3c-0.2,1.1,0.3,0,0.1,1.3l0.7,0.2
				c-0.1,0.5-0.2,0.6,0,1c0.2,0.5,0.4,0.5,0.5,0.6l-0.1,1.3l0.6,0.2l-0.1,0.6c0.1,0.1,0.1,0,0.2,0.1l0.1,0.1c0,0,0,0,0.1,0l-0.1,0.6
				c0.6,0.2,0.4,0.2,0.6,0.3c0.5,0.3,0.2,0.1,0.4,0c0,0.4,0.3,0.7,0,0.6c0.1,0.2-0.4,0.4,0.4,0.2v0.1c-0.1,0.3,0,0-0.3,0.2
				c0.1,0.1,0.1,0.3,0.2,0.4s0.1,0.1,0.3,0.2h-0.6c-0.2-0.2-0.3-0.3-0.5-0.5s-0.4-0.4-0.6-0.5c-0.7-0.5-1-0.4-1.8-0.3l0.3-0.2
				c0-0.2,0-0.1-0.1-0.3l-0.1-0.1c0,0,0,0,0-0.1c0,0,0,0,0-0.1c0,0-0.2,0.1,0,0c0.6-0.3-0.5,0.4,0.2-0.1c-0.6-0.2-0.1-0.7-0.1-1.2
				l-0.2-0.4c0-0.1,0-0.1-0.1-0.2c-0.7-1.4-0.3-1.2-0.9-1.3c0.2-1.3-0.5-0.2-0.4-1.4c-0.5-0.5-0.2,0-0.5-0.7c-0.1-0.3-0.2,0-0.1-0.9
				l-0.5-0.8c-0.1-0.2-0.2-0.6-0.2-0.9l-0.5-0.1l0.1-0.7c-0.6-0.6-0.3-0.2-0.6-0.9l0,0l0.3-0.3c-0.1-0.1-0.1-0.1-0.2-0.2
				c-0.4-0.5-0.2-0.5-0.6-0.3c-0.1-0.5,0,0.4,0-0.1c0-0.2,0.1,0.2,0-0.1c-0.1-0.2,0,0-0.2-0.1c0.1-0.2,0.1-0.2,0.1-0.5
				c0.2,0.2,0.3,0.3,0.5,0.6c0.2,0.2,0.2,0.3,0.4,0.5C439.5,55.5,439.9,55.8,440.3,56.2L440.3,56.2z"/>
			<path class="st41" d="M426.9,65.2c-0.3,0-0.9,0-1.1,0.1l-0.6,0.1l-1.3-9.9c1,0.2,1.6,0.1,2.2,0.2c0.3,0.1-0.1-0.1,0.1,0.1
				c0.4,0.4,0.3,0,0.3,0.4c-0.3-0.1-0.4-0.1-0.8,0c-0.2,0-0.2,0.1-0.3,0.1l0.6,0.3l0.1,2c0.4,1-0.1,0.9,0,1.7c0,0,0,0,0,0.1
				c0.1,0.3,0.2,0.2,0.1,1V62c0.2,0.5,0.1,1,0.1,1.6c0.1,0.9-0.2,0.9,0.6,1.2l-0.1,0.2l0,0l-0.4,0.2L426.9,65.2L426.9,65.2z"/>
			<path class="st42" d="M422.7,36.6c-0.5-0.2-0.4,0.1-0.4,0.1l1,0.2c0.2,0.1,0.1,0.1,0.2,0.2h-0.7c0,0.5,0.1,0.3,0,0.9l0.1-0.1
				c0.5-0.3,0.2,0.3,0.1,0.8V40l0.7,0.2l-0.3,2.5l0.4,0.5c-0.1,0.7,0,0.6,0,1.5s0.6,0.5,0.1,1.5l-1.4,0.4c0.1-0.6-1.2-8.5-1.2-9.3
				c0-0.7-0.1-0.3-0.2-1.1C421.6,36.4,422,36.6,422.7,36.6L422.7,36.6z"/>
			<path class="st36" d="M404.7,57.6c-0.3-0.1-0.1,0-0.4-0.2c-0.3-0.5-0.6-0.5-0.8-1.5c-0.5-1.9,0.1-4.3,1.2-5.9
				c0.2-0.5,0.8-1,1.1-1.3c0.5-0.4,1-0.6,1.7-0.7c0,0-0.1,0-0.1,0.1l-0.8,0.5c-0.4,2-0.4,1.1-0.6,2l-1,6.4v0.1c0,0,0,0,0,0.1
				c-0.3-0.1-0.3-0.1-0.4-0.1L404.7,57.6C404.6,57.4,404.8,57.2,404.7,57.6C404.8,57.9,405.1,57.3,404.7,57.6L404.7,57.6z"/>
			<path class="st43" d="M399.3,69.8l-0.4,0.6c0.5,0.1,0.2,0,0.3,0.1l-0.3,1.7c-0.1,1.2-0.6,1.7-0.1,2c-0.3,0.1-0.3,0.3-0.5,0.5
				s-3.1,2.2-3.4,2.3c0-0.1,1.4-5.7,1.9-7.6c0.2-0.6,0.5-1.6,0.5-2.2v0.1c0,0,0,0,0,0.1C397.6,68,397.4,70.1,399.3,69.8L399.3,69.8z
				"/>
			<path class="st44" d="M437.5,57.7c-0.3-0.2-0.4-0.4-0.7-0.7c-0.2-0.2-0.6-0.5-0.8-0.7c-0.5-1.2-1-2.8-1.5-4l-1.6-4.6
				c-0.3-0.7-0.3-1.1-0.5-1.3c0.3,0,0.2,0,0.4-0.1c0.6,0.1,0.7-0.1,1-0.1l0.5,0.1c0,0.4,0.1,0.3-0.3,0.4l0.3,0.5
				c-0.3,0.1-0.5,0.3-0.8,0.6c0.3,0.2,0.3,0,0.8,0.2c0,0.2,0,0.2,0.1,0.3l0.1,0.3c0,0.2,0,0.2,0.1,0.3l0.2,0.3
				c-0.1,0.8-0.2,0.8,0.1,1.2l0.4,0.7c0,0.3-0.1,0.6-0.1,0.8l0.1,0.4l0,0c0,0,0,0.1-0.1,0.1l1.1,0.3c-0.1,0.9,0.2,0.3,0,1.4l0.7,0.2
				c-0.2,1.1,0.3,0.4,0.2,1.1c-0.1,0.5,0,0.3-0.2,0.4l0.7,0.5c-0.1,0.9,0.1,0.8,0.3,1.4C437.8,57.7,437.7,57.7,437.5,57.7
				L437.5,57.7z"/>
			<path class="st45" d="M441.4,66.6c-0.1,0.3-0.3,0.6-0.4,0.9c-0.1,0.4-0.2,0.9-0.2,1.2c-0.3-0.1,0,0-0.3-0.2s0-0.1-0.3-0.2
				l-0.8-2.3c-0.1-0.4-0.3-0.7-0.4-1.1c-0.2-0.5-0.3-0.7-0.2-1.2c0.1-0.9,0.4-1.2,0.3-2.3c0-0.6-0.4-1.4-0.4-1.8l0.4,0.1
				c0,0,0,0,0.1,0s0.1,0,0.3,0c-0.2,0.3-0.1,0.1,0,0.3l0.2,0.2c0.1,0.2-0.4,0.2,0.3,0.4c-0.3,1.5-0.1,1.3,0.4,1.4
				c-0.1,0.5,0,0.4,0.1,0.8c0.1,0.2,0.2,0.4,0.1,0.7c0.4,0.1,0.4,0,0.6,0.4c0.1,0.1,0,0.1,0.1,0.2c0.2,0.4,0.1,0.4,0,0.9l0.2,0.2
				c0.3,0.4-0.3,0.5,0.7,0.8c-0.2-0.1-0.2,0-0.3,0.1l-0.1,0.1C441.4,66.3,441.4,66.2,441.4,66.6L441.4,66.6z"/>
			<path class="st46" d="M446.9,71.6L446.9,71.6l1.2,0.6v0.1v0.2c0,0.1,0,0,0,0.1c-0.3,0-0.4,0.1-0.8,0.1v0.1c0,0.2-0.1,0.1-0.4,0.3
				c-0.1,0-0.3,0.2-0.3,0.2c-0.2,0.1,0,0.1-0.3-0.1c-0.3,0.3-0.3,0.5-0.6,0.5c-0.3,0,0.1,0-0.2-0.2c-0.4,0.4-0.6,0.4-1.2,0.3
				c-0.1-0.1-0.2,0.2-0.1-0.4l0,0l0,0c-0.4,0.4-0.9,0.3-0.8,1.4V75l0,0l-0.2,0.4c-0.1-0.4,0.2-0.3-0.3-0.7c-0.1,0.2-0.2,0.5-0.3,0.7
				c-0.6,0.4-3.2,0.8-3.7,0.9c-1,0.2-2.2-1.3-2.9-1.9c-0.9-0.9-2.7-3.4-2.2-4.3c0-0.2,7.9,0.4,8.4,0.5c0.7,0.2,1.5,0.2,2.3,0.4
				C445.3,71,446.2,71.4,446.9,71.6L446.9,71.6z"/>
			<path class="st26" d="M417.3,9.7l-0.2-2.1c0-0.3-0.1-0.6-0.2-0.9l-0.4-3.1c-0.1-0.3-0.1-0.1-0.1-0.5c-0.1-0.7,0.1-0.6-0.1-0.9
				c-0.1-0.3-0.2-0.2-0.2-0.4h0.6c0.7,0.3,1.4,2.4,1.7,3l1.1,2.4c0.1,0.3,0.3,0.6,0.4,0.8c-0.7,0.2-1.3-0.1-2.3,1.3L417.3,9.7
				L417.3,9.7z"/>
			<path class="st47" d="M409.8,10.6l0.4,0.8c0.1,0.2-0.1-0.1,0.2,0.2c0.1,0.4,0.5,0.9,0.7,1.2c0.1,0.2,0.2,0.3,0.3,0.6
				c0.2,0.4,0.1,0.3,0.5,0.5c0.1,0.4,1.1,1.6,0.9,2.6c0,0.2-0.2,1.1-0.3,1.2v-0.6c-0.1,0,0.1-0.1-0.1,0l-1.2,0.7
				c-0.7-0.1-0.1,0-0.3-0.3c0.2-0.4,0.3-1.1,0.5-1.5c0.1-0.5,0.3-0.8,0.1-1.1l-0.9-1.4c-1.2-1.9-1.3-1.9-1.8-3.9
				c0-0.1,0-0.2-0.1-0.4c-0.1-0.6-0.2-1.8,0.2-2.3C409.1,7.6,408.7,8.3,409.8,10.6L409.8,10.6z"/>
			<path class="st36" d="M415.9,1.8c0.6,1.3,0.2,4-0.6,5.3c-0.3,0.4-0.4,0.5-0.7,0.9c-0.1-0.5-0.1-0.9-0.2-1.4s-0.2-1-0.3-1.5
				c0.3,0.1,0.2-0.2,0.3-0.6c0.2-0.7,0.4-0.7,0.7-2.2c-0.4-0.1-1.2-0.2-1.5-0.1l-0.1-0.8V1c0.5,0.1,0.7,0.3,0.7,0.3
				C415.7,1.9,414.7,1.8,415.9,1.8L415.9,1.8z"/>
			<path class="st48" d="M399.8,74.2c-0.4,0.2-1.1,0.5-1.5,0.6c0.2-0.3,0.2-0.4,0.5-0.5c-0.5-0.3,0-0.9,0.1-2l0.3-1.7
				c-0.1-0.1,0.1,0-0.3-0.1l0.4-0.6c0.1-0.1,0.3-0.2,0.5-0.3c0.7-0.5,0.9-0.9,1.1-1.1s0-0.1,0.2-0.1c0,0.4,0,0.6-0.3,0.7
				c-0.5,0.3,0.1-0.3-0.1,0.1l-0.1,0.2c0.2-0.1,0.3,0.1,0.3,0.1c-0.3,1.6-0.5,3-0.9,4.4c-0.1,0.1-0.2,0.1-0.4,0.1h0.2c0,0,0,0,0.1,0
				c0,0,0,0.1,0.1,0c0,0,0,0,0.1,0H400L399.8,74.2L399.8,74.2z"/>
			<path class="st49" d="M412.1,19.2c-0.5,0.9-0.9,1.2-1.2,2.5c-0.2,1-0.3,2.1-0.1,3c-0.2-0.2-0.3-0.3-0.7-0.6
				c-0.5-0.3-0.2-0.2-0.8-0.6c-0.1,0.5,0,0.4-0.3,0.7l0,0c0.1-0.5,0.3-0.8,0.4-1.2c0.1-0.4,0.2-0.9,0.3-1.3c0.2-0.9,0.5-1.7,0.7-2.5
				c0.3-0.3,0.9-0.6,1.3-0.6s0.2-0.2,0.3,0.1c0.1,0.2,0,0.2-0.1,0.4l0.3,0.2c-0.1,0.1,0-0.1-0.2,0.1C412,19.3,412,19.1,412.1,19.2z"
				/>
			<path class="st50" d="M436.7,48c-0.2-0.1-0.1-0.1-0.2-0.2l-0.1-0.2c0,0,0,0,0-0.1l-0.2-0.4c-0.2-0.7-0.5-0.3-0.5-0.6
				c-0.2,0.2-0.2,0.1-0.4,0.2v-0.1c-0.1-0.7-0.2,0-0.1-0.6l0,0c0-0.1,0-0.1,0-0.2c-0.1-0.9-0.6-0.8-0.4-0.5l0.1,0.1
				c-0.3,0.1-0.2,0.2-0.3,0.4c-0.1-0.1,0,0-0.2-0.1c0.8-1.5,0.9-2.8,0.3-4.5l-0.5-1.3c0.2,0.2,1.8,3.7,1.9,4c0.3,0.6,0.6,1.3,0.9,2
				c0.6,1.2,0.3,0.8,0,1.5C436.8,47.6,436.7,47.8,436.7,48L436.7,48z"/>
			<path class="st51" d="M440.2,68.3c-0.9-0.6-0.6,0.4-1.9-0.3l-0.6-0.3c0,0,0,0-0.1,0l0.9,0.1c-0.4-0.2-0.3-0.1-0.1-0.3
				c-0.7-0.1-0.3,0-0.7-0.8c-0.2-0.4-0.1-0.2-0.2-0.5l-0.2-0.3c0-0.1,0-0.1-0.1-0.2c-0.4-0.1-0.1,0-0.5,0l0,0l0,0c0,0,0,0,0-0.1
				c0.1-0.4,0.2,0.5-0.1-0.2c0.2-0.1,0.3-0.1,0.5-0.2c0.5-0.2,0.4-0.2,0.3-0.4c0.4-0.1,0.7-0.5,0.9-0.9l0.3-0.3
				c-0.1,0.5,0.1,0.8,0.2,1.2s0.3,0.8,0.4,1.1L440.2,68.3L440.2,68.3z"/>
			<path class="st52" d="M410.8,24.7c0.1,0.3,0.1,0.6,0.2,0.9s0.3,0.4,0.3,0.8c-0.2,0.1-0.1,0.1-0.2,0l-0.1,1.4
				c-0.2,0.6-0.2,1-0.2,1.5l-0.5,0.2v0.1c-0.1,0.3,0.1,0-0.1,0.2c-0.2-0.2-0.1-0.1-0.3-0.3c-0.1-0.2-0.1-0.2-0.3-0.3l-0.3-0.3
				c-0.1-0.3-0.1-0.2-0.1-0.4c-0.1-0.3,0-0.1,0.2-0.9c-0.4,0.1-0.2,0.1-0.3-0.1c-0.2,0-0.2,0-0.3,0.1c0.2-0.1,0.4-0.1,0.7-0.2
				c0.4-0.1,0.3-0.1,0.5-0.5c0-0.4,0.3-1.2,0.2-1.5c-0.1-0.4-0.6-0.8-0.7-1l-0.3-0.1c0.3-0.3,0.2-0.2,0.3-0.7
				c0.6,0.4,0.3,0.3,0.8,0.6C410.6,24.3,410.6,24.5,410.8,24.7L410.8,24.7z"/>
			<path class="st53" d="M409.1,24.1L409.1,24.1l0.3,0.1c0.1,0.2,0.5,0.6,0.7,1c0.1,0.3-0.1,1.1-0.2,1.5c0-0.5,0-0.3-0.1-0.7
				c-0.3,0.2-0.8,0.4-1.3,0.4l0.1-0.4l0.2-0.9c-0.6-0.3-2.5-1.7-2.9-2.7c-0.3-0.6-0.1-0.8,0-1.5c0.2,0.2,0.1,0.2,0.3,0.5
				C406.5,22.1,408.6,23.9,409.1,24.1L409.1,24.1z"/>
			<path class="st54" d="M407.3,38.5L407.3,38.5c-0.3,0.1-0.6,0.2-1,0.2c-0.4-0.1-0.7-0.1-1-0.4l-0.2,0.2l0.1-0.4c0,0,0,0,0-0.1
				c0.3-0.7,0.8-2.3,0.8-2.9l1.1,0.2l0.2-0.4l0.6-0.1c0,0.2-0.1,0.5-0.2,0.7c-0.3,1.5-0.2,0.4-0.5,1.7c-0.4,0.1-0.2,0-0.2,0.2
				l-0.1,0.2l0,0v0.1c0,0,0,0,0,0.1l0.2,0.3l0,0l-0.1,0.1c-0.1,0.4,0.2-0.2,0,0.2h0.3L407.3,38.5L407.3,38.5z"/>
			<path class="st55" d="M405.1,22.3c-1.1,0-2.2-1.1-2.7-1.6c-1.2-1.4-0.5-2.1-0.2-2.9c0.1,0.5,0,0.9,0.3,1.3c0.5,0.9,2,2,3.1,2.2
				C405.5,21.7,405.3,22,405.1,22.3z"/>
			<path class="st56" d="M402.4,13.8c0.5,0.1,1-0.2,1.6-0.2c-0.2,0.6-0.7,0.9-1.2,0.9c-0.1,0-0.1,0-0.2,0h-0.1h-0.1
				c-0.6,0.1-2.4,0-3-0.1c-0.5,0-1.1,0.2-1.5,0.3c0.3-1,1.5-1.3,2.7-1.2C401.2,13.6,401.6,13.6,402.4,13.8L402.4,13.8z"/>
			<path class="st56" d="M397.8,21.4c0.9-0.1,0.4-0.3,1-0.3c-0.4,1.2-1.1,1.1-1.7,1.2c-0.7,0.2-2.7-0.2-3.5-0.3l0.3-0.8
				C394.9,20.8,397,21.4,397.8,21.4L397.8,21.4z"/>
			<path class="st55" d="M403.6,23.9c-0.4,0.8-0.4,1.2-1.2,0.6c-1.1-0.8-2.9-2.4-1.4-3.9c0,1.2,0.9,2.1,1.7,2.7L403.6,23.9z"/>
			<path class="st57" d="M408,15.2c-0.1,0-0.3,0-0.5,0.1s0,0,0,0.4c-0.2-0.1-0.3-0.1-0.5,0c-0.6-0.5-1.1-1.1-1.5-1.7
				c-0.5-0.7-0.7-1.7,0.1-2.2C405.7,13.2,407.8,14.7,408,15.2L408,15.2z"/>
			<path class="st19" d="M409.3,28.8l0.3,0.3l-0.3-0.1c0,0,0,0,0,0.1l0.1,0.2c0.1,0.3,0.3,0.5,0.3,0.8s0,0.3,0,0.6l-0.7,0.5
				c0.2-0.6,0.2-0.7-0.5-0.8c-0.2,0-0.5-0.1-0.7,0c-0.1,0-0.2,0-0.2,0.1c-0.8,0.3,0.4,0-0.2,0.1c0.3-0.4,0.8-1.7,0.7-2.2h0.3
				C408.8,28.5,408.9,28.5,409.3,28.8L409.3,28.8z"/>
			<path class="st58" d="M413,2.3c-0.2-0.3,0-0.9,0.1-1.3c-2.1-0.5-3.2-0.1-4.8,0.6L407.6,2c-0.2,0.2-0.3,0.4-0.5,0.2
				c0.9-0.7,1-1.1,2.7-1.7c1.4-0.5,2.2-0.4,3.8-0.2C413.1,1,413.1,1.3,413,2.3L413,2.3z"/>
			<path class="st59" d="M412.4,17.7c-0.3,0.5-0.3,0.5-0.7,0.7c-0.4,0.1-1,0.3-1.3,0.6c-0.6,0.1-1.4,0.4-1.9,0.4v-0.2
				c0.1-0.4-0.1,0,0.3-0.5c0.4-0.6,1.1-0.5,1.7-0.8c0.7-0.4-0.2,0.3,0.3-0.3c0.2,0.3-0.4,0.2,0.3,0.3l1.2-0.7c0.2-0.1,0,0,0.1,0
				V17.7L412.4,17.7z"/>
			<path class="st22" d="M408.4,17.1c0.2,0.1,0.1,0,0.1,0.2l-0.1,0.7c-0.9,0.2-2.7-0.1-3.7-0.3v-0.1l0,0c0,0,0-0.1,0-0.2h0.4
				c-0.1-0.4,0-0.2,0.1-0.6C406.2,16.9,407.3,16.8,408.4,17.1L408.4,17.1z"/>
			<path class="st58" d="M406.2,30.6c0.2,0.2-0.1-0.1,0.2,0.1l0,0l0,0c0.2,0.2,0,0.1,0.4,0.2l-0.2,0.8l-0.6-0.1
				c-0.7-0.1-1.7-1.2-2-2.2c-0.1-0.2-0.1,0,0-0.3l0.1-0.1c0.1-0.3,0.1-0.4,0.2-0.6c0.3,0.7,0.2,0.6,0.7,1.1
				C405.3,29.8,406,30.4,406.2,30.6L406.2,30.6z"/>
			<path class="st60" d="M395.8,26.7c-0.4,0.8-0.9,0.4-1,0.9c0,0,0,0,0,0.1c0,0,0,0.2,0,0.3c0,0.2,0,0.4-0.1,0.7
				c-0.2,0.6-0.4,0.6-1,0.6l0.2-1h0.1l0.2-0.1c0,0,0,0,0.1,0c-0.8-0.9-1.3-0.7-1.6-0.8c0.4-0.2,1.1,0.1,1.4-0.1
				c0.2,0.1,0.1,0.1,0.2-0.1v-0.1c0.1-0.3,0.1-0.2,0.2-0.6l-0.2-0.1l1-0.2c0.2-0.3,0.2-0.2,0.6-0.1L395.8,26.7L395.8,26.7z"/>
			<path class="st16" d="M413.4,10.9C413.3,10.9,413.3,10.9,413.4,10.9l-0.9,0.7c-0.1-0.3,0.1-0.2-0.4-0.1c-0.2,0-0.4,0.1-0.6,0.1
				c-0.4,0.1-0.7,0-1.1,0c-0.3-0.3-0.1,0-0.2-0.2l-0.4-0.8c0.5,0.2,1.8,0.1,2.5,0c0.4-0.1,0.4-0.1,0.5-0.2c0,0,0,0,0.1-0.1
				c0,0,0,0,0.1-0.1c0,0,0,0,0.1-0.1c-0.1,0.3-0.1,0.1,0,0.2l0.9-0.5L413.4,10.9L413.4,10.9z"/>
			<path class="st58" d="M392.7,27.3l-1.3-0.4l0.3-1.1c0.2,0,0.9,0.3,1.3,0.3c0.5,0.1,1,0,1.4,0.1l0.2,0.1c-0.1,0.4-0.2,0.3-0.2,0.6
				V27c-0.1,0.3,0.1,0.2-0.2,0.1C393.8,27.4,393,27.1,392.7,27.3z"/>
			<path class="st61" d="M411.8,13.8l0.6-2.2l0.9-0.7c0,0,0,0,0.1,0h0.1c0,0.1,0-0.1,0.2,0.1c0.1,0.4-0.2,0.3-0.2,0.7l-0.4,2.4
				c0,0.3-0.1,0.1,0,0.5c-0.2-0.2-0.1-0.1-0.2-0.3l-0.7-1C412,13.7,412.1,13.7,411.8,13.8L411.8,13.8z"/>
			<path class="st58" d="M405.3,33.5c0.2,0.2,0.5,0.4,0.8,0.5l-0.2,1h-0.2c-0.5-0.1-1.4-0.7-1.7-1c-0.5-0.5-0.6-1-0.4-1.9
				c0.5,0.3-0.1,0.1,0.7,0.8C404.7,33.2,405,33.4,405.3,33.5L405.3,33.5z"/>
			<path class="st36" d="M395.8,26.7l0.2-0.6c-0.4,0-0.4-0.1-0.6,0.1c0.3-0.4,0.8,0.3-0.2-1.2c-1.1-1.5-1.1-1.1-0.9-1.5l0.3-0.6
				c0.4,0.1,1.3,1.1,1.5,1.5C396.4,25.1,396.2,26,395.8,26.7z"/>
			<path class="st22" d="M409.9,26.7c-0.2,0.4-0.1,0.3-0.5,0.5c-0.2,0.1-0.4,0.1-0.7,0.2h-0.4c-0.3,0.4-0.1,0-0.3,0.5
				c-0.1,0.4-0.1,0.5,0.1,0.6h-0.3l0.2-0.8l-1.2,0.1l0.2-1c0.6-0.1,1.1-0.2,1.4-0.6l0.1-0.1c0,0,0-0.1,0.1-0.1l-0.1,0.4
				c0.5,0,1-0.2,1.3-0.4C409.9,26.4,409.9,26.3,409.9,26.7L409.9,26.7z"/>
			<path class="st62" d="M408.5,17.3c0-0.2,0.1-0.1-0.1-0.2c-0.3-0.3-1.1-1-1.3-1.3c0.2-0.1,0.3-0.1,0.5,0c0-0.4-0.2-0.3,0-0.4
				c0.1-0.1,0.3-0.1,0.5-0.1c0.3,0.2,0.9,0.8,1,1.1c0.4,0.6,0,0.9-0.3,1.4C408.6,17.5,408.7,17.5,408.5,17.3L408.5,17.3z"/>
			<path class="st55" d="M401,25.5c-0.5-0.2-0.9-0.7-1.1-1.1c-0.4-0.6,0-1,0.3-1.6c0.3,1,0.6,1,1.2,1.6L401,25.5L401,25.5z"/>
			<path class="st53" d="M404.5,36.3c-0.4-0.1-0.8-0.4-1-0.7c-0.3-0.4-0.2-0.8-0.1-1.4c0.4,0.2,0.5,0.5,0.9,0.8
				c0.5,0.4,0.9,0.5,1,0.6c-0.1,0.4-0.1,0.2-0.4,0.4C404.6,36.1,404.7,36.2,404.5,36.3L404.5,36.3z"/>
			<path class="st63" d="M408.3,32.1c-0.2,0.6-0.7,0.4-1.1,0.1c-0.7-0.4-0.8-0.2-1.1-0.6l0.6,0.1l0.2-0.8c0.4,0.1,0.5,0.2,0.8,0.3
				c0.2,0.1,0.5,0.1,0.7,0.2L408.3,32.1z"/>
			<path class="st64" d="M416.6,1.7c-0.4-0.1-0.5-0.2-0.6,0.1c-1.3-0.1-0.2,0-1.6-0.4c-0.1,0-0.3-0.2-0.7-0.3v0.4l0.2-1.1L416.6,1.7
				L416.6,1.7z"/>
			<path class="st63" d="M407.4,35l-0.2,0.4l-1.1-0.2c-0.5-0.1-0.2,0-0.3-0.2h0.2l0.2-1l1.4,0.3L407.4,35L407.4,35z"/>
			<path class="st58" d="M393.8,29.2c-0.3,0.1-0.7,0.1-1.1,0c-0.1-0.2-0.3-0.9-0.3-1.1l1.6,0.1L393.8,29.2z"/>
			<path class="st43" d="M409.3,28.8c-0.4-0.2-0.6-0.3-1.1-0.4c-0.2-0.1-0.3-0.1-0.1-0.6c0.2-0.5,0-0.1,0.3-0.5h0.4
				c0.2,0,0.2,0,0.3-0.1c0.1,0.2-0.1,0.2,0.3,0.1c-0.2,0.8-0.3,0.6-0.2,0.9C409.2,28.6,409.2,28.4,409.3,28.8L409.3,28.8z"/>
		</g>
		
			<linearGradient id="SVGID_1_" gradientUnits="userSpaceOnUse" x1="-5819.6484" y1="-19624.4375" x2="-5819.6484" y2="-19375.3477" gradientTransform="matrix(3.282554e-02 0 0 -3.282554e-02 612.2331 -556.6966)">
			<stop  offset="0" style="stop-color:#3EB2B5"/>
			<stop  offset="1" style="stop-color:#2D7173"/>
		</linearGradient>
		<path class="st65" d="M432.7,70.1v4.1v10.1c0,0.5,0,4,0,4.5v8.1h-7.3c-10.5,0-15.7-1.2-15.7-3.4V72.1
			C412.8,71.4,424.2,69.8,432.7,70.1z"/>
	</g>
	<path id="path20" class="st66" d="M543.6,73.9c-11.7,0-20.4,11.7-20.4,26.1c0,21.4,9,30.1,23.1,30.1c11.7,0,19.7-11,19.7-26.1
		C566,81.3,558,73.9,543.6,73.9z M499.8,103.3V24.4h8c9,0,15.1,5,15.1,16.1v27.1C527.6,60.9,499.8,150.8,499.8,103.3z"/>
	<path id="path30" class="st66" d="M619.6,74.6c0-11.7-6.4-17.4-16.7-17.4h-6.7c0,0,0,24.8,0,43.5v48.2h23.1v-48.2l0,0V74.6
		 M619.2,74.6L619.2,74.6L619.2,74.6z"/>
	<path id="path32" class="st66" d="M607.5,48.8c7.4,0,13.7-6.4,13.7-13.7s-6.4-13.4-13.7-13.4c-7.4,0-13.4,6-13.4,13.4
		S600.2,48.8,607.5,48.8z"/>
	<g>
		<path d="M561.2,93.3c0.5,0.7,0.5,1.6,0.5,2.4c0.1,0.2,0.1,0.4,0,0.6c-1,1-2.1,2.2-3.3,3.2c-0.8,0.2-1.7,0.2-2.5-0.1
			c-0.2-0.5-0.7-0.2-0.9-0.5l0,0c-0.1-0.3-0.2-0.5-0.5-0.6c-0.1,0-0.1,0-0.2,0c-0.1,0-0.1,0-0.1-0.1c-0.1-0.1-0.1-0.1-0.2-0.2
			c0-0.3-0.3-0.6-0.2-1c0.1-0.2-0.4-0.1-0.5-0.4s-0.2-0.6-0.2-0.9c-0.2-0.4,0-0.8,0.1-1.4l0.1-0.1c0.1,0,0.1,0,0.2,0
			c0.1-0.4,0.4-0.3,0.6,0c0.2-0.6-0.1-1.1,0.2-1.7c0.1-0.1,0.2-0.1,0.2-0.1c0.4,0,0.5-0.3,0.4-0.6c1.4-1,2.8-1.1,4.4-0.5
			c0,0.3,0.3,0.3,0.4,0.4c0.6,0.3,1,0.8,1.3,1.5C560.9,93.4,561.1,93.2,561.2,93.3z"/>
		<path class="st67" d="M541.3,97.4c0.4-0.4,0.7-0.8,1.1-1.3c0.6-0.6,1.3-1.1,1.8-1.8c0.6-0.6,1.3-1.3,1.9-1.9
			c0.2-0.2,0.2-0.2,0-0.4c-0.5-0.4-0.9-0.9-1.4-1.4c-0.1-0.1-0.2-0.1-0.2-0.3c0.1-0.1,0.2-0.1,0.3-0.1c0.2,0,0.3,0.1,0.4,0.2
			c0.3,0.3,0.6,0.6,0.8,0.9c0.4,0.5,0.6,0.5,0.9-0.1c0.2-0.4,0.6-0.6,0.8-0.9c0-0.1,0.2-0.1,0.3-0.1c-0.1,0.6-0.5,1-0.9,1.5
			c-0.3,0.3-0.4,0.4,0,0.8c2.1,2.1,4.2,4.2,6.3,6.1c0.1,0.1,0.2,0.1,0.1,0.3c-0.1,0.1-0.2,0.1-0.3,0.1c-0.3,0-0.4-0.2-0.6-0.4
			c-1.8-1.8-3.5-3.4-5.2-5.3c-0.3-0.3-0.7-0.4-0.8-0.9c-0.1-0.2-0.3,0.1-0.4,0.2c-0.4,0.5-0.9,0.9-1.4,1.4c-0.7,0.6-1.4,1.4-2,2
			C542.5,96.9,542.1,97.4,541.3,97.4z"/>
		<path class="st68" d="M520.8,79.7c0.1-0.1,0.2-0.1,0.3-0.2c-0.3-0.2-0.6,0.2-0.8-0.1c0-0.1,0.1-0.2,0.1-0.2c0.1,0,0,0,0,0
			c0.3-0.2,0.7-0.2,0.6-0.7c-0.1-0.5-0.5-0.3-0.8-0.4c0-0.1-0.1-0.2,0-0.2c0.4-0.4,0.7-0.3,1.1,0.1l0,0c0,0,0,0,0-0.1
			c0.3,0,0.4,0.2,0.3,0.5s-0.1,0.7,0.3,0.9c0-0.5-0.1-0.9,0.3-1.3c0.6-0.5,1.1-1,2-0.8c0,0,0,0,0.1,0.1c0,0.1,0,0.2,0,0.3
			c0,0-0.1,0-0.2,0c-0.5,0-1.5,0.4-1.7,0.8c-0.1,0.3,0.1,0.5,0.2,0.7c0.2,0.2,0.5,0.3,0.4,0.7c-0.2,0.3-0.3-0.2-0.5-0.1
			c-0.1,0.1,0.3,0.3,0,0.4c-0.5,0-0.6-0.5-0.9-0.7c0.2,0.3,0.6,0.5,0.7,0.9c0,0.1,0,0.2-0.1,0.1c-0.3-0.1-0.5-0.3-0.3,0.2
			c0.1,0.3,0.1,0.8-0.4,0.8c0,0,0,0,0-0.1c-0.1-0.2,0.2-0.5,0-0.8c0,0.3-0.1,0.6-0.4,0.6c-0.3,0.1-0.5-0.2-0.7-0.4
			c-0.2-0.2,0-0.4,0.1-0.6C520.7,80.1,521.1,80,520.8,79.7z"/>
		<path class="st68" d="M517.5,84.6c0,0.1,0,0.1,0.1,0.2c0,0.2,0.4,0.3,0.2,0.4s-0.3-0.1-0.5-0.3c-0.2-0.1-0.3-0.3-0.5-0.4
			c0-0.2,0-0.5,0-0.7c0.2-0.5,0.6-0.8,1.1-1.1c0.5-0.3,1.5,0.4,1.5,1.1c-0.3,0.2-0.3-0.2-0.5-0.2c-0.3-0.1-0.5-0.8-0.9-0.3
			c-0.4,0.4,0.2,0.5,0.4,0.8c0.1,0.1,0.2,0.2,0.2,0.3c0.1,0.2-0.1,0.2-0.2,0.2c-0.3,0-0.4-0.2-0.6-0.3c-0.1-0.1-0.2-0.3-0.4-0.2
			C517.2,84.3,517.3,84.5,517.5,84.6L517.5,84.6z"/>
		<path class="st68" d="M523.3,79.8c-0.2-0.2-0.4-0.5-0.6-0.7c-0.4-0.5-0.4-0.8,0.2-1.1c0.1-0.1,0.2-0.2,0.3-0.3
			c0.3-0.5,0.7-0.5,1.1-0.3c0.3,0.1,0.4,0.3,0.6,0.5c0.1,0.1,0.2,0.3,0.1,0.4c-0.1,0.2-0.3,0.1-0.5,0s-0.3-0.4-0.6-0.5
			c-0.1,0-0.1-0.1-0.2,0c0,0.5,0.8,0.5,0.6,1.1c-0.1,0-0.2,0-0.2,0c-0.3,0.1-0.3-0.2-0.5-0.3c-0.2-0.1-0.3-0.3-0.5-0.1
			c-0.2,0.2,0,0.3,0.1,0.5c0.2,0.2,0.3,0.4,0.5,0.6C523.6,79.6,523.4,79.7,523.3,79.8z"/>
		<path class="st68" d="M519.8,81.3c0.1-0.1,0.2-0.2,0.1-0.2c-0.5-0.1-0.3-0.5-0.3-0.8s0.4-0.3,0.6-0.3c0.1,0,0.3-0.1,0.4,0
			c0,0.4-0.3,0.5-0.6,0.5c0.4,0.6,0.9,1,1.8,1.1l0,0c-0.5,0.4-1,0.3-1.4-0.2c-0.1-0.1-0.2-0.2-0.3-0.1s-0.3,0.2-0.2,0.5
			c0.1,0.2,0.3,0.4,0.4,0.6c0.3,0.4,0.1,0.7-0.2,1c-0.1,0.1-0.1-0.1-0.1-0.1c0-0.4-0.1-0.8-0.4-1.1
			C519.3,81.8,519.4,81.5,519.8,81.3z"/>
		<path class="st68" d="M519.4,83.9c-0.1-0.3-0.3-0.5-0.6-0.7c-0.7-0.5-0.7-0.5-1.3,0.2c-0.2,0.2-0.5,0.2-0.7,0.5
			c0-0.4,0.6-1.1,1.1-1.3c0.4,0,0.9-0.3,1.1,0.3c0,0.1,0.2,0.2,0.3,0.1c0.1-0.2,0.2-0.3,0-0.5c-0.3-0.3-0.4-0.7-0.4-1.1
			c0-0.1,0.1-0.2,0.2-0.2c0.1,0,0.1,0.2,0.1,0.3c0.1,0.3,0.3,0.7,0.5,1c0.3,0.3,0.1,0.7-0.1,0.9C519.6,83.6,519.6,83.8,519.4,83.9z"
			/>
		<path class="st68" d="M521.8,81.7c-1,0.2-1.5-0.6-2-1.3c-0.2-0.1,0.1-0.3,0.2-0.2c0.4,0.3,0.5-0.1,0.7-0.3c0.2,0,0.2-0.1,0.2-0.2
			c0.5,0.1,0.2,0.4,0,0.5c-0.4,0.4-0.4,0.6,0.1,1c0.2,0.1,0.3,0.2,0.5,0c0.2-0.1,0.2-0.3,0.1-0.5c-0.1-0.1-0.2-0.2,0-0.3
			c0.1-0.1,0.2,0.1,0.3,0.1C522.2,81,521.9,81.3,521.8,81.7z"/>
		<path class="st69" d="M561.4,96.6c0,0.2-0.1,0.4-0.1,0.6c-0.5,0.8-1.1,1.7-2.2,2c-0.2,0.1-0.4,0-0.2-0.2
			C559.7,98.2,560.4,97.3,561.4,96.6L561.4,96.6z"/>
		<path class="st70" d="M524.6,76.2c0.1-0.3,0.3-0.6,0.7-0.6c0.3,0,0.4,0.2,0.4,0.5c0.2,0.2,0.1,0.4-0.1,0.6
			c-0.2,0.2-0.3-0.1-0.4-0.2c0.1,0.6,0.5,0.3,0.7,0.3c0.1,0,0.3-0.2,0.4,0c0.1,0.2-0.1,0.3-0.2,0.4c-0.1,0.1-0.2,0.2-0.2,0.2
			C525.1,77.6,524.5,77.1,524.6,76.2z"/>
		<path class="st68" d="M524.4,79c0-0.3-0.3-0.4-0.5-0.6s-0.4-0.4-0.2-0.6c0.2-0.3,0.4,0,0.6,0.1c0.3,0.1,0.4,0.7,0.7,0.5
			c0.3-0.3-0.3-0.4-0.5-0.7c0-0.1-0.1-0.1-0.1-0.1h0.1c0-0.1,0.1-0.1,0.2,0c0,0,0,0,0.1,0c0.1,0.2,0.3,0.3,0.4,0.5
			c0.1,0.1,0.3,0.2,0.2,0.4c-0.1,0.2-0.3,0.4-0.5,0.3C524.5,78.4,524.5,78.8,524.4,79z"/>
		<path class="st71" d="M554.1,92.5c0,0.4,0,0.8,0,1.3c0,0.2,0.1,0.5-0.2,0.6c-0.2,0.1-0.2-0.3-0.4-0.4c-0.3,0.2,0.1,0.3,0,0.5
			c-0.3,0-0.2-0.3-0.4-0.3c0.1-0.7,0.4-1.3,0.9-1.8C554.1,92.4,554.2,92.4,554.1,92.5z"/>
		<path class="st72" d="M561.2,93.3c-0.2,0.1-0.4,0.4-0.5-0.1c-0.2-0.7-0.9-1.3-1.6-1.6c-0.3-0.2,0-0.2,0-0.3
			C560,91.7,560.7,92.3,561.2,93.3z"/>
		<path class="st68" d="M520.5,79.2L520.5,79.2c-0.8-0.2-1-0.6-0.8-1.3c0.2-0.5,0.5-0.8,1.1-0.8c0.4,0,0.6,0,0.7,0.4
			c-0.1,0.1-0.1,0.1-0.2,0c-0.7-0.2-0.7-0.2-1.3,0.4c-0.2,0.5,0.2,0.7,0.5,1C520.5,79.1,520.5,79.1,520.5,79.2z"/>
		<path class="st73" d="M561.4,96.6c-0.8,0.8-1.7,1.6-2.4,2.4c-0.2,0.2,0,0.2,0.1,0.2c-0.2,0.2-0.5,0.2-0.7,0.2
			c0.6-0.8,1.6-1.6,2.3-2.3c0.3-0.3,0.6-0.6,0.9-0.8C561.5,96.4,561.6,96.5,561.4,96.6z"/>
		<path class="st68" d="M523.7,79.6c-0.4-0.1-0.6-0.4-0.8-0.7c-0.2-0.1-0.1-0.3,0-0.5s0.3-0.1,0.5,0c0.3,0.2,0.5,0.4,0.7,0.6
			c0,0.1,0.3,0.1,0.2,0.2c-0.1,0.2-0.3,0.1-0.4,0c-0.2-0.2-0.3-0.5-0.7-0.6C523.3,79,523.7,79.2,523.7,79.6z"/>
		<path class="st68" d="M519.7,83.4c0.2-0.5,0.1-0.9-0.3-1.4c-0.2-0.2-0.1-0.4-0.1-0.6c0.2,0,0.2-0.4,0.5-0.1
			c-0.2,0.3-0.3,0.6,0.1,0.9c0.4,0.3,0.3,0.6,0.1,1C519.9,83.2,519.8,83.4,519.7,83.4z"/>
		<path class="st74" d="M525.9,76.7c-0.2,0.3-0.5,0.3-0.7,0.1c-0.2-0.2-0.3-0.5,0-0.8c0.3,0.1,0,0.5,0.3,0.6
			c0.2-0.1,0.2-0.3,0.2-0.5c0.1-0.1,0.1-0.2,0.2-0.3C525.9,76.2,525.9,76.4,525.9,76.7z"/>
		<path class="st75" d="M553.1,96.5c0.1,0,0.3,0.1,0.4,0.1c0.4,0,0.5,0.1,0.3,0.4c-0.1,0.2-0.3,0.3,0.1,0.4c0.2,0.1,0,0.3-0.1,0.4
			C553.5,97.4,553.2,97,553.1,96.5z"/>
		<path class="st68" d="M522.6,80.4c-0.3-0.3-0.6-0.6-0.9-0.9c-0.1-0.1-0.2-0.2-0.1-0.4c0.1-0.1,0.2,0,0.3,0.1
			c0.3,0.3,0.6,0.6,0.9,0.9C522.8,80.3,522.8,80.4,522.6,80.4z"/>
		<path class="st76" d="M524.6,76.2c0.1,0.7,0.5,1.1,1.4,1.1c0.2,0.1,0.1,0.1,0,0.2c-0.4,0.2-0.8-0.1-1.3-0.2
			c-0.1-0.1-0.1-0.2-0.2-0.4C524.5,76.7,524.4,76.5,524.6,76.2z"/>
		<path class="st77" d="M554.1,92.5L554.1,92.5c0.1-0.4,0.3-0.6,0.6-0.7c0.1,0.2,0.4,0.2,0.3,0.4C554.8,92.5,554.5,92.5,554.1,92.5z
			"/>
		<path class="st68" d="M517.5,84.6c-0.2,0-0.4-0.1-0.4-0.3c0-0.1,0-0.3,0.2-0.3c0.2-0.1,0.3,0,0.5,0.2s0.4,0.3,0.6,0.5
			c-0.4,0.2-0.6-0.3-0.9-0.4C517.3,84.4,517.5,84.5,517.5,84.6z"/>
		<path class="st78" d="M519.9,77.9c0.5-0.7,0.7-0.7,1.6-0.4v0.1c0,0.1,0.1,0.2,0.1,0.3c-0.4-0.3-0.7-0.6-1.3-0.3
			C520.2,77.7,520.2,78,519.9,77.9C520,78,519.9,78,519.9,77.9z"/>
		<path class="st79" d="M554.3,98.1c0.2-0.2,0.4-0.1,0.4,0c0,0.3,0.6,0.3,0.2,0.7c-0.3-0.2-0.6-0.4-0.8-0.7
			C554.1,98.1,554.2,98.1,554.3,98.1z"/>
		<path class="st79" d="M554.9,98.8c0.2,0,0.5,0.1,0.7,0c0.1-0.1,0.3,0,0.4,0.2c0.1,0.1-0.1,0.2-0.2,0.3
			C555.4,99.2,555.1,99.1,554.9,98.8z"/>
		<path class="st80" d="M553,94.3c0,0.4-0.1,0.8-0.1,1.4C552.6,95.2,552.8,94.8,553,94.3L553,94.3C553,94.2,553,94.2,553,94.3z"/>
		<path class="st81" d="M529.8,107.3c0,0.5-0.1,1-0.2,1.5C529.5,108.4,529.6,107.8,529.8,107.3z"/>
		<path class="st67" d="M523.2,70.3c0.2-0.3,0.4-0.4,0.7-0.5C523.9,70.1,523.5,70.2,523.2,70.3z"/>
		<path class="st67" d="M522.5,70.7c0.2-0.2,0.4-0.4,0.7-0.5C523,70.5,522.9,70.8,522.5,70.7z"/>
		<path class="st67" d="M524.9,93.9c0.1,0.3,0,0.5,0,0.7C524.6,94.4,524.8,94.2,524.9,93.9z"/>
		<path class="st67" d="M545.2,92L545.2,92c0.2-0.1,0.2,0,0.2,0.1S545.3,92.1,545.2,92C545.2,92.2,545.2,92.1,545.2,92z"/>
		<path class="st67" d="M545.4,92.3c0.1,0,0.3,0,0.3,0.1C545.7,92.6,545.6,92.5,545.4,92.3C545.5,92.4,545.5,92.3,545.4,92.3z"/>
		<path class="st68" d="M551.2,125.4c-0.1-0.2-0.2-0.4-0.2-0.6c-0.2-0.6-0.1-0.8,0.6-1c0.1,0,0.2,0,0.4,0c0.2,0.2,0.1,0.4,0.1,0.6
			c0,0.5-0.2,0.5-0.6,0.2c0.2,0.4,0.4,0.4,0.7,0.2c0.1-0.1,0.3-0.2,0.4-0.3c0.1-0.1,0.3-0.1,0.4,0s0.1,0.2,0,0.4h-0.1
			C552.3,125.5,551.8,125.6,551.2,125.4z"/>
		<path class="st68" d="M552.8,124.9c-0.1-0.7-0.4-0.2-0.6-0.1c-0.5,0.4-0.7,0.4-1-0.1c-0.1-0.2-0.1-0.4,0.1-0.5l0.1,0.1
			c0.1,0.1,0,0.4,0.3,0.4c0.2,0,0.1-0.3,0.1-0.4c0-0.2,0-0.3,0-0.5c0.3,0.1,0.3,0.1,0.2,0.7c0.3,0,0.7-0.5,0.9,0
			C553.1,124.7,553.1,124.8,552.8,124.9z"/>
		<path class="st82" d="M574.4,142C574.4,142,574.3,142,574.4,142C574.3,141.9,574.4,141.9,574.4,142c0-0.2,0-0.4-0.1-0.5
			c-0.3,0-10.8,4.9-10.8,5h-0.1c0,0.4,0.5,1.4,0.5,1.4h0c0.2,0.7,0.5,1.4,0.9,2c0.4,0.7,1.3,1.6,1.7,1.8c0.2,0.2,0.3,0.2,0.5,0.2
			c0.4,0.5,0.9,0.8,1.2,1.2c0.2,0.3,0.4,0.2,0.5-0.1c0.2-0.3,0.4-0.6,0.6-1c0.1,0,0.2,0,0.2,0c0.5,0.3,0.8,0.7,1.2,0.9
			c0.2,0.3,0.4,0.2,0.5-0.1c0.4-0.8,0.7-1.7,1.1-2.5c0,0-0.1-0.1-0.1-0.1c0.3-0.3,0.6-0.8,0.9-1.3c0.5-0.9,0.9-2,1-3
			c0.3-0.9,0.3-2.1,0.3-3.1C574.5,142.5,574.5,142.3,574.4,142z"/>
		<path class="st67" d="M526.5,147.2c0.2,0,0.4-0.1,0.6,0.1C526.9,147.4,526.6,147.5,526.5,147.2z"/>
		<path class="st82" d="M523.6,146.6c-0.1-0.2-0.3-0.2-0.5-0.3c-2.7-0.8-5.3-2-7.8-3.3c0,0,0,0,0-0.1c-0.6-0.3-1-0.8-1.8-1
			c-0.3-0.2-0.6-0.3-0.9-0.5c0,0.2,0,0.3,0,0.5c0,0,0.1,0.1,0.3,0.3c-0.1-0.1-0.2-0.1-0.3-0.2c-0.3,1.6-0.1,3,0.1,4.6
			c0.3,1.4,0.9,2.6,1.9,3.8c0.2,0.2,0.4,0.4,0.6,0.6c0.2,0.6,0.5,1.2,0.7,1.7c0.1,0.3,0.3,0.3,0.5,0.1c0.3-0.3,0.7-0.5,1-0.8
			c0.2,0,0.4,0.1,0.6,0.1c0.2,0.5,0.5,0.9,0.7,1.3c0.4-0.3,0.7-0.6,1-0.9c0-0.1,0.1-0.1,0.2-0.2c0.1-0.1,0.2-0.2,0.3-0.3
			c0,0,0,0,0.1,0c0.1,0,0.2-0.1,0.3-0.2c0.5-0.6,2.5-3.3,2.6-3.9c0,0,0,0,0,0h0C523.4,147.6,523.4,147.1,523.6,146.6z M516.5,144.6
			c-0.3-0.2-0.6-0.3-0.9-0.5c-0.1-0.1-0.2-0.2-0.4-0.3C515.6,144.1,516.1,144.3,516.5,144.6z"/>
		<path class="st4" d="M492.4,101.5c0,1-0.2,1.8-1,2.2c-0.9,0.5-1.9,0.4-2.7-0.3c-0.7-0.6-0.8-1.5-0.7-2.2c0.2-1.6,1.5-2.5,3.1-2.4
			c0.2,0,0.4,0.1,0.5,0.3C492.1,99.8,492.5,100.6,492.4,101.5z"/>
		<path class="st68" d="M511.2,79.9c0,0.3-0.1,0.4-0.4,0.4C511,80.1,511.1,80,511.2,79.9z"/>
		<path class="st68" d="M511.4,79.6c0,0.1,0.1,0.2,0.1,0.2c0,0.1-0.1,0.1-0.2,0.1s0-0.1,0-0.1C511.2,79.7,511.3,79.7,511.4,79.6z"/>
		<path class="st68" d="M512.5,78.6c0-0.1-0.1-0.1,0-0.2l0.1-0.1v0.1C512.6,78.5,512.5,78.5,512.5,78.6z"/>
		<path class="st83" d="M555.6,94.7c0-0.5,0.1-1,0.7-1.1c0.5-0.1,0.8,0.2,1,0.7c0.1,0.4,0.2,0.9-0.4,1c-0.3,0.1-0.6,0.1-0.9,0
			C555.7,95.2,555.6,95,555.6,94.7z"/>
		<path class="st68" d="M511.1,80L511.1,80L511.1,80z"/>
		<path class="st68" d="M520.5,79.2L520.5,79.2V79v-0.1c0.1-0.2,0.4-0.1,0.5-0.2c0.2-0.3,0-0.4-0.2-0.5c0.3,0.1,0.4,0.3,0.1,0.6
			c-0.3,0.1-0.5,0-0.6-0.3c-0.1-0.2-0.1-0.4,0.1-0.5c0.4-0.4,0.7-0.1,0.9,0.2c0.2,0.4,0,0.7-0.4,0.8
			C520.8,79.1,520.6,79.1,520.5,79.2z"/>
		<path class="st68" d="M521,78.7c-0.1,0.2-0.3,0.2-0.5,0.2c-0.4-0.2-0.6-0.4-0.5-0.8c0.1-0.1,0.2-0.3,0.4-0.4c0,0.1,0,0.2,0,0.2
			C520.2,78.6,520.5,78.7,521,78.7L521,78.7z"/>
		<path class="st68" d="M524.5,77c0.2,0.1,0.2,0.2,0.2,0.4c-0.1,0-0.2,0-0.2,0C524.5,77.2,524.5,77.1,524.5,77z"/>
		<path class="st68" d="M520,78c-0.1,0.4,0.3,0.6,0.5,0.8V79C520,78.8,519.8,78.5,520,78L520,78z"/>
		<path d="M554.2,98.1c0.2,0,0.3,0.1,0.3,0.3C554.4,98.4,554.3,98.2,554.2,98.1z"/>
		<path class="st68" d="M571.1,143.3c-0.1,0.2-0.3,0.1-0.5,0.2c0-0.1-0.3-0.2,0-0.2C570.8,143.3,570.9,143.3,571.1,143.3z"/>
		<path class="st84" d="M556.8,118.3c0.2,0,0.3,0.2,0.2,0.3c-0.4,0.4,0,0.6,0.2,0.8c0.3,0.3,0.4,0.6,0,0.9c-0.1,0-0.1,0.1-0.2,0
			c0,0-0.1-0.2,0-0.2c0.3-0.4,0-0.6-0.2-0.8C556.6,119,556.4,118.7,556.8,118.3C556.7,118.4,556.7,118.4,556.8,118.3z"/>
		<path class="st66" d="M588.7,108.4c0-0.3-0.9-5.1-1-5.7c-0.5-2.1-1.1-4.2-2-6.3c-0.4-1.3-2.2-5.1-2.7-5.8l0,0
			c-0.1-0.4-2.3-4.2-3.1-5.4c-1.6-2.5-3.4-4.9-5.4-7.1c-0.1-0.1-0.3-0.2-0.3-0.4c0.1-0.2,0.3-0.2,0.5-0.2c1.8,2,5.1,2.8,6.8,2.4
			c1.8-0.4,3.4-3.6,3.1-4.9c-0.1-0.4-2.3-7.7-0.2-11.3c1.2-2.1,4.5-7.2-0.1-9.3c-7.9-3.7-16.5-0.9-19.3-0.2
			c-3.8,0.9-6.6,4.4-6.7,6.9c-0.1,2.6,1.6,4.9,1.6,5.2c0,0.1,0,0.2-0.1,0.3c-0.1,0.1-0.2,0-0.3-0.1c-0.2-0.1-4.3-1.8-4.3-1.8
			c-1.7-0.7-3.4-1-5.2-1.5c-1.5-0.3-3-0.4-4.5-0.5c-1.8-0.2-6,0-8,0.5c-2.1,0.4-6.6,1.8-6.8,1.9c-0.9,0.4-2,0.8-2.9,1.3
			c-0.1,0.1-0.2,0.2-0.4,0.1c-0.1-0.1-0.1-0.3,0-0.4c2.7-2.2,1.8-6.8,0.9-8.4c-2.2-3.7-10.5-6.7-13-6.2c-1.7,0.3-1.5,12.7-2.9,13.8
			c-0.9,0.6-5,19.9-6.5,22.4c-0.9,1.7-3.4,6.9-3.8,7.5c-0.4,1.1-2.1,5.8-2.1,6c0,0.5-0.2,0.5-0.6,0.2s-0.9-0.6-1.4-0.9
			c-1.6-1-3.2-1.9-4.9-2.4c-0.4-0.1-0.7-0.4-0.9-0.7c-0.7-0.9-2.2-2.5-2.9-2.9c-0.4-0.3-0.9-0.5-1.5-0.7c-1.4-0.5-2.7-0.6-4.2-0.5
			c-2.5,0.2-4.5,1.3-6.1,3.1c-0.3,0.3-0.4,0.8,0,1.1c0.4,0.3,0.7,0.2,1-0.1c0.2-0.2,0.4-0.4,0.6-0.6c1.4-1.4,3-2,4.9-2.1
			c1.6-0.1,3.1,0.2,4.4,1.1c0.7,0.5,1.4,1,1.8,1.9c-2.7,0.4-3.9,2.2-3.6,4.5c0.3,2.8,2.3,3.8,4.3,3.6c0.9-0.1,1.8-0.5,2.4-1.1
			c1.1-1.3,1.1-2.7,0.7-4.4c1.8,0.7,3.2,1.7,4.7,2.6c0,0.1,0.8,0.4,0.6,1.4c0,0.1-1.8,20.6,10.6,35.4c1,0.6,1.9,1.5,2.8,2.1
			c0.3,0.3,4.5,2.7,5.2,3c1.9,0.8,3.9,1.7,5.8,2.2c0.2-0.1,4.8,1.1,5,1.3c1.7,0.2,3.3,0.6,5,0.8c1.9,0.3,5.9,0.6,6.1,0.6
			c3.6,0.2,14.8-0.9,16.4-1c2.5-0.2,7.6-1.8,7.8-1.8c1.5-0.4,7-3,7.1-3.1c0,0,3.3-1.9,3.3-2c0.1-0.1,0.2-0.2,0.3-0.3
			c2.2-1.5,4.3-3.1,6-5.1c2.8-3,4.9-6.5,6.4-10.3c0.3-0.8,1-3.4,1.3-4.6c0.4-1.4,0.7-5.7,0.7-6.7
			C589.1,112.4,588.9,110.3,588.7,108.4z M490.2,103.7c-2.8,0-2.8-4.4,0-4.4C493,99.4,493,103.7,490.2,103.7z"/>
		<path class="st85" d="M561.9,114.9c0.1-1.2-0.4-5.4-0.6-6.3c-0.5-1.5-1.3-3-2.3-4.2l0,0v-0.1c-0.1-0.1-0.3-0.3-0.5-0.5l0,0l0,0
			c-1-1.3-2.3-2.3-3.7-3.2c-3-1.9-6.2-2.7-9.8-3c-1.2,0-2.2,0.3-3.3,0.3c-1.3,0.1-2.6,0.4-3.9,0.9c-2.8,1-5.3,2.6-7.2,4.9
			c-1.5,1.8-2.6,3.7-3.1,6c-0.1,0.6-0.5,4.5-0.5,4.6c0,0.8,0.1,1.5,0.4,2.1c0.3,0.6,0.4,1.3,0.8,1.9c0.1,0.3,0.3,0.4,0.4,0.6
			c0,0,0,0.1,0.1,0.1c0.1,0.1,0.3,0.4,0.3,0.6c1.7,2.8,4.1,4.9,7.1,6.4c0.3,0.1,1,0.4,1.2,0.5c0.4,0.3,0.8,0.4,1.2,0.5
			c2.8,0.9,5.8,1.2,8.9,0.8c4.6-0.6,8.6-2.6,11.6-6.2C560.2,119.9,561.8,115.2,561.9,114.9z"/>
		<path d="M534.8,112.5c0-0.8,0.1-2.1,0.6-3.1c0.3-0.5,0.6-1,1.3-1c0.6,0,1,0.5,1.3,1c0.9,1.7,0.9,3.3,0.6,5.1
			c-0.1,0.6-0.3,1.4-0.6,2.1c-0.6,1-1.7,1-2.3,0C535.1,115.8,534.8,114.5,534.8,112.5z"/>
		<path d="M553.2,109.1c-0.6-0.9-1.5-0.9-2.2,0c-0.6,1-0.9,2.1-0.9,3.3c0,0.1,0,0.3,0,0.3c-0.3,1.5,0.4,3,1,4.2
			c0.3,0.5,0.6,0.5,1,0.4c1.2-0.5,1.5-1.5,1.7-2.7C554.2,112.7,554.3,110.8,553.2,109.1z"/>
		<ellipse class="st66" cx="528.4" cy="147.1" rx="0" ry="0"/>
		<path class="st66" d="M581.8,89.9L581.8,89.9L581.8,89.9L581.8,89.9z"/>
		<circle cx="523.8" cy="90.7" r="9.6"/>
		<path class="st82" d="M525.9,89.7c0,1.2-0.7,1.7-1.5,2c-0.6,0.3-1.7,0.1-2.2,0c-0.7-0.3-1.5-1.2-1.5-2c0-1.5,1.2-2.6,2.6-2.6
			C524.7,87.1,525.9,88.3,525.9,89.7z"/>
		<path class="st86" d="M561.9,113.7c-0.6,3.7-3,7.8-5.8,10.1c-1.9,1.5-4.1,2.6-6.4,3.2c-2.4,0.6-4.9,0.8-7.3,0.5
			c-1.8-0.1-3.5-0.6-5.1-1.3c0,0-0.9-0.4-1-0.5l0,0c-5.2-2.8-8.4-8.1-8.4-8.1s1.1,3.7,2.5,5.8c1.2,1.8,2.7,3.3,4.5,4.6l0.4,0.1l0,0
			l0.1,0.1c0.6,0.4,1.3,0.8,1.9,1c3.1,1.4,6.3,2.1,9.8,1.7c2.4-0.3,4.6-1,6.8-2.2c1.2-0.6,2.2-1.5,3.2-2.3c0.1-0.3,3.5-4,4.4-6.2
			C562,118.9,562,114,561.9,113.7z"/>
		<circle cx="562.8" cy="90.7" r="9.2"/>
		<circle class="st82" cx="563.1" cy="90.4" r="2.6"/>
		<path class="st82" d="M569.8,70.6c-2.2-1.7-4.4-3.3-6.8-4.7c-1.6-0.9-2-2.7-2-4.3s0.9-2.8,2.4-3.6c1.9-1.1,4.1-1.4,6.1-1.9
			c2.5-0.6,5.2-0.6,7.7-0.6c2,0,3.9,0.6,5.7,1.7c1.3,0.8,1.4,1.6,0.5,2.7c-0.8,1.1-1.4,2.2-2,3.3c-0.2,0.3-0.6,2.2-0.8,3
			c-0.2,2.5,0.2,5,0.9,7.4c0.3,0.8,0.2,1.6,0,2.4c-0.2,0.9-1.4,1.7-2.4,1.6c-1.3-0.2-2.4-0.6-3.3-1.6
			C574.4,74.4,570.1,70.8,569.8,70.6z"/>
		<path class="st82" d="M517.6,70c-2.3,1.9-4.5,3.9-6.9,5.9c-0.8,0.8-1.9,0.8-3,0.8c-2.2-1.1-2.3-1.9-1.7-4.2
			c0.5-1.6,0.9-3.1,1.1-4.8c0.2-3-0.8-5.6-2.6-7.9c-0.2-0.3-0.3-0.5-0.5-0.8c-0.5-0.6-0.5-1.2,0.2-1.9c1.2-1.2,3-1.7,4.7-2
			c3.4-0.5,6.9-0.2,10.3,0.6c1.2,0.3,2.6,0.6,3.9,1.1c2.2,0.9,3.6,2.5,3.4,5.1c-0.3,0.9-0.6,1.9-1.2,2.6
			C524.7,65.3,518.5,69.2,517.6,70z"/>
	</g>
</g>
<g id="Layer_2">
</g>
<g>
	<path class="st82" d="M530.6,177.4c0,2-0.3,3.8-1,5.4c-0.7,1.6-1.7,3.2-3,4.9l-9.9,12.9h13.6v7.9h-29.6l18.1-24.4
		c0.9-1.3,1.6-2.4,2-3.3c0.4-0.9,0.6-2.1,0.6-3.5c0-1.3-0.4-2.5-1.3-3.4c-0.8-0.9-2-1.4-3.3-1.4c-4,0-6,2-6,6v0.9h-8.8v-0.9
		c0-4.4,1.4-7.7,4.3-10.1c2.9-2.4,6.4-3.6,10.5-3.6c4,0,7.3,1.1,10,3.2C529.3,170.4,530.6,173.4,530.6,177.4z"/>
	<path class="st82" d="M569.3,187c0,6.6-1.5,12-4.6,16.1c-3.1,4.1-7.3,6.2-12.6,6.2c-5.3,0-9.5-2.1-12.6-6.2
		c-3.1-4.1-4.6-9.5-4.6-16.1c0-6.4,1.5-11.7,4.6-15.8c3.1-4.1,7.3-6.2,12.6-6.2c5.3,0,9.5,2.1,12.6,6.2
		C567.8,175.3,569.3,180.6,569.3,187z M559.5,187c0-1.7-0.1-3.4-0.4-4.9c-0.2-1.5-0.6-3-1.1-4.5c-0.5-1.4-1.3-2.6-2.3-3.4
		c-1-0.8-2.3-1.3-3.7-1.3c-4.9,0-7.4,4.7-7.4,14.1c0,1.7,0.1,3.4,0.3,4.9c0.2,1.5,0.6,3.1,1.1,4.6c0.5,1.5,1.3,2.7,2.3,3.6
		c1,0.9,2.2,1.3,3.6,1.3C557.1,201.4,559.5,196.6,559.5,187z"/>
	<path class="st82" d="M590.7,208.6h-9.4v-30.6c-1.8,1.8-4.8,2.9-8.9,3.2v-6.9c2.7-0.4,5-1.1,6.8-2.4c1.8-1.2,3.4-3.3,4.7-6.3h6.9
		V208.6z"/>
	<path class="st82" d="M628.6,180.2c0,3-0.6,6.1-1.9,9.3c-1.2,3.2-2.8,6.2-4.7,8.8c-1.9,2.6-3.8,5-5.6,7c-1.9,2-3.6,3.7-5.3,4.9
		l-5.6-6.6c2.3-1.7,4.5-3.7,6.6-5.9c2.1-2.3,3.5-4.3,4.2-6c-1.2,0.9-2.4,1.6-3.5,1.9c-1.1,0.3-2.5,0.5-4.1,0.5
		c-3.7,0-6.8-1.4-9.3-4.1c-2.5-2.7-3.8-6-3.8-9.9c0-4.4,1.6-8.1,4.7-10.9c3.2-2.8,7.2-4.3,12.2-4.3c4.7,0,8.6,1.4,11.6,4.3
		C627.1,172.2,628.6,175.8,628.6,180.2z M619.2,180c0-2.2-0.6-3.9-1.9-5.3c-1.3-1.4-3-2.1-5.1-2.1c-2.1,0-3.8,0.7-5.1,2.1
		c-1.3,1.4-2,3.1-2,5.3c0,2,0.7,3.6,2.1,4.9c1.4,1.3,3.1,1.9,5.1,1.9c2.1,0,3.8-0.6,5.1-1.9C618.6,183.6,619.2,182,619.2,180z"/>
</g>
</svg>
