<?xml version="1.0" encoding="utf-8"?>
<!-- Generator: Adobe Illustrator 21.0.0, SVG Export Plug-In . SVG Version: 6.00 Build 0)  -->
<svg version="1.1" id="Layer_1" xmlns="http://www.w3.org/2000/svg" xmlns:xlink="http://www.w3.org/1999/xlink" x="0px" y="0px"
	 viewBox="0 0 188 97.3" style="enable-background:new 0 0 188 97.3;" xml:space="preserve">
<style type="text/css">
	.st0{fill:#FF0606;}
</style>
<g>
	<path class="st0" d="M141.3,41.8c1.3-0.5,2.6-1,4-1.5c-0.1-0.3-0.3-0.5-0.4-0.7c-0.7-1.2-1.4-2.4-2.1-3.6
		c-2.6-4.6-5.3-9.1-7.9-13.7c-0.2-0.3-0.3-0.3-0.6-0.2c-0.8,0.3-1.5,0.6-2.3,0.9c-1.7,0.6-3.3,1.3-5,2c0,0.2,0.1,0.4,0.1,0.5
		c0.6,2.8,1.4,5.5,2,8.3c0.5,2.3,1.1,4.6,1.6,6.9c0.1,0.5,0.3,0.5,0.8,0.2c-0.8,0.7-0.4,1.4-0.3,2.1c0.5,1.9,0.5,1.9,0.7,1.9
		c0-0.4-0.1-0.8-0.1-1.2c0.1,0,0.2,0,0.3-0.1c0.2,0.5,0.5,1,0.7,1.6c1.1-0.4,2.3-0.9,3.4-1.3c0.2-0.1,0.3-0.3,0.4-0.3
		c0.6,0,0.7-0.1,0.5-0.7c-0.2-0.9-0.5-1.7-0.7-2.6c-0.1-0.2-0.2-0.5,0.2-0.7c0.5-0.2,1-0.4,1.6-0.6c0.6,1.1,1.1,2.3,1.7,3.4
		c0.3-0.1,0.5-0.3,0.8-0.4c0-0.2-0.1-0.4-0.1-0.5C140.8,41.6,141.1,41.8,141.3,41.8z M135.4,23.8c0.7,0.6,0.7,1,0,1.3
		C135.4,24.7,135.4,24.3,135.4,23.8z M131,27.2c0.1,0,0.2-0.1,0.2-0.1c0.2,0.7,0.5,1.3,0.7,2c0.4,1.4,0.8,2.9,1.2,4.3
		c0,0.2,0,0.4,0,0.6c-0.1,0-0.1,0-0.2,0C132.3,31.7,131.6,29.4,131,27.2z M132.4,39.6c-0.1,0-0.2,0-0.2,0c0-0.5,0.1-1,0.1-1.6
		c0.1,0,0.1,0,0.2,0C132.4,38.6,132.4,39.1,132.4,39.6z M132.5,41.4c0.8,0.4,0.4,1.2,0.8,1.9C132.5,42.8,132.3,42.2,132.5,41.4z
		 M134.8,36.3c-0.7-2.7-1.3-5.4-2-8c0.1,0,0.1,0,0.2-0.1c1.2,2.4,2.5,4.8,3.7,7.4C136.1,35.8,135.5,36,134.8,36.3z M135.8,31.1
		c0.9,0.9,1.2,2,1.6,3.1C136.5,33.3,135.8,32,135.8,31.1z M139.3,38.8c-0.2-0.5-0.4-1-0.7-1.5c0.1,0,0.1-0.1,0.2-0.1
		c0.2,0.5,0.4,1,0.7,1.5C139.5,38.7,139.4,38.8,139.3,38.8z M140.2,36.5c-0.1-0.2-0.4-0.4-0.4-0.6c0-0.2,0.3-0.4,0.5-0.5
		c0.2,0.1,0.3,0.3,0.6,0.5C140.5,36.2,140.4,36.3,140.2,36.5z"/>
	<path class="st0" d="M68.7,70c1.3-0.5,2.6-1,4-1.5c-0.1-0.3-0.3-0.5-0.4-0.7c-0.7-1.2-1.4-2.4-2.1-3.6c-2.6-4.6-5.3-9.1-7.9-13.7
		c-0.2-0.3-0.3-0.3-0.6-0.2c-0.8,0.3-1.5,0.6-2.3,0.9c-1.7,0.6-3.3,1.3-5,2c0,0.2,0.1,0.4,0.1,0.5c0.6,2.8,1.4,5.5,2,8.3
		c0.5,2.3,1.1,4.6,1.6,6.9c0.1,0.5,0.3,0.5,0.8,0.2c-0.8,0.7-0.4,1.4-0.3,2.1c0.5,1.9,0.5,1.9,0.7,1.9c0-0.4-0.1-0.8-0.1-1.2
		c0.1,0,0.2,0,0.3-0.1c0.2,0.5,0.5,1,0.7,1.6c1.1-0.4,2.3-0.9,3.4-1.3c0.2-0.1,0.3-0.3,0.4-0.3c0.6,0,0.7-0.1,0.5-0.7
		c-0.2-0.9-0.5-1.7-0.7-2.6c-0.1-0.2-0.2-0.5,0.2-0.7c0.5-0.2,1-0.4,1.6-0.6c0.6,1.1,1.1,2.3,1.7,3.4c0.3-0.1,0.5-0.3,0.8-0.4
		c0-0.2-0.1-0.4-0.1-0.5C68.2,69.9,68.5,70.1,68.7,70z M62.8,52.1c0.7,0.6,0.7,1,0,1.3C62.8,52.9,62.8,52.5,62.8,52.1z M58.4,55.4
		c0.1,0,0.2-0.1,0.2-0.1c0.2,0.7,0.5,1.3,0.7,2c0.4,1.4,0.8,2.9,1.2,4.3c0,0.2,0,0.4,0,0.6c-0.1,0-0.1,0-0.2,0
		C59.7,59.9,59,57.7,58.4,55.4z M59.8,67.8c-0.1,0-0.2,0-0.2,0c0-0.5,0.1-1,0.1-1.6c0.1,0,0.1,0,0.2,0
		C59.8,66.8,59.8,67.3,59.8,67.8z M59.9,69.6c0.8,0.4,0.4,1.2,0.8,1.9C59.9,71,59.7,70.4,59.9,69.6z M62.2,64.5
		c-0.7-2.7-1.3-5.4-2-8c0.1,0,0.1,0,0.2-0.1c1.2,2.4,2.5,4.8,3.7,7.4C63.5,64,62.9,64.3,62.2,64.5z M63.2,59.4
		c0.9,0.9,1.2,2,1.6,3.1C63.9,61.5,63.2,60.2,63.2,59.4z M66.7,67.1c-0.2-0.5-0.4-1-0.7-1.5c0.1,0,0.1-0.1,0.2-0.1
		c0.2,0.5,0.4,1,0.7,1.5C66.9,67,66.8,67,66.7,67.1z M67.6,64.8c-0.1-0.2-0.4-0.4-0.4-0.6s0.3-0.4,0.5-0.5c0.2,0.1,0.3,0.3,0.6,0.5
		C67.9,64.4,67.8,64.6,67.6,64.8z"/>
	<path class="st0" d="M15,81.1c0,0.1,0.1,0.2,0.1,0.3c1.8,2.2,3.6,4.5,5.4,6.7c0.1,0.1,0.3,0.2,0.4,0.2c1.5-0.5,2.9-1.1,4.4-1.7
		c-0.1-0.2-0.1-0.4-0.2-0.6c-1.6-4.2-3.2-8.4-4.9-12.6c-0.2-0.5-0.6-0.9-0.9-1.3c-0.2-0.2-0.3-0.5-0.6-0.8c0.4,0.1,0.5,0.1,0.8,0.1
		c-0.6-1.5-1.1-2.9-1.8-4.5c-0.4,0.3-0.7,0.6-1,0.8l0,0c-0.2,0-0.4-0.1-0.5-0.1c-0.6,0.2-1.1,0.4-1.8,0.7c0.7,0.8,1.4,1.5,2,2.2
		c0,0.1,0,0.1-0.1,0.2c-0.2-0.1-0.4-0.1-0.6-0.2c-0.3-0.5-0.7-1-1.1-1.5s-0.8-0.4-1.3-0.3c0,0.1,0,0.1,0,0.2c0.5,1.3,1,2.6,1.5,3.9
		c0.1,0.3,0.3,0.5,0.6,0.7c0.5,0.4,0.9,0.9,1.1,1.7c-0.4-0.3-0.7-0.5-1-0.8c0.2,1,2.8,4.8,3.1,4.7c0-0.1,0-0.3,0-0.5
		c1.5,0.5,1.4,2.1,2.4,2.9c-0.2,0-0.4,0-0.5-0.1c-1-0.7-1.9-1.4-2.9-2.2c-1-0.8-1.9-1.7-2.9-2.5c-0.2-0.1-0.5-0.2-0.7-0.4
		c-0.2-0.3-0.3-0.7-0.6-1c-0.3-0.4-0.8-0.7-1.1-1.1c-0.5-0.6-1-1.3-1.5-1.9c-0.2-0.2-0.4-0.5-0.6-0.6C9.9,71.3,9.8,71,10,70.6
		c-0.7-0.4-1.2-0.1-1.9,0.3c0.3,0.5,0.6,0.9,0.9,1.3c0.1,0.2,0.2,0.5,0.3,0.8c-0.2,0-0.3,0-0.4,0.1c-0.5-0.7-1-1.3-1.5-2.1
		c-0.4,0.2-1,0.4-1.6,0.6c2.5,6.5,5,13,7.6,19.5c0.1-0.3,0.2-0.4,0.2-0.6c0,0.1,0,0.1,0.1,0.2c0.3,0,0.7,0,1-0.1
		c0.8-0.3,1.6-0.7,2.5-0.9c0.6-0.2,0.6-0.5,0.4-1c-0.5-1-0.9-1.9-1.3-2.9c-0.3-0.7-0.4-1.4-0.6-2.1c-0.4-1.3-0.9-2.5-2.2-3.3
		c-1-0.7-1.9-1.6-2.8-2.5c0-0.1,0.1-0.1,0.1-0.2c1.2,1.1,2.4,2.1,3.7,3.3c0-0.3-0.1-0.5-0.1-0.8c0.1,0,0.1,0,0.2-0.1
		C14.8,80.5,14.9,80.8,15,81.1z M18,69.1c-0.5,0.1-0.7-0.2-1.3-1.3C17.1,68.2,17.6,68.6,18,69.1z M19,78c-0.6-0.7-1.2-1.4-1.9-2.1
		c0.1-0.1,0.1-0.1,0.2-0.2c0.6,0.7,1.3,1.4,1.9,2.1C19.2,77.9,19.1,77.9,19,78z M22.3,81.6c-0.9-0.2-0.9-0.2-1-1.2
		C21.7,80.8,22,81.1,22.3,81.6z M20.2,81.6c0.9,1.1,1.8,2.1,2.6,3.2l0.1-0.1c-0.4-0.7-0.8-1.3-1.2-2l0.1-0.1
		c0.9,1.2,1.8,2.4,2.8,3.8c-0.3-0.1-0.6-0.1-0.7-0.2c-0.2-0.2-0.2-0.5-0.4-0.7c-0.1-0.1-0.3-0.3-0.4-0.3c-0.5,0.3-0.6-0.1-0.8-0.4
		c-0.6-0.7-1.2-1.5-1.8-2.2c-0.2-0.3-0.4-0.6-0.6-0.9C20.1,81.7,20.1,81.6,20.2,81.6z M19.4,85.2c0.2,0.1,0.4,0.3,0.7,0.6
		c-0.2,0.1-0.4,0.3-0.4,0.2c-0.2-0.2-0.4-0.4-0.6-0.5C19.2,85.3,19.3,85.2,19.4,85.2z M15.1,89.7c-0.4-0.1-0.8-0.2-1.2-0.3
		C14.8,89,14.8,89,15.1,89.7z M11.7,78.2c-0.2-0.4-0.3-0.7-0.5-1c-0.5-0.8-0.9-1.6-1.4-2.4c-0.1-0.1,0-0.3-0.1-0.5
		c1.1,1.2,1.4,2.8,2.7,3.8C12.1,78.1,11.9,78.2,11.7,78.2z M14.1,79.7c-0.2-0.3-0.5-0.6-0.7-0.9c0.1-0.1,0.2-0.1,0.3-0.2
		c0.2,0.3,0.4,0.7,0.6,1C14.2,79.6,14.2,79.6,14.1,79.7z"/>
	<path class="st0" d="M14.9,76.5L14.9,76.5L14.9,76.5z"/>
	<path class="st0" d="M37.9,76.6c-0.3-0.7-0.7-1.4-1.1-2c0.1,0.1,0.2,0.2,0.4,0.3c-0.2-1-0.5-1.5-1.3-1.6c0.2-0.7,0.1-0.9-0.6-1.2
		c0.1,0.2,0.3,0.4,0.5,0.7c-0.4,0.1-0.7,0.1-0.9,0.2c-0.1,0-0.2-0.2-0.2-0.3c0.2-0.7-0.3-1.1-0.7-1.6c-0.3-0.3-0.5-0.7-0.8-1
		c0.3,0.2,0.6,0.3,1,0.6c-0.2-0.8-0.4-1.5-0.6-2.1c-0.6-1.6-1.2-3.1-1.8-4.7c-0.1-0.2-0.2-0.4-0.4-0.5c-1.4-0.7-2.8-0.7-4.2-0.4
		c1.1,0.7,2.1,1.5,3.1,2.2c0,0.1-0.1,0.1-0.1,0.2c-1.2-0.6-2.4-1.2-3.5-1.9c-0.2-0.1-0.4-0.2-0.6-0.2c-1.2,0.4-2.3,1-3.1,1.8
		c0.7,0.8,1.4,1.6,2,2.4c0.1-0.1,0.1-0.1,0.2-0.2c-0.1-0.2-0.1-0.4-0.2-0.6c0-0.2,0-0.4-0.1-0.6c0.1,0,0.1,0,0.2,0
		c0.2,1,1.1,1.9,0.8,3.1c-0.2-0.5-0.3-0.9-0.6-1.2c-0.9-0.8-1.9-1.6-2.9-2.3c-0.9,1-1.4,2.3-1.1,3.6c0.2,1,0.4,2,0.8,2.9
		c0.3,0.8,0.9,1.5,1.4,2.2c0.1,0.1,0.2,0.1,0.3,0.2c0.3,0.3,0.8,0.6,0.9,0.9c0.1,0.6,0.5,0.7,0.9,1c-0.1-0.2-0.3-0.4-0.5-0.6
		c0.3-0.1,0.5-0.3,0.7-0.3s0.5,0.3,0.4,0.3c-0.3,0.7,0.2,1.1,0.6,1.5c0.3,0.3,0.6,0.6,0.9,1l-0.1,0.1c-0.3-0.2-0.6-0.4-1-0.7
		c0.3,0.9,0.5,1.7,0.7,2.5c0.4,1.1,1,2.2,1.3,3.4c0.2,0.7,0.6,0.9,1.2,0.9c2.4,0.1,4.4-0.7,6.3-2.1c0.2-0.1,0.4-0.2,0.5-0.3
		c-0.7-0.9-1.3-1.5-1.8-2.1c0.6,0.4,1.3,0.9,2.2,1.6c0.3-0.7,0.6-1.4,0.8-2c0.1-0.2-0.1-0.5-0.1-0.7C38.5,78.1,38.2,77.3,37.9,76.6z
		 M21.5,68.4c0.7-0.2,1.1,0.2,1.3,1.1C22.3,69,21.9,68.7,21.5,68.4z M23.1,72.8l0.1-0.1c0.1,0.1,0.2,0.1,0.3,0.2
		c0.5,0.5,1,1,1.5,1.5C24.4,73.8,23.7,73.3,23.1,72.8z M33.5,73.3c-0.1,0.1-0.1,0.1-0.2,0.2c-0.5-0.6-0.9-1.1-1.4-1.7l0.1-0.1
		C32.5,72.3,33,72.8,33.5,73.3z M31.4,68c0.6,0.6,1.1,1.2,1.7,1.8c-0.1-0.1-0.3-0.2-0.4-0.3c-0.5-0.5-1-0.9-1.5-1.4
		C31.3,68.1,31.4,68,31.4,68z M29.9,70.1c0.3,0.5,0.6,0.9,1,1.4l-0.1,0.1c-0.2-0.1-0.5-0.2-0.7-0.2c-0.1-0.4-0.2-0.8-0.3-1.2
		C29.8,70.2,29.8,70.1,29.9,70.1z M26.7,71.8c-0.2-0.6-0.5-1.3-0.7-1.9c0.1,0,0.1-0.1,0.2-0.1c0.5,0.5,0.4,1.3,0.6,1.9
		C26.8,71.8,26.8,71.8,26.7,71.8z M28.2,78.8c0.6,0.5,1.1,0.9,1.5,1.3C29.5,80.2,28.9,79.8,28.2,78.8z M33.4,78.7
		c-0.2-0.2-0.5-0.3-0.8-0.5c0.1,0.5,0.2,0.9,0.4,1.3c0.1,0.5-0.1,0.8-0.5,1s-0.8,0.1-1-0.3c-0.4-0.8-0.8-1.7-1.1-2.5
		c-0.2-0.5-0.3-1-0.6-1.4c-0.3-0.4-0.7-0.7-1.1-1.1c0.2-0.1,0.4-0.1,0.7-0.2c-0.2-0.4-0.5-0.7-0.6-1c-0.1-0.2-0.1-0.4-0.2-0.6
		c0-0.1,0-0.3,0-0.4c-0.3-0.9-0.7-1.8-1.1-2.7c-0.1-0.2-0.4-0.4-0.7-0.6c0.1,0,0.2-0.1,0.3-0.1c-0.1-0.9-0.9-1.8-0.1-2.8
		c0,0,0,0.1,0.1,0.1c1-0.1,1.2,0.7,1.5,1.4c0.4,1,0.8,2.1,1.2,3.1c0,0.1,0.1,0.2,0.2,0.3l0,0l0,0l0,0l0,0c0.8,0.6,1.5,1.1,2.3,1.7
		c-0.4,0.4-0.7,0.1-1-0.2c0,0.2,0,0.3,0,0.5c-0.4-0.5-0.7-1-1.1-1.4l-0.1,0.1c0.5,1.3,0.9,2.5,1.5,3.8c0.2,0.4,0.7,0.6,1,0.9
		c0-0.2,0-0.3,0.1-0.4h0.1c0.2,0.5,0.4,1,0.7,1.7c-0.6-0.6-1.1-1-1.6-1.5C32,77.5,32.9,78,33.4,78.7z M32.5,75
		c-0.1,0.1-0.1,0.1-0.2,0.2c-0.5-0.4-0.9-0.8-1.4-1.2C31.9,74,32.4,74.4,32.5,75z M35.1,81.3c0.1,0.3,0.6,0.6,0.3,1
		c-0.4-0.3-0.6-0.6-1-0.9c0.2,0,0.4,0.1,0.6,0.1c-0.1-0.4-0.3-0.9-0.4-1.3h0.1C34.8,80.6,35,81,35.1,81.3z"/>
	<path class="st0" d="M186.8,23.4c-1.4-3.6-2.8-7.3-4.3-10.9c-0.2-0.4-0.3-0.7-0.8-0.9c-0.7-0.2-1.3-0.6-2-0.9
		c0.1,0.4,0.2,0.8,0.4,1.2c1.6,4.1,3.2,8.2,4.7,12.3c0.7,1.9-0.1,3.6-2,4.3c-0.4,0.2-0.9,0.3-1.2,0.5c0.2,0.2,0.4,0.3,0.5,0.5
		c0,0-0.2,0.3-0.3,0.3c-0.2,0-0.4-0.1-0.6-0.3c-0.3-0.3-0.6-0.2-0.9-0.1c-5.3,2-10.6,4.1-15.9,6.1c-3.9,1.5-7.7,3-11.6,4.5
		c-0.3,0.1-0.5,0.3-0.5,0.7s-0.1,0.8-0.2,1.1c-0.1,0-0.1,0-0.2,0c0-0.5,0-0.9,0-1.4c-8.3,3.2-16.5,6.4-24.7,9.6l0,0
		c-0.1,0-0.1,0-0.2,0.1h-0.1c-0.4,0.1-0.6,0.3-0.6,0.7l-0.1,0.1c0-0.2-0.1-0.3-0.1-0.5c-2.3,0.9-4.6,1.8-6.8,2.6
		c-0.4,0.1-0.6,0.2-0.8,0.3c0,0,0,0-0.1,0h-0.1c-0.4,0.1-0.6,0.3-0.6,0.7l-0.1,0.1c0-0.2-0.1-0.3-0.1-0.5c-0.2,0.1-0.4,0.1-0.5,0.2
		c-0.1,0-0.2,0-0.3,0.1c-2.4,1-4.9,1.9-7.4,2.8c-0.4,0.1-0.7,0.2-0.9,0.5c-0.1,0-0.2,0-0.4,0l0,0c-0.2,0.1-0.3,0.1-0.5,0.2
		c-0.3,0.1-0.6,0.2-0.9,0.4l0,0c-0.2,0.1-0.3,0.1-0.5,0.2c-0.4,0.2-0.8,0.3-1.2,0.5c-0.2,0-0.4,0.1-0.6,0.2c0,0,0,0,0,0.1
		c-0.3,0.1-0.7,0.3-1,0.4l0,0c-0.5,0.2-1,0.4-1.5,0.6c-0.3,0.1-0.7,0.3-1,0.4c-0.6,0.2-1.2,0.4-0.9,1.2c0,0,0,0.1-0.1,0.3
		c-0.1-0.4-0.2-0.7-0.3-1c-0.4,0.1-0.7,0.3-1.1,0.5c0.2,0.3,0.4,0.5,0.5,0.7s0.1,0.4,0.1,0.6c0,0-0.3,0.1-0.4,0.1
		c-0.2-0.1-0.3-0.3-0.4-0.5s-0.1-0.5-0.1-0.8c-0.4,0.2-0.8,0.3-1.2,0.5c0.3,0.2,0.6,0.3,0.8,0.5c-0.7-0.2-1.4-0.5-2-0.1
		c-0.5,0.8-0.3,1.7-0.9,2.3c-0.2-0.6,0.3-1.3-0.2-1.9c-1,0.4-1.9,0.8-2.8,1.1l0,0c-0.3,0-0.6,0.1-1.2,0.4h-0.1
		c-0.4,0.1-0.6,0.3-0.6,0.7l-0.1,0.1c0-0.2-0.1-0.3-0.1-0.5c-2.3,0.9-4.6,1.8-6.8,2.6c-1.1,0.4-1.1,0.4-1.1,1.7c0,0.1,0,0.2,0,0.2
		c0,0.5-0.2,0.7-0.7,0.7c-0.1-0.4-0.1-0.8-0.2-1.2c-0.1-0.4-0.2-0.6-0.7-0.4c-2.4,1-4.9,1.9-7.4,2.8c-0.6,0.2-1.2,0.4-0.9,1.2
		c0,0,0,0.1-0.1,0.3c-0.1-0.4-0.2-0.7-0.3-1c-0.4,0.1-0.7,0.3-1.1,0.5c0.2,0.3,0.4,0.5,0.5,0.7s0.1,0.4,0.1,0.6c0,0-0.3,0.1-0.4,0.1
		c-0.2-0.1-0.3-0.3-0.4-0.5s-0.1-0.5-0.1-0.8c-0.4,0.2-0.8,0.3-1.2,0.5c0.3,0.2,0.6,0.3,0.8,0.5c-0.7-0.2-1.4-0.5-2-0.1
		c-0.5,0.8-0.3,1.7-0.9,2.3c-0.2-0.6,0.3-1.3-0.2-1.9c-1,0.4-1.9,0.8-2.8,1.1c0.6,0.5,1.2,0.9,1.8,1.3l0,0l0,0l0,0l0,0
		c1.3-0.5,2.6-1,3.9-1.4c4.7-1.8,9.4-3.6,14-5.4c3.4-1.3,6.8-2.6,10.1-3.9l0,0l0,0h0.1h0.1l0,0l0,0c1.2-0.5,2.4-0.9,3.6-1.4
		c4.7-1.8,9.4-3.6,14-5.4c3.4-1.3,6.9-2.7,10.3-4l0,0c2.9-1.1,5.8-2.2,8.7-3.4h-0.1c3.4-1.3,6.8-2.6,10.2-3.9
		c3.5-1.4,7.1-2.7,10.6-4.1c4.1-1.6,8.1-3.1,12.2-4.7c3.8-1.5,7.6-3,11.5-4.4c3.1-1.2,6.2-2.4,9.4-3.7c-0.1,0-0.3,0-0.5,0
		c0.3-1.1,0.9-1.4,1.7-1c-0.2,0.2-0.5,0.4-0.7,0.6c0.3-0.2,0.6-0.3,0.8-0.5C187.1,27.7,187.6,25.4,186.8,23.4z M93,64.8
		c-0.1-0.1-0.2-0.2-0.2-0.3c0.2,0.2,0.4,0.3,0.6,0.5C93.2,64.9,93.1,64.9,93,64.8z M158,40.1c0.1-0.5,0.1-0.9,0.1-1.3
		c0.1,0,0.1,0,0.2,0C158.3,39.2,158.7,39.7,158,40.1z"/>
	<path class="st0" d="M43.4,58.9C43.2,59,43.1,59,43,59.1c-0.5,0.3-1.1,0.2-1.6-0.3c-0.3-0.2-0.6-0.6-0.8-0.6
		c-0.5,0.1-1.2,0.1-1.5,0.8c-0.2,0-0.4-0.1-0.6-0.1c-1.1,0.4-2.2,0.8-3.3,1.2c0.2,0.3,0.3,0.5,0.5,0.8c-0.1,0.1-0.1,0.1-0.2,0.2
		c-0.2-0.2-0.4-0.5-0.7-0.8c-0.3,0.1-0.7,0.3-1.1,0.4c-0.1,0.1-0.3,0.3-0.2,0.4c0.4,1.2,0.9,2.4,1.4,3.6c1-0.4,1.9-0.7,2.9-1.1
		c-0.2-0.3-0.4-0.6-0.6-0.8c-0.1-0.1-0.2-0.1-0.3-0.2c-0.2-0.1-0.4-0.1-0.5-0.2c0.1-0.2,0.2-0.5,0.3-0.7c0.2,0.1,0.4,0.2,0.5,0.4
		s0.2,0.4,0.3,0.6c0.1,0.1,0.3,0.3,0.3,0.2c0.5-0.3,0.6,0.1,0.8,0.4c0.3,0.4,0.6,0.7,0.9,1c0.6,0.7,1.1,1.4,1.7,2.1
		c-0.1,0.1-0.1,0.1-0.2,0.2c-0.9-1.1-1.8-2.2-2.7-3.3l-0.1,0.1c0.4,0.7,0.8,1.3,1.3,2c0,0-0.1,0-0.1,0.1c-0.2-0.2-0.4-0.5-0.6-0.7
		c1,2.3,1.7,4.8,2.7,7.1c1,2.4,1.9,4.8,2.8,7.3c0.5-0.2,1-0.4,1.5-0.6c-0.4-0.4-0.7-0.7-1-1c0.4-0.2,0.6-0.1,0.8,0.2
		c0.2,0.3,0.3,0.8,0.8,0.6c1.1-0.4,2.1-0.8,3.3-1.3c-0.8-1.8-2-3.2-3.2-4.9c-0.1,0.4-0.1,0.5-0.1,0.8c-0.9-0.5-1.8-0.9-2.2-1.9
		c-0.2-0.4-0.4-0.7-0.7-1c-0.2-0.3-0.5-0.6-0.8-1c-0.1,0.5-0.3,0.5-0.6,0.3c-1-0.6-1.1-1.8-1.7-2.6c0.1,0,0.1-0.1,0.2-0.1
		c0.6,0.5,1.2,1.1,1.9,1.7c0.4-0.2,0.6,0.1,0.8,0.5c0.3,0.5,0.5,1.2,0.9,1.3c0.5,0.2,0.7,0.6,1.1,0.9c0.2,0.2,0.3,0.3,0.5,0.4
		c0.1,0.1,0.3,0.1,0.4,0.1c0.3,0,0.7,0,1,0c-0.1,1,0.5,1.3,1.1,1.8c-0.7-1.9-1.4-3.7-2.1-5.5c-0.1-0.3-0.4-0.5-0.6-0.8
		c0,0.2,0,0.4-0.1,0.6c-0.5-0.7-0.4-0.9,0.1-1.2c-0.3-0.7-0.5-1.4-0.8-2.1c-0.2-0.5-0.4-0.8-0.9-0.9c-0.2-0.1-0.4-0.2-0.6-0.4
		c0-0.1,0.1-0.1,0.1-0.2c0.3,0.2,0.6,0.3,1,0.5c-0.2-0.8-0.4-1.6-0.9-2c0.6,0.1,1.3-0.6,2.1-0.7c-0.3-0.1-0.4-0.2-0.7-0.4
		c0.7-0.2,1.4,0.4,1.9-0.3c-0.5-1.2-1-2.5-1.5-3.8c-0.7,0.3-1.3,0.5-1.8,0.7C43.3,57.9,43.3,58.4,43.4,58.9z M45.5,74
		c0-0.2,0-0.3,0-0.7c0.7,1,1.8,1.4,1.7,2.7c-0.9-1-2.4-1.3-2.8-2.9C44.8,73.5,45.2,73.7,45.5,74z M42,70.3c0.6,0.7,1.2,1.4,1.8,2.1
		c-0.1,0-0.1,0.1-0.2,0.1c-0.6-0.7-1.3-1.4-1.9-2.1C41.8,70.4,41.9,70.3,42,70.3z"/>
	<path class="st0" d="M16.4,92.8L16.4,92.8c0.2,0.1,0.4,0.1,0.6,0.1c-0.2,0.4-0.4,0.7-0.7,1c-0.2-0.2-0.4-0.5-0.6-0.9
		c-0.2,0.1-0.5,0.2-0.7,0.2c-2.1,0.8-3.8,0.1-4.6-2c-0.7-1.8-1.4-3.6-2.1-5.4c-0.2-0.5-0.2-1.1-0.9-1.2c-0.1,0-0.1-0.2-0.1-0.3
		c-0.8-1.5-1.6-3.1-2.4-4.6c-0.3-0.6-0.6-1.3-0.9-2c0.1,0,0.1-0.1,0.2-0.1c1.1,2.1,2.1,4.1,3.2,6.2c0.1-0.2,0-0.3,0-0.4
		c-1.1-3-2.3-5.9-3.5-8.9c-0.1-0.3-0.4-0.6-0.5-0.9l0,0c0-0.2,0-0.4,0-0.6C3,71.7,3,70.1,2,68.8c-0.1,0.1-0.3,0.2-0.3,0.3
		c-0.8,1.5-0.8,3-0.2,4.5c0.9,2.3,1.8,4.6,2.7,6.9c1.5,3.9,3,7.8,4.5,11.6c1.1,2.8,4,4.2,6.9,3.1c0.7-0.3,1.4-0.6,2.1-0.8
		c3.4-1.3,6.9-2.6,10.3-4c0.3-0.1,0.5-0.2,0.6-0.3c-0.2-0.7-0.3-1.3-0.4-1.9C24.2,89.8,20.3,91.3,16.4,92.8z M2,72.6
		c0.5,0.4,0.9,0.8,1.4,1.2C2.6,73.5,2.3,73.3,2,72.6z"/>
	<path class="st0" d="M46.4,50.7c0.4-0.2,0.7,0.1,0.7,0.5c0,0.2,0.1,0.4,0.1,0.6c0.2-0.1,0.4-0.2,0.6-0.4c0.8,0.6,1.5,0.1,2.3-0.2
		c-0.1-1.1,0.1-1.5,0.8-1.5c0.3,0,0.7,0.2,1.1,0.3c0.3,0.1,0.5,0.3,0.7,0.2c1.1-0.4,2.1-0.8,3.2-1.2c1.7-0.7,3.4-1.4,5.1-2.1
		c0.8-0.3,1.6-0.5,2.4-0.8c0.6-0.2,1.1-0.5,1.5-1.1c0.2-0.4,0.5-0.7,0.8-0.9c0.2-0.2,0.5-0.2,0.7-0.3v0.1c-0.5,0.5-1.1,1-1.6,1.5
		l0.1,0.1c0.2,0,0.3-0.1,0.5-0.1c1.8-0.7,3.6-1.4,5.4-2.1c0.3-0.1,0.6-0.4,0.9-0.5c0.4-0.1,0.7-0.1,1.1-0.2c1.7-0.6,3.4-1.3,5.1-2
		c2.7-1.1,5.4-2.1,8.2-3.1c0.7-0.3,1.2-0.6,1.3-1.3c0-0.1,0.1-0.3,0.2-0.4h0.1c0,0.3,0,0.6,0,1.1c0.5-0.2,1-0.4,1.5-0.6
		c0,0,0-0.1-0.1-0.1c-0.2,0.1-0.3,0.2-0.5,0.2s-0.4-0.1-0.5-0.2c-0.2-0.4-0.4-0.9-0.5-1.3c-2.2,0.8-4.3,1.7-6.5,2.5
		c-3.8,1.5-7.6,2.9-11.4,4.4c-0.2,0.1-0.4,0.2-0.6,0.4c0,0.1,0,0.4-0.1,0.4c-0.3,0.1-0.6,0.2-0.9,0.3c0-0.1-0.1-0.1-0.1-0.2
		c0.1-0.1,0.2-0.2,0.2-0.3c-0.2,0.1-0.4,0.1-0.6,0.2c-3.2,1.3-6.5,2.5-9.7,3.8c-1.5,0.6-3,1.2-4.5,1.8c0.1,0,0.2,0,0.5,0
		c-0.2,0.4-0.4,0.9-0.6,0.9c-0.5,0-1.1,0.6-1.5-0.1c0.1-0.1,0.3-0.2,0.4-0.3c-1.4,0.5-2.9,1.1-4.3,1.6c-0.8,0.3-1.5,0.6-2.3,0.9
		c0,0.1,0,0.1,0.1,0.2C45.8,50.9,46.1,50.8,46.4,50.7z M62.1,45.2c0.3,0,0.5-0.1,0.7-0.1c0.1,0,0.2,0.3,0.2,0.4
		c-0.2,0.2-0.5,0.4-0.8,0.6c0-0.1-0.1-0.1-0.1-0.2c0.1-0.1,0.1-0.1,0.2-0.2c0.1,0,0.2-0.1,0.3-0.1C62.5,45.6,62.4,45.4,62.1,45.2z
		 M58.8,46.6c0.1-0.1,0.2-0.3,0.3-0.4c0,0,0.3,0.1,0.3,0.2c0,0.2,0,0.4,0,0.5c-0.2,0.2-0.4,0.4-0.6,0.6c0-0.1-0.1-0.1-0.1-0.2
		C58.7,47,58.7,46.8,58.8,46.6z M49.9,51c-0.7,0.4-0.9,0.3-1-0.6C49.3,50.6,49.6,50.8,49.9,51z"/>
	<path class="st0" d="M12.3,64.8c0.8,1,1.4,0.6,2-0.1c0.1,0,0.2,0.1,0.4,0.2c-0.1-0.2-0.1-0.2-0.2-0.3c0.2,0,0.5,0.2,0.7,0.1
		c1.6-0.6,3.3-1.3,4.9-1.9l0,0c1.1-0.3,1.3-0.5,1.1-1.7c0-0.1-0.1-0.3-0.1-0.4c0.1-0.2,0.2-0.3,0.3-0.4c0,0,0.3,0.1,0.3,0.2
		c0.1,0.3,0.2,0.6,0.3,0.9c0.1,0.2,0.2,0.4,0.3,0.5l0.1-0.1c0-0.1-0.1-0.2-0.1-0.3c0.4,0,0.7,0,1-0.1c2-0.7,3.9-1.6,5.9-2.3
		c2.3-0.8,4.5-1.7,6.8-2.6c0.2-0.1,0.4-0.3,0.6-0.5v0.1c0.4-0.1,0.8-0.2,1.2-0.2c0-0.2,0-0.4,0-0.4c0.6-0.1,1-0.1,1.5-0.2
		c0.2,0,0.5-0.2,0.7-0.3c1.1-0.4,2.2-0.9,3.4-1.3c0-0.1,0-0.1,0-0.2c-0.3,0.1-0.7,0.1-1.1,0.2c0.6-1,1.6,0,2.3-0.5
		c-0.4-0.8-0.4-1.5,0.2-2.1c-1.2,0.4-2.4,0.9-3.5,1.3c-0.4,0.2-0.8,0.4-1.2,0.6c0.3-0.1,0.5-0.1,0.5,0.3c0,0.5-0.4,0.8-0.9,0.8
		c-0.3-0.1-0.7-0.2-1.1-0.3c0.2-0.2,0.3-0.2,0.4-0.3c-0.2,0-0.3,0.1-0.5,0.1c-3.8,1.5-7.6,2.9-11.4,4.4c-4.4,1.7-8.7,3.4-13.1,5.1
		c-1,0.4-2,0.8-3,1.2c0.5,0.5,1,0.9,1.4,1.3C12.4,65.3,12.4,65.1,12.3,64.8z M20.1,62.7c-0.5-0.4-1.1-0.7-1.3-1.4
		C19.5,61.5,20.1,62.2,20.1,62.7z"/>
	<path class="st0" d="M121.9,54.3L121.9,54.3L121.9,54.3L121.9,54.3z"/>
	<path class="st0" d="M130.5,50.9L130.5,50.9L130.5,50.9L130.5,50.9z"/>
	<path class="st0" d="M109,28.4c-0.2-0.6-0.4-1.1-0.6-1.7c0.3-0.3,0.5,0,0.5,0.4C109,27.5,109,27.9,109,28.4
		c2.8-1.1,5.5-2.1,8.1-3.1l0,0c2-0.8,4-1.5,6-2.3c-0.2-0.6-0.4-1.1-0.6-1.7c0.3-0.3,0.5,0,0.5,0.4c0.1,0.4,0.1,0.8,0.2,1.3
		c2.9-1.1,5.7-2.2,8.5-3.3c-0.2-0.2-0.5-0.3-0.7-0.3c-0.5,0-1,0-1.6,0c-0.1,0.1-0.2,0.3-0.3,0.5H129c0-0.4,0-0.8,0-1.3
		c-4.3,1.7-8.6,3.3-13,5c0.3,0.4,0.5,0.8,0.7,1.2c-0.5,0-0.9,0-1.4,0c-0.1,0.1-0.2,0.3-0.3,0.5h-0.1c0-0.4,0-0.8,0-1.3
		c-4.3,1.7-8.6,3.3-13,5c0.4,0.6,0.7,1.1,1.1,1.7C105,30,107,29.2,109,28.4z"/>
	<path class="st0" d="M138.4,17.2c-0.2-0.6-0.4-1.1-0.6-1.7c0.3-0.3,0.5,0,0.5,0.4C138.4,16.3,138.4,16.7,138.4,17.2
		c3-1.1,5.8-2.2,8.6-3.3l0,0c0.2-0.1,0.3-0.1,0.5-0.2c0.2-0.1,0.5-0.3,0.6-0.6c0.2-0.3,0.4-0.4,0.7-0.2c0.1,0.1,0.4,0.1,0.5,0.1
		c1.1-0.4,2.1-0.8,3.2-1.2c0.3-0.1,0.5-0.3,0.9-0.6c0.1,0,0.2,0,0.3,0c0.2,0,0.3,0,0.4-0.1l0,0c0.1-0.1,0.3-0.1,0.4-0.2l0,0
		c0.8-0.3,1.6-0.6,2.3-0.9c1.2-0.4,2.3-0.9,3.5-1.4c0.2-0.1,0.4-0.2,0.7-0.3l0,0c0.4-0.2,0.9-0.3,1.3-0.5c0.1,0,0.2,0,0.2-0.1
		c0.9-0.3,1.7-0.6,2.6-0.9c0.6-0.2,1.1-0.4,1.5-0.7c2.3-0.9,4.6-1.9,7-2.6c1.1-0.4,2-0.8,2.5-1.8c0,0,0-0.1,0.1-0.2
		c-1.2-0.4-2.3-0.4-3.4,0.1c-5.5,2.1-11.1,4.3-16.6,6.4c-1,0.4-2,0.8-2.9,1.1l0,0c-1.9,0.7-3.7,1.4-5.6,2.2c-1,0.4-2,0.8-2.9,1.1
		c0.3,0.7-0.2,1.1-0.4,1.5c0,0,0,0-0.1,0c0-0.4,0-0.8,0-1.3c-4.3,1.7-8.6,3.3-13,5c0.4,0.6,0.7,1.1,1.1,1.7
		C134.3,18.7,136.3,17.9,138.4,17.2z"/>
	<path class="st0" d="M62.1,75.1c-0.2,0.1-0.5,0.2-0.7,0.3c-1.2,0.5-2.5,1-3.7,1.5c0.3,0.6,0.5,1.1,0.8,1.6h-0.1
		c-0.3-0.5-0.6-1-1-1.5c-0.8,0.3-1.5,0.6-2.2,0.8c-0.5,0.2-1.1,0.3-1.1,1.1c-0.7-0.6-1.2-0.2-1.8,0.1c0.7,0.5,0.6,1.2,0.7,1.9
		l0.1-0.1c2.8-1.1,5.5-2.1,8.3-3.2c1.4-0.5,2.8-1.1,4.2-1.7c-0.3-0.1-0.7-0.2-0.9-0.4C63.9,74.9,63.1,74.5,62.1,75.1z"/>
	<path class="st0" d="M169.8,31c-0.5-1.3-1-2.6-1.5-3.9c-1.1,0.4-2.2,0.8-3.3,1.2c-0.8-2.1-1.6-4.2-2.4-6.2
		c-0.4-1.2-1.2-1.9-2.5-2.1c-0.1,0-0.1-0.1-0.2-0.2c-0.5-0.6-1-1.3-1.8-1.5c0,0-0.1,0-0.1-0.1c-0.8-0.6-1.7-1.2-2.5-1.9
		c-0.1,0.3-0.1,0.5-0.2,0.8c-0.4-0.5,0-1.5-1.1-1.6c0.1,0.4,0.1,0.7,0.2,1c0.2,0.6,0.5,1.3,0.7,1.9c1.9,5,3.9,10,5.8,15
		c0.1,0.2,0.4,0.6,0.5,0.6c0.8-0.1,1.1-0.4,1.1-0.9c0-1,0-2.1,0.1-3.1c0-0.3,0.2-0.6,0.3-0.8c0.1,0,0.2,0,0.3,0.1c0,1.3,0,2.7,0,4.2
		C165.5,32.6,167.6,31.8,169.8,31z M165.4,30.3c0.1,0,0.2,0,0.2,0c0,0.4,0,0.7,0.1,1.1c-0.1,0-0.1,0-0.2,0
		C165.3,31,165.1,30.6,165.4,30.3z M160.8,28.7c-0.1,0-0.1,0-0.2,0c0-0.8,0-1.6,0-2.4c0.1,0,0.1,0,0.2,0
		C161.1,27.2,161,27.9,160.8,28.7z"/>
	<path class="st0" d="M158.9,12.7c-1.4,0.5-2.8,1-4.1,1.6c-0.2,0.1-0.3,0.5-0.3,0.7s0.3,0.4,0.6,0.6c0.1-0.5,0.1-0.9,0.2-1.2
		c0.2,0.1,0.3,0.2,0.3,0.4c-0.1,1,0.6,1.4,1.2,2c0.3,0.3,0.7,0.6,1,0.3c0.5,0.5,1,1,1.5,1.4c0.6,0.5,1.3,1,2,1.4
		c0.2,0.1,0.4,0.2,0.6,0.4c-0.6-2.1-1.6-3.9-2.1-5.9c-0.3,0.1-0.4,0.1-0.6,0.2C158.7,13.9,159.7,13.3,158.9,12.7z"/>
	<path class="st0" d="M107.2,55.7c-0.5-1.3-1-2.6-1.5-3.9c-1.1,0.4-2.2,0.8-3.3,1.2c-0.8-2.1-1.6-4.2-2.4-6.2
		c-0.4-1.2-1.2-1.9-2.5-2.1c-0.1,0-0.1-0.1-0.2-0.2c-0.5-0.6-1-1.3-1.8-1.5c0,0-0.1,0-0.1-0.1c-0.8-0.6-1.7-1.2-2.5-1.9
		c-0.1,0.3-0.1,0.5-0.2,0.8c-0.4-0.5,0-1.5-1.1-1.6c0.1,0.4,0.1,0.7,0.2,1c0.2,0.6,0.5,1.3,0.7,1.9c1.9,5,3.9,10,5.8,15
		c0.1,0.2,0.4,0.6,0.5,0.6c0.8-0.1,1.1-0.4,1.1-0.9c0-1,0-2.1,0.1-3.1c0-0.3,0.2-0.6,0.3-0.8c0.1,0,0.2,0,0.3,0.1c0,1.3,0,2.7,0,4.2
		C102.9,57.3,105,56.5,107.2,55.7z M102.8,55c0.1,0,0.2,0,0.2,0c0,0.4,0,0.7,0.1,1.1c-0.1,0-0.1,0-0.2,0
		C102.7,55.7,102.5,55.3,102.8,55z M98.2,53.4c-0.1,0-0.1,0-0.2,0c0-0.8,0-1.6,0-2.4c0.1,0,0.1,0,0.2,0
		C98.5,51.9,98.4,52.7,98.2,53.4z"/>
	<path class="st0" d="M96.3,37.4c-1.4,0.5-2.8,1-4.1,1.6c-0.2,0.1-0.3,0.5-0.3,0.7s0.3,0.4,0.6,0.6c0.1-0.5,0.1-0.9,0.2-1.2
		c0.2,0.1,0.3,0.2,0.3,0.4c-0.1,1,0.6,1.4,1.2,2c0.3,0.3,0.7,0.6,1,0.3c0.5,0.5,1,1,1.5,1.4c0.6,0.5,1.3,1,2,1.4
		c0.2,0.1,0.4,0.2,0.6,0.4c-0.7-2.1-1.7-4-2.3-6c-0.3,0.1-0.4,0.1-0.6,0.2C96.1,38.6,97.1,38,96.3,37.4z"/>
	<path class="st0" d="M115.1,52.4l-1.5-3.9c0,0-1.6-4.2-2.4-6.2c-0.4-1.2-1.2-1.9-2.5-2.1c-0.1,0-0.1-0.1-0.2-0.2
		c-0.5-0.6-1-1.3-1.8-1.5c0,0-0.1,0-0.1-0.1c-0.8-0.6-1.7-1.2-2.5-1.9c-0.1,0.3-0.1,0.5-0.2,0.8c-0.4-0.5,0-1.5-1.1-1.6
		c0.1,0.4,0.1,0.7,0.2,1c0.2,0.6,0.5,1.3,0.7,1.9c1.9,5,3.9,10,5.8,15c0.1,0.2,0.4,0.6,0.5,0.6c0.8-0.1,1.1-0.4,1.1-0.9
		c0-1,0-2.1,0.1-3.1c0-0.3,0.2-0.6,0.3-0.8c0.1,0,0.2,0,0.3,0.1c0,1.3,0,2.7,0,4.2C114.1,52.8,115.1,52.4,115.1,52.4z M114,50.4
		c0.1,0,0.2,0,0.2,0c0,0.4,0,0.7,0.1,1.1c-0.1,0-0.1,0-0.2,0C113.9,51.1,113.7,50.8,114,50.4z M109.4,48.9c-0.1,0-0.1,0-0.2,0
		c0-0.8,0-1.6,0-2.4c0.1,0,0.1,0,0.2,0C109.7,47.3,109.6,48.1,109.4,48.9z"/>
	<path class="st0" d="M107.5,32.9c-1.4,0.5-2.8,1-4.1,1.6c-0.2,0.1-0.3,0.5-0.3,0.7s0.3,0.4,0.6,0.6c0.1-0.5,0.1-0.9,0.2-1.2
		c0.2,0.1,0.3,0.2,0.3,0.4c-0.1,1,0.6,1.4,1.2,2c0.3,0.3,0.7,0.6,1,0.3c0.5,0.5,1,1,1.5,1.4c0.6,0.5,1.3,0.9,2,1.4
		c0.2,0.1,0.4,0.2,0.6,0.4c-0.6-2.1-1.6-3.9-2.1-5.9c-0.3,0.1-0.4,0.1-0.6,0.2C107.3,34.1,108.3,33.5,107.5,32.9z"/>
	<path class="st0" d="M37,84.8c-0.4,0.2-0.8,0.3-1.2,0.4c-0.8,0.3-1.6,0.6-2.4,0.9c0.4,0.2,0.7,0.4,0.9,0.6c0,0.1-0.1,0.2-0.1,0.2
		c-0.2-0.1-0.5-0.1-0.7-0.3c-0.5-0.5-0.9-0.3-1.4-0.1c-0.3,0.1-0.6,0.2-0.9,0.3c-0.5,0.2-0.9,0.5-1.5,0.7c-0.5-0.2-0.9,0.3-1.4,0.4
		c0.1,0.7,0.3,1.3,0.4,2c1.8-0.7,3.6-1.4,5.3-2c1.3-0.5,2.6-1,3.9-1.5l0,0c0.3-0.1,0.5-0.2,0.8-0.3c-0.2-0.1-0.3-0.1-0.4-0.2
		c0.2-0.2,0.5-0.4,0.7-0.6C38.3,84.3,38.3,84.3,37,84.8z M37.5,86.3c-0.4-0.2-0.7-0.5-0.9-0.9c0.5,0.2,0.9,0.4,1.4,0.6
		c0.1,0.1,0.1,0.3,0.2,0.5C37.9,86.4,37.6,86.4,37.5,86.3z"/>
	<path class="st0" d="M89.4,36c0.1,0,0.2,0,0.2,0c1.5-0.6,3-1.2,4.6-1.7c0.4-0.1,0.4-0.4,0.4-0.7c0,0,0-0.1,0.1-0.2
		c0.1,0.2,0.1,0.4,0.1,0.6c0.4-0.2,0.8-0.2,1-0.4c0.2-0.3,0.1-0.7,0.2-1.1c0,0.3,0,0.6,0,0.9h0.1c0-0.3,0.1-0.7,0.1-1h0.1
		c0,0.3,0.1,0.6,0.2,1c0.6-0.2,1.1-0.4,1.6-0.6c-0.1-0.5-0.2-1-0.3-1.4c0.1,0,0.1,0,0.2-0.1c0.1,0.2,0.2,0.4,0.4,0.7
		c0-0.6,0-1,0-1.5c-0.6,0.2-1.2,0.5-1.8,0.7c-2.1,0.8-4.2,1.7-6.4,2.5l0,0c-0.7,0.3-1.5,0.5-2.3,0.8c0.5,0.4,0.9,0.6,1.4,1
		C89.4,35.5,89.4,35.7,89.4,36z M90.2,33.6c0.1,0.1,0.3,0.3,0.3,0.4c0,0.3-0.2,0.5-0.3,0.8c-0.1-0.1-0.3-0.2-0.3-0.2
		C90,34.2,90.1,33.9,90.2,33.6z"/>
	<path class="st0" d="M2,68.8L2,68.8L2,68.8L2,68.8L2,68.8L2,68.8z"/>
	<path class="st0" d="M3.2,70.6c0.8-2.3,3.1-2.3,4.7-3.2c0-0.2,0-0.3,0-0.5c0.2,0.1,0.5,0.3,0.6,0.3c1-0.4,1.9-0.8,2.9-1.2
		c0.1-0.2,0.2-0.3,0.3-0.5c-0.6-0.3-1.2-0.6-2-0.9C8,65.4,5.9,66.1,3.8,67C3,67.4,2.3,67.9,2,68.8c0.1,0,0.3,0,0.3,0.1
		C2.6,69.4,2.9,70,3.2,70.6z"/>
	<path class="st0" d="M178.1,6.4c0.3,1,0.8,2,1.1,2.9c0.1,0.4,0.4,0.6,0.8,0.8c0.7,0.3,1.4,0.6,2,0.9c0,0,0,0,0-0.1
		c-0.8-2.1-1.6-4.1-2.5-6.2c-0.5-1.1-1.1-2.1-2.3-2.7c-0.2-0.1-0.5-0.1-0.6,0c-0.4,0.4-0.8,0.9-1.3,1.4
		C177.1,3.8,177.6,5.1,178.1,6.4z"/>
	<path class="st0" d="M48.5,82.4L48.5,82.4C48.5,82.4,48.5,82.3,48.5,82.4C48.5,82.3,48.5,82.4,48.5,82.4z"/>
	<path class="st0" d="M47.3,81.3c-0.1-0.1-0.3-0.2-0.5-0.2c-0.5,0.2-1,0.4-1.5,0.6c0.4,0.5,0.8,1,1.2,1.4l-0.1,0.1
		c-0.4-0.2-0.8-0.4-1.1-0.7c-0.4-0.6-0.9-0.6-1.4-0.2c-0.2,0.1-0.4,0.2-0.6,0.3c0.1,0.1,0.2,0.2,0.4,0.4c-0.3-0.1-0.6-0.3-0.9-0.2
		c-1.4,0.5-2.9,1.1-4.4,1.7c0.5,0.5,1,0.9,1.5,1.4c-0.2,0.1-0.3,0.2-0.5,0.3c0.2,0,0.2,0,0.3,0c2.9-1.1,5.7-2.2,8.6-3.3
		c0.1,0,0.2-0.2,0.3-0.3c-0.2,0-0.3,0.1-0.5,0.1C47.8,82.1,47.6,81.7,47.3,81.3z"/>
	<path class="st0" d="M28.3,83.8c-0.8-2.4-1.6-4.7-2.3-6.7c-1.4-0.9-1.9-2.3-3.1-3.1c0.4,1,0.7,1.8,1,2.7c0.7,1.8,1.5,3.5,2.3,5.3
		C26.6,82.9,27.5,83.6,28.3,83.8z M26.4,80.4c0.6,0.2,0.8,0.8,0.6,1.9C26.6,81.6,26.3,81.1,26.4,80.4z"/>
	<polygon class="st0" points="52.9,80.9 52.9,80.9 52.9,80.9 52.9,80.9 	"/>
	<path class="st0" d="M49.3,80.1c0.3,0.4,0.5,0.7,0.7,1c-0.1,0-0.1,0.1-0.2,0.1c-0.2-0.3-0.4-0.8-0.6-0.9c-0.3-0.1-0.7,0.1-1.1,0.1
		c0,0.1,0,0.2,0,0.3c0.5,0.4,1,0.7,1.5,1.1c-0.3,0.2-0.6,0.3-1,0.5c0.3-0.1,0.7-0.1,1-0.2c1.1-0.4,2.2-0.8,3.3-1.2
		c-0.7-0.4-1.3-0.9-2.1-1.4C50.4,79.7,49.9,79.9,49.3,80.1z"/>
	<path class="st0" d="M48.5,82.4C48.6,82.3,48.6,82.3,48.5,82.4C48.6,82.3,48.5,82.3,48.5,82.4C48.5,82.3,48.5,82.4,48.5,82.4z"/>
	<path class="st0" d="M35.2,71.5c0.7-0.1,0.7,0.6,1.2,0.9c0-0.1,0-0.2,0-0.2c-0.8-2-1.6-4-2.4-6c-0.3-0.7-0.7-1.3-1.1-1.9
		c0.1,1,0.4,1.9,0.7,2.8c0.5,1.4,1,2.8,1.6,4.2C35.1,71.3,35.2,71.5,35.2,71.5z"/>
	<path class="st0" d="M180.4,26.9c-0.5-1.3-1-2.6-1.5-3.8c-0.1,0-0.1,0-0.2,0c0,0.6,0.3,1.3-0.5,1.5c-0.7,0.2-0.7-0.6-0.8-1
		c-0.8,0.3-1.6,0.6-2.5,1c-0.6-1.5-1.1-2.9-1.7-4.3c0.6-0.3,2.3-1,2.9-1.2c-0.8-1.1-1.7-2.1-1.4-3.7c-0.6,0.2-2.2,0.9-2.9,1.2
		c-0.5-1.3-1-2.5-1.4-3.7c1.2-0.5,2.4-0.9,3.6-1.4c-0.5-1.3-1-2.6-1.6-3.8c-3,1.1-5.9,2.3-8.9,3.4c2.5,6.6,5.1,13,7.6,19.6
		C174.3,29.2,177.3,28.1,180.4,26.9z M167.6,12.1c-0.5-0.3-0.6-0.6-0.4-1.4C167.7,10.9,167.8,11.4,167.6,12.1z"/>
	<path class="st0" d="M99.4,32.1c0.7-0.2,1.3-0.5,2-0.8c0.1,0,0.2-0.2,0.2-0.3c0.1-0.7,0.2-1.3,0.3-2c-1,0.4-2,0.7-2.9,1.1
		C99.6,30.8,99.2,31.5,99.4,32.1z"/>
	<path class="st0" d="M14.9,75.6c-0.5-1.1-1.4-1.8-2.1-2.7L12.7,73c0.7,0.9,1.3,1.8,2,2.7C14.7,75.7,14.8,75.7,14.9,75.6z"/>
	<path class="st0" d="M14.9,76.5c0.5,0.3,0.9,0.5,1.5,0.8C15.7,76.4,15.5,76.3,14.9,76.5z"/>
	<path class="st0" d="M14.9,76.5L14.9,76.5L14.9,76.5z"/>
	<path class="st0" d="M80.1,54.6c-0.9-2.9-1.5-4.9-2.7-7.6c-0.5-1-1.5-1.7-2.7-1.4c-1.8,0.5-8.2,2.9-8.2,2.9
		c0.2,0.5,7.4,19.6,7.4,19.6l4.3-1.7L78,65.7c0,0-1.6-4.4-2.4-6.6c-0.1,0-0.2,0.1-0.3,0.1c0,0.3-0.1,0.5-0.1,0.8c-0.1,0-0.2,0-0.4,0
		c-0.1-0.5-0.2-1-0.3-1.3c0.8-0.3,2.9-1,3.6-1.3C79.3,56.9,80.5,56,80.1,54.6z M70.4,50.4c-0.2-0.7-0.4-1.2-0.6-1.8
		c0.6,0,1.1-0.1,1.4-0.1C70.9,49.2,70.7,49.7,70.4,50.4z M75.6,54.7c-0.2,0-1.9,0.6-2,0.6c-0.5-1.5-1.1-2.9-1.6-4.4
		c-0.2-0.5,2.2-1.8,2.8-1.7c0,0.4,0,0.9,0.1,1.2c0.3,1,0.7,2,1,3C75.9,53.9,75.7,54.3,75.6,54.7z M75.9,51.4c-0.1,0-0.2-0.1-0.4-0.1
		c0-0.5-0.5-1.1,0.4-1.4c0.2-0.1,0.3-0.5,0.4-0.8c0.1,0,0.2,0,0.2,0.1C76.4,49.9,76.2,50.6,75.9,51.4z"/>
	<path class="st0" d="M92.4,50.2c-0.9-2.9-1.5-4.9-2.7-7.6c-0.5-1-1.5-1.7-2.7-1.4c-1.8,0.5-8.2,2.9-8.2,2.9
		c0.2,0.5,7.4,19.6,7.4,19.6l4.3-1.7l-0.2-0.7c0,0-1.6-4.4-2.4-6.6c-0.1,0-0.2,0.1-0.3,0.1c0,0.3-0.1,0.5-0.1,0.8
		c-0.1,0-0.2,0-0.4,0c-0.1-0.5-0.2-1-0.3-1.3c0.8-0.3,2.9-1,3.6-1.3C91.7,52.6,92.8,51.6,92.4,50.2z M82.7,46.1
		c-0.2-0.7-0.4-1.2-0.6-1.8c0.6,0,1.1-0.1,1.4-0.1C83.3,44.8,83,45.3,82.7,46.1z M87.9,50.3c-0.2,0-1.9,0.6-2,0.6
		c-0.5-1.5-1.1-2.9-1.6-4.4c-0.2-0.5,2.2-1.8,2.8-1.7c0,0.4,0,0.9,0.1,1.2c0.3,1,0.7,2,1,3C88.2,49.5,88,49.9,87.9,50.3z M88.3,47
		c-0.1,0-0.2-0.1-0.4-0.1c0-0.5-0.5-1.1,0.4-1.4c0.2-0.1,0.3-0.5,0.4-0.8c0.1,0,0.2,0,0.2,0.1C88.7,45.5,88.5,46.3,88.3,47z"/>
	<path class="st0" d="M150.6,38.4c0.2-0.1,0.4-0.2,0.6-0.3c1.2-0.5,2.7-1.1,4-1.6c1.5-0.6,2.3-2,1.9-3.2l-0.7-1.8
		c-0.2,0.1-0.1,0-0.3,0.1c0,0.5,0,1,0,1.5c-0.2,0-0.1,0-0.3,0.1l-0.7-1.7c0.3-0.6,0.8-1.1,0.7-1.4c-0.6-1.9-0.9-3.9-4.2-3.9
		c1.2-0.8,1.8-1.7,1.5-2.7c-0.6-1.6-1.1-3.1-1.9-4.6c-0.6-1.1-1.8-2.1-3.6-1.7c-2.6,0.7-5.2,1.8-7.9,2.7l2.8,6.9c0.8,0,1.6,0,2.5,0
		c-0.1,0.4-0.3,0.7-0.3,0.9c-0.5,0-1,0-1.5,0.1c-0.1,0.2-0.1,0.2-0.2,0.3c0.5,0.4,1.1,0.8,1.7,1.2c0.2,0,0.5-0.1,0.8-0.1
		c0,0.1,0,0.1,0,0.2c-0.6,0.2-1.1,0.3-1.7,0.5l3.8,9.6C148.6,39.1,149.6,38.8,150.6,38.4z M154.4,28.8c0,0.1-0.1,0.2-0.1,0.3
		c-0.2,0-0.4,0-0.7,0.1c0.1,0.2,0.2,0.5,0.3,0.7c-0.5,0.3-0.8,0.6-1.5,1c-0.1-0.7-0.2-1.4-0.3-2.2C153,28.7,153.7,28.7,154.4,28.8z
		 M148.8,28.6c0.2-0.1,0.4-0.2,0.5-0.2c0.4,0.4,1,0.7,1.2,1.2c1.4,2.9,0.8,3.6-0.1,4.2c-0.5-1.3-1-2.6-1.6-4
		C148.7,29.4,148.8,29,148.8,28.6z M144.9,25.1c-0.1-0.2-0.2-0.4-0.3-0.6c-0.2,0.3-0.3,0.5-0.7,1c-0.1-0.4-0.1-0.6-0.2-0.9
		c-0.1,0-0.4,0-1,0.1c0.3-0.4,0.5-0.8,0.9-1c0.3-0.2,0.8-0.3,1.2-0.4c0.2,0.6,0.3,1.2,0.5,1.8C145.2,25,145.1,25.1,144.9,25.1z
		 M147,25c-0.5-1.1-0.9-2.3-1.4-3.5c1-0.5,1.6-0.4,1.8,0.2c0.4,0.9,0.8,1.9,1.1,2.8c0.1,0.3-0.5,0.7-0.7,1.1
		C147.5,25.5,147.1,25.3,147,25z"/>
	<path class="st0" d="M124.5,48.6c2.4-1,4.7-1.9,4.7-1.9s0,0,0-0.1c-0.7-0.5-1.3,0.1-1.8-0.3c-0.1-0.1-1.3-0.4-1-0.3
		c0.5,0.1,2,0,2.5,0.1c-0.3-0.9-0.9-2.4-1.2-3.2c-1.3,0.5-2.4,0.8-3.5,0.9c-1.3,0.8-3.6,3-3.6,3s1.7-2.2,2.7-3c-2,0-3.6-1.1-4.9-4.1
		c-2.6-6,0.8-7.1,2.1-7.6c0.8-0.3,2.5-1,2.5-1l-1.5-3.8c0,0-3.6,1.3-5.3,2.2c-2.6,1.3-4,4.4-3.7,6.7c0.2,1,0.8,3.2,1,3.7
		c0.2,0.8,1.4,0.9,2.6,0.9c0.2,0,0.3,0.2,0.5,0.5c-0.5-0.1-1.8,0.2-2.5,0.1c0.3,0.7,1.5,3.3,2.3,4.2C118.4,47.9,122,49.6,124.5,48.6
		z M120.4,29.2c0.1-0.1,0.2-0.3,0.3-0.4c0.1-0.1,0.2-0.1,0.3,0c0.1,0.1,0.3,1-0.5,0.7C120.4,29.5,120.4,29.3,120.4,29.2z M115.8,36
		l-0.4,1.9c0,0,0.1-3,0.2-3.8c0-0.3,0.2-1.9,0.2-1.9s0.6-0.3,0.7-0.7c0-0.4,0.6-0.4,0.6,0c0,0.3-0.1,0.6-0.3,0.9
		c-0.2,0.4,0.5,1.3,0.1,1.1C116.2,33.1,115.8,36,115.8,36z"/>
</g>
</svg>
