<?xml version="1.0" encoding="utf-8"?>
<!-- Generator: Adobe Illustrator 21.0.0, SVG Export Plug-In . SVG Version: 6.00 Build 0)  -->
<svg version="1.1" id="Layer_1" xmlns="http://www.w3.org/2000/svg" xmlns:xlink="http://www.w3.org/1999/xlink" x="0px" y="0px"
	 viewBox="0 0 412.5 190.9" style="enable-background:new 0 0 412.5 190.9;" xml:space="preserve">
<style type="text/css">
	.st0{fill:#4FBBB2;}
	.st1{fill:#FFFFFF;}
</style>
<g>
	<path class="st0" d="M133.6,67.3c0,18.4-6.4,33.9-19.3,46.6c-13,12.9-28.6,19.3-46.7,19.3c-18.2,0-33.8-6.4-46.6-19.3
		C8.1,101.1,1.7,85.5,1.7,67.3c0-18.2,6.4-33.8,19.3-46.7C33.9,7.8,49.4,1.3,67.6,1.3c18.1,0,33.6,6.4,46.7,19.3
		c6.4,6.4,11.2,13.5,14.4,21.3C131.9,49.7,133.5,58.2,133.6,67.3z M67.6,25.9c-5.8,0-11.2,1.1-16.3,3.3c-5,2.2-9.4,5.2-13.1,8.9
		c-3.7,3.7-6.6,8.1-8.8,13.1c-2.2,5-3.2,10.4-3.2,16c0,5.7,1.1,11,3.2,16c2.2,5,5.1,9.4,8.8,13.1c3.7,3.7,8,6.7,13.1,8.9
		c5,2.2,10.4,3.3,16.3,3.3c5.7,0,11.1-1.1,16.1-3.3c5-2.2,9.4-5.2,13.1-9c3.7-3.8,6.7-8.1,8.8-13.1c2.2-5,3.2-10.3,3.2-16
		c0-5.7-1.1-11-3.2-16c-2.2-5-5.1-9.4-8.8-13.1c-3.7-3.8-8.1-6.8-13.1-9C78.8,27,73.4,25.9,67.6,25.9z"/>
	<path class="st1" d="M218.4,133.3c-15.8,0-29.6-4.8-41.3-14.5v58.8c0,3.5-1.2,6.5-3.6,8.8c-2.4,2.3-5.3,3.5-8.8,3.5
		c-3.5,0-6.5-1.2-8.8-3.5c-2.3-2.3-3.5-5.2-3.5-8.8V67.3c0-18.2,6.4-33.8,19.3-46.7c12.9-12.9,28.4-19.3,46.6-19.3
		c18.1,0,33.6,6.4,46.7,19.3c6.4,6.4,11.3,13.4,14.5,21.3c3.2,7.8,4.8,16.3,4.8,25.4c0,18.4-6.4,33.9-19.3,46.6
		c-6.6,6.5-13.8,11.4-21.5,14.5C235.9,131.7,227.5,133.3,218.4,133.3z M177.1,67.3c0,5.7,1.1,11,3.2,16c2.2,5,5.1,9.4,8.8,13.1
		c3.7,3.7,8,6.7,13.1,8.9c5,2.2,10.4,3.3,16.3,3.3c5.7,0,11.1-1.1,16.1-3.3c5-2.2,9.4-5.2,13.1-9c3.7-3.8,6.7-8.1,8.8-13.1
		c2.2-5,3.2-10.3,3.2-16c0-5.7-1.1-11-3.2-16c-2.2-5-5.1-9.4-8.8-13.1c-3.7-3.8-8.1-6.8-13.1-9c-5-2.2-10.4-3.3-16.1-3.3
		c-5.8,0-11.2,1.1-16.3,3.3c-5,2.2-9.4,5.2-13.1,8.9c-3.7,3.7-6.6,8.1-8.8,13.1C178.2,56.3,177.1,61.6,177.1,67.3z"/>
	<path class="st1" d="M327.3,70.5c-7.4-2.8-12.6-5.7-15.5-8.7h0.1c-6-6-9-13.2-9-21.3c0-6,1.6-11.4,4.8-16.2
		c3.2-4.8,7.3-8.9,12.4-12.3c5.1-3.4,10.9-6,17.3-7.8c6.4-1.8,12.8-2.8,19.3-2.8c19.6,0,36.5,7.9,50.5,23.7c1.6,2,2.5,4.5,2.5,7.4
		c0,3.5-1.2,6.5-3.5,8.8c-2.3,2.3-5.2,3.5-8.8,3.5c-2.5,0-4.7-0.7-6.4-2.1c-1.8-1.4-3.5-2.9-5.1-4.6c-8-8-17.8-12-29.2-12
		c-11.3,0-20.3,3.5-27.1,10.4c-1.3,1.3-1.9,3-1.9,5.2c0,2.2,1,3.7,3.1,4.5l55.1,18.1c7.7,3,12.9,5.9,15.5,8.7h-0.1
		c6,6,9,13.2,9,21.3c0,6-1.6,11.5-4.8,16.3c-3.2,4.8-7.3,8.9-12.4,12.3c-5.1,3.4-10.8,6-17.2,7.8c-6.4,1.8-12.8,2.7-19.2,2.7
		c-19.8,0-36.6-7.8-50.5-23.4c-1.7-2.3-2.6-4.8-2.6-7.7c0-3.5,1.2-6.5,3.5-8.8c2.3-2.3,5.2-3.5,8.8-3.5c2.6,0,4.8,0.8,6.6,2.3
		c1.8,1.5,3.5,3,4.9,4.4c8,8,17.8,12,29.3,12c11.2,0,20.3-3.5,27.1-10.6c1.2-1.3,1.8-2.9,1.8-4.8c0-2.2-1.1-3.7-3.2-4.6L327.3,70.5z
		"/>
</g>
</svg>
