<?xml version="1.0" encoding="utf-8"?>
<!-- Generator: Adobe Illustrator 21.0.0, SVG Export Plug-In . SVG Version: 6.00 Build 0)  -->
<svg version="1.1" id="Layer_1" xmlns="http://www.w3.org/2000/svg" xmlns:xlink="http://www.w3.org/1999/xlink" x="0px" y="0px"
	 viewBox="0 0 235.9 219.9" style="enable-background:new 0 0 235.9 219.9;" xml:space="preserve">
<style type="text/css">
	.st0{fill:#D7D7D7;}
	.st1{fill:#224561;}
	.st2{fill:#22445F;}
	.st3{fill:#224662;}
	.st4{fill:#244661;}
	.st5{fill:#20425E;}
	.st6{fill:#254762;}
	.st7{fill:#274963;}
	.st8{fill:#1F415D;}
	.st9{fill:#284964;}
	.st10{fill:#2B4C66;}
	.st11{fill:#33526A;}
	.st12{fill:#395871;}
	.st13{fill:#284A65;}
	.st14{fill:#3B5A72;}
	.st15{fill:#466379;}
	.st16{fill:#2E4F68;}
	.st17{fill:#385770;}
	.st18{fill:#0E3452;}
	.st19{fill:#1D415C;}
	.st20{fill:#193C59;}
	.st21{fill:#1B3F5B;}
	.st22{fill:#133855;}
	.st23{fill:#0F3452;}
	.st24{fill:#436078;}
	.st25{fill:#183C59;}
	.st26{fill:#446178;}
	.st27{fill:#123754;}
	.st28{fill:#436077;}
	.st29{fill:#3D5C74;}
	.st30{fill:#1F425E;}
	.st31{fill:#3D5B73;}
	.st32{fill:#37566F;}
	.st33{fill:#3C5A73;}
	.st34{fill:#37576F;}
	.st35{fill:#2D4E68;}
	.st36{fill:#2E4F69;}
	.st37{fill:#173C59;}
	.st38{fill:#163B58;}
	.st39{fill:#153A57;}
	.st40{fill:#1E425D;}
	.st41{fill:#31516B;}
	.st42{fill:#1D405C;}
	.st43{fill:#274964;}
	.st44{fill:#3F5D75;}
	.st45{fill:#244662;}
	.st46{fill:#7CCEFE;}
	.st47{fill:#B5D6B7;}
	.st48{fill:#FDBD69;}
	.st49{fill:#7092A2;}
	.st50{fill:#D9F0FE;}
	.st51{fill:#F7BB69;}
	.st52{fill:#F7BB68;}
	.st53{fill:#FDBE69;}
	.st54{fill:#89D5FD;}
	.st55{fill:#F3BA6A;}
	.st56{fill:#FDBF6A;}
	.st57{fill:#E6B36A;}
	.st58{fill:#7CCCF7;}
	.st59{fill:#F1B96A;}
	.st60{fill:#E9F1D0;}
	.st61{fill:#F1B96B;}
	.st62{fill:#EBF0CE;}
	.st63{fill:#FCBF6B;}
	.st64{fill:#FBBE6B;}
	.st65{fill:#F1F4CD;}
	.st66{fill:#FEFED1;}
	.st67{fill:#629CC6;}
	.st68{fill:#5897C6;}
	.st69{fill:#5A97C3;}
	.st70{fill:#5B98C6;}
	.st71{fill:#2E4E68;}
	.st72{fill:#FDFDFD;}
	.st73{fill:#FBBD69;}
	.st74{fill:#FEFEFE;}
	.st75{fill:#F8F9FA;}
	.st76{fill:#F7F8F9;}
	.st77{fill:#F6F7F8;}
	.st78{fill:#EFF1F4;}
	.st79{fill:#4A8FE1;}
	.st80{fill:#355E7D;}
	.st81{fill:#294B67;}
	.st82{fill:#284B66;}
	.st83{fill:#305875;}
	.st84{fill:#305876;}
	.st85{fill:#305775;}
	.st86{fill:#2A4D68;}
	.st87{fill:#2A4C68;}
	.st88{fill:#274965;}
	.st89{fill:#427396;}
	.st90{fill:#376180;}
	.st91{fill:#FAFBD0;}
	.st92{fill:#ECEFF1;}
	.st93{fill:#FFFDFD;}
</style>
<g>
	<path class="st0" d="M209.5,210c0.3,5.1-0.9,6.4-6,6.4c-53.8,0-107.5,0-161.3,0c-2.4,0-5,0.1-5.6-2.7c-0.6-2.3-1.3-5.1,1.9-6.5
		c2.7,3,6.2,2.8,9.8,2.8c10.1,0,20.2-0.1,30.3,0c2.7,0,5.2-0.2,7.8-1.5c3-1.5,6.2-1.2,9.3-0.1c2.8,1,5.5,1,8.2,0.1
		c2.2-0.9,4.5-0.9,6.8-0.9c16.2,0,32.5,0,48.7,0c7.1,0,7.7-0.7,7.7-7.6c0-4.7-0.1-9.5,0-14.2c0-1.5-0.4-3.5,1.8-4.1
		c0,5.8,0,11.6,0.1,17.4c0,1.2-0.5,2.6,0.8,3.5c0.1,0.1,0.2,0.2,0.2,0.3c0.7,7,0.7,7,7.8,7c3.3,0,6.6,0,9.9,0c2.6,0,5,0,6.5-2.8
		c1.1-2,3.1-1.2,4.8-0.6C202.5,207.9,205.8,209.6,209.5,210z"/>
	<path class="st1" d="M103.9,209.7c-2.4,1.2-5,1-7.4,0.2c-4.1-1.3-8-2.2-11.9,0.7c-0.9,0.7-2.2,0.4-3.4,0.4c-12.3,0-24.7-0.1-37,0
		c-3,0-4.8-1.1-5.7-3.9c0.3-2.6,1-5,0.3-7.8c-0.8-3.6,1-5.4,4.8-5.5c0.9,0,1.9,0.2,2.7-0.1c2-0.8,5.4,2.1,5.8-1.6
		c0.3-2.2,1.5-4.4,0.6-7c-1.4-3.9,0.7-6.5,4.8-6.6c4.3-0.1,8.7,0,13,0.1c1.2-1,0.6-2.4,0.6-3.5c0-13.3,0-26.7,0-40
		c0-1.4-0.3-2.8,0.3-4.2c-0.1-2.2,1-3.3,3.1-3.7c5.8-0.8,11.7-0.2,17.5-0.3c6.2-0.2,12.4,0.3,18.7-0.3c2.6-0.7,4.7-2.8,7.4-3.3
		c0.8-0.6,1.4-1.4,2.5-1.2c0.3-0.1,0.5-0.1,0.8-0.2c0.8,0.3,1.2,0.9,1.1,1.8c-0.7,1.7-2.4,2.2-3.9,2.9c-7.1,3.2-14,6.7-21.2,9.8
		c-1.1,0.5-2.1,1.1-3.2,1.4c-0.6,0.1-1.2,0.1-1.8,0c-5.1-0.4-10.3-0.5-15.4,0.1c-1.1,0.4-2.1,1-2.5,2.2c-0.7,5-0.2,9.9-0.2,14.9
		c0,5.9,0,11.7,0,17.6c0,4.8,0.2,5,4.9,5.1c0.9,0,1.8,0,2.7,0.1c4.4,0.3,6.3,2.2,6.1,6.6c-0.2,3.8,0.5,7.6-0.3,11.4
		c0.3,2.7-0.2,5.3,0.2,8c0.1,0.4,0.3,1,0.5,0.9c0.7-0.2,0.2-0.8,0.1-1.1c-1-2.3-0.6-4.8-0.7-7.2c0.8-6.3,7.5-11.3,13.8-10.6
		c6.6,0.8,12,7.2,12,13.8c0,2.1-2,3.6-1.6,5.7c15.3,0.2,30.6,0,45.9,0.1c1.9,0,3.8-0.2,5.7,0.3c0.5,0.2,0.8,0.5,1.1,0.9
		c-1,2.1-2.9,1.3-4.4,1.3c-15.3,0.1-30.7,0.1-46,0c-2.7,0-5.3,0.7-8,0.2c-2.5-1.8-0.1-3.1,0.7-4.4c2.7-4.5,2.4-8-1.3-11.3
		c-2.8-2.5-6.4-3-9.6-1.2c-2.9,1.6-4.6,5.4-4.1,8.8c0.5,3.7,3.1,6.2,6.8,6.8c1.8,0.3,3.9-0.4,5.5,1.2
		C104.3,208.7,104.2,209.2,103.9,209.7z"/>
	<path class="st2" d="M103.9,209.7c-0.1-0.7-0.1-1.4-0.2-2.1c0.3-0.7,0.7-0.9,1.4-0.5c0.8,0.3,1.7,0.9,2.5,0.8
		c17.9-1.6,35.8-0.2,53.7-0.7c1.1,0,2.3,0.4,3.1-0.8c0.6-5.6,0.4-11.2,0.4-16.8c0-6.6,0-6.6-6.8-6.6c-4.2,0-8.4,0.4-12.5-0.9
		c-5.3-1.7-8.3-6.3-7.5-11.8c0.7-5.5,4.4-9,9.9-9.4c4.1-0.3,8.2,0,12.2-0.1c1.5,0,3.1,0.2,4.5-0.5c0.5-0.4,1-0.9,1-1.6
		c-0.1-6,0.5-12-0.3-18c-0.6-1.4-1.7-2.3-3.1-2.8c-12-0.6-24,0-35.9-0.3c-1.8,0-4,0.7-4.9-1.7c2.1-1.9,4.7-1.1,7.1-1.2
		c11.5,0.2,23,0.1,34.5,0.1c0.4,0,0.8,0,1.2,0.1c2.9-0.1,1.5-1.8,1.2-3.1c-0.8-1.2-1.8-1.9-3.2-2.3c-3.9-0.6-7.7-0.2-11.6-0.3
		c-0.9,0-1.8,0-1.9,1.3c0,1.4,2,2.9-0.1,4.3c-0.6,0.2-1.1,0.2-1.6,0c-2.7-1.7-3.7-4.7-5.2-7.2c-1.7-2.9-3.9-5.2-7.1-6.3
		c-1.3-0.6-2.6-0.6-3.9,0c-1.2,0.5-2.3,1-3.6,0.5c-0.7-0.3-1.1-0.9-1.2-1.7c0.3-0.9,1.2-0.5,1.7-1c1-0.3,1.9-0.6,2.9-1
		c1.7-0.5,3.3-0.5,5,0c4.8,1.1,7.4,4.8,9.8,8.6c5.1,0.6,10.3,0.1,15.4,0.3c1.4,0,2.8-0.2,4.1,0.3c3,1.4,3.6,4.1,3.6,7
		c0,7.9,0,15.8,0,23.7c0,2-0.1,3.6,2.5,4.2c2.3,0.6,3.2,2.7,3.3,5.1c0.1,2.3,0,4.6,0,6.9c0,4.8-0.7,5.8-5.2,7.7
		c-1.4,0.9-0.7,2.3-0.7,3.5c-0.1,5.6,0,11.2-0.1,16.9c-0.1,4.8-1.9,6.7-6.8,6.7c-17.6,0-35.3,0-52.9,0
		C106.9,208.8,105.4,209.1,103.9,209.7z"/>
	<path class="st3" d="M209.5,210c-1.7,0.9-3.4,0.7-5.1-0.1c-1.7-0.8-3.5-1.5-5.3-2.2c-2-0.8-4-2.5-4.8,1.4c-0.3,1.4-1.9,1.9-3.4,1.9
		c-5.9,0-11.7,0.1-17.6,0c-3-0.1-4.2-1.7-4.2-4.7c0-1.3,0.4-2.5,0.8-3.7c1.3-1.1,2.9-1.5,4.6-1.4c2.5,0.1,5.1-0.1,7.6,0
		s4.3,0.1,4.9-3.3c0.6-3.7,3-4.5,6.6-3.1c4.2,1.7,8.4,3.5,12.7,5.3C212.5,202.8,213,204.3,209.5,210z"/>
	<path class="st4" d="M197.8,15c0-6.1,4.4-11.5,10.3-12.6c6.2-1.1,12.5,2.6,14.5,8.6c2,5.9-0.6,12.4-6.3,15.3
		c-2.3,1.2-4.9,1.7-4,5.2c0.1,0.5-0.2,1.4-1,1.3c-0.8-0.1-0.9-0.9-0.8-1.5c0.6-3-1.1-3.4-3.5-4C201.5,25.8,197.8,20.6,197.8,15z"/>
	<path class="st5" d="M201.2,37.6c2.1,0.8,2.2,2.6,2.2,4.4c0,5.4,0.1,10.7,0,16.1c-0.1,3.7-1.4,5-5.1,5.1c-0.8,0-1.5,0-2.3,0
		c-4.4,0-4.4,0-4.7,4.6c0,0.6,0.4,1.8-0.7,1.8c-1,0-0.7-1.1-0.8-1.8c-0.1-0.6-0.1-1.3,0-1.9c0.3-2.3-0.8-2.7-2.9-2.7
		c-9.8,0.1-19.6,0.1-29.5,0c-1.6,0-3.4,0.4-4.7-1c0.5-0.9,1.3-1.3,2.2-1.6c9.4-0.8,18.8-0.2,28.3-0.3c4.3-0.1,8.7,0,13,0
		c2.3,0,3.7-1,3.6-3.4c-0.1-5.8,0.6-11.7-0.6-17.5C199.4,38,200.3,37.7,201.2,37.6z"/>
	<path class="st6" d="M227.4,39.5c3.9-0.1,7.1,2.9,7.2,6.9c0.1,3.9-3,7.2-6.9,7.2c-3.8,0.1-7.1-3.1-7.2-6.9
		C220.4,42.8,223.5,39.6,227.4,39.5z"/>
	<path class="st7" d="M148.7,75.9c0,3.3-2.7,6.1-6,6.1s-6-2.7-6.1-6.1c0-3.4,2.6-6.1,6-6.1C145.9,69.8,148.7,72.5,148.7,75.9z"/>
	<path class="st8" d="M201.2,37.6c-0.4,0.7-1.1,0.8-1.7,0.9c-1.6,1.4-3.6,1.1-5.5,1.1c-11.1,0-22.2,0-33.3,0c-5.9,0-6.6,0.8-6.6,6.6
		c0,5.1-0.1,10.2,0.3,15.3c-0.4,0.6-0.9,0.7-1.5,0.7c-1.6-0.9-1.5-2.4-1.6-3.9c0-5.4,0-10.9,0-16.3c0-1.8,0.2-3.6,2.2-4.3
		s4-0.3,6.1-0.3c12.6,0,25.2,0,37.9,0C198.7,37.2,200.1,36.9,201.2,37.6L201.2,37.6z"/>
	<path class="st9" d="M14.4,35.5c3-0.1,5.7,2.6,5.6,5.6c-0.1,2.9-2.6,5.4-5.4,5.4C11.6,46.7,8.9,44,9,41C9,38.1,11.5,35.6,14.4,35.5
		z"/>
	<path class="st10" d="M7.6,83c-2.2,0-4.1-1.8-4.2-4c-0.1-2.3,1.9-4.4,4.3-4.4s4.3,2,4.2,4.4C11.7,81.2,9.9,83,7.6,83z"/>
	<path class="st11" d="M71.5,131c0,15,0.1,30.1,0.1,45.1c0,1,0.3,2.1-1,2.6c0.7-1.3,0.4-2.8,0.4-4.2c0-13.2,0-26.3,0-39.5
		C71,133.8,70.6,132.3,71.5,131z"/>
	<path class="st5" d="M201.2,37.6c-15.9,0-31.8,0-47.7,0c1-1.1,2.4-0.7,3.6-0.7c13.5,0,27,0,40.5,0
		C198.9,36.8,200.2,36.5,201.2,37.6z"/>
	<path class="st12" d="M134.1,104.1c-0.3-2.3,0.8-3.8,1.9-5.4c0.5-0.6,1-1.8,2.1-1c0.8,0.6,0.1,1.4-0.4,2c-1,1.5-2.2,3,1.1,1.9
		c0.2-0.1,0.7,0.3,0.9,0.5c0.4,0.6-0.1,1-0.5,1.3c-0.9,0.6-1.9,1.2-2.9,1.8c-0.7,0.4-1.3,1.5-2.3,1
		C132.9,105.6,134,104.7,134.1,104.1z"/>
	<path class="st13" d="M110.7,126.7c-0.9,1-2.1,0.6-3.2,0.6c-11,0-21.9,0-32.9,0c1-0.9,2.2-0.7,3.3-0.7
		C88.8,126.7,99.7,126.7,110.7,126.7z"/>
	<path class="st14" d="M166.6,98.6c-1-0.3-1.2-0.7-0.8-1.4c0.1-0.3,1-0.7,0.2-1.1c-0.7-0.4-2.1-0.2-1.8-1.4c0.3-1.2,1.7-0.7,2.7-0.8
		c0.3,0,0.6-0.1,0.8,0c1.2,0.6,2.4-2,3.6-0.1c0.3,0.5,0.3,1.3-0.2,1.7C169.5,96.5,168,97.6,166.6,98.6z"/>
	<path class="st15" d="M72.5,66.3c0.4,0,0.8,0,1.1,0c0.8,0.1,2.1-0.3,2,1c0,0.7-1.3,0.6-2,0.5c-2.4-0.4-3.2,0.7-3,3
		c0.1,1,0.5,2.8-1.1,2.7c-1.5-0.1-1-1.8-1-2.9C68.4,66.3,68.4,66.3,72.5,66.3z"/>
	<path class="st16" d="M119.3,111.2c-2.5,0.1-5.2-3.1-4.7-5.4c0.1-0.5,0.3-0.6,0.7-0.7c0.6-0.2,1,0.3,1.2,0.7
		c0.8,1.5,1.9,2.6,3.5,3.3c0.8,0.4,1.8,0.9,1.4,1.9C121,111.9,120,111.2,119.3,111.2z"/>
	<path class="st17" d="M47.4,91.3c0.3,0.7-0.3,1.6-0.5,1.4c-1.4-1.7-4-0.7-5.2-2.1c-0.6-0.7,0.9-0.8,1.5-0.8c1.7,0,1.3-1.1,1.3-2.1
		c0-0.7-0.2-1.7,0.9-1.7c0.8,0,0.8,0.8,1,1.4C46.7,88.6,47.1,90,47.4,91.3z"/>
	<path class="st18" d="M107.4,108.8c-0.8,0-1.3,0-1.8,0c-0.8,0-1.8,0-1.8-0.9s1-0.9,1.8-0.9c0.5,0,1-0.1,1.5,0
		c1.3,0.2,3.5-0.7,3.5,0.9S108.3,108.3,107.4,108.8z"/>
	<path class="st19" d="M190,95.7c-0.6,0-1.3,0-1.9,0c-0.6,0-1.4-0.2-1.3-1c0-0.5,0.6-0.8,1.2-0.8c1.3,0,2.5-0.1,3.8-0.1
		c0.8,0,2-0.2,2,1.1c0,0.9-1.1,0.8-1.9,0.8C191.3,95.8,190.6,95.8,190,95.7C190,95.8,190,95.7,190,95.7z"/>
	<path class="st20" d="M70.7,47.4c-0.4,1.3,0.7,3.6-1.1,3.5c-1.6,0-0.8-2.3-0.9-3.6c0-1.2-0.6-3.2,0.8-3.2
		C71.5,44.1,70.2,46.3,70.7,47.4z"/>
	<path class="st21" d="M179.1,95.9c-1.2-0.6-3.5,0.8-3.5-1.2c0-1.4,2.2-0.8,3.3-0.8c1.2,0.1,3.4-0.9,3.4,1.1
		C182.3,96.4,180.2,95.4,179.1,95.9z"/>
	<path class="st22" d="M156.2,93.9c0.7,0,1.1,0,1.5,0c0.8,0,2.1-0.2,2.2,0.9c0.1,1.2-1.2,0.9-2,1c-0.4,0-0.8,0.1-1.1,0
		c-1.3-0.3-3.5,0.7-3.5-0.9C153.1,93.1,155.4,94.3,156.2,93.9z"/>
	<path class="st23" d="M70.6,59c0,0.5,0,1,0,1.5c0,0.7,0,1.7-1,1.6c-0.7,0-0.9-0.8-0.9-1.5c0-1.3,0-2.5,0-3.8c0-0.7,0-1.7,1-1.6
		c0.9,0.1,0.8,1.1,0.8,1.8C70.6,57.8,70.6,58.4,70.6,59z"/>
	<path class="st24" d="M68.5,91.7c0.2-1.3-0.2-2.7,1.3-2.7c1.1,0.1,0.9,1.3,0.9,2.2c0,0.1,0,0.3,0,0.4c-0.4,1.5,1.4,4.2-0.3,4.3
		C68.1,96,69.4,92.9,68.5,91.7z"/>
	<path class="st25" d="M70.6,81.4c0,0.7,0,1.2,0,1.7c0,0.8-0.2,1.8-1,1.7c-0.8,0-1-1-1-1.8c0-0.5-0.1-1,0-1.5
		c0.2-1.3-0.6-3.6,0.8-3.6C71.6,78,70.1,80.4,70.6,81.4z"/>
	<path class="st25" d="M96.1,108.8c-0.9,0-1.4,0-1.9,0c-0.8,0-1.8,0-1.8-0.9s1-1,1.7-1c0.5,0,1-0.1,1.5,0c1.3,0.3,3.7-1,3.7,1.1
		C99.4,109.5,97,108.3,96.1,108.8z"/>
	<path class="st26" d="M86,108.7c-1.4-0.8-4.8,0-4.5-1.9c0.4-2.3,3.1,0.2,4.8-0.1c0.8-0.2,2,0,2,1.2C88.2,109,87.1,108.8,86,108.7z"
		/>
	<path class="st13" d="M164.7,127.3c-5.8,0-11.6,0.1-17.4,0.1c-0.8,0-1.5,0-2.1-0.7c5.4,0,10.8,0,16.2,0
		C162.6,126.7,163.8,126.5,164.7,127.3z"/>
	<path class="st27" d="M173,74.8c0-0.8,0-1.5,0-2.1c0-0.7,0.2-1.4,0.9-1.4s0.9,0.8,0.9,1.5c0,0.6,0.1,1.3,0,1.9
		c-0.2,1.2,0.5,3.3-0.8,3.3C172,78,173.5,75.8,173,74.8z"/>
	<path class="st28" d="M144.8,95.9c-0.8,0.1-1.3,0.2-1.8,0.2c-0.6,0-1.4,0.1-1.4-0.8c0-0.8,0.6-1,1.2-1.1c0.4-0.1,0.7-0.2,1.1-0.2
		c1.6,0,4.4-1.2,4.6,0.8C148.7,96.8,145.9,95.3,144.8,95.9z"/>
	<path class="st29" d="M198.9,95c-0.3-0.2-0.7-0.3-0.9-0.5c-0.4-0.5-0.1-1,0.3-1.3c0.4-0.3,0.9-0.5,1.4-0.6c1.5-0.4,2.6-2,4.4-1.7
		c0.2,0,0.4,0.8,0.3,0.9C203.1,93.7,201,94.1,198.9,95z"/>
	<path class="st30" d="M147.6,102.1c-1.4-0.4-3.5,0.6-3.5-0.8c-0.1-1.9,2.1-1.1,3.3-1.1c1.2-0.1,3.3-0.6,3.3,0.7
		C150.7,103.1,148.4,101.3,147.6,102.1z"/>
	<path class="st31" d="M157.3,102c-0.9-0.1-1.9,0.3-2.1-0.7c-0.3-1.3,1-1.2,1.7-1.3c0.7-0.1,1.5-0.2,2.3-0.2c1,0,2.6-1.2,2.8,0.5
		c0.2,1.5-1.7,1.1-2.6,1.5C158.7,102,157.9,101.9,157.3,102z"/>
	<path class="st12" d="M74.1,99.1c-0.3,2.3,1.9,2.7,3,4c0.4,0.5,1,1,0.5,1.6c-0.5,0.7-1.2,0.4-1.6-0.1c-1.7-1.6-4.4-2.5-3.6-5.7
		C72.9,98.5,73.5,98.6,74.1,99.1z"/>
	<path class="st31" d="M106.6,98.3c2,0.6,3.8,1.5,5.4,2.9c0.2,0.2,0.3,0.7,0.1,1c-0.2,0.5-0.7,0.7-1.2,0.4c-1.6-0.8-3.2-1.6-4.7-2.4
		c-0.4-0.2-0.8-0.7-0.4-1.2C106,98.6,106.4,98.4,106.6,98.3z"/>
	<path class="st12" d="M55,99.1c-1.8-0.3-3.4-0.9-4.9-2c-0.4-0.3-0.7-0.8-0.3-1.3c0.3-0.5,0.9-0.6,1.3-0.3c1.3,0.8,2.8,1.3,4.2,1.7
		c0.7,0.2,1.2,0.6,0.9,1.4C56.1,99.1,55.6,99.1,55,99.1z"/>
	<path class="st32" d="M207.5,88.3c-0.1-0.2-0.6-0.5-0.6-0.7c0.8-2,1.7-3.9,3.1-5.6c0.1-0.1,0.7,0,1,0.1c0.1,0,0.2,0.2,0.2,0.3
		C211.7,83.7,208.7,88.5,207.5,88.3z"/>
	<path class="st33" d="M172.3,89c0.2-1.8,0.4-3.7,0.6-5.5c0.1-0.5,0.4-1,0.9-1.1c0.8-0.1,1.1,0.6,1.1,1.2c-0.2,1.9-0.1,3.8-1.2,5.4
		C173.2,89.5,172.7,89.5,172.3,89z"/>
	<path class="st34" d="M128.3,114.1c0.6-1.7,0.8-3.5,2.2-4.7c0.2-0.2,0.8-0.3,0.9,0.1c0.7,1.9-1,3.3-1.1,5c-0.1,0.7-0.3,1.7-1.3,1.5
		C127.9,115.7,128.3,114.7,128.3,114.1z"/>
	<path class="st30" d="M210.5,63.1c0.5-1.2-0.8-3.4,1.1-3.4c1.4,0,0.8,2.1,0.7,3.3s0.9,3.4-1,3.5C209.9,66.4,210.8,64.3,210.5,63.1z
		"/>
	<path class="st35" d="M86.6,97.2c1.3,0.6,3.6-0.6,3.6,1.1c0,1.6-2.2,0.7-3.5,0.8c-1.1,0.1-3.2,0.5-3.2-0.7
		C83.4,96.3,85.7,98.1,86.6,97.2z"/>
	<path class="st33" d="M172.3,89c0.5,0,0.9,0,1.4,0c0.8,1.2,2.1,0.5,3.2,0.7c0.5,0.1,1.4-0.2,1.3,0.8c-0.1,0.9-0.9,0.7-1.5,0.7
		c-1.3,0-2.5,0.1-3.8,0C171,91,172.1,89.9,172.3,89z"/>
	<path class="st36" d="M74.1,99.1c-0.6,0-1.2-0.1-1.7-0.1c-0.9-2,0.8-1.7,1.7-1.5c1.7,0.3,4.5-1.2,4.8,1.1
		C78.9,99.8,75.7,99.1,74.1,99.1z"/>
	<path class="st37" d="M210.5,74.5c0-1,0-1.6,0-2.2c0.1-0.6,0-1.4,0.9-1.4s0.8,0.8,0.9,1.4c0.1,0.6,0.1,1.3,0,1.9
		c-0.2,1.2,0.7,3.5-0.9,3.4C209.5,77.5,211.2,75.2,210.5,74.5z"/>
	<path class="st13" d="M127.6,119.1c-0.3,0.6-0.9,0.7-1.5,0.7c-0.4,0.7-0.9,1.2-1.8,0.6c0.2-1.3,0-2.5-0.4-3.8
		c-0.2-0.7-1-1.9,0.4-2.2c1.2-0.2,1.1,1.1,1.5,1.8C126.4,117.2,125.4,119.1,127.6,119.1z"/>
	<path class="st38" d="M212.4,40.5c-0.4,1.2,0.6,3.3-0.8,3.3c-1.9,0-0.9-2.2-1-3.3s-0.7-3.2,0.7-3.2C213.1,37.2,212,39.4,212.4,40.5
		z"/>
	<path class="st39" d="M210.5,51.8c0-0.8,0-1.5,0-2.1s0.1-1.4,0.9-1.3c0.8,0,0.8,0.8,0.8,1.4c0.1,0.6,0.1,1.3,0,1.9
		c-0.1,1.2,0.5,3.3-0.7,3.3C209.6,54.9,211,52.8,210.5,51.8z"/>
	<path class="st4" d="M64,99.2c-0.6,0-1.3,0-1.9,0c-0.6-0.1-1.4,0-1.3-0.9c0.1-0.8,0.8-0.8,1.4-0.8c1.1,0,2.3-0.1,3.4,0
		c0.8,0,2.1-0.3,2,1c-0.1,1.2-1.3,0.7-2.1,0.8C65,99.3,64.5,99.2,64,99.2L64,99.2z"/>
	<path class="st4" d="M98.2,99.2c-1-0.3-3.4,0.7-3.3-0.7c0-2,2.4-0.7,3.7-1c0.5-0.1,1,0,1.5,0c0.6,0,1.4,0,1.5,0.8
		c0.1,1.1-0.9,0.9-1.6,1C99.4,99.3,98.9,99.2,98.2,99.2z"/>
	<path class="st40" d="M133.6,111.4c0-0.6,0-1.3,0-1.9c0.1-0.6,0-1.4,0.9-1.3s0.8,0.8,0.8,1.4c0,1.2,0.1,2.5,0,3.8
		c0,0.7,0.2,1.7-0.9,1.7c-1-0.1-0.8-1.1-0.8-1.8C133.6,112.7,133.6,112,133.6,111.4z"/>
	<path class="st41" d="M189.9,77.7c0.4-0.9-0.8-2.9,0.9-2.9c1.1,0,0.4,2.1,0.5,3.3c0,0.4,0,0.8-0.1,1.1c-0.1,0.7-0.2,1.8-1.1,1.7
		c-0.9-0.2-0.4-1.2-0.4-1.9C189.8,78.6,189.8,78.2,189.9,77.7z"/>
	<path class="st42" d="M118.3,122.1c-0.5-2.2-1-4.3,0.3-6.4c0-0.1,0.2-0.1,0.3-0.1c0.1,0,0.2,0.2,0.3,0.3
		C119.2,118,120.8,120.3,118.3,122.1z"/>
	<path class="st32" d="M92.3,65.1c-0.9,0-1-0.6-0.6-1c0.4-0.5,0.9-1,1.4-1.2c1.2-0.6,1.4-2.6,3.2-2.1c0.1,0,0.2,0.5,0.1,0.6
		C95.4,63,94,64.3,92.3,65.1z"/>
	<path class="st10" d="M100,52.3c0,0.4,0,0.9-0.1,1.4c-0.1,0.6-0.1,1.5-0.9,1.4c-0.9-0.1-0.5-0.9-0.5-1.5c0-0.5,0-1,0.1-1.5
		c0.1-0.8-0.2-2.1,1.1-2C100.3,50.2,100,51.5,100,52.3z"/>
	<path class="st43" d="M83.4,67.8c-0.8,0-1.3,0-1.8,0c-0.4-0.1-1.1,0-1-0.7c0-0.2,0.5-0.5,0.9-0.5c0.6-0.1,1.3-0.2,1.9,0
		c1.1,0.2,3.2-1.1,3.2,0.3C86.6,68.4,84.3,67.3,83.4,67.8z"/>
	<path class="st13" d="M118.3,122.1c1.7-1.9,0.4-4.2,0.9-6.2c1.8,1.8-0.6,4.6,1.5,6.4c-0.7,0.7-1.6,1-2.5,1.2
		C118.2,123,118.2,122.5,118.3,122.1z"/>
	<path class="st1" d="M124.3,120.4c0.6-0.2,1.2-0.4,1.8-0.6c0.3,0.5,0.5,1.1,0.8,1.6c-0.1,1.7-1.2,2.1-2.6,1.8
		c-0.9-0.5-1.1-1.2-0.5-2.1C123.9,120.9,124.1,120.6,124.3,120.4z"/>
	<path class="st17" d="M34,90.4c-0.5-0.1-1-0.2-1.4-0.5c-0.7-0.4-2.2-0.7-1.7-1.6c0.7-1.4,1.6,0.1,2.4,0.3c0.8,0.2,1.6,0.7,2.4,1
		C35.3,90.4,34.5,90,34,90.4z"/>
	<path class="st44" d="M186.4,87.9c-0.6,0.8-1.5,1.4-2.7,1.2c-0.3-0.1-1-0.1-0.5-0.6c0.8-0.7,1.9-1.2,2.9-1.6
		C186.3,86.8,186.6,87.2,186.4,87.9z"/>
	<path class="st2" d="M123.7,121.1c0.1,0.7,0.2,1.4,0.9,1.7c-0.2,1.6-1.2,1.4-2.3,1.1c-0.3-0.6-0.6-1.2-0.9-1.8
		C122.1,121.6,122.7,121,123.7,121.1z"/>
	<path class="st31" d="M26.2,82.3c-0.2-0.6-0.6-1.2-0.6-1.8c-0.1-0.8-0.6-2.2,0.4-2.3c1.6-0.1,0.8,1.4,1,2.3
		C26.4,81,26.9,81.9,26.2,82.3z"/>
	<path class="st31" d="M26.2,82.3c0.1-0.7,0.1-1.3,0.8-1.7c0.2,0.6,0.5,1.1,0.6,1.7c0.1,0.7,1.1,1.8-0.3,2
		C26.4,84.4,26.3,83.2,26.2,82.3z"/>
	<path class="st13" d="M135.4,118.1c-1.7,0-3.3,0-5,0C132.1,117.3,133.8,117.2,135.4,118.1z"/>
	<path class="st45" d="M34,90.4c0.6-0.2,1.1-0.5,1.7-0.7c0.5,0,1,0.1,1.1,0.6c0,0.2-0.5,0.6-0.7,0.6C35.3,90.8,34.7,90.6,34,90.4z"
		/>
	<path class="st46" d="M165.6,161.9c-5.9,0-11.7-0.2-17.6-0.1c-5.2,0.2-8.8,3.9-9.2,9s2.8,9.5,8,10.5c5,0.9,10.2,0.3,15.3,0.4
		c4,0.1,4,0,4,4.2c0,5.4-0.1,10.7,0,16.1c0,1.8-0.5,3.2-1.7,4.5c-0.3,0-0.5-0.1-0.8-0.1c-5.8-0.6-11.7-0.2-17.5-0.2
		c-10.8-0.1-21.6,0-32.4,0c-1.2,0-2.5,0.3-3.7-0.3c0.9-1.5,1-3.4,2.5-4.6c1.5-1.2-0.2-2-0.4-2.9c-1.5-7.3-5.3-11.1-11.2-11.5
		c-5.6-0.4-10,3.1-12.5,9.8c-0.4,0.5-0.9,0.5-1.3,0c-0.2-0.4-0.8-1-0.7-1.3c1.8-3.6-0.5-7.3,0.5-11.1c0.8-3.1-1.1-5.1-4.3-5.4
		c-0.4,0-0.8,0-1.1,0c-2.6-0.2-6.1,1.2-7.6-0.7c-1.3-1.6-0.4-4.9-0.5-7.4c-0.1-5.1-0.1-10.2-0.2-15.3c0.8-5.4-0.1-10.9,0.5-16.3
		c0.5-1.1,1.3-1.6,2.5-1.7c0.9-0.4,1.8-0.4,2.7,0.2c1.1,0.9,2.5,1.2,3.9,1.2c25,0,50,0.1,75-0.1c0.3,0,0.5-0.1,0.7-0.1
		c0.4-0.2,0.8-0.4,1.1-0.6c0.3-0.3,0.7-0.5,1-0.7c1-0.1,2-0.3,3,0.2c0.8,0.8,1.6,1.6,2.5,2.4c0.5,7.1,0.1,14.2,0.2,21.3
		C166.3,161.6,165.9,161.6,165.6,161.9z"/>
	<path class="st47" d="M122.3,123.9c0.8-0.2,1.8,0,2.3-1.1c1.1,0.1,1.8-0.5,2.3-1.4c1.3-0.3,2.5-0.6,3.8-0.9
		c1.3-0.6,2.5-0.5,3.8-0.1c5.5,1.2,7.3,6.1,9.9,10.1c0.8,1.3,1.6,2.5,2.5,3.8c-0.4,2-2,1-3.1,1.1c-5.2,0.3-10.4-0.3-15.6,0.4
		c-2.2-0.2-4.4-0.1-6.6,0.1c-0.8,0.8-1.8,1-2.8,1c-5.9,0.2-11.7-0.2-17.6,0.7c-1.3,0.2-3.5,1-3.8-1.7c7.6-3.6,15.2-7.2,22.9-10.8
		C120.8,124.8,121.6,124.3,122.3,123.9z"/>
	<path class="st48" d="M105.1,207.1c-0.5,0-1.1,0.1-1.4,0.5c-7.9,2.6-14.6-3.9-12.7-11.4c0.9-3.8,4.2-6.5,8.2-7
		c3.6-0.5,7.4,1.5,9.3,4.8c2,3.5,1.7,7.6-0.9,10.7C106.8,205.6,105.9,206.3,105.1,207.1z"/>
	<path class="st49" d="M73.7,130.5c0.6-1.5,1.9-1.5,3.2-1.6c8.9-0.7,17.9-0.2,26.8-0.3c0.6,0,0.8,0.4,0.7,1.1
		c-3.9,1.6-7.8,3.4-11.4,5.5c-4.8,0.6-9.6,0.1-14.4,0.3c-1.4,0.1-2.8-0.4-4.1,0.4h-0.4h-0.4C73.2,134.1,73.4,132.3,73.7,130.5z"/>
	<path class="st50" d="M160.5,138.9c-0.7,1.2-1.8,0.8-2.7,0.8c-25.4,0-50.8,0-76.2,0c-1.5,0-3.3,0.4-3-2.1c4.8-1,9.6-0.6,14.5-0.2
		c0.5,0,1,0,1.6,0c8-0.5,16-1,24-0.6c12.6,0.6,25.2,0.1,37.9,0.4c1.4,0,2.8-0.5,4.1,0.5c0,0.2,0,0.5-0.1,0.7
		c-1.3,0.6-2.8,0.3-4.2,0.3c-24.7,0-49.4,0-74.1,0c-0.7,0-1.5-0.2-2.2,0.2c0.6-0.4,1.2-0.2,1.9-0.2c25.7,0,51.4,0,77.1,0
		C159.5,138.5,160,138.6,160.5,138.9z"/>
	<path class="st51" d="M77.5,193.6c-6.4-0.1-12.8-0.1-19.2-0.2c-1.8,0-3.7,0.2-3.7-2.5s1.9-2.6,3.7-2.6c6.4-0.1,12.8-0.1,19.2-0.2
		c0.2,0.1,0.3,0.2,0.5,0.3c0.8,1.4,0.7,2.9,0.3,4.4C78.1,193.2,77.9,193.4,77.5,193.6z"/>
	<path class="st52" d="M62.2,208.7c-6,0-12,0-17.9,0.1c-1.9,0-3.3-0.3-3.3-2.6s1.5-2.6,3.4-2.6c6,0.1,12,0.1,17.9,0.1
		C63.7,205.4,63.6,207,62.2,208.7z"/>
	<path class="st48" d="M77.5,185.7c-6.5,0-13,0.1-19.5,0.1c-1.7,0-3.2-0.2-3.3-2.3c-0.1-2.3,1.5-2.6,3.4-2.6
		c6.5,0.1,13,0.1,19.5,0.1C78.8,182.7,79.1,184.2,77.5,185.7z"/>
	<path class="st53" d="M62.2,201.1c-6,0-12,0-18,0.1c-1.9,0-3.3-0.3-3.2-2.7c0.1-2.2,1.6-2.3,3.2-2.3c6,0.1,12,0.1,18,0.1
		C63.6,198,63.6,199.5,62.2,201.1z"/>
	<path class="st13" d="M160.5,137.5c-17.1,0-34.3-0.1-51.4-0.1c-4.9,0-9.7-0.1-14.6-0.1c0.7-0.8,1.6-1.1,2.6-1.3
		c2.1,1.4,4.4,0.5,6.6,0.4c5.9-0.4,11.7-0.5,17.6-0.4c1.1,1.2,2.6,0.7,4,0.7c11.4,0,22.8,0,34.3,0c1.3,0,2.8-0.5,4,0.7
		C162.6,137.4,161.6,137.4,160.5,137.5z"/>
	<path class="st54" d="M110,205.7c16.7,0,33.3,0,50,0c1.2,0,2.6-0.4,3.6,0.6c-10.6,0.6-21.1,0.1-31.7,0.2c-7.3,0.1-14.5,0-21.8-0.1
		c-0.1,0-0.3-0.1-0.3-0.2S109.9,205.9,110,205.7z"/>
	<path class="st55" d="M65.5,203.7c1,0,2-0.1,3-0.1c1.8,0,2.5,0.8,2.5,2.6c0,1.7-0.6,2.7-2.4,2.6c-1,0-2,0-3-0.1
		C64,207,64.1,205.4,65.5,203.7z"/>
	<path class="st13" d="M104.4,129.7c-1-1.2-2.4-0.6-3.6-0.7c-8-0.1-16-0.1-23.9-0.1c0.4-0.6,1-0.7,1.7-0.7c8.7,0,17.4,0,26.1,0
		c0.7,0,1.9-0.2,1.7,0.9C106.3,129.9,105.2,129.6,104.4,129.7z"/>
	<path class="st56" d="M65.6,196.4c1,0,2,0,3-0.1c1.8-0.1,2.4,0.7,2.4,2.5c0,1.7-0.7,2.6-2.5,2.5c-1-0.1-2-0.1-3-0.1
		C64.1,199.5,64.1,198,65.6,196.4z"/>
	<path class="st57" d="M77.5,208.8c-2.1,0-4.7,1.1-4.3-2.9c0.3-3.7,2.8-1.8,4.4-2.1C79,205.4,79.1,207.1,77.5,208.8z"/>
	<path class="st58" d="M87,196.5c0.4,0,0.9,0,1.3,0c0,2.8,0,5.6,1.5,8.1c0.3,0.5,1.3,1.3,0.2,1.8c-0.9,0.4-2.5,0.8-2.9-0.7
		c-0.3-1.2-1.3-2.4-0.7-3.6C87.3,200.2,86.8,198.3,87,196.5z"/>
	<path class="st55" d="M77.2,201.4c-2.4,0-4.6-0.1-3.9-3.5c0.6-2.8,2.9-1,4.2-1.7c0.3,0.2,0.6,0.5,0.7,0.8c0.4,1.3,0.4,2.6-0.2,3.9
		C77.9,201.2,77.6,201.4,77.2,201.4z"/>
	<path class="st59" d="M80.9,188.1c1.3,0.5,3.2-0.2,3.7,1.9c0.6,2.4-0.2,3.2-3.7,3.7c-0.3-0.1-0.6-0.4-0.7-0.7
		c-0.4-1.4-0.4-2.7,0-4.1C80.3,188.5,80.6,188.2,80.9,188.1z"/>
	<path class="st60" d="M77.5,208.8c0-1.7,0.1-3.4,0.1-5l0.1-0.3c1-0.9,1.9-0.9,2.9,0l0.2,0.3c1.3,1.7,1.1,3.3,0.1,5
		C79.8,209.4,78.7,209.4,77.5,208.8z"/>
	<path class="st61" d="M80.9,208.7c0-1.7,0-3.3-0.1-5c2.1-0.2,3.9-0.1,3.8,2.7C84.6,209.1,82.7,208.9,80.9,208.7z"/>
	<path class="st62" d="M65.5,203.7c0,1.7,0.1,3.4,0.1,5.1c-1.1,1-2.2,0.7-3.3,0c0-1.7,0-3.3,0.1-5l0.1-0.3c1-0.9,1.9-0.8,2.9,0
		L65.5,203.7z"/>
	<path class="st63" d="M80.9,196.1c1.2,0.6,3.3-0.7,3.7,1.7c0.5,2.8-0.9,3.7-3.4,3.6c-0.4,0-0.7-0.2-0.9-0.5
		c-0.6-1.3-0.6-2.6-0.2-3.9C80.3,196.6,80.6,196.3,80.9,196.1z"/>
	<path class="st64" d="M80.8,181.1c1.9-0.2,3.8-0.3,3.8,2.3c0.1,2.7-1.9,2.6-3.7,2.4C79.3,184.2,79.7,182.7,80.8,181.1z"/>
	<path class="st65" d="M65.6,196.4c0,1.6,0,3.2,0,4.7l-0.1,0.3c-1,0.6-2.1,0.6-3.1,0l-0.1-0.3c0-1.6,0-3.1,0-4.7
		C63.3,195.7,64.5,195.7,65.6,196.4z"/>
	<path class="st66" d="M80.8,181.1c0,1.6,0.1,3.1,0.1,4.7l-0.1,0.3c-1,0.6-2.1,0.6-3.1,0l-0.1-0.3c0-1.6,0.1-3.1,0.1-4.7
		C78.7,180.8,79.7,180.8,80.8,181.1z"/>
	<path class="st13" d="M74.6,135.8c1.5-1.4,3.4-0.7,5.1-0.7c4.4-0.1,8.9,0,13.3,0c-2.1,1.4-4.4,0.6-6.6,0.6
		C82.4,135.9,78.5,135.8,74.6,135.8z"/>
	<path class="st13" d="M93,137.3c-4.8,0.1-9.6,0.2-14.5,0.2c-0.8-0.1-1.6-0.2-2.4-0.3C81.8,136.2,87.4,136.2,93,137.3z"/>
	<path class="st13" d="M73.7,138.9c-0.4,5.4,0.5,10.9-0.5,16.3C73.3,149.8,72.4,144.3,73.7,138.9z"/>
	<path class="st67" d="M77.5,196.1c0-0.8,0-1.7,0-2.5c0.1-0.1,0.1-0.2,0.2-0.3c1-0.7,2-0.7,3,0c0.1,0.1,0.1,0.2,0.2,0.3
		c0,0.8,0,1.7,0,2.5c-0.1,0.1-0.1,0.3-0.2,0.4c-1,0.8-2,0.8-3,0C77.7,196.4,77.6,196.3,77.5,196.1z"/>
	<path class="st68" d="M80.7,201c0.2,0.1,0.4,0.2,0.6,0.3c-0.2,0.7-0.4,1.4-0.6,2.1c-1,0-1.9,0-2.9,0c-0.2-0.7-0.4-1.4-0.6-2
		c0.2-0.2,0.4-0.3,0.6-0.3C78.7,200.3,79.7,200.3,80.7,201z"/>
	<path class="st69" d="M62.3,201.4c1,0,2.1,0,3.1,0c0,0.7-0.1,1.3-0.1,2c-1,0-1.9,0-2.9,0C62.4,202.7,62.4,202.1,62.3,201.4z"/>
	<path class="st70" d="M77.7,186c1,0,2.1,0,3.1,0c0,0.7,0.1,1.4,0.1,2c-0.1,0.1-0.1,0.3-0.2,0.4c-1,0.5-2,0.5-3,0
		c-0.1-0.1-0.1-0.3-0.2-0.4C77.6,187.4,77.6,186.7,77.7,186z"/>
	<path class="st11" d="M73.7,130.5c0,1.8,0.1,3.6,0.1,5.3C72.4,134.1,72.8,132.3,73.7,130.5z"/>
	<path class="st71" d="M56.9,52.3C56,51.6,55,51.7,54,51.7c-12.2,0-24.5,0-36.7,0c-0.9,0-1.8-0.1-2.6,0.6c-0.8,0.1-1.3,0.6-1.5,1.5
		c-0.9,6.1-0.9,12.2,0,18.4c0.2,1.1,0.8,1.6,1.8,1.7c1.3,0.8,2.7,0.5,4.1,0.5c7.5,0,15,0,22.5,0c1.6,0,2.9-0.1,2.8,2.3
		c-0.1,1.6-1.3,4.6,1,4.7c1.5,0.1,0.7-3.1,0.7-4.7c0-1.8,0.5-2.4,2.3-2.4c2.6,0,5.3,0.6,7.9-0.4c1.9-0.4,2.2-1.9,2.2-3.5
		c0-4.8,0-9.7,0-14.5C58.7,54.3,58.6,52.9,56.9,52.3z"/>
	<path class="st72" d="M158.4,164c3.1,0,6.1,0.1,9.2,0c2.8-0.1,4.3,1.2,4.3,4.1c0,2.4,0,4.9,0,7.3c0,2.5-1.2,3.9-3.7,3.9
		c-6.6,0-13.3,0.2-19.9-0.1c-4.5-0.2-7.4-3.6-7.2-7.8c0.1-4.2,3.2-7.1,7.8-7.3C152,163.9,155.2,164,158.4,164L158.4,164z"/>
	<path class="st49" d="M165.2,135.9c-0.2-0.1-0.4-0.1-0.7-0.1c-4.5-0.8-9-0.1-13.5-0.4c-0.8-0.1-2.4,1-2.5-1
		c1.3-1.8-1.3-2.5-1.1-3.9c-0.5-1.4,0.2-1.9,1.4-1.9c4.7,0.1,9.3-0.4,14,0.3c1.5,0.2,2.4,1.2,3.2,2.4
		C166,132.9,167.4,134.7,165.2,135.9z"/>
	<path class="st13" d="M148.5,134.4c2.1,1.5,4.4,0.4,6.6,0.7c3.1,0.4,6.3-0.7,9.4,0.7c-12.1,0-24.3,0-36.4,0
		c4.9-1.1,9.9-0.4,14.8-0.7c1.3-0.1,2.8,0.6,3.9-0.7C147.4,134.3,148,134.4,148.5,134.4z"/>
	<path class="st13" d="M165.6,161.9c1-5.5,0.1-10.9,0.4-16.4c0.1-1.9,0.1-3.8,0.1-5.7c1.2,1.6,0.6,3.4,0.6,5.1
		c0.1,4.6,0.1,9.1,0,13.7C166.7,159.7,167.3,161.2,165.6,161.9z"/>
	<path class="st13" d="M162.9,128.9c-4.2,0-8.3,0-12.5,0.1c-1.2,0-2.7-0.5-2.9,1.4c-0.9-1-0.9-2.2,0.5-2.1
		C152.9,128.4,158,127.3,162.9,128.9z"/>
	<path class="st13" d="M165.2,135.9c1.5-1.3,0.5-3.1,0.8-4.7c1.2,1.4,0.7,3,0.5,4.5C166.4,136.6,165.7,136.4,165.2,135.9z"/>
	<path class="st13" d="M134.5,120.4c-1.3,0-2.5,0.1-3.8,0.1C131.9,119.3,133.2,119.4,134.5,120.4z"/>
	<path class="st52" d="M181.8,208.8c-2.5,0-5.1,0-7.6,0c-1.9,0-2.9-0.6-2.8-2.7c0-1.8,0.9-2.5,2.6-2.5c4.8,0,9.7,0,14.5,0.1
		c0.9,0,1.7,0.4,2.5,0.7c1.2,0.4,1.9,1.2,1.7,2.6c-0.2,1.4-1.2,1.8-2.5,1.8C187.4,208.7,184.6,208.8,181.8,208.8z"/>
	<path class="st73" d="M209.1,205.5c-0.1,2.1-1.6,3.2-3.6,2.4c-5-2-9.9-4.1-14.8-6.1c-1.8-0.7-2.2-1.9-1.4-3.6
		c0.8-1.7,1.9-1.7,3.4-1c4.8,2.1,9.6,4,14.5,6C208.3,203.5,209.3,204,209.1,205.5z"/>
	<path class="st74" d="M220.4,15c0,5.5-4.5,9.9-10,9.9c-5.5-0.1-9.9-4.7-9.8-10.1c0.1-5.3,4.5-9.6,9.9-9.7C216,5,220.5,9.5,220.4,15
		z"/>
	<path class="st74" d="M154.4,61.5c-1.6-0.8-1.3-2.4-1.3-3.7c0-5-0.1-10,0-14.9c0-3.6,0.6-4.2,4.3-4.2c12.6,0,25.3,0,37.9,0
		c1.4,0,2.8-0.1,4.2-0.1c1.8,0.8,2.1,2.3,2.1,4.1c-0.1,4.7,0,9.5,0,14.2c0,4.3-0.4,4.6-4.6,4.6C182.8,61.4,168.6,61.4,154.4,61.5z"
		/>
	<path class="st75" d="M227.5,50.8c-2.3,0-4.1-1.7-4.2-4c-0.1-2.4,1.8-4.5,4.2-4.4c2.2,0,4.2,1.9,4.3,4.1
		C231.9,48.7,229.9,50.8,227.5,50.8z"/>
	<path class="st76" d="M142.8,79.1c-2.1-0.1-3.3-1.2-3.4-3c-0.1-1.9,1-3.2,2.9-3.3c2.1-0.1,3.4,1.1,3.5,3.2
		C145.9,77.8,144.7,78.9,142.8,79.1z"/>
	<path class="st77" d="M17.1,41.3c-0.5,1.6-1.4,2.6-3,2.4c-1.5-0.3-2.5-1.3-2.2-2.9c0.3-1.5,1.3-2.5,2.9-2.3
		C16.4,38.7,17.1,39.9,17.1,41.3z"/>
	<path class="st78" d="M8.9,78.7C8.8,79.5,8.4,80,7.5,80c-0.7-0.1-1.2-0.5-1.2-1.2c0-0.8,0.5-1.4,1.4-1.3C8.5,77.5,8.8,78,8.9,78.7z
		"/>
	<path class="st79" d="M134.5,22.3c0-1.8-1.1-2.8-2.6-3.4c-1.4-0.6-2.8-0.5-4.2-0.5c-19.1,0-38.1,0-57.2,0c-0.6,0-1.3,0-1.9,0
		c-3.5,0.3-4.7,1.6-4.7,5.1c0,3.6,0,7.2,0,10.7c0,5.6,0.8,6.5,6.4,6.5c9.6,0,19.2,0,28.8,0c3.5,0,6.9,0,10.4,0c6.7,0,13.3,0,20,0
		c2.6,0,5-0.6,5.1-3.9C134.5,32,134.5,27.2,134.5,22.3z"/>
	<path class="st74" d="M160.5,138.9c-25.9,0-51.9,0-77.8,0c-0.6,0-1.3,0-1.9,0c-0.3,0-0.7,0-0.7-0.5c0-0.1,0.4-0.2,0.7-0.2
		c0.6,0,1.3,0,1.9,0c25.9,0,51.9,0,77.8,0C160.6,138.4,160.6,138.6,160.5,138.9z"/>
	<path class="st80" d="M142.8,201.1c-0.9-0.3-2.6,0.5-2.5-0.8c0.1-1.4,1.8-0.8,2.8-0.8c0.8,0,2.5-0.6,2.3,0.9
		C145.3,201.6,143.8,200.9,142.8,201.1z"/>
	<path class="st81" d="M120.3,142.8c0.8,0.2,2.3-0.3,2.2,0.7c-0.2,1.5-1.8,0.7-2.7,0.8c-0.8,0.1-2.3,0.5-2.2-0.5
		C117.7,142.2,119.3,143.1,120.3,142.8z"/>
	<path class="st81" d="M130.9,142.8c1.1,0.3,2.7-0.4,2.8,0.7c0.1,1.4-1.5,0.8-2.3,0.8c-0.9,0-2.5,0.5-2.6-0.5
		C128.6,142.2,130.3,143.3,130.9,142.8z"/>
	<path class="st82" d="M86.2,144.4c-1-0.3-2.6,0.5-2.5-0.9c0.1-1.1,1.7-0.7,2.6-0.6c0.8,0,2.5-0.6,2.3,0.9
		C88.5,144.9,86.9,144,86.2,144.4z"/>
	<path class="st83" d="M153.9,201.1c-0.8-0.2-2.3,0.3-2.1-0.8c0.2-1.4,1.9-0.7,2.9-0.8c0.7,0,2.2-0.4,1.9,0.9
		C156.2,201.6,154.7,200.9,153.9,201.1z"/>
	<path class="st84" d="M131.6,201.1c-0.8-0.3-2.4,0.6-2.3-0.9c0-1,1.5-0.6,2.3-0.6c0.9,0,2.5-0.5,2.5,0.7
		C134.1,201.6,132.5,200.8,131.6,201.1z"/>
	<path class="st85" d="M120.4,199.5c0.8,0.3,2.4-0.6,2.3,0.9c0,1-1.5,0.7-2.3,0.6c-0.9-0.1-2.5,0.6-2.5-0.7S119.5,199.8,120.4,199.5
		z"/>
	<path class="st86" d="M108.8,144.3c-0.8-0.2-2.4,0.5-2.4-0.8s1.6-0.7,2.5-0.7c0.8-0.1,2.2-0.4,2.2,0.6
		C111.2,144.9,109.6,144,108.8,144.3z"/>
	<path class="st87" d="M142.4,142.8c0.8,0.3,2.4-0.5,2.5,0.8c0,1.2-1.6,0.7-2.4,0.7c-0.8,0-2.3,0.7-2.3-0.8
		C140.2,142.5,141.6,143,142.4,142.8z"/>
	<path class="st81" d="M154,144.3c-0.8-0.3-2.4,0.6-2.3-0.9c0-1,1.5-0.6,2.3-0.6c0.9,0.1,2.4-0.6,2.4,0.9
		C156.3,144.7,154.8,144.2,154,144.3z"/>
	<path class="st81" d="M97.5,144.4c-1-0.3-2.5,0.5-2.5-0.9c0-1,1.4-0.6,2.2-0.6c0.9,0.1,2.5-0.5,2.5,0.7
		C99.7,145,98.1,143.8,97.5,144.4z"/>
	<path class="st88" d="M163,144.3c-0.2-0.2-0.6-0.4-0.7-0.6c-0.1-0.7,0.4-0.8,0.9-0.8c0.3,0,0.7,0.3,0.8,0.6
		C164.2,144.2,163.5,144.1,163,144.3z"/>
	<path class="st89" d="M165.1,200.2c0,0.7-0.5,0.8-1,0.8s-1-0.1-1-0.8c0-0.6,0.5-0.8,1-0.8C164.6,199.5,165.1,199.7,165.1,200.2z"/>
	<path class="st90" d="M79,143.7c-0.2,0.6-0.7,0.7-1.2,0.6c-0.6,0-0.9-0.5-0.7-1c0.1-0.2,0.6-0.5,0.9-0.5
		C78.5,142.8,79.1,143,79,143.7z"/>
	<path class="st91" d="M77.7,188.5c1-0.5,2-0.4,3,0c0,1.6,0,3.2,0,4.8c-1,0-2,0-3,0C77.7,191.7,77.7,190.1,77.7,188.5z"/>
	<path class="st66" d="M80.7,201c-1,0-2,0-2.9,0c0-1.5,0-3,0-4.5c1,0,2,0,3,0C80.7,198,80.7,199.5,80.7,201z"/>
	<path class="st71" d="M144.5,171.8c0-2.2,2-4.1,4.2-4.1c2.2,0.1,4.2,2.1,4,4.3c-0.3,2.3-1.6,3.7-4,3.8
		C146.4,175.9,144.5,174,144.5,171.8z"/>
	<path class="st92" d="M150.7,171.7c-0.2,1.5-1,2.3-2.2,2.2c-1.3-0.1-2.1-0.9-2-2.2s0.9-2.1,2.2-2
		C150,169.7,150.6,170.6,150.7,171.7z"/>
</g>
<g>
	<path class="st93" d="M69.1,31.6c0.4,0.3,1.1,0.5,1.7,0.5c1,0,1.6-0.5,1.6-1.3c0-0.7-0.4-1.1-1.4-1.5c-1.2-0.4-2-1.1-2-2.1
		c0-1.2,1-2,2.4-2c0.8,0,1.3,0.2,1.6,0.4l-0.3,0.8c-0.2-0.1-0.7-0.4-1.4-0.4c-1,0-1.4,0.6-1.4,1.1c0,0.7,0.5,1,1.5,1.4
		c1.3,0.5,1.9,1.1,1.9,2.2c0,1.1-0.8,2.1-2.6,2.1c-0.7,0-1.5-0.2-1.9-0.5L69.1,31.6z"/>
	<path class="st93" d="M77.6,32.8l-0.1-0.7h0c-0.3,0.4-0.9,0.8-1.6,0.8c-1.1,0-1.6-0.8-1.6-1.5c0-1.3,1.1-2,3.2-2v-0.1
		c0-0.4-0.1-1.2-1.2-1.2c-0.5,0-1,0.2-1.4,0.4l-0.2-0.6c0.4-0.3,1.1-0.5,1.7-0.5c1.6,0,2,1.1,2,2.2v2c0,0.5,0,0.9,0.1,1.3H77.6z
		 M77.5,30.1c-1.1,0-2.3,0.2-2.3,1.2c0,0.6,0.4,0.9,0.9,0.9c0.7,0,1.1-0.4,1.3-0.9c0-0.1,0.1-0.2,0.1-0.3V30.1z"/>
	<path class="st93" d="M80.1,32.8v-4.6h-0.7v-0.7h0.7v-0.3c0-0.7,0.2-1.4,0.6-1.9c0.4-0.4,0.8-0.5,1.3-0.5c0.3,0,0.6,0.1,0.8,0.2
		l-0.1,0.7c-0.1-0.1-0.3-0.1-0.6-0.1c-0.8,0-1,0.7-1,1.5v0.3h1.3v0.7H81v4.6H80.1z"/>
	<path class="st93" d="M83.6,30.3c0,1.3,0.9,1.8,1.8,1.8c0.7,0,1.1-0.1,1.5-0.3l0.2,0.7c-0.3,0.2-0.9,0.3-1.8,0.3
		c-1.6,0-2.6-1.1-2.6-2.7c0-1.6,0.9-2.9,2.5-2.9c1.7,0,2.2,1.5,2.2,2.5c0,0.2,0,0.4,0,0.5H83.6z M86.4,29.6c0-0.6-0.3-1.6-1.3-1.6
		c-1,0-1.4,0.9-1.5,1.6H86.4z"/>
	<path class="st93" d="M95.6,32.8c-0.2-0.2-0.4-0.4-0.7-0.7c-0.6,0.6-1.4,0.8-2.2,0.8c-1.4,0-2.3-1-2.3-2.1c0-1,0.6-1.7,1.5-2.2v0
		c-0.4-0.5-0.6-1-0.6-1.6c0-0.9,0.6-1.8,1.9-1.8c0.9,0,1.6,0.6,1.6,1.6c0,0.8-0.5,1.4-1.6,2v0c0.6,0.7,1.3,1.5,1.8,2.1
		c0.3-0.5,0.6-1.2,0.7-2.2h0.9c-0.2,1.2-0.5,2.1-1.1,2.7c0.4,0.4,0.8,0.8,1.2,1.3H95.6z M94.4,31.5c-0.4-0.5-1.3-1.4-2.1-2.3
		c-0.4,0.3-1,0.7-1,1.5c0,0.8,0.6,1.5,1.5,1.5C93.5,32.2,94,31.9,94.4,31.5z M92.1,27c0,0.5,0.2,0.9,0.6,1.3
		c0.7-0.4,1.2-0.8,1.2-1.5c0-0.5-0.3-1-0.9-1C92.5,25.9,92.1,26.4,92.1,27z"/>
	<path class="st93" d="M99.8,31.6c0.4,0.3,1.1,0.5,1.7,0.5c1,0,1.6-0.5,1.6-1.3c0-0.7-0.4-1.1-1.4-1.5c-1.2-0.4-2-1.1-2-2.1
		c0-1.2,1-2,2.4-2c0.8,0,1.3,0.2,1.6,0.4l-0.3,0.8c-0.2-0.1-0.7-0.4-1.4-0.4c-1,0-1.4,0.6-1.4,1.1c0,0.7,0.5,1,1.5,1.4
		c1.3,0.5,1.9,1.1,1.9,2.2c0,1.1-0.8,2.1-2.6,2.1c-0.7,0-1.5-0.2-1.9-0.5L99.8,31.6z"/>
	<path class="st93" d="M105.9,30.3c0,1.3,0.9,1.8,1.8,1.8c0.7,0,1.1-0.1,1.5-0.3l0.2,0.7c-0.3,0.2-0.9,0.3-1.8,0.3
		c-1.6,0-2.6-1.1-2.6-2.7c0-1.6,0.9-2.9,2.5-2.9c1.7,0,2.2,1.5,2.2,2.5c0,0.2,0,0.4,0,0.5H105.9z M108.7,29.6c0-0.6-0.3-1.6-1.3-1.6
		c-1,0-1.4,0.9-1.5,1.6H108.7z"/>
	<path class="st93" d="M114.7,32.6c-0.3,0.1-0.8,0.3-1.5,0.3c-1.6,0-2.7-1.1-2.7-2.7c0-1.6,1.1-2.8,2.9-2.8c0.6,0,1.1,0.1,1.3,0.3
		l-0.2,0.7c-0.2-0.1-0.6-0.3-1.1-0.3c-1.2,0-1.9,0.9-1.9,2c0,1.2,0.8,2,1.8,2c0.5,0,0.9-0.1,1.2-0.3L114.7,32.6z"/>
	<path class="st93" d="M120.3,31.4c0,0.5,0,1,0,1.5h-0.9l-0.1-0.9h0c-0.3,0.4-0.8,1-1.8,1c-0.8,0-1.8-0.5-1.8-2.3v-3.1h1v2.9
		c0,1,0.3,1.7,1.2,1.7c0.6,0,1.1-0.5,1.3-0.9c0.1-0.1,0.1-0.3,0.1-0.5v-3.3h1V31.4z"/>
	<path class="st93" d="M121.9,29.1c0-0.6,0-1.2,0-1.7h0.8l0,1h0c0.2-0.7,0.8-1.2,1.5-1.2c0.1,0,0.2,0,0.3,0v0.9c-0.1,0-0.2,0-0.3,0
		c-0.7,0-1.2,0.5-1.3,1.2c0,0.1,0,0.3,0,0.5v2.8h-1V29.1z"/>
	<path class="st93" d="M125.9,30.3c0,1.3,0.9,1.8,1.8,1.8c0.7,0,1.1-0.1,1.5-0.3l0.2,0.7c-0.3,0.2-0.9,0.3-1.8,0.3
		c-1.6,0-2.6-1.1-2.6-2.7c0-1.6,0.9-2.9,2.5-2.9c1.7,0,2.2,1.5,2.2,2.5c0,0.2,0,0.4,0,0.5H125.9z M128.7,29.6c0-0.6-0.3-1.6-1.3-1.6
		c-1,0-1.4,0.9-1.5,1.6H128.7z"/>
</g>
<g>
	<path class="st93" d="M20.5,67L18,59.6h1l1.2,3.7c0.3,1,0.6,1.9,0.8,2.8h0c0.2-0.9,0.5-1.8,0.8-2.8l1.3-3.7h1L21.5,67H20.5z"/>
	<path class="st93" d="M25.1,64.5c0,1.3,0.9,1.8,1.8,1.8c0.7,0,1.1-0.1,1.5-0.3l0.2,0.7c-0.3,0.2-0.9,0.3-1.8,0.3
		c-1.6,0-2.6-1.1-2.6-2.7c0-1.6,0.9-2.9,2.5-2.9c1.7,0,2.2,1.5,2.2,2.5c0,0.2,0,0.4,0,0.5H25.1z M28,63.8c0-0.6-0.3-1.6-1.3-1.6
		c-1,0-1.4,0.9-1.5,1.6H28z"/>
	<path class="st93" d="M30.1,63.4c0-0.6,0-1.2,0-1.7h0.8l0,1h0c0.2-0.7,0.8-1.2,1.5-1.2c0.1,0,0.2,0,0.3,0v0.9c-0.1,0-0.2,0-0.3,0
		c-0.7,0-1.2,0.5-1.3,1.2c0,0.1,0,0.3,0,0.5V67h-1V63.4z"/>
	<path class="st93" d="M34.8,60.2c0,0.3-0.2,0.6-0.6,0.6c-0.3,0-0.6-0.3-0.6-0.6c0-0.3,0.3-0.6,0.6-0.6
		C34.6,59.6,34.8,59.9,34.8,60.2z M33.7,67v-5.3h1V67H33.7z"/>
	<path class="st93" d="M36.4,67v-4.6h-0.7v-0.7h0.7v-0.3c0-1.4,0.8-2.3,2.3-2.3c0.5,0,1.1,0.2,1.4,0.4l-0.3,0.7
		c-0.2-0.2-0.6-0.3-1.1-0.3c-1,0-1.3,0.7-1.3,1.6v0.3h3.1V67h-1v-4.6h-2.1V67H36.4z"/>
	<path class="st93" d="M42.6,64.5c0,1.3,0.9,1.8,1.8,1.8c0.7,0,1.1-0.1,1.5-0.3l0.2,0.7c-0.3,0.2-0.9,0.3-1.8,0.3
		c-1.6,0-2.6-1.1-2.6-2.7c0-1.6,0.9-2.9,2.5-2.9c1.7,0,2.2,1.5,2.2,2.5c0,0.2,0,0.4,0,0.5H42.6z M45.4,63.8c0-0.6-0.3-1.6-1.3-1.6
		c-1,0-1.4,0.9-1.5,1.6H45.4z"/>
	<path class="st93" d="M52.2,59.2v6.4c0,0.5,0,1,0,1.4h-0.9l0-0.9h0c-0.3,0.6-0.9,1-1.8,1c-1.3,0-2.3-1.1-2.3-2.7
		c0-1.8,1.1-2.9,2.4-2.9c0.8,0,1.4,0.4,1.6,0.8h0v-3.2H52.2z M51.2,63.9c0-0.1,0-0.3,0-0.4c-0.1-0.6-0.7-1.1-1.4-1.1
		c-1,0-1.6,0.9-1.6,2.1c0,1.1,0.5,2,1.6,2c0.6,0,1.2-0.4,1.4-1.2c0-0.1,0-0.3,0-0.4V63.9z"/>
</g>
<g>
	<path class="st71" d="M163.9,53.7c-0.9-0.2-1.8-0.5-2.6-0.8c-0.1,0-0.3-0.1-0.4-0.1c-1.6-0.1-3-1.2-3-3.4c0-2.2,1.3-3.5,3.1-3.5
		c1.8,0,3,1.4,3,3.4c0,1.7-0.8,2.8-1.9,3.2v0c0.7,0.2,1.4,0.3,2,0.4L163.9,53.7z M163.2,49.3c0-1.3-0.7-2.7-2.1-2.7
		c-1.5,0-2.2,1.4-2.2,2.8c0,1.4,0.8,2.7,2.1,2.7C162.4,52.1,163.2,50.9,163.2,49.3z"/>
	<path class="st71" d="M169.2,51.4c0,0.5,0,0.9,0,1.3h-0.8l0-0.8h0c-0.2,0.4-0.7,0.9-1.6,0.9c-0.8,0-1.7-0.4-1.7-2.1v-2.8h0.9v2.7
		c0,0.9,0.3,1.5,1.1,1.5c0.6,0,1-0.4,1.2-0.8c0-0.1,0.1-0.3,0.1-0.4v-3h0.9V51.4z"/>
	<path class="st71" d="M171.7,46.6c0,0.3-0.2,0.5-0.6,0.5c-0.3,0-0.5-0.2-0.5-0.5c0-0.3,0.2-0.5,0.5-0.5
		C171.5,46,171.7,46.2,171.7,46.6z M170.7,52.7v-4.8h0.9v4.8H170.7z"/>
	<path class="st71" d="M176.5,52.6c-0.2,0.1-0.7,0.3-1.4,0.3c-1.5,0-2.4-1-2.4-2.5c0-1.5,1-2.6,2.6-2.6c0.5,0,1,0.1,1.2,0.2
		l-0.2,0.7c-0.2-0.1-0.5-0.2-1-0.2c-1.1,0-1.7,0.8-1.7,1.8c0,1.1,0.7,1.8,1.7,1.8c0.5,0,0.8-0.1,1.1-0.2L176.5,52.6z"/>
	<path class="st71" d="M178.4,50.1L178.4,50.1c0.1-0.2,0.3-0.4,0.4-0.5l1.4-1.7h1.1l-1.9,2l2.1,2.8h-1.1l-1.7-2.3l-0.4,0.5v1.8h-0.9
		v-7.1h0.9V50.1z"/>
	<path class="st71" d="M184.3,46.1c0.4-0.1,1-0.1,1.7-0.1c0.9,0,1.5,0.2,1.9,0.6c0.4,0.3,0.6,0.8,0.6,1.4c0,0.6-0.2,1.1-0.5,1.4
		c-0.5,0.5-1.2,0.7-2.1,0.7c-0.3,0-0.5,0-0.7-0.1v2.7h-0.9V46.1z M185.2,49.3c0.2,0,0.4,0.1,0.7,0.1c1,0,1.7-0.5,1.7-1.4
		c0-0.9-0.6-1.3-1.6-1.3c-0.4,0-0.7,0-0.8,0.1V49.3z"/>
	<path class="st71" d="M192,52.7l-0.1-0.6h0c-0.3,0.4-0.8,0.7-1.5,0.7c-1,0-1.5-0.7-1.5-1.4c0-1.2,1-1.8,2.9-1.8v-0.1
		c0-0.4-0.1-1.1-1.1-1.1c-0.4,0-0.9,0.1-1.3,0.4l-0.2-0.6c0.4-0.3,1-0.4,1.6-0.4c1.5,0,1.8,1,1.8,2v1.8c0,0.4,0,0.8,0.1,1.2H192z
		 M191.9,50.3c-1,0-2,0.1-2,1.1c0,0.6,0.4,0.8,0.8,0.8c0.6,0,1-0.4,1.2-0.8c0-0.1,0-0.2,0-0.3V50.3z"/>
	<path class="st71" d="M194.4,47.9l1.1,2.9c0.1,0.3,0.2,0.7,0.3,1h0c0.1-0.3,0.2-0.7,0.3-1l1-2.8h0.9l-1.3,3.4
		c-0.6,1.7-1.1,2.5-1.7,3c-0.4,0.4-0.9,0.5-1.1,0.6l-0.2-0.7c0.2-0.1,0.5-0.2,0.8-0.4c0.2-0.2,0.5-0.5,0.7-1c0-0.1,0.1-0.2,0.1-0.2
		s0-0.1-0.1-0.2l-1.8-4.4H194.4z"/>
</g>
</svg>
