<?xml version="1.0" encoding="UTF-8"?>
<!DOCTYPE svg PUBLIC "-//W3C//DTD SVG 1.1//EN" "http://www.w3.org/Graphics/SVG/1.1/DTD/svg11.dtd">
<!-- Creator: CorelDRAW X8 -->
<svg xmlns="http://www.w3.org/2000/svg" xml:space="preserve" width="5.70737in" height="1.19561in" version="1.1" style="shape-rendering:geometricPrecision; text-rendering:geometricPrecision; image-rendering:optimizeQuality; fill-rule:evenodd; clip-rule:evenodd"
viewBox="0 0 2062 432"
 xmlns:xlink="http://www.w3.org/1999/xlink">
 <defs>
  <style type="text/css">
   <![CDATA[
    .str0 {stroke:white;stroke-width:1.08394}
    .fil11 {fill:none;fill-rule:nonzero}
    .fil7 {fill:#FEFEFE}
    .fil8 {fill:#057946}
    .fil10 {fill:#128807}
    .fil15 {fill:#141653}
    .fil9 {fill:#F26919}
    .fil6 {fill:#FF9933}
    .fil14 {fill:#48887B;fill-rule:nonzero}
    .fil2 {fill:#057946;fill-rule:nonzero}
    .fil16 {fill:#128807;fill-rule:nonzero}
    .fil4 {fill:#1C1B17;fill-rule:nonzero}
    .fil3 {fill:#231F20;fill-rule:nonzero}
    .fil12 {fill:#4FBBB2;fill-rule:nonzero}
    .fil13 {fill:#E6253C;fill-rule:nonzero}
    .fil0 {fill:#F26919;fill-rule:nonzero}
    .fil5 {fill:white;fill-rule:nonzero}
    .fil1 {fill:#FEFEFE;fill-rule:nonzero;fill-opacity:0.400000}
   ]]>
  </style>
    <clipPath id="id0" style="clip-rule:nonzero">
     <path d="M633 300c-53,0 -95,-35 -95,-97l0 -122 10 0c31,0 44,13 44,39l0 78c0,40 19,56 43,56 22,0 38,-16 38,-52l0 -120 9 0c31,0 44,13 44,38l0 81c0,67 -30,99 -93,99l0 0zm0 0l0 0 0 0z"/>
    </clipPath>
    <clipPath id="id1" style="clip-rule:nonzero">
     <path d="M982 149c-7,-12 -27,-22 -57,-22 -31,0 -59,25 -59,57 0,39 23,65 59,65 31,0 49,-10 57,-20l2 0 0 25c0,26 -26,44 -64,44 -59,0 -110,-45 -110,-107 0,-61 43,-114 116,-114 34,0 59,21 59,46l0 26 -3 0 0 0z"/>
    </clipPath>
    <clipPath id="id2" style="clip-rule:nonzero">
     <path d="M1053 43l0 128c21,-27 41,-55 66,-78 13,-11 25,-14 42,-14l31 0 0 3c-15,13 -65,69 -87,97 17,21 34,43 53,62 19,20 29,24 42,28 -6,17 -15,26 -36,26 -12,0 -27,-5 -35,-14 -28,-29 -52,-60 -75,-92l0 105 -17 1c-25,0 -36,-14 -36,-38l0 -248 17 0c26,0 36,14 36,35l-1 -1z"/>
    </clipPath>
    <clipPath id="id3" style="clip-rule:nonzero">
     <path d="M1804 295c-30,0 -41,-14 -41,-39l0 -82c0,-36 -16,-51 -40,-51 -21,0 -36,15 -36,44l0 128 -14 0c-24,0 -40,-14 -40,-39l0 -82c0,-36 -16,-51 -40,-51 -21,0 -36,16 -36,45l0 127 -15 0c-21,0 -38,-15 -38,-40l0 -83c0,-59 30,-97 95,-97 28,0 50,13 66,33 12,-20 35,-33 61,-33 50,0 90,30 90,91l0 129 -13 0 1 0z"/>
    </clipPath>
    <clipPath id="id4" style="clip-rule:nonzero">
     <path d="M1958 202l-19 0c-41,0 -53,9 -53,27 0,17 14,27 37,27 23,0 34,-11 34,-33l0 -21 1 0zm-29 97l-11 0c-51,0 -86,-28 -86,-68 0,-38 28,-67 107,-67l18 0 0 -3c0,-30 -15,-39 -46,-39 -39,0 -60,15 -68,25l-2 0 0 -17c0,-24 21,-53 77,-53 48,0 91,23 91,97l0 49c0,45 -33,77 -80,77l0 -1z"/>
    </clipPath>
    <clipPath id="id5" style="clip-rule:nonzero">
     <path d="M768 3c-17,0 -31,14 -31,31 0,17 14,32 31,32 17,0 32,-15 32,-32 0,-17 -15,-31 -32,-31z"/>
    </clipPath>
    <clipPath id="id6" style="clip-rule:nonzero">
     <path d="M795 186l0 -60c0,-27 -15,-40 -39,-40l-15 0c0,0 0,57 0,100l0 111 53 0 0 -111 0 0 1 0z"/>
    </clipPath>
    <clipPath id="id7" style="clip-rule:nonzero">
     <path d="M1491 125c0,-27 -15,-40 -39,-40l-15 0c0,0 0,57 0,100l0 111 53 0 0 -111 0 0 0 -60 1 0zm-1 0l0 0 0 0z"/>
    </clipPath>
    <clipPath id="id8" style="clip-rule:nonzero">
     <path d="M1463 66c17,0 31,-15 31,-32 0,-17 -14,-31 -31,-31 -17,0 -31,14 -31,31 0,17 14,32 31,32z"/>
    </clipPath>
    <clipPath id="id9" style="clip-rule:nonzero">
     <path d="M454 193c-18,43 -67,64 -110,46 -43,-18 -64,-66 -47,-110 17,-43 67,-64 110,-47 43,17 64,67 47,110l0 1zm-21 -174c-78,-31 -167,6 -200,85 -31,79 7,167 85,200 24,10 50,13 74,10 6,-1 12,-2 18,-3 47,-11 88,-44 107,-92 32,-79 -6,-167 -85,-200l1 0z"/>
    </clipPath>
    <clipPath id="id10" style="clip-rule:nonzero">
     <path d="M421 283c-2,1 -4,1 -6,1l-19 -14c0,0 13,3 25,13l0 0z"/>
    </clipPath>
 </defs>
 <g id="Layer_x0020_1">
  <metadata id="CorelCorpID_0Corel-Layer"/>
  <path id="path38" class="fil0" d="M171 71c-3,7 -5,15 -7,22l-119 0c-7,0 -12,-5 -12,-12l0 0c0,-6 5,-11 12,-11l125 0 1 1z"/>
  <path id="path40" class="fil1" d="M162 104c0,7 -1,14 -1,22l-150 0c-6,0 -11,-5 -11,-12l0 0c0,-6 5,-11 11,-11l151 0 0 1z"/>
  <path id="path42" class="fil2" d="M165 159l-79 0c-7,0 -12,-5 -12,-11l0 0c0,-7 5,-12 12,-12l76 0c0,8 1,15 3,22l0 1z"/>
  <path id="path46" class="fil3" d="M1641 428c-9,0 -16,-7 -16,-15 0,-9 7,-16 16,-16 8,0 15,7 15,16 0,8 -7,15 -15,15z"/>
  <path id="path48" class="fil3" d="M1748 363c-3,-5 -12,-10 -25,-10 -14,0 -27,11 -27,26 0,17 10,29 27,29 14,0 21,-5 25,-9l1 0 0 11c0,12 -11,20 -29,20 -26,0 -48,-20 -48,-47 0,-27 19,-51 51,-51 16,0 27,9 27,20l0 11 -1 0 -1 0z"/>
  <path id="path50" class="fil3" d="M1809 352c-14,0 -21,11 -21,27 0,19 7,30 23,30 13,0 20,-12 20,-27 0,-20 -7,-30 -22,-30zm2 -22c29,0 45,23 45,49 0,28 -16,51 -47,51 -29,0 -45,-23 -45,-47 0,-29 16,-52 47,-52l0 -1z"/>
  <path id="path52" class="fil3" d="M2004 428c-13,0 -18,-6 -18,-17l0 -37c0,-15 -7,-22 -17,-22 -10,0 -17,7 -17,20l0 57 -6 0c-11,0 -17,-6 -17,-17l0 -37c0,-16 -7,-23 -17,-23 -10,0 -17,7 -17,20l0 57 -6 0c-10,0 -17,-6 -17,-17l0 -37c0,-26 14,-43 43,-43 12,0 22,5 29,14 5,-8 16,-14 28,-14 21,0 39,13 39,40l0 57 -6 0 -1 -1z"/>
  <polygon class="fil4" points="1983,66 1983,26 1968,26 1968,17 2007,17 2007,26 1993,26 1993,66 "/>
  <polygon id="_1" class="fil4" points="2015,66 2015,17 2030,17 2038,51 2047,17 2062,17 2062,66 2053,66 2053,27 2043,66 2034,66 2024,27 2024,66 "/>
  <g id="_3034063085520">
   <g>
    <path id="path14" class="fil5" d="M633 300c-53,0 -95,-35 -95,-97l0 -122 10 0c31,0 44,13 44,39l0 78c0,40 19,56 43,56 22,0 38,-16 38,-52l0 -120 9 0c31,0 44,13 44,38l0 81c0,67 -30,99 -93,99l0 0zm0 0l0 0 0 0z"/>
   </g>
   <g style="clip-path:url(#id0)">
    <g id="_3034063085776">
     <g>
      <polygon id="1" class="fil6" points="-624,-223 2855,-223 2855,-996 -624,-996 "/>
      <polygon class="fil7" points="-624,551 2855,551 2855,-223 -624,-223 "/>
      <polygon class="fil8" points="-624,1314 2855,1314 2855,541 -624,541 "/>
     </g>
     <g>
      <polygon class="fil9" points="205,173 2027,173 2027,-11 205,-11 "/>
      <polygon class="fil7" points="205,216 2027,216 2027,164 205,164 "/>
      <polygon class="fil10" points="205,394 2027,394 2027,207 205,207 "/>
     </g>
    </g>
   </g>
   <path class="fil11" d="M633 300c-53,0 -95,-35 -95,-97l0 -122 10 0c31,0 44,13 44,39l0 78c0,40 19,56 43,56 22,0 38,-16 38,-52l0 -120 9 0c31,0 44,13 44,38l0 81c0,67 -30,99 -93,99m0 0l0 0 0 0z"/>
   <path id="path16" class="fil5" d="M982 149c-7,-12 -27,-22 -57,-22 -31,0 -59,25 -59,57 0,39 23,65 59,65 31,0 49,-10 57,-20l2 0 0 25c0,26 -26,44 -64,44 -59,0 -110,-45 -110,-107 0,-61 43,-114 116,-114 34,0 59,21 59,46l0 26 -3 0 0 0z"/>
   <g style="clip-path:url(#id1)">
    <g id="_3034063085776">
     <g>
      <polygon id="1" class="fil6" points="-624,-223 2855,-223 2855,-996 -624,-996 "/>
      <polygon class="fil7" points="-624,551 2855,551 2855,-223 -624,-223 "/>
      <polygon class="fil8" points="-624,1314 2855,1314 2855,541 -624,541 "/>
     </g>
     <g>
      <polygon class="fil9" points="205,173 2027,173 2027,-11 205,-11 "/>
      <polygon class="fil7" points="205,216 2027,216 2027,164 205,164 "/>
      <polygon class="fil10" points="205,394 2027,394 2027,207 205,207 "/>
     </g>
    </g>
   </g>
   <path class="fil11" d="M982 149c-7,-12 -27,-22 -57,-22 -31,0 -59,25 -59,57 0,39 23,65 59,65 31,0 49,-10 57,-20l2 0 0 25c0,26 -26,44 -64,44 -59,0 -110,-45 -110,-107 0,-61 43,-114 116,-114 34,0 59,21 59,46l0 26 -3 0 0 0z"/>
   <path id="path18" class="fil5" d="M1053 43l0 128c21,-27 41,-55 66,-78 13,-11 25,-14 42,-14l31 0 0 3c-15,13 -65,69 -87,97 17,21 34,43 53,62 19,20 29,24 42,28 -6,17 -15,26 -36,26 -12,0 -27,-5 -35,-14 -28,-29 -52,-60 -75,-92l0 105 -17 1c-25,0 -36,-14 -36,-38l0 -248 17 0c26,0 36,14 36,35l-1 -1z"/>
   <g style="clip-path:url(#id2)">
    <g id="_3034063085776">
     <g>
      <polygon id="1" class="fil6" points="-624,-223 2855,-223 2855,-996 -624,-996 "/>
      <polygon class="fil7" points="-624,551 2855,551 2855,-223 -624,-223 "/>
      <polygon class="fil8" points="-624,1314 2855,1314 2855,541 -624,541 "/>
     </g>
     <g>
      <polygon class="fil9" points="205,173 2027,173 2027,-11 205,-11 "/>
      <polygon class="fil7" points="205,216 2027,216 2027,164 205,164 "/>
      <polygon class="fil10" points="205,394 2027,394 2027,207 205,207 "/>
     </g>
    </g>
   </g>
   <path class="fil11 str0" d="M1053 43l0 128c21,-27 41,-55 66,-78 13,-11 25,-14 42,-14l31 0 0 3c-15,13 -65,69 -87,97 17,21 34,43 53,62 19,20 29,24 42,28 -6,17 -15,26 -36,26 -12,0 -27,-5 -35,-14 -28,-29 -52,-60 -75,-92l0 105 -17 1c-25,0 -36,-14 -36,-38l0 -248 17 0c26,0 36,14 36,35l-1 -1z"/>
   <path id="path22" class="fil5" d="M1804 295c-30,0 -41,-14 -41,-39l0 -82c0,-36 -16,-51 -40,-51 -21,0 -36,15 -36,44l0 128 -14 0c-24,0 -40,-14 -40,-39l0 -82c0,-36 -16,-51 -40,-51 -21,0 -36,16 -36,45l0 127 -15 0c-21,0 -38,-15 -38,-40l0 -83c0,-59 30,-97 95,-97 28,0 50,13 66,33 12,-20 35,-33 61,-33 50,0 90,30 90,91l0 129 -13 0 1 0z"/>
   <g style="clip-path:url(#id3)">
    <g id="_3034063085776">
     <g>
      <polygon id="1" class="fil6" points="-624,-223 2855,-223 2855,-996 -624,-996 "/>
      <polygon class="fil7" points="-624,551 2855,551 2855,-223 -624,-223 "/>
      <polygon class="fil8" points="-624,1314 2855,1314 2855,541 -624,541 "/>
     </g>
     <g>
      <polygon class="fil9" points="205,173 2027,173 2027,-11 205,-11 "/>
      <polygon class="fil7" points="205,216 2027,216 2027,164 205,164 "/>
      <polygon class="fil10" points="205,394 2027,394 2027,207 205,207 "/>
     </g>
    </g>
   </g>
   <path class="fil11 str0" d="M1804 295c-30,0 -41,-14 -41,-39l0 -82c0,-36 -16,-51 -40,-51 -21,0 -36,15 -36,44l0 128 -14 0c-24,0 -40,-14 -40,-39l0 -82c0,-36 -16,-51 -40,-51 -21,0 -36,16 -36,45l0 127 -15 0c-21,0 -38,-15 -38,-40l0 -83c0,-59 30,-97 95,-97 28,0 50,13 66,33 12,-20 35,-33 61,-33 50,0 90,30 90,91l0 129 -13 0 1 0z"/>
   <path id="path24" class="fil5" d="M1958 202l-19 0c-41,0 -53,9 -53,27 0,17 14,27 37,27 23,0 34,-11 34,-33l0 -21 1 0zm-29 97l-11 0c-51,0 -86,-28 -86,-68 0,-38 28,-67 107,-67l18 0 0 -3c0,-30 -15,-39 -46,-39 -39,0 -60,15 -68,25l-2 0 0 -17c0,-24 21,-53 77,-53 48,0 91,23 91,97l0 49c0,45 -33,77 -80,77l0 -1z"/>
   <g style="clip-path:url(#id4)">
    <g id="_3034063085776">
     <g>
      <polygon id="1" class="fil6" points="-624,-223 2855,-223 2855,-996 -624,-996 "/>
      <polygon class="fil7" points="-624,551 2855,551 2855,-223 -624,-223 "/>
      <polygon class="fil8" points="-624,1314 2855,1314 2855,541 -624,541 "/>
     </g>
     <g>
      <polygon class="fil9" points="205,173 2027,173 2027,-11 205,-11 "/>
      <polygon class="fil7" points="205,216 2027,216 2027,164 205,164 "/>
      <polygon class="fil10" points="205,394 2027,394 2027,207 205,207 "/>
     </g>
    </g>
   </g>
   <path class="fil11 str0" d="M1958 202l-19 0c-41,0 -53,9 -53,27 0,17 14,27 37,27 23,0 34,-11 34,-33l0 -21 1 0zm-29 97l-11 0c-51,0 -86,-28 -86,-68 0,-38 28,-67 107,-67l18 0 0 -3c0,-30 -15,-39 -46,-39 -39,0 -60,15 -68,25l-2 0 0 -17c0,-24 21,-53 77,-53 48,0 91,23 91,97l0 49c0,45 -33,77 -80,77l0 -1z"/>
   <path id="path26" class="fil12" d="M768 3c-17,0 -31,14 -31,31 0,17 14,32 31,32 17,0 32,-15 32,-32 0,-17 -15,-31 -32,-31z"/>
   <g style="clip-path:url(#id5)">
    <g id="_3034063085776">
     <g>
      <polygon id="1" class="fil6" points="-624,-223 2855,-223 2855,-996 -624,-996 "/>
      <polygon class="fil7" points="-624,551 2855,551 2855,-223 -624,-223 "/>
      <polygon class="fil8" points="-624,1314 2855,1314 2855,541 -624,541 "/>
     </g>
     <g>
      <polygon class="fil9" points="205,173 2027,173 2027,-11 205,-11 "/>
      <polygon class="fil7" points="205,216 2027,216 2027,164 205,164 "/>
      <polygon class="fil10" points="205,394 2027,394 2027,207 205,207 "/>
     </g>
    </g>
   </g>
   <path class="fil11" d="M768 3c-17,0 -31,14 -31,31 0,17 14,32 31,32 17,0 32,-15 32,-32 0,-17 -15,-31 -32,-31z"/>
   <path id="path28" class="fil5" d="M795 186l0 -60c0,-27 -15,-40 -39,-40l-15 0c0,0 0,57 0,100l0 111 53 0 0 -111 0 0 1 0z"/>
   <g style="clip-path:url(#id6)">
    <g id="_3034063085776">
     <g>
      <polygon id="1" class="fil6" points="-624,-223 2855,-223 2855,-996 -624,-996 "/>
      <polygon class="fil7" points="-624,551 2855,551 2855,-223 -624,-223 "/>
      <polygon class="fil8" points="-624,1314 2855,1314 2855,541 -624,541 "/>
     </g>
     <g>
      <polygon class="fil9" points="205,173 2027,173 2027,-11 205,-11 "/>
      <polygon class="fil7" points="205,216 2027,216 2027,164 205,164 "/>
      <polygon class="fil10" points="205,394 2027,394 2027,207 205,207 "/>
     </g>
    </g>
   </g>
   <path class="fil11" d="M795 186l0 -60c0,-27 -15,-40 -39,-40l-15 0c0,0 0,57 0,100l0 111 53 0 0 -111 0 0 1 0z"/>
   <g>
    <path id="path30" class="fil5" d="M1491 125c0,-27 -15,-40 -39,-40l-15 0c0,0 0,57 0,100l0 111 53 0 0 -111 0 0 0 -60 1 0zm-1 0l0 0 0 0z"/>
   </g>
   <g style="clip-path:url(#id7)">
    <g>
     <g id="_3034063085552">
      <polygon id="1" class="fil6" points="-624,-223 2855,-223 2855,-996 -624,-996 "/>
      <polygon class="fil7" points="-624,551 2855,551 2855,-223 -624,-223 "/>
      <polygon class="fil8" points="-624,1314 2855,1314 2855,541 -624,541 "/>
     </g>
     <g id="_3034063085264">
      <polygon class="fil9" points="205,173 2027,173 2027,-11 205,-11 "/>
      <polygon class="fil7" points="205,216 2027,216 2027,164 205,164 "/>
      <polygon class="fil10" points="205,394 2027,394 2027,207 205,207 "/>
     </g>
    </g>
   </g>
   <path class="fil11" d="M1491 125c0,-27 -15,-40 -39,-40l-15 0c0,0 0,57 0,100l0 111 53 0 0 -111 0 0 0 -60m0 0l0 0 0 0z"/>
   <path id="path32" class="fil13" d="M1463 66c17,0 31,-15 31,-32 0,-17 -14,-31 -31,-31 -17,0 -31,14 -31,31 0,17 14,32 31,32z"/>
   <g style="clip-path:url(#id8)">
    <g>
     <g id="_3034063085552">
      <polygon id="1" class="fil6" points="-624,-223 2855,-223 2855,-996 -624,-996 "/>
      <polygon class="fil7" points="-624,551 2855,551 2855,-223 -624,-223 "/>
      <polygon class="fil8" points="-624,1314 2855,1314 2855,541 -624,541 "/>
     </g>
     <g id="_3034063085264">
      <polygon class="fil9" points="205,173 2027,173 2027,-11 205,-11 "/>
      <polygon class="fil7" points="205,216 2027,216 2027,164 205,164 "/>
      <polygon class="fil10" points="205,394 2027,394 2027,207 205,207 "/>
     </g>
    </g>
   </g>
   <path class="fil11" d="M1463 66c17,0 31,-15 31,-32 0,-17 -14,-31 -31,-31 -17,0 -31,14 -31,31 0,17 14,32 31,32z"/>
   <path id="path34" class="fil5" d="M454 193c-18,43 -67,64 -110,46 -43,-18 -64,-66 -47,-110 17,-43 67,-64 110,-47 43,17 64,67 47,110l0 1zm-21 -174c-78,-31 -167,6 -200,85 -31,79 7,167 85,200 24,10 50,13 74,10 6,-1 12,-2 18,-3 47,-11 88,-44 107,-92 32,-79 -6,-167 -85,-200l1 0z"/>
   <g style="clip-path:url(#id9)">
    <g>
     <g id="_3034063085552">
      <polygon id="1" class="fil6" points="-624,-223 2855,-223 2855,-996 -624,-996 "/>
      <polygon class="fil7" points="-624,551 2855,551 2855,-223 -624,-223 "/>
      <polygon class="fil8" points="-624,1314 2855,1314 2855,541 -624,541 "/>
     </g>
     <g id="_3034063085264">
      <polygon class="fil9" points="205,173 2027,173 2027,-11 205,-11 "/>
      <polygon class="fil7" points="205,216 2027,216 2027,164 205,164 "/>
      <polygon class="fil10" points="205,394 2027,394 2027,207 205,207 "/>
     </g>
    </g>
   </g>
   <path class="fil11" d="M454 193c-18,43 -67,64 -110,46 -43,-18 -64,-66 -47,-110 17,-43 67,-64 110,-47 43,17 64,67 47,110l0 1zm-21 -174c-78,-31 -167,6 -200,85 -31,79 7,167 85,200 24,10 50,13 74,10 6,-1 12,-2 18,-3 47,-11 88,-44 107,-92 32,-79 -6,-167 -85,-200l1 0z"/>
   <path id="path36" class="fil14" d="M421 283c-2,1 -4,1 -6,1l-19 -14c0,0 13,3 25,13l0 0z"/>
   <g style="clip-path:url(#id10)">
    <g>
     <g id="_3034063085552">
      <polygon id="1" class="fil6" points="-624,-223 2855,-223 2855,-996 -624,-996 "/>
      <polygon class="fil7" points="-624,551 2855,551 2855,-223 -624,-223 "/>
      <polygon class="fil8" points="-624,1314 2855,1314 2855,541 -624,541 "/>
     </g>
     <g id="_3034063085264">
      <polygon class="fil9" points="205,173 2027,173 2027,-11 205,-11 "/>
      <polygon class="fil7" points="205,216 2027,216 2027,164 205,164 "/>
      <polygon class="fil10" points="205,394 2027,394 2027,207 205,207 "/>
     </g>
    </g>
   </g>
   <path class="fil11" d="M421 283c-2,1 -4,1 -6,1l-19 -14c0,0 13,3 25,13l0 0z"/>
  </g>
  <path id="path28_0" class="fil0" d="M1281 128l0 -67c0,-41 -19,-61 -50,-61l-20 0 1 211c3,0 5,0 7,1l0 -3c0,-5 0,-10 2,-15 0,-1 0,-2 0,-2 1,-4 3,-7 5,-10 1,-2 2,-3 3,-4 1,-1 1,-2 1,-3 1,-4 2,-8 4,-12 1,-3 2,-6 4,-9 0,-1 1,-2 2,-4 2,-12 12,-22 23,-22l17 0c1,0 1,0 1,0z"/>
  <path class="fil8" d="M1293 209c-15,-2 -22,-2 -37,-1 -13,1 -26,1 -39,2l0 1c13,1 26,1 39,2 15,1 22,0 37,-1 -1,3 -5,3 -9,3 -13,2 -14,3 -27,7 -11,3 -22,7 -33,10l-2 1 0 2 2 -1c7,0 28,-6 36,-7 10,-2 26,-6 34,-10l1 0 -1 0 -1 -5 0 -3 1 -5 1 -1 -1 1c-9,-5 -54,-16 -69,-17 -3,0 -2,0 -4,-1 -2,-1 -1,-1 -1,2l0 -1c2,1 3,1 5,1 20,6 39,15 60,18 4,0 8,-1 8,3z"/>
  <path class="fil8" d="M1392 164c-9,3 -24,11 -33,16 -18,9 -9,3 -23,13 -3,2 -4,3 -7,5 1,5 3,6 3,12 0,1 -2,8 -3,10 5,3 9,6 14,10 5,3 11,5 16,8 5,2 33,14 34,18l1 -3c-5,-1 -38,-24 -46,-28 -6,-4 -12,-5 -17,-8l1 -1c2,0 0,0 2,0l12 5c5,2 12,3 18,4 7,1 34,6 39,9l1 -4c-4,4 -53,-15 -63,-16 -4,-1 -8,0 -9,-4 14,2 22,2 36,1 13,0 25,-1 38,-2l0 -1c-13,0 -25,-1 -37,-2 -6,0 -13,-1 -19,0 -8,0 -15,3 -18,0 5,-2 14,-2 19,-4 6,-1 11,-3 17,-5 9,-3 25,-7 32,-10l3 -1 0 -1 -1 0 -2 0c-11,2 -24,5 -35,8 -7,1 -13,2 -19,4 -3,1 -10,5 -14,5l-1 -1c5,-3 12,-5 17,-8 9,-5 39,-25 45,-28l0 -1 1 0 -2 0z"/>
  <path class="fil8" d="M1290 301l1 0c4,-10 8,-25 11,-36 4,-13 5,-13 7,-28 1,-12 1,-7 3,-9 -1,15 -2,23 -1,39 1,12 1,27 2,40l0 0 2 -10c0,-10 1,-24 1,-34 1,-14 0,-22 -1,-35 4,1 3,8 5,18 1,5 3,12 5,18 1,6 3,11 5,17 1,3 2,6 3,9 0,3 1,7 3,8 1,-7 -11,-61 -16,-71l1 0 -1 0 -5 1c-3,0 -6,-1 -8,-2 1,3 -4,12 -5,16 -2,6 -3,13 -4,20 -3,12 -6,26 -8,39zm46 1l1 -2c0,-4 0,-1 -1,-2l0 4z"/>
  <path class="fil8" d="M1290 121c2,16 12,60 18,70l-1 1 1 -1 8 0 5 0 1 1 -1 -1c7,-11 15,-53 18,-69l0 -2 -1 0 -1 2 -16 51c-2,10 -1,17 -5,18 1,-15 2,-22 1,-37 -1,-12 -1,-25 -2,-37l-1 0 -3 57c0,5 3,13 1,17 -2,-2 -2,-5 -3,-9 -3,-21 -12,-39 -18,-61l0 -2 -2 0 1 2z"/>
  <path class="fil8" d="M1322 192l2 2c4,-5 8,-10 11,-15 3,-5 6,-11 8,-16 4,-7 15,-28 16,-33l2 -1 -2 -2 0 2c-7,10 -14,20 -20,30 -5,9 -14,21 -17,33z"/>
  <path class="fil8" d="M1302 192c0,1 1,1 1,1 3,0 1,1 2,-1 -3,-13 -11,-23 -17,-32 -3,-5 -6,-10 -10,-16 -3,-3 -7,-10 -9,-14l-1 -2 -2 2c1,0 1,0 2,0 1,5 12,25 15,32 3,5 5,10 8,15 3,5 8,12 11,15z"/>
  <path class="fil8" d="M1250 275c-1,2 0,1 -2,3 1,1 1,-1 5,-3l37 -37c3,-5 8,-10 10,-15l-2 -2c-10,8 -16,16 -25,25 -3,4 -7,9 -11,14 -4,5 -8,10 -12,15zm-3 5l0 0 0 0z"/>
  <path class="fil8" d="M1348 171c-4,4 -9,7 -12,11 -3,4 -8,9 -10,13l2 2c4,-4 8,-6 13,-10 4,-4 7,-8 11,-12 9,-10 18,-19 25,-29l0 -1c-7,5 -22,20 -29,26z"/>
  <path class="fil8" d="M1268 288l1 0c3,-5 7,-11 9,-15 4,-5 7,-10 10,-15 6,-8 14,-21 17,-31 -1,-2 1,-1 -2,-2 -2,3 -8,11 -11,14 -2,5 -5,11 -8,16 -5,10 -11,23 -16,33z"/>
  <path class="fil8" d="M1298 220l-2 -2c-15,3 -42,23 -57,33 -2,1 -3,2 -4,2l-4 4c5,-1 29,-14 35,-17 5,-2 12,-5 17,-8 5,-4 10,-8 15,-12zm-70 41l1 -3c6,0 2,1 2,-1l-2 1 -3 0 2 3z"/>
  <path class="fil8" d="M1358 288l2 0c-6,-9 -12,-23 -17,-33 -3,-5 -5,-11 -8,-16 -4,-5 -7,-10 -11,-14l-2 1c3,11 12,24 17,32l14 22c2,3 3,5 5,8z"/>
  <path class="fil8" d="M1326 224c10,12 16,19 28,29 3,2 4,4 6,6 4,3 15,12 17,15 1,0 1,0 2,-2 -19,-15 -30,-36 -51,-50l-2 2z"/>
  <path class="fil8" d="M1249 146l24 27c11,11 9,13 26,24l2 -2c-1,-2 -1,-2 -3,-4 -4,-4 -7,-9 -11,-13l-36 -33c-2,-2 -1,-2 -3,-3 -1,-1 -2,-1 -4,-2l0 0 0 0c1,2 1,2 2,4 2,2 1,1 3,2z"/>
  <path class="fil8" d="M1296 201c2,-1 1,1 2,-2 -3,-3 -5,-4 -8,-6 -2,-2 -4,-4 -7,-5l-48 -25c-3,-1 -2,-1 -2,-3 -3,0 -2,0 -3,3 2,0 3,0 4,1 5,3 10,7 14,10 5,3 11,6 16,9 9,6 20,15 32,18z"/>
  <circle class="fil15" cx="1313" cy="210" r="20"/>
  <polygon class="fil8" points="1315,289 1313,300 1315,300 1315,290 "/>
  <path class="fil9" d="M1250 145l4 -4c3,2 5,2 9,0l0 -7 6 -4c5,-2 3,-2 6,0 8,3 8,-3 10,-5 1,-4 0,-1 4,-4l2 0c10,-2 4,4 11,3 8,0 0,-6 11,-5l6 0c0,0 0,0 0,0l1 1c0,1 0,1 0,1 8,10 10,-5 16,1l2 0c5,2 3,-1 5,3 1,3 1,4 3,5 7,3 3,-4 12,0l2 2c5,2 3,0 4,5 0,3 0,3 3,5 6,2 7,-4 10,3l0 1c8,3 1,4 5,12 5,2 5,0 9,3 1,4 3,17 3,18 6,4 4,-1 7,6l0 0 0 2 1 5c-2,1 -6,4 -2,9 3,4 5,-1 4,8l0 1c1,9 -2,3 -5,9 -2,4 1,7 3,8l0 3 -1 4c-3,4 1,3 -3,5 -3,1 -4,0 -5,3 -3,7 5,4 0,11l-2 3c-2,5 0,3 -4,3 -3,1 -4,0 -6,3 -3,6 4,4 -2,10 -1,2 -1,2 -2,2 -6,6 -3,1 -9,2 -4,1 -5,4 -4,9l-4 3 -2 0c-1,1 -1,2 -3,2 -2,0 -2,-1 -4,-2 -5,-1 -6,1 -8,4 -2,3 1,2 -5,4l0 1 -7 1c-2,-4 -8,-6 -10,0l-2 1c0,0 0,0 -1,0 -1,1 -2,1 -4,1 -7,3 -6,-3 -9,-5 -5,-3 -8,1 -9,3l-5 -1 -2 0c-3,-2 -3,0 -4,-3 -2,-3 -1,-4 -4,-6 -4,-1 -4,1 -6,2 -4,1 -4,0 -6,-2l-1 0c-4,-3 -3,0 -4,-5 -1,-3 0,-3 -2,-6 -6,-4 -8,5 -12,-4l0 0c-8,-4 -1,-5 -4,-11 -1,-2 -2,-2 -5,-3 -4,0 -3,1 -5,-3l-2 -2c-3,-9 3,-5 1,-12 -2,-3 -3,-2 -5,-3 -4,-2 -2,-1 -4,-5l0 -2c-5,-5 3,-5 3,-11 -1,-8 -6,-1 -6,-11l0 -1c0,-9 2,-4 5,-9 2,-5 -1,-7 -3,-8l1 -5 -1 0c0,-3 -1,-3 1,-2l1 -4c4,-2 8,-1 8,-7 0,-6 -3,1 -1,-9 0,-3 -1,-3 2,-3 3,-2 -1,-2 4,-3 2,0 3,0 5,-1 5,-10 -4,-4 5,-13zm52 -37c-58,8 -96,57 -90,114 6,51 54,96 114,89 88,-11 122,-121 53,-180 -16,-14 -46,-27 -77,-23z"/>
  <path class="fil9" d="M1226 185l0 4c0,0 -4,0 -4,-1 1,0 1,-7 1,-7l2 0 1 4z"/>
  <path id="path44" class="fil16" d="M465 431c-24,-56 -57,-93 -100,-108 -66,-24 -135,11 -135,11l-33 -62c4,-3 97,-50 192,-15 62,22 109,72 141,147l-64 28 -1 -1z"/>
 </g>
</svg>
