<?xml version="1.0" encoding="utf-8"?>
<!-- Generator: Adobe Illustrator 21.0.0, SVG Export Plug-In . SVG Version: 6.00 Build 0)  -->
<svg version="1.1" id="Layer_1" xmlns="http://www.w3.org/2000/svg" xmlns:xlink="http://www.w3.org/1999/xlink" x="0px" y="0px"
	 viewBox="0 0 746.3 363.8" style="enable-background:new 0 0 746.3 363.8;" xml:space="preserve">
<style type="text/css">
	.st0{fill:#FFFFFF;}
	.st1{fill:#FF6264;}
	.st2{fill:#FF8F7C;}
	.st3{fill:#4E4D5C;}
	.st4{fill:#625E6B;}
	.st5{fill:#F96A67;}
	.st6{fill:#FEFEFE;}
	.st7{fill:#4D4B5A;}
	.st8{fill:#DCDBDE;}
	.st9{fill:#FF648B;}
	.st10{fill:#FF5A66;}
</style>
<g>
	<path d="M739.8,312.2c-0.9,3.3-1.7,6.7-2.8,10c-7.3,22.5-27.5,37.1-52.3,37.7c-1.2,0-2.3,0-3.5,0c-204.5,0-408.9,0-613.4,0
		c-21.9,0-39.4-8.2-50.5-27.3c-3.6-6.2-5.1-13.6-7.5-20.4c0-87,0-174,0-261c0.9-3.3,1.7-6.7,2.7-10C19.2,19.8,39,4.5,61.6,3.4
		c1.8-0.1,3.7-0.1,5.5-0.1c205.1,0,410.2,0,615.3,0c26.2,0,47,14.4,54.6,37.9c1.1,3.3,1.9,6.7,2.8,10
		C739.8,138.2,739.8,225.2,739.8,312.2z M658.6,19.6c-189.5,0-378.6,0-567.6,0c0,108.2,0,216,0,323.8c189.4,0,378.4,0,567.6,0
		C658.6,235.4,658.6,127.7,658.6,19.6z M670.7,181.4c0,15.7,12.9,28.7,28.5,28.7c15.6,0,28.6-13.1,28.6-28.7
		c-0.1-15.5-12.8-28.2-28.3-28.3C683.7,153,670.7,165.7,670.7,181.4z M58.3,205.8c0-16.3,0-32.3,0-48.4c-2.8,0-5.2,0-7.6,0
		c0,16.4,0,32.4,0,48.4C53.5,205.8,55.7,205.8,58.3,205.8z"/>
	<path class="st0" d="M699.1,165.5c-8.8,0.1-16.2,7.7-16,16.4c0.2,8.7,7.4,15.7,16.2,15.6c8.8,0,15.9-7.1,16-15.8
		C715.4,172.9,707.9,165.4,699.1,165.5z"/>
	<path d="M699.1,165.5c8.8-0.1,16.3,7.4,16.2,16.3c-0.1,8.7-7.2,15.8-16,15.8c-8.8,0-16-6.9-16.2-15.6
		C682.9,173.2,690.3,165.5,699.1,165.5z"/>
</g>
<g id="Layer_2">
	<path class="st0" d="M605.6,167.2c0,0,10.2,4.3,11.7,19.6l-20.2,3.7C597,190.5,576.2,169.4,605.6,167.2z"/>
</g>
<g id="_1580428800">
	<path class="st1" d="M134.7,223.3c1.8,5.7,11.1,6.2,18.1,7.7c3.3,0.8,6.9,1.4,9.6,2.1c6.3,1.7,4.2,0.8,6.5,5
		c-6.9-64.8,67.5-78.1,91.6-39c12.2,19.9,9.8,27.7,6.6,46.6l225.9,0.2c-1.2-9.6-3.9-15.5-2-27.4c1.1-6.3,5.4-15.5,9.2-20
		c24.5-30.5,62.1-25.4,80.5-2.7c11.9,14.6,12,26.3,9.8,49.9c31,1.5,35.6,2.1,34.6-14l-6.8-3.8l-0.2-16.1c5-1.7,10.7-5.1,7.1-13.2
		c-2.3-5.1-4.4-1.7-6.6-6.8l-1.2-5.4c-12.3-1.4-14.1,2-23.2-3.6c-5.4-6.8-0.5-9,0-10.2c0.6-1.8-1.1-0.6-2.4-1.2
		c-56.6-16.4-153.1-11.7-221.3-11.7c-15.5,0-220.5-1.1-230.1,0.3c3.3-0.8,9.2-0.9,12.8,0.3c8.1,2.7,7.2,12.5,2.7,15.5
		c-4.7,3.2-15.5,1.8-21.8,1.8c-2.3,6.6,0.3,37.3,0.6,46V223.3z"/>
	<path class="st2" d="M137.7,160.5l2.9-0.6c9.6-1.4,214.6-0.3,230.1-0.3c68.1,0,164.7-4.7,221.3,11.7l2.7,1.2
		c5.7-3.9,5.6-3.5,11.6-3.9c6.5,2,11.4,14.1,10.4,17.7c0,0,0.3,0,0.9,0.2c0.6-4.5-5.1-19-15.9-23.3c-13.1-6.6-44.7-12-58.1-14.7
		c-21.8-4.4-66.3-3.9-77.8-5.9c-9.3,2.1-38.8,1.1-49.6,0.5c-26.5,0.5-53.2,0.2-79.9,0.2c-13.5,0-26.9,0.3-40.3,0.3
		c-6.8,0-33.2-1.2-37.2-0.5c-10.5-0.6-48.1-4.8-54.3-9l3.8-5.3c-9.6,4.7-3.3,6.2-19,7.7c-5.4,0.5-16.7,2.1-21.7,3.3
		c-20.9,5.1-22.7-2.6-29.9,20.9V160.5z"/>
	<path class="st3" d="M530.6,196.4c21.5-7.7,39.3,7.4,43.8,22.4c5.9,19.7-8.1,38.4-22.6,42.4c-20,5.4-39.1-7.8-42.7-23
		c-4.8-19.9,5.3-36.1,21.7-41.8H530.6z M493.1,245.9c5,7.2,5,13.4,18.2,23.9c16.4,13.1,44.2,13.8,62-1.1c4.8-3.9,6.5-5.9,10.2-11.1
		c2.6-3.6,4.8-10.1,7.2-12c2.3-23.6,2.1-35.3-9.8-49.9c-18.4-22.6-56-27.8-80.5,2.7c-3.8,4.7-8.1,13.7-9.2,20
		c-2,11.9,0.8,17.9,2,27.4L493.1,245.9z"/>
	<path class="st3" d="M206.1,197.2c20-9.6,39.6,5.7,44.7,20c6.9,19.1-4.4,36.7-19.3,43.2c-26.8,11.6-57.9-18.5-42.9-47.5
		c4.4-8.6,10.1-12,17.6-15.6H206.1z M168.8,238.1c2.6,21.1,23.8,40.2,46.5,41.7c13.8,0.9,25.6-4.1,33.5-10.1
		c12-9.2,11.6-12.8,18.4-23.9c3.2-19,5.6-26.6-6.6-46.6c-24.1-39.1-98.5-25.9-91.6,39H168.8z"/>
	<path class="st4" d="M303.6,94.9c3.2-2.9,11.3-2,15.9-1.2c0.8,5-5.1,42.4-7.2,47.5H288c-0.2-2.6,5.6-20.8,6.8-23.9
		c1.7-4.4,3-6.9,4.1-10.8c1.2-4.2,1.8-9.3,4.7-11.6H303.6z M258.3,140l0.6,3.2c3.9-0.9,30.4,0.3,37.2,0.5c13.4,0,26.9-0.3,40.3-0.3
		c26.6,0,53.4,0.3,79.9-0.2c1.2-2.4,1.5-4.1,1.1-7.8c-5.1-3.6-16.8-19.1-21.1-24.1c-7.4-8.7-12.2-19.4-26.5-19.6l-68.9-0.2
		c-15.9,0.6-17,3-27.7,13.8c-3.9,3.9-6,6-9.3,9.5c-2,2-8.1,7.8-9.2,10.2c-2.6,6-1.2,14,3.8,15L258.3,140z"/>
	<path class="st5" d="M208.3,128.7l-3.8,5.3c6.2,4.2,43.8,8.4,54.3,9l-0.6-3.2c-5-1.1-6.2-9-3.8-15c1.1-2.4,7.1-8.1,9.2-10.2
		c3.5-3.5,5.4-5.6,9.3-9.5c10.7-10.8,11.7-13.2,27.7-13.8l68.9,0.2c14.3,0.3,19.1,10.8,26.5,19.6c4.2,5,15.9,20.6,21.1,24.1
		c0.5,3.8,0.2,5.4-1.1,7.8c10.8,0.6,40.3,1.7,49.6-0.5l-4.4-4.2c1.8,2.7,0.9,1.2,2.1,4.2c-25.9,1.7-26-1.8-38.2-16.8
		c-5.9-7.2-22.9-23.6-22.9-32.3c15.2-6.6,20.8,0.5,27.8,8.4c-4.1-8-9.8-10.7-13.1-12.9l-2-1.5c-0.2-0.2-0.5-0.3-0.8-0.5
		c-14-7.4-89.2-4.7-109.1-4.7c-26.3,0-41.5-1.8-59.1,12.9L208,128.6L208.3,128.7z"/>
	<path class="st6" d="M530.6,196.4c-16.4,5.7-26.5,22-21.7,41.8c3.6,15,22.7,28.4,42.7,23c14.6-3.9,28.4-22.6,22.6-42.4
		c-4.5-15-22.3-30.1-43.8-22.4H530.6z"/>
	<path class="st6" d="M213.7,212.7c9.8-3.8,18.7,4.1,20.8,9.8c3.5,9.9-2.7,19-9.8,21.7C204.9,251.6,191.3,221.2,213.7,212.7z
		 M206.1,197c-7.5,3.6-13.2,7.1-17.6,15.6c-14.9,29.2,16.2,59.1,42.9,47.5c14.9-6.5,26.2-24.1,19.3-43.2
		c-5.1-14.3-24.7-29.6-44.7-20H206.1z"/>
	<path class="st4" d="M461.4,138.3c-4.5-6.9-10.2-12-15.3-17.9c-5.6-6.5-10.1-12.9-15.8-18.8c-7.1-8-12.6-15-27.8-8.4
		c0,8.7,17,25.1,22.9,32.3c12.2,15,12.3,18.5,38.2,16.8c-1.2-3-0.3-1.5-2.1-4.2V138.3z"/>
	<path class="st7" d="M287.7,141.7h24.8c2.1-5.3,8.1-43.5,7.4-48.4c-4.7-0.8-12.9-1.8-16.2,1.2c-2.9,2.3-3.5,7.5-4.8,11.7
		c-1.2,4.1-2.6,6.5-4.2,11c-1.2,3.2-7.1,21.8-6.9,24.4V141.7z"/>
	<path class="st8" d="M213.7,212.7c-22.4,8.6-8.7,39,11,31.4c7.1-2.7,13.2-11.6,9.8-21.7C232.5,216.7,223.6,208.9,213.7,212.7z"/>
	<path class="st9" d="M134.1,177.5c6.2,0,17.1,1.4,21.8-1.8c4.5-3,5.4-12.8-2.7-15.5c-3.6-1.2-9.3-0.9-12.8-0.3l-2.9,0.6
		c-2.9,4.8-4.2,10.5-3.5,16.8V177.5z"/>
	<path class="st10" d="M295.2,199h169.5c4.5,0,8.1,3.6,8.1,8.1l0,0c0,4.5-3.6,8.1-8.1,8.1H295.2c-4.5,0-8.1-3.6-8.1-8.1l0,0
		C287.1,202.6,290.7,199,295.2,199z"/>
	<path class="st10" d="M269.8,226.9c-0.2,5.4-1.2,11.3-2.6,18.8l225.9,0.2c-0.9-7.1-2.6-12.2-2.7-19H269.6H269.8z"/>
	<path class="st8" d="M536.6,212.5c-22.4,8.6-8.7,39,11,31.4c7.1-2.7,13.2-11.6,9.8-21.7C555.4,216.6,546.5,208.7,536.6,212.5z"/>
</g>
</svg>
