<?xml version="1.0" encoding="utf-8"?>
<!-- Generator: Adobe Illustrator 21.0.0, SVG Export Plug-In . SVG Version: 6.00 Build 0)  -->
<svg version="1.1" id="Layer_1" xmlns="http://www.w3.org/2000/svg" xmlns:xlink="http://www.w3.org/1999/xlink" x="0px" y="0px"
	 viewBox="0 0 512 273.6" style="enable-background:new 0 0 512 273.6;" xml:space="preserve">
<style type="text/css">
	.st0{opacity:0.46;}
	.st1{fill:#606873;}
	.st2{fill:#151515;}
	.st3{fill:#5DC1E5;}
	.st4{fill:#EBECEC;}
	.st5{fill:#F6F6F6;}
	.st6{fill:#8E9191;}
	.st7{fill:#E31E24;stroke:#2B2A29;stroke-width:7.9823;}
	.st8{fill:#050505;}
	.st9{fill:#434242;}
	.st10{fill:#EACDB4;}
	.st11{fill:#FEFEFE;}
	.st12{fill:#FECC00;}
	.st13{fill:#BABBBD;}
	.st14{fill:#2B2A29;}
	.st15{fill:#DDB18A;}
	.st16{fill:#FCFDFC;}
	.st17{fill:#24749A;}
	.st18{fill:#AB8489;}
	.st19{fill:#3A97C3;}
	.st20{fill:#434242;stroke:#2B2A29;stroke-width:7.9823;}
	.st21{fill:#FEFEFE;stroke:#2B2A29;stroke-width:7.9823;}
	.st22{fill:#E31E24;}
	.st23{fill:#FFED00;}
</style>
<g id="Layer_x0020_1" class="st0">
	<path class="st1" d="M101.6,198.2l2.8-0.2l-0.3,3.6l-2.5-0.2V198.2z M456.6,193.2l0.8,2l0.8-2c0.9,1.1,0.6,0.6,0.8,2.3h-3.3
		c0.3-2-0.3-1.4,0.9-2.5V193.2z M460.8,194.1l0.8,0.2c1.2,1.2,0.3,0.5,1.2-1.1c0.5,0.9-0.2,1.1,0.9,1.1c1.2-0.2,1.1-1.6,1.2-1.7
		c-1.6-0.8-12.3,0.5-18.9-0.6c1.2,2,1.7,0.3,2.2,3.1c-2.8,0.8-2.2,0-4.2-1.1c-2-1.1-0.5-0.3-3.4-0.3c-1.4,0-3.7-0.8-6.4,1.6
		c-1.6,1.4-1.2,2.5-1.7,4.4c0,0,0,0.3-0.2,0.3c-3-0.2,0,0.2-2.7-1.7c-5,1.2-8.7,0.6-13.9,0.8c-1.7,1.4-1.4,0.3-1.7,2.7
		c3-1.4,0.2-1.7,7.3-1.7c2.7,0,5.5,0.2,7.8-0.6c0.6,0.5,0.9,2.8,6.6,1.1c-0.5-0.8-3.4-0.8-1.1-4.1c1.1-1.4-0.5-0.2,1.6-1.2
		c1.9-0.9,2-0.8,3.4-0.5c2.5,0.6,0.6,0,3.6-0.3l1.9,2.3c9.7-1.6,2.7,0.5,7.5,0.3c1.1,0,3-0.5,4.4-0.5c2,0,3.1,0.5,4.5,0.3
		c2.2-0.2,0.8-0.8,3.3-0.3l7-0.5c1.7-0.3,2.2-0.8,4.2-1.2c2.7,1.6,0.6,1.7,4.7,1.2c4.4-0.5,1.6-0.9,7.2-1.7c3.1-0.5,0.8,0,2.3,0.3
		c0.2,0,0.3,0,0.3,0.2h1.9c0.2,0,0.3,0,0.3,0l0.8,0.2v-1.2h-0.3c-5.9-1.2-7.2,1.1-8-1.4c-0.2-0.5-0.2-0.8-0.3-1.2
		c-0.2-0.6-0.2-2.2-0.2-3v-40.3l7.3-1.7c-0.6-1.7-0.8-0.9-1.6-2.5c1.6-0.6,0.5,0.5,1.6-1.1c0.2,0,0.3,0.2,0.3,0.2l1.1,0.8v-2.3
		c-1.7-3.1-0.3-5.9-1.9-8.4c-3-5,0.6,2.8-0.9-1.4c0.2-3.9,1.4-5.6-2.5-6.6l-1.1,3.7c-3.9,0.6-3.9,0.2-4.5,3.7c1.4,0.6,1.1,0.3,2.8,0
		c1.9-0.3,2.2,0,3.6-0.8c-0.9-0.6-2.2-0.5-3-0.5c-1.7,0-0.8,0.5-2.2-0.2c1.2-1.4,2.7-1.2,4.5-1.4c0.3-1.7,0-2.2,1.2-3.1
		c1.1,1.7,0.5,4.1,0.3,6.9c-0.8,0-1.4,0-2,0l-1.6,0.3c1.7,1.2,3.6,0.6,5.3,0.3c0.8,3.7-0.8,4.8,1.6,7.5l-1.9,0.3l-0.5-7
		c-0.2,0.2-0.2,0.3-0.2,0.3c-0.6,1.4-0.6,8.9-0.6,9.2c0,2,0,0.3,0.6,1.6l-5.6,0.6c-0.2-1.9,0-3.4,0-5.3l0.3-3.7
		c0-0.2,0.2-0.2,0.2-0.5c0-0.3,0.2-0.3,0.2-0.5c3,0.5,2.3,0.2,2.3,3.9c0,2-0.2,3.3,0.3,5.2c1.1-1.2,0.6-8.3,0.6-10
		c-2,0.2-2.2,0.5-3.9-0.8c-2.8-2.2,1.6,0.5-0.8-0.6c-0.2,3.1-0.3,6.2-0.3,9.4c-0.2,7.2,1.1,5.8-2.5,6.6l-0.2-15.1l2.3-1.2l-1.4-0.5
		c-1.1,0.9-2.7,0.6-4.4,0.6c-0.2,2.7-3.9,6.2-5.5,7.5l1.1,9.5l-4.4-0.5l0.2,6.6c0,0.2,0,0.3,0,0.5s-0.2,0.3-0.2,0.5
		s-0.2,0.5-0.2,0.5s-0.2,0.3-0.2,0.5c-2.8-0.9-0.3-1.1-2.2-3.6c-1.4,1.2-1.2,0.6-1.1,3.3l-4.8,0.2c-2.2-4.1-1.7-0.6-2-6.2l-7.2-0.2
		c-0.3-3.1-0.3-15.1-1.1-16.9c-0.8-1.6-2.2-1.7-3.4-5.3c-0.8-2.3-0.6-5.6-1.4-7.5c-0.8,0.9-1.4,5.3-1.6,6.7
		c-2.2,5.6-3.3,4.8-3.1,11.9c0.2,5,0.2,10,0.2,14.8l-2.8-0.9l-0.2-4.8c-0.8,0.6-1.2,0.9-2,1.4L436,155c-0.8,1.2-1.7,0.6-3.1,3.6
		c-1.1,2.5-0.5,3.1-0.6,5.8c-1.6-2.7,0-12.3-0.6-16.2c3.7,0,3.6-0.2,7.2,0.5c0.9,0.2,0.2,0.3,1.1,0.2c-0.6-3.4-0.3-0.2-10.1-2.2
		c-0.6,2.7-1.1,2-0.8,5.3l0.5,11.1c0,4.5,0.2,3.7,1.1,4.8c0.3-6.1-1.2-14.4-0.3-19.8c0.9,1.2,0.2-0.3,0.6,1.4v9.4c0,2,0,3.9,0,5.8
		c0,4.2,0,1.9,1.4,4.2l-2.2,0.8l-0.6,5l-0.8-2.2c0-0.5,0-1.9,0-2.3l-0.6-9.1c-1.1-3-1.2,0.2-1.7-2.8c-1.2,0.9-1.2,0.5-0.3,2
		c0.8,1.1,0.5-1.4,1.2,1.9c0.5,1.9,0.5,4.4,0,6.2c1.6,2.8,0,10.1,0.6,13.9l12-0.5c0,0.2,0.5,0.2,2.5-0.2c2.8-0.6,2.3-0.8,2.7,1.2
		v0.3v0.2c0,4.5-1.1,3.7-1.2,6.2c-0.3,3.9,0.3,2.2,0.6,2.7c0.9-3-0.5-2.8,1.4-4.7c0.2-0.2,0.3-0.3,0.5-0.2l1.7-0.5c0.5,0,2,0,2.7,0
		c4.2,0.2,7.3,0.5,10.8-0.6c3.1-0.9,1.7-0.3,3.1,1.7l4.2-0.3c-0.6,1.9,0.2,5.5-0.6,7.2c-2,0.8-2.3-0.3-4.7,0.2
		c-2.5,0.5-3.3,0.6-3-2.3l0.3,2.2c1.6-1.2,0.3,0.5,0.8-1.2L460.8,194.1z M493.7,201.5c-14.7,0.2-29.2,0.5-43.4,0
		c-2,0-4.2-0.3-6.2-0.3l-18.1,1.4c-3,0.2-10.5-1.1-12.3,0.2c5.9,2,25-0.3,32.5-0.5c5.3-0.2,11.4,0.6,17,0.5c5.6,0,11.4-0.3,17-0.5
		c4.5,0,8.9,0,13.4,0.2v-0.9H493.7z M437.6,156.2l1.9,0.6c-0.2,5.6,2.2,0.3,2,11.4c0.2,0.2,0.3,0,0.5,0.3c0.8,2.3,0.2-0.2,0.8,0.5
		c0.6,0.6,0.5,0,0.8,1.4c0.2,0.8-0.2,2.7,0,3.6c0.5,3.6,1.6-0.2,1.6,5.6c-1.2,2,0,1.1-2.5,1.6c-0.8,0.2-2.5,0.2-3.3,0.3l-11.2,0.2
		l0.2-3.6l12.2-0.3c5,0.2,2.2,0,3.3-0.5c0.2,0,0.3-0.2,0.3-0.2c-3.3-1.2-10.8-0.5-14.7-0.5c1.6-1.7,0.9-2.7,1.1-5.3
		c0.2,0,0.3-0.3,0.3-0.2l1.9-0.9c0.2-4.5-0.8-3.3,2.5-4.7c-0.2-0.2-0.3-0.3-0.3-0.2c0,0-2.7-0.2-1.9-4.1c0.2-1.1,1.1-3.6,2.3-4.1
		c0.5,1.4,0.2,2.2,0.2,3.7c0,2.2,0,3.9,1.1,5.2v-10.3l1.2,0.2L437.6,156.2z M448.2,179.5h-2.7c0.6-6.1-1.1-2-1.4-6.4
		c-0.2-1.2,0.3-3.1,0-4.1c-0.6-2.3,0.2,0.2-1.7-1.7c0-6.6,0-4.1-2.2-8.9c1.2-0.9-0.5,0.2,0.6-0.2l0.8-0.3c-0.6-5-0.2-11.1-0.3-16.2
		c-0.2-4.2-0.5-4.1,1.4-7.3c0.9-1.7,1.4-4.1,2.2-5.6c0.8,2,1.1,3.9,2.3,5.8c1.7,2.5,2,1.2,2.2,5.6c0.3,4.8,0.2,9.8,0.6,14.7
		c1.4,0.3-0.3,0.3,0.6-0.3c1.6-0.9-1.2,0.5,0.5-0.3c1.7-0.8,3-0.5,5.8-0.3c0.5,6.6,0.9,2,2.2,5.8h-5.2c0-0.2-0.2-0.2-0.5,0h-0.2
		c-0.2,0-0.3,0-0.6,0l-5.3,0.8c0,0.2,0.2,0.2,0.2,0.3c0,0,0.2,0.2,0.2,0.3c1.2,2.8,0.8,17.3,0.5,18.7V179.5z M453.6,159.5h-0.2
		c0,0,0,0-0.2,0s0-0.2,0.2,0H453.6z M453.5,160.4L453.5,160.4c-0.8,0-1.9,0-2.5,0.2c-2.3,0.5-1.2,0.6-1.6,0.9l4.7,0.2
		c0-1.9,0.2-0.3-0.8-1.2H453.5z M455.3,160.4l4.7-0.3c0,3.4-0.2,5.9-0.3,8l-0.2,9.5v4.5l6.2-0.2c-0.9-0.9,1.4-1.1-1.7-0.6
		c-2.7-0.2-2,0.5-3.9-0.6c2.2-1.2,1.4,0,3.9-0.2c0.3,0,1.2-0.2,1.6-0.3c1.1-0.3,0.5-0.2,1.1-0.6c-1.4-0.6-4.4-0.5-6.2,0
		c1.7-2.8,3.1,0.5,5.5-1.6c-1.2-0.8-1.2-0.5-2.8-0.5c-2-0.2-1.2,0.3-2.5-0.6c0.5-0.3,0-0.3,1.1-0.5c1.7-0.3,2.3,0.5,4.4-0.5
		c-1.6-0.8-2.7-0.5-5.3-0.6l0.2-1.4c1.7,0,5.2,0.6,6.4-0.6c-1.9-0.8-3.4-0.2-5.3-0.5c-1.7-0.3,0,0.5-1.1-0.5c2.2,0,4.5,0.6,5.8-0.6
		l-5.8-0.5c1.7-1.2,4.2,0.2,5.9-1.6c-1.9-0.8-4.5,0.6-5.9-0.5c1.2-1.1,1.4-0.5,3.1-0.6c1.9-0.2,2-0.2,2.8-0.9
		c-2.3-0.3-4.5,0.6-5.9-0.5c1.4-1.4,3.9-0.3,6.1-1.6c-2.7-1.1-4.4,0.8-6.1-0.5c1.6-1.4,4.1,0,6.2-1.4c-2.2-0.8-3.7,0-6.1-0.5
		c2.3-1.4,4.5,0.6,6.6-1.6c-1.9,0-5.2,0.8-6.6-0.3c0.2-3,2.2-1.9,8.1-1.4l-0.3,27.2l-4.1,0.3l-0.9-1.9c0-0.2-0.2-0.3-0.2-0.5
		c-4.4,0.5-4.5,1.4-9.4,1.2h-7.8c-1.4-0.3-1.1,0.3-1.4-0.8c1.6,0.2,3.3,0.2,5,0.2c4.5,0,3.7-0.2,4.7-1.1l-9.5-0.8c0-0.2,0-0.2,0-0.2
		c-0.8,0.2-1.1,0.2-1.2,0.2 M445.7,183.8L445.7,183.8c2.5,0.2,7.5,1.1,9.1-0.3c-2.7-1.1-7.2,0.5-9.5-1.2l9.7-0.2
		c1.9-2.8,0.2-17.8,0.5-21.5c-0.2-0.2-0.3-0.5-0.5-0.5s-0.3-0.2-0.5-0.2s-0.3-0.2-0.5-0.2c-0.3-0.2-0.5-0.2-0.6-0.2 M462.5,183.2
		c-1.2,0-2.3,0.2-3.3,0.3c1.2,1.1,0.6,0.8,3.9,0.6c1.7,0,1.6,0.3,3-0.5c-0.5-0.5,0.9-0.6-3.4-0.5H462.5z M444.6,190.6
		c1.4,1.2,0.2,0.6,4.5,0.6c3.4,0,12,0.5,14.2-0.6C461.1,189.5,444.6,190.6,444.6,190.6z M450.8,193.4l1.1,2c0,0,0.2,0.2,0.2,0.3
		c-0.2-2.2-0.5-1.1,0.6-2.5l1.2,2.2v-2.2c1.2,1.1,0.5,0.2,1.2,2.5c-3,0.3-5.3,1.7-4.5-2.5L450.8,193.4z M448.8,193.4
		c1.6,0.8,1.2,1.1,0.3,1.9L448.8,193.4z M469.4,152.5c3.4-0.2,2.5,1.1,6.1,0.5c2.2-0.3,4.4-1.1,6.7-1.7c0.3,7.6,0.5,14.8,0.3,22.5
		l0.2,17.3c0.2,5.2,1.2,0.5,0.9,3.9c-9.5,1.1-3.9-0.2-8-0.8c-2-0.3-3.4,1.2-7.3,1.1c-0.5-9.4,0.6-2.7,1.1-9.1l-0.2-33.9L469.4,152.5
		z M479.7,135.5c0.8,5.8,0.2,9.8,0.3,15.5l-6.2,1.1c-0.6-7.2-1.9-10,1.7-10.8c0.8-0.2,3-0.2,3.9-0.2c-1.1-1.2,0-0.6-1.7-0.9
		c-1.1-0.2-1.2,0-2.3,0.2C476.7,138.1,477.5,136.2,479.7,135.5z M82.1,200.5l-0.6,0.3l-7.6-1.4c-1.2-0.3-0.6,0-1.4-0.9
		c1.6-1.1,3.4-0.8,5.9-0.6c-0.6-1.9-0.5,0.3-1.6-2c0-0.2-0.2-0.3-0.2-0.5l-0.2-1.7l4.5,0.2c-0.2,1.9-0.6,3.7,0,5.2
		c0.9-1.6,0.3-3,1.1-4.2v5.6V200.5z M100.2,190.6l0.2,0.3c-0.9,1.1,0.9,0-0.9,0.5c-0.2,0-1.4,0.2-1.7,0.2c0,4.5-0.2,1.7-1.4,2.7
		c0,0-0.2,0.2-0.3,0.2l-0.5,0.3c-1.4,1.2-2.8,0.9-6.9,1.2l-0.2,5.8h-5.3v-5.8c4.1-0.9,4.1-0.5,7-0.9l2.2-0.6l0.2-0.6v-5.8l8.6-0.3
		c-3.3,0.6-5.8-0.6-7.5,1.1l-0.2,1.2c0,0.2,0.2,0.3,0.2,0.5h6.6V190.6z M397,199h1.4l-0.5-1.6c2.7-2.7,4.5-0.9,5.3-0.8
		c0.6,0.2,6.2,0.9,6.6,0.9c1.7-0.6-0.2-0.8,1.9-1.2c1.4-0.3,0.9,0.3,2.8,0.8c2.7,0.9,3.7-0.5,6.7,0l0.3,1.2c1.6-1.2,0.5-0.8,1.2-1.4
		c1.1-0.8,0-0.5,1.7-0.3c2.7,0.3,3.7,1.6,4.1-1.9c0-0.5,0-1.7,0-2.2c0-1.7,0.3-2.8-0.5-3.9c-0.9,2.2-0.2,4.2-0.5,6.1l-0.8,1.6
		c-0.8-2.2,0.2-5.6-0.9-8l-0.3,0.8c-0.5,2.2,0.2-1.7-0.2,0.9l-0.5,5.3l-0.2,0.3c-1.6-2.8,0.5-5.6-1.4-7c0,2.2,0.6,5.5-0.6,6.9
		c-0.8-1.4-0.5-5.5-0.3-8l8.4,0.6c0.6,2.3,0,7.5,1.6,8.6v-3.6c3.7,0.5,7-0.2,8.1-0.6c-1.1-0.6,1.2-0.3-1.7-0.5c-0.5,0-1.6,0.2-2,0.2
		c-5.9,0.5-3.7,0-4.7-0.8c0.6-0.3,0-0.5,2-0.6c1.7-0.2,4.2,0.6,6.1-0.3c-1.1-0.9,0-0.6-3.4-0.6c-2,0-3-0.2-5,0.2
		c0.8-1.1,0-0.8,1.4-0.9c2.2,0,5.5,0.6,7-0.2c-1.1-0.9-0.2-0.6-2.2-0.6c-4.7-1.6-4.2,1.4-5.6-1.4c0.9-0.6,0.6-0.6,2.7-0.5
		c0.8,0,6.6,0.9,6.9,0.2c0-0.2,0.3-0.2,0.3-0.2c-4.1-2-9.2,0.8-10.5-3c-2,0.5-4.2,0.8-6.1-0.3l-7.5-0.6c-0.9-4.5,0.2-5.3-4.5-5.3
		c0.9-0.2,0.6-0.3,0.8-1.1h-9.8c0.9,0.9-0.2,1.1,0.3,1.1h-0.5c-0.8,0.2-0.5,0-1.2,0.3l-0.8,15.6c-1.7-0.5-1.6,0.8-1.1-5.6l0.8-12.6
		c0.5-5.5,1.1-3.1,0.5-4.7c-1.7,0.6-1.1-0.2-1.4,2.7l-0.6,8.9c0,2.3-0.2,4.5-0.3,6.9c-0.3,5.2-0.6,3.7-1.4,5c5,2.2,7-1.4,7.8,2.3
		c-1.1,0.3-0.5,0.3-2.2,0c-2.7-0.3-1.1-0.3-2.5-0.6c-2.7-0.8-1.4,0.3-4.1,0.3c-0.5-3.6-1.1-16.9,0-19.5c-1.1-1.2-0.6-0.3-1.2-1.6
		l-13-0.2c-1.6-0.2-0.5,0-1.7-0.5c-0.2,0-0.6-0.3-0.6-0.3s-0.3,0-0.3-0.2c0-0.2-0.2-0.2-0.3-0.2v22.5l-1.1,0.6
		c-2,1.4-0.8,1.7-1.6,1.4c-0.9-2-0.9-10-1.1-13l-0.3-10c-0.2-3.3-0.2-2.3-1.1-2.8c0.2,3.3,1.2,25,0.8,25.8c-0.6-1.9,0-3.3-1.1-5
		c-0.6,1.4-0.2,0.9-0.3,2.5c-0.3,3.4,0.3,1.6-0.8,2.3c-0.6-1.2-0.3-0.9-0.5-2.3l-0.5-2.2c-0.6,1.2-0.3,3.1-0.5,4.7
		c-1.6-1.4-0.5-2.2-1.6-4.4c-1.4,1.9,0.8,2.5-0.5,4.4c-0.5-1.6-0.2-2.7-1.1-3.9c-0.9,1.7,0.2,2-0.5,3.7c-1.7-0.6-0.3-0.5-1.4-2.3
		c-1.9-3-1.1,1.1-1.9-2.5l0.6-29.3l8.3-0.2c0.9,2.2,0.9,6.1,0.8,8.9c1.7-0.8,1.2-1.1,1.1-3.6c-0.6-6.9-0.5-4.2,0.6-5.5
		c1.1-1.2,1.4-3.1,5.5-3.3c1.6,3-0.8-0.6,0.3,1.9c1.2,2.8,1.2-1.2,1.7,7l0.3,5c1.4-1.2,0.8-2,0.8-4.4c2,0.2,5,0.5,6.7-0.2
		c-1.6-1.4-5-0.8-6.9-0.3v-3.7h7.6c-2.2-2.2-5.3,0.2-7.8-1.2c1.9-1.2,6.1-0.6,8.4-0.6l0.2-0.9c-2-0.2-3.7-0.2-5.8-0.2
		c-2,0-3.3,0.5-3.9-1.1c-1.6-4.4,4.8-2.3,6.2-2.2l4.1,0.6l0.5,2.8l0.6,8.4c2.3-3.3,3.1-5.5,5-6.2l0.9,1.9c0.6,1.1,0.3,0.8,1.1,1.6
		l1.2,0.9c3.4,3,1.2,0.2,7.5,1.2c3.4,0.6,0.9-1.2,5.9-0.9c0,2.2-0.8,5.8,0.3,7.3c1.1-1.7,0.6-7.3,0.6-9.7c0-8.6,0.6-3.1,1.4-9.1h4.7
		v-1.7c-2.5,1.6-2.3,0.2-5.9,1.1c-0.2,0-0.3,0.2-0.3,0.2c-2.8,0.8-2.5-1.4-2.7-4.7l0.8-0.2c0.2,0,0.3,0,0.5-0.2l2.5-0.3l0.6-1.9
		c-1.4,0.8-1.6,1.2-3.3,1.1l-0.6-13.9c0-4.1-0.5-3.3-0.6-3.9c0-0.2-0.2-0.3-0.2-0.6l-11.2-0.2l0.3,6.6c-7.3,2-10.8-0.2-12.6,0.3
		l-2,1.1c-0.8,0.5-0.2-0.3-1.4,0.8l-0.5,12.2l-3.3,0.6l-0.6,4.1h-5.3c-1.2-2.2,0-3-3.4-2.2c-0.9,2.2,0.6,1.7-0.6,3.3
		c-2,2.5-2.2-0.9-2.3-1.2c-0.2-0.8,0-6.2,0-7.5c-0.2-19.7,0.2-14-4.5-15.6c-4.8-1.6-3.1-0.3-7.2,0c-2.2,0.2-5-0.2-7.2,0
		c-3.9,0.3-0.3-0.2-3,0.9c-0.8,0.3-2,0.6-2.8,0.9l-0.2,17.3c-1.2-2.5,0.5-6.6-0.8-9.2c-1.1-2.3-1.2,0.5-1.9-3.4
		c-0.3-2.3,0.3-3-1.2-4.2c-2,1.9,0.2,3.9-3.4,6.6v-27.3c-5.9-0.2-11.6-0.9-17.6-0.5c-1.2,5.3,0.5,16.9-0.2,23.4
		c-2-0.5-5.6-0.6-7,0.2c-1.7,3,0.5,30.1-1.1,33.2c-4.8-0.6,1.6-7.3-4.1-7.5l-0.6-3.7l-2.5-0.3c-0.2,0.2-0.2,0.3-0.2,0.5
		s-0.2,0.3-0.2,0.5s-0.2,0.3-0.2,0.5l-0.2,0.9c-0.5,1.7,0.2,0.3-0.6,1.4l-1.7,2.5c0-0.2-0.2,0.3-0.2,0.5c-0.9-2.2,0-3.1-0.2-5.6
		l-3.4-0.8l-2-3.6c-2.3,1.6-3-0.3-5.3,1.7c-2.7,2.3-0.8,1.7-5.3,1.9c0.2,4.2,1.1,14.7,0.2,18.1c-0.9-0.6-1.9-1.4-3.6-0.6
		c-2.8,1.2,1.4,1.1-3.6,1.6l-0.2-1.7c-1.4,0-2.7-0.2-3.7-0.2c-2,0-2,0.9-2.5,0.3c-0.9-2.7,0.6-3.4-1.4-6.1l1.2-0.5
		c0.8-3.4,1.2-29.3,0.2-30.9c-1.9-2.2-7.8,0.2-12-0.5l-0.9-39.6c-0.2-2.2-0.3-4.5-0.2-6.7l0.2-5.3c-0.3-1.6-0.3-1.1-0.8-1.7
		c-1.6,5,2.2,59.3,0.3,61.3c-1.2-0.5-1.2-0.2-2-5c-0.3-2.2-0.5-5.2-0.8-7.5c-0.3-4.5-0.6-9.2-0.9-13.9c-0.6-9.8-1.2-19-1.9-28.7
		c-0.2-7.8-0.8-5.8,1.7-7.5l0.8-0.6c-2,0.2-3.4-0.2-5.6-0.2c-2.5,0-4.2,0.3-6.6,0.5c-0.9,1.1-0.3,0.6-1.4,1.2L244,90v4.4v7
		l-1.7,57.6c-0.5,0-1.6,0-2,0c-2.2,0.5-1.1,0.9-3.3,2.7c0,0-0.3,0.2-0.3,0.3c-0.5,0.3-0.2-0.3-0.5,0.9l-1.6,7.8
		c-1.9-1.7-1.1-8.9-1.1-11.7c0-3.7-0.9-5.5-1.6-7.8c-0.2-0.6-0.8,0.6,0.2-1.9l-2.8-0.2c-0.2-1.6-0.3-4.5-5.5-4.7
		c-3.1,0-7.2,0.9-7.3,3.7l-1.4-1.6c-5.8-0.5-8.9,3.1-10.8,7.8l0.3-8.1l10.5-0.3c2.3,0,0.9,0.2,1.7-1.1l-12.8,0.5
		c-0.3-1.7-0.2-1.7,2.3-1.7c0.9,0,2.5,0.2,3.6,0.3c3,0.2,5.9,0.2,8.9,0.2c-0.5-1.2-0.3-0.9-1.6-2.2c-0.6-0.8-0.9-0.8-1.6-1.6
		c-1.1-1.1-1.9-2.2-2.8-3.3c-3,0.3-4.2,1.9-6.4,3.4c-2.8,1.9-2.7,1.6-4.2,4.8c-0.5-1.2-0.2-4.7-1.2-5.5c-1.9-0.9-14.7-1.1-16.7,0
		l8.1,0.5c5.6,0,5-0.3,7.2,0.3l-15.1,1.1c1.4,2.2,2-0.8,2,7c0,3,0,5.6,0.2,8.4c-4.1-0.2-7.8,1.2-11.6,0.3c-0.8,3-0.9,1.6-1.9,3.1
		c-0.8,1.6,0.2,0.2-0.5,1.6c-2.2,5.3-2.2-0.8-1.7,8.9l-3.7-0.5l-0.9,2.5l-2.5,0.2c-0.2,1.1-0.2,2.3-0.2,3.4l-1.9-1.6l-2,0.3
		l-1.1,2.5c0.2-2.3,0.3-5.6,0-8c-0.5-3-0.2-3.7-0.3-6.9l-1.7,1.1l-1.6-0.3l-0.8-3.1c-3.3-0.8-10.5-0.8-14.4-0.5
		c-1.1,3-2.2,3.1-2.5,5.3c-0.3,1.9,0,4.7-0.2,6.9l-0.2,10.8h5.2c-1.1-0.9-0.2-0.5-1.9-0.9c-0.2,0-2,0-2.5-0.2
		c-0.2-3.6,0.2-7.2,0.2-10.8c0.2-6.7-0.6-4.4,1.1-8c0.5-1.1,0.5-1.4,0.8-2.2l1.1,2.3c0,0.2,0.2,0.3,0.3,0.5c0.2-0.2,0.2-0.5,0.2-0.5
		c0.2,0.3-0.3-0.8,1.9-1.1l10.3-0.6l-0.3,1.2h-1.2c-0.8-0.2-2-0.3-3.6-0.2c-0.5,0-1.1,0-1.6,0.2l0,0h-3.4v7.6l-1.9,1.2
		c2.3,0.3,0.9-0.5,1.9,0.9c-0.6,1.4,0.6-0.5-1.6,1.9c2.5,0,5-0.2,7.5-0.2c5-0.2,4.2-0.3,6.4,1.2c-0.2-1.9,0.2-3.1,0.3-4.5
		c-0.9-1.9,0.2-4.2-0.3-5.6c-1.4,0.8-0.9,3.4-0.9,5.6l-10.1-0.2v-6.1c0.2-0.2,0.2-0.2,0.3-0.3l0.9-0.9c11.6,0,3.1,1.1,11.4,0.9
		l-0.2,3.3c1.1,2.8,0.8,6.1,0.8,9.5l-11.7,0.2c-1.7-2.2,0.9-1.2-1.7-2.3l0.2,3.3c5.9,1.4,8.9-1.1,14.5,0.5l-3.3,0.9
		c-1.9,0.3-2,0.3-3.9,0.3c-3.3-0.2-5-0.5-8.4-0.2c0.8,5.2-0.5,5.2-0.8,8.9c-0.2,3.3-0.2,5.9-0.6,9.5l-7-0.3l0.2-8.1
		c0.6-1.7,0.3-0.8,2.5-1.6c-0.9-1.1-0.8-1.9-1.9-2.5c-1.6,1.7,0.5,3.1-9.1,1.6c1.2,0.2,2.3,0.2,3.3-0.6c-1.4-0.3-2.3-0.3-4.1-0.3
		c-4.1,0-3.3,0-3.9-0.9h8c-0.9-0.9,0.8-0.5-2-0.9l-5.9-0.2c-0.3-1.9,0.2-3,0.3-4.4h10.8c1.9,0,1.9,0.2,3.3-0.6l-0.2-2.7l-5.6,0.2
		c0.5,1.4,0.9,0.3,1.4,1.9c-1.4,0.5-3.4,0.3-5.2,0.2c-6.2-0.2-4.2-0.2-4.7,0.9c-2.7-3.6,1.4-10.8,2.7-4.8c0.3,1.9-0.5,0.9,0.5,2.8
		c0.8-1.4,0.5-3.1,0.5-4.8c0-1.7,0-2.8,0.3-4.7h7.3l0.2,6.1c0.3,1.4,0,0.5,0.6,1.2c1.1-3,0.3-8.3,0.3-11.7c0-2.2,0.2-6.2-1.4-7.8
		l-1.2-0.9c0-0.2-0.2-0.2-0.3-0.2l-0.8-7.5c-0.5-3.1,0.8-2-0.6-4.2l-0.3,1.2c0,0.2,0,0.3,0,0.5l-0.8,5.6c-0.5,2.5-1.4,4.7-1.9,6.6
		c-0.9,3.3,0.2,3.1-2,10.6c-0.3,0.9-0.2,2.3-0.2,3.4c-1.2-0.2-2.2-0.6-3,0.6c-0.6,0.9-0.9,2.3-1.1,3.6l-5.8-0.2
		c-0.5,4.1-0.8,3.4-1.4,3.9l-0.8,0.3c0-0.2-0.3,0-0.5,0.2l1.9,1.4c0.6-1.2,0.3,6.1,0,5.2c0,0-0.2,0.3-0.2,0.5l-0.3-0.8
		c-0.8-3,0.3,2.7-0.2-0.9c0,0,0-1.4,0-1.6c-2.7-2-2,0-2-4.2c-0.2-3.1,0-2.5-2.7-3.1l1.1,9.4c0-0.2,0.2-0.3,0.2-0.5
		c0.2-0.3,0-0.8,0.3-1.4l1.9,0.2c0.9,4.4-0.9,4.1-4.1,4.1c0-1.9,0.6-5-0.6-6.6c-0.2-0.2-0.3-0.5-0.5-0.6c-0.5-0.6,0,0.3-0.5-1.1
		c-0.5-1.2,0.5-0.8-0.8-2.3c-3.4,0.5-3.6,3.1-4.5,6.1v-8.4l8.6,0.2c-1.6-0.9-2.8-0.8-4.8-0.8c0.5-2.2,0.5-3.7,0-5.6
		c-2.2-0.8-5.8-0.2-8.4-0.2c-2.8,3.6-0.6,0.3-3.7,2.3v2.7v3.7l-3-0.3v0.8l-0.6,1.6c0,0.2-0.2,1.7-0.2,2c-3,0-4.1,0.9-6.9,0.3
		l0.2-4.7c1.9-1.4,3.4-1.7,5.6-0.6c0.8,0.3,0,0.5,0.9,0.5l1.4-1.1c-1.1-1.6-0.2-0.2-1.1-1.2c-2-2.7-1.9-2-1.6-4.4
		c0.3-2.7,1.1-4.2,0.6-7.2c-1.6-0.2-0.9,0.2-2.5,0.6c0-2,0-4.1,0-6.1c0-1.7,0.5-4.5-0.6-5.8c-1.6,3-0.8,9.4-1.1,13.1
		c-3.3,1.4-2.8,0.9-3.4,5l-1.1-2l-0.2,5.3l-9.2-1.7c-2.5-6.7-0.8-8.9-1.4-12.2c-0.3-1.4,0.2-0.3-0.5-1.1c-1.2,3.3,0.3,8.3-0.6,9.1
		c0,0-0.2,0.2-0.3,0.3c-2,2-1.1,1.1-1.7,3.4l-7.3,0.3c0-2,0.5-3.1-0.6-4.2l-1.9-1.7c1.7-0.9,0.6,0,0.8-0.8l-3.4-0.3
		c0.5,3.7,0.8,8.9-0.2,13.1c-1.2,0.8-1.7,0.5-1.7,0.5c-0.2,0-1.4-0.2-1.6-0.2c-1.2,1.9-0.2,1.2-1.6,2.5c0-2.3-0.8-9.2-1.4-10.8
		c-2.3-1.1-10.6-1.1-13-0.2l-2.7,3.4c-2.2,3.3,1.2-0.8-0.6,1.2v-5.6l-7.8-0.3c-0.2,7,0.5,8.3-2.7,15.5c-0.2-0.2-0.2-0.3-0.2-0.5
		s-0.2-0.3-0.2-0.5c-2-3.3-2.2-0.8-5-1.9c0.8-6.9,1.4-2.5-3.3-9.8c-0.2,2.8,0.9,2.2,2.2,4.7c1.1,2.3,0.3,2.8,0,5.5
		c1.2,1.6,0.5,0.3,2,1.6l0.2,5.9c-0.9-0.2-1.6-0.3-2.5-0.2l0.5,0.9c0.5,0,1.4,0.2,1.9,0.2c0,0.2,0.2,0.3,0.2,0.5s0.2,0.3,0.2,0.5
		c0.8,4.2-0.3-3.1,0.2,0.9c0,0.5,0,1.4,0,1.9c2.8,0.6,5.3-1.6,5.3,2.2c-1.6-0.3-5.6-2.3-8-0.3l5.5,0.3l0.9,3.3h-9.7v0.9
		c5.2,0.3,18.3-0.5,22,0.6c-2.3,1.2-19.7,0.5-21.7,1.6c0.2,0,0.3,0,0.5,0.2c0.3,0.9,22.5-0.3,22.9-0.3c7.8-0.5,15.5-0.6,23.4,0.2
		c5.2,0.5,19,1.6,23.6,0.8c14.8-2.3,29.7,0.6,47.3-0.5c7.6-0.5,15.3,0.2,22.9,0.8c22.3,1.7,44.6-2.2,72.3,0.2
		c16.5,1.2,54-0.9,72.3-0.9c16.1,0,32.5-0.3,48.5,0c15.9,0.3,20.8-0.2,35.6-0.9c1.9-0.2,4.4-0.2,6.2,0c1.4,0.2,1.6,0.3,2.7,0.3
		c1.2,0,0.2-0.2,2.2-0.3v-3.6c-2.5,0.2-0.9,0-2.7,2.7c-1.1-1.6-0.5-1.4-0.9-3.1l7.3-0.6l-0.9,2.7c-0.9-0.5,0.2-0.3-0.9-0.3
		c-1.1-0.2-0.3-0.2-1.1,0.3l0.2,2.3l0.9-1.4c0.3,1.7-0.2,0.6,1.1,1.2l0.8-2.2c0.8,2.7-0.5,0.3,1.4,1.7l1.2,0.8
		c0-2.2-0.9-1.7,0.2-3.4L397,199z M280.7,193.5l-0.3-0.6c-1.1,1.4-0.5,0.6,0,1.6C280.7,194,280.7,194.5,280.7,193.5z M67.3,183.1
		l-0.2-1.7l1.6,0.2c0.2-0.2,0.2-0.2,0.3-0.3c1.2-0.9,0.9-0.8,2.8-0.8v3.9L67.3,183.1z M65.6,181.3l0.5,1.1c-0.6,1.7-1.1,0.8-3.6,0.9
		l-1.6,1.7c-0.6-0.9-0.2,0.9-0.6-1.6c-0.2-0.5-0.2-1.9-0.2-2.3L65.6,181.3z M234.9,173.5l0.6-0.9c0-0.2,0.5-0.5,0.5-0.6
		c0.3-3.3,0.8-7,0.6-9.7l2.7-0.2c0.9,5.5,0.9,2.7,0.5,10.3c-0.2,0-0.3-0.2-0.3,0s-0.3,0-0.3,0c-1.7-0.2,1.6,0.2-1.1-0.2l-1.7,0.2
		c2.7,1.9,3.7,0.5,3.1,3.7c-3.4,2-5.6-0.9-5.8-0.9c0.6,7,0.9,5.2,0.6,14c-0.2,2.5-0.8,11.4,0,13c1.9-1.7,0.9-20.4,1.1-24.5l4.4,0.2
		c-0.8,5.6,0,11.1,0,16.5c0,2.2-0.3,3.7,1.1,5.2c0.2-4.1-0.3-8.3-0.3-12.3c0-2-0.2-4.4,0-6.4c0-1.2,0-1.6,0.5-2.7l1.7-1.6
		c-2.7-0.8-2,0.6-1.9-2.3c1.9,0-0.2,0,0.9,0.3l0.9,0.3c0,0,0.2,0.2,0.3,0.2c0-4.1,1.2-3.4,1.7-3.6c0.6,2,0.8,2.5,0.3,4.8
		c0.2,0,0.3,0,0.5,0.2l4.2,2.5c0.6,5-0.6,3.7,1.2,6.9l1.2,2.8l5.9,0.3l0.3-16.2c2-0.2,10.9-0.3,13.3,0.6l0.2,7.8
		c-7.2,1.2-9.2,0.9-9.8,8.7c1.4-1.4,2-3.9,2.7-5.9c1.7-0.3,2.7-0.6,3.9-0.8c0.8-0.9,2.8-0.5,4.7-1.1c1.9-0.6,1.9-2,3.9-1.9
		c3.9,0.3,2.7,2,6.1,1.9c3.7-0.2,1.2-0.6,2-1.4c0,0-0.2-1.2,1.7,0c0.2,0.9,0,4.7,0.2,6.9c0.2,5.8,0.9,2,1.2,6.9
		c0.8,0.5,0.5,0.5,1.1,0.9c-0.5,0.8,0.6,0.9-0.8,0.5c-2.3,0.2-2.8,1.1-4.1,0.8c-1.9-0.5-0.5-1.2-3.6-1.4c-1.1,1.6-0.9,2.7-1.2,1.9
		c0-0.2-0.2,0.2-0.3,0.3c0-1.7-0.2-3.6,0.6-5.2c3.1-0.2,1.4-0.5,2.5,2.7c0.8-1.2,0.8-1.4,0.5-3.4c-2-0.5-2.5-0.6-4.2,0.3l-1.2,0.6
		c0-0.2-0.2,0-0.3,0l-0.2,9.2c0.3,0.3,0,0.5,0,0.6h-1.9c1.1-2.7-0.3-6.7,0.8-9.5l-8.4-0.2c-0.2-1.4,0-2.5,0.2-3.7l1.1-3.3
		c4.1,0.9-3.1-1.2,1.1,0.5c3.7,1.4,4.1-1.9,5.9,1.9c1.7-0.6,0.8-1.7,4.1-1.9c1.4-0.2,3.6,0,5-0.8c-1.6-0.8-4.5-0.2-6.9,0
		c-0.8-0.9,0.2-1.4-1.1-2c-0.9,1.2-0.2,0.8-1.1,2.7c-1.4-1.6-1.4-0.6-4.1-0.5c-1.1-2.7,0.8-1.6-1.7-2.2c-0.3,1.6-0.5,0.9-2.8,2
		l-1.4,7.8l-0.6-2.5c-1.1,0-2.3-0.2-3.4,0.3c-1.2,0.6-0.5,0.8-1.7,1.2c-1.1,0.5-5,0.6-6.4,0.6c-1.6,1.7,0.3,0.5-1.6,1.7
		c-1.7-0.9-1.2-0.3-2-0.5c-3.3-1.2-0.3-1.6-6.2-1.2v-1.2c1.6,0,3.9,0.3,5.2-0.5c-1.6-0.8-3.4-0.3-5.5-0.6l0.2-11.7
		c-1.4,1.4-0.8-1.6-1.2,3v8c0,5.6-0.8,3,0.5,5.8l0.2,0.2l-0.6,2.2c0.2,0,0.3-0.2,0.5-0.3c0.2,0,0.3-0.2,0.5-0.3
		c2.8-1.2,7,1.4,12.8,2.5l0.9,0.2c4.5,1.1,5.9,0,6.2,2.7c-6.4,2.7-35.9,0-45.7-0.2c-5.2-0.2-10.3-0.2-15.6,0c0-2.2,0.5-2.5,0.2-4.1
		c0.5-3.6,0.2-8.4,0.3-12.3l0.8-11.6c2,1.4,0.9,10.3,1.1,13.1c0.2,4.4,0.5,8.9,0.2,13.1l3,1.9l0.6-1.2c-1.2-2.3-0.2,0-0.9-0.6
		c-1.2-0.9,0.3,1.6-1.1-0.9c0.5-1.1-0.3-0.5,0.8-1.1l1.6-1.7c2.7,0.9,1.1,0,4.1,0.3c2.2,0.2,3,1.2,3,1.2c0-0.2,0.2,0.2,0.3,0.3
		c0.8-1.1,1.9-1.9,3.9-2.3c-0.3,2.3,0.6,1.6,3.4,1.7c0.8,0,2.2,0,2.5,0c2.2,0.2-0.5,0.5,2.5,0.5v2.2c0.8,0.2,1.7,0.5,2.5,0.3
		c3.1-0.2,1.4-0.3,1.9-0.8c-2.3-1.1-1.6,0.5-3.6-1.1c2-1.2,2-0.2,3.6-1.6c-1.4-0.3-2.5,0.2-3.6-1.1c0.2-0.2,0.3-0.3,0.5-0.2l1.7-0.6
		c0.9-0.2,0.8,0.2,1.9-0.3c-1.4-1.2-2.8,0.3-4.1-1.6l4.4-0.3c-3-1.7-2.5-0.5-4.4-1.2c0.9-1.7-0.3-0.3,1.6-0.8c0.2,0,0.6-0.2,0.8-0.2
		l1.1-0.5c-0.2-0.2-0.2-0.3-0.3-0.3l-0.6-0.6c0-0.2-0.2-0.2-0.3-0.3c3,0.2,0.8,0.3,1.6-0.8c-1.7,0.2-3.9,0.9-3.9-0.8
		c0-1.6,1.9-0.8,3.7-0.8c-0.9-0.9-2.3-0.9-3.7-1.2c1.6-1.2,1.2-0.2,3.4-0.9l-2-0.6c-0.2,0-0.3-0.2-0.5-0.2l-0.9-0.3
		c0.8-1.9,0.5-0.8,3.4-1.6l-0.8-0.5c-3-1.2-1.4,0.6-2.2-1.2c1.1-0.8,0.6-0.3,2.8-0.8l-2.7-1.2l4.2-3.6c0.2,0,0.3-0.2,0.5-0.3
		c-4.7,0.2-2,0.5-4.2,1.6c-3.9,1.9-4.1-3.6-4.4,10.6l-3-0.2c-0.8-3.1,0-9.4,1.9-12l3.3-0.2l0.3-1.9c1.9,0.3,0.6-0.2,1.7,0.6
		c0.2,0,0.2,0.2,0.3,0.3c0.2,0,0.2,0.3,0.3,0.3h4.7L234.9,173.5z M363.9,149.2l2.3,0.2c0,0.2,0,1.2,0,1.4c0.3,1.7,0,0.3,0.5,1.2
		l3.1,0.9l-0.3,7.8h1.2c1.9,0,2,0.9,5.5-0.2l0.2-3.4c1.6,0.5,0.2,0.2,1.6,1.7c0.8,0.6-0.2,0.8,1.7,0.6c-2.7,2.2-1.2,2.5-5.6,2.7
		c-2.5,0.2-5.5-0.2-7.8,0.3c-1.4,8.6,0.5,27.9-1.2,33.4c-0.5,4.4,0,1.9-2.3,1.4l-2.7-0.5l0.2-16.4c0.5-2.7-0.2-0.9,1.7-1.7
		c0.8-4.4,0.9-17,1.1-22.6C363.1,149.3,364.3,153.7,363.9,149.2z M312.5,202.3c0.2-1.6,0.5-1.2-0.3-1.6c0.6-3,1.6-2.2,1.9-5.9
		c-1.7,0.2-3.4,0.6-4.7,1.6c-0.9,0.6-1.6,1.4-1.6,2.5c0,1.2,0.2,0.6,0.5,1.1c0.8-1.7-0.2-2.5,4.8-3.9l-1.9,4.5l0.2,1.6h-31.4
		c-0.2-2.7-1.1-4.4,1.9-5.9c1.4,0.8,1.2,0.9,2.7,1.9c1.9-0.6,2.5-1.6,4.8-0.9l6.4,0.8c2.3,0.2,0-0.6,2,0.2c1.9,0.6,3.3,2,4.1,2.3
		c0.5-2.5,0.5-1.1-0.8-2l-2.2-0.9c1.9-2.3,4.5-4.2,7.6-4.2c0.3,0.9,1.6,1.9,2.7,2.7c-0.3-1.9-0.8-1.4-1.7-3c2,0.2,1.2-0.3,2.2,1.4
		c1.9-1.7,2.3-1.6,5.2-0.5c2,0.8,5,0.5,7.5,0.5c-0.8,2-1.7,5-0.6,7.3c0.8-1.2,0.5-3.1,0.6-5c1.7-1.4,0.9,0.2,1.6-1.4
		c-1.6-1.2-0.2-0.6-1.2-1.2c-1.2-0.9-0.6,0-2.2-0.9c0.8-0.8-0.8-0.5,2-0.6l6.7,0.5l-0.5,8.1c3.3-0.6,0.8-1.1,2.8-2.2
		c1.1-0.6,7.3,0.6,13.3-0.2c5-0.6,1.2,0.9,8.4,0.3c2-0.2,8.4-0.2,9.1-0.5c0.6,2.8-0.2,0.2-0.6,3.3h0.6c0.6-0.9,1.2-1.4,2-2l2.2-1.1
		c0.9-0.8,0.5,0.9,0.9-0.9c1.1,1.9,0.6,1.2,3.4,1.4c10.8,0.5,7.3,1.2,9.4-1.2c1.6,2.2-0.3,0.6,1.6,1.9l0.2-22.5h14.7
		c0.2,1.1,0.6,13.6-0.3,15.3c-1.7-1.7,0.2-8.6-1.4-12c-0.5-0.9-0.2-0.3-0.8-0.9c-0.3,0.8,0.3,10.3,0.2,12.8h-1.9
		c0-2.3,0.2-4.7,0.2-7c0-2,0.8-5.9-0.5-7.2c-0.9,2.8,0.3,11.2-1.1,14.2c-2-0.5-1.2-0.9-1.1-7c0.2-2,0.6-5.6-0.5-7.3
		c-0.8,1.9-0.5,5.5-0.5,8c-0.2,5.3,0.5,5.9-1.1,6.9c-1.4-0.5-0.5,0.5-0.9-1.1l-0.2-6.2c0-2,0.5-5.6-0.5-7
		c-1.9,2.3,1.6,13.7-1.9,14.5v-13.6c-0.8,0.8-1.2,0.6-1.1,4.1c0,1.6,0,2.7,0,4.2c0,0.9,0,3.3,0,4.1c-0.2,1.7-0.8,1.7-1.2,2.2
		c1.9,0.6,0.8-0.2,1.7,1.4c2-2,0.3-0.6,2.8-0.9h2.8c1.9-0.2-0.5,0.2,0.5-0.2l3-0.6c0.9-0.2,1.6-0.2,2.3-0.2l1.7,0.3v3l-14.4,0.9
		l1.9,0.9c0.5,0.2,0.3-0.2,1.4,0.3l-0.8,2.5l-22.5,1.1c-0.6,0.5-43.9-0.3-50,0.2L312.5,202.3z M56.8,176.7l-2.2,0.3
		c0.2-2.7-0.3-1.4,0.8-2.8l1.6-0.3C57.5,175.6,57.1,175.3,56.8,176.7z M145.2,200.1l2.8,0.8l0.2-0.9l0.2-0.9c1.7,0,0.8,0.5,1.9-0.6
		c-1.7-0.8-4.8,0.2-5.2-0.5c0-0.2-0.3,0-0.3-0.2c1.7-0.9,3.3-0.2,5.2-1.1c-0.9-0.6-1.6-0.5-2.7-0.5c-1.6-0.2-1.7,0.2-2.8-0.6
		c2.2-0.8,3.9,0.2,5.9-1.1c-0.5-0.3,0.3-0.2-1.2-0.3h-4.8c2-1.9,3.7-0.5,6.4-1.2c-1.2-1.1-1.4-0.6-3.6-0.6c-1.9,0-1.7,0.3-3-0.5
		c1.6-2,1.7,0.2,4.8-0.9c1.7-0.6,0,0.6,1.1-0.8c-1.4-0.2-1.9,0-3.1,0c-0.6,0-0.8,0-1.4,0c-1.4-0.2-0.6,0-1.2-0.3
		c0.6-1.4-0.3-0.5,1.2-1.1c0.3-0.2,1.7-0.2,2-0.2l3.1-0.3c0-0.2,0.2,0,0.3-0.2c-2-1.1-4.7,0.3-6.7-1.1c0.2-0.2,0.3-0.2,0.3-0.2
		l1.2-0.5c0.5-0.2,1.1-0.2,1.6-0.2c1.1,0,1.7,0.2,2.8-0.3c-0.9-0.9-0.6-0.6-3.3-0.6c-3-0.2-1.9,0.6-2.5-0.9c0-2.3,2.8-0.6,5.2-0.9
		c1.7-0.3,0.8,0,1.6-0.6c-2.2-0.8-4.7,0.3-6.6-1.4l7.8,0.6l-0.3,16.9l-3.4,0.5c0.9,1.4-1.6,1.2,2,0.9l3.9-0.3
		c-0.6-2.2-0.2-6.2-0.3-9.2c-0.2-3.6-1.6-3.7-0.8-8.7l6.1-0.5l0.8,13.1c0,0.2,0.2,0.3,0.2,0.3c1.7-3.4-0.5-15.9-0.5-18
		c1.2-0.6,1.4-0.3,3.4-0.2c-0.2,6.6,0.9,11.9-1.2,13.4c-1.2,0.9-0.8,1.9-0.8,5.6c0,2.2-0.3,4.1,0.6,5.2l0.3-10
		c1.2-0.2,1.6-0.3,2.7-0.6l1.9,0.3l0.2,11.6h-17.2c-4.5,0-9.2-0.8-13.7-0.8c-6.4-0.2-12.5,0.6-14-0.3c0.9-1.7,1.2-1.7,3.3-1.2
		c1.9,0.5,4.5,1.1,6.1,0c2-0.3,0.9-0.2,2.5,0l4.5,0.3c5.9-0.8,1.7,1.4,6.6-0.6L145.2,200.1z M194.8,186.8c1.2,0.8,0.5,0.2,1.2,0.5
		c1.6,0.6,0.8,0.2,1.7,0.9l-3.3-0.5l-3.4,0.6c1.9,1.1,4.7,0.2,6.9,1.6h-5.8c1.4,1.4,2.8,0.9,5.8,0.9l0.3,5.6
		c-1.7-0.6-1.2-1.6-6.4-1.1c-0.2-0.2-0.2-0.3-0.2-0.3c-1.4-2.5-1.4-2.8-1.6-5.5l-0.9-13.6c0.2-3,0.9-7.8-0.3-10.6l-1.2-1.9
		c-0.8-1.6-0.2-0.8-0.3-1.7l-0.3-4.5c-0.2-4.7-0.2-9.5-0.5-14.4l13.7-0.3v30c1.7-0.5,1.2,0.5,1.2-2.7c0-4.4-0.9-21.1,0.6-22.9
		c1.2,1.2,0.6,10.1,0.6,13c0,1.9-0.3,9.7,0.3,11.4c0.5,1.6-0.3,0.2,0.6,1.1c1.1-6.2-1.6-10.9,1.2-17.5c1.6-3.7,5.6-8.4,10-5.9
		c-0.5,0.9-0.2,0.2-0.8,1.1c-0.2,0.2-0.8,0.8-0.9,1.1c-0.8,0.9-1.1,0.9-1.4,2.2l-1.4,5c0.8,4.4,0.8,10,0.5,14.7H200l-1.1,0.9
		c-0.3,0.6-0.9,1.1-1.4,1.6c0.6,1.6,0.5,4.4,0.2,6.6l-6.7-0.2c1.1,1.1,0.2,0.5,1.9,0.9c0.3,0,1.7,0.2,2,0.2c1.7,0,1.7-0.3,3,0.5
		c-0.5,1.1,0.5,0.9-3.1,0.6c-0.6,0-1.4-0.2-1.9,0l-1.6,0.5c1.2,0.6,1.9,0.5,3.4,0.6c0.2,0,1.6,0.2,1.7,0.3c1.2,0.5,0.6,0,1.4,0.8
		c-1.9,0.2-4.7-0.6-6.2,0.5c1.2,0.6,1.1,0.5,3,0.5L194.8,186.8z M387,166.8l4.8,0.5c1.4-0.2-0.3,0.2,0.9-0.2l-2.5-0.9
		c-0.2,0-1.6,0-1.6,0C385.9,166.5,387.9,166.2,387,166.8z M244.3,184.9c1.2,0.6,3.7,0.6,5,0C248.2,184.2,245.7,183.7,244.3,184.9z
		 M249.1,188.7c-0.9-0.5-3.7-1.1-5,0C245.7,189.2,247.7,189.6,249.1,188.7z M53.6,183.1c1.1-0.8,0.5,0,0.6-2c0-0.6,0-2,0-2.8h2.7
		l-0.2,5c-0.5,0.9,0.3,1.4,0.3,4.8c0,0.8,0,2.2,0.2,2.8l0.6,2c1.2-2.7-1.2-13.7,1.1-15.3c0.9,1.6,0.6,11.2,0.3,13.6
		c3.1-0.2,3.3-0.2,4.1,2.5l5.9-0.3c0.8-1.6-0.2-1.1,0-1.9l2.7,0.2l0.6,1.7l-2,1.2c-2.7-0.2-8.4-0.3-10.8,0.2
		c-1.4,0.3-2.8,1.2-4.4,0.9c-1.9-0.3-0.6-1.9-2.7-0.5c-1.4,0.5-4.1,0.6-6.1,0.6c-3.7-0.2-3.3-1.1-4.5-1.7c-3.9,2.7-4.4,0.3-8.7,0.2
		c-3.6-0.2-7.5-0.3-10.8-0.6c11.4,0.6,15.5-1.7,20.4-1.1c2,0.3,4.1,0.6,5.6-0.9l-3.1-0.3L44.7,172c-3-0.8,2.2,0.2-0.9-0.2
		c-0.8-0.2-0.8,0-1.6,0c-5.3,0.2-6.4-0.6-8.3,1.2v-2.3l12.2,0.2c0.2,9.1,0.5,3.1,1.1,7.8c0.3,2.7-0.2,5.6,0.2,8.3l1.2-2l0.9,9.4
		c1.4-1.6-0.6-8.1,0.2-14.5c4.1,0.8,2.5-1.4,3.4,3h-2v9.5c0.2,3.3-0.5,1.7,1.2,2.3c-0.5-2.3-0.3-4.2-0.3-6.6c0-4.4-0.2-3,1.1-5.5
		l0.5,0.2V183.1z M197.2,194.3c-0.3-0.3-0.2-0.3-1.1-0.6c-1.2-0.3-3-0.3-4.1,0.6C193.4,194.8,195.8,194.8,197.2,194.3z M137.8,185.2
		c0.6,0.3,1.4,0.6,2.5,0.6c3.4,0,1.1,0.2,2.2-0.9C140.7,184.8,139.1,184.3,137.8,185.2z M137.4,186.8c1.1,0.9,3.7,0.9,5-0.2
		C141.3,186,138.6,186,137.4,186.8z M298.3,189.5c-1.4-1.9-2.7,0.2-4.5-1.4c0.9-0.8-0.8-0.5,2.5-0.6l2.2-0.3
		c-0.6-0.6,0.2-0.2-1.2-0.6c-1.2-0.3,0.3,0-0.9-0.2c-0.5,0-2,0-2.7-0.2l4.2-0.6c-0.8-0.8,0.3-0.2-1.2-0.5l-2.3-0.3
		c-0.2,0-0.3,0-0.5-0.2c0-0.2-0.3,0-0.5-0.2c0.9-1.4-0.6-0.5,1.7-0.9c0.3,0,2,0,2.7-0.2c-0.9-0.9,0.2-0.2-1.2-0.6
		c-1.9-0.6,1.4,0.3-0.9-0.2c-0.9-0.2-0.9,0.2-2.2-0.3c1.1-1.7,3-0.2,4.4-1.7l-4.4-0.3c1.2-2.2,3,0,4.5-1.6c-1.4-0.6-1.2,0-2.5-0.3
		c-2.8-0.5-1.4,0.8-2.2-1.4c1.7-0.9,3.4-0.2,4.7-1.1c-1.6-0.8-3.3,0-4.8-1.1c1.6-1.6,3.3,0,4.8-1.7l-2.2-1.1
		c1.1-0.2,0.6,0.3,1.9-0.3c-0.6-0.8,0.5-0.3-2.3-0.6l-1.9-0.3c0-0.2-0.3,0-0.5-0.2c0.8-1.9-0.8-0.8,2.5-1.2c2-0.3,1.1,0.6,2.7-0.8
		c-2.5-0.5-3.4,0.3-5.2-0.5c1.4-1.2,3.3-0.6,5.2-1.1c-2.2-1.7-4.4,0.3-5.2-1.2l4.5-0.8c-1.1-1.1-3.9-0.5-5.3,0
		c-0.9,4.7-0.5,22.5-0.2,29l0.8-0.8c1.1-0.9-0.8,0,0.9-0.6c1.1-0.5,0.9-0.2,2,0c1.4,0.2,3.3,0.3,4.4,0.8l-2,2
		c-0.2,0-0.2,0.2-0.3,0.2s-0.2,0.2-0.3,0.2c-1.6,0.9-2,0.8-3.9,0.5c-4.1-0.6-1.2,1.1-3.6-0.2c-1.1-0.6-0.8-2-0.8-3.9
		c-0.2,0-0.3-0.2-0.3-0.2s-0.2-0.2-0.3-0.2c-1.6-0.9-1.6-3.3-1.7-5c-1.1-14,2.8,4.2,0.9-24.5c2.2,0,2.5,0.5,3.9-0.8
		c0.2,0,0.9-1.1,1.2-1.4c1.2-1.1,5.5-2.5,5.3,2.7c1.4,0,2.5-0.2,3.4,0.5l0.5,5.2c2.3,0.5,1.2,0.9,3.3-2.3c0-0.2,0.2-0.2,0.2-0.3
		c2-3.3,0-3,2.2-3.6c0.8,1.6,0.5,1.1,0.5,3.4l2.3,0.9c0.2,4.8,0.5,4.4-0.6,6.6l-0.5,0.6c0,0.2-0.2,0.3-0.2,0.3l-0.5,1.6
		c-0.6,1.2-0.3,0.2-1.2,1.9l0.3,14l-4.1-0.2c-0.3-4.4,0.5-18-0.8-20.9c-0.5,0.6-0.6,0.6-0.6,2.5c0,0.8,0.2,2.3,0.2,3.1
		c0.2,2,0.2,4.2,0.2,6.2c0,6.1,0.8,8-1.4,10.5c-2-4.1,0.5-22.9-1.4-26.7c-0.9,1.4-0.5,4.7-0.5,6.2l0.2,19.5c-1.2,0-2.3,0-3.7-0.2
		c-3.7-0.5-3.1-1.1-3.4-1.9l4.7-0.5L298.3,189.5z M192.2,192.1c1.1,0.8,3.7,0.9,5.2,0C195.8,191.3,193.6,191.2,192.2,192.1z
		 M244.1,182.8c0,0,0.5,1.2,3.7,0.2c1.2-0.5,0.6-0.2,1.4-0.9C247.3,182,245.7,181.8,244.1,182.8z M12.5,198c1.1,0.8,4.7,0.6,6.1,0
		l-0.6-0.5c-1.7-0.6,0.9,0-0.9-0.2C15.6,197.3,13.6,197.4,12.5,198z M277.2,189.2l1.9,0.6c0.3,0,1.7,0,2.2,0c1.7,0,2.3,0.2,3.6-0.6
		c-0.6-0.5,0.2-0.3-0.9-0.6l-6.6,0.5L277.2,189.2z M387.1,171c0.6,0.5-0.2,0.3,1.1,0.6l5.5-0.3c0.2,0,0.3-0.2,0.5-0.2
		c-1.7-0.9-5.5-0.8-7,0V171z M78.4,191.2c0.8,0.8-1.1,0.5,1.7,0.8c1.4,0.2,4.7,0.5,6.1-0.2l-3.9-0.6c-1.6-0.2-2.7-0.2-4.1,0H78.4z
		 M18.6,190.6c0.8,0.3,1.9,0.6,3.1,0.8c0.5,0.2,1.4,0.3,2,0.3l2.2-0.5c-1.6-0.6-6.1-1.4-7.2-0.6H18.6z M90.1,191.5l1.4,0.3l-0.2,2.3
		l-2.7-0.6c1.2-0.5,0.5,0.3,1.7-0.6c-1.9-1.2-1.9,0.6-2.7-1.4h2.2H90.1z M91.2,189.3c-0.2,1.6,0.5,0.5-0.5,1.1l-2.7,0.2l0.3-1.2
		c0,0-1.2-2.5,3.3-1.1c-0.8,0.3-0.8,0.2-1.6,0.5l-1.4,0.6C89.9,189.8,89.8,189.6,91.2,189.3z M277.7,187.1c1.1,0.8,3.9,0.8,5.5,0.5
		c2-0.3,0.9-0.2,1.6-0.6c-0.8-0.5,0.2-0.3-1.6-0.5C281.8,186.3,278.5,186.3,277.7,187.1z M415.5,163.2l1.9-0.2l-0.2,4.7
		c-2.8-0.5-3.1,0.5-4.7,0.6c-0.6,0.2-3.4,0-4.8-0.3c0.2-0.3,0.2-1.1,0.3-1.4l1.2-2.5l0.3-0.9l5.9-0.2V163.2z M417.3,162
		c-1.4,0.2-3.3,0.6-3.9-0.2l4.4-1.6L417.3,162z M355.4,179.2c-0.9-0.8,1.1-0.6-1.6-0.8l-4.8,0.2c0.2,0,0.3-0.2,0.5-0.2l1.4-0.5
		c0.2,0,1.7,0,2,0c4.4,0,3.1,0,3.6-0.8c-1.7-0.9-3.4-0.3-5.6-0.5c-3.1-0.3,2.5,0.5-0.9-0.2v-0.6c2.8-0.9,4.4,0.2,6.6-0.6
		c-0.2-0.2-0.3-0.2-0.3-0.2c-0.2,0-0.3-0.2-0.3-0.2l-2.8-0.3c-2.8,0-2.7,0.3-4.1-0.3c0.2-0.2,0.3-0.2,0.5-0.2l0.9-0.3
		c2.2-0.5,3.7,0.3,5.8-0.5l-1.7-0.6c-2.3-0.3-3.9,0.6-5.6-0.5c0.8-0.8-0.6-0.3,1.9-0.8c0.3,0,1.7,0,2,0c1.2,0,2.8,0,3.9-0.3
		c-1.4-1.4-3.6-0.3-6.4-0.6l-1.1-0.3c0-0.2-0.2-0.2-0.3-0.2c0.5-1.4-0.6-0.9,2.3-1.2c2.2-0.2,7.5,0.3,9.2-0.8
		c-1.2-0.9-4.2-0.3-6.2-0.2c-6.9,0.6-5,0.6-5.6-0.9c1.1-2.5,4.5,0,6.4-1.6c-1.9-0.8-4.5-0.5-6.7-0.5v-2.7c0.9-1.1,2.3-1.7,4.2-2
		c1.6-0.3,4.2,0,5.9,0c-0.2,2.5-1.2,3.7,0.9,4.4c3.3,1.1,1.7-0.9,2.3-2.8l-0.6,15.1c-2,1.6-1.4-0.5-1.9,3.3l-0.2,8
		c-1.7-0.8-2.3-0.8-4.8-0.6c-0.6,0-4.2,0.2-4.5-0.5c-0.2-0.2-0.3-0.2-0.5-0.2c2.2-1.4,4.5-0.3,6.9-1.1c-0.6-0.6,0-0.8-3.4-0.6
		c-0.6,0-1.4,0.2-2,0c-1.6-0.2-0.5,0.2-1.2-0.5c2.3-1.1,5.2,0.2,6.7-1.1c-1.9-1.1-4.5,0.3-6.9-1.1c2.2-1.6,4.2-0.3,7.5-1.1
		c-1.2-0.9-2.2-0.6-4.1-0.6c-2.2,0-2.8,0.6-3.4-0.9c1.4-0.6,3.4,0,5.3-0.3c1.1-0.2,0.6-0.2,1.1-0.5H355.4z M429.3,197.3
		c0.8-0.6,0.5,0.2,0.8-1.4c0-0.2,0-2.3,0-2.7c0-1.6,0-2.8-0.8-3.9c-0.8,1.2-0.5,6.1,0,8.1V197.3z M102.3,190.2
		c0-0.2,0.2-1.4,0.2-1.6c0-0.2,0-0.5,0-0.6s-0.2-0.3-0.2-0.5c0.2,0,1.1,0,1.4,0c0.8,0.2,1.1,0.3,1.2,0.5l-0.2,2.8l-2.5-0.8V190.2z
		 M245.2,95v-5v-2.7l8.1-0.3v3.1l0.3,0.5c-1.2,1.1-0.9,8.1-0.8,10.5c-0.6,8.9-2.7,19.2-3.9,28.4c-1.4,10.1-1.7,20.4-2.2,30.9
		c1.1-1.1,0.6,0,1.1-1.9l1.9-28.4c0.6-5,4.2-24.8,3.6-28.1l0.6-1.2c0-0.2,0.2-0.3,0.2-0.5s0.3-0.6,0.3-0.8c0-0.2,0.2-0.3,0.2-0.5
		c-0.5,8.1,2.8,42.6,3.9,50c-3.3,0-3.3-0.9-5.8,3.7c-0.5,0.8-0.5-1.2-0.6,2c2.8-2.5,11.1-0.3,15-0.9c0.2,0,1.2-0.3,1.4-0.5l0.9,3.9
		c0.6,2,0.6,1.9,0.5,4.4c-0.2,3.3-0.2,6.4-0.2,9.5l-10.3-0.3c-0.8-1.2,0.6-0.6-0.8-1.2c-2.2,1.2-4.2,1.4-7.3,1.2l1.4-12.8
		c2.3-0.8,3.9,0.2,5.8-0.8c-0.2-0.2-0.3-0.2-0.3-0.2l-1.2-0.3c-5.2-0.8-1.9,0.8-4.1-1.4c-0.9,3-1.4,0-1.9,4.7l-1.6,17.2l-3.1-2.5
		c-0.8-10.6-0.9-23.4-1.2-34c-0.3-11.9-0.8-23.7-0.2-35.6l0.6-10.1H245.2z M185.5,180.1c-2.3-1.7-1.9,1.2-1.7-2.5
		c2.7,0,1.7,0.5,4.1-0.5c-0.2,2.3-0.5,5.5,0.3,7.2l0.5,1.2l-2.7,0.3L185.5,180.1z M188.3,174.5c0,0.2-0.3,0.8-0.3,0.9
		c-0.6,1.1,0,0.3-0.9,1.1c-1.7-0.3-3.6-0.5-4.8-0.5l0.2,4.1c0.2,0.2,0.3,0.2,0.5,0.2l2,0.8l0.9,5.6c0.2,0,0.3,0.2,0.5,0.2
		s0.3,0.2,0.5,0.2c1.1,0.3-0.2-0.6,1.4,0.5c0,1.4-0.3,3.9,0.2,5.2c1.4,3.3,1.7-1.7,1.9,3.3c-2.3,1.1-18.3,0-19.2-0.3
		c0.5-7.6,1.1-3.3,1.1-9.8c0-3.9,0-7.6,0-11.6c3.1,0.2,12.3,1.4,14.5-0.6l-13-0.3c-0.2-1.4,0-2.7-0.2-3.9c0-0.8,0-1.2-0.3-1.9
		c-0.6-1.7,0.3-0.2-0.8-1.4c0,2,0.5,5.6-0.2,6.9c-1.9-2-0.3-6.1-0.3-8.7c0,0,0.9-0.6,1.1-0.8c2.2-1.4,7.8-1.1,12.2-1.4l1.6,2.8
		c2.7,2.2,1.4,5,1.6,9.8V174.5z M188.3,201.8c3.4-0.2,3.9-1.2,6.1-1.1c3.1,0.3,4.4,0.9,5.6,0.3C197.8,199.3,190.4,199.8,188.3,201.8
		z M443.6,183.7c0.2,0.2,0,0.3,0,0.3 M445.2,184L445.2,184 M453.2,159.5c0.2,0.2,0.3,0.5-0.2,0.9 M453.5,160.4c0-0.3,0-0.6,0-0.8
		s0-0.2,0-0.2 M39.5,197.3l14.5,0.9c-0.8-0.8-0.3-0.9-3.4-1.1l-7.8-0.5c-3.1-0.2-2.7-0.2-3.4,0.6H39.5z M27.5,187.7
		c0.6-1.9,0.6-14.5,0-16.2c-0.6,0.8-0.3-1.2-0.6,1.6C26.5,175.1,26.5,186.5,27.5,187.7z M238.1,200.1l0.3-10.8
		c0-3.3,0.5-8.6-0.8-11.1c0,0.2-0.2,0.2-0.2,0.3s-0.2,0.3-0.2,0.3c-0.5,2.5,0.6,15,0.2,19.2c-0.5,3.9-0.3,1.1,0.6,1.9V200.1z
		 M104.6,198.5c1.1,0.8,0.6-0.6,1.2,1.6c1.4-0.9,0.3,0.2,1.4-1.4c0.6-0.9-0.2-0.3,0.9-1.1c3.7,0.3,1.9,0.6,3.3,2.8
		c1.7-2.5-0.8-1.6,1.7-2.3c1.6-0.5,2.3,0.3,3.3,0.8c3.1,1.6,3.7,0,7-0.3c-1.9,1.2-1.9,0.2-2.8,2.5l-16.1,0.5V198.5z M105.4,193.5
		v3.6l-4.4-0.5l0.3-0.6c0.5,0,1.7,0,2,0c1.6-0.2-0.3,0.8,1.4-0.5c-1.2-0.8-2.2-0.5-3.9-0.6c0.6-0.6-0.9-0.8,3.7-0.6
		c-0.3-1.2,0.5-0.6-1.7-0.9c-1.7-0.2-0.8,0.3-1.9-0.5c1.4-1.4,2.5-1.2,4.4-0.8v1.6V193.5z M34.8,199.5c2.5,1.2,8,0.3,11.2,0.2
		c2.8,0,9.1,1.1,11.1-0.9l-17,0.3c-1.9,0-3.9-0.3-5.2,0.5H34.8z M77.4,189.9l9.7,0.8l-0.6,3.3c-4.5,0.9-2.5,0.8-4.2-0.2
		c-2.3-1.4-3.6-0.8-6.1-1.1c0.2-2.7,0.6,0.2,1.1-2.8H77.4z M86.8,187.6c-1.7,0.9-4.7,0-6.9,0.6l-1.4,0.5c0-0.2-0.3,0-0.3,0l0.5-1.4
		c3-0.3,4.2-0.9,8.3,0.3H86.8z M132.7,179.2c1.2-0.8-1.7-0.8,1.6-0.6c1.7,0,0.6,0.3,0.9,0.6C134.4,179.8,134.7,180.7,132.7,179.2z
		 M442.7,135.5c-0.9,2.5-0.8,17.2-0.2,20.6c1.1-0.2,1.1,2.3,0.8-4.1c-0.3-4.4,0.3-15.5-0.6-16.7V135.5z M252.6,79.1
		c0.2,2.3,0.8,2.3-0.3,3.7c-1.1-1.6-0.6-2.5-0.3-4.7L252.6,79.1z M251,78.3v3.9l-4.8,0.5c0.5,0.9-1.2,1.6,4.5,0.9
		c-1.1,0-2.2,0-3.1,0.2l-3.3,0.6c2.2,1.9,12.3,0.2,13.6-0.5c-1.1-1.1,1.4,0.3-0.9-0.8l-3.6-0.9l-0.2-3.3c-0.3-3.9-1.2-8-1.1-11.9
		c0-2.8,0.8-10.5-0.5-12.5c-0.9,1.4-0.9,20.3-0.8,23.6L251,78.3z M168.8,202l-0.9,0.5c0.2-2.7,0-4.8,0-7.3c0-6.4,0.5-3.4,0.8-5.6
		l-4.8-0.2l5-0.9c-1.4-1.1-2.7-0.6-4.8-0.6c2.5-1.7,3.7,0.8,4.7-2c-1.2-1.1-2.7-0.6-4.5-0.5c1.1-0.5,3.6-0.3,3.7-0.9
		c0-0.2,0.3-0.2,0.3-0.3l-4.4-0.3c1.1-0.8,2.7-0.5,4.4-0.3c-0.8-2.5-0.2-1.7-3.1-2.3l3-0.5c-1.4-1.4-3-0.5-4.4-1.1
		c0.5-1.9,2-1.2,4.2-1.2c-0.5-1.4,1.2-0.5-1.9-0.9c-0.9-0.2-1.2,0-2.5-0.2c1.2-0.9,3-0.5,4.8-0.8c-0.5-1.1,0.2,0-0.6-1.1l-0.5-0.6
		c-1.1-1.7-1.1,1.4-0.8-2.7h3.3c-0.3,1.6,0,0.9-1.4,1.7l1.9,1.1c0,4.1,0.6,11.4-0.3,14.8c-0.9,3.1-0.8,3.6-0.8,7.2
		c0,2.7-1.1,4.1-0.9,5.3L168.8,202z M420.5,149.3l0.3,2c1.2-1.6-0.3-19.8-0.5-21.7c6.9-0.6,16.1,0.3,22.3-0.9
		c-2.2-1.1-21.1-0.6-24.4,0.2c1.6,1.6,1.1,1.4,1.1,4.5l0.9,15.9H420.5z M144.2,173.4c1.4-1.2,8.7-0.8,9.5-0.5l0.8,0.5
		c-0.9,0.8,0.3,0.3-1.2,0.8c0,0-1.4,0-1.6,0.2c-0.8,0-1.7,0-2.7,0c-7.2,0-4.1,0.2-5-0.8L144.2,173.4z M197.3,198.2l0.9,0.2
		c2,2,2.2-1.9,2.2,3c-1.2,0.6-5.3,0.6-7.8,0.6l-20.1-0.8c-2.3-0.2-1.7,0.5-2.5-0.9c1.1-0.8,15.5,0.3,18.6-0.2
		c2.7-0.5,1.1,0.2,2.3-1.1c-3.7,0-18,1.1-20.1-0.3c3.3-0.8,8.7-0.2,12.2-0.2c3,0,9.2,1.7,11.2-0.5c-3.9-0.5-21.7,0.3-23.3-0.9
		c1.7-1.4,10.6-0.3,13.4-0.2c2.3,0,4.7,0.2,6.9,0.2c4.5,0.2,5.3-0.6,6.2,1.2L197.3,198.2z M199.8,198.2l-1.2-0.5v-19.5
		c0-4.1,0.6-4.1,1.7-4.5c0.6,0.8,0.2-0.5,0.5,1.1l-0.3,22.9l-0.8,0.5H199.8z M206.1,197.1h-1.4l-0.5-23.1l1.2-0.3 M227.3,197
		c-2.2-1.2-5-0.8-7.6-0.6l0.6-9.2c2.3,0.8-0.3,0.3,1.7,1.1c1.6-3.3,4.1,1.7,4.4-3.9c0.2-2-0.5-6.2,1.1-7.3c1.1,1.1,0.9,1.1,0.6,4.7
		l-0.6,15.3H227.3z M219.5,173.9l-0.3,21.1c-1.4-0.3-0.9,0-1.6-0.6v-20C218.4,173.7,216.5,173.7,219.5,173.9z M206.4,173.7
		l-0.3,23.4 M227.6,171.8l-1.4,1.2c-4.1,0.2-2.2,0.5-5,1.6c1.2,1.4,0.3,2.7,0,5.2c-0.2,1.4-0.2,2.3-0.2,3.6
		c-0.2,3.4-0.3,2.2-0.8,2.7l-0.2-12.2l-2-1.6c0-3.9,0.2-7.6,0.5-11.6c0-0.9,0-2.2,0.2-3l3.1-5.9c2.3-1.4,7.3-0.2,9.2,0.3
		c0,4.4-0.3,2.2,0.6,5.2c0.5,1.7,0.9,13.3,0.3,15c-1.9,0.6-0.5-0.5-3.6-0.9c-1.9-0.5-0.6,0-0.6,0.6L227.6,171.8z M444.7,181.2
		c0.3-0.5-0.6-0.8,1.9-0.8c1.2,0,1.4,0.3,2.2,0.5c2.8,0.3,3.3-0.8,5.3,0.8L444.7,181.2z M454.1,178.2l-5.2,0.2
		C449.1,177.4,453.2,177.4,454.1,178.2z M448.9,176.4c1.1-1.1,3.7-0.9,5.2,0C452.9,176.8,450.4,177.1,448.9,176.4z M448.8,174.3
		c1.4-0.6,3.7-0.3,5.2,0c-0.2,0.2-0.2,0.3-1.1,0.5C451.8,174.9,449.9,174.9,448.8,174.3z M451.3,173.1c-2.3,0-1.9,0.3-2.5-0.8
		c1.1-0.3,4.8-0.9,5.3,0.5C453.2,173.2,452.5,173.1,451.3,173.1z M448.8,170.7c1.1-1.1,4.2-1.4,5.2,0.2L448.8,170.7z M448.8,168.7
		c1.1-0.6,3.4-0.8,5.3,0C452.7,169.5,450,169.3,448.8,168.7z M448.8,165c1.2-0.5,3.4-0.3,5,0c-0.5,0.3,0.3,0.3-0.9,0.5
		C451.9,165.6,449.9,165.6,448.8,165z M448.9,163.4c1.2-0.6,3.4-0.6,4.8,0c-0.5,0.3,0.2,0.3-0.9,0.5c-0.2,0-1.2,0-1.6,0l-2.5-0.5
		H448.9z M438.5,181.8c0.6,0.5,0,0.8,0,0.9 M156.1,164.8c-1.9,0-2.3-0.6-4.2-0.9 M332.3,189.5c2.2-2,21.7-0.3,26.4-1.4v8.9h-21.5
		c-6.6,0.2-5.2,0.3-5.2-2.8c5.2,0.5,21.4,1.7,25.4,0.5c-1.7-1.2-16.9-0.3-22.3-0.9c-0.3,0-1.2-0.2-1.4-0.3c-1.4-0.5-0.5,0.2-1.2-0.8
		l23.7,0.2c-0.6-0.5-0.3-0.8-2.8-1.1h-18.7c-2.5,0-1.9,0.5-2.5-0.8c2-0.8,13.9-0.3,17.5-0.3c2.7,0,4.4,0.5,5.8-0.9
		c-4.1,0-20.9,0.8-23.1-0.5V189.5z M339.1,187.6l-6.4,0.2c-0.3-4.8-0.5-9.1-0.3-14c0-6.7-0.8-7.5,2.8-11.2c7.6,0.2,2.2,0.6,5.3,1.7
		c0.8,0.3,2.7,0.2,3.7,0.3c0.3,4.5,1.1,19.5,0.2,23.1l-4.4,0.2l-0.3-20.1c-0.3-1.2,0-0.5-0.5-1.1c-1.1,2.8-0.6,17.3-0.3,21.1H339.1z
		 M338.4,159.5c2.2,0,2.3,0.5,5,0.2l-0.3,3.4c-3.6,0.5-2,0.2-3.3-1.1c-1.4-1.2-1.4-0.2-1.4-2.7V159.5z M332.7,157.3v5.3
		 M331.6,164.6c-0.6,1.4,0,0.9-2,0.8v-2.3h0.2 M329.1,162.3l-0.2-1.1l-8.3-0.2c0-3-0.2-5.9-0.2-8.9c0-5.3,0.9-7.6-1.1-7.3
		c1.7,8.4-1.2,23.9-0.5,33.6 M325.5,178.4c-1.9-0.6-4.4,0.5-5.6-1.1c1.4-2.3,3.6,0.3,6.1-1.4c-1.4-0.8-0.9-0.3-2.8-0.5
		c-1.9-0.2-2.3,0-3.3-0.8c0.2-0.2,0.3-0.2,0.5-0.2l1.2-0.5c1.7-0.3,3,0.5,4.5-0.3l-1.1-0.5c-3.1-0.8-4.5,1.1-5.2-1.2l6.4-0.2
		c-0.2-0.2-0.3-0.2-0.3-0.3c-0.2,0-0.3-0.2-0.3-0.2c-2.3-0.9,2.2,0.5-0.8-0.3c-2.8-0.6-3.3,0.8-4.7-0.9c0.3-0.9-0.5-1.2,3.3-0.9
		c0.9,0,1.1,0.3,2,0.2c2.3-0.3,0.6,0.2,1.4-0.6c-3.3-1.1-5.5,1.1-6.6-1.6c1.9-0.8,4.7-0.2,6.9-0.2c-1.6-1.6-3.9-1.1-7-1.2l0.3-3
		l8.1-0.5l0.2,4.2l2.7,1.2l0.3,20.4l-1.9,0.3c0-0.2-0.2,0.2-0.3,0.2l1.7,1.1c-0.5,1.9-0.2,3.3-0.2,5.3c-0.2,3.9,0,1.1-1.6,3.4
		l0.5-6.7c-3.4,0.2-2.2-0.8-4.5-0.6c-2.2,0.2-2.8,0.3-5.5,0c-1.4,1.4-0.8,3.1-1.2,1.9c0-0.2-0.2,0.3-0.2,0.3c-2.5-0.2-2-0.5-4.2-0.9
		l-4.5-0.8c1.4-0.2,2.5,0.2,4.1-0.3c1.6-0.5,0.3,0.3,1.4-0.8c-2,0-4.1,0.3-5.5-0.3l4.1-1.1c-1.2-0.5-0.8,0-2-0.3l-1.7-0.6
		c-0.2-0.2-0.3-0.2-0.5-0.2c1.7-0.8,2.2,0,3.9-0.9 M310.2,184.5L310.2,184.5 M312.7,184.2c-1.7,0-1.9,0.3-3.1-0.5v0.9 M309.6,183.7
		c0.5-1.4-1.2-0.8,5.3-0.6c-1.4-1.4,0.3-0.2-1.4-0.9c-1.2-0.5-2.5-0.3-3.9-0.2l4.7-1.2c0-0.2,0.3-0.2,0.5-0.2
		c-1.2-0.6-2.7-0.3-4.2-0.6c-1.6-0.3-0.2,0.3-1.1-0.5c1.4-0.5,2.2,0,3.9-0.6c1.7-0.5,0,0.5,1.2-0.8h-5.2c0.8-2.3-1.7,2.3,0.6-0.8
		c1.1-1.6,0.8-1.2,0.6-3c4.4-1.4,4.8,0.8,4.7-4.8l0.3-29.3c3.7,0.2,4.4-0.3,7.8,0.9l-0.3-24c4.2-0.9,11.1,0,15.5,0.3
		c2.2,6.6-1.4,31.5,0.8,36.5l0.6-3.3c0-0.8,0-1.1,0.2-2c0.3-1.4,0.2-0.8,0.3-1.2l0.5,10.5 M341.2,150.8c0.3-2.8-0.6-3.9,0-6.2
		c0.3-1.1,2-2.8,2.5-4.4c0.3,5.6,1.9,3,2.3,6.7c0.3,2.2,0.6,6.7-0.6,8.1c-0.9-2.5,0.8-6.6-1.1-9.1l-0.5,9.8 M344.4,156.1l3.1-0.6
		l-0.2,6.6l0.6,20c0.2,4.2,0.8,5.8-1.4,5.5c-1.4-0.9-0.9-0.8-0.9-3.3V172c-0.3-9.7-1.2-7.8-1.2-10.3c-0.2-3.1,1.4-3.1-5.8-3.4
		l-0.2-5.2 M338.1,153.1l-0.3,8.4 M334.1,155.9c0,3.3,0.3,5.2-0.8,7.6c-0.2-0.3-0.3-0.9-0.5-1.6 M332.7,155.6
		c0.2-4.4,0.6-9.4,0.5-11.9l-13.1-0.3c1.2,1.6-1.7,1.2,5.9,1.1c1.9,0,4.1,0.2,6.2,0.2l-0.3,9.7l-6.4,0.5c2.7,2-1.4,0,1.6,0.6
		c0,0,1.4,0.2,1.6,0.2c1.6,0,1.9-0.2,3.3-0.5 M309.7,181.8l-0.2,2.7 M309.6,186.3l-0.2,6.1L309.6,186.3 M256.8,187.4l-4.1,0.2
		c-2.8-5.2-2.3-8.4-2.2-14.8l6.7-0.6L256.8,187.4z M243.5,138.6l1.4,29.2c0.2,2.8,0.2,2.3-2.3,2.7c0.3-5.3,0-10.9,0.2-16.4
		C242.7,150.6,244.3,140.9,243.5,138.6z M240.2,160.3c2.2,0.3,1.7-1.6,1.6,5.9c0,2.3,0.2,5.5-0.6,7.3c-1.2-0.6-1.2,1.1-0.6-6.2
		c0.6-5.9-0.5-3.6-0.8-5.5c-0.3-1.6,0-0.9,0.3-1.6H240.2z M254.8,151.5c0.8-1.4-0.5-1.1,2-1.2c1.7,0,1.6,0.5,2.5,0.3
		c2.3-0.2,3.4-0.5,6.2-0.2c0.3,0.6,0.9,1.2,1.4,2l-9.2-0.6c-0.2,0-1.6,0-1.6,0c-1.6-0.2,0.6,0.2-0.9-0.2c-0.2,0-0.3-0.2-0.3-0.2
		s-0.2-0.2-0.3-0.2L254.8,151.5z M261.9,144.7l11.6-0.3l-0.3,21.9c0,6.9,0.3,5-1.9,5.3l-0.6-2.7c-0.3-5.5,1.2-7.8-0.3-12.5l-0.6-2
		c0-0.2-0.2-0.3-0.2-0.3c0-0.2-0.2-0.2-0.2-0.3c-0.6-0.8-1.7-0.8-2.5-4.4h-4.7l-0.2-4.7H261.9z M261.8,142.3
		c6.2-0.2,11.1-2,11.6,0.8l-8.9,0.6c-4.7,0.3-2-0.5-2.8-1.4H261.8z M227.8,172v0.2 M60.4,201.3l7.5-0.5c3.6,0.8,11.6-1.4,12.6,1.1
		c-1.1,0.9-0.5,0.8-4.5,0.6l-10.9-0.2c-0.6,0-1.7,0-2.3-0.2l-2.5-0.8L60.4,201.3z M98.8,201.5c-0.5-0.8-0.3,0.2-0.5-1.2V194
		c0.3-3-0.2-0.5,0.5-1.6c1.6,0.6,1.1-1.1,1.2,2v5.3c-0.5,3,0.6,0.9-1.2,1.6V201.5z M89.3,196.8l8-0.2l0.2,5h-8v-4.8H89.3z M36.4,196
		c2.2,0.2,4.7-0.3,5.5-0.2c1.7,0.2,3.9,1.4,8.9,0.8c1.4-0.2,0.6-0.2,1.2-0.3c1.2-0.3,0.2-0.3,1.1-0.2c1.6,0.3-1.4,0.6,2.2,0.5
		c0.6,0,2.5-0.5,3.1-0.6l-0.2,5c-2.5,0.8-21.2,0-25.6,0l0.8-1.6c0-0.2,0.2-0.2,0.3-0.3c0-0.2,0.2-0.2,0.3-0.3l2.2-3L36.4,196z
		 M263.2,199.6c1.2-0.8,0.8-1.2,1.9-2.5c3.4,3.1,4.7-0.3,7.3,0.5l0.9,3.9c0.9-1.1,0,0.2,0.5-2.3l0.6,3.1l-10,0.2l-1.4-2.8H263.2z
		 M66.5,198.7c-1.2,1.9-4.1,1.1-6.6,1.1c0.3-1.6-1.6-2.7,4.8-1.9c2.3,0.3,0.9,0.2,1.7,0.6V198.7z M71.3,198.2
		c-0.8,2.7-3,2.8-3.6-0.2L71.3,198.2z M124.3,198.5c0.9-0.8,0.3-1.1,3.1-0.9C126.9,198,127.5,199,124.3,198.5z M394.9,198.8
		c0.2-2-2-1.9,1.9-1.6C396,198,395.9,198.4,394.9,198.8z M113.2,192.7c1.4-0.5,0.5-0.5,2.3,0l0.2,4.2l-4.5,0.3l-0.2-3.4l2.2-1.2
		V192.7z M65.3,197.1c-7.3,0.3-4.5,0.6-5.5-1.1c0.5-0.3,1.4-1.1,3-0.9c1.7,0.2,0.5,0,1.2,0.5c2.8,1.7,0.5,0.9,7,1.1
		c-1.7,0.3-3.9,0.3-5.8,0.3V197.1z M31.7,200.1c-2.2,0-8,0.2-9.8-0.2c-2.2-0.3-1.2,0.8-2-1.1c-1.4-3.3-0.2-0.5,1.4-2.3
		c1.1-1.4,0-0.6,1.2-2.3l13,0.6c-1.1,3.1-0.6,0.9-2.7,4.2c-0.2,0-0.3-0.2-0.3-0.2c-2.5-1.4-10.6-0.6-11.2-0.3
		c1.1,0.6,3.3,0.3,4.8,0.3C33.4,198.5,30.4,198.7,31.7,200.1z M273.2,193.4c1.1,0.9,0.6-1.4,0.9,1.7c0.2,1.2-0.3,1.2-0.5,1.2
		L273.2,193.4z M209.3,195.6c-1.2-2.5-0.5-14-0.3-17c0.2-6.1,0.2-4.1,0.9-4.5c1.1,2,0.5,8.1,0.3,10.9c-0.2,2.7,0.8,9.1-0.9,10.8
		V195.6z M409,195.4c0.3-4.1-1.6-13.1,0.2-17.2c1.4,1.4,0.5,6.2,0.6,8.7c0,4.1-0.5,6.4,1.2,7.8c0.3-5.3-0.6-10.6-0.2-16.4
		c0.9,2,1.2,13.3,1.1,16.4c-1.2,0.6-2.5,1.4-3.7,1.7c-0.3-0.6,0,0.3-0.5-1.1c0-0.2-0.2-0.9-0.2-1.1c1.6,2.2,1.6,1.2,1.6,1.2
		L409,195.4z M406.8,179c0.3-1.4,0-0.2,0.6-0.9l0.3,13.9c-0.2,1.1-0.2,0.6-0.3,0.9l-0.6-14V179z M405.4,193.1
		c-0.9-1.6-0.8-5-0.8-7.3c0-3.6-0.5-5.9,0.8-7.6l0.8,13.9C405.7,193.7,406.5,192,405.4,193.1z M34.2,191.6c1.6-0.6,0.8-0.8,2.2,0
		c-0.2,0-0.2,0.3-1.1,0.5C34,192.3,34.4,191.8,34.2,191.6z M263,199.5l-12.8-3c-3.3-0.9-5.3-1.1-5.9-3l2.7-0.5c1.2,1.1,0.6,0,1.1,2
		c3.6-0.9,3.1,0.3,5.3-0.6c5.5-2.3,1.2-1.1,8-1.9c0.5-1.4-1.1-2,1.4-1.6c1.7,0.3,0.3,0,1.1,0.9c2.2,2.2,3.3,1.1,8.1,1.4l0.3,2.3
		c-0.2,0-0.3,0.2-0.5,0.2s-0.3,0.2-0.5,0.2c-0.2,0-0.3,0.2-0.5,0.2c-0.5,0.2-1.1,0.3-1.2,0.5c-1.6,0.5,0.2,0.5-1.9,0.5
		c-2.7,0-1.2-0.8-3.1-1.6c-1.2,1.2-2,1.6-1.9,3.9H263z M121.8,189.8c0.9-0.6,1.2-0.8,3.3-0.6c0.9,0.2,1.7,0.5,2.7,0.5
		c2,0.3,4.2,0.3,6.1,0.2l-0.2,4.7 M133.6,195.7l-0.2,3c-2.8-0.6-1.9,0.3-3.9,0c-3.3-0.5,0-1.1-0.9-2l-6.7-0.2
		c-0.2,1.1,0.9,0.6-0.3,1.4c-0.6,0.3-1.9,0.6-2.3,0.6c-3.1,0.2-2.8-0.8-2.8-3.4h4.1c-1.1-1.1,0.3-0.2-1.2-0.8
		c-1.9-0.8-1.2,0.2-2.8-0.6c4.5-1.7,5.3,1.4,5.5,1.4c2.2,0,5.3,0.5,7.2-0.3c-0.6-0.6,0.3-0.2-1.1-0.6c-2.5-0.8-5.2,0.6-6.2-1.1
		c1.2-0.6,2.8-0.3,4.4-0.3c2.2,0,2.8,0.2,3.6-0.6c-1.4-0.3-2.7-0.2-4.2-0.3l-3.7-0.9c0.6,0,7.3,0.3,7.5-0.2c0-0.2,0.3,0,0.3-0.2
		c-2.2-1.1-5.6,0.2-8-1.1 M44,172.1l-0.3,19c-1.4,0-3.9-0.2-5.5-0.3l-3.4-1.1v-17.2l9.2-0.3V172.1z M60.7,185.7
		c2.2-1.1,1.1-0.8,2.3-2c2.7,0,4.5-0.9,3.9,5.5c-0.5,3.6,0.5,1.1,0.3,2.8l-3.7-0.2c-2-3.4-2-1.6-3.4-3v-2.7l0.8-0.3L60.7,185.7z
		 M73.1,183.1c0.5,2,0.3,1.1,1.4,2c0,0,0.3,0.3,0.3,0.2s0.3,0.2,0.3,0.2c0.2,1.9,1.2,8.3-1.9,6.7c-1.1-0.6-0.5-0.5-1.1-2.2l-4.1-0.2
		l-0.5-5.5c1.9,0,3.1,0.5,4.2,1.2l1.2-2.7V183.1z M22.3,186.5c-0.5-0.5-1.2,0.8-0.8-4.2c0.2-1.6,0.5-2.5,0.5-4.1L22.3,186.5z
		 M92.3,185.6c1.4-0.9,4.5-0.3,5.6,0.6C92.1,186,92.7,187.1,92.3,185.6z M416.5,186.8l4.5,0.3c0,2.2,0.8,6.9-0.2,8.3
		c-2.5-1.1,0.9-4.8-1.7-8.1l0.2,5.8l-0.2,2l-0.8-0.2l-0.6,0.3c0-1.6,0-2.8,0-4.4c-0.2-3.9,0.2-3.1-1.1-3.9l-0.5,1.7
		c-0.5-1.6-0.2-0.9-0.8-1.9v8.4c-1.1-2,0.2-8.6-1.7-9.5l0.5,9.1c-1.7-0.9-1.9-7-1.1-9.1c0.5-1.4,0.5,0.6,0.6-2.3
		c2.3,0.2,3.3,0.2,4.8-0.8c2.5,1.1-0.8,0.6,2.5,1.2c6.2,1.1,9.1-1.6,9.7,2.5c-2.2-0.2-12.2-1.1-14,0.3L416.5,186.8z M212.8,194.9
		c-1.9-0.2-1.4,0.3-1.7-1.7l0.6-9.1c0.6-7-0.9-10.3,1.7-10.8c0.9,1.7,0.5,20-0.6,21.7V194.9z M412.1,177.6c5.2-0.2,4.5-0.2,4.5,4.8
		l-4.5,0.3V177.6z M106.5,188.5c-1.6-0.5-0.6,0.6-1.2-2.2l-3.3-0.2c0.5-6.2,0.5-3.1,1.2-4.4c0.6-1.1,0-1.1,0.5-1.7
		c0.6-1.2,0.5-0.8,1.4-1.1c0.5,1.2,0,1.4,0.3,2.3c0.6,2-0.3,0.3,1.4,1.6L106.5,188.5z M115.8,181c2.7,0.3,0.6,1.7,2.3,2.3v-3.4h-3.4
		l1.6-3l3.6,0.3c1.1,4.2,0.8,9.4,0.9,13.9c-2.2-0.2-6.7-0.8-8.3,0c-1.2,0.6-6.6,1.2-6.9-1.4c2.5-1.4,4.4,0.6,6.6-0.6
		c2.5-1.4,0.3-0.6,4.7-0.8l-0.6-0.6c-0.2-0.2-0.2-0.2-0.3-0.3C114.6,185.7,115.1,182,115.8,181z M215.4,195.2
		c-0.5-0.6-0.3,0.3-0.6-1.1l0.5-18.9c0.2-3,0.2-1.2,0.8-2c0.5,0.6,0.6,0.2,0.6,2.7c0,0.9-0.2,2.2-0.2,3.1l-0.3,14.2
		c-0.2,2.2,0,0.9-0.6,2.2L215.4,195.2z M73.5,181.7c-1.4-6.9-1.7,1.4-2-9.1l7.3,1.7c0.2,2.8,0,6.1-0.2,8.9c-0.2,3.4-0.2,0.3-2.3,6.1
		c-0.2-0.3,0,0.2-0.2-1.1c-0.8-9.2-1.7-1.4-2.8-6.7L73.5,181.7z M65.7,179.6c-0.6-1.2-0.8-4.1-0.5-5.8c0.3-3.1,0.2-0.8,0.9-2.3
		c0.6-1.2,0.3-1.2,0.8-2.3c3.9,0.6-1.1,1.2,3.7,3.6v5.6c-0.2,0-1.2,0.2-1.2,0.2c-3.3,0.8,0.6,1.2-3.6,1.1H65.7z M87.6,174.9
		c-1.6,0.6-3.7,0.6-4.8,0c0.8-0.8-0.5-1.2,2.7-1.2c2,0,1.7-0.2,2.3,1.2H87.6z M31.5,174.6c-0.5-1.1-0.5-1.1,0.3-2.2
		C32.3,173.7,32.9,173.9,31.5,174.6z M63.4,173.7c-0.6-1.4,0.3-0.3-1.4-1.4h2l0.3,7.5l-4.5-0.8v-3.1l-2.3-0.6l0.6-2.7l5.5,1.1H63.4z
		 M54.2,167.8l2.7-0.2v4.4l-2.8,0.8l0.2-4.8V167.8z M22.8,168.7c2.3,0.3,4.1,0.9,5.8,1.1l0.5,5.6c1.2,0.8,1.6,0.5,3.3,0.6l0.2,15.6
		c-3,0.3-12.5,0.3-16.4,0.9l-0.3-5.2c-0.5-5.2,0-4.5,0.6-5.3c1.2,0.5,0.2-0.2,1.1,1.1c0,0,0.5,1.1,0.6,1.4c2.7-0.2,0.5,0,2.3-1.2
		c0,1.6,0.3,1.4-0.3,2.5l-1.1,1.2c1.9,0.2,4.7-0.5,6.1,0.6l-1.9,0.3c-0.5,0-1.4-0.2-1.9-0.2c-1.9-0.2-2.3-0.6-3.6,0.3
		c2,1.4,5.6,0,9.2,1.2c-0.5-1.6-0.5-1.2-1.1-2.5c-2.3-4.5,0.9-13.6-1.1-17.5c-1.7,1.9,0.3,13.3-1.2,16.2L23,168.2L22.8,168.7z
		 M100.7,175.4c-1.7,0.8-1.1,7-0.9,10.6c-2.5-1.2,0-0.6-2-1.7l-2.5-0.9l-0.3-4.1c-1.1,1.1-0.8,2.5-0.8,4.5c-4.1,0.9-3.6,2.2-3.7,2
		c0-0.2-0.2,0.3-0.3,0.5l-10.6-1.1c0-5.2,0.3-8.1,1.1-13.1c1.1-6.2,0.8-5.6,6.6-7.8l-1.2,8.4c-5,0.5-5.5-0.5-5.3,11.4l3.1-1.1
		c6.9-1.2,5.2,0.3,5.9-4.4h2.8v4.4c1.1-1.1,1.1-0.6,0.9-4.7l1.4-1.1c-0.8-0.3-0.3,0.2-1.4-0.5l-0.2-5.5c2.5,0,6.4,0.5,8.1-0.5
		c-2.2-1.7-3.7,0.6-5-1.4l7.3-0.2l0.2,4.2c-0.2,0.2-0.3,0.2-0.5,0.2c-3.1,1.1-2.3,0.3-2.7,1.2V175.4z M127.7,163.2
		c-1.4-2.3,1.9-12.8,2.2-13.4l0.5,6.9c2,1.7,2.2,0.5,2.7,4.7c0.2,2,0.2,4.4,0.2,6.4h-6.6c0.3-3.7-0.3-2.2,2-3.7l-0.8-0.8H127.7z
		 M182.2,159.6c2.7,0,2,0.3,2.7,0.9c-2,0-4.1,0.2-6.1,0.3s-3.9,0.5-5.5-0.3l8.9-0.8V159.6z M174.7,159.2c1.2-0.9,6.1-1.2,8-1.4
		c0.8,0,1.9-0.2,2.3,0.8l-10.1,0.6H174.7z M411.5,160.4c0.9-1.7,1.7-4.8,3-6.6c0.8,4.5,1.9,2.5,3.7,4.4l-1.7,0.5
		c-0.2,0-0.3,0-0.5,0.2c-1.9,0.5-1.7,1.2-4.7,1.6H411.5z M400.4,149.8c0,0.6,0,2.7-0.2,3.1l-1.2,1.6c-0.3,0.3-0.9,0.8-1.2,1.2
		c-0.5,0.5-0.3,0.3-0.8,0.8l-10.5-0.3c-1.9-0.6-1.4,0.3-1.1-2.5l10.3,0.3l0.2-3.6l4.7-0.8L400.4,149.8z M211.5,172.1
		c0.3-4.8-0.8-15.1,0.8-19.4c0.3-0.8,0.8-1.2,1.2-1.9c1.6-1.7-0.3-0.8,1.6-1.4c0.9,1.1,0.6,2.5,1.1,4.5c1.9,9.4,0.6,8.6,0.6,18
		L211.5,172.1z M215.6,147.8l10.9,0.2c0.8,1.1,0.9,2,2.8,1.7l-9.2,0.2c-1.4,5,0,4.1-2.3,5.2c-1.4-2.3-0.9-2.8-0.9-3.9
		C216.7,148.4,216.7,150.1,215.6,147.8z M388.5,152.9c1.2-8.6-2.7-13.7,5.8-13.3c2.3,0.2,3.9,0.3,6.4,0.2l-0.3,8.7l-5.5,0.9
		l-0.5,3.6l-5.9-0.3V152.9z M348.3,136.4c2.8-0.2,3.6-0.8,5.6-1.1c1.9-0.3,4.1,0,6.1,0c2.8-0.2,2.8-1.2,5.5-0.6
		c1.9,0.5-0.5,0.3,2.3,0.8c0.8,0.2,2.2,0.2,3.1,0.2c0.3,4.1,1.1,20,0,22.6c-1.7-2.7-0.2,0.6-0.5-1.7l-0.2-5.9l-3.1-0.2l-0.3-3.4
		h-3.6c-0.6,1.2-0.2,0.8-0.6,2l-0.3,0.8c0,0.2-0.2,0.3-0.2,0.3c0,0.2-0.2,0.3-0.2,0.3c-0.6,2.3,0.6,11.2-3,12.2v-4.4
		c-2-0.2-4.2-0.2-6.2-0.2c-4.1,0-1.4,0-3.7,1.2c-0.6-1.2-0.5-20-0.5-22.9H348.3z M217.1,146.8c0.5-0.6-0.2-0.8,2.7-1.6
		c0.8-0.2,2-0.5,3-0.5c2-0.2,3.1,0.5,4.4,1.9l-9.8,0.2H217.1z M206.5,141.9c1.7-2.2,1.1-0.2,4.1-4.8c1.1,0.8,0.6,0.3,1.4,1.4
		l3.7,4.1l-9.4-0.6H206.5z M402.7,162.8l-0.5-3.6l-0.9,2.3c0,0-0.2,0.3-0.2,0.5c-1.4-1.1-0.2-1.4-1.7-2.8c-0.3,3.9,0.3,1.7-1.2,4.4
		c-0.6,0.9-1.6,2.3-2.2,3.3l0.5-8.7c2.3-1.1,0.2,0.6,2.5-1.9c1.1,3,0.6,2.3,4.1,2l0.2,4.5c1.2-1.1,0.8-3.1,0.6-4.8
		c1.4,1.4,0.8,2.8,2.3,4.2c0-0.9-0.2-3.1-0.6-4.1c-0.9-1.6-0.9-1.1-2.8-1.1c-0.3-5.5-1.7-13.1,0.3-17.6c3.9-1.2,3.1,0.5,3.3,1.1
		c0.6,3-0.3,14.7,0.9,16.4c1.6-3.1,0-14,0.2-18.3l-2.2-1.1l-0.5-5.2l9.8,0.3l0.8,16.9c-0.6,0.5,0,0-0.9,0.5
		c-0.3,0.2-0.6,0.5-0.8,0.3c0-0.2-0.3,0.2-0.5,0.2c0.5,3.1-0.9,6.7-3,8.9c-3.6,3.9-1.6,2.7-3.3,5.5c-0.9,1.2,0.2,0.8-1.4,1.2
		c-0.8,0.3-3.1-0.9-3.3-2.2c-0.5-2.8-0.3-0.3,0.3-1.4L402.7,162.8z M309.6,182.4v-1.7"/>
</g>
<g id="Layer_x0020_1_1_">
	<g id="_1335034416">
		<path class="st2" d="M380.1,229.2l0.6,3.6H365l0,0h-0.1h-3.3l0,0l-18.7-0.1h-49.5v0.1l-1.9-0.1l0,0l0,0l-1.9-0.1
			c0.4-1,0.8-2.4,1.1-3.5l1.3-8c0.2-3.5,0.5-10.3-3.6-18.5c-1.5-3.1-3.5-5.6-5.2-7.9c-3.2-4-5.3-4.5-6.1-5.8l-3.9-2.5
			c-0.4-0.1-0.8-0.2-1.1-0.4c-6.1-3.3-10.5-3.8-17.9-4.3c5.3-2,12.3-2.8,18.5-3.5c6.7-0.7,14.6-0.3,20.7-1.3v0.1
			c0.9-0.2,1.8-0.5,2.1-1.1c0.1-0.8,0.4-1.2,1.2-2.2c1.3-1.5,1.4-2,3-3.4l6-6c4.2-3.3,8.8-7.1,14.3-10c10.7-5.5,22.9-9.8,36.9-9.4
			l0,0l8.5,0.1l0,0c7.3,0.1,19.3,2.1,24.8,3.2c7.9,1.6,16.3,5.2,22.9,8.6c15.2,7.8,17.4,10.8,27.9,19.4c2.9,2.4,7.4,7.4,7.5,7.6
			l-3.9,1.2l-2,2.9c-1.5,4.6,0.9,6,3.1,8.5c5.7,6.3,12.6,15.3,13.6,24.3c-3.1,2.1-5.2,5.6-2.7,10.1c-7.1,0.8,0.6-12.2-8.4-26.1
			c-7.7-12-19.8-19.1-34.5-18c-0.9,0.1-2.8,0.1-5.2,0.2l0,0l-7.3,3h0.6c-0.5,0.1-1.1,0.2-1.6,0.4l-1.5,0.6c-4,1.9-7.7,5.9-9.8,7.9
			c-1,0.9-2.3,2.7-3.2,4.1c-1.8,2.7-3.6,6.2-4.6,9.7c-1.2,3.7-1.2,6-1.5,9l0.3,7.9V229.2z M460.5,221.9h16.2c0,0,2.6,1.5,2.8,4.2
			c0.2,2.7-0.3,5.3-3.3,6.1c-3,0.8-16.2-0.2-16.4-0.4c-0.2-0.1-3.5-1.6-3-4.8C457.3,223.8,458.3,222.7,460.5,221.9L460.5,221.9z
			 M363.5,188.5v0.2h0.3L363.5,188.5z M417.6,207.4c11.3-2.8,20.8,5.3,22.7,14.2c2.5,11.3-5.1,20.3-13.7,22.5
			C402.3,250.4,392.4,213.6,417.6,207.4L417.6,207.4z M245.5,207.4c11.3-2.6,20.8,5.3,22.6,14.4c2.4,11.1-5.4,20.5-14.3,22.4
			C229.1,249.5,220.9,213.1,245.5,207.4L245.5,207.4z M221.4,218.9c-0.5,0.8-1.1,1.3-1.9,1.7c-1.4,0.8-3.3,1.3-5.2,1.3
			c-4.5,0-8-2.4-8-5.3c0-1.3,0.6-2.4,1.7-3.3c0.3-0.3,0.7-0.5,1.1-0.8c1.4-0.8,3.2-1.3,5.2-1.3c2.5,0,4.7,0.8,6.1,2
			c0.3,0.2,0.5,0.5,0.8,0.8c0.7,0.8,1,1.7,1,2.7C222.2,217.5,221.9,218.3,221.4,218.9L221.4,218.9z M216.9,209.5
			c-0.1-2.7,5.5-9.6,7.3-11.4c-2.3,3.9-3.4,6.6-5,11.5L216.9,209.5z M382.7,232.8c-3.3-16.7,1.2-28.7,13.5-37.9
			c3.4-2.5,7.4-4.4,12.1-5.4c21.2-5,41,11.1,42.4,27.2c-1.2-2.1-1.5-3.1-2.9-5.2c-16.2-25.3-56-15.9-55.2,16
			C392.8,234.3,389.1,233,382.7,232.8z M221.1,210.8c1.5-9.4,9.7-18.2,15.6-21.8c23.7-14.2,52.7,2.7,53.5,28.5
			c0.1,4.1-0.9,12.2-3,15.2c-2.4,0.2-7.2,0.9-8.4-1c-0.5-0.5-0.1,1.3-0.5-1.1c-0.3-2,2.3-10.1-4.2-20.4c-7.8-12.3-23.7-17-37.3-10.8
			c-6.2,2.9-9.9,7.4-14,12.4L221.1,210.8L221.1,210.8z M461.8,220c-4-11.2-7.5-18.6-15.6-26.6c-3.4-3.3-1.6-7.8,3.4-7.2
			c3.4,0.4,11.2,12.9,12.7,15.5c1.9,3.3,8.7,14.7,9.2,18.3H461.8z M214.1,209.5c-3.6,0.1-5.6,0.2-7.6,2.3c-1.7,1.8-2.5,4.9-1.2,7.6
			c2.1,4.5,9.8,4.6,15.3,3.3c-0.7,12.8,4.8,23.2,15.2,28.8c2.1,1.1,2.6,0.8,3.9,2.2c-3.1-0.7-32.9-0.6-35.3,0.1c0,0.3,0,0.6,0,0.9
			H288v-0.7c-2.2-0.9-25.2-1-28.4-0.2c1.5-1.6,4.3-2.2,6.1-3.5c9.5-6.5,9.7-12.1,12.4-16.2c4.5,1.8,85.1,0.9,102.7,0.9
			c7.3,0,8.2,0.8,13.1-1.6c1.8,7,6.7,13.5,12.3,17c1.8,1.1,4.6,2,6.1,3.4c-2.9-0.7-55.1-0.7-57.1,0.4v0.7H485c0-0.3,0-0.6,0-0.9
			c-2.3-0.6-49.8-0.7-52.9-0.1c1.1-1.1,2.5-1.5,3.9-2.3c4.3-2.4,6.2-4.4,9.2-7.9c3.6-4.3,5.4-9.9,6.1-16.9c0,6.1,2.9,5.5,8.1,6.3
			c4.8,0.7,8.9,0.7,14.1,0.7c4.5,0,8-2.2,8.1-6.7c0-5.3-4-6.1-6.6-6.9c-0.1,0-0.3-0.1-0.3-0.1l-0.6-0.3c-1.3-1.4-3.1-6.5-4.1-8.5
			c-4.1-8.3-9.2-16.1-14.7-23.1c-0.9-1.1-2.1-2.7-2.9-3.5c-1.7-1.6-1.8-1.7-3.1-3.3c-3-3.7-9-8.9-13.1-12.2
			c-2.3-1.8-4.6-3.6-7.2-5.4c-8.2-5.8-22.3-13.3-34-16.4c-12.8-3.5-32-5-45.8-4c-19.1,1.5-39.2,12.2-50.4,25.2l-6.1,6.5
			c-3.2,1.5-27.7-1.9-53.3,9.7C220,193.6,218.1,204.8,214.1,209.5L214.1,209.5z"/>
		<path class="st3" d="M221.1,210.8l1.8,1.2c4.2-4.9,7.8-9.6,14-12.4c13.5-6.2,29.5-1.6,37.3,10.8c6.4,10.3,4,18.3,4.2,20.4
			c0.3,2.4,0,0.5,0.5,1.1c1.2,1.9,6,1.2,8.4,1c2.2-3,3.1-11.1,3-15.2c-0.8-25.7-29.8-42.6-53.5-28.5
			C230.8,192.7,222.5,201.4,221.1,210.8L221.1,210.8z"/>
		<path class="st4" d="M365.9,178.3c0.4,5.9,6.2,5.4,11.9,5.4c5.7,0,11.4,0,17.1,0c4.5,0,12.9,1,15.4-1.6c4.4-4.3-0.1-9.1-2.6-11.2
			c-5.3-4.5-17.4-7.6-25.7-8.8c-16.4-2.4-17.3-0.3-16.1,16.3V178.3z"/>
		<path class="st3" d="M382.7,232.8c6.3,0.2,10,1.6,9.9-5.3c-0.7-31.8,39.1-41.3,55.2-16c1.4,2.1,1.6,3.2,2.9,5.2
			c-1.4-16.1-21.3-32.2-42.4-27.2c-4.6,1.1-8.7,3-12.1,5.4C383.9,204.1,379.5,216,382.7,232.8z"/>
		<path class="st4" d="M329.9,162.1c-6.5,1.5-16.5,10.6-19.2,14.4c-1.3,2-1,4.5,0.6,5.7c2.1,1.7,21.4,0.9,24.6,0.9
			c2.9,0,14.3,0.3,16.2-0.3c4.4-1.5,3-8.9,3-13.5c0-6.5-2.6-7.6-8.9-7.6C342.2,161.7,333.2,161.2,329.9,162.1L329.9,162.1z"/>
		<path class="st5" d="M248.8,223.3c3.5-1.3,4.7,4.1,1.7,5.1C247.2,229.6,244.9,224.8,248.8,223.3z M237.1,227.4
			c1.6,16.2,27.1,13.6,25-3.2C260.2,208.4,235.3,210.1,237.1,227.4z"/>
		<path class="st5" d="M423.5,228.2c-5.4,1.2-5-3.9-3.1-4.8C423.6,221.7,426.3,225.2,423.5,228.2z M434.2,228.7
			c1.6-7.6-3.2-13.6-9.1-15.1c-7.7-2-13.8,3.2-15.4,9C405.3,239.2,430.8,244.6,434.2,228.7z"/>
		<path class="st5" d="M246.1,211.1c9.3-2.4,16.7,4.1,18.4,11.3c2.1,9.1-4.2,16.6-11.2,18.3C233.6,245.3,226.3,216.1,246.1,211.1z
			 M245.5,207.4c-24.5,5.6-16.3,42.1,8.3,36.9c8.9-1.9,16.7-11.3,14.3-22.4C266.2,212.9,256.7,204.9,245.5,207.4L245.5,207.4z"/>
		<path class="st5" d="M418.4,211c19.8-4.4,26.3,24.8,6.8,29.7C405.6,245.5,398.7,215.4,418.4,211z M417.6,207.4
			c-25.2,6.1-15.3,42.8,8.9,36.7c8.6-2.2,16.2-11.2,13.7-22.5C438.3,212.8,428.8,204.7,417.6,207.4L417.6,207.4z"/>
		<path class="st2" d="M329.9,162.1c3.4-0.8,12.4-0.3,16.4-0.4c6.2,0,8.9,1.1,8.9,7.6c0,4.6,1.4,12.1-3,13.5
			c-1.9,0.7-13.4,0.3-16.2,0.3c-3.3,0-22.5,0.8-24.6-0.9c-1.6-1.3-1.9-3.9-0.6-5.7C313.4,172.6,323.5,163.5,329.9,162.1L329.9,162.1
			z M329.1,160.1c-4.8,1.1-28,15.8-19.6,23.5c3,2.7,21.2,1.7,26.9,1.7c4.4,0,14.5,0.8,17.6-1c4.4-2.5,3.3-9.4,3.3-15.4
			c-0.1-6.5-3.2-9.2-9.6-9.2C343.3,159.7,333,159.2,329.1,160.1L329.1,160.1z"/>
		<path class="st2" d="M365.9,178.3c-1.2-16.6-0.3-18.6,16.1-16.3c8.4,1.2,20.4,4.4,25.7,8.8c2.6,2.1,7,6.9,2.6,11.2
			c-2.7,2.6-11.1,1.6-15.4,1.6c-5.7,0-11.4,0-17.1,0c-5.6,0-11.5,0.6-11.9-5.4V178.3z M363.8,169.3c0,17.4,1.1,16.4,19.4,16.4H403
			c4,0,6.9,0,9.3-2.7c6.7-7.7-3.7-15.9-14.1-19.2c-6.7-2.2-12.6-3.7-20.1-4.4C369.1,158.6,363.8,159.6,363.8,169.3L363.8,169.3z"/>
		<path class="st2" d="M434.1,228.7c-3.4,16-28.9,10.5-24.5-6.1c1.6-5.8,7.7-11,15.4-9C430.9,215.1,435.7,221.1,434.1,228.7z
			 M418.4,211c-19.8,4.4-12.9,34.5,6.8,29.7C444.7,235.9,438.1,206.7,418.4,211z"/>
		<path class="st2" d="M237.1,227.3c-1.7-17.2,23.1-18.9,25-3.2C264.2,241,238.6,243.4,237.1,227.3z M246.1,211
			c-19.8,4.9-12.5,34.1,7.2,29.6c7-1.7,13.3-9.2,11.2-18.3C262.8,215.1,255.4,208.6,246.1,211z"/>
		<path class="st2" d="M349.4,254.6c-0.4-2.2-6.7-1.3-8.4-1.3c-5.5,0-27-0.6-29.3,0.6v0.6L349.4,254.6L349.4,254.6z"/>
		<path class="st2" d="M304.3,254.6c0-0.2,0-0.4,0-0.6c-1.9-1.2-8.6-1-10.9-0.4c0,0.3,0,0.6,0,0.9L304.3,254.6L304.3,254.6z"/>
		<path class="st2" d="M355.6,196.1c-2.2,0.2-11,0.7-12.6-0.2c-0.5-1.3,1.4-1.1,2.8-1.1h8.6C356.4,195.1,355.4,195,355.6,196.1
			L355.6,196.1z M342.2,194.2l0.1,2.5c4.5,0.8,9.4,0.8,13.9,0.2v-2.7C352.9,193.3,345.9,193.8,342.2,194.2L342.2,194.2z"/>
		<path class="st6" d="M343.1,195.8c1.6,0.9,10.4,0.4,12.6,0.2c-0.2-1.2,0.7-1.1-1.2-1.4h-8.6C344.5,194.6,342.6,194.5,343.1,195.8
			L343.1,195.8z"/>
		<path class="st2" d="M420.4,226c0.4-2,1.6-2,2.8-0.8v1.2C421.9,227.6,421.4,227.5,420.4,226z M423.5,228.3c2.8-3,0.1-6.5-3.1-4.8
			C418.4,224.6,418,229.5,423.5,228.3z"/>
		<path class="st2" d="M251,226c-0.5,0.6-0.6,1-1.2,1.1c-1.2,0.3-1.4-0.5-1.4-0.6C247.5,223.9,250.1,223.5,251,226L251,226z
			 M248.8,223.3c-4,1.4-1.6,6.3,1.7,5.1C253.6,227.3,252.3,222,248.8,223.3z"/>
		<path class="st5" d="M248.4,226.5c0,0,0.1,0.9,1.4,0.6c0.6-0.2,0.8-0.6,1.2-1.1C250.1,223.6,247.5,223.9,248.4,226.5L248.4,226.5z
			"/>
		<path class="st5" d="M420.4,226c1,1.5,1.5,1.6,2.8,0.4v-1.2C422,224.2,420.8,224.1,420.4,226z"/>
		<path class="st3" d="M408.7,186.7L408.7,186.7z M365.5,145.1L365.5,145.1z M357,145L357,145z M380.1,229.2l-0.3-7.9
			c0.3-3,0.3-5.3,1.5-9c1.1-3.6,2.9-7.1,4.6-9.7c0.9-1.3,2.2-3.1,3.2-4.1c2.1-2,5.8-5.9,9.8-7.9l1.5-0.6c0.5-0.2,1.1-0.3,1.6-0.4
			h-0.6l7.3-3c2.5-0.1,4.4-0.1,5.2-0.2c14.8-1.1,26.8,6,34.5,18c9,14,1.3,26.9,8.4,26.1c-2.6-4.5-0.4-8,2.7-10.1
			c-1.2-9-8-18-13.6-24.3c-2.2-2.5-4.5-3.9-3.1-8.5l2-2.9l3.9-1.2c-0.2-0.1-4.7-5.2-7.5-7.6c-10.5-8.7-12.7-11.7-27.9-19.4
			c-6.6-3.4-15-7-22.9-8.6c-5.5-1.1-17.5-3.1-24.8-3.2l-8.5-0.1c-13.8-0.4-26.2,3.9-36.9,9.4c-5.5,2.9-10.1,6.7-14.3,10l-6,6
			c-1.6,1.4-1.7,1.9-3,3.4c-0.8,1-1.1,1.4-1.2,2.2c-0.3,0.6-1.2,1-2.1,1.1v-0.1c-6,1-13.9,0.6-20.7,1.3c-6.1,0.7-13.1,1.5-18.5,3.5
			c7.5,0.6,11.9,1,17.9,4.3c0.3,0.1,0.6,0.3,1.1,0.4l3.9,2.5c0.8,1.3,3,1.9,6.1,5.8c1.8,2.2,3.8,4.8,5.2,7.9
			c4,8.2,3.8,14.9,3.6,18.5l-1.3,8c-0.3,1.2-0.7,2.5-1.1,3.5l1.9,0.1l0,0l1.9,0.1v-0.1H343l18.7,0.1l0,0h3.3h0.1h15.6l-0.6-3.6
			V229.2z M356.3,196.9c-4.6,0.6-9.4,0.6-13.9-0.2l-0.1-2.5c3.9-0.4,10.7-0.9,14.1,0L356.3,196.9L356.3,196.9z M363.6,188.8v-0.2
			l0.3,0.2H363.6z M354.2,184.3c-3.1,1.8-13.3,1-17.6,1c-5.6,0-23.9,1.1-26.9-1.7c-8.4-7.7,14.7-22.4,19.6-23.5
			c3.8-0.9,14-0.4,18.5-0.4c6.4,0,9.6,2.7,9.6,9.2C357.4,174.9,358.5,181.8,354.2,184.3L354.2,184.3z M363.9,169.4
			c0-9.7,5.3-10.7,14.3-9.9c7.5,0.7,13.4,2.3,20.1,4.4c10.5,3.4,20.9,11.5,14.1,19.2c-2.4,2.8-5.3,2.7-9.3,2.7h-19.8
			C365.1,185.7,364,186.7,363.9,169.4L363.9,169.4z"/>
		<path class="st7" d="M449.4,186.2c-4.9-0.6-6.7,4-3.4,7.2c8.2,8,11.7,15.3,15.6,26.6h9.6c-0.5-3.6-7.3-15.1-9.2-18.3
			C460.5,199,452.8,186.6,449.4,186.2z"/>
		<path class="st2" d="M198.4,254c-1.7-2.2-28.9-1.3-36.4-1.3c-24,0-116-0.6-126,0.6l0.1,0.6L198.4,254L198.4,254z"/>
		<g>
			<path class="st8" d="M85.5,198.9c0,0.9,0.4,2.1,0.5,3c0.9,6.5,0.7,17.6,0.3,23.9c-0.5,7-1.3,12-2.7,18.6
				c-0.3,1.5-1.3,4.5-1.4,5.7c3.1,0.5,5.4,0.3,8.2-0.7c0.3-1.7,0.5-3.6,0.8-5.2c1.3-8.5,3-16.8,3.9-25.4l0.8-11
				c2.4,0.1,15.6,1.6,16.7,2.6c-0.4,0.3-5.3-0.9-6.3-1c0.3,1.4,0.9,2.9,1.3,4.4c3.2,13.6-0.4,21-1.1,34c3.3,0.4,3.6,0.3,6.5-0.4
				c2-7.5,3-15.2,3.3-23.4c0.2-5.7,0-19.2-2.1-24.2l-0.8-2.6c-0.3-0.1-0.9,0.3-1.4,0.5c-0.6,0.2-1.1,0.3-1.8,0.4
				c-6.3,1.1-16.5,0.4-22.6-1.9c-1.2-0.4-1.8-0.9-2.8-1.4C85,196,85.2,198,85.5,198.9L85.5,198.9z M152.2,183.4
				c0.5,0.4,0.8,0.5,1.1,0.9c4.4,4.2,6.4-0.8,4.7-2.8c-1.2,0.7-1.1,0.9-3,1c-1.4,0-2.7,0-4.1,0L152.2,183.4z M140.7,182.5
				c-1.5-0.1-2.4,0-3.9-0.3c0.3,0.4,0.6,0.6,1,1C139.3,184.5,140.5,184.3,140.7,182.5L140.7,182.5z M160.2,176.8
				c0,2,1.8,2.5,2.9,1.2c0.7-0.9,0.9-2.9,0.2-4c-0.5,0.5-0.6,1-1.3,1.6S160.9,176.2,160.2,176.8L160.2,176.8z M159.6,176.5
				c2.9-0.5,4.4-3.5,3.2-5.7c-0.2-0.5-0.4-0.6-0.8-0.8c-0.2,1.3-0.8,2.3-1.6,3C159.6,173.7,159.6,175.2,159.6,176.5L159.6,176.5z
				 M135.2,171.1c-0.7,0.3-1.5,1.6-1.9,2.5c-0.5,1.1,0.4,2,1.3,2.5L135.2,171.1L135.2,171.1z M134,171.7c0.9-1.2,1.2-1,1.4-1.9
				l-1.3-0.1c-0.4,0.6-1.5,3.3-1.2,3.9C133.3,173,133.6,172.3,134,171.7L134,171.7z M160.1,172.7c1.4-0.9,3-5.1,0.7-6.1L160.1,172.7
				z M158.5,165.8c-1.9,0.5-3-0.7-3.1-2.6c-0.7,0-1.8,0-2.2,0.3l-10.6,0.8h-0.1v0.7c-0.7,0.6-0.9,1.9-2.7,1.5
				c-1.3-0.3-1.3-1.3-1.9-2.1c-2,0.6-1.8,1.5-2.1,3.7l-1.2,10c-0.2,1.9,0.3,3,1.8,3.6c2,0.8,8,0.4,10.6,0.5c1.9,0,3.7,0,5.5,0
				c1.5,0,4,0.3,4.7-0.8c1.3-0.7,1.4-2,1.7-3.9l1.2-9.8c0.2-1.5,0.9-3.5-0.5-4C159.4,164.6,159.1,165.2,158.5,165.8L158.5,165.8z
				 M114.4,167.6c0.6,0.7,0.6,0.2,0.5,1.5l4.5,1.2c0.3-0.3,0.5-1,0.6-1.5l0.7-2c-4.9-1.6-6.5-1.7-11.8-4c-1-0.4-4.8-2.6-5.2-2.6
				c-0.9-0.1-2.8,0.1-3.9,0.1c-1.3,0-2.5-0.1-3.8-0.2c0.1,0.8,0,0.9,0.7,1.1l8.5,2.8c1.5,0.6,3.1,1.2,4.6,1.8
				C110.9,166.2,113.8,167.6,114.4,167.6z M127.7,166.4l-1.4,1.4c1.6,1.9,2.8,0.4,3.3-0.9c0.5-0.4,0.7-1.7,0.8-2.5
				c0.2-2.7-2.4-5.3-4.8-4.1C126.1,161.2,128.9,162.3,127.7,166.4z M130.1,167.1c-0.4,0.5-0.6,0.8-0.2,1.2c0.4,0.4,1,0.4,1.5,0.1
				c0.6-0.4,1.1-1.7,1.3-2.6c1-3,0.1-6.9-3.7-5.2C131,162.8,131,163.6,130.1,167.1L130.1,167.1z M142.4,161.8c-0.3-2.2-1.3-5.6-4-5
				c-0.4,0.1-0.6,0.1-0.7,0.4c-1.1,0.4-2.1,1.7-2.7,2.7c-1.2,1.7-1.7,2.1-1.7,3.5c0,1.6-0.3,3.2-1,4.3c-1.4,2.7-2.6,1-3.1,0.7
				c-0.3,0.4-0.9,1-1.7,0.9c-0.8,0-1.1-0.6-1.6-1.1c-2.1,0.1-2.6-1.3-2.7-3.3l0.1-1.2c0.1-0.3,0.1-0.1,0.2-0.2
				c0.4,0.8-0.2,2.7,0.8,4c1,1.2,2.4,0,3-0.8c1.1-2.2-0.2-5.2-2.8-5.7c-0.2,0.3-0.2,0.4-0.5,0.9s-0.4,0.4-0.4,0.9
				c-1.6,1.2-3.6,8.8-4.3,9.3c-0.2-0.3,0-0.6,0.1-1l-7.3-2.1c-0.6,0.5-1.5,1.4-1.7,2.5c1.6,1.1,8.6,3.3,9,3.5
				c0.2,0.2,0.5,0.6,0.7,0.9c2.9,3.4,7.3,1.1,7.8,1.4c-0.4,0.6-0.8,0.2-1.3,0.8c1,0.9,2.3,1.4,3.8,1.8c1.5,0.4,3,0.8,4.4,1.2
				c-0.5-1.9,0-2.4-0.1-4.1c-0.4-0.4-0.9-0.8-1.2-1.2c-0.2-0.3-0.3-0.5-0.5-0.7c-0.4-0.6,0.1-0.2-0.6-0.5c0.1-2.3,3.3-8.2,4.6-10.1
				c1.2-1.6,0.6-1.1,0.6-3.1c0-0.2,0-0.4,0.1-0.6c0.2-0.5-0.1,0,0.2-0.3c0.5,1.8-0.2,4.9,1.7,5.9c1.1,0.6,2.1-0.2,2.5-1
				c0.4-1,0.4-2.3,0.3-3.4L142.4,161.8z M77.3,159.8c0.6,1.7,1.9,3.1,2.3,4l-0.4,0.1h-0.1c1,7.8,3.3,15.5,3.7,23.3
				c0.3,5.2,0.4,6.9,4.8,8.7c3.4,1.3,7.3,1.8,11.3,2.2c3.2,0.1,6.4,0.3,9.7-0.1c3.1-0.4,5.7-0.9,6.1-3.9c0.3-2.6-1.3-6-2-8.2
				c-0.9-2.5-1.6-4.9-2.4-7.6c-1.5-5.1-0.1-3.4-4.7-4.8c-3.8-1.2-6.6-2.5-10.1-4.3c-2.2-1.1-4.3-2.2-6.3-3.3
				c-0.9-0.5-5.8-2.8-6.3-3.2c0.2-0.1,0-0.1,0.3-0.1c1,0,11.8,5.8,13.4,6.6c3.4,1.7,11,5,15.3,5c0.8-0.5,1.1-0.9,1.5-1.6l-3.2-1.4
				l-0.4,0.9c-0.1-0.1-0.1-0.1-0.1-0.4c0-0.4,0,0,0-0.3l0.6-1.8c0.5-0.4,1.2-2,2.7-2.4c-0.2,0.5-0.1,0.2-0.3,0.4
				c-0.2,0.3-0.1,0-0.2,0.3l0.5,0.1l1.5,0.5c0.1-1-0.4-1-1.3-1.3c-1.9-1.8-20.2-7.1-24.1-8.7c-1.6-0.6-3.1-1.4-4.6-2
				c-1.4-0.6-3.7-1.5-5.4-1.2c-2.1,0.4-2.5,1.8-1.9,3.9L77.3,159.8z M155.9,159.8c-0.2,1.2-0.3,2.8,0,4c0.2,1.1,1,2.3,2.2,1.9
				c1.6-0.5,2-3.5,2.1-4.9c0-2.2-0.5-4.1-2-4.8c-3.7-2-5.9,4.1-5.6,7.4l1.2-0.1l1.8-0.2l0.3-3.7l0.3-0.5c0.2,0.4,0,0.5,0,1H155.9z
				 M105.7,131.7c-0.2-0.5-0.5-1-1.2-0.7c-0.4,0.2-0.4,0.3-0.6,0.9l-0.1,0.8h1.4h0.6L105.7,131.7L105.7,131.7z M103,131l0.5,1.5
				l0.5-1.4c1.2-1,2.1-0.3,2.2,1.4c0.2-0.1,0.5-0.1,0.4-0.9c0-0.2-0.1-0.6-0.2-0.7C105.7,129.8,103.3,129.1,103,131L103,131z
				 M106.5,130.1c-0.2-1-0.5-2.1-0.8-3c-0.3-0.8-0.4-2.3-1.4-2.3c-1.9,0-2,3.4-1.6,5.2C103.5,129.7,103.9,128.5,106.5,130.1
				L106.5,130.1z M94.4,123.9c0.5-0.3,0.6-0.3,0.9-0.8h-1.9l-0.2,1.4C93.7,124.3,94,124.1,94.4,123.9L94.4,123.9z M85.6,129.8
				l-1.4,3.7c-0.4,0.7-0.2,0.7,0,1.3c-0.7-0.3-1-0.7-1.8-1.2c-5.5-2.9-8.9,5.8-3.6,8.6c0.7,0.7,2.5,1.4,3.8,1.5
				c2.7,0.2,2.5-1.3,3.4-1.7c-0.2,0.6-0.5,0.9-0.7,1.3c1.1,2.4,2.2,4.2,3,7c0.9,3.1,1.1,5.2,1.6,8.4c0.6,0.4,5.3,2,6.1,2.1
				c0-1.4-0.1-0.5-1.9-1.2c-0.2-2.7-0.5-4.6-1.1-7c-0.4-1.4-1-1.5-1.8-2.5c-0.3-0.4-0.6-0.7-0.9-1.1c-0.3-0.4-0.7-0.7-0.8-1.2
				c0.5,0.1,0.1,0,0.5,0.4c1.7,1.7,3.3,4.8,7.9,5.2c2.5,0.6,4.8-0.2,6.5-1.3c6.2-4.4,3.4-14.3,2.6-20l-0.2,0.3
				c-0.6,0.7-2.3,0.4-3.1,0.4c0.6,1.3,1.7,2.3,2.6,3.4c2.3,2.9,0.3,3.3,0,3.8c-0.6,0.1-1.3,0.5-1.9,0.3c0.1-0.1,0.1-0.1,0.3-0.2
				c0.2-0.1,0.2-0.1,0.4-0.1c0.7-0.2,1.4-0.3,1.7-0.9c0.7-1.2-0.9-2.9-1.7-3.7c-2-2.2-3.6-5.5-2.9-8.6c0.6-2.7,2.3-2,2.3-3.2
				l-2.4-6.2c-0.2,0.1-0.1,0.1-0.3,0.3c-0.6,0.6-0.8,1.3-2.2,2.6c-0.5,0.5-2.3,2.1-3.1,2.3l0.2,1.1c-1.3-0.5-1.2-0.3-2.2,0.4
				c-0.5,0.3-1.5,1.1-2,1.1l0.3-2c-1.8,0.2-2.7,1.1-3.6,1.9l0.2-0.8c-1.3,0.7-2.9,1.1-3.1,1.7C86.2,126.9,86,128.6,85.6,129.8
				L85.6,129.8z M93.2,122.1c-0.9,0.2-1.5,0.8-2.1,1.3c0.5-0.1,0.8-0.3,1.3-0.4C93.3,122.8,93.1,123,93.2,122.1z M96.1,122.6
				c-0.4-0.7-1.7-1.1-2.7-0.6l-0.1,0.8C94.3,122.8,95.5,123.1,96.1,122.6L96.1,122.6z M107.8,123.5c0.6-2.9-1.5-4.8-1.6-5.8
				c1.2,0.6,0.1,1.2,1.9,1.3c-0.6-1.7-3.7-4.7-4.9-5.4l-0.3,2.4c-0.8,0.9-0.6,1.3-0.2,2.3c0.3,0.8,0.6,1.6,0.9,2.3
				c0.4,1,1.3,4,1.9,4.6C106.7,125.4,107.4,124.4,107.8,123.5L107.8,123.5z M74.1,129.8c0.5,1,2.8,3.7,3.4,4.1
				c1.1-0.5,1.3-1.1,3.1-1c1.6,0,2,0.7,3.2,1.1c0.8-2.7,1.3-2.7,2.3-6.7c0.3-1.3,0.5-2.5,0.7-3.8c0.1-1,0-3.5,0.3-4.2
				c0.3,0.4,0.2,1,0.2,1.5l-0.3,4.5c1.6-0.8,3.6-1.5,4.7-2.9c0.8-0.3,1.5-0.9,1.9-1.4c0.3,0.4,0,0.3,0.3,0.6c0.7,0,1.3-0.1,1.9,0.1
				s0.6,0.4,1.1,0.7c0.7-0.5,1.2-0.9,1.9-1.4c1.9-1.5,3.3-3,4.3-5.5c0.9-5.5-4.1-7.3-8.9-8.1c-5-0.9-10.6-0.5-14.7,1.6
				c-3.7,1.8-7.1,4.7-8.6,8.7c-1,2.7-0.5,4.7,0.6,7.1c0.3,0.6,2.4,4.9,3.1,5.2L74.1,129.8z M99.7,263.2h-2.3c-1.3-0.6-3-0.3-7.1-2.5
				c-2.7-1.4-6.4-4-8.4-6c-1.8-1.8,0-2.2-0.5-3.6c-0.3-0.9-0.5-0.4-0.2-1.7c3.6-12.8,4.9-28.5,4.1-41.8c-0.2-3.1-1-9.6-1.8-12.6
				c-0.1-0.5-0.6-0.9-1-1.5c-1.3-2.4-1.1-7.5-1.5-10.6c-0.4-2.9-0.9-5.5-1.4-8.3c-0.6-3.4-1.4-6.8-1.8-10.2
				c-0.3-2.7-1.6-2.6-2.1-5.3c-0.5-3.1,2.1-4.8,5.1-4.4c3,0.4,4.8,1.8,7.3,2.6c-0.5-4.9-2-8.6-3.8-12.4c-4.1,1.1-9-2.1-9.6-6.2
				c-0.3-2.3,0.4-2.9,1-4.5c-2.1-1.8-4.4-5.3-5.6-7.9c-1.8-3.6-2.5-6.9-0.4-10.7c2.9-5.1,8.3-8.5,14.1-9.6c0.8-0.1,2.3-0.2,2.9-0.4
				H90c1,0.4,9.8,0.5,12.8,4.7c0.3,0.4,0.6,0.9,0.8,1.4c0.6,1.5,2.6,1.8,5.1,5.7c1.2,1.9,1.1,1.9,0.1,2.9c0.3,1.3,0.6,2.4,0.1,3.8
				c-0.2,0.6-0.4,0.9-0.8,1.3c-0.6,0.6-0.8,0.4-1.4,0.9c0.6,3,1.5,5,2.2,9.6c0.5,3.2,1,7.9,0.2,10.9c-1.7,6.6-7.1,9.7-14.6,7.1
				l0.8,4.7c1.2,0.7,5.7,0.5,7.3,0.4c2.5-0.1,2.6,0.6,5.8,2.2c2.3,1.1,9.6,3.9,11.9,4.2c0.5-0.6,1.3-2.6,1.8-3.5
				c1.7-2.8,1.3-2.4,2.8-2.7c0.8-0.2,1-0.5,2.1-0.4c1,0.1,1.2,0.5,2.1,0.3c0.9-0.2,1.4-0.4,2.4-0.2c1.1,0.3,1.1,0.7,1.8,1
				c0.3-0.5,0.8-1.2,1.1-1.6c1.3-1.7,3.1-3.5,5.4-3c2.7,0.6,3.9,4.3,3.9,7.5l7.4-0.5c0.2-2.2,0.5-3.7,1.4-5.2c3.1-5.3,9.6-3.7,8.7,5
				c-0.2,1.4,0.7,0.9,0.9,2.3c0.1,0.6-0.2,0.9,0.1,1.3c0.1,0.2,0.5,0.6,0.7,1c0.4,0.8,0.3,2,0.7,2.7c0.5,0.8,0.9,1.1,1,2.4
				c0,0.5-0.1,1,0,1.5c0.1,0.8,1,2.4,0.2,4.4c-0.6,1.6-2.3,2.9-4.4,1.9l-0.3,0.6c-0.7,1.7-0.6,0.7-0.2,2.1c0.3,1.1,0.1,2.4-0.5,3.3
				c-1.1,1.5-3.3,2.2-5.2,1c-1.2-0.7-3.1-2.9-4.5-3.1c-2.1-0.2-5.3,0-7.5,0c0,0-0.1,0-0.1,0.1l-0.4,0.7c-0.6,0.8-1.6,1.3-2.6,1
				c-1.3-0.3-2.3-1.5-3-2.2c-2.5-2.3-4-1.6-7.3-2.9c-2.3-0.9-2.3-1.7-3.6-1.6c-5.2,0.2-5.1-2.6-6.9-3.2c-0.8-0.3-3.4-1.2-4-1.3
				c-1,1-1.2,1.6-3.1,1.5c0.5,4.8,4.3,12.4,4.8,16c0.8,4.7-1.6,4.3-0.9,6.2c3.9,11.5,3,32.8,0.5,44.9c-0.3,1.4-0.8,3-1,4.4
				c2.8,3.5,9.5,2.8,12.6,7.7c0.4,0.6,0.9,1.7,0.7,2.6c-0.2,0.9-1.3,1-2.3,1.1c-5.7,0.5-10.9-2.5-16-4.3c-1.4-0.5-4.4-0.9-5.1-1.8
				c-0.4-1.7,0.7-3.8,1-4.9c0.3-1.6,0.3-3.9,0.5-5.5c0.8-7.5,2.4-14.1,1.7-22c-0.2-2.3-1.3-8.3-2.2-9.9c-0.4-0.4-7.7-1-8.1-1.1
				c-0.2,7.1-1.1,13.7-2.1,20.6c-1,6.4-2.6,13.4-3.1,19.7c3.7,3.8,12.1,3.1,12.8,10.8c0.2,2.3-3.7,2.3-5,2.9L99.7,263.2z"/>
			<path class="st9" d="M114.2,199.7c2.1,5,2.3,18.5,2.1,24.2c-0.3,8.2-1.3,15.9-3.3,23.4c-3.1,0.7-3.3,0.8-6.5,0.4
				c0.7-13.1,4.3-20.5,1.1-34c-0.3-1.5-1-3-1.3-4.4c1,0.1,5.9,1.3,6.3,1c-1.1-1-14.2-2.5-16.7-2.6l-0.8,11
				c-0.9,8.6-2.6,16.9-3.9,25.4c-0.3,1.7-0.4,3.6-0.8,5.2c-2.8,1.1-5.1,1.2-8.2,0.7c0.1-1.2,1-4.3,1.4-5.7
				c1.4-6.6,2.2-11.7,2.7-18.6c0.4-6.3,0.6-17.4-0.3-23.9c-0.1-1-0.5-2.2-0.5-3c0.1-0.5-0.1-0.4,0.7-0.3l2.5,0.3
				c4,0.5,7.3,0.3,11,0.6c4.5,0.4,6.8,0.5,11.1,0.6c1.1,0,2.5-0.6,3.4-0.2L114.2,199.7z"/>
			<path class="st10" d="M93.2,140.6c0.6-0.2,0.6-0.6,1.1-1c2.7,2,8.4,3.5,11.6,2.9c-0.2-0.3,0.2-0.3-0.8-0.3
				c-3.2,0-5.1-0.3-8.2-1.6c-1-0.4-1.6-0.9-2.3-1.3c0.3-0.5,0.6-0.7,0.9-1.1l0.3-0.3c-0.4-0.2-3.9-0.3-3.5,2.2
				c0.1,0,0.6,0.2,0.6,0.2L93.2,140.6z M84.2,139c0.3-0.3,0.2,0,0.3-0.5s-0.5-2-1.2-2.6c-0.9-0.8-2.2-0.7-3.2,0
				c-2.7,1.8-1.4,5.1-0.3,5.2c0-0.5-0.5-0.6-0.8-1.4c-0.8-1.8,0.5-3.8,2.4-4.1c-0.4,0.7-0.8,1-0.9,2.2c0,0.7,0.1,1.9,0.6,2.4
				c0.2-0.6-0.4-1.8-0.2-2.7C81.2,135.4,83.5,134.5,84.2,139z M97.9,131.7c0.1-2.1-0.8-3.3-2.2-4c-2.6-1.2-5.2,0.6-4.7,3.6
				c0.2,1.2,0.6,1.1,1.8,1.1C94.5,132.5,96.2,132.1,97.9,131.7L97.9,131.7z M104.4,123.6c0,1.2-1.7,0.6-2.3,3.2
				c-0.7,3.1,0.9,6.4,2.9,8.6c0.8,0.8,2.4,2.5,1.7,3.7l-0.2-0.6c-2-0.5-4.5-0.3-6.6-0.4c0.3,2.1,4.7,4.5,6.3,1.9
				c0.3-0.4,2.3-0.8,0-3.8c-0.9-1.1-2-2-2.6-3.4c0.8,0,2.6,0.3,3.1-0.4l0.2-0.3c0.8,5.7,3.6,15.6-2.6,20c-1.6,1.2-4.1,1.9-6.5,1.3
				c-0.6-0.5-2.3-1.4-3.8-2.7l-6.1-6.5c-0.5-0.5-0.9-1.2-1.4-1.8l-1.2-2c-1.9,0.4-1.2,1.3-5.9,1.5c-0.6,0-0.6-0.2-0.8,0.3
				c-5.2-2.8-2-11.6,3.6-8.6c0.8,0.4,1,0.8,1.8,1.2c-0.2-0.7-0.4-0.6,0-1.3l1.4-3.7l0.9-0.5c0.3-0.2,0.5-0.4,0.7-0.6
				c1.5-1.3,2.4-2.8,4.2-3.4l0.3,2.3c1.8-0.6,3.8-1.9,5.1-3.3c0.9-1,2.7-1.8,3.8-2.6c0.5-0.4,0.7-0.6,1.2-0.9
				c0.7,0.3,1.1,0.8,1.6,1.4l0.2,0.2C103.8,123.2,103.9,123.7,104.4,123.6L104.4,123.6z"/>
			<path class="st11" d="M109.9,171.6c0.8,3.6,1.6,6.9,2.6,10.2c0.9,2.8,2.6,7.5,2.3,10.9c-0.5,4.1-3.5,4.6-6.8,5.1
				c-3.6,0.5-7.1,0.4-10.7,0.2c-2.8-1.2-2.9-2.1-3.5-3.8c-0.8-1.3-1.8-4.1-0.9-5.9c0.8-0.5-1.9-0.8-0.6-1.4
				c-4.3-0.6-5.4,0.8-8.3-2.2c-1.3-1.4-2-4.2-2.5-6.7c-2.5-13.1,15.6-9.5,21.9-8.1C104.2,170.2,109.3,171,109.9,171.6L109.9,171.6z"
				/>
			<path class="st9" d="M102.6,115.4l-0.7-0.9c-1.6,0.6-3.1,2.5-4.2,3.6c-1.3,1.3-1.2,1.6-2.9,2.7l-1.2,0.8c-0.3-0.3,0-0.2-0.3-0.6
				c-0.4,0.5-1.1,1.1-1.9,1.4l-2.1,0.4c0,0,0-0.1-0.1-0.1c0,0,0-0.1-0.1-0.1c-0.3-0.7-0.3-1.6-0.7-3.3c-0.3-1.1-0.7-2.2-1.5-2.7
				c-2,0.8-3,5.8-4.8,8.5c-1.8,2.4-5.1,5.7-8.2,4.8c-0.7-0.2-2.9-4.6-3.1-5.2c-1-2.3-1.6-4.5-0.6-7.1c1.5-4,4.9-6.8,8.6-8.7
				c4.2-2.1,9.7-2.5,14.7-1.6C98.5,108.1,103.4,109.8,102.6,115.4z"/>
			<path class="st12" d="M157.2,167.7c-2.2-0.7-2.5,3.2-0.7,3.6C158.5,171.7,159.2,168.3,157.2,167.7z M158.5,165.9
				c0.5,2.2,0.5,5.8,0.3,8.3c-0.1,1.4-0.3,2.6-0.6,3.9c-0.2,0.7-0.9,2.9-0.7,3.4c-0.8,1.1-3.3,0.8-4.7,0.8c-1.9,0-3.7,0-5.5,0
				c-2.6,0-8.6,0.3-10.6-0.5c-1.5-0.6-2-1.6-1.8-3.6l1.2-10c0.3-2.2,0-3.1,2.1-3.7c0.6,0.8,0.6,1.9,1.9,2.1c1.8,0.4,2-0.9,2.7-1.5
				v1.2c2.4,0.2,5.1,0.8,7.3,0.8c5.1-0.1,4.4-1.9,4-3.5h-0.6c0.5-0.3,1.5-0.2,2.2-0.3C155.7,165.1,156.8,166.4,158.5,165.9
				L158.5,165.9z"/>
			<path class="st10" d="M142.3,161.8c0.1,1.1,0.1,2.5-0.3,3.4c-0.4,0.9-1.4,1.6-2.5,1c-1.9-1-1.2-4.2-1.7-5.9
				c-0.3,0.3,0-0.2-0.2,0.3c-0.1,0.2-0.1,0.3-0.1,0.6c0,1.9,0.6,1.5-0.6,3.1c-1.5,1.9-4.5,7.8-4.6,10.1c0.7,0.3,0.2-0.1,0.6,0.5
				c0.2,0.2,0.3,0.4,0.5,0.7c0.3,0.4,0.7,0.8,1.2,1.2c0.1,1.7-0.4,2.2,0.1,4.1c-1.3-0.3-2.9-0.8-4.4-1.2c-1.5-0.4-2.8-0.9-3.8-1.8
				c0.5-0.6,0.9-0.1,1.3-0.8c-0.5-0.2-4.9,2.1-7.8-1.4c-0.2-0.3-0.5-0.7-0.7-0.9c-0.3-0.3-7.3-2.4-9-3.5c0.2-1.1,1.1-2,1.7-2.5
				l7.3,2.1c-0.1,0.4-0.3,0.6-0.1,1c0.6-0.5,2.7-8.1,4.3-9.3c0.7,1.3,1.9,2.8,3,3.7c0.5,0.4,0.1,0.2,0.7,0.3c-0.5,0.9-2,2.1-3,0.8
				c-1-1.3-0.4-3.2-0.8-4c-0.1,0.1-0.1-0.1-0.2,0.2l-0.1,1.2c0.1,2,0.6,3.4,2.7,3.3c0.4,0.5,0.8,1,1.6,1.1c0.8,0,1.4-0.6,1.7-0.9
				c0.5,0.4,1.7,2,3.1-0.7c0.6-1.2,1-2.8,1-4.3c0-1.4,0.5-1.8,1.7-3.5c0.7-0.9,1.7-2.2,2.7-2.7c0.2,0.2,0.4,0.3,0.6,0.5
				c1.7,1.4,2.3,3.6,4.1,4.3H142.3z"/>
			<path class="st13" d="M113.3,167.7c0.1,0.5,0.2,0.5-0.2,0.8l-0.5-0.1c0-0.3,0,0,0.2-0.3c0.2-0.3,0,0.1,0.3-0.4
				c-1.5,0.4-2.2,2-2.7,2.4c-2.8,1.4-14.2-3.8-16.8-4.7c-2.7-1.1-5.2-2.1-7.8-3c-2.2-0.8-6.3-2.3-8.5-2.5c-0.6-2.1-0.2-3.5,1.9-3.9
				c1.7-0.4,4,0.6,5.4,1.2c1.6,0.6,3.1,1.4,4.6,2c4,1.6,22.3,6.9,24.1,8.7L113.3,167.7z"/>
			<path class="st14" d="M91.5,122.3c-1.2,1.3-3.2,2.1-4.7,2.9l0.3-4.5c0-0.6,0.1-1.2-0.2-1.5c-0.3,0.7-0.2,3.2-0.3,4.2
				c-0.2,1.3-0.4,2.6-0.7,3.8c-1,4.1-1.4,4.2-2.3,6.7c-1.1-0.4-1.5-1.1-3.2-1.1c-1.8,0-2,0.6-3.1,1c-0.7-0.4-3-3.1-3.4-4.1
				c3.2,0.9,6.5-2.5,8.2-4.8c1.9-2.7,2.9-7.7,4.8-8.5c0.8,0.5,1.2,1.6,1.5,2.7c0.4,1.7,0.4,2.6,0.7,3.3c0,0,0,0.1,0.1,0.1
				c0,0,0,0.1,0.1,0.1l2.1-0.4V122.3z"/>
			<path class="st15" d="M97.9,153.5c-4.6-0.4-6.2-3.6-7.9-5.2c-0.4-0.4-0.1-0.2-0.5-0.4c0.1,0.5,0.4,0.8,0.8,1.2
				c0.4,0.4,0.6,0.7,0.9,1.1c0.8,0.9,1.4,1,1.8,2.5c0.6,2.5,0.9,4.4,1.1,7c1.8,0.7,1.9-0.1,1.9,1.2c-0.9-0.1-5.5-1.7-6.1-2.1
				c-0.5-3.2-0.7-5.3-1.6-8.4c-0.8-2.9-1.9-4.6-3-7c0.3-0.4,0.6-0.7,0.7-1.3c-1,0.4-0.8,1.9-3.4,1.7c-1.3-0.1-3-0.8-3.8-1.5
				c0.1-0.5,0.1-0.3,0.8-0.3c4.7-0.1,4.1-1.1,5.9-1.5l1.2,2c0.4,0.6,0.9,1.2,1.4,1.8l6.1,6.5C95.7,152.1,97.4,152.9,97.9,153.5
				L97.9,153.5z"/>
			<path class="st9" d="M120.2,168.8c-1.8,0.2-4.2-0.7-5.7-1.2c-0.6-0.1-3.6-1.5-4.5-1.8c-1.6-0.7-3.2-1.3-4.6-1.8l-8.5-2.8
				c-0.7-0.2-0.6-0.3-0.7-1.1c1.3,0.1,2.5,0.2,3.8,0.2c1.1,0,3-0.2,3.9-0.1c0.5,0.1,4.3,2.2,5.2,2.6c5.2,2.3,6.8,2.4,11.8,4
				L120.2,168.8L120.2,168.8z"/>
			<path class="st14" d="M114.2,199.7c-0.9-0.3-2.3,0.2-3.4,0.2c-4.4-0.1-6.6-0.2-11.1-0.6c-3.7-0.3-7-0.1-11-0.6l-2.5-0.3
				c-0.9-0.1-0.6-0.2-0.7,0.3c-0.5-0.9-0.7-2.9-0.8-4.1c1,0.5,1.6,1,2.8,1.4c6.1,2.3,16.2,3,22.6,1.9c0.7-0.1,1.2-0.2,1.8-0.4
				c0.5-0.2,1.1-0.6,1.4-0.5L114.2,199.7L114.2,199.7z"/>
			<path class="st15" d="M157.9,165.6c-0.2-0.4-0.5-0.6-0.8-1.2c-0.8-1.6-0.7-3.9-1.3-4.6c0.1-0.5,0.2-0.7,0-1l-0.3,0.5
				c-0.5,0-0.5,0.1-0.8,0.6c-0.2,0.3-0.4,0.7-0.5,1c-0.3,0.7-0.7,1.5-0.7,2.3l-1.2,0.1c-0.3-3.4,2.1-9.3,5.6-7.4
				c1.5,0.8,2,2.7,2,4.8C160,162.2,159.6,165.2,157.9,165.6z"/>
			<path class="st15" d="M104.5,123.7c-0.4,0-0.4-0.5-1.1-1.2l-0.2-0.2c-0.5-0.6-0.9-1.1-1.6-1.4c-0.5,0.3-0.6,0.5-1.2,0.9
				c-1,0.8-2.8,1.7-3.8,2.6c-1.4,1.4-3.4,2.7-5.1,3.3l-0.3-2.3c-1.8,0.6-2.7,2.1-4.2,3.4c-0.2,0.2-0.4,0.4-0.7,0.6l-0.9,0.5
				c0.3-1.2,0.6-2.9,0.9-3.9c0.2-0.7,1.8-1.1,3.1-1.7l-0.2,0.8c1-0.7,1.8-1.6,3.6-1.9l-0.3,2c0.5-0.1,1.5-0.8,2-1.1
				c1.1-0.7,0.9-0.9,2.2-0.4l-0.2-1.1c0.7-0.2,2.5-1.8,3.1-2.3c1.4-1.3,1.6-2,2.2-2.6c0.2-0.2,0.1-0.1,0.3-0.3L104.5,123.7
				L104.5,123.7z"/>
			<path class="st16" d="M142.5,165.1v-0.7c0.1,0,0.1-0.1,0.1,0l10.6-0.8h0.6c0.3,1.6,1.2,3.4-4,3.5c-2.2,0-5-0.5-7.3-0.8V165.1z"/>
			<path class="st14" d="M102.6,115.4c-1,2.6-2.4,4-4.3,5.5c-0.7,0.6-1.1,0.9-1.9,1.4c-0.5-0.3-0.4-0.5-1.1-0.7
				c-0.6-0.2-1.2-0.2-1.9-0.1l1.2-0.8c1.7-1.1,1.6-1.4,2.9-2.7c1.1-1.1,2.6-3,4.2-3.6l0.7,0.9H102.6z"/>
			<path class="st9" d="M107.8,123.5c-0.4-0.1-0.4-0.3-0.7-0.8c-1-1.6-3.6-4.6-4.2-6.9l0.3-2.4c1.3,0.7,4.4,3.9,4.9,5.4
				c-1.8,0-0.8-0.7-1.9-1.3C106.4,118.5,108.5,120.5,107.8,123.5L107.8,123.5z"/>
			<path class="st16" d="M157.5,181.3c-0.2-0.5,0.5-2.6,0.7-3.4c0.3-1.3,0.4-2.5,0.6-3.9c0.2-2.5,0.3-6.1-0.3-8.3
				c0.7-0.6,1-1.2,1.4-2.1c1.4,0.5,0.7,2.5,0.5,4l-1.2,9.8C159,179.4,158.8,180.6,157.5,181.3z"/>
			<path class="st15" d="M151,182.5c1.4,0,2.7,0,4.1,0c1.9,0,1.8-0.3,3-1c1.7,2-0.3,6.9-4.7,2.8c-0.4-0.3-0.7-0.5-1.1-0.9L151,182.5
				z"/>
			<path class="st15" d="M129.6,167c-0.4,0-0.7,0-1.1,0l-0.4-0.2c-0.3-0.2-0.2-0.1-0.4-0.3c1.2-4.1-1.6-5.2-2.2-6
				c2.5-1.3,5,1.4,4.8,4.1C130.3,165.3,130.1,166.7,129.6,167z"/>
			<path class="st14" d="M107.8,123.5c-0.3,0.9-1.1,1.9-2.3,1.6c-0.6-0.6-1.5-3.7-1.9-4.6c-0.3-0.7-0.6-1.6-0.9-2.3
				c-0.4-1-0.6-1.4,0.2-2.3c0.6,2.3,3.1,5.2,4.2,6.9C107.4,123.3,107.5,123.5,107.8,123.5L107.8,123.5z"/>
			<path class="st15" d="M132.6,165.8c-0.6,0.8-1.6,1.1-2.7,1.3c1-3.5,1.1-4.4-1-6.5C132.7,158.9,133.6,162.8,132.6,165.8z"/>
			<path class="st15" d="M106.7,139.1c-0.3,0.6-1,0.7-1.7,0.9c-0.2,0.1-0.2,0-0.4,0.1c-0.2,0.1-0.2,0.1-0.3,0.2
				c0.6,0.3,1.3-0.1,1.9-0.3c-1.6,2.6-5.9,0.2-6.3-1.9c2.2,0,4.6-0.1,6.6,0.4L106.7,139.1z"/>
			<path class="st10" d="M106.4,130.1c-2.7-1.6-3-0.4-3.9,0c-0.4-1.9-0.3-5.2,1.6-5.2c1,0,1.1,1.5,1.4,2.3
				C105.8,128.1,106.1,129.1,106.4,130.1L106.4,130.1z"/>
			<path class="st15" d="M127.3,166.4c-0.6-0.1-0.2,0.1-0.7-0.3c-1.2-0.9-2.3-2.4-3-3.7c0.1-0.5,0.1-0.5,0.4-0.9
				c0.3-0.4,0.3-0.5,0.5-0.9C127.1,161.2,128.3,164.3,127.3,166.4z"/>
			<path class="st15" d="M159.6,176.5c0.1-1.4,0.1-2.9,0.9-3.7c0.7-0.7,1.4-1.7,1.6-3c0.4,0.2,0.5,0.3,0.8,0.8
				C164,173,162.5,175.9,159.6,176.5L159.6,176.5z"/>
			<path class="st8" d="M97.1,131.3c-0.2-0.8-0.8-1.9-1.7-1.3l-0.6,0.2l-0.1,0.5c-0.3,0.4-0.5,0.8,0,1.3l0.6,0.1
				c0.3-0.1,0.3-0.1,0.7-0.2c0.5-0.1,0.4,0,0.7-0.3H97L97.1,131.3L97.1,131.3z M91.6,131.5c0,0.6,0.3,0.6,0.9,0.6s1.2,0,1.8,0
				c0-0.9,0-1,0.3-1.8l0.2-0.2c1.4-1.6,2.9,0.2,2.9,1.3c0.2-1.9-1.4-3.4-3.2-3.5c-2.7-0.2-3.3,2.7-2.7,3.5L91.6,131.5z M97.9,131.7
				c-1.6,0.4-3.3,0.8-5,0.7c-1.2-0.1-1.6,0-1.8-1.1c-0.5-2.9,2.2-4.7,4.7-3.6C97.2,128.4,98.1,129.6,97.9,131.7L97.9,131.7z"/>
			<path class="st15" d="M94.5,130.3c-0.3-0.2,0.1-0.1-0.3-0.1c-0.5,0-1.6,0.4-2.1,0.6c-0.4,0.2-0.5,0.1-0.5,0.7
				c-0.5-0.8,0-3.7,2.7-3.5c1.8,0.1,3.4,1.6,3.2,3.5C97.6,130.4,96.1,128.6,94.5,130.3L94.5,130.3L94.5,130.3z"/>
			<path class="st15" d="M160.2,176.8c0.7-0.5,1.1-0.5,1.8-1.1c0.7-0.7,0.7-1.1,1.3-1.6c0.7,1,0.5,3.1-0.2,4
				C162,179.4,160.2,178.9,160.2,176.8L160.2,176.8z"/>
			<path class="st15" d="M142.3,161.8c-1.8-0.7-2.4-2.9-4.1-4.3c-0.2-0.2-0.5-0.3-0.6-0.5c0.1-0.2,0.3-0.3,0.7-0.4
				C141,156,142.1,159.5,142.3,161.8L142.3,161.8z"/>
			<path class="st8" d="M157.2,167.7c2,0.6,1.3,4.1-0.7,3.6C154.8,170.9,155.1,167,157.2,167.7z"/>
			<path class="st9" d="M120.2,168.8c-0.1,0.5-0.3,1.2-0.6,1.5l-4.5-1.2c0-1.3,0-0.8-0.5-1.5C116,168.1,118.5,169,120.2,168.8
				L120.2,168.8z"/>
			<path class="st15" d="M160.1,172.8l0.7-6.1C163,167.7,161.5,171.9,160.1,172.8z"/>
			<path class="st8" d="M84.2,139.1c-0.7-4.5-3-3.6-3.3-1.4c-0.1,0.9,0.4,2.1,0.2,2.7c-0.5-0.4-0.6-1.7-0.6-2.4
				c0.1-1.2,0.5-1.5,0.9-2.2c-1.9,0.3-3.2,2.3-2.4,4.1c0.3,0.7,0.8,0.8,0.8,1.4c-1.1-0.1-2.4-3.6,0.3-5.2c1-0.7,2.3-0.8,3.2,0
				c0.7,0.6,1.2,2.1,1.2,2.6C84.4,139.1,84.6,138.8,84.2,139.1z"/>
			<path class="st10" d="M134.7,176c-0.9-0.5-1.8-1.4-1.3-2.5c0.4-1,1.2-2.2,1.9-2.5L134.7,176L134.7,176z"/>
			<path class="st8" d="M93.2,140.6c0.3-1.1,1.3-1.8,2-2.5l0.3,0.1c-0.3,0.4-0.6,0.6-0.9,1.1c0.7,0.4,1.3,0.9,2.3,1.3
				c3.2,1.3,5,1.6,8.2,1.6c1,0,0.5,0,0.8,0.3c-3.2,0.6-8.8-0.9-11.6-2.9C93.8,140,93.7,140.4,93.2,140.6z"/>
			<path class="st15" d="M157.9,165.6c-1.2,0.4-2-0.8-2.2-1.9c-0.2-1.2-0.2-2.8,0-4c0.6,0.8,0.6,3.1,1.3,4.6
				C157.3,165,157.6,165.2,157.9,165.6L157.9,165.6z"/>
			<path class="st15" d="M153.6,163.1c0-0.8,0.4-1.6,0.7-2.3c0.2-0.3,0.4-0.7,0.5-1c0.3-0.5,0.3-0.5,0.8-0.6l-0.3,3.7L153.6,163.1
				L153.6,163.1z"/>
			<path class="st15" d="M129.6,167c-0.5,1.3-1.7,2.8-3.3,0.9l1.4-1.4c0.2,0.3,0.1,0.2,0.4,0.3l0.4,0.2
				C128.9,167.1,129.2,167.1,129.6,167z"/>
			<path class="st15" d="M140.7,182.5c-0.2,1.7-1.5,2-3,0.6c-0.4-0.4-0.7-0.5-1-1C138.4,182.4,139.2,182.3,140.7,182.5L140.7,182.5z
				"/>
			<path class="st16" d="M91.7,131.5c0.1-0.5,0.1-0.4,0.5-0.7c0.5-0.2,1.6-0.7,2.1-0.6c0.4,0,0.1-0.1,0.3,0.1
				c-0.3,0.8-0.3,0.9-0.3,1.8c-0.6,0-1.2,0-1.8,0S91.6,132.1,91.7,131.5L91.7,131.5z"/>
			<path class="st15" d="M95.4,138.2l-0.3-0.1c-0.7,0.7-1.7,1.4-2,2.5l-0.3-0.3c0,0-0.5-0.2-0.6-0.2c-0.4-2.5,3.2-2.4,3.5-2.2
				L95.4,138.2z"/>
			<path class="st15" d="M130,167.1c1-0.3,2.1-0.5,2.7-1.3c-0.2,0.9-0.8,2.2-1.3,2.6c-0.4,0.4-1.1,0.4-1.5-0.1
				C129.4,167.8,129.7,167.5,130,167.1L130,167.1z"/>
			<path class="st15" d="M103.9,131.1c-0.2-0.3-0.6-0.1-1,0c0.4-2,2.9-1.2,3.5-0.2c0.1,0.1,0.2,0.5,0.2,0.7c0.1,0.7-0.3,0.8-0.4,0.9
				C106.1,130.9,105.2,130.1,103.9,131.1L103.9,131.1z"/>
			<path class="st11" d="M135.4,170c-0.1,0.9-0.5,0.7-1.4,1.9c-0.5,0.7-0.7,1.3-1.2,2c-0.3-0.6,0.8-3.3,1.2-3.9H135.4L135.4,170z"/>
			<path class="st17" d="M97.1,131.3l-0.5-0.4l-0.4,0.3c0.2,0.5-0.1,0.3,0.6,0.4c-0.3,0.2-0.2,0.1-0.7,0.3c-0.3,0.1-0.3,0.1-0.7,0.2
				c0.2-0.4,0.1,0.5,0.1-0.4c0-0.2,0-0.4-0.1-0.6h-0.8l0.1,0.9c-0.5-0.4-0.3-0.8,0-1.3c0.6,0.2,1,0.3,1-0.6
				c-0.2-0.1-0.1-0.1-0.4-0.1C96.2,129.4,96.8,130.5,97.1,131.3L97.1,131.3z"/>
			<path class="st9" d="M96,122.6c-0.5,0.4-1.8,0.1-2.7,0.2l0.1-0.8C94.4,121.5,95.7,121.9,96,122.6L96,122.6z"/>
			<path class="st14" d="M95.1,123.1c-0.3,0.5-0.4,0.5-0.9,0.8c-0.5,0.3-0.7,0.5-1.2,0.7l0.2-1.4L95.1,123.1L95.1,123.1z"/>
			<path class="st17" d="M105.7,131.7c-0.5-0.1-0.2-0.1-0.5,0l0.1,0.9h-1.4l0.1-0.8c0.6,0.4,1.2,0.2,1.1-0.7l-0.5-0.2
				C105.2,130.5,105.5,131,105.7,131.7L105.7,131.7z"/>
			<path class="st18" d="M113.1,168.5c0.4-0.2,0.3-0.2,0.2-0.8c0.9,0.3,1.4,0.3,1.3,1.3L113.1,168.5z"/>
			<path class="st9" d="M91,123.3c0.6-0.5,1.2-1.1,2.1-1.3c-0.1,0.9,0.1,0.7-0.8,0.9C91.8,123,91.5,123.2,91,123.3z"/>
			<path class="st16" d="M102.9,131c0.4-0.1,0.8-0.2,1,0l-0.5,1.4L102.9,131L102.9,131z"/>
			<path class="st16" d="M103.9,131.9c0.2-0.6,0.2-0.6,0.6-0.9l0.5,0.2C105.1,132.2,104.5,132.3,103.9,131.9z"/>
			<path class="st19" d="M95.4,132.1l-0.6-0.1l-0.1-0.9h0.8c0,0.2,0.1,0.4,0.1,0.6C95.6,132.5,95.7,131.7,95.4,132.1L95.4,132.1z"/>
			<path class="st16" d="M94.8,130.7l0.1-0.5l0.6-0.2c0.3,0.1,0.2,0,0.4,0.1C95.9,131,95.5,130.9,94.8,130.7L94.8,130.7z"/>
			<path class="st19" d="M105.2,132.7l-0.1-0.9c0.3-0.1,0-0.1,0.5,0l0.2,0.9H105.2z"/>
			<path class="st19" d="M97.1,131.3v0.4h-0.3c-0.7-0.1-0.4,0.1-0.6-0.4l0.4-0.3L97.1,131.3L97.1,131.3z"/>
			<path class="st20" d="M105.6,173.4l1.9,26.5c0,0,5.9,1.3,8.5-1.3c2.7-2.7-4.2-29.5-4.9-28.9L105.6,173.4z"/>
			<path class="st14" d="M92.7,170.2c0,0,3.8,22,3.8,28c0.2,0.1,0.3-0.2,0.5,0c0.1,0.1,0.2,0,0.2,0.1c0.3,0,0.5,0.1,0.8,0.1V198
				c-0.3-7-3.8-26.3-3.8-26.3s6.6,2.8,11.7,4.6l-0.1-1C100.6,173.6,92.7,170.3,92.7,170.2L92.7,170.2z M95.9,200.9
				c-1.5,1.2-6.5,1.2-10.2,1c0.1,0.5-0.1,1.3,0,1.8c3.5,1.6,10.8,1.2,12.1-1.6c1.3-2.8,0.1-0.6,0.2-1c0-0.3,0-2.3,0-2.7
				c-0.5,0-1-0.1-1.5-0.2c0,0.3-0.1,2.2-0.1,2.3c-0.1,0.1-0.2,0.3-0.3,0.4H95.9z"/>
			<path class="st14" d="M104.9,175.9l1.6,22.3c0.3,0,0.6,0,0.9-0.1l-1.5-21.9C105.6,176.1,105.3,176,104.9,175.9L104.9,175.9z
				 M106.5,198.4c0.3,0,0.6,0,0.9-0.1L106.5,198.4z M107.5,199.9l-0.1-1.5v-0.3c-0.3,0-0.6,0-0.9,0.1v0.3l0.1,1.4H107.5z"/>
			<path class="st14" d="M107.4,198.4c-0.3,0-0.6,0-0.9,0.1l0.1,1.4c0.3,0,0.6,0,0.9,0L107.4,198.4z"/>
			<path class="st14" d="M114.1,199.7c-2.9,1-6.6,0.2-6.6,0.2c-0.3,0-0.6,0-0.9,0l0.1,1.1c0,0,4.8,1.1,7.7-0.7
				C114.3,200.1,114.3,200,114.1,199.7C114.2,199.8,114.2,199.8,114.1,199.7L114.1,199.7z"/>
			<path class="st20" d="M77.8,164.3c0,0,2.5,37.4,4.1,37.9c1.6,0.5,13.3,1.4,14.3-1c1.1-2.3-3.7-31.2-3.7-31.2s17.5,7.9,17.2,6.1
				c-0.3-1.7,2.1-5.1,4.7-7.6c0.1-0.1,0.2-0.2,0.3-0.3c0.7-0.6-20-7.6-33.5-13.5C75.7,152.3,73.5,159.3,77.8,164.3L77.8,164.3z"/>
			<path class="st21" d="M118.2,170l-3.9-1.1c0,0-5,4.9-4.5,7.1l4.5,1.1C114.4,177.1,115.6,173.7,118.2,170z"/>
			<polygon class="st22" points="102.5,196.7 104.8,191.9 101.2,174.5 98,173.2 98.9,191.8 			"/>
		</g>
		<path class="st3" d="M219.2,209.6c1.7-4.8,2.8-7.6,5-11.5c-1.8,1.8-7.4,8.7-7.3,11.4L219.2,209.6z"/>
		<path class="st23" d="M214.3,221.9c2.5,0,5.9-1,7.1-3c3.7-4.9-5.3-10.3-12.4-6.4C203.7,215.4,206.5,221.9,214.3,221.9z"/>
		<path class="st3" d="M479.5,226c-0.2-2.7-2.8-4.2-2.8-4.2h-16.2c-2.3,0.9-3.2,1.9-3.7,5.1c-0.5,3.2,2.8,4.6,3,4.8
			c0.2,0.1,13.5,1.1,16.4,0.4C479.2,231.5,479.7,228.8,479.5,226L479.5,226z"/>
	</g>
</g>
</svg>
