<?xml version="1.0" encoding="UTF-8"?>
<!DOCTYPE svg PUBLIC "-//W3C//DTD SVG 1.1//EN" "http://www.w3.org/Graphics/SVG/1.1/DTD/svg11.dtd">
<!-- Creator: CorelDRAW X8 -->
<svg xmlns="http://www.w3.org/2000/svg" xml:space="preserve" width="1.60427in" height="0.916732in" version="1.1" style="shape-rendering:geometricPrecision; text-rendering:geometricPrecision; image-rendering:optimizeQuality; fill-rule:evenodd; clip-rule:evenodd"
viewBox="0 0 2482 1418"
 xmlns:xlink="http://www.w3.org/1999/xlink">
 <defs>
  <style type="text/css">
   <![CDATA[
    .fil0 {fill:none}
    .fil1 {fill:#1B62B6}
    .fil4 {fill:#4C494A}
    .fil2 {fill:#4D4A4B}
    .fil3 {fill:#4E4B4C}
   ]]>
  </style>
 </defs>
 <g id="Layer_x0020_1">
  <metadata id="CorelCorpID_0Corel-Layer"/>
  <rect class="fil0" width="2482" height="1418"/>
  <g id="_1675696990976">
   <path class="fil1" d="M437 484l-250 32c1,5 23,28 28,35l49 57c6,8 12,15 19,23l48 58c4,5 19,18 18,25l-28 204c-4,24 -9,51 -11,75 6,-2 201,-107 227,-120 5,-3 8,1 13,5l141 97c30,21 25,22 40,15 5,-2 10,-4 15,-7l-154 -129c-9,-7 -17,-14 -26,-22 -4,-3 -8,-7 -12,-10 -5,-4 -9,-8 -14,-11 -5,1 -120,64 -131,69l-44 24 41 -188c6,-24 9,-14 -15,-42l-45 -53c-16,-20 -45,-52 -60,-71 4,-3 158,-23 171,-25 7,-1 10,0 13,-3 1,-2 8,-17 10,-21 13,-27 27,-53 40,-80l41 -81c7,9 86,156 100,179 3,6 10,21 14,25l14 -13 -126 -301c-4,5 -13,23 -16,30 -5,11 -10,21 -16,32 -10,22 -21,43 -31,64l-47 96c-5,10 -10,23 -16,32z"/>
   <polygon class="fil1" points="857,646 1100,646 1100,620 857,620 "/>
   <polygon class="fil1" points="1111,769 1338,770 1329,744 1120,744 "/>
   <path class="fil1" d="M1095 811l78 0c3,-2 3,-8 5,-12l90 0 4 12 82 0c-1,-4 -8,-26 -12,-26l-235 0c-4,0 -11,22 -12,26z"/>
   <path class="fil1" d="M1389 646l81 0 0 -11c13,0 26,0 39,0 14,1 23,3 29,11l84 0c0,-9 -2,-20 -7,-26l-225 0 -1 26z"/>
   <polygon class="fil1" points="857,605 1100,605 1100,583 857,583 "/>
   <path class="fil2" d="M1717 976l12 1c1,-12 0,-327 0,-365 0,-11 2,-44 0,-52l-12 0 0 416z"/>
   <path class="fil1" d="M1389 729l151 0c17,0 14,1 27,-3 13,-5 32,-12 38,-24l-215 0 -1 27z"/>
   <path class="fil1" d="M620 811l194 0c5,-2 15,-19 16,-26l-75 0c-10,0 -11,11 -36,10 -10,-1 -17,-3 -23,-7 -7,-5 -15,-3 -28,-3 -20,0 -41,0 -61,0 2,10 9,18 13,26z"/>
   <path class="fil1" d="M829 729c-2,-7 -6,-14 -10,-18 -7,-8 -6,-9 -20,-9 -30,1 -148,-1 -167,1 2,2 3,3 6,6 3,2 6,3 9,5 7,3 12,6 19,9 19,8 27,6 51,6 37,0 75,0 112,0z"/>
   <path class="fil1" d="M611 646l73 0c3,-24 37,-22 50,-14 8,4 11,12 14,14l77 0c-1,-9 -6,-19 -9,-26l-195 0c-5,0 -10,19 -10,26z"/>
   <path class="fil1" d="M1389 605l215 0c-11,-11 -20,-16 -40,-19 -27,-5 -142,-3 -174,-3l-1 22z"/>
   <path class="fil1" d="M618 687l166 0c-15,-9 -58,-16 -78,-22 -20,-6 -21,-4 -45,-4 -17,0 -34,0 -50,0 -1,11 4,19 7,26z"/>
   <path class="fil1" d="M632 605l172 0c-12,-11 -16,-15 -35,-21 -28,-8 -73,-8 -100,0 -13,4 -32,13 -37,21z"/>
   <path class="fil1" d="M1157 646l135 0c-2,-5 -4,-9 -5,-14 -4,-9 -3,-12 -8,-12l-110 0c-4,0 -11,22 -12,26z"/>
   <path class="fil1" d="M1793 821c3,3 11,3 14,0 3,-4 1,-26 1,-33l30 0c1,25 -4,35 8,35 10,0 9,-2 9,-10 0,-11 1,-68 -1,-70 -2,-1 -4,-2 -8,-2 -14,0 -5,9 -8,33l-30 0c0,-6 2,-29 -1,-31 -2,-2 -11,-2 -13,-1 -4,2 -2,10 -2,15 0,8 -2,61 1,64z"/>
   <path class="fil1" d="M2076 741c0,16 -1,70 0,81 3,1 5,1 8,1 1,0 3,0 4,0 4,-1 1,0 3,-2 2,-3 0,-21 0,-27 0,-5 -1,-17 12,-19 19,-2 6,36 11,47 3,1 6,2 10,1 5,0 5,-1 5,-6 0,-19 3,-46 -10,-53 -11,-7 -20,0 -28,4l0 -31c-8,-2 -15,-3 -15,4z"/>
   <path class="fil1" d="M1539 811l89 0c-2,-6 -10,-20 -14,-26l-91 0c3,5 12,24 16,26z"/>
   <path class="fil1" d="M1515 770l92 0c-4,-8 -9,-15 -14,-20 -6,-9 -8,-6 -27,-6 -22,0 -45,0 -67,0 2,4 5,7 8,12 3,5 5,9 8,14z"/>
   <path class="fil1" d="M717 846c28,0 50,-2 74,-15 3,-1 5,-3 7,-5l-161 0c15,15 54,20 80,20z"/>
   <path class="fil1" d="M1512 687l102 0c4,0 3,1 6,-10 1,-5 3,-11 2,-16l-79 0c-4,22 -10,21 -31,26z"/>
   <path class="fil1" d="M1885 787c1,-20 23,-20 23,0l-23 0zm35 22c-10,-1 -34,15 -35,-12l37 0c14,-34 -41,-52 -52,-16 -7,24 4,48 37,43 10,-2 15,-3 13,-15z"/>
   <path class="fil1" d="M2256 918c-1,-19 24,-18 23,1l-23 -1zm35 23c-7,0 -36,13 -35,-12 8,0 31,1 37,-1 10,-39 -45,-49 -53,-13 -6,29 10,45 39,40 12,-2 13,-2 12,-14z"/>
   <path class="fil1" d="M757 770l77 0c1,-9 2,-18 0,-26l-96 0c10,6 19,10 19,26z"/>
   <path class="fil1" d="M1968 797c0,7 1,11 -4,14 -13,8 -21,-6 -12,-12 4,-2 11,-2 16,-2zm-32 -29c-2,18 6,8 16,6 13,-3 16,1 16,13 -16,0 -36,1 -35,21 1,18 23,20 36,10 0,0 4,9 13,5 4,-2 2,-44 1,-48 -5,-18 -33,-16 -47,-7z"/>
   <path class="fil1" d="M2134 903c-1,-3 2,-12 -13,-8 -2,5 -1,34 -1,44l1 14c0,1 14,7 15,-4l0 -23c0,-5 -1,-9 2,-12 1,-2 5,-6 8,-7 19,-4 9,34 12,44 1,6 12,5 14,3 3,-3 1,-42 0,-46 -5,-21 -27,-17 -38,-5z"/>
   <path class="fil1" d="M1945 900c0,22 -4,48 11,54 11,5 22,0 27,-7 2,3 0,0 1,3 1,1 0,1 1,2 2,5 13,6 13,-2l0 -50c0,-5 0,-5 -5,-6 -15,-1 -10,4 -11,35 0,13 -13,16 -19,11 -8,-10 3,-43 -6,-45 -1,-1 -7,-1 -8,-1 -4,1 -4,1 -4,6z"/>
   <path class="fil1" d="M2088 929c1,8 1,10 -4,14 -12,8 -21,-7 -11,-12 4,-3 10,-2 15,-2zm-30 -19c7,2 31,-18 31,9 -18,0 -38,1 -36,22 3,19 31,19 36,8l2 3c3,5 9,3 11,3 5,-3 2,-48 0,-51 -7,-17 -53,-14 -44,6z"/>
   <path class="fil1" d="M1839 903c0,-1 0,-3 -1,-4l0 -2c0,0 0,-1 0,-1 0,0 0,-1 -1,-1 -16,-5 -12,5 -12,29l1 29c2,3 13,2 14,1 2,-5 1,-32 1,-40 3,-2 6,-7 12,-7 15,0 8,28 10,47 18,3 15,1 15,-15 0,-18 5,-44 -18,-46 -10,-1 -17,6 -21,10z"/>
   <path class="fil1" d="M1173 604l103 1c-1,-4 -3,-8 -4,-12 -1,-3 -2,-10 -6,-10l-83 0c-4,0 -9,17 -10,21z"/>
   <polygon class="fil1" points="1389,687 1470,687 1470,661 1390,661 "/>
   <polygon class="fil1" points="1389,811 1470,811 1470,785 1390,785 "/>
   <polygon class="fil1" points="1389,770 1470,770 1470,744 1390,744 "/>
   <polygon class="fil1" points="939,729 1019,729 1019,703 939,702 "/>
   <polygon class="fil1" points="939,811 1019,811 1019,785 939,785 "/>
   <polygon class="fil1" points="939,687 1019,687 1019,662 939,661 "/>
   <polygon class="fil1" points="939,770 1019,770 1019,744 939,744 "/>
   <polygon class="fil1" points="1247,729 1323,729 1313,702 1240,702 "/>
   <path class="fil1" d="M855 1133l35 0c0,28 -4,41 10,35 1,-5 0,-50 0,-60 0,-12 3,-17 -6,-17 -4,0 -3,1 -4,4 -1,3 0,24 0,29l-35 0c0,-8 0,-16 0,-24 0,-5 1,-8 -4,-9 -6,-1 -7,1 -7,6l0 67c0,5 0,5 4,6 2,0 4,-1 7,-2l0 -35z"/>
   <path class="fil1" d="M1126 728l72 1c4,-2 4,-9 5,-13 2,-4 4,-10 4,-13l-71 -1 -10 26z"/>
   <polygon class="fil1" points="1235,687 1307,687 1298,661 1228,661 "/>
   <path class="fil1" d="M1142 687l70 0 8 -26 -68 0c-3,6 -9,20 -10,26z"/>
   <path class="fil1" d="M1883 1121c22,-9 13,40 -5,41 -23,1 -11,-34 5,-41zm-36 68l10 0 5 -25 3 2c4,3 6,4 12,4 16,1 25,-14 28,-30 6,-33 -18,-36 -35,-18l1 -10 -8 0 -16 77z"/>
   <path class="fil1" d="M2034 754l0 9 -9 0c-2,11 -1,13 8,13 3,12 -3,33 4,42 6,8 32,11 27,-7 -3,-4 -14,8 -14,-12l0 -23 13 -1c1,-3 2,-5 1,-8 -1,-6 -2,-4 -14,-4 0,-15 1,-15 -8,-15 -7,0 -8,0 -8,6z"/>
   <path class="fil1" d="M1891 940c-1,9 -1,12 6,14 6,2 12,3 18,2 11,-2 20,-10 18,-23 -3,-12 -14,-11 -24,-18 -5,-3 -5,-9 2,-10 11,-3 21,11 19,-4 -2,-15 -48,-9 -38,17 4,12 20,11 24,17 5,6 -2,10 -8,10 -8,-1 -11,-5 -17,-5z"/>
   <path class="fil1" d="M676 1086c-2,6 -1,81 0,82 1,2 6,2 8,1 2,-2 1,-26 1,-30 0,-10 -1,-10 6,-15 3,-3 9,-6 15,-3 10,6 4,41 6,46 1,3 5,4 7,2 2,-1 3,3 2,-9 0,-16 6,-55 -23,-48 -7,1 -12,7 -12,7 -1,0 -1,0 -1,0 0,-8 1,-25 -1,-32 -3,-2 -4,-1 -8,-1z"/>
   <path class="fil1" d="M1134 1086c-2,6 -1,81 0,82 1,2 6,2 8,1 2,-2 1,-26 1,-30 0,-10 -1,-10 6,-15 3,-3 9,-6 15,-3 8,5 6,25 6,36 0,5 -1,17 7,12 3,-1 2,2 3,-3 0,-1 0,-5 0,-6 -1,-15 2,-37 -7,-45 -13,-11 -26,2 -30,4 0,-8 1,-25 -1,-32 -3,-2 -4,-1 -8,-1z"/>
   <path class="fil1" d="M2230 937c-5,0 -17,12 -25,2 -5,-7 -5,-24 1,-30 12,-11 23,10 25,-2 2,-12 -13,-15 -24,-13 -10,2 -16,7 -19,16 -6,17 -4,47 25,46 5,0 10,-1 14,-3 5,-3 5,-9 3,-16z"/>
   <path class="fil3" d="M1264 945c-6,5 -17,8 -23,2 -6,-8 0,-17 6,-19 1,1 16,17 17,17zm-14 -27c-1,0 -1,0 -2,-1 -17,-21 22,-23 12,-7 -1,3 -7,7 -10,8zm-8 4c0,1 -21,15 -8,29 4,4 11,6 18,6 9,0 12,-3 18,-7 4,2 17,14 16,2 -2,-2 -7,-5 -10,-7 0,-3 2,-6 3,-9 2,-4 2,-9 2,-13l-7 0c-2,7 0,10 -5,17 -4,-5 -12,-10 -15,-17 19,-7 22,-27 4,-30 -8,-1 -17,1 -21,7 -5,9 2,17 5,22z"/>
   <path class="fil1" d="M2097 1121c5,-3 10,-1 14,2 9,8 -4,31 -12,36 -4,3 -9,4 -13,1 -3,-4 -3,-10 -2,-16 1,-9 4,-19 13,-23zm12 48c9,2 8,-5 12,-24 2,-10 5,-23 6,-33l-8 0 -2 7c-6,-7 -17,-12 -28,-4 -16,11 -23,46 -8,54 9,4 19,-1 25,-7l3 -2c0,1 -1,4 -1,5l1 4z"/>
   <path class="fil1" d="M1789 1156c-2,9 -1,10 8,13 24,7 47,-12 38,-31 -5,-12 -24,-14 -25,-25 0,-8 5,-12 12,-13 9,-2 14,4 18,4 2,-3 2,-4 2,-8 -29,-19 -57,15 -35,33 7,6 25,11 17,25 -9,16 -31,2 -35,2z"/>
   <path class="fil1" d="M932 1135c-2,-20 30,-23 28,0l-28 0zm0 8c33,0 44,5 37,-17 -2,-5 -4,-8 -8,-11 -13,-9 -40,-4 -40,26 0,13 4,22 12,26 8,4 23,4 32,0 5,-2 6,-10 -1,-8 -6,2 -9,3 -16,3 -11,0 -18,-8 -16,-19z"/>
   <path class="fil1" d="M1704 1135c1,-22 31,-22 29,0l-29 0zm0 8c22,-2 38,4 39,-5 3,-21 -22,-36 -40,-21 -13,11 -17,51 14,53 9,1 18,-1 24,-4l-1 -7c-8,0 -13,6 -25,2 -8,-2 -11,-8 -11,-18z"/>
   <path class="fil1" d="M751 1135c0,-22 32,-21 29,0l-29 0zm0 8c8,-1 20,0 28,0 6,0 11,1 11,-5 3,-21 -22,-36 -40,-21 -9,8 -13,30 -5,43 9,12 29,13 43,6l-1 -7c-3,0 -38,14 -36,-16z"/>
   <path class="fil1" d="M1539 1143c0,11 1,12 -6,17 -5,3 -12,4 -16,0 -5,-5 -3,-12 2,-15 5,-2 14,-2 20,-2zm-32 -19c9,1 31,-18 32,12 -17,0 -36,1 -35,20 2,17 26,19 34,7 1,0 1,1 1,1l2 5c8,1 8,0 7,-8 0,-28 7,-53 -24,-50 -10,1 -18,4 -17,13z"/>
   <path class="fil1" d="M1021 1143c0,11 2,12 -5,17 -15,10 -26,-9 -14,-15 5,-2 14,-2 19,-2zm-31 -19c8,1 31,-18 31,12 -15,1 -36,0 -34,20 1,18 29,17 34,7l3 6c8,1 7,0 7,-8 0,-29 6,-52 -24,-50 -5,1 -9,2 -12,3 -5,3 -6,4 -5,10z"/>
   <path class="fil1" d="M2000 741c0,17 -1,68 0,81 3,1 4,1 7,1 4,0 6,0 8,-2 2,-2 1,-67 1,-79 -1,-6 -2,-6 -8,-6 -6,-1 -8,0 -8,5z"/>
   <path class="fil1" d="M1554 842l90 0c-1,-5 -6,-13 -8,-16l-90 0c1,6 6,11 8,16z"/>
   <path class="fil1" d="M1572 1113c-2,14 0,33 -1,48 0,6 -1,8 5,9 8,0 5,-8 5,-30 0,-11 1,-12 7,-17 6,-4 14,-4 17,1 6,9 0,34 3,45 5,2 9,2 10,-3 1,-7 0,-38 -2,-42 -5,-18 -27,-14 -36,-4l0 -8 -8 1z"/>
   <path class="fil1" d="M1933 1136c2,-13 16,-21 27,-14 3,15 -14,14 -27,14zm-1 7c16,0 41,-1 39,-20 -3,-17 -29,-13 -39,-4 -11,11 -25,54 13,51 14,-1 16,-3 17,-11 -8,1 -15,6 -25,3 -6,-2 -8,-12 -5,-19z"/>
   <path class="fil1" d="M1393 1113c-1,10 -1,41 3,48 3,6 9,10 18,9 9,-1 11,-6 17,-9 0,2 -2,11 6,9 4,-2 1,0 2,-3 1,-2 1,-52 0,-55l-9 1c-1,9 0,22 0,31 0,9 0,7 -5,12 -2,2 -4,5 -9,6 -20,2 -11,-35 -13,-49 -2,-1 -2,-1 -5,-1 -3,0 -2,0 -5,1z"/>
   <path class="fil1" d="M1792 874l0 80c13,2 16,2 16,-5l0 -69c0,-5 1,-6 -5,-7 -2,0 -10,1 -11,1z"/>
   <path class="fil1" d="M1281 1169c1,-5 0,-24 0,-30 0,-6 0,-9 3,-12 2,-2 5,-6 9,-7 21,-6 14,30 15,43 0,6 -1,5 2,6 2,1 5,1 7,0 2,-2 1,-9 1,-14 0,-9 0,-21 -1,-29 -2,-8 -7,-14 -15,-15 -12,-1 -16,6 -22,9l0 -8 -8 1c-1,3 -1,52 0,56 3,1 6,1 9,0z"/>
   <polygon class="fil1" points="1281,842 1365,842 1360,826 1278,826 "/>
   <path class="fil2" d="M1618 954c4,-1 14,-1 17,1 6,4 1,10 -3,12 -11,3 -25,-1 -14,-13zm3 -36c12,-6 17,12 8,16 -12,6 -18,-11 -8,-16zm-9 34c-4,3 -9,8 -5,16 5,7 29,8 36,-1 4,-5 3,-13 -2,-16 -5,-4 -12,-3 -19,-4 -4,0 -7,0 -7,-4 -1,-5 2,-3 6,-3 15,4 25,-8 18,-22l6 -1 1 -4c-1,0 -29,-7 -36,6 -4,8 2,14 1,17 -2,5 -8,7 1,16z"/>
   <path class="fil1" d="M2028 903c-1,-5 1,-7 -3,-8 -3,-2 -8,-1 -10,1 -2,2 -2,56 0,58 3,1 10,2 13,0l2 -3c2,-12 -6,-31 6,-41 4,-3 7,-1 11,-1l1 -1c3,0 2,-11 1,-14 -15,-3 -14,2 -21,9z"/>
   <path class="fil1" d="M626 1100c0,11 -2,64 1,69l8 0c3,-5 1,-58 1,-69l24 0c1,-10 -1,-8 -11,-8 -6,0 -12,0 -18,0 -28,0 -30,-3 -28,8l23 0z"/>
   <polygon class="fil1" points="1084,841 1165,842 1169,826 1090,826 "/>
   <polygon class="fil1" points="1389,842 1469,842 1470,827 1390,826 "/>
   <polygon class="fil1" points="939,842 1019,842 1019,827 939,826 "/>
   <polygon class="fil1" points="602,770 681,770 678,756 600,756 "/>
   <path class="fil1" d="M1364 1150c2,22 -25,8 -27,8 -5,13 16,14 25,11 10,-3 17,-14 10,-24 -6,-8 -21,-8 -24,-15 -3,-6 2,-11 8,-11 5,0 12,4 14,3 0,0 2,-1 1,-5 -1,-8 -28,-9 -32,5 -6,18 12,19 25,28z"/>
   <path class="fil1" d="M2203 1166c8,4 18,7 28,2 7,-4 16,-14 9,-24 -4,-8 -19,-8 -19,-17 1,-14 22,-5 24,-5l2 -6c-19,-16 -51,10 -29,25 4,2 9,4 11,6 5,5 2,11 -1,13 -16,10 -26,-14 -25,6z"/>
   <path class="fil1" d="M1081 1120l8 0c0,28 -5,50 16,50 9,0 11,-2 10,-10 -6,1 -6,2 -12,1 -5,-5 -5,-31 -3,-41l15 0 0 -8 -15 0c-2,-7 2,-15 -6,-15 -7,0 -5,8 -5,15l-9 1 1 7z"/>
   <path class="fil1" d="M1678 1156c-4,-2 -9,9 -21,5 -7,-3 -10,-11 -10,-20 0,-36 30,-16 32,-15 1,-8 -2,-11 -8,-13 -17,-6 -34,3 -34,29 1,42 49,30 41,14z"/>
   <path class="fil1" d="M2282 1098l-8 0c-2,3 -3,9 -4,14 -8,1 -10,-2 -10,8l8 0c1,8 -5,25 -6,34 -2,16 10,19 23,14l1 -8c-5,1 -7,2 -12,1 -4,-7 2,-31 5,-40 10,-2 17,3 16,-9l-14 0 1 -14z"/>
   <path class="fil1" d="M2022 1156c-6,1 -15,10 -24,4 -9,-6 -3,-39 14,-40 12,-2 19,14 18,-4 -24,-13 -42,2 -46,26 -2,14 0,25 13,28 11,2 25,-1 25,-14z"/>
   <path class="fil3" d="M772 903c11,-2 21,0 21,12 -1,10 -10,13 -21,11l0 -23zm-8 -1l0 54 8 0 0 -23c16,-1 27,-1 29,-16 3,-21 -15,-22 -30,-22 -7,0 -7,1 -7,7z"/>
   <path class="fil2" d="M1385 945c-6,1 -13,9 -25,3 -6,-4 -10,-12 -10,-22 0,-10 4,-18 10,-22 11,-7 18,2 25,3 1,-8 -2,-10 -9,-11 -39,-10 -44,49 -19,59 9,4 33,2 28,-10z"/>
   <path class="fil3" d="M993 918c20,-6 22,28 8,32 -21,6 -24,-27 -8,-32zm-1 -7c-13,3 -18,13 -16,28 1,13 11,21 26,18 24,-6 22,-52 -10,-46z"/>
   <path class="fil2" d="M829 930c1,-8 4,-13 11,-13 9,0 11,5 12,13l-23 0zm28 18c-8,1 -27,11 -28,-12 8,0 15,0 23,0 6,0 11,-1 6,-14 -5,-13 -22,-15 -31,-6 -7,7 -9,26 -1,35 6,7 17,7 27,5 5,-2 5,-3 4,-8z"/>
   <path class="fil2" d="M1415 949c-4,-12 6,-15 17,-13 0,7 1,10 -4,13 -5,3 -10,2 -13,0zm-7 -28c6,0 26,-14 24,9 -12,1 -28,0 -26,16 0,7 5,10 11,11 9,1 11,-3 16,-5 1,6 0,5 6,4 3,-5 2,-36 -2,-40 -3,-5 -10,-6 -17,-5 -6,1 -13,3 -12,10z"/>
   <path class="fil2" d="M1110 948c-1,-12 8,-14 19,-12 0,7 0,11 -5,13 -6,4 -9,2 -14,-1zm-6 -27c7,0 26,-14 25,9 -13,2 -29,0 -27,16 1,6 5,10 12,11 9,1 10,-3 16,-5 0,6 -1,5 6,4 2,-5 1,-36 -2,-40 -6,-8 -31,-8 -30,5z"/>
   <path class="fil1" d="M2149 1169c3,-14 6,-28 9,-42 1,-9 7,-32 7,-41l-9 0c-3,8 -7,36 -9,46 -7,35 -12,39 2,37z"/>
   <path class="fil1" d="M1055 1087c-2,6 -1,52 -1,66 0,13 -2,17 5,17 6,-1 5,-2 5,-8 0,-15 1,-70 -1,-76l-8 1z"/>
   <path class="fil4" d="M1555 918l-1 -6c-9,-1 -6,-2 -6,19 0,6 -2,20 0,25l7 0c4,-10 -7,-35 10,-38 18,-3 8,27 12,38l6 0c2,-5 1,-33 -1,-38 -5,-10 -20,-9 -27,0z"/>
   <path class="fil2" d="M1050 918l-2 -6 -6 0c-1,7 -2,40 1,44l6 0c1,-16 -4,-36 11,-38 17,-3 7,29 11,38l6 0c2,-5 1,-33 -1,-38 -6,-11 -21,-9 -26,0z"/>
   <path class="fil1" d="M1237 1169c12,2 10,0 10,-11 0,-10 1,-63 -1,-65 -1,-2 -7,-2 -9,0 -1,2 0,72 0,76z"/>
   <path class="fil1" d="M1472 1120l-1 -7c-4,-1 -4,-2 -8,0l0 50c0,7 3,8 9,6 4,-14 -6,-35 7,-46 7,-5 11,0 14,-2 6,-13 -10,-11 -16,-6l-5 5z"/>
   <path class="fil2" d="M925 947c0,7 0,8 6,9 19,5 29,-10 22,-19 -5,-6 -18,-7 -19,-12 -4,-13 18,-5 18,-5 1,-7 0,-7 -6,-9 -18,-3 -26,13 -16,21 5,5 18,5 17,13 -1,4 -5,6 -9,6 -6,0 -8,-3 -13,-4z"/>
   <path class="fil1" d="M2040 1169c11,2 9,-2 13,-24 2,-9 6,-24 6,-32 -10,-2 -9,-1 -11,8 -1,7 -9,41 -9,46l1 2z"/>
   <path class="fil1" d="M2193 1113c-4,-2 -5,-1 -9,0 -2,8 -4,18 -6,28 -1,6 -6,22 -4,28l8 0 11 -56z"/>
   <path class="fil2" d="M1163 896l0 56 1 4 7 0 0 -4 0 -56 0 -5c-6,0 -8,-1 -8,5z"/>
   <path class="fil3" d="M892 918c-2,-3 -1,-3 -2,-6l-6 0c-1,6 -1,40 1,44l6 0c1,-17 -3,-27 6,-36 4,-3 6,-1 11,-1l0 -6c-7,-5 -12,0 -16,5z"/>
   <path class="fil4" d="M1474 918l0 -6 -7 0 0 44c4,1 3,1 7,0 3,-8 -5,-37 12,-38l5 0 0 -5c-8,-6 -14,1 -17,5z"/>
   <polygon class="fil3" points="1513,956 1521,956 1521,912 1513,912 "/>
   <path class="fil1" d="M2053 1100c3,3 5,1 10,0 1,-4 4,-10 -4,-10 -6,0 -8,5 -6,10z"/>
   <path class="fil1" d="M2186 1100c5,2 5,2 10,1 2,-4 3,-5 1,-10 -8,-3 -13,1 -11,9z"/>
   <path class="fil4" d="M1521 903c2,-17 -14,-7 -8,-1 2,2 6,1 8,1z"/>
  </g>
 </g>
</svg>
