<?xml version="1.0" encoding="utf-8"?>
<!-- Generator: Adobe Illustrator 21.0.0, SVG Export Plug-In . SVG Version: 6.00 Build 0)  -->
<svg version="1.1" id="Layer_1" xmlns="http://www.w3.org/2000/svg" xmlns:xlink="http://www.w3.org/1999/xlink" x="0px" y="0px"
	 viewBox="0 0 158.5 90.6" style="enable-background:new 0 0 158.5 90.6;" xml:space="preserve">
<style type="text/css">
	.st0{fill:none;}
	.st1{fill:#390250;}
</style>
<g id="Layer_x0020_1">
	<rect y="0" class="st0" width="158.5" height="90.6"/>
</g>
<g>
	<path class="st1" d="M81.6,3.7c0.2,0,0.5,0.1,0.7,0.1c3.9,0.2,7.7,1,11.4,2.3c1.8,0.6,3.6,1.4,5.3,2.3c2.8,1.4,5.3,3.1,7.7,5
		c2.4,2,4.6,4.2,6.5,6.6c2.5,3.1,4.5,6.6,6,10.3c1.4,3.4,2.3,6.9,2.8,10.5c0.4,2.9,0.5,5.8,0.2,8.7c-0.3,4-1.1,7.8-2.5,11.5
		c-1.7,4.5-4.1,8.7-7.2,12.4c-2.1,2.5-4.4,4.7-7,6.7c-3.1,2.4-6.5,4.3-10.1,5.7c-2.3,0.9-4.7,1.6-7.2,2.1c-3.1,0.6-6.2,0.9-9.4,0.8
		c-4.1-0.1-8.1-0.8-12.1-2c-3.5-1.1-6.7-2.6-9.8-4.6c-2.2-1.4-4.3-3-6.2-4.8c-4.3-4-7.7-8.7-10-14c-1.7-3.8-2.8-7.8-3.3-11.9
		c-0.6-5.3-0.3-10.5,1-15.6c0.7-2.8,1.7-5.6,3-8.2c2-4,4.5-7.6,7.5-10.8c3.3-3.5,7.1-6.3,11.3-8.5c3.5-1.8,7.1-3.1,11-3.9
		c2-0.4,4-0.7,6-0.8c0.2,0,0.4-0.1,0.5-0.1C79.1,3.7,80.4,3.7,81.6,3.7z M80,5.6c-22.3-0.1-40.6,17.8-40.9,40
		c-0.4,22.7,17.7,41.1,40,41.4c22.7,0.4,40.9-17.7,41.4-39.8C120.9,24.3,102.6,5.8,80,5.6z"/>
	<path class="st1" d="M80.1,85.5c-4.6,0-8.6-0.6-12.5-1.9c-2.6-0.8-5-2-7.4-3.3c-3.2-1.8-6-4.1-8.6-6.7c-3.5-3.6-6.3-7.8-8.2-12.4
		c-1.2-2.8-2-5.8-2.5-8.8c-0.4-2.5-0.5-4.9-0.4-7.4c0.1-3.6,0.7-7.2,1.9-10.6c0.5-1.5,1.1-3,1.7-4.4c1.2-2.7,2.8-5.2,4.6-7.5
		c2.4-3.1,5.2-5.7,8.3-8c2.2-1.6,4.6-2.9,7-4c2.5-1.1,5.1-1.9,7.7-2.4c3.5-0.7,7-0.9,10.5-0.7c2.9,0.2,5.8,0.7,8.6,1.6
		c1.9,0.6,3.7,1.3,5.4,2.1c2,0.9,3.9,2,5.7,3.3c3.2,2.2,6,4.9,8.4,7.9c3.2,4.1,5.5,8.6,6.9,13.6c1.2,4,1.6,8.2,1.4,12.3
		c-0.1,3.3-0.7,6.5-1.6,9.6c-0.9,2.8-2,5.6-3.5,8.1c-1.6,2.8-3.6,5.5-5.9,7.8c-1.8,1.9-3.9,3.6-6.1,5.1c-4.4,3-9.1,5-14.3,6.1
		C84.9,85.2,82.3,85.5,80.1,85.5z M41.8,46.3C41.9,68.3,60.2,85,81.3,84.2c20.8-0.8,37.8-18.7,36.2-40.6
		C116.2,23.9,99.4,7.7,78.3,8.5C57.4,9.2,41.8,26.5,41.8,46.3z"/>
	<path class="st1" d="M79.9,16.5c16.6,0.1,29.8,13.8,29.7,29.9c-0.1,16.7-13.9,29.9-30.1,29.7C63,76,49.4,62.3,49.9,45.4
		C50.4,29.3,63.8,16.4,79.9,16.5z M51.2,46.3C51.1,61.9,64,75.2,80.3,74.9c15.4-0.3,28-12.8,28-28.6c0-15.9-13-28.7-28.9-28.5
		C63.8,17.9,51.1,30.7,51.2,46.3z"/>
	<path class="st1" d="M71.4,80.8c0.4-0.4,0.4-1,0.5-1.5c0.1-0.5,0.3-1,0.4-1.6c0.9,0.2,1.8,0.3,2.6,0.5c0.6,0.1,0.9,0.7,0.5,1.5
		c-0.1,0.2-0.2,0.3-0.3,0.5c0.4,0.5,0,1.2,0.3,1.9c0.4-1.2,0.8-2.4,1.2-3.7c0.3,0,0.7,0.1,1.1,0.1c0.1,1.3,0.3,2.6,0.4,4
		c-0.3,0-0.6,0-0.9-0.1c0-0.2-0.1-0.5-0.1-0.8c-0.2,0-0.3-0.1-0.5-0.1c-0.1,0.3-0.2,0.5-0.3,0.8c-0.7-0.2-1.4,0-2-0.3
		c0-0.5,0-1,0-1.4c0,0-0.1-0.1-0.3-0.1c-0.1,0.5-0.2,1-0.3,1.5c-0.3,0-0.6-0.1-0.9-0.2c0.2-1.3,0.4-2.5,0.5-3.7c0,0-0.1,0-0.1,0
		c-0.2,0.7-0.4,1.5-0.5,2.2c0,0.1,0,0.2-0.1,0.2c-0.1,0.4-0.2,0.9-0.8,1c-0.6,0.1-1.1-0.1-1.5-0.5c-0.1-0.2-0.2-0.5-0.1-0.7
		c0.2-1,0.4-1.9,0.7-3c0.3,0.1,0.6,0.1,0.9,0.2c-0.2,0.9-0.4,1.8-0.6,2.7c0,0.2,0,0.4,0,0.5C71.2,80.8,71.3,80.8,71.4,80.8z
		 M74,79.7c0.3,0.1,0.4,0.1,0.5-0.2c0.1-0.3,0.1-0.6-0.3-0.7C74.1,79.1,74.1,79.4,74,79.7z M76.6,80.8c0.5-0.2,0.5-0.2,0.3-1.2
		C76.8,80.1,76.7,80.4,76.6,80.8z"/>
	<path class="st1" d="M111.8,54.7c-0.1,0.4-0.2,0.8-0.3,1.2c0.2,0.1,0.3,0.1,0.5,0.2c0.1-0.4,0.3-0.7,0.4-1c0.3,0.1,0.5,0.1,0.8,0.2
		c-0.1,0.4-0.2,0.7-0.3,1.1c0.2,0.1,0.4,0.1,0.7,0.2c0.1-0.4,0.3-0.8,0.4-1.2c0.2,0.1,0.4,0.2,0.7,0.3c-0.2,0.7-0.4,1.4-0.7,2.1
		c-1.2-0.4-2.4-0.8-3.5-1.2c0.3-1.3,0.6-2.5,0.9-3.7c0.2-0.7,0.4-0.9,1.2-0.7c0.5,0.1,1.1,0.2,1.6,0.4c0.7,0.2,0.9,0.5,0.8,1.2
		c-0.1,0.5-0.2,1-0.3,1.5c-0.8-0.2-1.6-0.4-2.4-0.5C112.2,54.7,112,54.7,111.8,54.7c-0.1,0-0.1,0-0.2-0.1c0,0,0,0,0,0
		C111.7,54.7,111.8,54.7,111.8,54.7z M112.1,53.7c0.8,0.2,1.5,0.4,2.3,0.4c-0.1-0.2-0.2-0.4-0.3-0.4c-0.5-0.2-1-0.3-1.5-0.4
		C112.3,53.2,112.1,53.3,112.1,53.7z"/>
	<path class="st1" d="M84.8,80.6c0,0.3,0.1,0.5,0.1,0.7c0.4,0,0.7-0.1,1.1-0.1c0.1,0.3,0.1,0.5,0.2,0.8c-0.7,0.1-1.4,0.2-2.1,0.4
		c-0.1-0.9-0.3-1.8-0.4-2.7c-0.3,0.3-0.7,0.1-1.1,0.2c-0.1-0.2-0.1-0.5-0.2-0.7c-0.3-0.1-0.4,0.1-0.4,0.3c0,0.7,0,1.3,0.1,2
		c0,0.1,0.2,0.2,0.5,0.4c0-0.4,0.1-0.7,0.1-1c0.3,0,0.6-0.1,0.9-0.1c0.1,0.5,0.2,1-0.2,1.4c-0.4,0.4-0.9,0.5-1.4,0.3
		c-0.4-0.1-0.7-0.3-0.7-0.7c-0.1-0.8-0.1-1.7-0.1-2.5c0-0.4,0.3-0.7,0.7-0.8c0.5-0.1,1-0.2,1.4,0.3c0.1,0.2,0.2,0.3,0.4,0.6
		c0-0.3-0.1-0.5-0.1-0.8c0.7-0.1,1.3-0.2,2-0.4c0.1,0.3,0.1,0.5,0.2,0.8C85.3,78.9,85,79,84.6,79c0,0.2,0,0.4,0.1,0.6
		c0.4,0,0.7-0.1,1.1-0.1c0,0.3,0.1,0.5,0.1,0.8C85.5,80.4,85.2,80.5,84.8,80.6z"/>
	<path class="st1" d="M102.3,72.7c0.1,0.2,0.2,0.4,0.3,0.5c0.2,0.2,0.3,0.4,0.5,0.6c-0.2,0.2-0.5,0.4-0.7,0.6c-0.8-1-1.5-2-2.3-3
		c0.2-0.2,0.5-0.4,0.7-0.6c0.5,0.3,0.9,0.5,1.3,0.8c0,0,0.1,0.1,0.1,0.1c0,0,0,0,0,0c0,0,0,0,0,0c0,0-0.1-0.1-0.1-0.1
		c-0.3-0.4-0.5-0.8-0.8-1.2c0.4-0.4,0.8-0.8,1.3-1.2c0.3,0.1,0.6,0.2,1,0.4c-0.1-0.4-0.2-0.7-0.4-1.1c0.2-0.1,0.4-0.3,0.7-0.5
		c0.4,1.2,0.7,2.5,1.9,3.3c-0.3,0.3-0.5,0.5-0.7,0.7c-0.4-0.4-0.8-0.9-1.3-1.2c-0.5-0.3-1-0.5-1.6-0.7c0,0-0.1,0.1-0.1,0.1
		c0.7,0.9,1.3,1.8,2.1,2.7c-0.2,0.2-0.5,0.4-0.7,0.6C103.1,73.3,102.7,73,102.3,72.7c-0.1,0-0.1-0.1-0.1-0.1c0,0,0,0,0,0
		c0,0,0,0,0,0C102.2,72.7,102.2,72.7,102.3,72.7z"/>
	<path class="st1" d="M106.4,24.3c0.2-0.1,0.3-0.2,0.5-0.3c0.2,0.3,0.4,0.5,0.7,0.9c0.1-1-0.1-1.7-0.7-2.3c-0.4-0.3-0.6-0.3-0.9,0.3
		c0.1,0.1,0.1,0.2,0.2,0.3c0.1,0.1,0.1,0.2,0.3,0.3c-0.1,0.1-0.2,0.2-0.3,0.4c-0.1-0.1-0.3-0.1-0.4-0.2c-0.8,0.7-1.6,1.3-2.4,2
		c0-0.3-0.1-0.6-0.1-0.9c0.7-0.6,1.3-1.1,2-1.7c-0.1-0.6,0-0.7,0.5-0.6c0.1-0.1,0.1-0.2,0.2-0.3c0.4-0.5,1-0.5,1.4-0.1
		c0.5,0.5,0.9,2.3,0.5,3c0.4,0.6,0.8,1.2,1.3,1.7c0,0,0,0.1,0,0.1c-0.1,0.1-0.2,0.3-0.3,0.4c-0.2-0.2-0.3-0.2-0.4-0.3
		c-0.8,0.6-1.6,1.2-2.4,1.7c0,0,0,0-0.1,0c0-0.3,0-0.5,0-0.8c0.5-0.3,0.9-0.7,1.4-1c-0.5-0.6-0.7,0.2-1.1,0.1
		c-0.2-0.5,0.1-0.7,0.5-0.9c-0.1-0.1-0.2-0.3-0.3-0.3c-0.1,0-0.3,0-0.4,0.1c-0.1,0.1-0.2,0.3-0.3,0.5c-0.1,0.4-0.2,0.9-0.4,1.3
		c-0.2,0-0.4,0-0.3-0.2c0.2-0.7,0.4-1.3,0.7-2c0.1-0.4,0.4-0.6,0.8-0.5c0.4,0.1,0.5,0.4,0.5,0.7c0,0.1,0,0.1,0.1,0.1
		c0.2,0.2,0.3,0.5,0.5,0.7c0.1-0.1,0.3-0.2,0.4-0.3C107.3,25.6,106.9,25,106.4,24.3z"/>
	<path class="st1" d="M109.4,27.4c0.1-0.1,0.2-0.2,0.4-0.3c0.5-0.3,1-0.3,1.3,0.2c0.5,0.7,0.5,1.5,0.3,2.3c-0.1,0.3,0,0.6-0.4,0.7
		c0.3,0.5,0.5,1,0.8,1.5c-0.2,0.1-0.3,0.2-0.4,0.3c-0.1-0.1-0.2-0.2-0.3-0.3c-0.9,0.5-1.8,1-2.8,1.5c0-0.4,0.1-0.6,0.1-0.9
		c0.3-0.2,0.6-0.4,1-0.6c-0.1-0.2-0.2-0.5-0.3-0.7c-0.1,0-0.3,0-0.4,0c-0.3-0.2-0.2-0.8,0.3-1.3c0.1,0.1,0.2,0.2,0.3,0.3
		c0.2-0.1,0.4-0.2,0.6-0.3c0.1,0,0.1-0.1,0.2-0.1c0-0.1-0.1-0.3-0.1-0.4c0.1-0.1,0.3-0.2,0.5-0.3c0.2,0.4,0.4,0.8,0.7,1.2
		c0.4-0.7,0.3-1.6-0.1-2.2c-0.3-0.4-0.6-0.4-1,0.1c0.1,0.2,0.2,0.4,0.3,0.7c-0.1,0.1-0.3,0.2-0.4,0.3c-0.1-0.1-0.2-0.2-0.4-0.3
		c-0.9,0.5-1.8,1-2.7,1.6c0-0.3,0-0.6,0-0.9c0.7-0.4,1.3-0.8,2-1.2c0.2-0.1,0.4-0.2,0.2-0.5C108.9,27.4,109.1,27.1,109.4,27.4z
		 M110.3,30.3c-0.3,0.2-0.6,0.3-0.9,0.5c0.2,0.3,0.3,0.5,0.4,0.8c0.3-0.2,0.6-0.3,0.9-0.5C110.5,30.7,110.4,30.5,110.3,30.3z"/>
	<path class="st1" d="M95.6,76.5c0,0.4,0.1,0.8,0.1,1.2c0,0.3,0.1,0.6,0.2,1c-0.2,0.1-0.4,0.2-0.6,0.3c-0.4-0.5-0.8-1-1.2-1.5
		c-0.1,0-0.1-0.1-0.2-0.1l0,0l0,0c0.1,0,0.1,0.1,0.2,0.1c0.1,0.3,0.2,0.6,0.3,0.9c0.1,0.3,0.3,0.6,0.4,0.9c-0.3,0.1-0.5,0.3-0.8,0.4
		c-0.5-1.2-1.1-2.4-1.6-3.6c0.4-0.2,0.8-0.4,1.2-0.6c0.4,0.5,0.7,1.1,1.1,1.6c0,0,0,0,0,0c0,0,0,0,0,0c0-0.3,0-0.7-0.1-1
		c0-0.3-0.1-0.6-0.2-0.9c0.4-0.2,0.7-0.4,1.1-0.6c0.5,1.2,1.1,2.4,1.6,3.6c-0.3,0.1-0.5,0.2-0.8,0.4C96.1,77.7,95.8,77.1,95.6,76.5
		L95.6,76.5L95.6,76.5z"/>
	<path class="st1" d="M109.6,63c-0.4-0.4-0.9-0.9-1.4-1.3c0.2-0.4,0.4-0.7,0.6-1.1c1.1,0.6,2.2,1.3,3.3,1.9
		c-0.1,0.3-0.3,0.5-0.4,0.8c-0.6-0.3-1.2-0.6-1.8-0.9c0,0,0-0.1,0,0c0,0,0,0,0,0c0.5,0.5,0.9,1,1.4,1.5c-0.1,0.2-0.2,0.4-0.3,0.6
		c-0.7-0.2-1.3-0.4-1.9-0.6c0,0,0,0.1,0,0.1c0.5,0.3,1.1,0.6,1.7,0.9c-0.1,0.3-0.3,0.5-0.4,0.8c-1.1-0.7-2.2-1.3-3.3-1.9
		c0.2-0.4,0.4-0.8,0.6-1.1C108.4,62.7,109,62.9,109.6,63C109.6,63,109.6,63.1,109.6,63C109.6,63.1,109.6,63.1,109.6,63z"/>
	<path class="st1" d="M103.2,20.3c-0.1,0.1-0.2,0.2-0.3,0.4c-0.1-0.1-0.2-0.1-0.4-0.1c-0.7,0.8-1.3,1.5-2,2.4
		c-0.1-0.3-0.2-0.6-0.3-0.8c0.6-0.7,1.1-1.4,1.7-2.1c-0.1-0.1-0.1-0.2-0.2-0.3c0.1-0.1,0.2-0.3,0.3-0.4c0.1,0.1,0.3,0.2,0.4,0.2
		c0.2-0.3,0.2-0.7,0.1-1c-0.1-0.3-0.4-0.5-0.6-0.4c-0.3,0.1-0.4,0.4-0.2,0.8c0,0.1,0.1,0.1,0.1,0.2c0,0.1,0,0.1-0.1,0.2
		c0,0.1-0.1,0.1-0.2,0.2c-0.1,0-0.3-0.1-0.4-0.1c-0.6,0.8-1.2,1.7-1.9,2.6c-0.1-0.3-0.2-0.5-0.3-0.8c0.3-0.4,0.5-0.7,0.8-1.1
		c-0.2-0.2-0.4-0.3-0.6-0.5c-0.2,0.1-0.3,0.3-0.5,0.4c-0.3-0.5-0.3-1,0-1.6c0.5,0.4,1,0.7,1.5,1c0.1-0.2,0.3-0.3,0.5-0.6
		c-0.6-0.4-1.1-0.8-1.7-1.3c0.1-0.2,0.2-0.3,0.3-0.5c0.7,0.5,1.3,0.9,2,1.4c0.1-0.2,0.1-0.4,0.1-0.5c0.1-0.4,0.5-0.6,0.8-0.6
		c0.3,0,0.8,0.4,0.8,0.8c0,0.5,0,1.1-0.2,1.7C102.9,20,103.1,20.1,103.2,20.3z"/>
	<path class="st1" d="M47.3,36c-0.2,0-0.3,0-0.5,0c-0.2,0.6-0.3,1.1-0.5,1.7c1,0.3,2,0.6,3.1,0.9c-0.3,0.2-0.4,0.4-0.6,0.6
		c-0.8-0.2-1.7-0.4-2.6-0.7c-0.1,0.1-0.2,0.2-0.2,0.3c0,0-0.1,0-0.1,0c-0.4-0.1-0.7-0.4-1.1-0.5c-0.5-0.1-0.7-0.7-0.5-1.2
		c0.4-1,1.1-1.6,2.1-2c0-0.1,0.1-0.3,0.2-0.6c0.2,0,0.3,0,0.5,0.1c0,0.2,0,0.4-0.1,0.6c0.3,0.1,0.6,0.2,1,0.3
		c-0.1,0.4-0.2,0.8-0.3,1.2c0.2,0.1,0.4,0.2,0.7,0.4c0.2-0.2,0.3-0.4,0.4-0.6c-0.2-0.2-0.3-0.4-0.4-0.6c0-0.1,0.1-0.2,0.1-0.3
		c0.2-0.3,0.4-0.2,1,0.2c0.2-0.1,0.4-0.1,0.7-0.2c0,0.5,0,0.5-0.5,0.6c-0.4,0.4-0.6,0.8-1,1c-0.2,0.2-0.5,0.2-0.8,0.2
		c-0.6,0-0.8-0.4-0.7-0.9C47.2,36.4,47.3,36.2,47.3,36z M45.7,37.9c0.2-0.8,0.4-1.6,0.7-2.5c-0.8,0.5-1.3,1-1.4,1.8
		C44.8,37.8,44.9,37.9,45.7,37.9z"/>
	<path class="st1" d="M54.1,22.5c0.2,0.1,0.3,0.2,0.4,0.4c-0.1,0.1-0.2,0.3-0.2,0.4c0.4,0.5,1.2,0.7,1,1.6c0.6,0,1.1,0,1.6,0
		c0,0.2,0,0.3,0,0.5c-1,0-1.9,0.1-2.8-0.4c0.1-0.2,0.2-0.4,0.4-0.6c-0.2-0.2-0.4-0.3-0.6-0.6c-0.2,0.2-0.4,0.5-0.5,0.8
		c-0.2-0.2-0.4-0.3-0.5-0.4c0.2-0.3,0.4-0.5,0.5-0.7c-1.2,0-2.1,0.8-2.1,1.8c0.2,0.1,0.3,0.2,0.5,0.3c0.2-0.2,0.3-0.4,0.5-0.6
		c0.4,0.1,0.5,0.3,0.4,0.6c0.8,0.6,1.7,1.2,2.5,1.9c-0.3,0.1-0.5,0.2-0.8,0.3c-0.7-0.5-1.4-1-2.1-1.5c-0.5,0.2-0.5,0.2-0.8-0.3
		c-0.1-0.1-0.2-0.1-0.3-0.2c-0.7-0.5-0.7-1.1-0.1-1.6c0.6-0.5,1.2-0.8,2-0.9c0.2,0,0.4,0.1,0.6,0.1C53.7,22.9,53.9,22.7,54.1,22.5z"
		/>
	<path class="st1" d="M115.4,44.7c-0.1,0.2-0.2,0.4-0.3,0.7c-0.1,0.2-0.2,0.4-0.3,0.6c0.5,0.1,0.9,0.2,1.3,0.4c0,0,0,0.1,0,0.1
		c-0.4,0.1-0.9,0.3-1.4,0.4c0.3,0.4,0.5,0.8,0.7,1.2c0,0,0,0-0.1,0.1c-0.4-0.2-0.8-0.4-1.2-0.7c-0.1,0.5-0.3,1-0.4,1.6
		c-0.2-0.6-0.3-1-0.4-1.5c-0.4,0.2-0.8,0.4-1.2,0.6l0,0c0.2-0.4,0.4-0.8,0.6-1.2c-0.5-0.1-0.9-0.3-1.5-0.4c0.6-0.2,1-0.3,1.5-0.4
		c-0.2-0.4-0.5-0.9-0.7-1.4c0.5,0.3,0.9,0.5,1.3,0.8c0.1-0.5,0.3-1,0.4-1.6c0.2,0.6,0.3,1,0.4,1.5C114.6,45.2,115,45,115.4,44.7
		C115.4,44.8,115.4,44.7,115.4,44.7z"/>
	<path class="st1" d="M47.8,44.8c-0.2,0.4-0.4,0.8-0.7,1.3c0.5,0.1,0.9,0.3,1.5,0.4c-0.6,0.2-1,0.3-1.5,0.4c0.2,0.4,0.5,0.8,0.7,1.2
		c0,0,0,0-0.1,0.1c-0.4-0.2-0.8-0.4-1.2-0.7c-0.1,0.5-0.2,0.9-0.4,1.4c0,0-0.1,0-0.1,0c-0.1-0.5-0.3-0.9-0.4-1.4
		c-0.4,0.3-0.8,0.5-1.2,0.7c0,0-0.1,0-0.1-0.1c0.2-0.4,0.4-0.8,0.7-1.2c-0.5-0.1-0.9-0.3-1.5-0.4c0.5-0.2,1-0.3,1.5-0.4
		c-0.2-0.5-0.5-0.9-0.8-1.4c0.5,0.3,0.9,0.5,1.4,0.8c0.1-0.5,0.3-0.9,0.4-1.3c0,0,0.1,0,0.1,0c0.1,0.4,0.2,0.8,0.4,1.3
		C46.9,45.2,47.3,45,47.8,44.8L47.8,44.8z"/>
	<path class="st1" d="M66.2,78.4c-0.2,0.4-0.4,0.8-0.6,1.2c-0.2-0.1-0.5-0.2-0.8-0.3c0.5-1.2,0.9-2.4,1.4-3.7
		c0.3,0.1,0.6,0.2,0.8,0.3c0,0.6,0,1.1,0,1.6c0,0,0,0,0.1,0c0.2-0.5,0.3-0.9,0.5-1.4c0.3,0.1,0.5,0.2,0.8,0.4
		c-0.1,0.3-0.2,0.7-0.3,1l0,0c-0.3,0.6-0.5,1.2-0.8,1.8c-0.1,0.3-0.2,0.6-0.4,0.9c-0.3-0.1-0.6-0.3-0.9-0.4
		C66.2,79.3,66.2,78.8,66.2,78.4C66.2,78.3,66.2,78.3,66.2,78.4C66.2,78.3,66.2,78.3,66.2,78.4z"/>
	<path class="st1" d="M80.7,82.4c-0.3,0-0.6,0-0.9,0c-0.2-0.5-0.4-0.9-0.5-1.4c0,0,0,0-0.1,0c0,0.4,0,0.9,0,1.4
		c-0.3,0-0.5,0.1-0.9,0.1c0-1.3,0-2.6,0-4c0.3,0,0.5,0,0.9,0c0.2,0.5,0.3,0.9,0.5,1.4c0,0,0.1,0,0.1,0c0-0.5,0-0.9,0-1.4
		c0.3,0,0.5,0,0.9,0C80.7,79.8,80.7,81.1,80.7,82.4z"/>
	<path class="st1" d="M55.8,70.1c0.3-0.3,0.7-0.7,0.9-0.9c0.2,0.2,0.4,0.3,0.7,0.6c-0.9,1-1.7,1.9-2.6,2.8c-0.2-0.2-0.5-0.4-0.7-0.7
		c0.2-0.5,0.4-1,0.6-1.5c0,0-0.1,0-0.1-0.1c-0.3,0.4-0.6,0.7-1,1.1c-0.2-0.2-0.4-0.4-0.6-0.7c0.6-0.6,1.2-1.3,1.7-1.9
		c0.2-0.2,0.4-0.5,0.6-0.8l0,0c0.1,0,0.2,0,0.4-0.1c0.2,0.2,0.3,0.4,0.5,0.6C56.2,69.2,56,69.6,55.8,70.1c0,0.1,0,0.2-0.1,0.3l0,0
		l0,0C55.8,70.3,55.8,70.2,55.8,70.1z"/>
	<path class="st1" d="M90.7,14c0.1,0.2,0.1,0.4,0.2,0.7c0.2-0.4,0.3-0.6,0.4-0.9c-0.6-0.2-1.1-0.4-1.7-0.6c0.1-0.2,0.2-0.4,0.3-0.5
		c1.3,0.5,2.5,1,3.8,1.5c-0.1,0.2-0.1,0.4-0.2,0.6c-0.5-0.2-1-0.4-1.5-0.6c-0.1,0.3-0.2,0.5-0.3,0.7c1.2,0.5,1.3,1.5,0.2,2.5
		c-0.1-0.2-0.3-0.4-0.4-0.5c0.3-0.2,0.6-0.5,0.8-0.7c-0.3-0.5-0.3-0.5-1-0.4c-0.2,0.4-0.4,0.9-0.6,1.4c-0.2-0.4-0.7-0.7-0.3-1.1
		c-1-0.3-1.4-0.9-1.2-1.5C89.5,14,90,13.8,90.7,14z M91,14.8c-0.4-0.2-0.8-0.4-1.3-0.2c0,0.4,0,0.4,0.2,0.5
		C90.2,15.3,90.7,15.2,91,14.8z"/>
	<path class="st1" d="M49,56.5c-1.2,0.4-2.3,0.8-3.6,1.2c-0.1-0.3-0.2-0.6-0.3-0.9c0.5-0.2,0.9-0.3,1.4-0.5c0-0.2-0.1-0.3-0.1-0.5
		c-0.5,0.2-0.9,0.3-1.4,0.5c-0.1-0.3-0.2-0.6-0.3-0.9c1.2-0.4,2.3-0.8,3.6-1.2c0.1,0.3,0.2,0.6,0.3,0.9c-0.5,0.2-0.9,0.3-1.3,0.5
		c0,0.2,0.1,0.3,0.1,0.5c0.5-0.1,0.9-0.3,1.3-0.4C48.8,55.9,48.9,56.2,49,56.5z"/>
	<path class="st1" d="M51.5,63.2c0.1,0,0.3-0.1,0.5-0.2c0.3,0.4,0.5,0.9,0.8,1.3c0.4,0.6-0.1,1.4-0.9,1.5c-0.1,0-0.2,0-0.3,0
		c-0.1,0.7-0.9,0.9-1.3,1.6c-0.2-0.3-0.4-0.6-0.6-0.9c0.4-0.3,0.7-0.6,1.1-0.9c-0.1-0.2-0.1-0.3-0.2-0.4c-0.4,0.3-0.8,0.5-1.2,0.8
		c-0.2-0.3-0.3-0.5-0.5-0.8c0.6-0.4,1.1-0.8,1.6-1.2c0.2-0.1,0.4-0.3,0.5-0.5l0,0c0.1-0.1,0.3-0.2,0.4-0.3c0,0,0,0,0,0
		C51.4,63.3,51.5,63.2,51.5,63.2L51.5,63.2z M51.2,64.7c0.1,0.1,0.2,0.2,0.2,0.3c0.6-0.3,0.6-0.3,0.5-0.9
		C51.7,64.4,51.5,64.5,51.2,64.7z"/>
	<path class="st1" d="M51,63.5c-0.4,0.2-0.8,0.4-1.2,0.7c-1,0.6-1.9,0.2-2.1-0.9c-0.1-0.3,0-0.7,0.3-0.9c0.7-0.5,1.3-0.9,2-1.3
		c0.4-0.2,0.8,0,1,0.3c0.5,0.5,0.7,1.1,0.4,1.8c0,0,0,0,0,0c0,0-0.1,0.1-0.1,0.1c0,0,0,0,0,0C51.3,63.4,51.1,63.5,51,63.5
		C51,63.6,51,63.5,51,63.5z M50.5,61.9c-0.6,0.3-1.2,0.7-1.7,1.1c-0.1,0.1-0.1,0.3-0.1,0.4c0,0.1,0.3,0.1,0.4,0.1
		c0.5-0.3,1-0.6,1.5-0.9C50.9,62.4,50.8,62.2,50.5,61.9z"/>
	<path class="st1" d="M93.4,79.1c0,0.6-0.4,1.1-1,1.2c-0.5,0.2-1,0-1.2-0.5c-0.3-0.7-0.6-1.5-0.8-2.3c-0.1-0.4,0.2-0.7,0.5-1
		c0.8-0.6,1.6-0.3,2,0.6c0.1,0.4,0.3,0.9,0.4,1.3C93.3,78.7,93.3,78.9,93.4,79.1z M92,79.6c0.5-0.2,0.5-0.2,0.4-0.5
		c-0.2-0.6-0.4-1.1-0.6-1.7c-0.1-0.3-0.3-0.4-0.6-0.1C91.4,78,91.7,78.7,92,79.6z"/>
	<path class="st1" d="M83.6,12.9c0.3-0.1,0.5-0.1,0.8-0.2c0-0.2,0.1-0.4,0.1-0.6c-0.3-0.1-0.6-0.1-0.9-0.2c0-0.2,0-0.4,0.1-0.6
		c1.2,0.2,2.4,0.3,3.5,0.5c0.2,0.4,0,0.6-0.4,0.7c-0.1,1-0.3,2-0.4,3.1c-0.3-0.2-0.5-0.4-0.7-0.6c0-0.4,0.1-0.8,0.1-1.2
		c-0.3-0.1-0.6-0.3-0.9-0.4c-0.1,0.1-0.3,0.2-0.5,0.4c0.2,0.5,0.5,1,0.7,1.5c-0.2,0.2-0.4,0.2-0.5,0C84.1,14.5,83.7,13.8,83.6,12.9z
		 M85.1,13.1c0.3,0,0.5,0,0.8,0c0-0.3,0.1-0.5,0.1-0.8c-0.3,0-0.5-0.1-0.8-0.1C85.1,12.5,85.1,12.8,85.1,13.1z"/>
	<path class="st1" d="M50.4,28c0,0.2,0.1,0.4,0.1,0.6c0.8,0.5,1.7,1,2.6,1.5c-0.3,0.2-0.5,0.3-0.7,0.4c-0.4-0.2-0.8-0.4-1.2-0.6
		c-0.1,0.2-0.2,0.3-0.3,0.4c0.2,0.1,0.3,0.2,0.4,0.3c0.4,0.4,0.4,0.9,0,1.2c-0.6,0.5-1.2,0.4-1.9,0.3c0,0-0.1-0.2-0.1-0.3
		c0.3,0,0.5,0,0.7,0c0.1,0,0.3-0.1,0.4-0.1c0.3-0.1,0.6-0.4,0.5-0.7c-0.1-0.4-0.4-0.4-0.7-0.4c-0.1,0.2-0.2,0.3-0.3,0.5
		c-0.2,0-0.3,0-0.5,0c-0.1-0.3,0.5-0.9-0.4-1c-0.1,0.3-0.3,0.6-0.4,0.9c-0.2,0-0.4,0-0.6,0c0.1-0.6,0.3-1,0.9-1.2
		c0.5-0.2,0.9,0.1,1.2,0.5c0.4-0.2,0.5-0.5,0.4-1c-0.2-0.1-0.3-0.2-0.4-0.2c-0.4,0.1-0.6,0.2-0.9,0.3c0,0-0.1-0.1-0.1-0.1
		c0.3-0.5,0.6-1,0.9-1.6C50.2,27.9,50.3,28,50.4,28L50.4,28z"/>
	<path class="st1" d="M65.4,15.5c-0.1-0.2-0.1-0.3-0.2-0.6c-0.8,0.4-1.5,0.8-2.2,1.2c-0.1-0.2-0.2-0.3-0.3-0.5
		c1.1-0.6,2.1-1.1,3.1-1.7c0.3,0.2,0.4,0.5,0.1,0.8c0.5,0.9,1,1.8,1.5,2.8c-0.4,0-0.6,0-0.9-0.1c-0.3-0.5-0.6-1-0.9-1.6
		c-0.5,0.5,0.1,0.8,0.1,1.1c-0.5,0.1-0.5,0.1-0.9-0.5c-0.5,0.2-0.6,0.4-0.2,0.7c0.3,0.3,0.8,0.4,1.2,0.6c0.2,0.1,0.3,0.1,0.6,0.2
		c-0.1,0.1-0.1,0.3-0.2,0.4c-0.6-0.3-1.1-0.5-1.7-0.8c-0.2-0.1-0.4-0.3-0.6-0.5c-0.3-0.4-0.1-1,0.4-1.1c0.1,0,0.2,0,0.4,0
		C64.9,15.7,65.1,15.5,65.4,15.5L65.4,15.5C65.4,15.6,65.4,15.5,65.4,15.5z"/>
	<path class="st1" d="M90.2,78.3c-0.3,0.1-0.6,0.2-0.9,0.3c-0.1-0.2-0.1-0.3-0.2-0.4C89,78,88.9,78,88.8,78c-0.1,0-0.2,0.2-0.2,0.3
		c0.2,0.7,0.4,1.4,0.6,2c0,0.1,0.2,0.1,0.5,0.2c0-0.4,0-0.7-0.1-1.1c0.2-0.1,0.5-0.2,0.8-0.3c0.1,0.3,0.2,0.5,0.2,0.7
		c0.1,0.5-0.1,0.9-0.5,1.1c-0.2,0.1-0.4,0.2-0.6,0.3c-0.5,0.1-1,0-1.2-0.5c-0.3-0.7-0.5-1.4-0.7-2.2c-0.2-0.9,1-1.7,1.8-1.3
		C89.8,77.3,90.1,77.7,90.2,78.3z"/>
	<path class="st1" d="M49.9,58.9c-0.3,0.1-0.5,0.2-0.7,0.3c-0.2-0.4-0.3-0.7-0.5-1.1c-0.2,0.1-0.3,0.1-0.5,0.2
		c0.1,0.4,0.2,0.7,0.3,1.1c-0.2,0.1-0.4,0.2-0.7,0.3c-0.1-0.3-0.3-0.7-0.4-1c-0.2,0.1-0.4,0.1-0.6,0.2c0.1,0.4,0.2,0.8,0.3,1.2
		c-0.2,0.1-0.4,0.2-0.7,0.3c-0.3-0.7-0.5-1.4-0.8-2.1c1.2-0.5,2.3-0.9,3.5-1.4C49.4,57.5,49.6,58.2,49.9,58.9z"/>
	<path class="st1" d="M68.2,77.5c0.1-0.2,0.2-0.4,0.4-0.5c0.4-0.3,0.9-0.3,1.3-0.1c0.5,0.3,0.6,0.7,0.4,1.5
		c-0.2-0.1-0.5-0.1-0.7-0.2c-0.1-0.2,0.1-0.8-0.5-0.6c-0.1,0.4,0.2,0.7,0.4,1c0.4,0.5,0.6,1,0.3,1.6c-0.2,0.7-0.7,0.8-1.4,0.6
		c-0.7-0.2-0.9-0.7-0.8-1.3c0-0.1,0.1-0.2,0.1-0.4c0.3,0.1,0.5,0.2,0.7,0.2c0,0.3,0.1,0.5,0.1,0.8c0.5-0.1,0.6-0.3,0.4-0.6
		c-0.1-0.2-0.2-0.4-0.4-0.6C68.2,78.4,68.1,78,68.2,77.5L68.2,77.5z"/>
	<path class="st1" d="M59.5,76.3c-0.3-0.3-0.5-0.4-0.8-0.6c0.1-0.2,0.2-0.5,0.3-0.7c-0.2-0.1-0.3-0.2-0.5-0.4
		c-0.2,0.2-0.4,0.3-0.6,0.5c-0.2-0.2-0.4-0.3-0.7-0.5c1-0.9,1.9-1.8,2.9-2.7c0.3,0.2,0.6,0.4,0.9,0.7C60.5,73.8,60,75,59.5,76.3z
		 M59.8,73.4c-0.8,0.6-0.8,0.6-0.5,0.9C59.5,74,59.7,73.7,59.8,73.4z"/>
	<path class="st1" d="M99.3,72c1,0.9,1.9,1.8,2.9,2.7c-0.2,0.1-0.3,0.2-0.5,0.3c-0.1,0.1-0.2,0.2-0.4,0.3c-0.2-0.2-0.4-0.3-0.6-0.5
		c-0.1,0.1-0.3,0.2-0.5,0.4c0.1,0.2,0.2,0.5,0.3,0.7c-0.2,0.2-0.4,0.3-0.7,0.6c-0.5-1.3-1-2.5-1.5-3.7C98.7,72.5,98.9,72.3,99.3,72z
		 M99.5,73.3C99.5,73.3,99.5,73.3,99.5,73.3C99.5,73.3,99.5,73.3,99.5,73.3c0.1,0.4,0.2,0.8,0.6,1c0-0.1,0.1-0.3,0-0.3
		C100,73.8,99.7,73.6,99.5,73.3z"/>
	<path class="st1" d="M55.5,68.1c-0.1,0.1-0.2,0.2-0.4,0.3c-0.2-0.3-0.5-0.6-0.8-0.9c-0.2,0.2-0.3,0.3-0.5,0.5
		c0.2,0.3,0.4,0.6,0.7,0.9c-0.2,0.2-0.4,0.3-0.6,0.5c-0.3-0.3-0.5-0.5-0.8-0.9c-0.2,0.2-0.3,0.3-0.5,0.5c0.3,0.3,0.5,0.6,0.8,1
		c-0.2,0.2-0.4,0.3-0.6,0.5c-0.5-0.6-0.9-1.1-1.4-1.7c1-0.9,1.9-1.7,2.8-2.6c0.4,0.5,0.8,1,1.2,1.5C55.7,67.9,55.6,68,55.5,68.1
		C55.5,68.2,55.5,68.1,55.5,68.1z"/>
	<path class="st1" d="M77.8,15.1c-0.6-0.1-0.8-0.4-0.9-0.8c-1.2,0.2-1.7,0-2-1.1c0.2-0.1,0.4-0.2,0.7-0.3c0-0.2,0-0.4,0-0.6
		c-0.3,0-0.6,0-0.9,0c0-0.2,0-0.4-0.1-0.6c1.1-0.1,2.1-0.2,3.1-0.3c0.3,0.4,0,0.6-0.2,0.7C77.6,13,77.7,14,77.8,15.1z M76,12.1
		c0.2,0.6,0.3,1.2-0.3,1.6c0.6,0.3,1.2,0,1.2-0.5c0-0.4-0.1-0.7-0.1-1.1C76.4,12,76.3,12,76,12.1z"/>
	<path class="st1" d="M97.8,76.1c0.2,0.4,0.4,0.8,0.7,1.2c-0.2,0.2-0.5,0.3-0.8,0.5c-0.6-1.1-1.3-2.2-1.9-3.3
		c0.5-0.4,0.9-0.7,1.5-0.9c0.3-0.1,0.7-0.1,0.9,0.2c0.2,0.2,0.3,0.4,0.4,0.7c0.2,0.4,0.1,0.7-0.2,1C98.2,75.7,98,75.9,97.8,76.1z
		 M97.4,75.3c0.4-0.4,0.4-0.5-0.1-1c-0.1,0-0.3,0.1-0.4,0.2c0.1,0.2,0.1,0.3,0.2,0.4C97.2,75,97.3,75.2,97.4,75.3z"/>
	<path class="st1" d="M112.7,34c0.1,0.2,0.1,0.3,0.2,0.6c-0.2,0.1-0.3,0.1-0.5,0.2c-0.1-0.2-0.2-0.3-0.4-0.5
		c-0.4,0.1-0.8,0.2-1.2,0.4c-0.1-0.2-0.2-0.4-0.3-0.6c-0.1-0.2-0.1-0.5-0.5-0.5c-0.3,0-0.5,0.2-0.6,0.4c0,0.5,0.4,0.8,0.7,1.2
		c-0.1,0.2-0.2,0.3-0.4,0.4c-0.5-0.3-0.8-0.8-0.8-1.3c0-0.6,0.4-1,1-1.3c0.3-0.2,0.7,0,0.9,0.3c0.1,0.1,0.1,0.2,0.2,0.4
		c0.2-0.1,0.4-0.1,0.6-0.2c-0.1-0.3-0.2-0.5-0.3-0.7c-0.1-0.2-0.1-0.4-0.2-0.6c0.2-0.1,0.3-0.2,0.5-0.3c0.2,0.6,0.4,1.1,0.6,1.6
		c0.7-0.6,0.7-0.9,0.4-1.7c0.1-0.1,0.3-0.3,0.4-0.4c0.5,0.8,0.5,1,0,1.7C113.1,33.4,112.9,33.7,112.7,34z"/>
	<path class="st1" d="M71.3,12.9c0.1,0.3,0.1,0.5,0.2,0.8c-0.4,0.3-0.9,0.2-1.2,0.5c0,0.1,0.1,0.1,0.1,0.2c0.1,0,0.3-0.1,0.4-0.1
		c0.5-0.2,0.9-0.1,1.2,0.2c0.3,0.4,0.2,0.6-0.1,1.1c0,0,0,0.1-0.1,0.1c0.1,0.1,0.2,0.1,0.3,0.2c0.1,0.1,0.2,0.1,0.3,0.2
		c-0.1,0.1-0.2,0.2-0.3,0.3c-0.4-0.3-0.8-0.6-1.4-0.5c-0.2,0-0.4-0.2-0.6-0.3c0.2-0.5,0.3-0.6,0.8-0.5c0.6,0.1,0.6,0.1,0.8-0.5
		c-0.4-0.2-0.7-0.1-1,0.1c-0.4,0-0.6-0.3-0.9-0.5c-0.3-0.3-0.2-0.6,0.2-0.8c0.2-0.1,0.4-0.1,0.6-0.3c-0.5-0.2-1,0.2-1.5,0.1
		c0-0.1-0.1-0.3-0.2-0.5c0.9-0.3,1.7-0.5,2.6-0.8c0.1,0.1,0.1,0.2,0.1,0.3c0,0.1,0,0.2,0.1,0.3C71.7,12.8,71.5,12.8,71.3,12.9z"/>
	<path class="st1" d="M56.4,23.3c-0.4-0.4-0.8-0.7-1.2-1.1c-0.2,0.1-0.5,0.1-0.6-0.2c0.7-0.8,1.4-1.5,2.2-2.3
		c0.1,0.1,0.3,0.2,0.4,0.3c-0.1,0.1-0.1,0.2-0.1,0.3c0.3,0.6,1.2,0.8,1,1.7c-0.2,0-0.4,0.1-0.5,0.1c-0.4-0.5-0.7-0.8-1-1.3
		c-0.3,0.2-0.5,0.5-0.8,0.7c0.4,0.4,0.7,0.7,1,1c0.2,0.3,0.5,0.2,0.8,0.1c0.4-0.1,0.8-0.2,1.2-0.2c0.6-0.1,0.8,0.1,0.6,0.8
		c-0.1,0-0.2,0.1-0.3,0.1c-0.1,0-0.2,0-0.3,0c0-0.2,0.1-0.3,0.1-0.5C58,22.9,57.2,23.2,56.4,23.3z"/>
	<path class="st1" d="M98.8,16.8c-0.1,0.2-0.2,0.3-0.2,0.5c-0.2,0-0.3,0-0.4-0.1c-0.5,0.9-1,1.8-1.6,2.8c-0.2-0.3-0.3-0.5-0.4-0.8
		c0.1-0.3,0.3-0.5,0.3-0.6c-0.3-0.3-0.6-0.6-0.8-0.9c-0.2-0.3-0.2-0.7,0.1-1c0.2-0.3,0.5-0.5,0.3-0.9c0-0.1,0.1-0.2,0.2-0.4
		C97.2,15.8,98,16.3,98.8,16.8z M96.1,17.6c0.6,0.4,1,0.1,1.3-0.9c-0.2-0.1-0.4-0.2-0.6-0.3C96.6,16.8,96.4,17.2,96.1,17.6z"/>
	<path class="st1" d="M111.1,37.5c0.2-0.5,0.4-1,1-1.2c0.5,0.1,0.4,0.6,0.6,1c0.1,0,0.2,0,0.4,0c-0.1-0.5-0.3-1-0.4-1.5
		c0.2-0.1,0.3-0.1,0.6-0.2c0.3,0.9,0.5,1.7,0.8,2.6c-0.2,0.1-0.3,0.2-0.5,0.2c-0.1-0.2-0.2-0.3-0.3-0.5c-0.3,0.1-0.5,0.1-0.8,0.2
		c-0.1-0.4-0.3-0.7-0.4-1.1c-0.1,0-0.2,0.1-0.3,0.1c0,0.1,0,0.1,0,0.2c0.1,0.3,0.2,0.5,0.2,0.8c0,0.4-0.3,0.7-0.6,0.7
		c-0.4,0-0.8-0.2-1-0.6c-0.2-0.5,0.1-1.5,0.5-1.8c0.1,0,0.2,0,0.3,0c-0.3,0.5-0.5,0.9-0.3,1.5c0.1,0.2,0.2,0.4,0.5,0.4
		C111.5,38,111.2,37.7,111.1,37.5z"/>
	<path class="st1" d="M110.4,56.9c0.3,0.1,0.5,0.2,0.7,0.3c-0.1,0.2-0.1,0.4-0.2,0.6c0.9,0.4,1.8,0.8,2.7,1.3
		c-0.1,0.3-0.3,0.6-0.4,0.9c-0.9-0.4-1.8-0.8-2.7-1.2c-0.1,0.2-0.2,0.4-0.4,0.6c-0.2-0.1-0.4-0.2-0.7-0.3
		C109.8,58.3,110.1,57.7,110.4,56.9z"/>
	<path class="st1" d="M44.4,54c-0.1-0.4-0.1-0.7-0.2-1c1-0.2,1.9-0.4,2.8-0.6c0-0.2,0-0.4-0.1-0.7c0.2-0.1,0.4-0.1,0.7-0.2
		c0.2,0.8,0.3,1.6,0.5,2.4c-0.3,0.1-0.5,0.1-0.7,0.2c-0.1-0.2-0.1-0.4-0.2-0.6C46.3,53.6,45.4,53.8,44.4,54z"/>
	<path class="st1" d="M81.9,13.7c0.3,0.4,0.6,0.8,0.9,1.3c-0.1,0.1-0.1,0.1-0.2,0.2c-0.6-0.7-1.2-1.4-1.5-2.4
		c0.3-0.1,0.5-0.2,0.8-0.3c0-0.2,0-0.4,0-0.7c-0.3,0-0.5-0.1-0.9-0.1c0-0.2,0-0.3,0-0.5c0.4,0,0.7,0,1.1,0c-0.3-0.7-0.6-1.2-1.5-1
		c-0.1-0.2-0.1-0.4-0.2-0.6c0.7-0.2,1.2,0,1.5,0.7c0.2,0.3,0.4,0.6,0.6,1c0.2,0,0.3,0.1,0.5,0.1c0,0.2,0,0.3,0,0.5
		c-0.1,0-0.3,0.1-0.5,0.1C82.6,12.7,82.6,13.3,81.9,13.7z"/>
	<path class="st1" d="M58.4,71.7c-0.6,0.8-1.2,1.6-1.8,2.4c-0.3-0.2-0.5-0.4-0.7-0.6c0.6-0.8,1.2-1.6,1.8-2.5
		c-0.2-0.1-0.4-0.2-0.6-0.3c0.2-0.3,0.3-0.5,0.5-0.7c0.6,0.5,1.2,1,1.8,1.5c-0.2,0.2-0.3,0.4-0.5,0.6C58.8,71.9,58.6,71.8,58.4,71.7
		z"/>
	<path class="st1" d="M63,18.5c0.2,0.1,0.3,0.2,0.5,0.3c-0.4,0.8-0.9,1.1-1.6,1c-0.5-0.1-0.8-0.4-1-0.9c-0.1-0.3-0.1-0.6,0.2-0.8
		c0.1-0.1,0.2-0.2,0.4-0.3c-0.1-0.2-0.2-0.3-0.4-0.6c-0.4,0.2-0.8,0.5-1.2,0.7c-0.1-0.2-0.2-0.3-0.3-0.5c0.8-0.5,1.5-1,2.3-1.5
		c0.1,0.2,0.2,0.3,0.3,0.5c-0.2,0.1-0.4,0.3-0.6,0.4c0.2,0.4,0.4,0.7,0.7,1.1c-0.3,0.2-0.6,0.4-0.9,0.6c-0.1,0.3-0.1,0.6,0.2,0.8
		c0.3,0.2,0.6,0,0.8-0.2C62.7,19,62.8,18.8,63,18.5z"/>
	<path class="st1" d="M105.1,66.4c0.2-0.3,0.4-0.5,0.6-0.8c0.8,0.6,1.5,1.3,2.3,1.9c0.2-0.3,0.4-0.5,0.7-0.8
		c0.2,0.2,0.4,0.3,0.6,0.5c-0.4,0.6-0.8,1.1-1.2,1.7C107.1,68,106.1,67.2,105.1,66.4z"/>
	<path class="st1" d="M61.6,73c0.3,0.2,0.5,0.3,0.8,0.5c-0.5,0.9-1,1.8-1.4,2.7c0.3,0.2,0.5,0.4,0.8,0.6c-0.1,0.2-0.2,0.4-0.3,0.7
		c-0.6-0.4-1.1-0.7-1.7-1C60.3,75.3,60.9,74.2,61.6,73z"/>
	<path class="st1" d="M50.4,28c-0.1-0.1-0.1-0.2-0.2-0.3c0.1-0.1,0.1-0.3,0.2-0.6c-0.4,0-0.7,0-1,0.1c-0.3,0.1-0.4,0.4-0.7,0.7
		c-0.1,0-0.3,0-0.5,0c0.1-0.8,0.5-1.1,1.2-1.1c0.2,0,0.5,0,0.7,0c0.5,0,0.5,0,0.9-0.4c0.1,0.1,0.3,0.2,0.4,0.3
		c-0.1,0.1-0.1,0.2-0.2,0.3c0.9,0.6,1.8,1.1,2.7,1.7c-0.3,0.2-0.5,0.3-0.8,0.4c-0.7-0.5-1.5-0.9-2.2-1.4
		C50.8,27.9,50.6,27.9,50.4,28L50.4,28z"/>
	<path class="st1" d="M79.8,11.2c0.2,0,0.4,0,0.6,0.1c0.2,0.4,0,0.6-0.4,0.7c0,1,0,2,0,3.1c-0.3-0.2-0.5-0.3-0.8-0.4
		c0-0.7,0-1.4,0-2.1c0-0.3,0.1-0.6-0.3-0.7c-0.1,0-0.1-0.3-0.1-0.5c0.2,0,0.4-0.1,0.5-0.1c-0.4-0.6-0.7-1.1-1.5-0.8
		c-0.1-0.2-0.2-0.4-0.2-0.6c0.7-0.2,1.2-0.1,1.5,0.5C79.3,10.5,79.5,10.8,79.8,11.2z"/>
	<path class="st1" d="M73.5,14.8c-0.9-0.1-0.9-0.1-0.9-0.7c0.3-0.3,0.6-0.4,0.9-0.1c0.1-0.1,0.2-0.2,0.3-0.3
		c-0.3-0.2-0.6-0.4-0.9-0.6c-0.4-0.4-0.4-0.8-0.1-1.1c0.4-0.4,0.9-0.4,1.3,0c0.6,0.7,0.7,1.8,0,2.4c-0.1,0.1-0.1,0.1-0.1,0.1
		c0,0.4,0.6,0.6,0.2,1.1C73.9,15.4,73.7,15.1,73.5,14.8z M73.8,13.3c0,0,0.1-0.1,0.1-0.1c0-0.2,0-0.5-0.1-0.7c0-0.1-0.3-0.2-0.4-0.2
		c-0.1,0-0.3,0.2-0.3,0.3c0,0.1,0.1,0.3,0.2,0.4C73.4,13.2,73.7,13.3,73.8,13.3z"/>
	<path class="st1" d="M64.4,79.1c-0.3-0.2-0.5-0.3-0.9-0.4c0.5-1.2,1-2.3,1.6-3.6c0.3,0.1,0.6,0.3,0.9,0.4
		C65.5,76.7,65,77.9,64.4,79.1z"/>
	<path class="st1" d="M57.3,19.2c0.7-0.5,1.3-0.9,1.9-1.4c0.1,0.1,0.3,0.2,0.3,0.3c0,0.4,0.3,0.6,0.5,0.9c0.2,0.3,0.4,0.6,0.2,1
		c-0.2,0.4-0.6,0.5-1,0.4c-0.4,0-0.8-0.1-1-0.5c-0.1-0.2-0.3-0.2-0.5-0.4C57.6,19.5,57.4,19.4,57.3,19.2z M58.4,19.2
		c0.3,0.3,0.4,0.8,0.9,1c0.1-0.1,0.2-0.2,0.3-0.4c-0.3-0.3-0.5-0.6-0.7-1C58.7,18.9,58.6,19,58.4,19.2z"/>
	<path class="st1" d="M109,60.2c0.2-0.3,0.3-0.6,0.4-0.9c1.1,0.6,2.2,1.1,3.3,1.7c-0.1,0.3-0.3,0.6-0.4,0.9
		C111.2,61.4,110.2,60.8,109,60.2z"/>
	<path class="st1" d="M51.2,68.5c-0.2-0.3-0.4-0.5-0.6-0.8c1-0.8,1.9-1.6,2.9-2.5c0.2,0.3,0.4,0.5,0.6,0.8
		C53.2,66.9,52.2,67.7,51.2,68.5z"/>
	<path class="st1" d="M106.4,64.6c0.2-0.3,0.4-0.5,0.6-0.8c1,0.8,2,1.5,3.1,2.3c-0.2,0.3-0.3,0.5-0.6,0.8
		C108.5,66.1,107.5,65.3,106.4,64.6z"/>
	<path class="st1" d="M94.4,16.9C94.2,17,94.1,17,94,17.1c-0.3-0.4-0.5-0.8-0.5-1.3c0.2,0,0.3-0.1,0.5-0.1c0.1-0.2,0.2-0.4,0.4-0.7
		c-0.1-0.1-0.3-0.2-0.4-0.3c0.1-0.2,0.2-0.3,0.3-0.5c0.5,0.3,1,0.5,1.5,0.8c-0.1,0.2-0.1,0.3-0.2,0.5c-0.2-0.1-0.3-0.1-0.5-0.2
		c-0.1,0.2-0.3,0.5-0.4,0.8c0.3,0.2,0.5,0.3,0.8,0.5c-0.1,0.2-0.1,0.3-0.2,0.5C94.9,17.1,94.6,17,94.4,16.9z"/>
	<path class="st1" d="M70.7,12c-0.2-0.2-0.4-0.4-0.6-0.6c0.2-0.2,0.4-0.3,0.6-0.6c0.2,0.2,0.3,0.4,0.5,0.6
		C71.1,11.7,70.9,11.8,70.7,12z"/>
	<path class="st1" d="M83.8,10.5c-0.3,0.2-0.5,0.3-0.7,0.5c-0.1-0.1-0.3-0.3-0.6-0.5c0.2-0.2,0.4-0.3,0.6-0.5
		C83.3,10.1,83.5,10.2,83.8,10.5z"/>
	<path class="st1" d="M47.8,44.8C47.8,44.8,47.8,44.7,47.8,44.8C47.8,44.7,47.8,44.7,47.8,44.8L47.8,44.8z"/>
	<path class="st1" d="M112.1,48.1C112.1,48.1,112,48.2,112.1,48.1C112,48.2,112,48.1,112.1,48.1C112,48.1,112.1,48.1,112.1,48.1
		C112.1,48.1,112.1,48.1,112.1,48.1z"/>
	<polygon class="st1" points="115.4,44.8 115.5,44.7 115.4,44.7 	"/>
	<path class="st1" d="M79.8,19.2c15.1,0,27.5,12.6,27.1,27.8c-0.4,14.5-12.5,26.5-27.4,26.3c-14.8-0.1-27.2-12.5-26.8-27.8
		C53.1,31.1,65,19.2,79.8,19.2z M53.9,46.3c-0.1,14.1,11.5,25.9,26,25.9c14.2-0.1,25.6-11.5,25.7-25.6c0.1-14.6-11.7-26.2-26.1-26
		C65.4,20.6,53.9,32.1,53.9,46.3z"/>
	<path class="st1" d="M79.8,21.9c13.4,0,24.5,11,24.4,24.6c-0.1,13.5-11.2,24.4-24.6,24.3C66.4,70.7,55.4,60,55.3,46.4
		C55.2,32.8,66.4,21.8,79.8,21.9z M95.6,31.2c0.3-0.7,0.2-1.3-0.3-1.5c-0.1,0.1-0.1,0.3-0.1,0.4C95.7,30.6,95.7,30.6,95.6,31.2
		c0,0.1-0.1,0.3-0.1,0.4c-0.4-0.4-0.9-0.9-1.3-1.3c-0.1,0.1-0.2,0.1-0.2,0.2c0.2,0.2,0.3,0.4,0.5,0.6c-0.1,0.2-0.2,0.3-0.3,0.5
		c0,0-0.1-0.1-0.1-0.1c-0.2-0.1-0.3-0.2-0.5-0.2c-0.5,0.7-0.4,1.1,0.4,1.7c-0.2,0.2-0.5,0.5-0.1,0.9c0.6-0.5,1.1-1,1.7-1.6
		c0.2,0,0.4,0.3,0.5-0.1c-0.1-0.2-0.2-0.3-0.4-0.5C95.6,31.4,95.6,31.3,95.6,31.2z M68.5,27.5c0.1,0,0.1,0.1,0.2,0.1c0,0,0,0,0-0.1
		C68.7,27.5,68.6,27.5,68.5,27.5c-0.2-0.1-0.4-0.2-0.6-0.3c-0.5-0.2-0.7-0.1-1.1,0.4c0.2,0,0.4,0,0.5-0.1c0.3-0.2,0.6-0.2,0.9-0.1
		C68.3,27.5,68.4,27.5,68.5,27.5z M86.1,26.3c0,0.1,0.1,0.2,0.1,0.3c-0.2,0-0.4,0.1-0.6,0.1c-0.1,0.8,0.2,1.2,1.1,1.2
		c0,0.2-0.1,0.4-0.2,0.6c0.1,0.1,0.2,0.2,0.3,0.4c0.2-0.6,0.4-1,0.6-1.4c0.2-0.4,0.3-0.9,0.8-1c0,0,0-0.1,0-0.1
		c-0.3-0.1-0.7-0.3-1-0.4c0,0-0.1,0.1-0.1,0.1c0.1,0.2,0.1,0.3,0.2,0.5c-0.2,0.4-0.4,0.9-0.6,1.3c0-0.1,0-0.2,0-0.3
		c-0.7-0.2-0.7-0.2-0.9-0.5c0.2,0,0.3-0.1,0.5-0.1c0.5-0.2,0.7-0.5,0.5-1c-0.1-0.3-0.3-0.5-0.6-0.4C85.9,25.7,85.9,25.9,86.1,26.3z
		 M65.3,31.9c0.2-0.1,0.5-0.2,0.8-0.2c0.2,0.2,0.4,0.5,0.6,0.8c0.2-0.1,0.3-0.1,0.5-0.2c-0.6-0.6-1.1-1.2-1.6-1.8
		c0.2-0.2,0.3-0.4-0.1-0.5c-0.3,0.3-0.6,0.6-0.9,0.8c0.2,0.4,0.4,0.2,0.6,0c0.1,0.2,0.3,0.3,0.4,0.4C65.5,31.5,65.4,31.7,65.3,31.9
		c-0.1-0.1-0.3-0.1-0.3-0.2c-0.5-0.6-1-0.6-1.4,0c0,0,0,0.1-0.1,0.2c0.1,0.1,0.2,0.1,0.3,0.1c0.2-0.2,0.4-0.4,0.7-0.7
		c0.1,0.1,0.2,0.2,0.3,0.3c-0.1,0.3-0.2,0.5-0.3,0.7c0,0,0.1,0.1,0.1,0.1c0.2-0.1,0.4-0.2,0.6-0.4c0.1,0.1,0.3,0.3,0.4,0.4
		c-0.1,0.4-0.3,0.5-0.6,0.5c-0.3,0-0.5,0-0.8,0c0.3,0.2,0.6,0.3,0.9,0.3c0.4,0.1,0.7-0.2,0.8-0.5c0.1-0.3,0-0.5-0.5-0.8
		C65.4,32,65.4,32,65.3,31.9z M67.8,61.4c-0.1-0.1-0.2-0.2-0.3-0.3c-0.7,0.4-1.4,0.7-2.1,1c0,0,0,0,0-0.1c0.4-0.6,0.9-1.1,1.3-1.7
		c-0.1-0.1-0.3-0.2-0.4-0.3c-0.6,0.8-1.1,1.6-1.7,2.4c0.1,0.1,0.2,0.2,0.3,0.3C65.9,62.3,66.9,61.8,67.8,61.4
		c-0.6,0.7-1.3,1.4-2,2.1c0.5,0.4,1,0.7,1.5,1.1c0.1-0.1,0.2-0.2,0.3-0.3c-0.4-0.3-0.8-0.6-1.1-0.9c0.2-0.2,0.4-0.4,0.6-0.5
		c0.4,0.3,0.7,0.5,1,0.7c0.1-0.2,0.2-0.2,0.2-0.3c-0.3-0.3-0.6-0.5-0.9-0.8c0.2-0.2,0.3-0.3,0.5-0.4c0.4,0.2,0.7,0.5,1,0.7
		c0.1-0.1,0.2-0.2,0.3-0.4C68.7,62.1,68.3,61.8,67.8,61.4z M88.6,63.8c0.6,0.7,1.2,1.3,1.8,2c0.1-0.1,0.2-0.2,0.3-0.3
		c-0.2-0.3-0.4-0.5-0.7-0.9c0.3-0.2,0.6-0.3,0.9-0.4c0.2,0.3,0.5,0.6,0.7,0.8c0.2-0.1,0.3-0.2,0.4-0.3c-0.4-0.4-0.7-0.7-1.1-1
		c-0.1-0.7-0.6-1.1-1.2-0.8c-0.4,0.2-0.8,0.5-1.1,0.8c-0.2,0.1-0.3,0.1-0.5,0.2c0.3,0.5,0.6,1,0.8,1.5c0.3,0.5,0.3,0.6-0.4,0.9
		c-0.8-0.4-0.9-1.3-1.5-1.9c-0.1,0.1-0.2,0.1-0.4,0.2c0.4,0.6,0.7,1.2,1.2,1.8c0.4,0.5,1,0.5,1.5,0.1c0.4-0.3,0.4-0.7,0.1-1.2
		c-0.1-0.2-0.3-0.5-0.4-0.7C88.8,64.2,88.7,64,88.6,63.8z M92,46.4c0-6.6-5-12-11.7-12.3c-7.1-0.3-12.5,5.2-12.7,11.8
		c-0.2,6.6,4.8,12.5,12.1,12.6C86.4,58.6,91.9,53.3,92,46.4z M66.7,36.3c0.9,0.8,1.7,1.6,2.6,2.4c0.3-0.4,0.7-0.8,1-1.2
		c-0.6-0.7-1.2-1.3-1.7-2C67.9,35.8,67.4,36.1,66.7,36.3z M89.1,37.3c0.4,0.4,0.7,0.8,1,1.2c0.8-0.5,1.5-0.9,2.3-1.4
		c-0.2-0.7-0.3-1.3-0.5-1.9C91,35.9,90.1,36.6,89.1,37.3z M89.9,33.3c-0.5,0.5-0.9,0.9-1.2,1.3c-0.4,0.4-0.8,0.8-1.2,1.3
		c0.4,0.4,0.8,0.7,1.2,1c0.7-0.6,1.4-1.2,2-1.8C90.4,34.6,90.2,34,89.9,33.3z M92.7,47c0.9,0.2,1.8,0.3,2.7,0.4
		c0.3-0.6,0.6-1.1,0.9-1.8c-1.3-0.1-2.4-0.1-3.6-0.2C92.7,46.1,92.7,46.5,92.7,47z M87.5,31.7c-0.7,1-1.3,2-2,3
		c0.5,0.3,0.9,0.5,1.4,0.8c0.6-0.7,1.1-1.4,1.7-2C88.2,32.9,87.9,32.3,87.5,31.7z M92.4,43.2c0.1,0.5,0.2,1,0.3,1.5
		c0.9,0,1.8,0,2.7,0c0.2-0.6,0.4-1.2,0.6-1.9C94.7,43,93.6,43.1,92.4,43.2z M94,52.7c0.5-0.4,0.9-0.9,1.5-1.4
		c-1.1-0.5-2.2-0.9-3.3-1.4c-0.2,0.5-0.3,1-0.5,1.5C92.5,51.9,93.2,52.3,94,52.7z M68.7,34.1c0.7,1,1.4,1.9,2.1,2.9
		c0.4-0.4,0.8-0.7,1.2-1c-0.5-0.8-0.9-1.5-1.3-2.2C70,33.8,69.4,34,68.7,34.1z M87.7,56.5c0.5,0.8,1,1.6,1.4,2.3
		c0.7-0.2,1.3-0.3,2-0.5c-0.8-1-1.5-1.9-2.2-2.8C88.4,55.9,88.1,56.2,87.7,56.5z M92.7,55.1c0.6-0.4,1.1-0.7,1.7-1.1
		c-1-0.7-2-1.3-3-2c-0.3,0.5-0.5,0.9-0.8,1.3C91.3,53.9,92,54.5,92.7,55.1z M86.2,32.1c-0.4-0.5-0.9-0.9-1.4-1.5
		c-0.5,1.1-0.9,2.2-1.4,3.3c0.5,0.2,1,0.4,1.5,0.5C85.3,33.6,85.8,32.9,86.2,32.1z M65.2,38.8c1,0.7,2,1.3,3,1.9
		c0.3-0.5,0.5-0.9,0.8-1.4c-0.7-0.6-1.4-1.1-2.1-1.6C66.3,38,65.8,38.4,65.2,38.8z M93,56.2c-0.9-0.8-1.8-1.6-2.6-2.4
		c-0.3,0.4-0.7,0.8-1,1.2c0.6,0.7,1.2,1.4,1.8,2C91.8,56.8,92.3,56.5,93,56.2z M78.2,30.9c-0.8-0.4-1.4-0.6-1.9-0.5
		c0.1,1.1,0.3,2.2,0.4,3.4c0.5-0.1,1-0.2,1.5-0.3C78.2,32.6,78.2,31.7,78.2,30.9z M71.2,59.3c0.4,0.5,0.7,1.1,1.1,1.7
		c0.7-1,1.3-2,1.9-3c-0.5-0.3-0.9-0.5-1.4-0.8C72.3,58,71.7,58.6,71.2,59.3z M71.1,32.4c0.5,1.1,1,2.1,1.6,3.2
		c0.5-0.3,0.9-0.5,1.4-0.8c-0.3-0.8-0.6-1.6-0.9-2.4C72.4,32.4,71.8,32.4,71.1,32.4z M91.6,41.1c0.2,0.5,0.4,1,0.5,1.4
		c0.9-0.2,1.8-0.3,2.6-0.5c0.1-0.7,0.2-1.3,0.3-2C93.9,40.4,92.8,40.7,91.6,41.1z M92.4,49.3c0.9,0.3,1.7,0.6,2.5,0.9
		c0.4-0.5,0.8-1,1.2-1.6c-1.2-0.3-2.3-0.5-3.5-0.8C92.5,48.3,92.5,48.7,92.4,49.3z M93.8,37.5c-1.1,0.6-2.2,1.1-3.2,1.6
		c0.3,0.5,0.5,0.9,0.8,1.3c0.8-0.3,1.7-0.6,2.5-0.9C93.8,38.9,93.8,38.3,93.8,37.5z M67.8,57.6c1-0.8,1.9-1.5,2.8-2.2
		c-0.4-0.4-0.7-0.8-1.1-1.1c-0.8,0.5-1.5,0.9-2.2,1.4C67.5,56.3,67.6,56.8,67.8,57.6z M67.3,42.8c0.2-0.5,0.3-1,0.5-1.5
		c-0.8-0.5-1.5-0.9-2.3-1.3c-0.5,0.5-0.9,1-1.3,1.4C65.2,41.9,66.2,42.4,67.3,42.8z M82.8,33.7c0.3-0.9,0.6-1.7,0.9-2.5
		c-0.5-0.4-1-0.9-1.6-1.2c-0.3,1.2-0.5,2.3-0.8,3.4C81.8,33.5,82.3,33.6,82.8,33.7z M80.9,30.8c-0.6-0.3-1.2-0.6-1.8-0.9
		c-0.1,1.2-0.1,2.4-0.2,3.5c0.6,0,1,0,1.6-0.1C80.6,32.5,80.8,31.7,80.9,30.8z M87.1,57c-0.5,0.3-0.9,0.6-1.3,0.8
		c0.3,0.9,0.7,1.7,1,2.5c0.7,0,1.3-0.1,2-0.1C88.2,59,87.6,58,87.1,57z M75.7,31.3c-0.6-0.1-1.2-0.2-2-0.3c0.3,1.2,0.7,2.3,1,3.4
		c0.5-0.2,1-0.4,1.5-0.6C76,33,75.8,32.2,75.7,31.3z M83.1,58.9c-0.6,0.1-1,0.2-1.4,0.3c0,0.9,0,1.8,0,2.7c0.6,0.2,1.2,0.4,1.9,0.6
		C83.4,61.1,83.2,60,83.1,58.9z M69.8,59.4c0.9-0.9,1.6-1.8,2.4-2.6c-0.4-0.3-0.8-0.7-1.2-1c-0.7,0.6-1.3,1.1-2,1.7
		C69.3,58.1,69.5,58.7,69.8,59.4z M86.3,61.5c-0.4-1.2-0.7-2.3-1.1-3.4c-0.5,0.2-0.9,0.4-1.4,0.6c0.2,0.9,0.4,1.7,0.5,2.6
		C84.9,61.3,85.5,61.4,86.3,61.5z M77.1,58.9c-0.3,0.8-0.6,1.6-0.9,2.5c0.5,0.4,1,0.8,1.6,1.2c0.3-1.2,0.5-2.3,0.8-3.4
		C78.1,59.1,77.7,59,77.1,58.9z M75.1,62.1c0.5-1.1,0.9-2.2,1.3-3.3c-0.5-0.2-1-0.3-1.5-0.5c-0.4,0.8-0.8,1.5-1.2,2.3
		C74.2,61.1,74.6,61.6,75.1,62.1z M80.6,62.8c0.1-1.2,0.1-2.4,0.2-3.6c-0.6,0-1.1,0.1-1.5,0.1c-0.1,0.9-0.3,1.7-0.4,2.6
		C79.4,62.2,80,62.4,80.6,62.8z M67.4,50.3c-0.9,0.2-1.7,0.4-2.5,0.5c-0.1,0.7-0.1,1.3-0.2,2c1.2-0.4,2.2-0.7,3.3-1
		C67.8,51.2,67.6,50.7,67.4,50.3z M66.1,55.4c1.1-0.6,2.1-1.1,3.1-1.6c-0.3-0.5-0.5-0.9-0.8-1.3c-0.8,0.3-1.6,0.7-2.5,1
		C66,54.1,66,54.7,66.1,55.4z M67.1,43.4c-0.9-0.3-1.6-0.6-2.4-0.9c-0.4,0.5-0.8,1-1.2,1.6c1.2,0.3,2.3,0.5,3.4,0.8
		C67,44.4,67,44,67.1,43.4z M66.8,45.7c-0.9-0.1-1.7-0.3-2.5-0.4c-0.3,0.6-0.6,1.1-0.9,1.8c1.2,0.1,2.3,0.1,3.4,0.2
		C66.8,46.8,66.8,46.3,66.8,45.7z M63.8,50.2c1.2-0.2,2.3-0.3,3.4-0.5c-0.1-0.5-0.2-1-0.3-1.4c-0.9,0-1.7,0-2.6,0
		C64.2,48.9,64,49.5,63.8,50.2z M80.9,25.2c0,0.2-0.1,0.3-0.1,0.5c-0.2,0-0.3,0.1-0.6,0.1c0.2,0.7,0.4,1.3,0.9,1.8
		c0.1-0.5-0.4-0.8-0.4-1.2c0.2-0.1,0.3-0.2,0.5-0.3c0.3,0.1,0.5,0.2,0.7,0.3c0,1,0,1,0.4,1.2c0.1-0.7,0.2-1.5,0.3-2.2
		c0.1-0.1,0.2-0.2,0.3-0.3c0,0,0-0.1,0-0.1c-0.9-0.2-1.8-0.3-2.8-0.3C80.3,25.2,80.7,25,80.9,25.2z M94.9,62.5
		c-0.5-0.4-0.9-0.8-1.3-1.1c-0.2,0.2-0.5,0.4-0.7,0.7c0.1,0.1,0.2,0.2,0.3,0.2c0.2-0.1,0.3-0.2,0.5-0.3c0.2,0.2,0.3,0.4,0.1,0.7
		c-0.2,0.3-0.5,0.4-0.8,0.3c-0.3-0.1-0.6-0.3-0.9-0.5C92,62.3,91.8,62,92,61.7c0.1-0.3,0.4-0.4,0.7-0.4c0.2,0,0.4-0.1,0.5-0.1
		c0-0.1,0-0.1,0-0.2c-0.3,0-0.6-0.1-0.9-0.1c-0.8,0.1-1.1,0.8-0.7,1.5c0.3,0.4,0.6,0.8,1.1,1c0.4,0.2,0.8,0.2,1.1,0
		c0.4-0.2,0.6-0.5,0.5-0.8C94.5,62.6,94.6,62.6,94.9,62.5z M68,65c0.4-0.5,0.9-1,1.3-1.5c0,0.6-0.2,1.1-0.3,1.6
		c-0.1,0.3-0.1,0.5,0.4,0.6c0.6-0.7,1.2-1.4,1.8-2.1c-0.2-0.1-0.2-0.2-0.4-0.2c-0.4,0.5-0.8,1-1.2,1.4c0,0-0.1,0-0.1,0
		c0.1-0.6,0.3-1.3,0.4-1.9c-0.2-0.1-0.3-0.2-0.4-0.2c-0.6,0.7-1.1,1.3-1.6,1.9C67.7,64.7,67.7,64.9,68,65z M85.6,64.8
		c-0.8,0-1.3,0.6-1.1,1.4c0.1,0.3,0.3,0.7,0.5,1c0.6,0.7,1.8,0.5,2.1-0.3C87.4,66,86.5,64.8,85.6,64.8z M78.3,68.5
		c0.3-0.5,0.3-1,0.3-1.5c-0.4,0-0.6-0.1-0.9-0.1c-0.2,0.5,0.4,0.3,0.4,0.6c-0.4,0.6-1,0.6-1.3,0.1c-0.2-0.3,0-1.2,0.3-1.5
		c0.4-0.3,0.6-0.2,0.9,0.1c0.2,0.2,0.3,0.3,0.6,0.2c0.1-0.4-0.2-0.7-0.5-0.8c-0.6-0.3-1.2-0.1-1.6,0.4c-0.4,0.6-0.4,1.5,0,2
		c0.1,0.1,0.2,0.2,0.3,0.2c0.4,0.2,0.8,0.1,1.2-0.2C78.1,68.2,78.2,68.3,78.3,68.5z M97.5,59.6c0.2-0.3,0.3-0.5,0.5-0.8
		c0.2-0.3,0.2-0.6,0-0.9C97.4,57.3,96.8,57,96,57c-0.2,0-0.5,0.1-0.7,0.2c-0.3,0.3-0.4,0.6-0.6,1C95.7,58.7,96.5,59.2,97.5,59.6z
		 M65,58.5c-0.3-0.5-0.6-0.9-1-1.3c-0.9,0.5-1.8,0.9-2.7,1.5c0.4,0.5,0.7,0.9,1,1.4c0.1-0.1,0.3-0.1,0.4-0.2
		c-0.2-0.4-0.5-0.7-0.7-1.1c0.3-0.1,0.5-0.3,0.7-0.4c0.2,0.2,0.4,0.5,0.6,0.7c0.2,0.3,0.4,0.2,0.5-0.1c-0.2-0.3-0.4-0.6-0.6-0.9
		c0.2-0.1,0.4-0.2,0.6-0.3c0.3,0.3,0.5,0.7,0.8,1C64.7,58.6,64.8,58.6,65,58.5z M97.7,56.8c0.2-0.4,0.3-0.7,0.5-1
		c-0.2,0-0.3-0.1-0.5-0.1c-0.2,0.3-0.3,0.6-0.5,1c-0.2-0.1-0.4-0.2-0.6-0.3c0.2-0.4,0.3-0.7,0.5-1.1c-0.2-0.1-0.3-0.1-0.5-0.2
		c-0.3,0.5-0.5,1-0.7,1.5c1,0.4,1.9,0.7,2.9,1.1c0.3-0.5,0.5-1,0.8-1.5c-0.2-0.1-0.3-0.1-0.5-0.1c-0.2,0.4-0.4,0.7-0.6,1.1
		C98.2,57,98,56.9,97.7,56.8z M72.6,65.3c0.3-0.7,0.2-0.9-0.2-1.2c-0.5-0.3-1-0.2-1.4,0.3c-0.3,0.4-0.2,0.6,0.2,1
		c0.2,0.2,0.4,0.4,0.6,0.6c-0.6,0.5-1,0.4-1.1-0.2c-0.1-0.2-0.1-0.3-0.3-0.3c-0.2,0.5-0.1,0.9,0.3,1c0.3,0.1,0.6,0.2,0.9,0.2
		c0.4,0,0.6-0.3,0.7-0.6c0.1-0.3,0-0.5-0.2-0.7c-0.1-0.1-0.2-0.2-0.4-0.3c-0.2-0.1-0.3-0.3-0.2-0.5c0.2-0.2,0.4-0.2,0.6,0
		c0.1,0.1,0.2,0.2,0.3,0.4C72.4,64.9,72.5,65.1,72.6,65.3z M77.1,27c0.1,0.4,0.1,0.7,0.6,0.6c-0.1-0.4-0.1-0.7-0.2-1.1
		c-0.1-0.5-0.3-1.1,0.1-1.6C76.8,25,76,25,75.3,25.3c0,0,0,0.2-0.1,0.3c0.3,0,0.4,0,0.7-0.1c0.1,0.2,0.2,0.3,0.1,0.4
		c-0.1,0.2-0.3,0.4-0.5,0.6C75.9,27.3,76.2,27.4,77.1,27z M93,60.2c-0.1,0.1-0.2,0.2-0.3,0.3c0.3,0.2,0.5,0.3,0.7,0.4
		c0.4,0.3,0.8,0.5,1.2,0.7c0.5,0.3,1.2,0.1,1.5-0.4c0.2-0.4,0.1-0.8-0.5-1.2c-0.5-0.3-1-0.7-1.5-1c0,0-0.1,0-0.2,0
		c-0.1,0.1-0.1,0.2-0.2,0.3c0.6,0.6,1.4,0.8,1.9,1.4c-0.3,0.6-0.5,0.6-0.9,0.3C94.2,60.9,93.6,60.6,93,60.2z M63.2,55.8
		c-0.1-0.3-0.2-0.4-0.5-0.3c-0.8,0.3-1.6,0.7-2.5,1c0.1,0.1,0.1,0.2,0.2,0.4c0.5-0.2,0.9-0.3,1.3-0.5c0.2,0.3,0.3,0.5,0.4,0.8
		c-0.4,0.2-0.8,0.4-1.2,0.6c0.1,0.4,0.3,0.3,0.5,0.2c0.7-0.3,1.3-0.5,2-0.8c0.1-0.1,0.3-0.2,0.5-0.3c-0.5-0.4-0.9,0.2-1.4,0.1
		c-0.1-0.2-0.3-0.5-0.4-0.8C62.5,56,62.8,55.9,63.2,55.8z M64,61.9c0.7-0.8,1.3-1.5,1.9-2.3c-0.2-0.1-0.3-0.3-0.4-0.4
		c-1,0.3-2,0.7-2.9,1c0.2,0.6,0.6,0.1,1,0.3c0.1,0.1,0.3,0.3,0.5,0.5c-0.1,0.2-0.3,0.3-0.4,0.5C63.8,61.6,63.9,61.7,64,61.9z
		 M67.4,29c0.5-0.3,0.9-0.6,1.4-0.9c0.1,0.2,0.2,0.4,0.3,0.5c-0.3,0.4-0.9,0.4-1.1,1.1c0.3,0.1,0.6,0.2,0.9,0.3
		c0-0.3-0.1-0.4-0.1-0.6c0.2-0.1,0.3-0.2,0.5-0.3c0.5,0.2,0.5,1,1.3,0.8c-0.4-0.7-0.9-1.3-1.2-1.9c0-0.2,0-0.4,0.1-0.7
		c-0.8,0.5-1.5,1-2.2,1.4C67.3,28.8,67.4,28.9,67.4,29z M83.5,25.1c0,0.4,0,0.7-0.1,1.1c-0.1,0.4,0.2,0.9,0.6,1c0.1,0,0.3,0,0.4,0.1
		c-0.1,0.4-0.3,0.8,0.3,1c0.2-0.8,0.4-1.6,0.5-2.2c0.2-0.2,0.3-0.3,0.5-0.4C84.9,25.3,84.2,25.1,83.5,25.1z M79.5,68.4
		c0-0.4,0-0.8,0-1.2c0.4,0,0.7,0,1,0c0,0.4,0.1,0.8,0.1,1.2c0.2,0,0.3,0,0.4-0.1c0-0.9,0-1.7,0-2.6c-0.5,0.1-0.5,0.1-0.5,1
		c-0.3,0-0.7,0-1,0c0-0.3-0.1-0.6-0.1-1c-0.2,0-0.3,0-0.4,0c0,0.9,0,1.7,0,2.6C79.2,68.4,79.3,68.4,79.5,68.4z M73.5,27.2
		c0.3-0.1,0.5-0.1,0.7-0.2c0.1,0.3,0.2,0.5,0.2,0.7c0.1,0.3,0.2,0.5,0.6,0.4c0-0.1,0-0.3-0.1-0.4c-0.2-0.8-0.6-1.5-0.4-2.4
		c-0.8,0.2-1.6,0.5-2.4,0.7c0,0.1,0,0.2,0,0.3c0.5,0,1-0.3,1.6-0.3c0.1,0.2,0.1,0.4,0.2,0.6c-0.5,0.2-0.9,0.3-1.4,0.5
		c0.4,0.5,0.7,0.7,0.9,0.6C73.6,27.5,73.5,27.4,73.5,27.2z M83.3,65.4c-0.7,0.1-1.3,0.2-2,0.3c0.1,0.6,0.6,0.2,0.8,0.4
		c0.1,0.6,0.3,1.3,0.5,2c0.2,0,0.3,0,0.5-0.1c-0.2-0.7-0.3-1.4-0.5-2.1C82.9,65.8,83.4,66,83.3,65.4z M73.9,64.8
		c-0.3,0.9-0.6,1.7-0.9,2.6c0.6,0.2,1.1,0.3,1.7,0.4c0-0.2,0.1-0.3,0.1-0.4c-0.4-0.1-0.8-0.2-1.2-0.4c0.3-0.7,0.5-1.4,0.7-2.1
		C74.2,64.9,74.1,64.9,73.9,64.8z M92.7,29.3c-0.2-0.4-1.1-1.2-1.3-1.1c0,0.1-0.1,0.1-0.1,0.2c0.2,0.2,0.4,0.3,0.6,0.5
		c-0.2,0.2-0.3,0.4-0.4,0.6c-0.2-0.1-0.3-0.2-0.4-0.2c-0.3,0.6-0.3,1.5,0.1,2.1c0-0.5,0-0.8-0.1-1.2c0.6-0.1,1-0.3,1.2-0.9
		c0.1,0,0.2,0,0.3,0.1C92.5,29.3,92.6,29.3,92.7,29.3z M92,32c0.5-0.6,1-1.2,1.5-1.8c0.1,0,0.2,0.1,0.3,0.1c0.1-0.1,0.1-0.2,0.2-0.3
		c-0.3-0.2-0.6-0.4-0.9-0.8c0,0.3,0,0.5,0,0.7c-0.4,0.5-0.8,1-1.2,1.5c0,0.1,0.1,0.3,0.1,0.4C91.8,31.9,91.9,31.9,92,32z M88.7,27.2
		c-0.3,0.6-0.6,1.2-0.9,1.9c0.1,0.2,0.2,0.3,0.3,0.5c0.3-0.5,0.5-1,0.7-1.5c0.2-0.3,0.2-0.7,0.7-0.8c0,0,0-0.1,0.1-0.2
		c-0.3-0.2-0.7-0.3-1-0.5c0,0-0.1,0.1-0.1,0.1C88.6,26.9,88.6,27,88.7,27.2z M75.6,68c0.2-0.9,0.5-1.7,0.7-2.6
		c-0.2,0-0.3-0.1-0.5-0.1c-0.2,0.9-0.5,1.7-0.7,2.6C75.3,68,75.4,68,75.6,68z M94.3,58.7c0,0.1,0,0.1,0,0.2c0.8,0.5,1.7,1,2.5,1.5
		c0.1-0.1,0.2-0.2,0.3-0.3c-0.8-0.5-1.6-1-2.4-1.4C94.6,58.5,94.4,58.6,94.3,58.7z M67.6,30.6c0,0,0.1-0.1,0.1-0.1
		c-0.2-0.2-0.3-0.4-0.5-0.7c-0.1-0.2-0.2-0.5-0.3-0.8c-0.4,0.3-0.7,0.6-1,0.8c0.3,0.5,0.5-0.1,0.7,0c0.1,0.1,0.2,0.2,0.2,0.3
		c-0.1,0.2-0.1,0.3-0.2,0.5C67.1,30.6,67.4,30.6,67.6,30.6z M80.2,27.8c0.3,0.5,0.6,0.9,1.2,1c0.2,0.1,0.4,0.1,0.7,0
		c0.3-0.1,0.5-0.3,0.5-0.6c-0.1-0.3-0.2-0.5-0.5-0.6c-0.3,0-0.6,0-0.8,0.4c0.4,0,0.7-0.4,1,0C82,28.9,81.6,28.8,80.2,27.8z"/>
	<path class="st1" d="M90.7,46.1c0.1,5.8-4.4,10.8-10.3,11.2c-6.1,0.4-11.3-4.4-11.6-10.3c-0.4-6,4.2-11.2,10.2-11.6
		C85.3,34.9,90.5,39.8,90.7,46.1z M84.3,50.8c0.1-0.1,0.2-0.1,0.3-0.2c0.4-0.6,0.9-1.2,1.2-1.9c0.5-1.1,0.7-2.3,0.4-3.6
		c-0.1,0.3-0.2,0.6-0.3,0.8c0-0.2,0.1-0.4,0.1-0.7c-0.7,0.7-1.4,1.4-2.1,2.2c-0.1,0.1-0.1,0.3-0.1,0.5c0.1,0.8,0.2,1.6,0.3,2.3
		c0,0.2,0.1,0.3,0.2,0.5c0,0.1,0,0.1,0.1,0.2C84.3,51,84.3,50.9,84.3,50.8z M80.6,40c0,0-0.1,0-0.1,0.1c0,0,0.1,0,0.1,0.1
		c0,0.1,0,0.1,0,0.2c0.5,0.8,0.9,1.6,1.4,2.5c0.1,0.2,0.3,0.3,0.6,0.4c0.9,0.2,1.7,0.4,2.5,0.5c0.1,0,0.3-0.1,0.4-0.1
		c0,0,0-0.1,0-0.1c-0.2-0.4-0.3-0.8-0.5-1.1c-1.1-1.5-2.6-2.4-4.5-2.6C80.6,39.9,80.6,40,80.6,40z M79,40.2C79,40.1,79,40.1,79,40.2
		c0.1-0.1,0-0.1,0-0.1c0-0.1,0-0.1,0-0.2c-1.9,0-4.5,1.7-5.2,3.8c0.1,0,0.1,0,0.2,0l0,0c0.1,0,0.2,0.1,0.3,0.1
		c1-0.2,2.1-0.4,3.1-0.7c0.4-0.6,0.7-1.2,1.1-1.8C78.7,40.9,78.8,40.5,79,40.2z M83.3,55.4c3.9-1.3,7.1-5.8,6.1-10.8
		c-0.9-5-5.4-8.6-10.7-8c-4.8,0.5-8.8,4.6-8.7,9.9c0.1,4.9,3.7,8.4,7,9.2c0.2-0.7,0.4-1.4,0.3-2.1c-0.3-0.1-0.5-0.2-0.8-0.4
		c-3.3-1.5-5-5.1-4.2-8.6c0.7-3.1,3.5-5.5,6.6-5.8c3.3-0.3,6,1.3,7.5,3.9c2,3.6,0.7,8.1-2.8,10.2c-0.2,0.1-0.5,0.3-0.7,0.4
		C83.3,54.2,83.3,54.2,83.3,55.4z M79.8,49.6c1.1,0.5,2.2,1,3.4,1.5C83.1,50,83,49,82.9,48c-0.1-0.4,0-0.8,0.4-1.1
		c0.7-0.7,1.3-1.5,2.1-2.2c-0.2-0.1-0.4-0.1-0.5-0.2c-0.8-0.2-1.6-0.4-2.4-0.5c-0.5-0.1-0.8-0.3-1-0.7c-0.5-0.9-1-1.7-1.5-2.7
		c-0.6,1.1-1.3,2.2-1.9,3.2c-1.2,0.3-2.4,0.5-3.6,0.8c0.2,0.3,0.4,0.5,0.5,0.6c0.5,0.6,1.1,1.2,1.6,1.8c0.2,0.2,0.3,0.4,0.3,0.7
		c-0.1,0.7-0.1,1.3-0.2,2c0,0.4-0.1,0.8-0.1,1.3C77.6,50.6,78.7,50.1,79.8,49.6z M75.5,51.2c0.1-1.1,0.3-2.2,0.4-3.3
		c0-0.2-0.1-0.4-0.2-0.5c-0.6-0.7-1.3-1.4-2-2.2c-0.1-0.1-0.2-0.2-0.3-0.3C72.8,47.2,73.8,50,75.5,51.2z M76.6,52
		c1.9,1.2,5,1.1,6.3,0c0,0-0.1-0.1-0.1-0.1c-0.9-0.4-1.8-0.8-2.7-1.2c-0.1-0.1-0.3-0.1-0.5,0C78.6,51,77.6,51.5,76.6,52z M81.7,55.9
		c0.1-0.8,0.3-1.5-0.3-2.2c-0.6,0.1-1.1,0.1-1.7,0.2c0.4,0.7,0.3,1.4,0,2.1c0.3,0,0.5,0,0.8,0C80.8,56,81.2,56,81.7,55.9z
		 M77.7,55.9c0.4,0.1,0.9,0.1,1.2,0.2c0.5-0.8,0.6-1.5,0.1-2.2c-0.3-0.1-0.7-0.1-1-0.2C77.9,54.5,77.8,55.1,77.7,55.9z M82,53.6
		c0.1,0.4,0.3,0.7,0.4,1.1c0.1,0.3-0.2,0.7,0.1,1.1c0.4-0.7,0.5-1.6-0.2-2.2C82.2,53.5,82.1,53.5,82,53.6z"/>
	<path class="st1" d="M81.4,26c0-0.3,0-0.5,0-0.8c0.2,0,0.4,0,0.7,0.1c0,0.2,0,0.5,0,0.7C81.8,26,81.6,26,81.4,26z"/>
	<path class="st1" d="M90.5,63.7c-0.4,0.2-0.6,0.4-0.9,0.6c-0.2-0.2-0.3-0.4-0.5-0.6c0.3-0.2,0.5-0.3,0.8-0.5
		C90.1,63.3,90.3,63.5,90.5,63.7z"/>
	<path class="st1" d="M88.6,63.8c0,0-0.1-0.1-0.1-0.1C88.5,63.7,88.5,63.8,88.6,63.8z"/>
	<path class="st1" d="M85.6,65.2c0.6,0,1.2,0.9,1,1.4c-0.1,0.4-0.7,0.7-1,0.4c-0.4-0.3-0.6-0.7-0.6-1.2
		C84.9,65.5,85.3,65.2,85.6,65.2z"/>
	<path class="st1" d="M95.9,57.5c0.8,0,1.3,0.3,1.8,0.9c-0.1,0.2-0.3,0.4-0.4,0.7c-0.6-0.3-1.2-0.6-1.9-0.9
		C95.6,57.9,95.7,57.7,95.9,57.5z"/>
	<path class="st1" d="M94.6,31.2c0.2,0.2,0.3,0.4,0.5,0.6c-0.3,0.3-0.5,0.8-1,0.7c-0.3,0-0.6-0.2-0.6-0.7
		C93.9,31.9,94.3,31.8,94.6,31.2z"/>
	<path class="st1" d="M76.1,25.4c0.3,0,0.5-0.1,0.7-0.1c0.1,0.5,0.4,0.9-0.1,1.3c-0.3,0.2-0.4,0.2-0.9,0.1
		C76.4,26.4,76.3,26,76.1,25.4z"/>
	<path class="st1" d="M64.4,60.7c-0.2-0.2-0.3-0.3-0.4-0.5c0.4-0.1,0.7-0.3,1.1-0.4c0,0,0.1,0.1,0.1,0.1
		C64.9,60.1,64.7,60.4,64.4,60.7z"/>
	<path class="st1" d="M84,25.5c0.3,0.1,0.5,0.1,0.6,0.2c0,1-0.1,1.1-0.9,1C83.9,26.3,84,25.9,84,25.5z"/>
	<path class="st1" d="M86.2,26.6c0-0.1-0.1-0.2-0.1-0.3c0,0,0,0,0-0.1c0.1-0.1,0.1-0.4,0.4-0.3c0.1,0,0.2,0.2,0.2,0.3
		C86.6,26.6,86.5,26.7,86.2,26.6z"/>
	<path class="st1" d="M80.1,44.1c0.5,0,1,0,1.4,0c0.1,0.4,0.3,0.8,0.4,1.3c0.7-0.2,1.4-0.4,2.1-0.6c0.1,0.2,0.1,0.3,0.2,0.5
		c-0.7,0.2-1.4,0.4-2.2,0.6c0.1,0.4,0.2,0.9,0.3,1.4c-0.3,0.2-0.6,0.4-1,0.7c0.4,0.6,0.9,1.2,1.3,1.8c-0.1,0.1-0.2,0.2-0.4,0.3
		c-0.5-0.6-0.9-1.2-1.4-1.9c-0.4,0.3-0.8,0.5-1.2,0.8c-0.4-0.2-0.7-0.5-1.1-0.7c-0.5,0.6-0.9,1.2-1.4,1.9c-0.1-0.2-0.2-0.3-0.3-0.4
		c0.4-0.6,0.8-1.1,1.3-1.8c-0.3-0.3-0.7-0.5-1-0.8c0.1-0.4,0.2-0.8,0.3-1.3c-0.7-0.2-1.4-0.5-2.1-0.7c0.1-0.2,0.1-0.3,0.2-0.5
		c0.7,0.2,1.4,0.4,2.1,0.7c0.1-0.4,0.3-0.9,0.4-1.3c0.4,0,0.9,0,1.4,0c0-0.8,0-1.5,0-2.2c0.2,0,0.4,0,0.6,0
		C80.1,42.5,80.1,43.3,80.1,44.1z M77.7,47.1c0.7,0.5,1.4,1,2.1,1.5c0.7-0.5,1.4-0.9,2.1-1.4c-0.2-0.9-0.5-1.7-0.7-2.5
		c-0.9,0-1.8,0-2.7,0C78.2,45.5,77.9,46.3,77.7,47.1z"/>
	<path class="st1" d="M74.5,43.3c0.1-0.1,0.3-0.1,0.4-0.2c0,0,0,0,0,0C74.8,43.1,74.6,43.2,74.5,43.3C74.5,43.2,74.5,43.3,74.5,43.3
		z"/>
	<path class="st1" d="M75.9,42.3c0.1-0.1,0.3-0.1,0.4-0.2l0,0C76.1,42.1,76,42.2,75.9,42.3L75.9,42.3z"/>
	<path class="st1" d="M77.1,41.4c-0.1,0.1-0.2,0.2-0.4,0.2c0,0,0,0,0,0C76.9,41.6,77,41.5,77.1,41.4L77.1,41.4z"/>
	<path class="st1" d="M76.4,41.9c0.1,0,0.2,0,0.3-0.1c0,0,0,0,0,0C76.5,41.8,76.4,41.8,76.4,41.9C76.3,41.9,76.4,41.9,76.4,41.9z"/>
	<path class="st1" d="M74.1,43.5c0.1,0,0.2,0,0.3-0.1l0,0C74.3,43.4,74.2,43.5,74.1,43.5L74.1,43.5z"/>
	<path class="st1" d="M78.5,40.4c-0.1,0-0.2,0.1-0.3,0.1l0,0C78.3,40.5,78.4,40.5,78.5,40.4L78.5,40.4z"/>
	<path class="st1" d="M78,40.8c-0.1,0-0.2,0-0.3,0.1l0,0C77.8,40.9,77.9,40.8,78,40.8C78,40.8,78,40.8,78,40.8z"/>
	<path class="st1" d="M79,40c0,0,0,0.1,0,0.1c-0.1,0-0.2,0-0.3,0l0,0C78.8,40.1,78.9,40.1,79,40z"/>
	<path class="st1" d="M75.8,42.4c-0.1,0-0.2,0-0.3,0.1l0,0C75.6,42.5,75.7,42.5,75.8,42.4L75.8,42.4z"/>
	<path class="st1" d="M75.3,42.8c-0.1,0-0.2,0-0.3,0.1l0,0C75.1,42.9,75.2,42.8,75.3,42.8L75.3,42.8z"/>
	<path class="st1" d="M77.3,41.3C77.3,41.3,77.3,41.2,77.3,41.3C77.3,41.2,77.3,41.2,77.3,41.3L77.3,41.3z"/>
	<path class="st1" d="M74,43.7c0-0.1,0.1-0.1,0.1-0.2l0,0C74.1,43.5,74,43.6,74,43.7L74,43.7z"/>
	<polygon class="st1" points="77.6,41 77.6,41.1 77.6,41.1 	"/>
	<path class="st1" d="M74.4,43.4c0-0.1,0.1-0.1,0.1-0.2l0,0C74.5,43.3,74.4,43.4,74.4,43.4L74.4,43.4z"/>
	<path class="st1" d="M75,42.9c0,0.1-0.1,0.1-0.1,0.2c0,0,0,0,0,0C74.9,43,75,42.9,75,42.9L75,42.9z"/>
	<path class="st1" d="M75.4,42.7c0,0-0.1,0.1-0.1,0.1c0,0,0,0,0,0C75.3,42.8,75.4,42.7,75.4,42.7C75.4,42.7,75.4,42.7,75.4,42.7z"/>
	<path class="st1" d="M77.7,40.9c0,0.1-0.1,0.1-0.1,0.2c0,0,0,0,0,0C77.7,41,77.7,40.9,77.7,40.9L77.7,40.9z"/>
	<path class="st1" d="M76.3,41.9c0,0.1-0.1,0.1-0.1,0.2l0,0C76.3,42,76.3,41.9,76.3,41.9C76.4,41.9,76.3,41.9,76.3,41.9z"/>
	<path class="st1" d="M75.8,42.4c0-0.1,0.1-0.1,0.1-0.2l0,0C75.8,42.3,75.8,42.4,75.8,42.4C75.8,42.4,75.8,42.4,75.8,42.4z"/>
	<path class="st1" d="M76.6,41.8c0-0.1,0.1-0.1,0.1-0.2l0,0C76.7,41.7,76.7,41.8,76.6,41.8L76.6,41.8z"/>
	<path class="st1" d="M78.7,40.1c0,0-0.1,0.1-0.1,0.1l0,0C78.7,40.2,78.7,40.2,78.7,40.1L78.7,40.1z"/>
	<path class="st1" d="M78.6,40.3c0,0.1-0.1,0.1-0.1,0.2c0,0,0,0,0,0C78.6,40.4,78.6,40.3,78.6,40.3C78.6,40.3,78.6,40.3,78.6,40.3z"
		/>
	<path class="st1" d="M75.4,42.7c0-0.1,0.1-0.1,0.1-0.2l0,0C75.4,42.5,75.4,42.6,75.4,42.7L75.4,42.7z"/>
	<path class="st1" d="M77.2,41.3c0,0.1-0.1,0.1-0.1,0.2c0,0,0,0,0,0C77.2,41.4,77.2,41.3,77.2,41.3L77.2,41.3z"/>
	<path class="st1" d="M78.1,40.7c0,0,0.1-0.1,0.1-0.1c0,0,0,0,0,0C78.2,40.6,78.2,40.6,78.1,40.7C78.1,40.7,78.1,40.7,78.1,40.7z"/>
	<path class="st1" d="M78.1,40.7c0,0-0.1,0.1-0.1,0.1c0,0,0,0,0,0C78.1,40.8,78.1,40.7,78.1,40.7C78.1,40.7,78.1,40.7,78.1,40.7z"/>
	<path class="st1" d="M84.3,42.8c0.1,0.1,0.3,0.2,0.4,0.3C84.6,42.9,84.5,42.9,84.3,42.8z"/>
	<path class="st1" d="M84.8,43.1c0.1,0.1,0.3,0.2,0.4,0.3C85.1,43.3,85,43.2,84.8,43.1z"/>
	<path class="st1" d="M83.5,42.1c0.1,0.1,0.3,0.2,0.4,0.3C83.7,42.3,83.6,42.2,83.5,42.1z"/>
	<path class="st1" d="M82.5,41.4c0.1,0.1,0.3,0.2,0.4,0.3C82.7,41.6,82.6,41.5,82.5,41.4z"/>
	<path class="st1" d="M82.1,41.1c0.1,0,0.2,0.1,0.3,0.1C82.3,41.2,82.2,41.2,82.1,41.1z"/>
	<path class="st1" d="M80.6,40.2c0,0,0-0.1,0-0.1c0.1,0,0.2,0.1,0.3,0.1C80.8,40.2,80.7,40.2,80.6,40.2z"/>
	<path class="st1" d="M81.1,40.4c0.1,0,0.2,0.1,0.3,0.1C81.3,40.5,81.2,40.4,81.1,40.4z"/>
	<path class="st1" d="M85.6,43.5c0,0,0,0.1,0,0.1c-0.1,0-0.2-0.1-0.3-0.1C85.4,43.5,85.5,43.5,85.6,43.5z"/>
	<path class="st1" d="M81.6,40.8c0.1,0,0.2,0.1,0.3,0.1C81.8,40.9,81.7,40.8,81.6,40.8z"/>
	<path class="st1" d="M83.1,41.9c0.1,0,0.2,0.1,0.3,0.1C83.3,42,83.2,41.9,83.1,41.9z"/>
	<path class="st1" d="M84,42.5c0.1,0,0.2,0.1,0.3,0.1C84.1,42.6,84,42.6,84,42.5z"/>
	<path class="st1" d="M85.2,43.4c0,0,0.1,0.1,0.1,0.1C85.3,43.5,85.2,43.4,85.2,43.4z"/>
	<path class="st1" d="M82,41c0,0,0.1,0.1,0.1,0.1C82.1,41.1,82,41.1,82,41z"/>
	<path class="st1" d="M84.7,43c0,0,0.1,0.1,0.1,0.1C84.8,43.1,84.7,43.1,84.7,43z"/>
	<path class="st1" d="M81.8,40.9c0,0,0.1,0.1,0.1,0.1C81.9,41,81.9,40.9,81.8,40.9z"/>
	<path class="st1" d="M84.2,42.6c0,0,0.1,0.1,0.1,0.1C84.3,42.7,84.3,42.7,84.2,42.6z"/>
	<path class="st1" d="M83,41.8c0,0,0.1,0.1,0.1,0.1C83.1,41.9,83,41.8,83,41.8z"/>
	<path class="st1" d="M83.3,42c0,0,0.1,0.1,0.1,0.1C83.4,42.1,83.4,42.1,83.3,42z"/>
	<path class="st1" d="M82.8,41.6c0,0,0.1,0.1,0.1,0.1C82.9,41.7,82.9,41.7,82.8,41.6z"/>
	<path class="st1" d="M83.8,42.4c0,0,0.1,0.1,0.1,0.1C83.9,42.5,83.9,42.4,83.8,42.4z"/>
	<path class="st1" d="M80.8,40.1c0,0,0.1,0.1,0.1,0.1C80.9,40.2,80.9,40.2,80.8,40.1z"/>
	<path class="st1" d="M82.3,41.3c0,0,0.1,0.1,0.1,0.1C82.4,41.4,82.4,41.3,82.3,41.3z"/>
	<path class="st1" d="M81,40.3c0,0,0.1,0.1,0.1,0.1C81.1,40.4,81,40.3,81,40.3z"/>
	<path class="st1" d="M81.3,40.5c0,0,0.1,0.1,0.1,0.1C81.4,40.6,81.4,40.6,81.3,40.5z"/>
	<path class="st1" d="M81.5,40.6c0,0,0.1,0.1,0.1,0.1C81.6,40.7,81.5,40.7,81.5,40.6z"/>
	<path class="st1" d="M84.6,49.7c-0.1,0.3-0.2,0.5-0.3,0.8C84.4,50.2,84.5,50,84.6,49.7z"/>
	<path class="st1" d="M85.1,48.2c-0.1,0.3-0.2,0.5-0.3,0.8C84.9,48.7,85,48.5,85.1,48.2z"/>
	<path class="st1" d="M85.3,47.5c-0.1,0.3-0.2,0.5-0.3,0.8C85.2,48,85.3,47.7,85.3,47.5z"/>
	<path class="st1" d="M85.6,46.7c0,0.1-0.1,0.3-0.1,0.4C85.5,47,85.5,46.9,85.6,46.7z"/>
	<path class="st1" d="M85.7,46.4c0,0.1-0.1,0.3-0.1,0.4C85.6,46.6,85.7,46.5,85.7,46.4z"/>
	<path class="st1" d="M85.8,46c0,0.1-0.1,0.3-0.1,0.4C85.7,46.3,85.8,46.1,85.8,46z"/>
	<path class="st1" d="M85.5,47.1c0,0.1-0.1,0.3-0.1,0.4C85.4,47.4,85.4,47.2,85.5,47.1z"/>
	<path class="st1" d="M84.8,49c0,0.1-0.1,0.3-0.1,0.4C84.8,49.2,84.8,49.1,84.8,49z"/>
	<path class="st1" d="M84.7,49.4c0,0.1-0.1,0.3-0.1,0.4C84.6,49.6,84.7,49.5,84.7,49.4z"/>
	<path class="st1" d="M84.3,50.9c0,0-0.1,0-0.1,0c0-0.1,0.1-0.3,0.1-0.4C84.3,50.6,84.3,50.7,84.3,50.9z"/>
	<path class="st1" d="M78.1,47c0.2-0.7,0.4-1.3,0.6-2c0.7,0,1.4,0,2.2,0c0.2,0.7,0.4,1.3,0.6,2c-0.6,0.4-1.1,0.8-1.7,1.2
		C79.2,47.8,78.7,47.4,78.1,47z M79.8,47.5c0.3-0.2,0.6-0.5,1-0.7c-0.1-0.4-0.2-0.8-0.4-1.2c-0.5,0-0.9,0-1.3,0
		c-0.1,0.4-0.2,0.8-0.3,1.2C79.1,47.1,79.4,47.3,79.8,47.5z"/>
</g>
</svg>
