<?xml version="1.0" encoding="utf-8"?>
<!-- Generator: Adobe Illustrator 21.0.0, SVG Export Plug-In . SVG Version: 6.00 Build 0)  -->
<svg version="1.1" id="Layer_1" xmlns="http://www.w3.org/2000/svg" xmlns:xlink="http://www.w3.org/1999/xlink" x="0px" y="0px"
	 viewBox="0 0 230 108.2" style="enable-background:new 0 0 230 108.2;" xml:space="preserve">
<g>
	<path d="M161.5,73c-1.4-3.3-2.3-5.9-3.7-8.2c-0.8-1.2-4.5-1-4.5-1s-0.5-3.8-0.5-4.9c-0.1-2.4-2.7-3.1-5.1-3.3
		c-6.4-0.7-12.8-1.9-19.3-2.5c-2.7-0.3-4.1-1.4-5.4-3.6c-6.4-10.3-13-20.5-19.4-30.9c-1.7-2.8-3.7-3.8-6.9-3.8
		c-16.2,0.1-32.3,0.1-48.5,0c-3.5,0-5.4,1.1-6.7,4.5c-3.4,9.4-7.3,18.6-10.9,27.9c-1,2.5-2.4,3.7-5.2,3.5c-3.3-0.2-6.7-0.1-10,0
		c-5.3,0.3-8.2,3.1-8.7,8.4c-0.1,1.5,0,17.7,0,17.7L2,77v13.4c0,0,5,0,8.4-0.1c4.6-0.2,9.3-0.1,13.8-0.1c2.7,9.4,8,15.6,17.8,16.2
		c11.3,0.7,17.3-6.1,20.4-15.9h44.1c2.7,9.3,8,15.4,17.8,15.9c11.3,0.6,17.2-6.3,20.4-16.2c5.3,0,10.3,0.1,15.3,0
		c4.8-0.1,6.8-2.3,7.2-7.1C167.6,77.8,166.2,73.8,161.5,73z M43.4,97.2c-5.5,0-9.5-3.9-9.5-9.4c0-5.3,4.1-9.5,9.4-9.6
		c5.2,0,9.5,4.2,9.5,9.5C52.8,93.1,48.7,97.2,43.4,97.2z M67.9,47.2c-0.3,2.1-2.7,3.4-4.6,3.5c-6.9,0.3-13.8,0.4-20.7-0.2
		c-3.4-0.3-6.2-3.9-4.1-7.2c0.3-0.5,4.1-9.2,4.8-10.6c1-1.8,4.8-10,8-10c4,0,8.1-0.2,12.1,0.3c1.9,0.3,4.3,1.3,4.6,3.5
		C68,27.6,68.1,45.3,67.9,47.2z M101.6,51.8c-2.9,0.3-21.8-0.2-25.5-0.4c-3.6-0.2-3.1-6.4-3-10.8c0-3.1,0.1-11.1,0.2-13.5
		c0.1-2.9,2.4-5.4,5.2-5.4c6.4,0.2,13.4-1.1,17.7,4.8c1.6,2.2,7.2,13.3,8.8,16.4C106.6,46.4,106.1,51.4,101.6,51.8z M125.3,97.2
		c-5.5-0.1-9.4-4.1-9.3-9.6c0.1-5.3,4.3-9.4,9.6-9.4c5.3,0.1,9.3,4.2,9.3,9.7C134.9,93.3,130.8,97.3,125.3,97.2z"/>
	<path d="M227,55c-2.9,3.5-6.2,3.9-10.2,1.7c-2.6-1.4-5.5-2.3-8.2-3.7c-2.4-1.2-4.3-1.1-6.4,0.6c-2.1,1.8-4.5,3.4-7.1,5.5
		c1.6,1.9,2.9,3.8,4.4,5.4c2.2,2.5,2.8,5.1,1.5,8.3c-1.7,4.2-3.2,8.4-4.8,12.6c-1.7,4.1-4.4,5.6-7.6,4.4c-3.5-1.3-4.5-4.3-3.1-8.7
		c0.1-0.3,0.1-0.7,0.3-0.9c4.3-6.8,2.9-12.3-3-17.7c-4.3-4-12.1-15.3-12.4-15.1c0.5,1.2,0.5,4.6,1.2,5.6c1.4,1.9,3.1,3.5,4.5,5.3
		c2.1,2.7,1.9,5.6-0.2,7.7c-2.1,2-5.4,2.1-7.7-0.1c-2.9-2.9-5.7-6-8.2-9.4c-0.9-1.2-1.2-3.1-1-4.7c0.5-5.6,1.1-11.2,1.9-16.9
		c0.6-4.8,6.9-10.4,12.2-11c2.6-0.3,5.3-0.8,7.9-0.7c3.8,0.1,6.1-1.8,8-4.8c1-1.5,2.2-3,3.5-4.2c2-1.8,4.2-1.9,6.3-0.2
		c2,1.7,3,3.9,1.4,6.2c-2.8,3.9-5.6,7.9-9,11.3c-1.5,1.5-4.6,1.6-7.5,2.4c1.5,1.8,3,3.6,4.6,5.4c1.6,1.9,3.3,3.7,5.3,5.9
		c2.3-1.6,4.4-3.3,6.7-4.5c1.8-0.9,4.3-1.8,5.9-1.2c6.1,2.2,19.7,9.6,20.7,10.5C228.2,51.1,228.4,52.9,227,55z"/>
	<path d="M227.9,37.7c-1,1.8-4.1,0.7-5.6,0.5c-2-0.3-7.1-1.7-10.4-2.8c-1.2-0.4-2.6-1.5-2.6-2.7c0-2.1,1.9-3.2,3.9-2.7
		c4.6,1.2,9.2,2.6,13.8,4C228.6,34.8,228.7,36.4,227.9,37.7z"/>
	<path d="M151.4,15.9c0.4-2.6,0.6-5.3,1.4-7.8c1.5-4.9,6.4-5,11.3-3.4c5.5,1.8,6.2,3.7,5.3,9.8c-0.2,1.1-0.2,2.3-0.4,3.5
		c-0.9,5.9-5,7.6-10.3,6.9C153.8,24.2,151.2,22,151.4,15.9z"/>
	<path d="M133.9,2.6c0.9,0.1,1.9,1.3,2.5,2.5c5,10.3,9.9,20.6,14.8,31c0.9,1.9,0.8,3.7-1.2,4.7c-2.1,1.1-3.5-0.1-4.4-2
		c-5-10.5-10-20.9-14.9-31.5C129.5,4.7,130.7,2.7,133.9,2.6z"/>
	<path d="M225.3,13.1c0,0.7-0.7,1.7-1.6,2.3c-5.7,4-11.5,8-17.2,11.9c-1.6,1.1-3.2,1.1-4.4-0.5c-1.3-1.8-0.7-3.5,1-4.7
		c5.6-3.9,11.1-7.9,16.8-11.6C222.5,8.9,225,10.1,225.3,13.1z"/>
	<path d="M150.1,47.5c0.2,2.7-1.8,4.4-4,3.5c-5.9-2.2-11.7-4.7-17.4-7.4c-0.9-0.4-2-1.8-1.4-3.6c0.7-1.9,2.9-2.2,3.9-1.8
		c5.7,2.1,11.4,4.6,17,7.1C149.1,45.8,150.1,46.7,150.1,47.5z"/>
</g>
</svg>
