<?xml version="1.0" encoding="utf-8"?>
<!-- Generator: Adobe Illustrator 21.0.0, SVG Export Plug-In . SVG Version: 6.00 Build 0)  -->
<svg version="1.1" id="Layer_1" xmlns="http://www.w3.org/2000/svg" xmlns:xlink="http://www.w3.org/1999/xlink" x="0px" y="0px"
	 viewBox="0 0 515 525" style="enable-background:new 0 0 515 525;" xml:space="preserve">
<style type="text/css">
	.st0{fill:none;stroke:#2B2A29;}
	.st1{fill:#5B5B5B;}
	.st2{fill:#2B2A29;}
	.st3{fill:#B16503;}
	.st4{fill:#FDBC5D;}
	.st5{fill:#FEDD7A;}
</style>
<g>
	<path class="st0" d="M40.1,269.6L233.6,74.1c15.5-15.5,40.5-15.5,56.5-0.5l108.8,106.9c15.5,15.5,15.5,40.5,0.5,56l-24,24
		L224.7,412.7c-8-17.9-25.9-30.6-47.1-30.6S138,394.8,130,413.7l-89.5-88.1C25,310.1,25,285.1,40.1,269.6z"/>
	<circle class="st1" cx="177.1" cy="433.5" r="29.2"/>
	<path class="st2" d="M177.1,401c8.9,0,17.4,3.8,23.1,9.4c6.1,6.1,9.4,14.1,9.4,23.1c0,8.9-3.8,17.4-9.4,23.1
		c-6.1,6.1-14.1,9.4-23.1,9.4s-17.4-3.8-23.1-9.4c-6.1-6.1-9.4-14.1-9.4-23.1c0-8.9,3.8-17.4,9.4-23.1
		C160.2,404.3,168.2,401,177.1,401z M195,416c-4.7-4.7-10.8-7.5-17.9-7.5s-13.2,2.8-17.9,7.5c-4.7,4.7-7.5,10.8-7.5,17.9
		s2.8,13.2,7.5,17.9c4.7,4.7,10.8,7.5,17.9,7.5s13.2-2.8,17.9-7.5c4.7-4.7,7.5-10.8,7.5-17.9S199.7,420.7,195,416z"/>
	<path class="st3" d="M399.9,240.4c-2.4,2.4-5.7,2.4-8,0s-2.4-5.7,0-8l89.5-90.9l-23.5-23.5c-2.4-2.4-2.4-5.7,0-8
		c2.4-2.4,5.7-2.4,8,0l27.3,27.3l0,0c2.4,2.4,2.4,5.7,0,8l-93.2,94.7V240.4z"/>
	<path class="st4" d="M72.1,356.7l251-250.5l-33-32.5c-15.5-15.5-41-15.1-56.5,0.5L40.1,269.6c-15.5,15.5-15.1,41,0.5,56L72.1,356.7
		z"/>
	<path class="st3" d="M72.1,351.5l245.8-244.9L287.8,77c-7.1-7.1-16.5-10.4-25.4-10.4c-9.4,0-18.4,3.8-25.4,10.8L43.4,272.9
		c-7.1,7.1-10.4,16.5-10.4,25.4c0,9.4,3.8,18.4,10.8,25.4L72.6,352L72.1,351.5z M325.9,109l-251,250.5l-2.8,2.8l-2.8-2.8l-31.6-31.1
		C29.2,320,25,309.1,25,297.8s4.2-22.1,12.7-30.6L231.3,71.8c8.5-8.5,19.8-12.7,30.6-12.7c11.3,0,22.1,4.2,31.1,12.7l33,32.5
		l2.8,2.8l-2.8,2.8V109z"/>
	<path class="st5" d="M323.1,106.2l-251,250.5l57.9,57c8-18.4,26.4-31.6,47.6-31.6s39.1,12.7,47.1,30.6l47.6-48l0,0l131.9-134.2
		c10.4-15.5,8.5-36.7-5.2-49.9L323.1,106.2z"/>
	<path class="st3" d="M323.1,111.3L77.3,356.2l51.3,50.4c4.2-8,10.4-14.6,17.9-19.8c8.9-5.7,19.3-8.9,30.6-8.9
		c11.3,0,21.7,3.3,30.1,8.9c7.5,4.7,13.7,11.3,17.9,19.3l43.8-44.3l0,0l0,0l0,0l131.9-133.7c4.7-7.1,6.1-15.1,5.7-23.1l0,0
		c-0.9-8-4.2-15.5-10.4-21.7L323.1,111.3z M69.3,353.9l251-250.5l2.8-2.8l2.8,2.8l75.8,74.4c7.5,7.5,11.8,16.5,12.7,26.4l0,0
		c0.9,9.9-1.4,19.8-6.6,28.3v0.5l-0.5,0.5L275.5,367.5l0,0l0,0l0,0l-47.6,48l-3.8,3.8l-2.4-5.2c-3.8-8.5-9.9-15.5-17.9-20.7
		c-7.5-4.7-16.5-7.5-25.9-7.5c-9.9,0-18.8,2.8-26.4,8c-8,5.2-14.1,12.7-17.9,21.2l-2.4,5.2l-3.8-3.8l-57.9-57l-2.8-2.8l2.8-2.8H69.3
		z"/>
</g>
</svg>
