<svg id="Layer_1" xmlns="http://www.w3.org/2000/svg" viewBox="0 0 156.7 491.3" xmlns:xlink="http://www.w3.org/1999/xlink"><style>.st0,.st1,.st2,.st3,.st4,.st5,.st6,.st7{fill-rule:evenodd;clip-rule:evenodd;fill:#fff}.st1,.st2,.st3,.st4,.st5,.st6,.st7{fill:#000003}.st2,.st3,.st4,.st5,.st6,.st7{fill:#dedeef}.st3,.st4,.st5,.st6,.st7{fill:#cce7d3}.st4,.st5,.st6,.st7{fill:#d1d3d4}.st5,.st6,.st7{fill:#939598}.st6,.st7{fill:#fdf0be}.st7{fill:#5c5f60}.st10,.st11,.st12,.st13,.st16,.st8,.st9{fill-rule:evenodd;clip-rule:evenodd;fill:#b5b8b8}.st10,.st11,.st12,.st13,.st16,.st9{fill:#848587}.st10,.st11,.st12,.st13,.st16{fill:#c7c4e2}.st11,.st12,.st13,.st16{fill:#cae8e0}.st12,.st13,.st16{fill:#fabcae}.st13,.st16{fill:#93740c}.st16{fill:#fffcd5}.st17,.st20,.st22,.st23,.st24,.st25{fill-rule:evenodd;clip-rule:evenodd;fill:#fde4e1}.st20,.st22,.st23,.st24,.st25{fill:#9b95c9}.st22,.st23,.st24,.st25{fill:#d9dad9}.st23,.st24,.st25{fill:#808283}.st24,.st25{fill:#2c3032}.st25{fill:#5b5e5e}.st26,.st28,.st32,.st35,.st36,.st37{fill-rule:evenodd;clip-rule:evenodd;fill:#b2b4b4}.st28,.st32,.st35,.st36,.st37{fill:#9edae0}.st32,.st35,.st36,.st37{fill:#fbcfcc}.st35,.st36,.st37{fill:#d2e288}.st36,.st37{fill:#feefe8}.st37{fill:#fcd3c1}.st38,.st41,.st42,.st43,.st44,.st47{fill-rule:evenodd;clip-rule:evenodd;fill:#a6ce39}.st41,.st42,.st43,.st44,.st47{fill:#ee243f}.st42,.st43,.st44,.st47{fill:#cfe072}.st43,.st44,.st47{fill:#7d7f81}.st44,.st47{fill:#9b9d9f}.st47{fill:#dbaf85}</style><path class="st0" d="M46.4 214.3l.3.3.2.4c3.8-.1.3.5 4.3.2.8-.1.8-.3.9.5-.5.2-1.6.1-2.2.2-1.2.2-1 .2-2-.1-1.2-.4-3-.2-4.4-.2-.2-.3-.4-.5-.5-1.1-.7.3-.3.4-1.1.4-.4-.4-.3-.4-.7-.6-.4.5.1.7-.7 1.3-1.1-.3-.4-.8-.7-1.4-.7.2 0 .5-.7.8-.7-.3-.6-.8-.4-1.5.8-.2 1.2 0 2.1.1 1.1.1.7.3 1.6.5.1-.4.2-1.4.5-1.8.9.3.4.5.6 1.4l.5 1.2c.9-.2 2-1 2-1 .4.3.2 0 .4.4zm18.1-4.7l-24.3-.7c-1.1.1-2 .9-1.9-.7.5-.4 1.5 0 2.5 0l2.9.1c2.5 0 21.9.3 22.3.6.5.3.4.7-.2.8-.4.1-1-.1-1.3-.1zm.1-4.4c1.6 0 2.9-.2 3.1.7-.3.2-13.2-.5-14.7-.5l-7.6-.4c-2.7-.1-3.8.1-6.1.1-.8 0-.9-.2-.8-.9l18.7.6c1.3 0 2.4.2 3.6.3l3.8.1zm-1-3.7l1.7.1h.9c.7.1.4-.1.7.3l.1.6c-1.3.2-5.3-.4-7.1-.5l-14.7-.5-3.7-.1c-1.2 0-2.5.2-3.3-.3.1-1.1.2-1 1.1-.7s3.6.4 4.7.4l6.8.1 12.8.6zm-17.1-4.8l-4-.1c-1.1 0-2.9.6-3.6 0-.1-1 .3-.9 1.1-.7l6.3.2c1.7 0 7.3-.2 7.8.8-.4.4-2.8 0-3.6 0l-4-.2zm4.6-3h-3.9c-2.1-.1-5.3.1-7.3-.4-.1-1.3.8-.6 1.6-.5l2.7.1 8.4.1c1 0 1.8-.2 1.7.8-.3.3-2.2-.1-3.2-.1zm18.1 34.9c.8 0 .3.2.5-.2-.7-3-.1-5.9 0-9.2l-.2-4.4c.2-1.3 1.5-.9.1-3.8-1.4-2.8-1.4-4.2.8-5.2.9-.4 1-.4 1.2-1.4.1-.8.8-8.8.7-9.2l-8.8-.8c-6.1 0-3-7.7-4.1-12.5l-.1-.1c-.7-1.4.1.4-.3-.8l-1 .1c-.6 0-.4.1-.7-.3l-8.1-.4c-2.4-.2-6-.6-8.3-.5-4.3.2-4.5.4-4.4 4.7 0 1.4-.3 2.5-.4 3.9-.2 3.6-.1 9.1-.2 12.8-.2 6.9 0 9.7-.7 17-.1 1.5-.2 7.6.2 8.7.9 1.5 6 .9 7.9.9 2.8.1 5.8.4 8.6.3 2.9-.1 5.8 0 8.7.1 2.7 0 6.1.5 8.6.3z"/><path class="st1" d="M72.5 229c-.9-.1-.7 0-1.3-.3-1-.4-.9-.9-1-2-.4-3.7.3-5.8.3-9.4 0-2.5-.2-3.6 2.5-3.6l6.2.2c3 0 21.4 0 24.4.6.8.2 1.3.9 1.7 1.7l.1.2c.3.6.1 1.5.1 2.4l-.2 8.9c-.8 1.9-6.3 1.5-8.2 1.4-5.6-.3-12.9.1-18.4-.1l-3.1-.1c-1 0-2.2.2-3.1.1zm6-18.6c.9 2.2-2 2.9-2.5.9-.2-.8-.3-.7 1.4-1 .6-.1.6 0 1.1.1zm8.2-5.1c.6-.5.2-.6 1-.6 1.2-.1 2.4.7 3.2 1.4 1.7 1.5 2.6 4.8 1.2 6.7-.5.7-1.7.4-2.6.4l-5.7-.1c-1-1.4-2.3-2.6-1.3-5.2.7-1.6 2-2.9 4.2-2.6zm-8.4 7.9l4.4-.2c-.2-.9-2.6-2.3-.6-6.2 1.1-2.2 5.6-4.3 8.5-2.2a6.7 6.7 0 0 1 3.1 5.3c.1.7 0 1.4-.2 1.9l-.4.6-.3.3-.3.3 8.9.3c1 0 2.9-1.1 3.1-1.6.4-.9-.3-3.1-.5-4-1.5-5.6-.8-9.3-5.4-7.7l-4.2.7c-2.9.5-13.5 2.4-15.8 3.3l-.7.3c-1.7.4-4.5.7-6.7 1.8-2.9 1.4-1.4 4.5-.1 6.5 1.3.2 1.7-.3 3 .3.4.2 1.4.4 2-.1l-.5-.3c-.3-.8-1-1.3-.4-2.4.4-.8 1.2-1 2.3-.9 2.5.3 2.3 2.7.7 3.5l-1.4.2c.1.2.5.2.5.2l1 .1zM71.9 190l-1.2.6c-2.3 1-6.1 3.5-8.7 2.5-2-.8-1.6-2.7-1.7-5.2l-.2-6.6c.9.3 7.5 5.7 8.8 6.6.9.5 2.8 1.1 3 2.1zm-2.2 38.4c-.7-3-.1-5.9 0-9.2l-.2-4.4c.2-1.3 1.5-.9.1-3.8-1.4-2.8-1.4-4.2.8-5.2.9-.4 1-.4 1.2-1.4.1-.8.8-8.8.7-9.2l-8.8-.8c-6.1 0-3-7.7-4.1-12.5l-.1-1.1-2.1-.1-8.1-.4c-2.4-.2-6-.6-8.3-.5-4.3.2-4.5.4-4.4 4.7 0 1.4-.3 2.5-.4 3.9-.2 3.6-.1 9.1-.2 12.8-.2 6.9 0 9.7-.7 17-.1 1.5-.2 7.6.2 8.7.9 1.5 6 .9 7.9.9 2.8.1 5.8.4 8.6.3 2.9-.1 5.8 0 8.7.1 2.7.1 6.1.5 8.7.3.4.3.1.2.7.1l-.2-.2zm1.8-40.3c-1.4-.6-4.7-3.2-6.1-4.2l-3.6-2.5c-1.9-1.6-1.5-1.8-4.1-2.1-2.2-.2-5.4-.2-7.7-.3l.2-1.6 3.6-.2c1.1.1 2.1.2 3.3.1 3.6-.2 6.3.3 9.6.6 2.1.2 7.5-.3 9.3.8.5 4.5.7 8.5.3 13.1-.3 3-.3 9.8-1 12.5l-2.3.5c-.1-3.2.8-13.8 0-16.1-.5-.5-.8-.3-1.5-.6zm5.4 15.8c-.3.2.3 0-.4.2-.5.2-.2 0-.5 0 0-.9.1-.6.3-.8-.1-1.6.3-4.4.4-6.1.5-5.2.6-13.7 0-18.6-.8-.3-.4-.4-1.1-.6l-1.4-.2-2.9-.1-11.3-.9c-2-.1-3.9 0-5.9-.2 0-.3.1-1.7.4-1.8 2.6-.5 10.5-.4 12.9 0 1 .2 2.1.2 3.1.3l2.8.5 5.8.7c.4 2.1 0 5.2-.1 7.4 0 2.2-.5 4.7-.7 6.8l-.4 7.1-.2 3.5c-.1 1.9.1 2.6-.8 2.8zM49.3 177l.1 1.1c0 .2.1.2 0 .4 0 .4.1.2-.2.4-2.1 0-10.4-.3-11.7.3-1.5.6-1.5.8-1.8 2.4-.7 4.5-.8 10.6-.7 15.5.1 5.3-.4 10.3-.8 15.5l-.3 3.8v8.2c.1 3.1.3 2.3.5 3.6l-10.9.3-2.2-.1c-3.4-.5-11.1.3-14.7.2H5.5l-.5.1c-.5.2 0-.2-.4.2l8 .3c5.7-.2 15.5.2 20.6-.3 2-.2 2.1.2 3.7.3l8.3-.1 8.1.2 12.1.2c1.3 0 3-.2 4.1-.1.9.1 1 .5 1.6.6s1.3-.1 1.9-.2h4c7.6-.1 16.5.1 24 .2 5.4.1 11 .3 16.3.2a118.4 118.4 0 0 1 16 .1c-.2-.7-.4-.5-1.3-.6-4.5-.4-8-.3-12.6-.2-4.7.2-10 .2-14.7 0 .5-.7.7-.4 1-1.5l.4-2c.1-1-.2-1.3-.2-2.2v-2.4c0-2.4.8-7.4-2.1-7.4l-.6-.1c-.2-.5-.1-.1.1-.3 3.7-1.1 1.3-4.1.6-8.9-.6-3.9-1.6-7.1-5.5-5.5-.9.4-3.9.9-5.1 1.1l-2.7.4-12.6 2.7.2-5v-1.8l.2-.5c-.3-3 1.9-19.2 1-20.3-.3-.4.2-.3-1.4-.5-4-.4-7.5-1-11.1-1.3-1.6-.1-13.1-.5-13.6-.2-.7.5-.3 1.2-.6 2.5l-3.4.7z"/><path class="st2" d="M78 226.1c-.1.2-.6.7-.6.2L73 226c-.5 0-1.1.2-1.2 0 0-.1-.1 0-.1 0-.7-1.5 1.5-.8 2.5-.6 2.2.4 3.8-.6 3.8.7zm-5.7-1.7l2.9.2c1.7 0 1.3.1 2.2.2 1 .1.4 0 .6-.2.3-.9-1.2-.6-1.9-.6-1 0-3.5-.6-3.8-.4 0 0-.4.3 0 .8-.1 0 0 0 0 0zm14.7 2.7c-1.6 0-3.6-1-4.4-1.8-1.1-1.1-1.9-2.1-1.7-4.3a7.2 7.2 0 0 1 2-4.2c1.8-1.5 2.3-1 4.6-1.6s6.2 1.8 6.1 5.7c0 1.7-1 3.3-1.9 4.2a6.6 6.6 0 0 1-4.7 2zm-11.7-7.4c2.5-.6 2.4 3.5 0 3.6-1.2.1-2-.7-2-1.8 0-1.8 1.5-1.7 2-1.8zm25.4 1.3c-1.9-.2-3.1-.1-5.1-.4v-.8c.6-.5 1.1 0 1.5.1 1.5.4 3.7-.1 4.5.7-.2.7-.2.5-.9.4zm-6.1-4.6c1.4-1 2.5-.3 4.4-.3l3.6.1c1.3 0 1.2.6.9 1.7l-8.6-.4c-.2-.3-.3-.6-.3-1.1zm-18.4 0l-3.7.1c-.4-.8-.6-1.2.7-1 2 .4 5.9-.6 6.2.9-.5.3-2.2 0-3.2 0zm-4.9 12.3h.7c.6.1.4.2.6.3.9.1 2.1-.1 3.1-.1l3.1.1c5.4.2 12.7-.1 18.4.1 1.9.1 7.5.5 8.2-1.4l.2-8.9c0-.9.2-1.8-.1-2.4l-.1-.2c-.5-.8-.9-1.5-1.7-1.7-3-.6-21.4-.6-24.4-.6l-6.2-.2c-2.7 0-2.5 1.2-2.5 3.6 0 3.6-.7 5.7-.3 9.4.1 1.1 0 1.6 1 2z"/><path class="st3" d="M94.8 206c.8-.3 1.6-.1 2.7-.3.9-.2 1.5-.7 2.2-.4-.1 1-.4.6-2.6 1.2-1.1.3-2.7 1.3-2.3-.5zm-22.6 2.1c-.2-.4-.1.5-.1-.4l.1-.6c.4-.1 1.3 0 2.1-.2l2-.6c.7-.2 2.6-.7 3.3-.7s.7 0 .8.5l-4.2 1c-.9.2-3.2 1.2-4 1zM93 203c-.6 1.1-.3 1 .3 2 .9-.1 3.8-1.5 6.1-1.6 1.1 0 1.7.2 1.6-1.1-.1-1.6-1.5-.6-3.7-.1l-1.9.5c-.7.2-1.7.2-2.4.3zm-18.8 10h1.5c.3-.4.2.2 0-.4-.3-.8-1-1.3-.4-2.4.4-.8 1.2-1 2.3-.9 2.5.3 2.3 2.7.7 3.5v.4l4.4-.2c-.2-.9-2.6-2.3-.6-6.2 1.1-2.2 5.6-4.3 8.5-2.2a6.7 6.7 0 0 1 3.1 5.3c.1.7 0 1.4-.2 1.9l-.4.6-.3.3-.3.3 8.9.3c1 0 2.9-1.1 3.1-1.6.4-.9-.3-3.1-.5-4-1.5-5.6-.8-9.3-5.4-7.7l-4.2.7c-2.9.5-13.5 2.4-15.8 3.3l-.7.3c-1.7.4-4.5.7-6.7 1.8-2.9 1.4-1.4 4.5-.1 6.5 1.4.3 1.8-.2 3.1.4z"/><path class="st4" d="M50 179.1c2.3 0 5.5 0 7.7.3 2.6.3 2.2.5 4.1 2.1l3.6 2.5c1.4 1 4.7 3.6 6.1 4.2.6.3 1 .1 1.5.6.8 2.3-.1 12.9 0 16.1l2.3-.5c.7-2.7.8-9.5 1-12.5.4-4.6.2-8.6-.3-13.1-1.8-1.1-7.3-.6-9.3-.8-3.2-.3-5.9-.8-9.6-.6-1.2.1-2.2 0-3.3-.1s-2.5.1-3.6.2l-.2 1.6z"/><path class="st5" d="M76.2 203.3l-.1.7.8-.1c.9-.2.7-.9.9-2.8l.2-3.5.4-7.1c.2-2.1.7-4.6.7-6.8s.4-5.3.1-7.4l-5.8-.7-2.8-.5c-1-.2-2.1-.2-3.1-.3-2.5-.4-10.3-.4-12.9 0-.3.2-.4 1.5-.4 1.8l5.9.2 11.3.8 2.9.1 1.4.2c.7.2.3.4 1.1.6a105 105 0 0 1-.6 24.8z"/><path class="st0" d="M87.5 216.5c-.9 0-2.2-.7-4.1 1-3.6 3.3-1 8.8 4 8.7 2.9-.1 5.5-2.4 5.6-5.2.1-2.7-2.7-5.5-5.2-5.3l-.3.8zM71.9 190c-.3-1-2.1-1.5-2.9-2.1-1.3-.9-7.9-6.3-8.8-6.6l.2 6.6c.1 2.5-.3 4.4 1.7 5.2 2.5 1 6.4-1.5 8.7-2.5l1.1-.6zM86.7 205.3c-2.3-.3-3.6 1-4.2 2.7-1 2.5.3 3.8 1.3 5.2 1.9.2 3.8.1 5.7.1.8 0 2.1.3 2.6-.4 1.4-1.9.5-5.2-1.2-6.7-.8-.8-2.1-1.5-3.2-1.4-.8-.1-.4 0-1 .5z"/><path class="st6" d="M110 197.4c0 .3 0 .2.3.2.2-.6.9-.7 1 0 0 .6-.6.5-.8 1.4-.3 1.5.5 2.6 1.5 3.1a4.4 4.4 0 0 0 6-2.2c2.8-6.8-7.5-7.7-8-2.5zM118.4 214.3c-2.1.5-.6.3-1.5 1.2 0 0-1.9.9-1 3.5.7 2 4.3 3.8 6.6.2 2.1-3.1-1-5.6-4.1-4.9zM23.3 220.9c-.6 0-3.7-.7-4 2.7-.5 6.5 10.1 4.1 6.2-1.6-.5-.8-.7-1.3-1.8-1.6h-.3c.2.8.1.3-.1.5z"/><path class="st1" d="M87.5 216.5l.2-.9c2.5-.2 5.3 2.6 5.2 5.3-.1 2.8-2.7 5.2-5.6 5.2-5 .1-7.6-5.4-4-8.7 1.9-1.6 3.2-.9 4.2-.9zm-.5 10.6c1.9-.1 3.7-.8 4.8-1.9.9-.9 1.8-2.6 1.9-4.2.1-3.9-3.8-6.3-6.1-5.7-2.2.6-2.8.1-4.6 1.6-1 .8-1.8 2.5-2 4.2-.2 2.2.5 3.2 1.7 4.3.7.7 2.7 1.7 4.3 1.7zM83 231.5c-3.7 0-7.2-.2-11.1-.1l-8.5.2c-.7 0-2.1-.6-1.6.6.3.7 1.4.1 2.2.1 2.8-.1 20.2-.3 21.7-.1l2.5.2 5.5.1 10.7.1c-.3-1-1.2-.5-2.4-.6h-2.8l-5.4-.1c-3.7-.1-7.2-.4-10.8-.4zM16 232.1c-.7 0-1.3.2-2.1.1-.7-.1-1.2-.4-1.5.2-.7 1.3 2 .5 2.9.5l13.3-.3c3.9-.1 8.3 0 12.1-.3h5.7l2.8-.2c.8 0 2.1.3 2.6-.1-.3-.9-1.1-.6-3.1-.5l-10.2.2c-5.8.3-12.7.3-18.5.3l-4 .1zM147.1 233.6c2.5 0 4.6.8 5-.1-.4-.7-1.7-.4-2.6-.4l-8.8-.1c-8.4-.5-15-.3-23-.5l-8.8-.1c-.9 0-2.1-.7-2.1.2.1.8 1.8.4 2.6.4l8.9.1c3.9.2 7.9 0 11.8 0 3.6.1 7.7.2 11.3.5h5.7zM110.3 197.5c-.4.3.5.4-.5.2 0-.6 0-.2.2-.4.5-5.2 10.8-4.2 8 2.4-.8 2-3.4 3.5-6 2.2-1-.5-1.8-1.5-1.5-3.1.2-1 .8-.8.8-1.4-.1-.6-.8-.5-1 .1zm-.9-.6l.2 2.5c.2 1.7.6 2.3 1.6 3 4.9 3.1 10.7-3.4 6.7-7.6-1-1-1.8-1.1-3.3-1.4-2.4-.4-4.9 1.2-5.2 3.5zM38.2 208.2c-.1 1.5.8.8 1.9.7l24.3.7c.3 0 .9.2 1.2.1.6-.1.7-.4.2-.8-.4-.3-19.8-.6-22.3-.6l-2.9-.1c-.9 0-1.9-.4-2.4 0zM67.7 205.9c-.3-1-1.5-.7-3.1-.7l-3.8-.1c-1.3-.1-2.3-.3-3.6-.3l-18.7-.6c-.1.8.1 1 .8.9 2.3-.1 3.4-.2 6.1-.1l7.6.4c1.5 0 14.4.7 14.7.5zM23.3 220.9v-.7c.7.1.2 0 .5.3 1.1.3 1.3.8 1.8 1.6 3.9 5.7-6.8 8-6.2 1.6.2-3.5 3.4-2.8 3.9-2.8zm-1.7 7.3h1.7c5.8-.1 4.2-8.4 0-8.6-.7 0-2.7.7-3.2 1-2.6 2-1.7 7.3 1.5 7.6zM118.4 214.3c3.1-.7 6.2 1.8 4.2 4.9-2.3 3.6-6 1.8-6.6-.2-.9-2.6 1-3.5 1-3.5.7-.9-.7-.7 1.4-1.2zm-3.4 4.1c.5 2.2 2.4 3.9 4.9 3.6 2-.3 4.3-2.7 4.1-4.9-.2-2-2.4-4-5.2-3.8-2.9.3-4.2 3.4-3.8 5.1zM66.9 201.8c-1.2-.2-1.9 0-2.4-.1-1-.1-.7-.2-.9-.3l-12.8-.6-6.8-.1c-1 0-3.8-.1-4.7-.4s-.9-.4-1.1.7c.8.4 2.2.2 3.3.3l3.7.1 14.7.5c1.8.1 5.8.7 7.1.5l-.1-.6zM94.6 216.4c0 .5.2.8.4 1.1l8.6.4c.4-1.1.4-1.7-.9-1.7l-3.6-.1c-2 .1-3.2-.7-4.5.3zM46.8 215.1c-.4-.4-.2-.1-.5-.8-.1-.4 0-.2-.4-.4 0 0-1.1.8-2 1-.3-.3-.5-.7-.5-1.2-.1-.9.3-1.1-.6-1.4-.2.3-.3 1.4-.5 1.8-.9-.2-.5-.4-1.6-.5-.9-.1-1.3-.3-2.1-.1-.2.7-.4 1.2.4 1.5.7-.4 0-.6.7-.8.3.6-.4 1.1.7 1.4.8-.6.3-.8.7-1.3l.7.6c.8 0 .4-.1 1.1-.4.1.6.2.7.5 1.1 1.4 0 3.2-.2 4.4.2 1.1.3.8.3 2 .1.6-.1 1.7 0 2.2-.2-.1-.8-.1-.5-.9-.5-4 .4-.5-.3-4.3-.1zM93 203c-.6 1.1-.3 1 .3 2 .9-.1 3.8-1.5 6.1-1.6 1.1 0 1.7.2 1.6-1.1-.1-1.6-1.5-.6-3.7-.1l-1.9.5c-.7.2-1.7.2-2.4.3zM38.9 196.6c.8.6 2.5.1 3.6 0l4 .1 4 .1c.8 0 3.1.4 3.6 0-.4-1.1-6.1-.8-7.8-.8l-6.3-.2c-.8-.1-1.2-.1-1.1.8zM39.9 193.3c2 .5 5.2.2 7.3.4h3.9c1 0 2.8.4 3.3.2.1-1.1-.7-.8-1.7-.8l-8.4-.1-2.7-.1c-.9-.2-1.9-.9-1.7.4zM74.2 222v-1.1l1.4-.7c.5.3.4.2.7.6-.1 1.5-.9 2.1-2.1 1.2zm1.1-2.3c-.4.1-2 0-2 1.8 0 1.1.8 1.9 2 1.8 2.4-.1 2.4-4.2 0-3.6zM72.2 208.1c.7.2 3.1-.8 4-1l4.2-1c-.1-.5-.1-.5-.8-.5-.8 0-2.6.5-3.3.7l-2 .6c-.8.2-1.7.1-2.1.2l-.1.6c0 .8 0 0 .1.4zM72.5 216.5l3.7-.1c1 0 2.7.3 3.2.1-.3-1.5-4.2-.5-6.2-.9-1.3-.3-1.1.1-.7.9zM95.6 219.8v.8c2 .3 3.2.2 5.1.4.7.1.7.3.9-.4-.8-.8-3-.2-4.5-.7-.4-.1-1-.6-1.5-.1zM77.4 226.3l.6-.2c0-1.3-1.5-.3-3.7-.7-1-.2-3.2-.9-2.5.6h.1c.1.2.7 0 1.2 0l4.3.3z"/><path class="st0" d="M78.5 210.4h-1c-1.7.3-1.6.1-1.4 1 .4 1.9 3.3 1.2 2.4-1z"/><path class="st1" d="M54.4 231.7c-.4 1.2 1.4.6 2.1.6 1.1-.1 2.1.3 2.8 0-.1-.8 0-.8-.9-.8l-1.6.1c-.7-.1-2.2-.5-2.4.1zM72.2 223.6s-.4.3 0 .8l.1.1 2.9.2c1.7 0 1.3.1 2.2.2 1 .1.4 0 .6-.2.3-.9-1.2-.6-1.9-.6-1 0-3.6-.6-3.9-.5zM94.8 206c-.3 1.7 1.2.8 2.3.5 2.2-.6 2.6-.2 2.6-1.2-.7-.4-1.3.1-2.2.4-1.1.3-1.9.1-2.7.3z"/><path class="st0" d="M74.2 222c1.2.9 1.9.3 2-1.1-.3-.4-.2-.3-.7-.6l-1.4.7.1 1z"/><path class="st7" d="M66.9 201.8c-.3-.4 0-.3-.7-.3h-.9l-1.7-.1c.2.1-.1.2.9.3.5.1 1.3-.1 2.4.1z"/><path class="st8" d="M59.5 181.9l-.1-1.1-2.1-.1c.3.4.1.2.7.3l1-.1c.4 1.3-.5-.5.3.8l.2.2z"/><path class="st7" d="M23.8 228.5c-.2-.2.2-.2-.4-.3h-1.7v.3h2.1z"/><path class="st9" d="M109.7 199.4l-.2-2.5c-.3.5-.2.7-.1 1.4 0 1.2.2 1.1.3 1.1z"/><path class="st7" d="M78.3 213.2v-.4l-1.4.2c.1.2.5.2.5.2h.9z"/><path class="st9" d="M74.2 213c.4.2 1.4.4 2-.1l-.5-.3c.1.6.3.1 0 .4h-1.5zM49.2 179c.3-.2.1 0 .2-.4v-.4l-.1-1.1c-.3.3-.2-.1-.2.5l.1.4v1zM78.6 198.5c.3-.6.2-.5.2-1.1v-1.1l-.2.5v1.7zM76.9 203.9l-.8.1.1-.7c-.2.2-.2 0-.3.8h.5c.8-.2.2 0 .5-.2zM72.5 229l-.6-.3h-.7c.6.3.4.2 1.3.3z"/><path class="st7" d="M23.3 220.9c.2-.2.2.3.1-.4h.3c-.3-.3.2-.2-.5-.3l.1.7zM110.3 197.5c-.3 0-.3.1-.3-.2-.2.2-.2-.3-.2.4 1 .2.1.1.5-.2zM69.2 228.6c.4.3.1.2.7.1l-.2-.4c-.1.4.3.3-.5.3z"/><path class="st9" d="M77.4 226.3c0 .6.5 0 .6-.2l-.6.2z"/><path class="st7" d="M104.1 213.9l-.5-.4c-.2.2-.3-.2-.1.3l.6.1zM46.8 215.1l-.2-.4-.3-.3.5.7z"/><path class="st10" d="M71.5 218.6c0-2.5-.2-3.6 2.5-3.6l6.2.2h7.4c.5-.1 1-.1 1.6 0 6.2.1 13.6.2 15.4.6.3.1.6.2.8.5l-.1-.1c-.5-.8-.9-1.5-1.7-1.7-3-.6-21.4-.6-24.4-.6l-6.2-.2c-2.7 0-2.5 1.2-2.5 3.6 0 3.6-.7 5.7-.3 9.4.1 1.2.1 1.6 1 2l-.1-.7c-.3-3.7.4-5.7.4-9.4z"/><path class="st11" d="M72.1 212.8c-1.2-2-2.3-4.7.4-6 2.2-1.1 5-1.3 6.7-1.8l.7-.3c2.2-.9 12.8-2.8 15.8-3.3l4.2-.7c.8-.3 1.5-.4 2-.4-.6-.6-1.6-.7-3.2-.1l-4.2.7c-2.9.5-13.5 2.4-15.8 3.3l-.7.3c-1.7.4-4.5.7-6.7 1.8-2.9 1.4-1.4 4.5-.1 6.5h.9z"/><path class="st1" d="M85.6 218.4h4l-.4.6h-1.1l.3.6h1.1l-.4.6h-.7l-.3.7c-.2.3-.4.5-.6.5l-1.1.3 2.4 2.8h-1.1a61.2 61.2 0 0 1-2.3-2.7v-.6h.5c.9 0 1.4-.3 1.6-.9v-.3h-2.4l.4-.6h1.9a1 1 0 0 0-.6-.5l-.6-.1h-1.1l.5-.4zM85.2 207.8l3.9-.7-.3.6-1 .2c.2.1.3.3.4.6l1.1-.2-.3.6-.7.1-.1.7-.5.7c-.3.3-.7.4-1 .5l2.9 2.4-1 .2-2.8-2.3-.1-.5.5-.1c.9-.2 1.3-.5 1.4-1.1v-.3l-2.3.4.3-.6 1.8-.3c-.1-.2-.4-.3-.7-.4h-.6l-1 .2.1-.7z"/><path class="st12" d="M59.2 181.4c-.1 0-.3-.4 0 0zm-21.6 5.1c0-4.3.2-4.5 4.4-4.7 2.3-.1 5.9.3 8.3.5l8.1.4c.3.4.1.2.7.3h.4l-.2-1-.1-.1-.2-.4-.1-.5-1 .1c-.6 0-.4.1-.7-.3l-8.1-.4c-2.4-.2-6-.6-8.3-.5-4.3.2-4.5.4-4.4 4.7 0 1.4-.3 2.5-.4 3.9-.2 3.6-.1 9.1-.2 12.8-.2 6.9 0 9.7-.7 17-.1 1.5-.2 7.6.2 8.7.2.3.5.5 1 .7a62 62 0 0 1 0-7.5c.7-7.3.5-10.1.7-17 .1-3.7 0-9.2.2-12.8.1-1.4.4-2.6.4-3.9zM72.4 195.3l-8.8-.8c-1.1 0-1.9-.2-2.4-.6.4 1.5 1.4 2.6 3.7 2.5l7.5.7v-1.8z"/><path class="st13" d="M118.2 215.6h2.7l-.3.4h-.6l.2.4h.8a3 3 0 0 1-.3.4h-.5l-.2.5-.4.4-.8.2 1.6 2h-.7l-1.6-1.9v-.4h.3c.6 0 1-.2 1.1-.6v-.2H118l.3-.4h1.3l-.4-.4-.4-.1h-.8l.2-.3zM112.8 195.8h3.1l-.3.5h-.8l.2.5h.9a3 3 0 0 1-.3.4h-.6l-.2.6c-.2.2-.3.4-.5.4l-.9.2 1.9 2.2h-.8l-1.8-2.1v-.4h.4c.7 0 1.1-.2 1.3-.7v-.2h-1.8l.3-.4h1.5c-.1-.2-.2-.3-.5-.4l-.5-.1h-.8l.2-.5zM21.7 221.8h2.7l-.3.4h-.7l.2.4h.8a3 3 0 0 1-.3.4h-.5l-.2.5-.4.4-.8.2 1.6 2h-.7l-1.6-1.9v-.4h.3c.6 0 1-.2 1.1-.6v-.2h-1.6l.3-.4H23l-.4-.4-.4-.1h-.7l.2-.3z"/><path class="st0" d="M71.1 375.2c-.6.3-4.3 0-5.3.1l-2.6.2c-.7 0-1.9.4-2-.4.3-.2 4.5-.3 5.2-.3h2.7c1.6 0 1.9-.4 2 .4zm10.6 3c-2.1.2-3-3.4-1.2-4.4.4-.2 1.4-.5 2-.5 2.3.1 3.8 4.4-.8 4.9zm-7.7.4c1.4 0 1.3-.1 1.4.5-.4.3-.3.2-.9.1-1.4-.2-1.3-.1-2.7-.1h-3.6l-3.8-.1c-.8 0-2.8.4-3.5 0l.1-.5c.3-.1 1 .1 1.6.1l1.9-.1 3.6.1H74zm-8.3 7.4c.7-.1.7-.1.7.4-.4.2-.9.2-1.4.2 0-.7 0-.5.7-.6zm3.3-.1c.5.9-.9.8-1.2.5-.5-.5 1-.6 1.2-.5zm3.1.6c-.5.2-1.5.2-1.2-.5l.3-.1 1 .1-.1.5zm2.6 0c-.3.2-1.6.4-1.3-.4.2-.2.9-.2 1.4 0l-.1.4zm2.9-.3c-.1.7-1.1.6-1.6.3 0-.6.1-.5.7-.5s.6-.1.9.2zm-15.1.4c-.1-.8.8-.7 1.3-.4V386.8c-.8-.1-1 0-1.3-.2zm17.4-.2c.6 0 .6-.1.6.5-.3.3-1.7.2-1.5-.3.2-.3.6-.2.9-.2zm1.7.2c.4-.2 1.3-.3 1.4.4-.3.2-.5.2-.9.1-.5 0-.6 0-.5-.5zm2.7.9c-.1.4-.6.4-.9.1-.4-.5.3-.7.8-.5 0 0 .2-.2.1.4zm-21.7 0c0-.6.1-.7-.5-.6-.1.7-.2 1.3.4 1.5.3-.5.1-.4.1-.9zm4.8.6c.2 2-1.7 1.9-2 1.1-.2-.5-.1-1.2.5-1.4.7-.3 1.1.1 1.5.3zm16.7.1c.5.4.2 1.5-.3 1.6-.2-.6-.1-1.4.3-1.6zm-21.6 2l-.1.6c-.2.4 0 .1-.3.2-.2-.3-.2-.3-.2-.8 0-.4 0-.4.2-.7.5 0 .4 0 .4.7zm20.9 1.9c-.6-1.3 1-2.2.5-.6-.1.7-.2.5-.5.6zm-21.3-.3c.2.5.3 1.3-.5 1.3-.2-.6-.3-1.2.5-1.3zm6.5-.4c.3.1.8.9 1.8.2l.5-.4 1.7 1.3c.7.4 1 1.2 1.8 1.2-.1-.6-1.1-1.3-1.6-1.6l.7-.8c1 .6.8.3 1.7.1l.9.8c.3.3.5.7 1.1.8-.2-.6-2.6-2.9-2.7-2.9-.6.2-1.5 1.2-2.1 1.6-.4-.1-2.1-1.5-2.7-1.7-.8.4-2.2 2.2-2.8 2.8-.4.4-.9.5-.5 1.1.2-.3 1.8-2.2 2.2-2.5zm14.8 1.7c.3 0 .7 0 .4.9l-.1.3c-.8-.2-.4-.9-.3-1.2zm-21.7.9c.2.5.2 1.3-.4 1.5l-.1-1c0-.5 0-.4.5-.5zm22.1.7c.6.4.3.8-.3.8-.1-.1-.2-.1-.1-.5.2-.6.1-.1.4-.3zm-1.3 1.3c-.3.6 1 .5 1.1.3 0-.8-1-.5-1.1-.3zm-20.5.4l.1-.6h1.3l.2.6H62zm7.6-.4c.1.6 0 .5-.6.6h-.9c-.1-.5-.1-.5.5-.6h1zm11 0c1.2-.1.3 1.2-1 .6v-.4l.3-.1h.2l.5-.1zm-14.2 0c0 .5 0 .5-.4.6-.3.1-.5.1-.8 0v-.5c.4-.2.8-.2 1.2-.1zm6.1.1c.2.5.4.8-1.5.6 0-.6 0-.6.5-.6h1zm2.7.3l.3.1v.5c-.5.1-1.3.2-1.7-.1v-.5l.9.1.5-.1zm1.5.1c.1-.1.7-.4 1.4-.1l-.1.5c-.4.2-.9.2-1.3 0v-.4zm-16.9-34.4l.2-.1.4-.1v-.4c-1.7.3-.4 1.1-1.8.1l-.2 4.8.2 9.9v4.8l-.1 4.1c-.1 1.6.1 3.5.1 4.9l-.1 9.9c1.2.3 2.9.5 4.2.4.9 0 1.1.2 2 0 1.1-.3 5.2 0 6.8 0 1.4 0 3.4-.2 4.7 0 2.6.4 6.2.4 9 .3 2.7-.1 1.9-1.5 1.8-2.2-.2-1.2.2.6.1-1.8l.1-10.9.7-8.7v-4.6l.2-4.5c0-1.1-.1-8.7-.3-9.1-.4-.6-2.5-.4-3.5-.4h-3.8l-3.8-.1-3.4.2c-.1 1.3-.3 1.8-1.1 2.4v.8c.6.2 1.2 0 1.2 1 0 .7-.1 1.4-.4 1.9l-.8.1c-.3 1.2-1.1 2.7-1.9 3.2-.8.6-2.5 1.5-3.7 1.4-1.7-.1-2.7-.2-3.8-1.4-.9-1-1.5-1.8-1.8-3.5-.8 0-1.2 0-1.3-.8-.4-.6-.2-1.3.1-1.6z"/><path class="st0" d="M73.4 345.4c1.1 0 1.5-.2 1.4 1.1l-.4.5c-1.4.1-1.6-.6-1-1.6zm6.5 4.3c-.3.4-2.2.2-2.8.2H68v-.5c.5-.2.7 0 1.2.1l1.4-.1 7.8.1c1.8-.1 1.2-.1 1.5.2zm-23.6 11.4c-.4-.1-.2.1-.3-.3.2-.5-.1-.1.3-.3v-.3c-.6 0-.1.1-.3-.2l.1-1 .2-1.1c0-.9-.2-3 .3-3.5 1.2-1.3 7.7-1.1 9.5-1.2 1.5-.1 3.8-.4 5-.3l10.5-.3c2-.1 8.7-.6 10 .5 1.1.9.8 3 .8 4.6 0 4.5.1 5.9-.2 10.5l-.1 10.7-.2 5.2-.1 2.5-.3 2.4-.1 5.3h.5c.2-.4 0-1.5 0-1.7-.1-.5.6-6.6.6-8l.2-2c0-1.4.3-2.9.4-4.2l.1-4.5c.3-4.4.1-8.8.3-13.3.1-1.6.1-7.5-.1-9-.3-2.6 0-4.2-2.3-6.8a4.1 4.1 0 0 0-2.8-1.6c-5.1-1.2-16.1-.4-21.7-.3l-1 .1c-.4.2-.1.2-.8.4l-2 .3-1.9.4c-.7.1-1 .5-1.5.8-2.1 1.2-3.4 1.7-3.5 5.2-.1 2.9-.5 5.7-.6 8.6-.3 5.9-.2 12-.1 17.8 0 2.6.1 11.1-.3 13.2a15 15 0 0 0-.2 2.1c0 .5 0 1.4.3 1.9h.8c.2-2.3.4-14.1.3-16.4-.1-2.4-.3-5.7-.1-8.2l.1-4c.2-1 .1-3.1.2-4z"/><defs><path id="SVGID_1_" d="M73.4 345.4c1.1 0 1.5-.2 1.4 1.1l-.4.5c-1.4.1-1.6-.6-1-1.6zm6.5 4.3c-.3.4-2.2.2-2.8.2H68v-.5c.5-.2.7 0 1.2.1l1.4-.1 7.8.1c1.8-.1 1.2-.1 1.5.2zm-23.6 11.4c-.4-.1-.2.1-.3-.3.2-.5-.1-.1.3-.3v-.3c-.6 0-.1.1-.3-.2l.1-1 .2-1.1c0-.9-.2-3 .3-3.5 1.2-1.3 7.7-1.1 9.5-1.2 1.5-.1 3.8-.4 5-.3l10.5-.3c2-.1 8.7-.6 10 .5 1.1.9.8 3 .8 4.6 0 4.5.1 5.9-.2 10.5l-.1 10.7-.2 5.2-.1 2.5-.3 2.4-.1 5.3h.5c.2-.4 0-1.5 0-1.7-.1-.5.6-6.6.6-8l.2-2c0-1.4.3-2.9.4-4.2l.1-4.5c.3-4.4.1-8.8.3-13.3.1-1.6.1-7.5-.1-9-.3-2.6 0-4.2-2.3-6.8a4.1 4.1 0 0 0-2.8-1.6c-5.1-1.2-16.1-.4-21.7-.3l-1 .1c-.4.2-.1.2-.8.4l-2 .3-1.9.4c-.7.1-1 .5-1.5.8-2.1 1.2-3.4 1.7-3.5 5.2-.1 2.9-.5 5.7-.6 8.6-.3 5.9-.2 12-.1 17.8 0 2.6.1 11.1-.3 13.2a15 15 0 0 0-.2 2.1c0 .5 0 1.4.3 1.9h.8c.2-2.3.4-14.1.3-16.4-.1-2.4-.3-5.7-.1-8.2l.1-4c.2-1 .1-3.1.2-4z"/></defs><clipPath id="SVGID_2_"><use xlink:href="#SVGID_1_"/></clipPath><g clip-path="url(#SVGID_2_)"><path d="M61.1 344c-.7.1-1 .5-1.5.8-2.1 1.2-3.4 1.7-3.5 5.2-.1 2.9-.5 5.7-.6 8.6-.3 5.9-.2 12-.1 17.8 0 2.6.1 11.1-.3 13.2a15 15 0 0 0-.2 2.1c0 .5 0 1.4.3 1.9h.5v-.2l.2-2.1c.4-2.1.3-10.6.3-13.2v-8.5l.1-6 .1-2.5c-.4-.1-.2.1-.3-.3.2-.5-.1-.1.3-.3v-.3c-.6 0-.1.1-.3-.2l.1-1 .2-1.1c0-.9-.2-3 .3-3.5l.2-.2.1-2.6c.1-3.5 1.5-4.1 3.5-5.2.5-.3.8-.6 1.5-.8l1.9-.4 2-.3c.7-.1.4-.2.8-.4l1-.1c5.6-.1 16.5-.9 21.7.3 1.5.3 2 .7 2.8 1.6l.8 1c-.3-.8-.8-1.7-1.7-2.7a4.1 4.1 0 0 0-2.8-1.6c-5.1-1.2-16.1-.4-21.7-.3l-1 .1c-.4.2-.1.2-.8.4l-2 .3-1.9.5z" fill-rule="evenodd" clip-rule="evenodd" fill="#f8abad"/></g><path class="st1" d="M59.1 359l.2-.1h.3l-.3.4c-.5.3-.5.8-.8 1.2.1-.7.1-1.3.6-1.5zm13.5-1.1l-5.8-.8c-4.3-.6-3.5 1-4.2 2.1-2.3-.9-3.5.7-3.3 1.9.6 0 1.2-.4 3.6-.4 2 0 7 .4 8.4 0 1.3-.4 1.4-1.5 1.3-2.8zm-1.3 3.4c1 1.9-.3 5.7-2.4 6.8-2.3 1.2-4.3 1.1-6.1-.6-.9-.8-1.6-1.4-1.7-3.1l-.2-2.3v-.8l3-.1c1.4 0 4.3.3 5.6.2l1.8-.1zm1.1 1.6c-.3.3-.3.8-.3 1.4.1 0 .6 0 .5-1-.1-.6-.1-.3-.2-.4zm-11.8 1c-.8.4-.7-.6-.4-1l.4.1c.1.4.2.5 0 .9zm40.3 13.5h-.9c-.7-.1-.2.2-.6-.3.1-.4.1-.3.6-.4 1.4-.3 5.4-1 6.4-.9v1.4l-5.5.2zm8.3 2c-.2-.9-.5-.9-.6-1.7-1.2 0-2.1-.2-3.3-.1-1.1.1-7.6.4-8 .6s-.5.7-.6 1.3c.8.2 4.9-.1 5.9-.2 2.3.1 4.4.2 6.6.1zm-2 4.2c0 1.5-1.9 8.7-2.5 10.9l-4.6-.1c-.4-1.6-1-5-1-6.8 2.4-.5 5.9.3 6.9-.3-.2-.6-1-.3-1.5-.3l-1.8-.1c-1.1 0-2.8.3-3.7-.1l-.2-3.4c0-1.1-.3-2.3-.2-3.3 4.1-.5 5.8-.1 9.4-.1 0 .9-.3 2-.5 2.9-2.8.4-6.4-.5-6.9-.3-.1 1 .3.6 1.2.6l5.4.4zm-16.7 10.7l.3-.1.4-4.4.3-3.3.1-3.5.2-3.3c0-1.1 0-11.1.2-12.2.4-2.6.1-6.9.1-9.8.1-5.4-1.1-4.5-6.9-4.8-1.7-.1-3.9.2-5.6.3l-11.3.4-5.6.3c-1.5 0-4 .2-5 .8-.7.5-.6 1.2-.6 2.1l-.1 9.9-.1 5.5c0 2.4.3 11.4.1 12.9 0 .3.1 5.1-.1 6.6l-.3 1.8h1.6v-8.6c.3-3.2 0-7.7 0-10.9l-.1-1.7c0-2-.1-12.5.4-13.5.6-1.3 2-.3 4-.5.4-.6.5-1.3 1.2-1.7.6-.4 1.8-.3 2.7-.2 2.2.2 4.4.9 6.3.7 1-.1.3 0 1.1.2.7.2 1.9-.1 2.8-.1 3.1.2 4.8.3 8 .3 2.2 0 4.3-.8 4.3 2.1 0 2.2.4 5.3.3 6.4a142 142 0 0 0-.5 13.1c0 3.4-.6 7.8-.3 11.2l.1 3.8 1.4.1.6.1c-.2 0-.2 0 0 0zm-34.4-35.2l.2-1.1c0-.9-.2-3 .3-3.5 1.2-1.3 7.7-1.1 9.5-1.2 1.5-.1 3.8-.4 5-.3l10.5-.3c2-.1 8.7-.6 10 .5 1.1.9.8 3 .8 4.6 0 4.5.1 5.9-.2 10.5l-.1 10.7-.2 5.2-.1 2.5-.3 2.4-.1 5.3h.5c.2-.4 0-1.5 0-1.7-.1-.5.6-6.6.6-8l.2-2c0-1.4.3-2.9.4-4.2l.1-4.5c.3-4.4.1-8.8.3-13.3.1-1.6.1-7.5-.1-9-.3-2.6 0-4.2-2.3-6.8a4.1 4.1 0 0 0-2.8-1.6c-5.1-1.2-16.1-.4-21.7-.3l-1 .1c-.4.2-.1.2-.8.4l-2 .3-1.9.4c-.7.1-1 .5-1.5.8-2.1 1.2-3.4 1.7-3.5 5.2-.1 2.9-.5 5.7-.6 8.6-.3 5.9-.2 12-.1 17.8 0 2.6.1 11.1-.3 13.2a15 15 0 0 0-.2 2.1c0 .5 0 1.4.3 1.9h.8c.2-2.3.4-14.1.3-16.4-.1-2.4-.3-5.7-.1-8.2l.1-4V359.5c.1-.3.1-.3 0-.4zm4.3 2.4c-1.7.3-.4 1.1-1.8.1l-.2 4.8.2 9.9v4.8l-.1 4.1c-.1 1.6.1 3.5.1 4.9l-.1 9.9c1.2.3 2.9.5 4.2.4.9 0 1.1.2 2 0 1.1-.3 5.2 0 6.8 0 1.4 0 3.4-.2 4.7 0 2.6.4 6.2.4 9 .3 2.7-.1 1.9-1.5 1.8-2.2-.2-1.2.2.6.1-1.8l.1-10.9.7-8.7v-4.6l.2-4.5c0-1.1-.1-8.7-.3-9.1-.4-.6-2.5-.4-3.5-.4h-3.8l-3.8-.1-3.4.2c-.1 1.3-.3 1.8-1.1 2.4v.8c.6.2 1.2 0 1.2 1 0 .7-.1 1.4-.4 1.9l-.8.1c-.3 1.2-1.1 2.7-1.9 3.2-.8.6-2.5 1.5-3.7 1.4-1.7-.1-2.7-.2-3.8-1.4-.9-1-1.5-1.8-1.8-3.5-.8 0-1.2 0-1.3-.8-.1-.6 0-1.4.4-1.7l.7-.1c-.2-.7-.3-.2-.4-.4zm36.5 18.9c.4-.3.4-.2.6-.2l.1.4v.5l.4 3.3.2 3.5c0 1.9.8 4.6 1.1 6.6h-5.6c.6-2.3.1-2.7.1-4.1 0-1.7-.1-7.2.3-8.7.2-.7.5-21.5.5-22.6l-.2-8.6c0-1.5-.4-2.4-.9-3.6-.2-.5-1.6-2.5-1.9-2.8-2.1-2-4.1-1.7-7.5-1.9a273 273 0 0 0-17.9.2 19 19 0 0 0-7.7 1.7c-2 1.1-2.5 1.7-3.3 3.6-.6 1.4-.3-.3-.4 2.1l-.2 2.9c-.4 1.6-.2 1.5-.2 3.2l-.1 2.3v4.4c-.2 4.4 0 9 0 13.3l-.1 4.5v4.7l-.4 8.6-5.3.2c-5.4 0-10.3.2-15.7 0-.6 0-.2-.2-.6.1 0 .3-.2.3 1.2.4 3.3.2 15 0 18-.2 2-.1 4.6.1 6.5-.1l-.1 2.8c-.4 6.4.7 4 3.6 4.6.6.1.2.3 1.2.2 3.5-.3 6.1-.3 9.7-.3l2.7.2h2.9c3 .1 9 1.1 9.8-1.4.5-1.5-.1-4 .3-5.1.4-.5.8-.4 1.6-.3 1.4.2 12.7.2 14.2.2 5.4 0 11-.1 16.4.2h3.9l4 .1c.6-.1.9-.6-.4-.6l-6.2.1-7.9-.2c-2.6 0-5.8.1-8.3-.1 0-.6.6-2.8.8-3.5l1.7-7.2.9-3.6c.7 0 1.3.4.7-2.1-.3-1.2-1.2-.8-2.4-.9-.3-1.1.3-1.4.2-2.1-.8-.6-1.3.1-2.5.3l-3.1.4-2.8.5c-.7.3.2.6-.3 1.1-.3.3-1 0-1.5 0-.5.7-.3.5-.7 1.3-.4.9-.2.8 0 1.5l.6.2z"/><path class="st16" d="M89.4 353.9c.4 1.4-.9 1.5-1.1.8-.4-1.2.4-1.4 1.1-.8zm-1.7 0c.1 1.5-1.2 2.1-1.5.1.8-.5.7-.7 1.5-.1zm3 0c-.7-.3-1.4.4-.9.9.4.3 1.3-.2.9-.9zm-24.1.9l-.3-.1c-2.8.1-3.2 1.1-3.2-.3.6-.1.9.1 1.6 0 .6-.1 1-.1 1.6 0l.4.1c.1-.2.4-.1.7-.1.5 0 .5 0 .6.4l-1.1.3-.3-.3zm-4.7 0c.1.5-.8.7-1 .2-.2-.6.9-.7 1-.2zm-1.9.7c-.3-.1-.5.1-.4-.4.1-.3 0-.1.2-.2.3-.2.6.1.2.6zm-1.1-.3c0 .1.1.2-.2.2-.7.2-.2 0-.4-.1.3-.3.2-.3.6-.1zm31.9 39l.4-4.4.3-3.3.1-3.5.2-3.3c0-1.1 0-11.1.2-12.2.4-2.6.1-6.9.1-9.8.1-5.4-1.1-4.5-6.9-4.8-1.7-.1-3.9.2-5.6.3l-11.3.4-5.6.3c-1.5 0-4 .2-5 .8-.7.5-.6 1.2-.6 2.1l-.1 9.9-.1 5.5c0 2.4.3 11.4.1 12.9 0 .3.1 5.1-.1 6.6l-.3 1.8h1.6v-8.6c.3-3.2 0-7.7 0-10.9l-.1-1.7c0-2-.1-12.5.4-13.5.6-1.3 2-.3 4-.5.4-.6.5-1.3 1.2-1.7.6-.4 1.8-.3 2.7-.2 2.2.2 4.4.9 6.3.7 1-.1.3 0 1.1.2.7.2 1.9-.1 2.8-.1 3.1.2 4.8.3 8 .3 2.2 0 4.3-.8 4.3 2.1 0 2.2.4 5.3.3 6.4a142 142 0 0 0-.5 13.1c0 3.4-.6 7.8-.3 11.2l.1 3.8 1.4.1.6.1h.3v-.1z"/><path class="st2" d="M107.2 383.6l-5.4-.4c-.9 0-1.4.4-1.2-.6.5-.2 4.1.6 6.9.3.2-.8.5-2 .5-2.9-3.6 0-5.3-.4-9.4.1-.1 1.1.2 2.2.2 3.3l.2 3.4c.9.3 2.6.1 3.7.1l1.8.1c.6 0 1.3-.3 1.5.3-1 .6-4.5-.3-6.9.3 0 1.8.6 5.2 1 6.8l4.6.1c.6-2.2 2.5-9.4 2.5-10.9z"/><path class="st17" d="M68.1 363.8c-1 .3-1.3-1.1-.5-1.4 1-.3 1.5 1.1.5 1.4zm-4.6-1.5c.5-.1 1.2 0 1.3.6.1.7-.5.9-1.2.9-.3-.6-.4-.8-.1-1.5zm3.4 3.2c.2.3.5.3-.3 1-1.4 1.3-2.6-.2-2.3-.9.5.1.6.5 1.1.8 1.1-.1.9-.7 1.5-.9zm4.4-4.2l-1.6.1c-1.3.1-4.2-.2-5.6-.2l-3 .1v.8l.2 2.3c.1 1.7.8 2.3 1.7 3.1 1.8 1.6 3.8 1.8 6.1.6 1.9-1.1 3.2-4.9 2.2-6.8z"/><path d="M72.6 357.9l-5.8-.8c-4.3-.6-3.5 1-4.2 2.1-2.3-.9-3.5.7-3.3 1.9.6 0 1.2-.4 3.6-.4 2 0 7 .4 8.4 0 1.3-.4 1.4-1.5 1.3-2.8z" fill-rule="evenodd" clip-rule="evenodd" fill="#414042"/><path class="st0" d="M109.2 379.4c-.2-.9-.5-.9-.6-1.7-1.2 0-2.1-.2-3.3-.1-1.1.1-7.6.4-8 .6s-.5.7-.6 1.3c.8.2 4.9-.1 5.9-.2 2.3.1 4.4.2 6.6.1z"/><path class="st1" d="M116.9 396.7c-2.3.1-4.7-.2-6.9-.3l-14.5-.1H92l-3.3-.2c-.1.5-.1.2.1.6H96c4.5-.1 9.4.1 14 .2 2.1 0 4.6.4 6.7.3l.4-.1-.2-.4z"/><path d="M80.2 375.7c-.3 2.7 4.1 2.4 4 0 0-.6-.4-1-.7-1.3-1-.9-1.2-.4-1.2-.4-1 .5-1.8-.6-2.1 1.7z" fill-rule="evenodd" clip-rule="evenodd" fill="#ed1651"/><path class="st1" d="M31.8 396.7l19.3-.3c-.1-.8-.3-.5-1-.5l-20.5.4c-.6 0-.7-.3-1 0-.4.4 0 .6.5.6l2.7-.2zM80.2 375.7c.3-2.3 1.1-1.2 2.1-1.7 0 0 .2-.6 1.2.4.3.3.7.8.7 1.3 0 2.4-4.4 2.7-4 0zm1.5 2.5c4.7-.5 3.2-4.8.7-4.9-.6 0-1.5.2-2 .5-1.7 1-.9 4.6 1.3 4.4z"/><path class="st20" d="M106.4 377.1v-1.4c-1-.1-4.9.6-6.4.9-.5.1-.5 0-.6.4.3.5-.1.3.6.3h.9l5.5-.2z"/><path class="st1" d="M75.4 379c-.1-.5 0-.5-1.4-.5h-6l-3.6-.1-1.9.1c-.6 0-1.3-.2-1.6-.1l-.1.5c.7.3 2.7 0 3.5 0l3.8.1h3.6c1.4 0 1.3-.1 2.7.1.7.1.6.2 1-.1zM77.1 349.8c.6 0 2.5.3 2.8-.2-.3-.3.3-.3-1.5-.3l-7.8-.1-1.4.1c-.6-.1-.7-.3-1.2-.1v.5c.4.2 7.9.1 9.1.1zM71.1 375.2c-.1-.8-.4-.3-2-.4h-2.7c-.7 0-4.9.1-5.2.3.1.8 1.3.4 2 .4l2.6-.2c1.1-.1 4.7.2 5.3-.1zM118.4 396.7v.4c.5.4 2.9.2 3.6.2.8 0 3.3.2 3.5.1.1-.7-.5-.5-1.3-.6l-4.1-.1c-.8.1-1.2-.3-1.7 0zM66.9 388.4c0 .6-.5 1-1 .6.1-.5.5-.6 1-.6zm.5-.3c-.4-.2-.8-.6-1.5-.3-.6.2-.7.9-.5 1.4.3.8 2.2.9 2-1.1zM66.9 365.5c-.7.1-.4.8-1.5.8-.5-.3-.6-.7-1.1-.8-.3.7.9 2.2 2.3.9.8-.6.5-.6.3-.9zM74.2 345.9c.3.5-.1.5-.5.6.2-.4.2-.5.5-.6zm-.8-.5c-.6 1-.4 1.7 1 1.5l.4-.5c.1-1.1-.3-1-1.4-1zM55.2 396.2c-.2-.7-.9-.5-1.6-.4h-2.1c-.3 1.1.6.6 1.5.5l2.2-.1zM63.5 362.3c-.4.7-.2.9.1 1.5.6 0 1.3-.2 1.2-.9-.1-.6-.8-.7-1.3-.6zM87 354.4c-.1-.6 0-.1.2-.3.2.3.2.1 0 .5-.3-.2-.2.2-.2-.2zm.7-.5c-.9-.6-.8-.4-1.5.1.3 2 1.7 1.4 1.5-.1zM68.1 363.8c1-.3.6-1.7-.5-1.4-.8.3-.5 1.8.5 1.4zM66.3 354.7v-.4c-.6-.1-1-.1-1.6 0-.7.1-1 0-1.6 0-.1 1.5.4.5 3.2.4zM88.9 354.2c.5.2.1.2 0 .3v-.3zm.5-.3c-.7-.6-1.5-.4-1.1.8.2.7 1.5.6 1.1-.8zM75.6 396.5l-.3-.1h-.4l-.9-.1v.5c.4.3 1.2.2 1.7.1l-.1-.4zM79.6 396.2v.4c1.4.6 2.2-.7 1-.6h-.7l-.3.2zM72.5 396.1h-.9c-.6 0-.6 0-.5.6 1.8.2 1.6-.1 1.4-.6z"/><path class="st1" d="M90.7 353.9c-.7-.3-1.4.4-.9.9.4.3 1.3-.2.9-.9zM77.6 386.2c-.3-.3-.3-.2-.9-.2s-.7-.1-.7.5c.5.3 1.5.4 1.6-.3zM69.6 396h-.9c-.6.1-.6.1-.5.6.3.2.5.1.9 0 .5-.1.6 0 .5-.6zM63.8 386.2c-.5-.3-1.4-.4-1.3.4.3.2.5 0 1.4.2v-.5l-.1-.1zM78 396.8l.1-.5c-.7-.3-1.2 0-1.4.1v.4c.4.2 1 .2 1.3 0zM74.7 386.5l.1-.4c-.4-.3-1.2-.2-1.4 0-.3.8 1 .5 1.3.4zM66.4 386.5c0-.6 0-.5-.7-.4-.8.1-.7-.1-.7.6.5 0 1.1 0 1.4-.2zM69 385.9c-.2-.1-1.7-.1-1.2.5.2.3 1.7.4 1.2-.5zM63.5 396.5c0-.5.1-.2-.2-.6H62l-.1.6h1.6zM62.1 386.9c-.1.7-.2 1.3.4 1.5.4-.5.2-.4.2-.9-.1-.6 0-.7-.6-.6zM62 389.4c-.2.3-.2.3-.2.7 0 .5 0 .5.2.8.3-.1.1.2.3-.2l.1-.6c.1-.6.2-.6-.4-.7zM80.5 386.8c-.1-.5 0-.4-.6-.5-.3 0-.7-.1-.8.1-.4.7 1 .7 1.4.4zM62.1 391.8c-.8.1-.7.7-.5 1.3.8 0 .7-.8.5-1.3zM83.4 392.1c.2 0 .3.1.5-.6.5-1.6-1.1-.7-.5.6zM66.4 396c-.4-.2-.8-.1-1.2 0v.5c.3.1.5.1.8 0 .5 0 .5 0 .4-.5zM84.1 388.2c-.4.2-.5 1-.3 1.6.5-.1.8-1.2.3-1.6zM72.1 386l-1-.1-.3.1c-.2.7.7.6 1.2.5l.1-.5zM61.7 394c-.5 0-.5 0-.5.5l.1 1c.6-.2.6-1 .4-1.5zM82.9 387c-.1-.7-1-.6-1.4-.4 0 .5 0 .5.5.5l.9-.1zM83.4 393.1c-.2.3-.5 1.1.3 1.2l.1-.3c.3-1-.1-.9-.4-.9zM83.6 396.3c0-.8-1-.5-1.1-.3-.3.6 1 .5 1.1.3zM66.6 354.4l-.1.4.2.2 1.1-.3c-.1-.3-.1-.3-.6-.4-.2 0-.5-.1-.6.1zM84.2 387.1c-.5-.2-1.2 0-.8.5.3.3.8.3.9-.1.1-.6-.1-.4-.1-.4z"/><path class="st0" d="M60.6 363.9v-1l-.4-.1c-.3.5-.4 1.4.4 1.1z"/><path class="st1" d="M61.9 354.8c-.1-.4-1.2-.4-1 .2.2.5 1.1.3 1-.2z"/><path d="M66.9 388.4c-.5-.1-.9.1-1 .6.4.4 1 0 1-.6z" fill-rule="evenodd" clip-rule="evenodd" fill="#ffd325"/><path class="st0" d="M72.4 362.9c-.3.3-.3.8-.3 1.4.1 0 .6 0 .5-1-.1-.6-.1-.3-.2-.4z"/><path class="st22" d="M59.4 359.3c.1-.4.1-.3-.3-.3-.5.2-.5.8-.5 1.5.3-.4.3-.9.8-1.2z"/><path class="st0" d="M70.2 390.9c-.3-.4-.4-.3-1-.2.2 1 1 .4 1 .2z"/><path class="st1" d="M83.8 394.7c-.3.1-.2-.3-.4.4-.1.4 0 .3.1.5.6-.1.9-.5.3-.9zM59.6 355.1c-.1.6.1.4.4.4.4-.5.1-.8-.2-.7s-.2 0-.2.3z"/><path class="st23" d="M56.1 359.1l-.1 1c.1.3-.3.2.3.2V359.4l-.2-.3z"/><path class="st22" d="M74.2 345.9c-.4.1-.4.2-.5.6.4-.1.8-.1.5-.6z"/><path class="st23" d="M96.9 380.4l.7-.1v.5l.1.4v-.5l-.1-.4c-.3-.2-.3-.3-.7.1zM88.7 396.1c-.2.2-.1-.3-.2.4l.3.3c.6 0 .2 0 .4-.2h-.4c-.2-.2-.1.1-.1-.5z"/><path class="st24" d="M58.8 355.4l.2-.2c-.4-.2-.3-.2-.6.1.2.1-.3.3.4.1z"/><path class="st25" d="M116.9 396.7l.2.4-.4.1c.1.1-.2.2.3.1.4-.1.1.1.3-.2-.2-.6-.1-.2-.4-.4z"/><path class="st23" d="M56.3 360.5c-.4.2-.1-.2-.3.3.1.4-.1.2.3.3v-.6z"/><path class="st22" d="M87.2 354.1c-.1.1-.2-.3-.2.3 0 .4-.1 0 .2.3.2-.5.1-.3 0-.6z"/><path class="st25" d="M66.6 354.4l-.3-.1v.4l.3.1z"/><path class="st23" d="M60.4 361.5v.4l-.4.1-.2.1.7-.1c.1-.8 0-.3-.1-.5z"/><path class="st26" d="M74.6 390.9c-.4-.3-.2-.2-.5 0 .4.2.2.2.5 0z"/><path class="st24" d="M88.9 354.2c-.2.2-.1.2 0 .3.2-.2.5-.1 0-.3z"/><path class="st25" d="M59.1 359c.4 0 .3-.1.3.3l.3-.4h-.3l-.3.1z"/><path d="M73.1 358.7l-.2 1.1 2.4-.1 3.8.1h3.8c1 0 3.1-.3 3.5.4.2.4.4 8 .3 9.1l-.2 4.5v4.6L86 387l-.1 10.9c.1 2.5-.3.6-.1 1.8l.2 1c1.7-.3 1-1.5.9-2.1-.2-1.2.2.6.1-1.8l.1-10.9.7-8.7v-4.6l.2-4.5c0-1.1-.1-8.7-.3-9.1-.4-.6-2.5-.4-3.5-.4h-3.8l-3.8-.1-3.5.2z" fill-rule="evenodd" clip-rule="evenodd" fill="#808285"/><path class="st28" d="M68.9 392.1c.2-.4 1.8-.7 1.8-.7l3.1 2-6.7.7 1.8-2z"/><path class="st28" d="M73.6 391.7c.2-.3 1.2-.5 1.2-.5l2.2 1.4-4.8.5 1.4-1.4z"/><path class="st1" d="M69.2 390.7c.6-.1.7-.1 1 .2 0 .2-.8.8-1-.2zm5.4.2h-.5c.3-.2.1-.2.5 0zm-6 .5c.3.1.8.9 1.8.2l.5-.4 1.7 1.3c.7.4 1 1.2 1.8 1.2-.1-.6-1.1-1.3-1.6-1.6l.7-.8c1 .6.8.3 1.7.1l.9.8c.3.3.5.7 1.1.8-.2-.6-2.6-2.9-2.7-2.9-.6.2-1.5 1.2-2.1 1.6-.4-.1-2.1-1.5-2.7-1.7-.8.4-2.2 2.2-2.8 2.8-.4.4-.9.5-.5 1.1.3-.4 1.7-2.1 2.2-2.5z"/><path class="st20" d="M98.8 383.5l.2 3.4.9.2-.2-3.4c0-1.1-.3-2.3-.2-3.3 3.7-.5 5.5-.2 8.5-.1v-.2c-3.6 0-5.3-.4-9.4.1-.1 1 .2 2.2.2 3.3zM99.1 387.6c0 1.8.6 5.2 1 6.8h.9c-.4-1.7-1-4.8-1-6.6 2.1-.5 5.1.1 6.4-.1l.1-.5h-.6l.1.1c-1 .6-4.5-.2-6.9.3z"/><path class="st0" d="M92.8 270.1c.3.6 0 1.3 0 2.1 0 1.2.3 5.8-.1 6.3-.4-.2-.4-.2-.5-.9v-3.4c.1-3-.4-4.2.6-4.1zM87 280c-.5-.2-.9-1.4-1.1-2-.4-.9-1-1.5-.2-1.9.7.3.6 1.1.8 2 .2.6.7 1.1.5 1.9zm10.7-.3c-.3-.5.7-4.7 1.3-4.4s.2.7 0 1c-.6 1.1-.6 3-1.3 3.4zm10.3-4.9c-.1.8-4.7 5-5.5 6.3-.4.7 0 .8-.8.9-.7-.6-.3-.6.9-2 .6-.7 3.8-3.8 4.4-4.6.3-.4.4-.6 1-.6zm-26 7c-.7-.4-3.2-3.4-4-4.3-.7-.8-1.5-1-1-1.5.4-.4 1.1.5 1.5 1.1l4 4.3c.2.2.2-.3.2.4-.4.2-.4.2-.7 0zm22.5 2.7c1.1-.4 1.6-1.6 2.9-2.2 1.1-.5.6-1.1 0-.9l-1.5 1.2-1.7 1.6c-.2.2-.2-.3-.2.5.9 0 .3 0 .5-.2zm-28.2-2.2c.6 0 .6.2.9.6l.8.8.8.7.4.4c.4.4.1-.1.4.5-.9-.1-1.6-.8-2.2-1.2-.9-.8-1.5-.9-1.1-1.8zm-4.7 3.5c.7.5 4.8 3 5.3 3.1-.1-1.1-.9-1.2-1.7-1.6l-4-2.5c-.5-.4-1.7-1.7-1.5.1 1.1.3 1 .2 1.9.9zm41.9-.7c-.3.3-5 2.3-5.8 2.7-.9.5-1.2.9-1.8 1-.7-1 .4-1 1.2-1.4l2.2-1 2.2-1c1.6-.7 1.7-1.1 2-.3zm-5.7 7.6l-.3.2c-.4.1-.2 0-.3-.1-.1-.6-.2-.3.2-.7l.7-.2.7-.1 1.3-.2c.9-.2 1.8-.8 2.2.1-.4.3-1 .2-2.2.5l-2.3.5zm-34.5-1.2c.7.3 2 .5 2.2 1.3-.7.3-1.3-.4-2.1-.7l-2.2-.7c-.1-1.3.4-.5 2.1.1zm-6.3 4.7c.2-.1 1.6.3 2.2.3 1.4.1 7.8.2 5.9 1.2L67 297a.5.5 0 0 1 0-.8zm40.3 1.7c-1 .1-1.4.7-1.4-.7h2.9l4.6.2c1.2.1 1.7-.3 1.9.2.3.9-.9.5-1.6.5l-6.4-.2zm-31.2 2.4c.3 1.2-.2.8-1 .8-2.2.1-4.1 1.3-4.6 1.2-.3-1.3 5.5-2 5.6-2zm32.8 1.2c.9.1 2.4.2 2.8 1-.4.2-2.1-.3-2.7-.4-.9-.1-2.5-.1-3.1-.3l.1-.7c.2-.1 2.4.3 2.9.4zm9.9 5.5l.5-.3c.1.2.1-.5.4-1 0-3.1.6-6.6.8-9.7v-5.4c0-5 1.6-21.6 1.1-25.1-1.6-.4-5.5-.1-7.4-.1h-7.5c-5.1-.3-11.1.2-15.2-.2-4-.3-17.9-.2-22.5-.1-2.2.1-5 .4-7.1.1-.1 2-.5 9.5-.8 11.5-.2 1.2 0 2.6-.1 3.9-.4 5.1-.1 10.6-.5 15.7v8.1c.1 1.4 1.5 1.3 2.9 1.3h4l15.4.4-2.5-3a10 10 0 0 1-1.9-3.7c-1.1-3.6-1.1-5.3.2-8.9.4-1.2 1.3-2.8 2-3.6a12 12 0 0 1 6.5-4.7c3.6-1.3 4.6-1.5 8.9-.1 1.8.6 2.4.8 3.7 1.8 4.8 3.7 5.9 10.5 4 16.2-.8 2.3-4.6 6.1-4 6.7 1.5.6 16.1.2 19.1.2z"/><path class="st1" d="M121.7 264.8H118c-2.6.1-8.7.2-10.9.1-4.6-.3-9.9-.1-14.7-.1s-9.6-.3-14.5-.3c-5 0-9.7.3-14.7.3-.6-.2-.1.1-.5-.5-.4-.7-.3.1-.3-.8 0-.3.2-1.7.4-2l.6-1.5c.2-.4.5-.7 1.4-.9 2.3-.5 6.4-.1 8.9-.2h18.1c4.7.1 13.2.1 17.6.4 3 .2 5.9-.2 8.9 0 3.6.1 3.1-.7 3.4 5.5zm-82 12.8c-.4-.4-.8-.3-1.2-1.9-.7-2.7-.2-5.7 1.9-7.4.3-.3.8-.3 1-.5 0 0 .7-1.4 3.4-1.6 2.6-.2 3.2.8 4.7 1.8 4.5 3.3 3.2 11.1-1.1 12.2-.8.2-1.9.6-2.6.6-2.8-.1-2.5-1-3.2.3l-1.3 1.9c-.4-.1-.1-.2-.8-.4l-1.1-.1c-1.1-.3-1.6-1.5-1.1-2.4l.5-.4c.7-.4 1 .6.9-2.1zm.9 5.8c-1.1-.8-1.4.1-3-1.7l-.4-.4c-.4 1.7 2.7 2.2 3.4 2.1zm-3.9-.9l-2 2.6c-1.4 2-4.6 6.4-5.6 8.2l.4 1.1c.3.8 2.1 1.4 3 1.3l1.1-1.4 3.1-4.3 2-3 1.8-2.9c-3-.6-3-1.2-3.8-1.6zm53 12.8v1.1c-.8-.3-.7-1.5-.5-1.9l.5.8zm-60.3.1c.7.7 1.9.6 2.5 1.2-.8.1-1.3-.1-1.9-.5l-.7-.5c-.5-.3-.3-.2-.5-.8l.6.6zm63.3-1.4c.1.9.7 2.1-.5 2.4-1.3-.7-.2-1.7-.4-2.5-.1-1-1.5-1.1-2.3-.3.2.7 2.4 3.9-.4 3.6-1-1.3-.5-1.7-.6-3.4-1.8-1-3.2.2-3.1 2.3.1 1.9.6 3.6 1.4 5l2 4.3c1.2 2.2 1.4.8 4.7 1.4v-.1l.1-.3c.5-1 .5-.2 1.6-3.1.8-2.1 2-7 1-9-.6-1.6-2.4-1.2-3.5-.3zm-33.2 4.6c-.4.2-2.1 0-2.8 0l-8.6.4c-3.7.3-7.9.2-11.7.4l-6 .1-5.4.2-2.9-.1-2.9.2.4.5c3.2 0 6.6-.2 9.6-.4h5.1l10.3-.3c2.8 0 8.1-.8 10-.6s.3.1 2.3 0c.9 0 1.7-.1 2.5.2l-.1 1.6c-1.2.4-8.2.3-10 .3-3.4 0-6.7.3-10 .3s-6.8.2-10 .4l-7.7.2-1-.3.7.9 9-.4 9.6-.3c3.1 0 6.5-.1 9.6-.3 3.2-.2 6.9.2 10-.1l-.1 2c0 .8-.2.9-.3 1.6-.8.2-.8.3-1.9.4l-7 .1h-9.1c-3.2 0-5.7.3-8.8.4l-8.4.3.5.7h1.2c2.2-.2 4.6-.1 6.8-.2 6.8-.2 12.2-.6 19.2-.3 2.2.1 4.6-.1 6.8-.2l3.2.2 3.2-.2 10.2.4h3.4c1 0 6 .2 6.5.4 1.6.7 2 3.3 2.3 4.5.8 4.2-.2 2.3 1.6 3.6.6.5 2.2 4 5.4 1.8.9-.6 1-1.3 1.9-1.7 1.1-.4 1.4-.4 1.4-2 0-2.8.4-3.5 1.1-5.8h21c2.2-.3 17.6.3 20.8.3l6 .3v-.9h-4.6c-3.1.1-8.6-.3-12.1-.3h-6.1c-3.1-.2-3.6.3-3.6-.8 0-2.3.8-9.7 1-12.7l.4-12c.2-3.9.2-7.9.6-11.7.2-1.8.4-10.7-.6-11.1l-.6-.2-.6-.1-1.4.2-9.6.1c-6.5 0-12.7-.4-18.9-.4H84c-5.6-.5-14 .3-18.9-.1-1.1-.1-3.1-1.2-3.8 1.8-.4 1.8-.9 9.4-1.1 11.7l-.7 12.2c-.3 4.1 0 8.5-.1 12.7l-13.9.4c-2.5.1-4.7-.2-7.1-.2-2.5 0-1.3.3-4.1-.1-1.1-.1 0 .5-1.9-.1l.8-1 4.6-6.6c1-1.6 4.3-7.1 5.2-7.5.2-.1 3.6 1.5 8-2.2 1.8-1.5 2-6.7 1.2-8.7-1.2-3.1-4.7-6-8.6-5.1-2.5.6-2.9 1.1-4.4 2.6-1.1 1.1-.7.6-1.5 2.1l-.4.9a7.7 7.7 0 0 0-.3 5c.8 3 .5 1.3 1.2 2.2-.1.7-2.9 4.5-3.6 5.7l-.8 1.1-5.8 8.7c-.5 1.1.6 1.3.7 2.5l-3.4-.1c-2.4-.1-6.4 0-9.3-.2l.6.8c1.5-.2 3.4-.1 4.7.1.8.1.3 0 1.2-.1h4.2l2.8.2c1 .1.8.6 2.1.4l11 .1c2 .1 3.8-.1 5.7-.1l2.9-.1c1 0 .5.2 1.2.3l1.2-.1c1.8.1 3.6-.2 5.5-.2l.4 1.4zm28.8 7.9c-.3-.8-1.9-3.2-2.6-4.7-1.3-2.8-3.4-9.1 1.3-9.7 2.2-.3 1.4.8 2.7.4 1.4-.4 1.8.1 2.5.8 1-1 3-2.2 4.4-.9 2 2 1.3 7.3.1 9.9-.5 1.1-1.5 3.1-1.7 4.3l3 .1c.7-1.2.1-.7 1.1-1.7 1.6-1.5 2-2.8 3.2-4.7 2.6-4.1 1-12.5-3.1-15.7a16.6 16.6 0 0 0-7.6-2.9c-3.1 0-5.9 1.1-8.1 3.1a12.8 12.8 0 0 0-.3 19.8c.9.4.3-.1.8.6.7 1 .7-.1 1.6 1.2l2.7.1zm31.3-.8c0-3.1.6-6.6.8-9.7v-5.4c0-5 1.6-21.6 1.1-25.1-1.6-.4-5.5-.1-7.4-.1h-7.5c-5.1-.3-11.1.2-15.2-.2-4-.3-17.9-.2-22.5-.1-2.2.1-5 .4-7.1.1-.1 2-.5 9.5-.8 11.5-.2 1.2 0 2.6-.1 3.9-.4 5.1-.1 10.6-.5 15.7v8.1c.1 1.4 1.5 1.3 2.9 1.3h4l15.4.4-2.5-3a10 10 0 0 1-1.9-3.7c-1.1-3.6-1.1-5.3.2-8.9.4-1.2 1.3-2.8 2-3.6a12 12 0 0 1 6.5-4.7c3.6-1.3 4.6-1.5 8.9-.1 1.8.6 2.4.8 3.7 1.8 4.8 3.7 5.9 10.5 4 16.2-.8 2.3-4.6 6.1-4 6.7 1.5.6 16.1.1 19 .2h.8l.2-1.3zm-22.5 2c-5 .5-4.3.2-8.8-.1.5-.3 1.7-.3 2.3-.2 1.6.3 4.1.3 5.8.2.5-.1.3-.3.7.1zm.6.7c.1 1.1-.9.9-2.1 1s-1.8.2-2.9 0c-1-.1-2.2 0-3.1-.2-1.9-.4-2-.3-2.4-.9l.4-.1c.8-.2 3.7.3 4.8.3 1.5 0 3.8-.2 5.3-.1zm-1.3 1.6c.6 0 .4-.1.8.2 0 .8 0 .4-.3.6-1.1.5-6 .6-7.6.2-1.2-.3-1.5 0-1.6-1.2 3.1-.1 5.5.6 8.7.2zm.6 2.8c-.9-.1-1.6.1-2.5.1-2.3 0-3.8.1-5.7-.6-.7-.3-.5.3-.7-.6l.1-.1c.8-.3.9 0 2.1.1 2.1.1 6-.1 6.7.1v1zm-.1 1.7c-1.5.8-2.9 1-4.9.8-1.6-.2-3.6-.4-3.6-2.2l2 .2 6.6.1-.1 1.1zm-2.3 1.6c-.3.6-1.2 1-2.1.9-.9 0-1.4-.5-1.9-1.1 1.2 0 2.5.4 4 .2z"/><path class="st16" d="M88.3 306.5c-.3-.8-1.9-3.2-2.6-4.7-1.3-2.8-3.4-9.1 1.3-9.7 2.2-.3 1.4.8 2.7.4 1.4-.4 1.8.1 2.5.8 1-1 3-2.2 4.4-.9 2 2 1.3 7.3.1 9.9-.5 1.1-1.5 3.1-1.7 4.3l3 .1c.7-1.2.1-.7 1.1-1.7 1.6-1.5 2-2.8 3.2-4.7 2.6-4.1 1-12.5-3.1-15.7a16.6 16.6 0 0 0-7.6-2.9c-3.1 0-5.9 1.1-8.1 3.1a12.8 12.8 0 0 0-.3 19.8c.9.4.3-.1.8.6.7 1 .7-.1 1.6 1.2l2.7.1z"/><path class="st3" d="M69.6 260.3c.9 1.5 0 3.3-1.5 2.4-.5-.3-.8-1.2-.3-1.9.1-.3 1.3-.5 1.8-.5zm-5.9 1c0 .5.2 1.1.4 1.6 3.4.4 1.8-3.9-.4-1.6zm8.4-1c.8.2 1.9.2 1.5 1.5-.3 1-1.2 1-1.9.5-.2-.9.1-1.5.4-2zm49.6 4.5c-.3-6.2.2-5.4-3.4-5.7-3-.2-5.9.2-8.9 0-4.4-.3-13-.3-17.6-.4h-9.1a135 135 0 0 0-9 0c-2.6.1-6.6-.3-8.9.2-1 .2-1.2.4-1.4.9l-.6 1.5-.4 2c0 .9-.1.1.3.8.4.6-.1.4.5.5 5 0 9.6-.3 14.7-.3 4.9 0 9.7.3 14.5.3s10.1-.1 14.7.1c2.2.1 8.4.1 10.9-.1l3.7.2z"/><path class="st0" d="M59.2 305.3l.3-1.6.1-2c-3.1.3-6.8-.1-10 .1-3 .2-6.5.3-9.6.3l-9.6.3-9.6.4c0 .5 2.4 3 2.9 3.5 2.8 0 5.9-.1 8.8-.3 3.1-.1 5.6-.4 8.8-.4h9.1l7-.1c.9.2.9.1 1.8-.2z"/><path d="M92.7 294c.1.9.7 2.1-.5 2.3-1.3-.7-.2-1.7-.4-2.5-.1-1-1.5-1.1-2.3-.3.2.7 2.4 3.9-.4 3.6-1-1.3-.5-1.7-.6-3.4-1.8-1-3.2.2-3.1 2.3.1 1.9.6 3.6 1.4 5l2 4.3c1.2 2.2 1.4.8 4.7 1.4v-.1l.1-.3c.5-1 .5-.2 1.6-3.1.8-2.1 2-7 1-9-.6-1.5-2.4-1.1-3.5-.2z" fill-rule="evenodd" clip-rule="evenodd" fill="#ffd73d"/><path class="st17" d="M45.9 279c-1.6.4-2.9 0-3.9-.8-1.3-1-1.2-1.1-2-3-1.1-2.6 2-5.2 3.7-5.9 1.5-.6 3.2-.2 4.1.6 1.1.8 1.7 1.2 1.9 3 .6 3.5-.9 5.3-3.8 6.1zm-6.2-1.4c.1 2.7-.1 1.7-.9 1.9l-.5.4c-.5.9 0 2.2 1.1 2.4l1.1.1c.7.2.3.3.8.4l1.3-1.9c.7-1.3.4-.3 3.2-.3.7 0 1.8-.4 2.6-.6 4.3-1.1 5.6-8.9 1.1-12.2-1.5-1.1-2.1-2-4.7-1.8-2.7.2-3.3 1.6-3.4 1.6l-1 .5c-2.1 1.7-2.6 4.7-1.9 7.4.3 1.7.8 1.6 1.2 2.1z"/><path class="st4" d="M59.5 298.6l.1-1.3c-2 0-3.8.3-5.5.2l-1.2.1c-.8-.1-.2-.3-1.2-.3l-2.9.1-5.7.1-11-.1c-1.4.2-1.1-.3-2.1-.4l-2.8-.2H23c-.9.2-.4.3-1.2.1-1.5-.3-4-.4-5.5 0 0 .9.5 1.3 1 1.9 1.2 1.5 2 1 4.9.9 1-.1 1.9.1 2.9.1 1.7 0 3.6-.3 5.4-.2l6-.1c3.8-.2 8-.1 11.7-.4l8.6-.4 2.7-.1z"/><path d="M133.7 276.6c-1.5.7-5.4-1.5-3.6-5.4.9-2 3.6-2 4.6-1.1 1 .8 1 .7 1.2 2.2.4 2.1-.3 3.5-2.2 4.3zm-2.9.8c-.2.8-1.5 1.4-1.5 2.8l2 .9c.4-.7.6-1.5.8-2.3.4-1.5.9-.4 2.2-.8.6-.2 1.2-.5 1.7-.4.6.4.1 1.2.9 2.4l1.9-1.4-1.5-2.1-.6-.4.4-2h3.2v-1.7l-2.9.2-.2-2.1 2.1-1.5c-.1-.5-.6-1.1-.9-1.5-2.1.1-1.4 1.5-2.3 2-.8-.3-.3-.4-.9-.9-.8-.7-1.4.4-1.5-1.8l-.1-1.7c-.7-.1-1.3-.2-1.9 0-.5 1.7.8 2.7-.7 3-1.6.3-.6 0-1.5 1.1-1.4.1-1.3-1.1-2.8-1.1-.4.4-.6.9-.6 1.6.5.3.6.3 1.3.5 1.6.5 1 1.2.8 1.8v1.3c-1.1.8-1.3.2-2.2.7-.8.4-.7.6-.4 1.8 1.1-.1 2.1-.9 3.1-.9.3.7.1 1.2.7 1.6.8.5.9.1 1.4.9z" fill-rule="evenodd" clip-rule="evenodd" fill="#a7a9ac"/><path d="M24.8 301.7c.1-.6-.1-.1.2-.5.5.3.2.4-.2.5zm34.7-.7l.1-1.6c-.8-.3-1.6-.3-2.5-.2-2 .1-.4.2-2.3 0-2-.2-7.3.6-10 .6l-10.3.3h-5.1l-10.5.4c.1.4 1 1.5 1.2 1.9.5-.2.4-.4.8-.4.3 0 .3.2 1 .3l7.7-.2c3.3-.2 6.7-.4 10-.4 3.4 0 6.6-.3 10-.3 1.7-.1 8.7 0 9.9-.4z" fill-rule="evenodd" clip-rule="evenodd" fill="#6d6e71"/><path class="st32" d="M34.7 285.1c-1.4 2-4.6 6.4-5.6 8.2l.4 1.1c.3.8 2.1 1.4 3 1.3l1.1-1.4 3.1-4.3 2-3 1.8-2.9c-3-.6-2.9-1.2-3.8-1.6l-2 2.6z"/><path class="st1" d="M130.8 277.4c-.5-.8-.6-.4-1.3-.8-.6-.4-.4-1-.7-1.6-1 .1-2 .8-3.1.9-.3-1.3-.4-1.5.4-1.8.9-.5 1.1.1 2.2-.7v-1.3c.1-.6.8-1.3-.8-1.8-.7-.2-.8-.2-1.3-.5 0-.7.2-1.2.6-1.6 1.5 0 1.4 1.2 2.8 1.1.9-1.1-.1-.8 1.5-1.1 1.5-.3.3-1.3.7-3 .6-.2 1.1-.1 1.9 0l.1 1.7c.1 2.2.7 1.1 1.5 1.8.6.5.1.6.9.9.9-.6.2-1.9 2.3-2 .3.4.8 1 .9 1.5-.8.6-1.3 1.1-2.1 1.5l.2 2.1 2.9-.2v1.7h-3.2l-.4 2 .6.4 1.5 2.1-1.9 1.4c-.8-1.2-.3-2-.9-2.4-.5-.2-1.1.2-1.7.4-1.3.3-1.8-.7-2.2.8a9 9 0 0 1-.8 2.3l-2-.9c-.1-1.5 1.2-2.1 1.4-2.9zm8.7 1.3l.1-.5c-1 .1-.5 0-.7-.1-.8-1.4-1.4-1.4-1-3.4.7 0 2.3.4 2.8.2v-1.8c.2-2.1.6-1.2-2.5-1.2l-.1-1.4c1.2-1.1 2-.9 2-1.5-.1-.5-.6-.6-1-1.2-.5-.7-.2-.9-.5-1.4-1.2 0-2 1.4-2.8 1.9l-.9-.7c-1.5-1.1-.2-2.3-.3-3.3-.9-.1-.8.3-1.7.3l-1.6-.3c-.8 0-.2.5-.3 3l-1.1.5c-.4.3-.3.4-.8.7-1.7-.2-1.1-1.3-2.5-1.5-.3.7-1.5 2.5-1.4 2.9.3.7 1.6.9 2.2 1.2l-.1 2-1.3.4c-.5.2-.9.1-1.5.2-.2.6.3 2.6.6 3.1.4 0 2-.7 2.6-.9.8 1.5.7 1.4 1.5 1.8l.3.2c-.5.4-1.4 1.8-1.4 2.5.5.4 2.9 1.5 3.3 1.4.7-.3.2-1.2.8-2.1l.3-.3c.6-.6.6-.2 1.5-.4.6-.1.8-.4 1.4-.5.3.6.4 1.5.7 2.2 1.4.3 1.1 0 1.8-.8.6-.5 1.4-.9 1.6-1.2z"/><path class="st0" d="M46.2 278.1l1.4-.5c.5-.3.4-.8.7-1.3.5-1 1.1-1.7.6-3.1-1.1-3.2-5.1-3.8-7-.4-.4.8-1.1 1.8-.8 2.8.3 1.8 2.7 3.1 5.1 2.5z"/><path class="st1" d="M46.2 278.1c-2.4.6-4.7-.7-5.2-2.5-.3-1 .4-2.1.8-2.8 1.9-3.4 5.9-2.9 7 .4.5 1.4-.1 2.1-.6 3.1-.3.5-.2 1-.7 1.3a4 4 0 0 1-1.3.5zm-.3.9c2.9-.8 4.4-2.5 3.9-6.1-.3-1.8-.9-2.2-1.9-3a4.5 4.5 0 0 0-4.1-.6c-1.7.7-4.8 3.4-3.7 5.9.7 1.8.7 1.9 2 3 .8.8 2.2 1.2 3.8.8zM133.7 275.7c-1.2.6-2.7-.5-3-1.3-1.2-3.1 4.2-4.5 4.5-1.7l-.3 1.9c-.2.6-.6.9-1.2 1.1zm0 .9c1.9-.9 2.6-2.2 2.2-4.4-.2-1.5-.2-1.3-1.2-2.2-1-.8-3.7-.8-4.6 1.1-1.8 4 2.1 6.2 3.6 5.5z"/><path class="st0" d="M133.7 275.7c.6-.3 1-.5 1.2-1.2l.3-1.9c-.4-2.8-5.7-1.4-4.5 1.7.3.9 1.8 2 3 1.4zM96.9 314.5l.1-1.1-6.6-.1-2-.2c0 1.8 2 2 3.6 2.2a8 8 0 0 0 4.9-.8zM97 310.8l.1-.6h-.4l-.1-.1-.1-.1c-3.2.4-5.7-.3-8.7-.3.1 1.3.4.9 1.6 1.2 1.6.5 6.5.4 7.6-.1zM97.7 308.4c-1.5-.1-3.7.1-5.3.1-1.1 0-3.9-.5-4.8-.3l-.4.1c.3.6.5.5 2.4.9.9.2 2.1.1 3.1.2h2.9c1.1-.1 2.2.2 2.1-1zM97 311.8c-.7-.2-4.7 0-6.7-.1-1.2-.1-1.3-.4-2.1-.1l-.1.1c.2.9-.1.3.7.6 1.9.7 3.3.6 5.7.6.9 0 1.6-.2 2.5-.1v-1z"/><path class="st1" d="M108.8 297.2h-2.9c0 1.4.4.8 1.4.7l6.5.2c.6 0 1.8.4 1.6-.5-.2-.5-.7-.2-1.9-.2l-4.7-.2zM75.1 297.7c1.9-1-4.5-1-5.9-1.2-.5-.1-2-.5-2.2-.3-.3.2-.4.5-.1.8l8.2.7zM108 274.8c-.6-.1-.7.1-1 .6-.6.8-3.8 3.8-4.4 4.6-1.2 1.5-1.6 1.4-.9 2 .7-.1.3-.2.8-.9.8-1.3 5.5-5.5 5.5-6.3zM49.5 294.5c-.8 0-.5-.1-.8.4.3.4.6.3 1.1.3h7c.7.1 1.2.4 1.4-.4-.4-.3-4.2-.2-5.2-.2l-3.5-.1zM113.5 285.1c-.3-.9-.4-.4-1.9.3l-2.2 1-2.2 1c-.9.4-2 .3-1.2 1.4.6-.1.9-.5 1.8-1 .7-.4 5.4-2.3 5.7-2.7zM92.8 270.1c-1-.1-.5 1.1-.6 4.1v3.4c.1.7.1.7.5.9.4-.5.1-5.1.1-6.3.1-.8.3-1.5 0-2.1zM69.7 284.9c1 .3 1 .3 1.9.9.7.5 4.8 3 5.3 3.1-.1-1.1-.9-1.2-1.7-1.6l-4-2.5c-.4-.4-1.7-1.7-1.5.1zM82.5 281.4l-4-4.3c-.5-.6-1.2-1.5-1.5-1.1-.5.5.3.6 1 1.5.8.9 3.4 3.9 4 4.3l.6.1-.1-.5zM69.3 261c.5 1-.2 1.4-1.1 1.1 0-.7-.1-.4.3-.8.3-.2.3-.3.8-.3zm.3-.7c-.5 0-1.7.2-1.9.5-.4.7-.1 1.6.3 1.9 1.5.9 2.4-.8 1.6-2.4zM76.1 300.3s-5.8.7-5.6 2c.4.1 2.4-1.1 4.6-1.2.7 0 1.3.4 1-.8zM111.7 302.5c-.4-.8-1.9-.9-2.8-1-.5-.1-2.7-.5-3-.4l-.1.7c.6.2 2.2.2 3.1.3.6.1 2.3.5 2.8.4zM65.3 261.6c0 .6-.2.7-.9.7l.1-.8c.5-.2.6-.1.8.1zm-1.6-.3c0 .5.2 1.1.4 1.6 3.4.4 1.8-3.9-.4-1.6zM107.3 292.1l-.1.7h.5l2.2-.5c1.2-.3 1.8-.2 2.2-.5-.4-.9-1.3-.3-2.2-.1l-1.3.2-.7.1-.6.1zM73 261.2c0 .8-.1.8-.9.7.2-.9.1-.5.9-.7zm-.9-.9c-.3.5-.6 1.1-.5 1.9.7.5 1.6.5 1.9-.5.5-1.2-.6-1.2-1.4-1.4zM75.5 292.9c-.2-.8-1.5-1.1-2.2-1.3-1.6-.6-2.2-1.4-2.1 0l2.2.7c.8.2 1.4.9 2.1.6z"/><path class="st22" d="M97.1 307.7c-.4-.4-.1-.1-.7-.1a38 38 0 0 1-5.8-.2c-.6-.1-1.8-.1-2.3.2 4.5.2 3.8.6 8.8.1z"/><path class="st1" d="M104.2 284.2l-.1.4.3-.1c1.1-.4 1.6-1.6 2.9-2.2 1.1-.5.6-1.1 0-.9l-1.5 1.2-1.6 1.6zM76.3 282.3c-.4.9.1 1 1.1 1.8.5.4 1.3 1.1 2.2 1.2-.3-.6.1-.1-.4-.5l-.4-.4-.8-.7-.8-.8c-.3-.4-.2-.6-.9-.6z"/><path class="st0" d="M94.6 316.1c-1.5.2-2.9-.2-4.1-.1.6.6 1 1 1.9 1.1 1 0 1.9-.5 2.2-1z"/><path class="st1" d="M97.7 279.7c.7-.4.7-2.3 1.3-3.3.2-.4.6-.8 0-1-.6-.4-1.6 3.8-1.3 4.3zM85.7 276c-.7.4-.1 1 .2 1.9.2.6.6 1.8 1.1 2 .2-.7-.3-1.2-.5-2s-.2-1.6-.8-1.9z"/><path class="st22" d="M40.6 283.4c-1.1-.8-1.4.1-3-1.7l-.4-.4c-.4 1.7 2.7 2.2 3.4 2.1z"/><path class="st0" d="M69.3 261c-.5 0-.5 0-.8.3-.4.4-.3.1-.3.8.9.3 1.6 0 1.1-1.1z"/><path class="st26" d="M28.8 294.7c.2.7 0 .5.5.8l.7.5c.6.4 1.1.6 1.9.5-.6-.6-1.8-.5-2.5-1.2l-.6-.6z"/><path class="st0" d="M89.2 294.5c-.2.4-.4 1.7.5 1.9a1 1 0 0 0 0-1.1l-.5-.8zM65.3 261.6c-.3-.2-.4-.2-.8-.2l-.1.8c.7 0 .9 0 .9-.6zM73 261.2c-.8.2-.7-.1-.9.7.8.1.9.1.9-.7z"/><path class="st23" d="M119.6 305.7c-.3.5-.3 1.1-.4 1l-.5.3h.8l.1-1.3z"/><path class="st26" d="M96.4 310l.1.1.1.1c.2.1.2 0 .4 0l-.1.6c.3-.2.3.3.3-.6-.3-.3-.2-.2-.8-.2z"/><path class="st25" d="M138.9 278c.2.2-.3.3.7.1l-.1.5c.2-.2.2.3.2-.5-.4-.2-.1-.1-.8-.1z"/><path class="st23" d="M107.3 292.1c-.4.4-.3.1-.2.7.2.1 0 .2.3.1.3 0 .1 0 .3-.2h-.5l.1-.6z"/><path class="st1" d="M24.9 301.2c-.3.4-.1-.1-.2.5.5-.1.8-.2.2-.5z"/><path class="st23" d="M82.5 281.4l.1.4-.6-.1c.3.2.3.2.7.1 0-.7 0-.1-.2-.4z"/><path class="st25" d="M104.2 284.2c-.2.2-.2-.3-.2.5.8.1.2 0 .4-.2l-.3.1.1-.4z"/><path class="st2" d="M71.2 267.9c4.6-.2 18.4-.3 22.5.1 4.1.3 10-.2 15.2.2 2.4.2 5.1 0 7.5 0l5.3-.1-.1-2.6c-1.6-.4-5.5-.1-7.4-.1h-7.5c-5.1-.3-11.1.2-15.2-.2-4-.3-17.9-.2-22.5-.1-2.2.1-5 .4-7.1.1-.1 2-.5 9.5-.8 11.5-.2 1.2 0 2.6-.1 3.9-.4 5.1-.1 10.6-.5 15.7v8.1c.1 1.2 1 1.3 2.1 1.3v-6.6c.4-5.2.1-10.6.5-15.7l.1-3.9c.3-2 .8-9.5.8-11.5 2.3.3 5 0 7.2-.1z"/><path class="st28" d="M48.8 273.2c-1.1-3.2-5.1-3.8-7-.4l-.1.2c2-1.7 4.9-.8 5.8 1.9.5 1.4-.1 2.1-.6 3.1l.6-.3c.5-.3.4-.8.7-1.3.5-1.1 1.1-1.8.6-3.2z"/><path fill-rule="evenodd" clip-rule="evenodd" fill="none" stroke="#000" stroke-width=".7" stroke-miterlimit="22.9" d="M25.2 306.8l-14.6.4"/><path class="st0" d="M46.6 105.9c1.4 0 2.7-.3 2.6.6l-3.3-.1c-1.5-.1-7.4.4-6.2-.8.2-.2.8.2 1.4.3h5.5zm-7.7-2.4c.3-.3.4-.1.8 0 2 .4 10-.1 10.8.5-.1.4 0 .4-.5.3l-11-.1c-.3-.1-.4-.4-.1-.7zm-.1-2.8c1.5.5 3.7-.3 5.1.2.2.2.3-.3.1.4h-.4c-.6 0-.1 0-.3-.1-.8 0-4.5.2-4.9.1l-.1-.3.1-.4c.7-.1.2 0 .4.1zm.2-2c.9-.1.3.2 1.3.3 2.3.1 3.7-.6 4.1.2l-2.7.2c-.6 0-2.2.1-2.7-.1v-.6zm7.7 3v-2.6c-.1-1-.3-1.8.3-1.9h4.5c.1.6-.1.5-.3 1.1-.4 1.4.1 2.9-.2 3.6-1.1.1-3.3.2-4.3-.2zm-3.4-4.3l-1.6.1c-.7 0-2.5.2-2.9-.2-.1-.9.6-.4 1.1-.3s1.3 0 1.8 0l1.7-.1c1.2 0 1.1.2 1.2.5-.5.4-.5 0-1.3 0zm2.9-1.9l-1.2-.1c-1 0-6.2.1-6.7-.3-.1-1.2.7-.4 1.3-.3.9.1 5.8-.2 7.1.1 0 .6 0 .7-.5.6zm-.4-2.2l-4.5.2c-4.1.4-3-1-2.3-.7 1.5.5 2.3.1 4.3.1 1 0 3.7-.5 4.3.1-.2.7-.1.3-1.8.3zm-9.2 9.5c-.1-.2-.1.1-.2-.4v-.5c-.1-.2.2-.3-.3 0-.5.2-1.6 1.1-1.8 1.7 0 .1-.1.1.6.9l1.8 1.8c2.3 2 2.4 2.6 3.6 3.7 1.9 1.8 2 2.3 4.5 2.8 1.8.3 2.7-.2 3.6-1.1 1.2-1.1 6.7-6.3 7.3-7.3l-2.8-2.6c0 1.4.4 4.2-.2 5.3-.6-.5-.2-3-.3-4l-.1-2 .1-2c0-2.6-.2-5.5.1-8.3-2.5 0-5.5.2-8 0-.5 0-6.8-.3-7.2.1-.3.3-.5 10.5-.4 11.6.1.9.4 2.9 0 3.4-.5-.5-.4-1.8-.3-3.1z"/><defs><path id="SVGID_3_" d="M46.6 105.9c1.4 0 2.7-.3 2.6.6l-3.3-.1c-1.5-.1-7.4.4-6.2-.8.2-.2.8.2 1.4.3h5.5zm-7.7-2.4c.3-.3.4-.1.8 0 2 .4 10-.1 10.8.5-.1.4 0 .4-.5.3l-11-.1c-.3-.1-.4-.4-.1-.7zm-.1-2.8c1.5.5 3.7-.3 5.1.2.2.2.3-.3.1.4h-.4c-.6 0-.1 0-.3-.1-.8 0-4.5.2-4.9.1l-.1-.3.1-.4c.7-.1.2 0 .4.1zm.2-2c.9-.1.3.2 1.3.3 2.3.1 3.7-.6 4.1.2l-2.7.2c-.6 0-2.2.1-2.7-.1v-.6zm7.7 3v-2.6c-.1-1-.3-1.8.3-1.9h4.5c.1.6-.1.5-.3 1.1-.4 1.4.1 2.9-.2 3.6-1.1.1-3.3.2-4.3-.2zm-3.4-4.3l-1.6.1c-.7 0-2.5.2-2.9-.2-.1-.9.6-.4 1.1-.3s1.3 0 1.8 0l1.7-.1c1.2 0 1.1.2 1.2.5-.5.4-.5 0-1.3 0zm2.9-1.9l-1.2-.1c-1 0-6.2.1-6.7-.3-.1-1.2.7-.4 1.3-.3.9.1 5.8-.2 7.1.1 0 .6 0 .7-.5.6zm-.4-2.2l-4.5.2c-4.1.4-3-1-2.3-.7 1.5.5 2.3.1 4.3.1 1 0 3.7-.5 4.3.1-.2.7-.1.3-1.8.3zm-9.2 9.5c-.1-.2-.1.1-.2-.4v-.5c-.1-.2.2-.3-.3 0-.5.2-1.6 1.1-1.8 1.7 0 .1-.1.1.6.9l1.8 1.8c2.3 2 2.4 2.6 3.6 3.7 1.9 1.8 2 2.3 4.5 2.8 1.8.3 2.7-.2 3.6-1.1 1.2-1.1 6.7-6.3 7.3-7.3l-2.8-2.6c0 1.4.4 4.2-.2 5.3-.6-.5-.2-3-.3-4l-.1-2 .1-2c0-2.6-.2-5.5.1-8.3-2.5 0-5.5.2-8 0-.5 0-6.8-.3-7.2.1-.3.3-.5 10.5-.4 11.6.1.9.4 2.9 0 3.4-.5-.5-.4-1.8-.3-3.1z"/></defs><clipPath id="SVGID_4_"><use xlink:href="#SVGID_3_"/></clipPath><g clip-path="url(#SVGID_4_)"><path class="st4" d="M37.9 91.3H52v16.4H37.9z"/></g><path class="st1" d="M64.9 112.8c0-.7.2-1.3.5-1.8l.7.1.1 4c-1.2-.1-1.4-1-1.4-2.2v-.1h.1zm25.6 1l-.3.2h-.3l.1-2 .3-2c.6 0 .6 0 .8.6.2.9.3 2.9-.6 3.2zM66.9 111c1.5-.6 1.8.1 2.7-1.5s-.4-2 1.2-3.2c2.9-2.3.8-1.3 6.9-1.8 3.9-.3 4.2-.2 7.1 1.4 1.4.8.6 1.3 1.7 2.6.6.8 1.5 1.4 2.8 1.6l.2 1.6v1.5c-.1 3.6-.9 8.4-3.3 11l-.9.8c-1.9 1.8-3 2.6-6.4 2.4-2.9-.2-5.8-.8-7.6-2.9l-1.7-2a19.5 19.5 0 0 1-2.7-11.5zm0 7l.2.4.1.6c2.3 6.7 6.2 7.2 7 9 .8 1.7 0 3.9.7 4.5l.2-.2c.2-.3.2-.7.2-1.1 0-2.4-.2-2.2-.7-3.9 2.9.4 2.4.9 6.5.6.5-.3.3-.2 1-.3l2.5-1.3c2-1.5 3.9-4.1 4.5-6.8l.7-3 .2-1.7c.3-.5.5.3 1.2-.4.6-.6.7-2 .6-3.1-.2-1.4-.4-1.8-1.8-1.9-.8-3.6-.8-8.1-3.3-10.7-.8-.8-1.7-1.8-2.8-1.8.7 1.1.4.4 1.2 1 1 .8 2.1 2.3 2.7 3.7a33 33 0 0 1 1.4 7.1l.2.4.1.4c-.8-.1-.6-.1-.9-.3-.7-.3-1.5-.8-1.8-1.7-.5-1.5.2-1.3-1.4-2.1l-2.2-1.3c-1-.6-5.1-.3-6.4-.2l-3.2.2c-.8 0-.9-.2-1.3.3l-.9.8-.9.8-1 .7c-.1.2.3 3.9-1.8 3.3l-.5-.2c.3-1.3.2-2.8 1-3.8.5-.7 1.7-1.9 1.8-2.9s0-1.9-.3-2.7c-.6-1.6-1.7-2.8-3.1-3.2-.3-.1-.2 0-.3-.2l.2-.2 1.9-.7c1.7-.5 3-.7 4.8-.6l2.3.2h.8l.4.1.3.2c2.1.1 5.5 2.2 7.2 3.6 1.3 1 1 1.6 1.7 1.7.3-.7 0-.8-.4-1.2l-.9-1a17 17 0 0 0-7.6-3.7c-3.5-.6-6.5-.9-9.8.4-1.3.5-2.1.6-2.1 1.2 0 .9.4-.2 1.8.9.9.7 2 1.8 2.3 2.8.2.6.3 1.6.2 2.3-.2 1.5-1.4 1.1-2.1 3-.6 1.7-.6 2.3-.8 4.2-1-.1-1.3 0-1.6.8-.3.7-.4 1.4-.4 2.1 0 .8.1 1.5.5 2 .4.6.7.7 1.6.6l.3 2.3zM36.2 101.9l.3-.3c.1.2.2.1.2.6v.7c-.1 1.2-.2 2.6.4 3 .4-.5.1-2.5 0-3.4-.1-1.1.1-11.3.4-11.6.3-.4 6.6-.1 7.2-.1 2.5.2 5.4 0 8 0-.3 2.8-.1 5.6-.1 8.3l-.1 2 .1 2c0 1-.3 3.5.3 4 .6-1.1.2-3.9.2-5.3l2.8 2.6c-.6.9-6.1 6.1-7.3 7.3-.9.8-1.8 1.4-3.6 1.1-2.5-.5-2.6-.9-4.5-2.8-1.2-1.1-1.3-1.7-3.6-3.7l-1.8-1.8-.6-.9c.1-.6 1.2-1.5 1.7-1.7zm-1.8 3.4v-.6c.5 0 .1 0 .3.2l2.4 2.4 1.3 1.1c.8.8 3.7 4.3 5 4.7l1.9.3c2.4.1 1.8.1 3.3-1.3l7.3-7c.3-.2-.4-.2.3-.1-.1.6 0 .2-.2.4 0 1.3-.7 3.8 0 4.8l.2-.2c.2-.3.3-.5.3-.9v-1.6c.1-.9.3-2.2.2-3.1l-1.2-1.1-1.2-1.1c-1.3-1.3-1.4-.9-1.4-3.1l-.1-6.9c0-.7.4-1.5.2-2-.9-.1-6.7.2-8.1.1-2.9-.2-3.7-.2-6.5-.2l-2-.2c-.2.9 0 .4.1 1.1v1.2c.2.9-.1 8.3-.1 8.6-.2.4-.4.3-.9.6l-.8.6c-2 1.9-1.4.7-1.6 4-.1 2.3-.5 4.6-.5 7.5 0 8.2.3 6.7 3.7 6.7l10.6.2 9.7-.3.4-.2.1-.1c-.1-.2 0-.2-.5-.4-.3-.1-4.6.2-5.1.2-3.8.2-7.7-.1-11.9 0-1.8 0-3.7.2-5.4-.3l-.2-.1c-.9-1.4-.9-5.2-.6-7.1l.4-3.6c.3-.7.6-2.4.6-3.2zM98.2 119h-.6c0 1.8-1.2 4.6-.6 6.1.7 0 .9-.7 2.1-1.8l1.9-1.9 3.1 1.6c8.1 3.6 23.5 0 19.5-10.5-1.7-4.4-2-4.4-5.3-6.8l-1.5-.9c-3.5-2.1-8.4-2-12.2-1-1.1.3-2.6.7-3.6 1.2l-1.5.9c-.5.3-1.2.7-.8 1.4 1.2.2-.1-.6 2.8-1.8 1.3-.5 2.1-.9 3.6-1.1 4.1-.6 8 .1 11.7 1.5 2.8 1.1 5.5 4.7 6.3 7.9.9 3.8.2 4.8-1.7 6.8a11.9 11.9 0 0 1-6.5 2.9c-3.2.5-5.3.5-8.5-.2-4.1-.9-5.8-3.1-6.2-3.3l-2.6 3.2v-.2l.1-.9c.2-1 .8-2.9.5-3.1z"/><path class="st35" d="M87.7 132.8c.2-.3.1-.1.1-.6-1.7-1.6-1.1-2.6-3.6.4l-.9 1.1c-1.1 1.4-1.4 1.5-2.7 3.5-1 1.6 1.1 2.2 1.1 2.2l3.1-3.4c.8-1.1 1.3-1.4 2.3-2.6l.6-.6zM70.2 132.3c.2.5 1.4 2.1 1.8 2.7.7 1.1.4 1.1 1.8 2.8.5.7.7 1.3 1.5 1.7l1.9-1.5c-.2-1.1-.6-.9-1.1-1.7l-3.6-5.3a3 3 0 0 0-2.3 1.3z"/><path class="st1" d="M70.2 132.3c.5-.8 1.3-1.2 2.2-1.4l3.6 5.3c.5.8.9.7 1.1 1.7l-1.9 1.5c-.7-.4-.9-1-1.5-1.7-1.4-1.6-1.1-1.7-1.8-2.8-.3-.5-1.5-2.1-1.7-2.6zm.2 1.5a51 51 0 0 1-7.8.6c-1.2.1-2.6.2-2.9 1.2a10 10 0 0 0-.7 3.5l.3-.2c.3-.4.2-1 .3-1.4 0-.4.3-1.1.5-1.5.7-1.4 4.9-1.2 6.9-1.4l3.7-.2c.7.9 1.4 2.2 2 3.2l1.1 1.5c.5.7.3 1.2 1.1 1.4l2.7-2.5c-.2-1.3-1.3-2.4-1.9-3.3l-1-1.6c-2.2-3.2-2.1-3.6-3.9-2.2-.5.4-1.3.7-1.3 1.2-.1.8.6 1.1.9 1.7zM83.4 132.7c-.2.4-.1.2-.4.4-.1.6-1.4 1.7-1.8 2.4-1.2 1.9-1.4.9-1.9 2.2.3.7 1.6 2.4 2.3 2.6.8-.2 1.1-1.1 1.7-1.8l1.6-1.8c.8-.9 1-1.4 1.7-1.6 2-.6 8.3-.6 9.4-.1.7.3 1 1.1 1.2 2.2.1.6.1.7.4 1.2.2.4.3.8.7.9.2-.6-.1-1-.3-1.6-.4-1.2 0-1.6-1.3-2.9-.8-.8-4.1-.6-5.5-.6-1.3 0-2.7.2-4 .1.2-.6.7-.7 1-1.3.2 0 .6.2.7-.1l.3-.4-1.9-2.1c-1-1.1-.7-.6-1.5-.1-1.2.6-1.9 2.2-2.4 2.4zm4.3.1c-.4.1-.3.3-.7.7-1 1.1-1.5 1.5-2.3 2.6l-3.1 3.4s-2.1-.6-1.1-2.2c1.3-2 1.6-2.1 2.7-3.5l.9-1.1c2.5-3 1.9-2.1 3.6-.4.1.4.2.2 0 .5zM76.7 140.3c-.5.3-.2-.4-.2 1.3.1 1.4-.5 6.3-.2 7.5.3 1.1 2.3.9 3.5.4.6-.2.6-.2.7-.9v-6.2c0-.9.4-2.4-.4-2.2-.3.5 0 .7 0 2.2-.1 1.6.4 5.5-.4 6.8-.9.1-1.8.1-2.6-.2-.6-1.6 0-5.4 0-7.9-.1-.5 0-.5-.4-.8zM116.9 113.6c.2.4.7.8.2 1.4-.3.4-1.1.6-1.6.3-.4-.2-.7-1.2-.1-1.5s0 .4 1.1 0c.3-.2-.3-.1.4-.2zm.8 1.6c.8-1-.4-2.1-1-2.4-1.2-.6-1.6-.3-2.2.6-.5.8-.5 2.2.4 2.5 1 .4 2.3-.1 2.8-.7zM104.9 113c.9-.5 1.5-.6 1.8.4.4 1.2-.6 1.5-1.6 1.4-.5-.7-.4-.8-.2-1.8zm2.3 1.6c1-1.8-2.3-4-3.2-1.8-1.2 2.8 2.3 3.4 3.2 1.8zM110.3 113.5c1-.1-.3.3 1.1-.1.3.4.5.5.4 1.3-1.1 1-2.5.4-1.5-1.2zm-1.3.9c.1 1.9 4.2 1.7 3.4-.6-.2-.6-1.1-1.6-2-1.3-.8.1-1.5 1-1.4 1.9z"/><path class="st5" d="M104.9 113c-.2 1-.2 1.1.2 1.8 1 .1 2-.2 1.6-1.4-.4-1-.9-.9-1.8-.4zM116.9 113.6c-.7.1-.1 0-.5.2-1.1.4-.5-.3-1.1 0s-.3 1.3.1 1.5c.5.3 1.3.1 1.6-.3.6-.6.1-1-.1-1.4z"/><path class="st1" d="M83 133l.1-.4c-.6-.6-.6-1-.6-2 0-.7.4-1.8-.5-1.5-.4.6-.2 1.8-.1 2.6s.4 1.2 1.1 1.3z"/><path class="st5" d="M110.3 113.5c-1 1.6.4 2.2 1.6 1.2.1-.8-.1-.9-.4-1.3-1.5.4-.2 0-1.2.1z"/><path class="st1" d="M78.3 145.6c.3.2.2.1.6.1.2-.5.4-1.2-.2-1.4s-.7.4-.8.7c.1.1.2.5.4.6zM77.9 141.6l.1 1.1c1 .2 1 0 1-.9l-.3-.2h-.8z"/><path class="st9" d="M77.9 141.6l.8-.1c-.1-.1.3-.2-.4-.2l-.4.3z"/><path class="st8" d="M83 133v.1c.3-.1.2 0 .4-.4-.1-.2 0 0-.3-.2l-.1.5z"/><path class="st36" d="M76.9 124.4l.1-.3c.1-.1-.3-.2.3 0 .2 0 .2.1.3.2l.9.3c-.4.5-1.1.3-1.6.2v-.4zm-1.3-6c.5.2 1.4 1.5 3.5 1.4.6 0 1.3-.4 1.7-.7.8-.7.5-1.1 1.3-.8 0 .6-.8 1.3-1.2 1.6-1.7 1.3-4.4.4-5.3-.6-.6-.6 0-.9 0-.9zm2.6-2.6c1 .2 1-.6 1.7-.6.5 1.7-3.3 1.9-2.7 0 .7-.1.3.3 1 .6zm2-3.2c-.5-1.7 1.7-2.9 3.2-2.7 1.3.2 1.4.2 2.1 1 .4.5.9 1.7.5 2.3-1.1-.3.3-2.3-2.7-2.7a2 2 0 0 0-1.9.7c-1.1 1.2-.1 1.5-1.2 1.4zm-8.7-.1c-.4-1.3 1.8-2.5 3.1-2.7a3.1 3.1 0 0 1 3.4 2.6c-1.4 0-.8-2.2-3.4-1.9-.8.1-1.7.5-2.1 1.1-.6.8-.1 1.1-1 .9zm-4.6-1.5c-.4 4 .9 8.8 2.6 11.5l1.7 2c1.9 2.1 4.7 2.7 7.6 2.9 3.4.2 4.5-.6 6.4-2.4l.9-.8c2.4-2.5 3.3-7.4 3.3-11v-1.5l-.2-1.6a4.1 4.1 0 0 1-2.8-1.6c-1.1-1.3-.2-1.8-1.7-2.6-2.9-1.7-3.2-1.8-7.1-1.4-6.1.5-4-.6-6.9 1.8-1.5 1.3-.3 1.6-1.2 3.2-.8 1.5-1.2.9-2.6 1.5z"/><path class="st1" d="M80.2 112.6c1.1 0 .1-.2 1.2-1.4.5-.5.9-.8 1.9-.7 3 .3 1.6 2.3 2.7 2.7.4-.6-.1-1.8-.5-2.3-.7-.8-.7-.8-2.1-1-1.5-.2-3.7 1.1-3.2 2.7zM75.6 118.4s-.6.3-.1.9c.9.9 3.7 1.8 5.3.6.4-.3 1.2-1 1.2-1.6-.8-.2-.5.2-1.3.8-.4.4-1.1.7-1.7.7-2 .1-2.9-1.2-3.4-1.4zM71.5 112.5c1 .2.4-.2.9-.9.4-.5 1.3-1 2.1-1.1 2.6-.3 2 2 3.4 1.9-.1-1.5-1.6-2.8-3.4-2.6-1.3.2-3.4 1.4-3 2.7z"/><path class="st37" d="M64.9 112.8v.1c0 1.2.1 2.1 1.4 2.2l-.1-4-.7-.1c-.4.5-.6 1.1-.6 1.8zM89.9 112s.2 0 .2.9l-.1 1 .5-.1c.9-.4.8-2.4.5-3.2-.2-.6-.2-.6-.8-.6l-.3 2z"/><path class="st1" d="M79.8 115.2c-.6 0-.7.8-1.7.6-.7-.3-.2-.7-1-.6-.5 1.8 3.3 1.6 2.7 0zM76.9 124.1l-.1.3.1.3c.5.1 1.2.4 1.6-.2l-.9-.3-.3-.2c-.6-.1-.2 0-.4.1z"/><path class="st9" d="M90.5 113.8l-.5.1.1-1c.1-.9-.2-.9-.2-.9l-.1 2h.3c.5-.1.2 0 .4-.2z"/><path class="st7" d="M76.7 95.9l-.3-.2-.4-.1h-.8l.3.1.3.1.9.1z"/><path class="st9" d="M88.4 109.2c.3.2.2.2.9.3l-.1-.4-.2-.4.1.6-.7-.1z"/><path class="st7" d="M67.4 109.9c.4-.1.6-.1.2-.5-.1.1-.2-.1-.2.5z"/><path class="st9" d="M81.2 127.9h.6c.7-.1.2 0 .4-.2-.7 0-.6-.1-1 .2zM67.2 118.9l-.1-.6-.2-.4.1.5c.2.8 0 .3.2.5z"/><path class="st7" d="M64.5 105.3c.1-.1.1.2.2-.4-.7-.1-.1 0-.3.1.2.2.1-.1.1.3z"/><path class="st9" d="M89.9 119h.6l-.3-.3-.3.3zM66.3 97.1l-.1-.3-.2.1c.1.2.1 0 .3.2z"/><path class="st37" d="M68.1 111.6c1.5-.6 1.8.1 2.7-1.5s-.4-2 1.2-3.2c2.9-2.3.8-1.3 6.9-1.8 2.6-.2 3.5-.2 4.7.2-1.9-1-2.6-1.1-5.9-.8-6.1.5-4-.6-6.9 1.8-1.5 1.3-.3 1.6-1.2 3.2s-1.3.9-2.7 1.5c-.4 4 .9 8.8 2.6 11.5l1.7 2c.8.9 1.9 1.6 3 2-.7-.4-1.3-.9-1.8-1.5l-1.7-2c-1.7-2.6-3-7.4-2.6-11.4z"/><path class="st11" d="M34.6 112.3c0-2.7.4-4.8.5-6.9l-.4-.4-.3.4-.4 3.5-.4 3.6c-.3 1.9-.3 5.7.6 7.1l.2.1c1.7.5 3.7.3 5.4.3 4.2-.1 8.1.2 11.9 0 .4 0 4.7-.3 5.1-.2l.2.1.9-.7-9 .3-10.6-.2c-3.4-.3-3.7 1.2-3.7-7z"/><path class="st38" d="M71.8 131.1l1.9 2.6 1 1.6c.6.9 1.6 1.9 1.9 3.1l.6-.5c-.2-1.1-.6-.9-1.1-1.7l-3.6-5.3-.7.2zM82.1 136.2c.4-.7 1.7-1.8 1.8-2.4.3-.1.2 0 .4-.4.5-.3 1.1-1.8 2.1-2.4l.2-.2c-.5-.4-.8-.1-2.4 1.8l-.9 1.1c-1.1 1.4-1.4 1.5-2.7 3.5l-.3.7c.4-.7.7-.1 1.8-1.7z"/><path d="M50.8 97.7c-2.4 0-3.9-.7-3.6 2 .1 1-.2 1.7 1 1.7.8 0 1.8.1 2.5-.1l.1-3.6z" fill-rule="evenodd" clip-rule="evenodd" fill="#fdc062"/><path class="st1" d="M50.8 97.7l-.1 3.6c-.7.2-1.6.2-2.5.1-1.2-.1-.9-.7-1-1.7-.3-2.6 1.2-2 3.6-2zm-4.1 4c.9.4 3.2.3 4.3.3.3-.7-.2-2.2.2-3.6.2-.6.4-.5.3-1.1H47c-.6.1-.4.9-.3 1.9v2.5zM50.5 104.1c-.8-.6-8.8-.2-10.8-.5-.4-.1-.5-.3-.8 0s-.1.6.1.7l10.9.2c.5-.1.5 0 .6-.4zM45.9 106.3l3.3.1c0-.9-1.2-.6-2.6-.6l-5.5-.1c-.6-.1-1.2-.4-1.4-.3-1.1 1.3 4.8.8 6.2.9zM45.8 93.3c1.6 0 1.6.3 1.7-.3-.5-.5-3.3-.1-4.3-.1-1.9 0-2.8.4-4.3-.1-.8-.3-1.8 1.1 2.3.7a74 74 0 0 1 4.6-.2zM38.3 95.2c.5.3 5.7.2 6.7.3l1.2.1c.6 0 .6 0 .6-.5-1.3-.3-6.3 0-7.1-.1-.7-.2-1.5-1-1.4.2zM38.7 97.3c.5.3 2.2.2 2.9.2l1.6-.1c.8 0 .9.3 1.3 0-.1-.3 0-.5-1.2-.5l-1.7.1h-1.8c-.5-.1-1.2-.6-1.1.3zM38.5 101.3c.4.2 4.1 0 4.9-.1h.5c.2-.2.1.1.1-.3-1.5-.5-3.6.3-5.1-.2-.3.1-.2-.1-.3.1l-.1.5zM39 99.4c.5.2 2.1.1 2.7.1l2.7-.2c-.3-.8-1.8-.1-4.1-.2-1-.1-.4-.3-1.3-.3v.6z"/><path class="st9" d="M36.2 101.9c.5-.3.1-.1.3 0v.5c.1.5 0 .2.2.4v-.7c0-.6 0-.5-.2-.6l-.3.4z"/><path class="st7" d="M43.4 101.2c.2.1-.3.1.3.1h.4c.2-.7 0-.2-.1-.4 0 .3.1.1-.1.3h-.5zM38.5 101.3v-.5c.2-.2 0-.1.3-.1-.2-.1.3-.2-.4-.1l-.1.4.2.3z"/><path class="st9" d="M34.4 105.3l.3-.4c-.1-.2.2-.2-.3-.2v.6z"/><path class="st0" d="M71.2 28.9c0-1.2.8-.6 1.8-.6l2.6-.1 5.2-.2h5.1c.8 0 4.6-.4 5-.1.7.7-1 .5-1.8.5l-7.7.1c-1.1.1-10 .5-10.2.4zm19.1 2.4c-.1.3.1.1-.3.2h-.6c-2.9-.1-5.9.2-8.8.3-1.2 0-9.5.4-9.9.2l-.1-.6 9.8-.1c2-.1 5.6-.4 7.5-.3 1.7.1 2-.3 2.4.3zm16.8 4.1c-.8.7-1.1.5-2.3.5-1 0-7.1 0-7.5-.6 0 0-.6-8.4 0-8.8.2-.2 4 0 5.1 0l2.6-.1c1.2 0 1.2-.3 2.2.2.1.7-.2 1.3-.3 2v2.3l.2 4.5zm3.6 1.1c.1-1.2.2-4.9 0-6.1-.2-1.1-.1-1.9-.2-2.9-.1-1.3-.3-1.9-.5-3-1.6-.2-3.3-.3-5-.2l-5.4.3c-3.6 0-6.9.4-10.4.6l-10.7.4-5.4.1-5.2.3c-.5.9-.2 1.9-.2 3.1a53.7 53.7 0 0 0 .8 8.5c.1.3.6.7 1 .8 1.8.6 11.2-.3 14-.3 4.7 0 9.4-.6 14-.7 2.6-.2 11.4 0 13.2-.9zM89.8 9.7c1.5 0 1.8-.1 2 .6h-5.3l-5.4.2-5.2.2c-1 0-5.5.6-4.1-.6.6-.5.8.2 2.1.2l2.6-.1 5.2-.2 8.1-.3zm5.5-1.4l.2-.4c.8-.1.3 0 .5.1 2.8.4 7.4-.2 10.6-.2.7.7.6.8.6 2.2v7.8c-1.3.4-4 .2-5.6.2-1.4 0-5 .5-5.6.4-1.2-1.8.1-7.8-.7-10.1zm-4.2 4.2c.6.1.6.1.8.5l-15.6.4c-2.7 0-4.7.7-4.6-.4.7-.5 1.4 0 2.3 0l15.8-.5h1.3zM68.3 7.6c-.5 1.8-.3 9.8-.3 12.3.3 1 3.3.7 4.8.7 4.3.2 10.7-.5 13.7-.2l8.2-.3c1.8-.2 3.7-.1 5.5-.2l5.5-.4c1.3-.1 3.4 0 4.7-.6.5-1.1.5-4.5.6-5.9a24 24 0 0 0-.3-6c-.4-.5-4.2-.4-5.1-.5l-5.2.2c-3.6.2-7.3-.1-10.8.2-5 .5-8.8.3-13.6.5-1.7.1-5.3-.3-7.7.2zM92.5 46.1l-5.2.1c-3.1.3-9.8.5-13.3.6-.6 0-2.5.4-2.3-.4s1.4-.1 2.2-.1l2.8-.1c1.8-.2 3.8-.1 5.6-.1l9.5-.6c.5 0 .6 0 .7.6zm-1.7.6c0-.3-.2-.2-.2 0-.1.3.2.5.2 0zm2 2.3c-.1.6-.2.4-.9.5l-9.9.4c-1.2-.1-10.4.1-10.4.1-.3-.2-.5-.6 0-.8l1.1.2h2.9l5.8-.1 5.6-.2c.9 0 5.5-.4 5.8-.1zm5.1-5c.8-.3 1.3-.1 2.1 0h4.9c3.6-.1 3-.6 3.2 4.1 0 .8.3 4.5.2 4.8-.7.7-3.3.6-4.7.6-5.1 0-4.7.7-5.3-2.2-.4-1.5-.9-6.2-.4-7.3zm12.7-1c-1.1-.2-5.3-.3-6.6-.2-2.3.1-4.6 0-6.8.2s-4.7.1-6.7.3c-2.2.2-4.6.2-6.9.3-4.3.1-9.4.3-13.5.8-1.4.2-1.7.3-1.9 1.7-.3 3-.1 3.9.1 6.8.2 3.7 1.7 3.2 3.8 3.3 4.3.1 6.3-.2 10.2-.4l3.6-.1 3.3-.2c5-.1 9.2-.7 13.6-.9 1.5-.1 6.8-.2 7.9-1.1.8-.7.2-9.8-.1-10.5z"/><path class="st1" d="M60.9 40.3l-1.5.1c-.1-.9 0-1.2-.3-2-.4-1.1-.4-.7-1.2-1.2-.6-.4-.2-2.7.6-3.3 1.2-.8 2.3.3 2.3 1.7l.1 4.7zm-2.3-.9c0-3.1-4.2-.8-3 1l1.9.1c.5.2.8.1 1.3 0v-.6l-.2-.5zm-4.9 1.8l9.3-.3c.1 1.2.6 8-1.3 8.4-.6.1-2.4-.1-3.2-.1-6.2.1-4.6-.7-4.8-8zm13.8 10.7c-.1-2 0-1.7-2-1.8-1.3-.1-1.9-.1-3.2 0l-1.4-.2-5.1-.1c-3.1.1-4.4-.6-4.1 1.5.6.3.7.2 1.4.2 1.3 0 2.3.3 3.6.3 2.6-.2 8.6-.3 10.8.1zm0 .8v.6c-1.4-.2-7.8-.3-9.8-.2-.9 0-2.5.2-2.9-.6.8-.4 12-.2 12.7.2zm.2 1.8l-11.4-.4c-.7 0-.8.1-.9-.5l12.2.2.1.7zM110.6 43c.3.7.9 9.8 0 10.5-1.1.9-6.4 1-7.9 1.1-4.4.2-8.6.8-13.6.9l-3.3.2-3.6.1c-3.9.2-5.9.5-10.2.4-2.1-.1-3.6.5-3.8-3.3-.1-2.9-.4-3.8-.1-6.8.2-1.5.5-1.6 1.9-1.7 4.1-.5 9.2-.7 13.5-.8l6.9-.3c1.9-.2 4.5-.1 6.7-.3s4.5-.1 6.8-.2c1.4-.1 5.6-.1 6.7.2zM68.3 55.8c-.3-.6 0-.4-.6-.5-.8-.2-1.8-.2-2.6-.2l-7.2-.3c-2 0-2.8-.2-2.9.9 7.6.3 6.5.4 13.3.1zm-36 .7h1.6c.1.8-.1 1.6-.1 2.4-.1 1 .3 1.9-.9 1.8-1.5-.3-1.2-3.3-.6-4.2zm2.6-2.1c.8-.1 1.4-.2 2.2-.1 2 0 4.6-.4 7.2 0 .2 2.3.4 6.2-.1 8.3-.4 1.3-1.5 1.3-2.9 1.4l-4.4.2c-1.3-1.3-1.9-1.9-1.8-4.5 0-1.9.3-3.6.3-4.3-.1-1-.4-.6-.5-1zm38.7 5.4l.6-.1c.4-.2 0 .1.2-.2l.2-.7v-2c-1.2-.1-1.1-.4-1 3zm-3.8 4.1c0-.9-.4-3.2.1-3.7.5-.4 2.5 0 2.9-.4.2-.4.3-2.3.2-2.8l-.4-.1c-1-.2-2.3 0-3.1-.2-2.8-.7-4.8 0-7.5-.2-2.5-.2-4.9-.1-7.5-.2-4.7-.2-3.1.5-3.2 3.8 0 1-.2 2.9 0 3.7 0 0 .1.1.1 0h.9c2.8-.1 4.9.2 7.7.3 2.9.1 5.9.2 8.9.5l.9-.1v-.6zm39-1.8c.2.1.2-.2.4.5V64.4c-.6.2-.6.1-1.2 0h-.6c-.9-.1.6.1-.2 0l-.2-.1h-6l-.3-.2-.1-1.7c1.6-.3 6.6-.6 8.2-.3zm2.8-1.7c.4 1.1.7 2.7.6 4l-2.4-.1c-.1-1 .2-2.2-.2-3-.6-.2-9.2.1-9.7.4-.3.7.2 1.6.1 2.4-1.2 0-2-.2-3.4 0l-11.1.5c-1.5.1-13.4.2-14.8-.1-.3-1-.5-2.5-.2-3.6 2.2-.6 7.7-.7 10.4-.8l5.4-.1c2.9 0 7.2-.6 10.5-.4l14.8.8zM67.4 47.6v1.9h-1.6l-.1-.1-2.9-.1.5-.8c.6-1.3.4-4.5.4-6 0-.7.2-2.1 0-2.5-.3-.2-.8.3-2.2.2a17 17 0 0 0 0-3.9c0-1.6-.1-2.3-1.2-3-.5-.3-.8-.5-1.5-.3-1.9.5-1.7 2.3-2 4.1-1.6.4-2.1 1.4-2.1 3.2l-1.6-.2c-.2 1.1-.2 3.4-.1 4.5v2.5c0 1.3.4 1 .7 1.8-3 0-2.7-.5-2.7 1.4v.7l.1.3c.3 1.1 1.8.4 2.7.5.3.6.8.9.9 1.7.1.6 0 1.8-.7 2-1.1 0-2 0-2.9-.2-.7 1.3-.5 2.2-.4 4l-.1 4.4-6.1.1c.2-1.4 1.1.6.7-4.7v-5.2c-.2-.9-4.5-.6-5.5-.5-6.5.4-6-.8-5.7 2.3-2.3 0-2.6-.4-2.7 2.4-.1 2.2.2 3.1 2.4 3l.2 1c.3 1.4 1.3 1.3 1.7 1.9l-2.8-.1-8.8.1c-1.5 0-11.3-.2-11.8 0-.1 1.4 3.3 1 4.2.9l26.1-.6c1.2.1 1.1.2 2.5 0 2.5-.3 6.6.4 7.5.4 7-.2 13.8.4 20.6.7l10.6-.1c6.3-.3 15.2-1 21.3-.6l8.8.6 1.1.2c1.7 0 3.6-.2 5.3-.1l5.1.2c3.6.2 7.2-.2 10.8-.1h2.3c1.8-.1 3.5.1 5.2.1l1-.3c.4-.3.6-.7.2-1-.3-.2-4.7-.1-5.4 0-1.9.1-3.3-.2-5.1-.2h-5.4c-3 0-13.5.5-15.9.1-.5-1.7-.1-2.8-1-4.6-.2-.4-.1-.7-.5-1-.6-.5-3-.3-3.8-.3l-10.7.1c-1.2 0-1.5.3-2.5.3l-8.3.3c-3.6.1-7.7 0-11.2.3.1-.8-.2-2 .1-2.7.2-.3 2.2-.3 2.6-.4 2.3-.2 6.8-.2 8.5-.6 1.6-.3 4-.1 5.7-.2 4.4-.1 12.8-.6 17-1.2 2.8-.4 2-.9 2.3-2 .2-.5.3-.2.3-1.2 0-.9-.1-8.2-.4-8.7-.4-.7-1.4-.5-2.4-.5-5.7-.1-11.4.2-17.2.4-3.7.1-8 0-11.6.4-1.8.2-3.9 0-5.7.2-1.6.1-4.2.5-5.8.3-1 2.1-.9 1.6-1 4.5z"/><path class="st0" d="M91.7 62.6c-.3.2-3.9.1-4.6.1l-4.8.3-7.4.1c-.6 0-1.8.6-1.5-.6 1.5-.4 7.4 0 9.4-.1l4.7-.3c2 0 4.3-.6 4.2.5zm19.9-2.2l-14.9-.8c-3.3-.2-7.6.4-10.5.4l-5.4.1c-2.7.1-8.2.2-10.4.8-.2 1.1-.1 2.6.2 3.6 1.4.3 13.4.2 14.8.1l11.1-.5h3.4c.1-.8-.4-1.8-.1-2.4a63 63 0 0 1 9.7-.4c.4.8 0 2 .2 3l2.4.1c.1-1.3-.1-2.9-.5-4z"/><path class="st10" d="M59.4 57l1.3.1c3.2 0 4.5-1.1 4.4 1.4-.1 1.4-.3 1.4-.2 3.3.2 2.2.3 2-2.6 1.8-.9-.1-1.8.1-2.6-.2-.2-.9 0-2.2 0-3.1-.1-1.1-.4-2.4-.3-3.3zm10.4 6.9c0-.9-.4-3.2.1-3.7.5-.4 2.5 0 2.9-.4.2-.4.3-2.3.2-2.8l-.4-.1c-1-.2-2.3 0-3.1-.2-2.8-.7-4.8 0-7.5-.2-2.5-.2-4.9-.1-7.5-.2-4.7-.2-3.1.5-3.2 3.8 0 1-.2 2.9 0 3.7 0 0 .1.1.1 0h.9c2.8-.1 4.9.2 7.7.3 2.9.1 5.9.2 8.9.5l.3-.1h.4l.1-.3c.1-.5-.1-.1.1-.3z"/><path class="st0" d="M106 17.3c.5-1.7.3-2.3.2-4.1l-.1-4.7c-1.9-.3-6.2.3-7.5.2-.7-.1-1.7 0-2.5.1-.3 1 0 7.4.1 8.8 1.5.5 3.2 0 4.9 0 1.6-.1 3.4 0 4.9-.3z"/><path d="M34.9 54.4c.1.4.4 0 .4.9 0 .8-.3 2.5-.3 4.3 0 2.6.6 3.2 1.8 4.5l4.4-.2c1.4-.1 2.5-.1 2.9-1.4.6-2.1.3-6 .1-8.3-2.6-.5-5.2 0-7.2 0l-2.1.2z" fill-rule="evenodd" clip-rule="evenodd" fill="#dadbdc"/><path class="st11" d="M53.7 41.2c.2 7.3-1.4 8.1 4.9 8 .8 0 2.6.2 3.2.1 1.9-.4 1.4-7.2 1.3-8.4l-9.4.3z"/><path class="st0" d="M107.6 52.4l-.3-7.4c-.6-.4-5.2-.5-6.3-.5-3.3.1-2.8 0-2.6 4.3.2 3.4.4 4.2 2.7 4.1 1.5 0 5.4.2 6.5-.5z"/><path class="st41" d="M106.5 27h-7.4c-.7 0-.7 0-.9.2-.4.5.6 6.9.9 7.7.8.3 6.4.5 6.9.3.3-.1.2 0 .3-.3l.2-7.9z"/><path class="st1" d="M68.3 7.6c2.3-.5 6-.1 7.8-.2 4.7-.2 8.6 0 13.6-.5 3.5-.4 7.2-.1 10.8-.2 1.8-.1 3.4-.3 5.2-.2.9 0 4.7-.1 5.1.5.4 1.4.4 4.5.3 6-.1 1.4-.1 4.8-.6 5.9-1.2.6-3.4.6-4.7.6l-5.5.4c-1.8.1-3.7 0-5.5.2l-8.2.3c-3-.3-9.5.4-13.7.2-1.5-.1-4.6.3-4.8-.7-.1-2.5-.3-10.5.2-12.3zm-.9 12.9c1 .6 1.4.8 2.9.7H74c2.3-.1 9-.4 11-.3l7.2-.1 3.7-.3c2.4 0 5.1-.1 7.4-.3 2-.2 5.6.1 7.2-.6.8-.3.3-.4.6-1.2.7-2.7.2-2.4.5-5.2a22 22 0 0 0-.4-6.9c-.5-.5-2.4-.3-3.2-.3-3.2-.1-4.2 0-7.3.2h-3.8c-5.8-.2-12.4.7-18.4.7-1 0-2.3.2-3.4.1h-3.6c-2.5.2-2.7-.5-3.3-.2-.8.4-.8 1.6-.8 2.9l-.1 7.2c0 .7.2 1.1.1 1.7v1.9zM110.7 36.5c-1.8.9-10.6.7-13.3.8-4.6.1-9.3.7-14 .7-2.7 0-12.2.9-14 .3-.4-.1-.9-.5-1-.8L68 36c-.3-2.2-.4-4.8-.4-7 0-1.2-.2-2.2.2-3.1l5.3-.3 5.4-.1 10.7-.4c3.6-.2 6.9-.6 10.4-.6l5.4-.3c1.7-.1 3.3 0 5 .2.2 1.1.4 1.7.5 3 .1.9 0 1.8.2 2.9.2 1.3.1 5 0 6.2zM73.9 39h1.9c2.9-.3 6.3-.2 9.2-.4 5-.4 13.8-1 18.4-.8.9 0 6.3-.2 7-.5 1-.3.7-.9.8-1.6l.1-.9c.1-2.3.1-8.9-.7-10.4-.5-1-5.5-.6-6.9-.5-2.4.1-5.2 0-7.4.2-7.3.8-14.7.7-22 1-1.4.1-2.2.2-3.6 0l-1.7.1c-2.1.2-2.4-2.1-2.1 6.1 0 1.5 0 5.6.8 6.5.9 1 .7 1.1 2.6 1.1l1.8.1c.6.2 1.3 0 1.8 0z"/><path class="st1" d="M106.5 27l-.2 7.9c-.1.3 0 .1-.3.3-.5.2-6.1 0-6.9-.3-.3-.8-1.3-7.2-.9-7.7.2-.2.2-.2.9-.2h7.4zm.5 1.6c.1-.7.3-1.3.3-2-.9-.5-1-.3-2.2-.2l-2.6.1c-1.1 0-4.9-.2-5.1 0-.5.4 0 8.8 0 8.8.4.6 6.5.6 7.5.6 1.2 0 1.6.3 2.3-.5l-.2-4.5v-2.3z"/><path class="st0" d="M51.6 51.2c.6.3.7.2 1.4.2 1.3 0 2.3.3 3.6.3 2.7-.1 8.7-.1 10.9.2-.1-2 0-1.7-2-1.8-1.3-.1-1.9-.1-3.2 0l-1.4-.2-5.1-.1c-3.2 0-4.5-.7-4.2 1.4z"/><path class="st1" d="M106 17.3c-1.5.3-3.3.1-5 .2-1.6.1-3.4.5-4.9 0-.1-1.3-.4-7.8-.1-8.7l2.5-.1c1.3.1 5.6-.4 7.5-.2l.1 4.7c.2 1.9.4 2.5-.1 4.1zM96 8h-.5l-.2.2c.8 2.3-.6 8.3.7 10.2.6.1 4.2-.3 5.6-.4 1.5 0 4.3.2 5.6-.2V10c0-1.3.1-1.4-.6-2.2-3.2 0-7.8.7-10.6.2z"/><path class="st0" d="M64.4 57.6c-.9-.1-3.5 0-4.3.2v5.1l4.1.2.2-5.5z"/><path class="st1" d="M107.6 52.4c-1.1.6-5 .5-6.5.5-2.2.1-2.5-.7-2.7-4.1-.2-4.2-.8-4.2 2.6-4.3 1.1 0 5.7.1 6.3.5l.3 7.4zM97.9 44c-.4 1.1 0 5.8.3 7.3.6 2.9.2 2.3 5.3 2.2 1.4 0 4 0 4.7-.6.2-.4-.1-4-.2-4.8-.2-4.7.4-4.1-3.2-4.1h-4.9c-.7-.2-1.2-.3-2 0z"/><path class="st0" d="M108.8 62.1c-1.6-.2-6.7 0-8.3.3l.1 1.7.3.2h8.1c-.1-.9.2-1.4-.2-2.2z"/><path class="st1" d="M42 48.4c1.4-.7 2-.8 2-1.4-.4-.2-.7-.1-1.3-.2.7-.6 1.3-.7 1.9-.9.6-.3.4-.1.5-.5-.5-.6-1.6-.3-2.2-.6.9-1 2.8-1.1 2.9-2-.8-.7-2.3-.2-3.3-.5.4-.5 2.3-1.3 3.1-1.6 1.3-.5.9-.2 1.1-.6-.4-.6-1.8-.5-2.5-.6s-2.3-.6-2.7-.4c-.1 1.2 1.5.6 3.9 1.1-1 .7-4.1 1.5-3.9 2.3.3.5.8.5 1.5.5h1c.7 0 .7.2.7.2-1.1.6-3 1.2-2.5 2 .3.3.2.2.8.3l.9.1c-.6.4-3.7 1.2-1.4 1.9l-.2.2c-.3.2-.6.3-.8.6-.3.7.3.8.9.8-.1-.7-.1 0-.4-.7z"/><path class="st42" d="M60.9 40.3v-4.6c0-1.4-1.1-2.5-2.3-1.7-.9.5-1.2 2.9-.6 3.3.7.5.8.1 1.2 1.2.3.8.2 1.1.3 2l1.4-.2z"/><path class="st1" d="M39.3 52.3c-.4-.3-.8-.2-1.1-.6.7-.7 2-.8 2.1-1.7-.7-.7-2.1-.2-3.1-.6.3-.6 2.7-1.1 3.1-1.9-.4-.6-.6-.4-1.4-.4l-1.6-.2c.2-.5.5-.6.9-.9l2.1-1.5c.5-.3.9-.3.8-.9-.2-.4-2.9-.3-3.5-.5-.5-.2-.5-.6-.9-.2-1.1 1.3 2.5.8 3.3 1.1-.3.4-.4.4-.9.7L37.2 46c-2.2 1.5.9 1.4 1.7 1.7l-.2.2c-.9.7-2.1.7-2.4 1.5.5.9 1.6.4 2.7.7l.4.2c-.4.2-2 .9-2 1.3.2.7.4.6 1 .9-.2.3-.3.3-.3.8.6 0 1.1-.3 1.2-1zM64.4 57.6c.1.3-.1 5.3-.1 5.5l-4.1-.2v-5.1c.7-.3 3.2-.3 4.2-.2zm-5-.6c-.1.9.3 2.2.2 3.3 0 .9-.2 2.3 0 3.1.9.3 1.7.1 2.6.2 2.9.2 2.8.5 2.6-1.8-.1-2 .1-2 .2-3.3.1-2.6-1.2-1.5-4.4-1.4l-1.2-.1zM92.5 46.1c-.1-.6-.2-.6-.8-.6l-9.5.5-5.6.1-2.8.1c-.8 0-2-.7-2.2.1s1.8.4 2.3.4c3.5-.1 10.2-.3 13.3-.6h5.3z"/><path class="st0" d="M68.3 55.8c-.3-.6 0-.4-.6-.5-.8-.2-1.8-.2-2.6-.2l-7.2-.3c-2 0-2.8-.2-2.9.9 7.6.3 6.5.4 13.3.1z"/><path class="st1" d="M91.8 13c-.2-.4-.2-.4-.8-.5h-1.3l-15.8.5c-.8 0-1.5-.5-2.3 0 0 1.2 1.9.4 4.6.4l15.6-.4zM92.8 49c-.3-.3-5 0-5.7.1l-5.6.2-5.8.1h-2.9c-.4 0-1-.3-1.1-.2-.5.1-.3.6 0 .8l10.4-.1 9.9-.4c.7-.1.7.2.8-.5zM91.8 10.3c-.2-.7-.5-.7-2-.6l-8 .2-5.2.2-2.6.1c-1.3.1-1.5-.7-2.1-.2-1.4 1.2 3.1.6 4.1.6l5.2-.2 5.4-.2c1.7 0 3.5.2 5.2.1zM90 31.6c.4-.1.1.1.3-.2-.4-.6-.7-.2-2.3-.3-1.9-.1-5.5.2-7.5.3l-9.8.1.1.6c.4.2 8.7-.2 9.9-.2l8.8-.3h.5zM73 28.3c-1 0-1.8-.6-1.8.6.2.1 9.2-.3 10.2-.4l7.7-.1c.7 0 2.5.2 1.8-.5-.3-.3-4.2 0-5 .1h-5.1l-5.2.2-2.6.1zM91.7 62.6c.1-1.1-2.2-.5-4.2-.4l-4.7.3c-1.9.1-7.9-.3-9.4.1-.3 1.2.9.6 1.5.6 2.4-.2 5.1-.1 7.4-.1l4.8-.3 4.6-.2z"/><path class="st0" d="M57.7 53c2 0 8.4 0 9.8.2v-.6c-.7-.4-11.9-.6-12.6-.2.4.8 1.9.7 2.8.6zM32.3 56.5c-.6.9-.9 3.9.5 4.1 1.2.2.9-.8.9-1.8 0-.7.2-1.6.1-2.4l-1.5.1z"/><path class="st42" d="M57.4 40.5l1.2-.1v-1c0-3.1-4.2-.8-3 1l1.8.1z"/><path class="st0" d="M55.4 53.7c.1.6.1.5.9.5l11.4.4V54l-12.3-.3zM73.6 59.8l.6-.1c.4-.2 0 .1.2-.2l.2-.7v-2c-1.2-.1-1.1-.4-1 3z"/><path class="st43" d="M108.8 62.1c.3.8.1 1.3.2 2.2h-2.1l.2.1c.8.2-.7-.1.2 0H109.1v-1.2-.6c0-.8 0-.4-.3-.5z"/><path class="st44" d="M67.4 47.6c-.4.3-.2 1.3-.2 1.8h-1.5l.1.1h1.6v-1.9z"/><path class="st42" d="M58.6 39.4v1l-1.2.1c.5.2.8.1 1.3 0v-.6l-.1-.5z"/><path class="st43" d="M69.8 63.9l-.2.3-.1.3h-.4l-.3.1.9-.1.1-.6zM96 8c-.2-.1.3-.2-.5-.1l-.2.4.2-.3h.5z"/><path d="M90.8 46.7c0-.3-.2-.2-.2 0-.1.3.2.5.2 0z" fill-rule="evenodd" clip-rule="evenodd" fill="#4b4d4e"/><path class="st17" d="M70.1 8.8c2.3-.5 6-.1 7.8-.2 4.7-.2 8.6 0 13.6-.5l4-.1v-.1c.7-.1.4 0 .4.1h6.2c1.8-.1 3.4-.3 5.2-.2l3.5.1-.2-.9c-.4-.5-4.2-.4-5.1-.5l-5.2.2c-3.6.2-7.3-.1-10.8.2-5 .5-8.8.3-13.6.5-1.8.1-5.4-.3-7.8.2-.3 1.8-.1 9.8-.1 12.3.1.5.8.6 1.7.7 0-3-.1-10.1.4-11.8zM74.9 27.4l5.4-.1a382.5 382.5 0 0 0 16.9-.9l1.8-.1 2.4-.1 5.4-.3 3.5.1-.3-1.6c-1.6-.2-3.3-.3-5-.2l-5.4.3c-3.6 0-6.9.4-10.4.6l-10.7.4-5.4.1-5.2.4c-.5.9-.2 1.9-.2 3.1a53.7 53.7 0 0 0 .8 8.5c.1.3.6.7 1 .8l.5.1-.1-.6c-.3-2.2-.4-4.8-.4-7 0-1.2-.2-2.2.2-3.1l5.2-.4z"/><path class="st32" d="M69.6 47.1c.2-1.5.5-1.6 1.9-1.7 4.1-.5 9.2-.7 13.5-.8l6.9-.3c1.7-.2 3.9-.1 5.9-.2.7-.2 1.2-.2 1.7-.1l5.8-.1 5.3.1-.2-.9c-1.1-.2-5.3-.3-6.6-.2-2.3.1-4.6 0-6.8.2s-4.7.1-6.7.3c-2.2.2-4.6.2-6.9.3-4.3.1-9.4.3-13.5.8-1.4.2-1.7.3-1.9 1.7-.3 3-.1 3.9.1 6.8.1 2.5.8 3.1 1.9 3.2-.2-.5-.4-1.2-.4-2.2 0-3-.3-3.9 0-6.9z"/><path class="st11" d="M104.9 16.2c-1.5.3-3.3.1-5 .2-1.2.1-2.6.3-3.8.2l.1.9c1.5.5 3.2 0 4.9 0 1.6-.1 3.4.1 5-.2.5-1.7.3-2.3.2-4.1l-.1-4.7-1.1-.1.1 3.6c0 1.9.1 2.5-.3 4.2zM106.5 51.3c-1.1.6-5 .5-6.5.5l-1.2-.1c.3 1 .9 1.3 2.3 1.3 1.5 0 5.4.1 6.5-.5l-.3-7.4c-.1-.1-.5-.2-1.1-.2l.3 6.4z"/><path class="st32" d="M71.3 61.8c2.2-.6 7.7-.7 10.4-.8l5.4-.1c2.9 0 7.2-.6 10.5-.4l14.4.8-.3-.9-14.9-.8c-3.3-.2-7.6.4-10.5.4l-5.4.1c-2.7.1-8.2.2-10.4.8-.2 1.1-.1 2.6.2 3.6l.6.1c-.2-.9-.2-2 0-2.8z"/><path class="st6" d="M83.5 484.8l-.1-6.6c-1.2-.1-1.7.3-2.5.2-1.2-1.6 1.6-2.9 3.1-4.8 1.4-1.7 1.6-.7 3.6.3.7.4 5.9 2.6 5.1 3.6-.1.2-.8 0-1 .1-.6.1.1.2-.9.3-1.2.1-1.1 0-2.1.4-.3 1.4-.1 4.9 0 6.4 1 .1 2.1 0 3.1-.1 2.7-.2 6.9.1 9.3-.1 2.8-.2 2.3-1.2 2.3-4 0-2.1.2-4 .3-5.9l.8-11.7c.1-1.9.2-4 .6-5.8.7-4 .4-2.2.2-5.6l-.5-.2-.1-.1c.4-.6.4-.4-.1-1.1-2.9-.3-13.3-.6-15.6.2l-.2 2.7c-.1 1.3.3 2-.6 2.5-.7.3.3-.4-1.1.1s-3.5 1.6-4.2 1.5c-.2-.4.2-2.3.2-3.2-.1-3.4.3-3.8-1-3.9-2.4-.1-4.5.1-6.9-.1a17 17 0 0 0-4.5.1c-.4.2.1.2-.5.3-.7.1-1.1-.2-2 .1-.6 4.1-.5 8.5-.7 12.7-.1 2.3-1.1 17.2-1 18.7.1 1.3 1.4 2.6 2.3 2.8 1.2.3 6.1-.1 8.1-.1 2.1.2 4.5.5 6.6.3z"/><path class="st0" d="M85.1 431.2c-.3.2-7.4-.1-7.9 0h-4.1l-2-.1c-.4 0-1.8.3-1.3-.5.3-.5 1.7.1 3.6.1l11 .1c.7 0 .4.1.7.4zm-23.7.8c.7-4.3 6.3-3.3 6.1.4-.1 2.3-3.9 3.7-5.4 1.8-.4-.6-.8-1.3-.7-2.2zm23.4 1.5l-14.3.1c-.6 0-1.6.5-1.4-.4.1-.5.8-.2 1.5-.2h2.1l4.1-.1h7.3c.8.1.7.1.7.6zm2.2 5c-.6.7.1 0-2.6.1-3.5.1-5.4-.2-9.6.1l-11.2-.1c-.4.1-.8.5-1.1.1-.6-.9 1.5-.6 2.4-.6l9.6.1c3.8-.2 6.1-.1 9.6-.1 1.1 0 2.5-.3 2.9.4zm-.3 3.2c-.3.1-2.1-.1-2.7-.1H68.2l-5.9.2v-.7c.7-.1 2.3.1 3.1.1h20.2c.6 0 1-.2 1.1.5zm-1.2 3.1c-.6.4-10.2.1-11.7.1l-11.8.2c-.3-1.4.4-.6 1.9-.5l3-.1c2.1-.1 4.2 0 6.4 0l9.5-.1 1.6.1c.5-.1 1-.3 1.1.3zm3.8 4.4c.5-1.5.4-11 .6-13.9.1-1.7.2-2.8.1-4.5s-.4-2.7-1.5-3.4-2.8-.5-4.2-.6l-18.9.4c-4.3.4-5.6-.3-5.4 4.1l-.3 4.5c-.1 1.5-.4 2.9-.4 4.4-.1 1.8-.5 7.8 0 9.1h15c1.8 0 14.2.1 15-.1z"/><path class="st16" d="M67.2 452.2l-.9 1.2-3.9 5.6-3.1 4.1c-2.4 2.9-3.1 4.3-6.6 3.7h-1l-2.3-.1-4.7-.1c-.4.8-.3 6.1-.4 7.2-.1 2.5-.4 4.8-.2 7.6.1 2.8 0 2.3 2.3 2.9 1.8.5 11.6.3 15.1.5l5.2.2c-1.4-2.5-.8 0-1-3.4l.3-4 .3-4.2.2-4.2c0-2.8.3-5.9.4-8.6.2-2.5-.1-1.6-.1-4.1.2-1.5.6-3.1.4-4.3z"/><path d="M43.5 450.5c.6.2.7.4.2.8-.4-.4-.4-.3-.2-.8zm24 0c-1.8-.1-4.2.3-6.1.2l-6.3-.3-9-.3-3.1-.3c-1.1 0-1.5.7-2 1.3l-1.5 1.8-4.4 5.4c-.7.8-1.9 1.9-2.3 2.5-.6 1-1.4 2.1.1 3.5 2 1.8 8.1 1.5 11.3 1.7l6.4.1c1.7 0 4.7.5 5.8-.6 5.3-5.1 6.4-8.5 9.9-12.9.7-.8.8-1.2 1.2-2.1z" fill-rule="evenodd" clip-rule="evenodd" fill="#ffeab5"/><path class="st1" d="M58.8 438.8l-.1.5-.5.1-5 2.1c-.8.3-1.5.1-1.3 1.1.9.4.5-.1 1.6-.6.7-.3 4.9-2 5.3-2l-.4 9.4c-1.5.3-3.7-.2-5.2-.2l-2.5-6.7c-.4-1-2.7-6.4-2.3-7l.5-.3c.5-.4.1-.1.4-.5s3.4-1.3 4-1.5c1.6-.5 4.1-1.5 5.8-1.6l-.3 7.2zm30.5 10.4c.5-1.5.4-11 .6-13.9.1-1.7.2-2.8.1-4.5s-.4-2.7-1.5-3.4-2.8-.5-4.2-.6l-18.9.4c-4.3.4-5.6-.3-5.4 4.1l-.3 4.5c-.1 1.5-.4 2.9-.4 4.4-.1 1.8-.5 7.8 0 9.1h15c1.8 0 14.2.1 15-.1zm2.3-1.8c.1-1-.3-.3-1.4-1.1l-.1-6c1.3.1 1.9.4 2.9.7l1.3.4 1.4.5.1-.7c-.4-.2-1.1-.2-1.7-.3l-3-1-1-.9v-1.1a9 9 0 0 1 3.3.9l2.2 1c.9.4 1.5-.6-.2-.9-1.3-.3-4-1.4-5.2-2v-1.8c1.3 0 6.5 3.1 7.3 3.1-.2-1-2.5-1.6-3.5-2.1-1.2-.7-2.6-1.2-3.7-1.9 0-.7-.1-1 .6-1 .6 0 2.6.9 3.7 1.1 2.5.6 2.6.5 4.5 1.8 0 1.7-1.8 5.1-2.4 6.7-.2.4-2.5 6-2.9 6.3-.6.2-2.8.3-3.7.2l-.1-1.8c1-.2 1.1.1 1.6-.1zm-3.5 7.1a20 20 0 0 1-4.3 1.6 40 40 0 0 1 0-6l4.4-.1c.4 1.7 0 2.9-.1 4.5zm-20.6-4c-.4.9-.6 1.3-1.2 2.1-3.5 4.4-4.6 7.8-9.9 12.9-1.1 1-4.1.6-5.8.6l-6.4-.1c-3.2-.2-9.3.1-11.3-1.7-1.5-1.3-.7-2.5-.1-3.5.4-.6 1.6-1.7 2.3-2.5l4.4-5.4 1.5-1.8c.5-.6.9-1.3 2-1.3l3.1.3 9 .3 6.3.3c1.9.1 4.3-.4 6.1-.2zm38.1 12.6c0-1.9.7-6.3.6-7.8l.1-2.7c.8.7 3.2 5.9 3.9 7.5.5.9.5 1.8.9 2.8-1 .7-1.2.7-2.8.6a8 8 0 0 1-2.7-.4zm-1.4 14.3c-.2-.2-.3-.2 0-.6v.6zm-20.7 7.4l-.1-6.6c-1.2-.1-1.7.3-2.5.2-1.2-1.6 1.6-2.9 3.1-4.8 1.4-1.7 1.6-.7 3.6.3.7.4 5.9 2.6 5.1 3.6-.1.2-.8 0-1 .1-.6.1.1.2-.9.3-1.2.1-1.1 0-2.1.4-.3 1.4-.1 4.9 0 6.4 1 .1 2.1 0 3.1-.1 2.7-.2 6.9.1 9.3-.1 2.8-.2 2.3-1.2 2.3-4 0-2.1.2-4 .3-5.9l.8-11.7c.1-1.9.2-4 .6-5.8.7-4 .4-2.2.2-5.6l-.5-.2-.1-.1c.4-.6.4-.4-.1-1.1-2.9-.3-13.3-.6-15.6.2l-.2 2.7c-.1 1.3.3 2-.6 2.5-.7.3.3-.4-1.1.1s-3.5 1.6-4.2 1.5c-.2-.4.2-2.3.2-3.2-.1-3.4.3-3.8-1-3.9-2.4-.1-4.5.1-6.9-.1a17 17 0 0 0-4.5.1c-.4.2.1.2-.5.3-.7.1-1.1-.2-2 .1-.6 4.1-.5 8.5-.7 12.7-.1 2.3-1.1 17.2-1 18.7.1 1.3 1.4 2.6 2.3 2.8 1.2.3 6.1-.1 8.1-.1 2.1.2 4.5.5 6.6.3zm.6-.1v-1.9l-.1-1.7c-.1-2.7.6-3.5-.4-3.7l-2.4.1c.4-.8 3.2-3.9 4.3-3.8l4.2 1.9c1.1.6.7.5.7.9.7.1.7 0 .9.5l-1.7.3c-.8 0-1.2-.2-1.6.5v6.9h-3.9zm-16.9-32.5l-.9 1.2-3.9 5.6-3.1 4.1c-2.4 2.9-3.1 4.3-6.6 3.7h-1l-2.3-.1-4.7-.1c-.4.8-.3 6.1-.4 7.2-.1 2.5-.4 4.8-.2 7.6.1 2.8 0 2.3 2.3 2.9 1.8.5 11.6.3 15.1.5l5.2.2c-1.4-2.5-.8 0-1-3.4l.3-4 .3-4.2.2-4.2c0-2.8.3-5.9.4-8.6.2-2.5-.1-1.6-.1-4.1.2-1.5.6-3.1.4-4.3zm48.8 33c-.4-.5-2.7-.2-3.8-.2l-9.2-.2c.5-.7.5-.3 1.2-.7.4-1.2-.2-.9 0-2.1.5-2.7.5-5.4.5-8.1l.8-10c2.1-.5 8.1 1.6 5.8-2.8l-3.4-6.8-1.8-3.3c-.8-1.7 1-2.1-1.9-2.2-1.7-.1-3.1.1-4.7.1-1.4 0-3.4.3-4.7.1-.2-1.8 5.4-11.6 4.9-13.4-.4-1.5-7.2-2.3-9.3-3.6 0-2 0-3.4-1.1-4.9-.8-1.2-3.4-1.1-5.1-1.1l-2.5-.1h-9c-4.4 0-7.5.2-11.7.4-1.4.1-1.3.2-1.6 1.3-.4 1.5-.4 1.5-.3 3.2-1.4.1-7.4 2.3-10 3-.9.2-.2 0-.9.6-.5.4-.8.6-.4 2 .6 2.1 1.7 4 2.4 6.2l2.3 6.4c-2.1-.3-3.9-.1-6.1-.1-2.3 0-3.8-.6-5.2 1a7 7 0 0 0-.7.9c-.3.5-.3.5-.8.9l-2.9 3.6-.7 1-.8.9c-1.3 1.8-1.3 1.3-2.3 2.5l-.9.8c-1 1-2.3 5.5 5.8 5.8l6.1.2-.1 7.2c-.1 2.4-.6 8.3.1 10.5-2 .1-4.3-.2-6.4-.2-1 0-5.8-.2-6.2 0-.2 1 .4.8 1.3.8 5.1-.1 10.6 0 15.7.3l3.4.2 5.5.1c2.2 0 3.3-.2 5.8 0l5.6.1 5.9-.1 16.7-.1h2.9c.9 0 .5.1 1.2.2.5.1 1.1-.1 1.6-.1 2-.2 9.5.2 12.3.2h3.7c1.6 0 .7.5 2.5 0 .5-.2.2.2.5-.4z"/><path class="st36" d="M57.8 435.6c-.2.5-.2.3-.8.5-1.2.4-2.1 1.1-2.4.7-.4-.8.5-.8 1.3-1 .7-.2 1.3-.7 1.9-.2zM50 437c-.1.9.5 1.1.7 1.9.3 1 .2 1.1.6 1.9.7 0 .6-.2 1.2-.5l1.3-.4c.9-.4.2-1.1-.1-2.5-.2-.9-.5-1.9-1.4-1.8-.8.2-2 .8-2.3 1.4zm8.4 5.5c-.2.5-.2.2-1.5.7l-1.6.7c-2.3.9-3 1.4-2.8.3.5-.2.8 0 3-.9.7-.4 2.1-1.3 2.9-.8zm0 2.2c-.6-.6-1.6.3-2.4.6l-2.5 1c0 .9.4.8.9.4.8-.6 2.2-1 3.4-1.5.6-.3.3-.1.6-.5zm-.2-5.4l.5-.5.1-.1.2-7.3c-1.6.2-4.2 1.1-5.8 1.6-.6.2-3.7 1.1-4 1.5s.1.1-.4.5c-.3.2-.2 0-.5.3-.3.6 2 6 2.3 7l2.5 6.7c1.5 0 3.7.5 5.2.2l.4-9.4a61 61 0 0 0-5.3 2c-1 .5-.6 1-1.6.6-.1-1 .5-.8 1.3-1.1l5.1-2z"/><path class="st11" d="M91.6 447.4c-.5.3-.6-.1-1.5 0l.1 1.8c.9.1 3 0 3.7-.2.4-.3 2.7-5.9 2.9-6.3.6-1.6 2.4-5 2.4-6.7-1.9-1.3-2-1.2-4.5-1.8-1.1-.3-3-1.1-3.7-1.1s-.5.3-.6 1c1.1.7 2.5 1.3 3.7 1.9 1 .5 3.3 1.1 3.5 2.1-.8 0-6-3.1-7.3-3.1v1.8c1.3.6 4 1.7 5.2 2 1.7.3 1.2 1.3.2.9l-2.2-1c-1-.4-2.2-.9-3.3-.9v1.1l1 .9 3 1 1.7.3-.1.7c-.4 0-.7-.3-1.4-.5l-1.3-.4c-1-.4-1.6-.6-2.9-.7l.1 6c1 .9 1.3.2 1.3 1.2z"/><path class="st0" d="M88.1 484.7a79 79 0 0 1 0-6.9c.3-.7.7-.4 1.6-.5l1.7-.3c-.3-.5-.2-.4-.9-.5-.1-.4.3-.3-.7-.9l-4.2-1.9c-1.1-.1-3.9 3-4.3 3.8l2.4-.1c1 .2.3 1 .4 3.7l.1 1.7v1.9h3.9z"/><path class="st47" d="M111.2 463l-.9-2.8c-.8-1.6-3.2-6.8-3.9-7.5l-.1 2.7c.1 1.4-.7 5.9-.6 7.8.5.2 2.1.4 2.8.4 1.5.1 1.6 0 2.7-.6z"/><path class="st0" d="M88.1 454.5c.1-1.7.4-2.8.1-4.5l-4.4.1a40 40 0 0 0 0 6c.6 0 4-1.3 4.3-1.6z"/><path class="st41" d="M62.1 431.6c-.8 1.6 1.2 3.9 3.6 2.4 2.7-1.6.2-4.9-1.7-4.1l-.8.3c-.4.3-.8.9-1.1 1.4z"/><path class="st1" d="M85.5 444.8c-.1-.6-.5-.4-1.2-.4l-1.6-.1-9.5.1c-2.1 0-4.3-.1-6.4 0l-3 .1c-1.6 0-2.3-.8-1.9.5l11.8-.2c1.6.1 11.2.4 11.8 0zM87 438.5c-.4-.7-1.9-.4-2.9-.4-3.5 0-5.9-.1-9.6.1l-9.6-.1c-.9-.1-3.1-.4-2.4.6.3.5.8 0 1.1-.1l11.2.1c4.2-.3 6.1 0 9.6-.1 2.7-.1 2.1.6 2.6-.1zM83.9 441.6c.6 0 2.4.2 2.7.1 0-.7-.4-.6-1.2-.6H65.2c-.8 0-2.5-.2-3.1-.1v.7l5.9-.2h12.7l3.2.1zM62.1 431.6c.3-.6.6-1.1 1.1-1.4l.8-.3c1.9-.8 4.5 2.5 1.7 4.1-2.4 1.5-4.4-.8-3.6-2.4zm-.7.4a3 3 0 0 0 .7 2.2c1.5 1.9 5.3.5 5.4-1.8.3-3.7-5.3-4.6-6.1-.4zM84.8 433.5c0-.5 0-.5-.6-.5h-7.3l-4.1.1h-2.1c-.7 0-1.4-.3-1.5.2-.2.9.8.4 1.4.4 2.5-.3 14.1-.2 14.2-.2zM77.2 431.2c.5 0 7.6.2 7.9 0-.3-.3 0-.4-.7-.5l-11-.1c-1.9.1-3.3-.5-3.6-.1-.4.8.9.6 1.3.5l2 .1 4.1.1zM53.6 439.2l-1.9.8c-.5-.5-.5-1-.8-1.8-.3-.9-.4-1.3.4-1.7s1.5-.3 1.7.4l.6 2.3zM50 437c-.1.9.5 1.1.7 1.9.3 1 .2 1.1.6 1.9.7 0 .6-.2 1.2-.5l1.3-.4c.9-.4.2-1.1-.1-2.5-.2-.9-.5-1.9-1.4-1.8-.8.2-2 .8-2.3 1.4z"/><path class="st42" d="M53.6 439.2l-.5-2.2c-.3-.7-1-.9-1.7-.4-.7.4-.7.8-.4 1.7.3.8.2 1.3.8 1.8l1.8-.9z"/><path class="st1" d="M125.7 485.8c0-1-.9-.3-3.8-.5l-4.2-.3c-.1 1.3.5.9 1.1.7.8-.1 6.2.5 6.9.1zM58.4 442.5c-.7-.5-2.2.5-2.9.8-2.2.9-2.5.7-3 .9-.2 1.2.5.6 2.8-.3l1.6-.7c1.2-.5 1.2-.3 1.5-.7zM58.4 444.7c-.6-.6-1.6.3-2.4.6l-2.5 1c0 .9.4.8.9.4.8-.6 2.2-1 3.4-1.5.6-.3.3-.1.6-.5zM57.8 435.6c-.6-.4-1.2.1-1.9.3s-1.6.2-1.3 1c.3.3 1.2-.4 2.4-.7.6-.3.6-.2.8-.6z"/><path class="st43" d="M58.8 438.8l-.6.6.5-.1.1-.5z"/><path class="st44" d="M104.2 476.8c-.3.4-.2.4 0 .6v-.6z"/><path class="st47" d="M69 480.5c-.1-1.5.9-16.4 1-18.7.2-3.8.2-7.7.5-11.5l-.3.1c-.7.1-1.1-.2-2 .1-.6 4.1-.5 8.5-.7 12.7-.1 2.3-1.1 17.2-1 18.7.1 1.3 1.4 2.6 2.3 2.8 1.2.3 6.1-.1 8.1-.1 2.1 0 4.5.3 6.6.1v-1.4l-4.1-.1c-1.9 0-6.9.4-8.1.1-.9-.2-2.2-1.5-2.3-2.8zM103.1 483c-3.4.2-9.4-.1-13.2.1l-1.2.1.1 1.5c1 .1 2.1 0 3.1-.1 2.7-.2 6.9.1 9.3-.1 1.7-.1 2.2-.6 2.3-1.5h-.4zM51.8 466.7l-2.3-.1-4.7-.1c-.2.4-.3 2-.3 3.6l.2-.9 4.7.1 2.3.1h1c3.5.6 4.1-.8 6.6-3.7l3.1-4.1 3.9-5.6.9-1.2c.1-1 .2-1.9.1-2.7l-.9 1.2-3.9 5.6-3.1 4.1c-2.4 2.9-3.1 4.3-6.6 3.7h-1z"/></svg>